<?xml version="1.0" standalone="no"?><!DOCTYPE svg PUBLIC "-//W3C//DTD SVG 1.1//EN" "http://www.w3.org/Graphics/SVG/1.1/DTD/svg11.dtd"><svg t="1745331081564" class="icon" viewBox="0 0 1024 1024" version="1.1" xmlns="http://www.w3.org/2000/svg" p-id="80558" xmlns:xlink="http://www.w3.org/1999/xlink" width="256" height="256"><path d="M837.632 560.1792l-79.5648-43.4688 79.4112-43.4176 43.4688-79.5648 43.4688 79.4624 79.5136 43.4176-79.4112 43.5712-43.4688 79.5136-43.4688-79.5136z m-165.6832 246.0672l-79.5648-43.4688 79.4624-43.4176 43.4176-79.5648 43.4688 79.5648 79.5136 43.4176-79.5136 43.52-43.4688 79.4624-43.3152-79.5136zM202.7008 244.0704l-107.008-58.5728 107.008-58.5216L261.2224 19.968l58.5216 107.008 107.008 58.5216-107.008 58.5216L261.2224 351.232 202.7008 244.0192z m554.2912 22.9376a116.736 116.736 0 0 1 0 165.0176L220.6208 968.3968a116.6848 116.6848 0 0 1-196.9152-51.6096 116.992 116.992 0 0 1 31.7952-113.5104L591.872 266.9056a116.736 116.736 0 0 1 165.12 0.1024z m-219.5968 301.7728l175.2576-175.2576a58.112 58.112 0 0 0-25.9584-97.28 57.856 57.856 0 0 0-56.1152 15.104L455.2192 486.7072c19.0464 5.0688 37.0688 15.0528 52.0704 30.1056 14.9504 14.848 24.9344 32.9216 30.1056 51.968z" fill="#FD395D" p-id="80559"></path></svg>