<?xml version="1.0" standalone="no"?><!DOCTYPE svg PUBLIC "-//W3C//DTD SVG 1.1//EN" "http://www.w3.org/Graphics/SVG/1.1/DTD/svg11.dtd"><svg t="1745330274936" class="icon" viewBox="0 0 1026 1024" version="1.1" xmlns="http://www.w3.org/2000/svg" p-id="5816" width="256.5" height="256" xmlns:xlink="http://www.w3.org/1999/xlink"><path d="M510.128219 509.733294m-487.991837 0a487.991837 487.991837 0 1 0 975.983674 0 487.991837 487.991837 0 1 0-975.983674 0Z" fill="#B8D9FF" p-id="5817"></path><path d="M515.644831 14.883745c-23.119582 0-45.815441 1.71957-68.075238 4.83372 237.251336 33.140809 419.89603 236.761793 419.89603 483.158117 0 246.400437-182.644694 450.025535-419.89603 483.149888a490.118674 490.118674 0 0 0 68.075238 4.837834c269.49945 0 487.983609-218.467704 487.983609-487.99595 0-269.495336-218.484159-487.983609-487.983609-487.983609z" fill="#6E6E96" opacity=".15" p-id="5818"></path><path d="M154.979359 505.792269c0-251.715473 177.078717-458.874328 404.461035-485.120401-17.294434-1.855326-34.843925-2.871436-52.61556-2.871436C237.300701 17.804546 18.820656 236.288706 18.820656 505.792269c0 269.49945 218.467704 487.979495 488.000064 487.979495 17.771636 0 35.321126-0.999655 52.61556-2.85498-227.378205-26.254301-404.456922-233.404929-404.456921-485.124515z" fill="#FFFFFF" opacity=".21" p-id="5819"></path><path d="M510.128219 1014.180349c-278.154894 0-504.447055-226.296274-504.447055-504.447055 0-278.154894 226.29216-504.447055 504.447055-504.447055 278.150781 0 504.447055 226.29216 504.447055 504.447055 0 278.150781-226.296274 504.447055-504.447055 504.447055z m0-975.983674c-260.004789 0-471.536618 211.53183-471.536619 471.536619s211.53183 471.536618 471.536619 471.536618 471.536618-211.53183 471.536618-471.536618S770.133008 38.196675 510.128219 38.196675z" fill="#6E6E96" p-id="5820"></path><path d="M503.661318 30.956379S400.014013 139.696575 400.014013 506.15017c-0.752826 142.979391 16.545722 390.391824 103.647305 477.497521 0 0-272.313292-61.456126-272.313292-477.489293 0-448.737914 272.313292-475.202018 272.313292-475.202019z" fill="#FFFFFF" opacity=".21" p-id="5821"></path><path d="M520.972208 1014.044593c-125.956468 0-224.621956-222.145445-224.621956-505.734676S395.01574 2.579355 520.972208 2.579355c55.828441 0 108.855382 44.441431 149.310536 125.133707 38.032123 75.858556 63.648784 180.468492 72.127335 294.552519a16.455218 16.455218 0 0 1-15.188167 17.627653 16.389397 16.389397 0 0 1-17.631766-15.188166c-16.496356-221.886276-97.583558-389.211162-188.617938-389.211162-103.918817 0-191.711519 216.525988-191.71152 472.820125 0 256.298251 87.792703 472.824239 191.71152 472.824239a16.455218 16.455218 0 0 1 0 32.906323z" fill="#6E6E96" p-id="5822"></path><path d="M473.988446 694.484256l-0.423722-0.004114c-124.738781-3.142947-240.887939-22.922119-327.055689-55.700913-91.721386-34.885063-142.234792-82.498236-142.234792-134.052435 0-53.894953 54.668349-103.034349 153.934452-138.359589 93.938727-33.428776 218.504728-51.842165 350.74709-51.842165 132.242361 0 256.808363 18.413389 350.747089 51.842165 99.270218 35.32524 153.938566 84.464635 153.938566 138.359589a16.455218 16.455218 0 0 1-32.910436 0c0-38.357114-48.131513-77.487622-132.061354-107.353844-90.487245-32.202862-211.132791-49.937473-339.713865-49.937473-128.576961 0-249.226621 17.734611-339.713866 49.937473-83.925727 29.866221-132.061354 68.99673-132.061354 107.353844 0 70.140368 167.15622 150.051021 437.20692 156.851139a16.459332 16.459332 0 0 1-0.399039 32.906323z" fill="#6E6E96" p-id="5823"></path><path d="M907.077447 705.180148a16.455218 16.455218 0 0 1-16.430535-15.780555c-4.45525-108.435774-36.917282-150.684547-115.783029-150.684546-79.005616 0-111.471762 42.244659-115.791257 150.663977-0.362015 9.08328-8.141219 16.093203-17.096971 15.788782a16.455218 16.455218 0 0 1-15.788782-17.096971c3.385661-84.85956 23.341727-182.266224 148.681124-182.266225 125.129593 0 145.176162 97.394323 148.668782 182.245656a16.463446 16.463446 0 0 1-16.459332 17.129882z" fill="#6E6E96" opacity=".15" p-id="5824"></path><path d="M903.481982 675.322154a16.455218 16.455218 0 0 1-16.430535-15.780554c-4.45525-108.439888-36.917282-150.688661-115.783029-150.68866-79.005616 0-111.471762 42.244659-115.791257 150.668091-0.362015 9.079167-8.141219 16.064407-17.096972 15.788782a16.455218 16.455218 0 0 1-15.788781-17.096972c3.385661-84.863674 23.341727-182.270338 148.681124-182.270338 125.129593 0 145.176162 97.398436 148.668782 182.249769a16.463446 16.463446 0 0 1-16.459332 17.129882z" fill="#6E6E96" p-id="5825"></path><path d="M1001.59622 905.205666c0 51.225094-41.911441 93.140649-93.140648 93.140649h-267.22863c-51.225094 0-93.148876-41.911441-93.148876-93.140649V747.889666c0-51.225094 41.911441-93.140649 93.148876-93.140648h267.22863c51.225094 0 93.140649 41.911441 93.140648 93.140648v157.316z" fill="#80F2AA" p-id="5826"></path><path d="M910.125776 645.698648h-267.228629c-51.216867 0-93.140649 41.911441-93.140649 93.140648v53.47946c0-51.22098 41.911441-93.140649 93.140649-93.140649h267.228629c51.225094 0 93.148876 41.911441 93.148877 93.140649v-53.47946c-0.012341-51.233322-41.923782-93.140649-93.148877-93.140648z" fill="#BDFFD5" opacity=".53" p-id="5827"></path><path d="M761.596863 889.507388a22.638266 22.638266 0 0 1-17.775749-8.630762l-46.066384-58.522983a22.625925 22.625925 0 1 1 35.555613-27.99444l30.306398 38.501096 76.993966-76.998079a22.625925 22.625925 0 0 1 32.001286 31.993058l-95.01243 95.016543a22.625925 22.625925 0 0 1-16.0027 6.635567z" fill="#6E6E96" p-id="5828"></path><path d="M908.455572 1014.801533h-267.22863c-60.431789 0-109.604095-49.164078-109.604094-109.595867V747.889666c0-60.427675 49.168192-109.595867 109.604094-109.595866h267.22863c60.427675 0 109.595867 49.164078 109.595867 109.595866v157.316c0 60.427675-49.164078 109.595867-109.595867 109.595867z m-267.22863-343.597297c-42.285797 0-76.693658 34.399634-76.693658 76.68543v157.316c0 42.281683 34.403747 76.685431 76.693658 76.685431h267.22863c42.281683 0 76.685431-34.399634 76.68543-76.685431V747.889666c0-42.281683-34.399634-76.685431-76.68543-76.68543h-267.22863z" fill="#6E6E96" p-id="5829"></path><path d="M906.102476 935.976924H638.873846c-51.225094 0-93.140649-41.911441-93.140649-93.148876v65.820873c0 51.225094 41.911441 93.148876 93.140649 93.148876h267.22863c51.225094 0 93.140649-41.911441 93.140648-93.148876v-65.820873c0 51.233322-41.915555 93.148876-93.140648 93.148876z" fill="#6E6E96" opacity=".15" p-id="5830"></path></svg>