<?xml version="1.0" standalone="no"?><!DOCTYPE svg PUBLIC "-//W3C//DTD SVG 1.1//EN" "http://www.w3.org/Graphics/SVG/1.1/DTD/svg11.dtd"><svg height="1024" node-id="1" sillyvg="true" template-height="1024" template-width="1024" version="1.1" viewBox="0 0 1024 1024" width="1024" xmlns="http://www.w3.org/2000/svg" xmlns:xlink="http://www.w3.org/1999/xlink"><defs node-id="88"></defs><path d="M 0.00 0.00 L 1024.00 0.00 L 1024.00 1024.00 L 0.00 1024.00 Z" fill="#ffffff" fill-rule="nonzero" node-id="90" stroke="none" target-height="1024" target-width="1024" target-x="0" target-y="0"></path><path d="M 394.10 404.70 L 400.20 406.20 L 401.40 415.30 L 393.80 415.70 L 394.10 404.70 Z" fill="#abadb4" fill-rule="nonzero" node-id="92" stroke="none" target-height="11" target-width="7.600006" target-x="393.8" target-y="404.7"></path><path d="M 470.60 92.70 L 476.20 89.20 L 481.90 86.00 L 487.80 83.20 L 493.80 80.80 L 502.10 78.20 L 510.50 76.00 L 519.10 74.40 L 527.80 73.20 L 545.10 72.10 L 557.70 72.00 L 570.40 72.50 L 578.80 73.10 L 595.50 75.50 L 603.70 77.40 L 611.70 79.90 L 619.70 82.90 L 628.40 86.90 L 637.00 91.30 L 645.30 96.20 L 653.30 101.40 L 661.10 107.00 L 676.10 119.20 L 683.10 125.70 L 693.30 135.80 L 700.60 141.70 L 704.50 144.20 L 708.70 146.30 L 723.60 151.60 L 733.80 155.80 L 743.70 160.50 L 753.50 165.60 L 763.00 171.30 L 772.20 177.30 L 781.10 183.80 L 789.70 190.80 L 798.00 198.10 L 805.80 205.90 L 813.20 214.00 L 820.20 222.60 L 827.90 233.10 L 835.00 243.90 L 841.60 255.10 L 847.70 266.50 L 853.20 278.30 L 858.20 290.20 L 862.70 302.40 L 866.60 314.80 L 870.00 327.40 L 872.80 340.00 L 875.20 352.80 L 876.90 365.60 L 878.00 381.20 L 878.50 396.80 L 878.60 412.40 L 878.20 428.00 L 877.20 443.60 L 875.10 462.50 L 875.10 465.80 L 875.60 469.00 L 876.90 473.60 L 878.70 478.20 L 885.00 491.90 L 886.60 496.50 L 888.50 502.30 L 891.10 514.10 L 892.20 523.10 L 892.70 532.20 L 892.80 541.20 L 892.00 568.50 L 895.00 572.70 L 898.40 576.70 L 913.10 591.40 L 916.50 595.30 L 922.30 603.50 L 924.70 607.60 L 928.40 616.30 L 930.10 622.40 L 931.30 628.60 L 931.80 634.90 L 931.80 641.30 L 931.20 647.50 L 929.90 653.80 L 928.20 659.90 L 925.80 665.70 L 922.90 671.40 L 918.90 677.80 L 914.60 683.70 L 909.90 689.40 L 904.90 694.60 L 897.80 701.20 L 890.20 707.20 L 882.20 712.90 L 873.80 718.10 L 856.50 727.50 L 830.00 740.00 L 860.30 756.00 L 867.70 760.40 L 874.70 765.10 L 879.20 768.60 L 887.40 776.30 L 891.00 780.60 L 894.20 785.30 L 897.20 790.30 L 899.20 795.90 L 900.80 801.50 L 902.00 807.20 L 902.60 813.00 L 902.80 818.80 L 902.60 824.70 L 902.00 830.50 L 901.00 836.30 L 899.60 842.10 L 895.60 853.10 L 890.20 863.70 L 883.60 873.20 L 879.80 877.70 L 874.20 883.10 L 868.30 888.10 L 862.30 892.70 L 855.90 896.90 L 847.20 902.10 L 838.10 906.70 L 828.80 910.70 L 819.20 914.30 L 809.40 917.40 L 799.50 920.00 L 789.40 922.30 L 769.40 925.80 L 755.70 927.10 L 741.80 927.80 L 727.90 928.10 L 717.40 927.90 L 696.60 926.40 L 686.20 925.10 L 675.90 923.30 L 665.80 921.20 L 655.80 918.50 L 645.80 915.40 L 636.10 911.90 L 626.60 907.80 L 617.20 903.20 L 608.10 898.00 L 602.40 894.20 L 597.10 890.00 L 592.30 885.40 L 587.80 880.40 L 579.70 869.50 L 569.20 852.20 L 509.30 856.10 L 505.10 857.10 L 503.40 858.20 L 501.80 860.40 L 497.10 876.90 L 492.00 891.60 L 488.90 898.60 L 485.20 905.40 L 482.40 909.70 L 479.30 913.80 L 471.70 921.80 L 467.60 925.50 L 458.70 932.00 L 452.40 935.70 L 445.80 938.90 L 439.00 941.70 L 424.90 946.00 L 417.60 947.60 L 406.50 949.50 L 395.40 950.80 L 384.20 951.60 L 373.30 952.00 L 360.60 951.40 L 347.80 950.50 L 334.90 949.20 L 322.20 947.30 L 313.80 945.60 L 305.50 943.60 L 297.30 941.20 L 289.30 938.30 L 281.50 934.90 L 273.80 931.00 L 269.00 928.20 L 264.70 924.90 L 260.70 921.30 L 242.00 901.20 L 232.20 898.80 L 204.40 895.70 L 185.60 891.90 L 174.20 889.00 L 166.60 886.70 L 152.00 881.10 L 144.90 877.70 L 138.20 873.90 L 131.80 869.60 L 127.20 866.00 L 122.90 862.10 L 118.80 857.90 L 115.00 853.30 L 110.10 845.60 L 106.80 837.40 L 105.30 831.80 L 104.30 825.90 L 103.90 820.00 L 104.30 808.00 L 105.10 802.00 L 107.60 790.30 L 111.60 776.90 L 114.40 769.30 L 117.40 761.80 L 122.50 750.80 L 128.10 740.00 L 151.80 697.50 L 154.90 690.40 L 156.20 685.50 L 156.00 683.20 L 155.50 681.80 L 154.60 680.40 L 125.80 656.00 L 119.40 649.80 L 113.30 643.30 L 109.60 638.70 L 106.10 633.90 L 100.30 624.00 L 97.90 619.00 L 95.80 613.70 L 94.10 608.30 L 92.90 602.70 L 92.20 597.20 L 92.00 592.90 L 92.70 584.70 L 93.60 580.80 L 94.90 576.90 L 96.70 573.20 L 98.90 569.70 L 101.60 566.20 L 108.80 558.80 L 116.30 551.80 L 124.20 545.20 L 140.80 532.90 L 177.90 508.20 L 180.20 506.00 L 182.10 503.50 L 184.50 499.30 L 186.40 494.90 L 194.20 472.80 L 202.60 451.60 L 206.50 443.40 L 216.40 424.30 L 219.10 418.60 L 221.20 412.90 L 222.30 408.90 L 222.90 404.90 L 223.50 388.70 L 224.60 376.70 L 226.10 364.80 L 228.10 353.00 L 230.60 341.20 L 233.50 329.60 L 236.90 318.10 L 240.70 306.70 L 245.00 295.50 L 249.60 284.40 L 254.70 273.60 L 260.20 262.90 L 266.20 252.50 L 272.50 242.30 L 279.20 232.30 L 286.20 222.60 L 293.30 213.90 L 300.80 205.40 L 308.50 197.30 L 316.60 189.60 L 325.00 182.20 L 333.70 175.10 L 342.70 168.30 L 351.90 161.90 L 361.30 155.80 L 380.80 144.70 L 390.90 139.60 L 411.50 130.50 L 421.90 126.50 L 436.50 121.40 L 440.20 119.60 L 443.50 117.40 L 448.20 113.70 L 461.30 100.60 L 465.80 96.40 L 470.60 92.70 Z M 478.10 135.80 L 476.30 138.00 L 470.00 148.10 L 466.50 151.10 L 464.70 151.90 L 449.40 156.10 L 436.20 160.30 L 423.30 165.00 L 413.70 169.00 L 404.30 173.30 L 395.10 178.00 L 377.00 188.80 L 368.10 194.70 L 359.60 201.10 L 351.30 207.90 L 343.30 215.00 L 335.60 222.40 L 328.30 230.10 L 321.30 238.10 L 314.60 246.50 L 308.20 255.10 L 302.30 263.90 L 296.70 273.00 L 291.40 282.30 L 286.60 291.90 L 282.20 301.60 L 274.40 321.70 L 271.10 332.10 L 268.30 342.50 L 265.90 353.10 L 263.30 367.30 L 261.30 381.70 L 259.90 396.10 L 259.00 410.60 L 258.30 439.50 L 255.00 444.10 L 251.40 448.50 L 248.00 451.80 L 242.00 459.10 L 234.10 470.90 L 234.70 473.30 L 230.90 480.50 L 228.00 490.00 L 226.80 495.90 L 223.80 519.70 L 219.70 525.10 L 215.10 530.20 L 210.20 535.10 L 204.80 539.60 L 199.30 543.70 L 193.60 547.30 L 187.60 548.00 L 181.70 549.10 L 176.00 550.70 L 170.50 552.80 L 165.10 555.20 L 154.80 561.10 L 149.90 564.60 L 143.70 569.70 L 137.90 575.10 L 132.60 581.00 L 130.80 583.40 L 129.60 585.90 L 129.00 588.40 L 129.00 593.70 L 130.90 600.40 L 132.70 604.30 L 136.60 611.60 L 140.90 617.80 L 145.60 623.60 L 150.60 629.10 L 155.90 634.40 L 163.30 641.00 L 171.10 647.20 L 179.30 653.00 L 187.80 658.40 L 205.10 668.10 L 197.40 684.80 L 166.80 745.30 L 156.70 767.70 L 152.30 779.10 L 148.30 790.70 L 143.80 806.20 L 143.00 810.00 L 142.70 817.80 L 143.10 821.60 L 143.90 825.30 L 145.10 828.90 L 146.70 832.30 L 148.70 835.50 L 151.20 838.30 L 154.10 840.80 L 157.60 842.90 L 163.90 846.10 L 176.90 851.40 L 183.60 853.50 L 192.60 855.90 L 201.80 857.80 L 211.10 859.20 L 229.90 860.90 L 253.50 861.60 L 267.50 861.60 L 272.10 875.80 L 275.10 880.80 L 278.50 885.30 L 282.30 889.30 L 286.50 892.90 L 290.90 896.20 L 295.70 899.10 L 305.80 903.90 L 311.20 905.90 L 319.40 908.50 L 327.70 910.50 L 344.20 913.60 L 369.10 915.00 L 377.60 915.10 L 394.40 914.60 L 402.80 913.70 L 411.00 912.20 L 419.00 910.30 L 424.90 908.30 L 430.60 906.00 L 436.30 903.20 L 441.80 899.90 L 445.90 896.60 L 449.60 893.00 L 452.90 889.20 L 455.80 885.00 L 459.10 879.20 L 461.80 873.10 L 464.00 866.60 L 465.80 859.90 L 467.10 853.20 L 468.00 846.30 L 468.70 835.90 L 468.90 825.90 L 501.20 824.60 L 517.30 823.30 L 533.40 821.40 L 544.10 819.80 L 565.20 815.50 L 575.60 812.80 L 585.90 809.60 L 596.10 805.90 L 601.70 807.50 L 601.70 815.20 L 602.50 823.00 L 603.30 828.20 L 606.00 838.20 L 607.90 843.00 L 610.10 847.60 L 612.80 852.00 L 615.80 856.10 L 619.30 859.90 L 623.20 863.50 L 628.90 867.60 L 634.70 871.30 L 640.80 874.60 L 647.00 877.50 L 655.60 880.90 L 664.40 883.80 L 673.40 886.20 L 682.50 888.20 L 700.70 891.00 L 715.80 891.90 L 731.00 892.30 L 741.10 892.20 L 761.30 890.90 L 771.40 889.70 L 781.30 888.10 L 791.20 885.90 L 800.90 883.30 L 810.40 880.00 L 824.90 873.90 L 834.60 868.60 L 839.30 865.50 L 847.90 858.40 L 851.70 854.40 L 855.20 850.20 L 858.20 845.60 L 860.80 840.80 L 862.90 835.70 L 864.40 830.20 L 865.20 818.20 L 865.00 814.20 L 864.10 809.00 L 863.10 806.70 L 861.80 804.50 L 860.10 802.60 L 857.80 800.80 L 845.60 792.40 L 829.40 783.50 L 799.70 768.40 L 792.20 764.20 L 785.00 759.60 L 778.10 754.50 L 768.10 746.50 L 739.30 720.70 L 776.60 715.50 L 785.80 713.70 L 794.90 711.40 L 806.60 707.30 L 812.40 704.70 L 817.10 703.80 L 826.20 700.90 L 839.20 694.80 L 851.90 688.00 L 866.20 679.20 L 870.80 675.90 L 879.50 668.60 L 883.40 664.60 L 886.90 660.30 L 890.10 655.80 L 893.80 648.40 L 896.30 640.20 L 895.60 635.60 L 894.60 631.40 L 893.10 627.40 L 891.20 623.60 L 888.20 618.90 L 884.70 614.50 L 880.60 610.30 L 876.20 606.50 L 866.80 599.50 L 852.10 590.50 L 844.30 586.60 L 849.20 574.20 L 852.70 561.20 L 853.90 554.60 L 854.70 548.00 L 855.00 541.30 L 854.90 534.70 L 854.30 528.10 L 853.10 521.50 L 851.40 515.10 L 849.20 508.70 L 848.10 502.80 L 845.00 495.90 L 840.20 488.00 L 836.60 481.40 L 835.00 475.90 L 834.70 473.10 L 835.00 470.10 L 838.10 454.50 L 840.00 442.10 L 841.20 429.60 L 841.80 417.00 L 841.90 404.40 L 841.40 391.80 L 840.40 379.20 L 838.70 366.70 L 836.50 354.30 L 833.70 342.00 L 830.40 329.90 L 826.40 317.90 L 822.00 306.10 L 816.90 294.70 L 811.30 283.40 L 805.10 272.50 L 799.80 263.90 L 794.10 255.70 L 788.10 247.60 L 781.70 239.80 L 774.90 232.30 L 768.40 226.00 L 761.80 220.10 L 754.80 214.50 L 747.60 209.20 L 737.70 202.60 L 727.50 196.60 L 716.90 191.00 L 706.10 186.00 L 695.10 181.50 L 680.90 176.30 L 678.20 174.80 L 672.20 170.00 L 662.50 159.90 L 656.10 153.80 L 642.60 142.30 L 635.60 137.00 L 621.00 127.00 L 609.70 120.20 L 603.80 117.20 L 597.70 114.90 L 593.50 113.70 L 589.20 113.00 L 584.80 112.80 L 592.80 128.80 L 574.40 120.80 L 568.20 118.40 L 555.40 114.80 L 548.80 113.60 L 542.20 113.00 L 530.10 112.80 L 519.50 113.70 L 509.10 116.00 L 504.10 117.80 L 494.50 122.40 L 490.00 125.20 L 485.80 128.40 L 481.80 131.90 L 478.10 135.80 Z" fill="#fdfdfd" fill-rule="nonzero" node-id="94" stroke="none" target-height="880" target-width="839.8" target-x="92" target-y="72"></path><path d="M 478.10 135.80 L 481.80 131.90 L 485.80 128.40 L 490.00 125.20 L 494.50 122.40 L 504.10 117.80 L 509.10 116.00 L 519.50 113.70 L 530.10 112.80 L 542.20 113.00 L 548.80 113.60 L 555.40 114.80 L 568.20 118.40 L 574.40 120.80 L 592.80 128.80 L 584.80 112.80 L 589.20 113.00 L 593.50 113.70 L 597.70 114.90 L 603.80 117.20 L 615.40 123.50 L 628.30 131.90 L 635.60 137.00 L 649.50 147.90 L 656.10 153.80 L 662.50 159.90 L 672.20 170.00 L 678.20 174.80 L 680.90 176.30 L 695.10 181.50 L 706.10 186.00 L 716.90 191.00 L 727.50 196.60 L 737.70 202.60 L 747.60 209.20 L 754.80 214.50 L 761.80 220.10 L 768.40 226.00 L 774.90 232.30 L 781.70 239.80 L 788.10 247.60 L 794.10 255.70 L 799.80 263.90 L 805.10 272.50 L 811.30 283.40 L 816.90 294.70 L 822.00 306.10 L 826.40 317.90 L 830.40 329.90 L 833.70 342.00 L 836.50 354.30 L 838.70 366.70 L 840.40 379.20 L 841.40 391.80 L 841.90 404.40 L 841.80 417.00 L 841.20 429.60 L 840.00 442.10 L 838.10 454.50 L 835.00 470.10 L 834.70 473.10 L 835.00 475.90 L 836.60 481.40 L 847.00 500.00 L 848.80 505.70 L 849.20 508.70 L 846.20 521.20 L 843.90 514.20 L 841.00 507.40 L 831.30 487.40 L 828.40 480.60 L 828.50 473.80 L 829.00 467.00 L 833.00 440.10 L 833.70 433.30 L 834.20 415.00 L 833.90 403.40 L 833.10 391.90 L 832.00 380.40 L 830.50 368.90 L 828.40 357.50 L 825.90 346.30 L 823.00 335.10 L 819.50 324.10 L 815.50 313.30 L 810.90 302.70 L 805.80 292.20 L 800.50 282.20 L 794.80 272.40 L 788.50 262.80 L 781.80 253.60 L 774.60 244.90 L 766.90 236.50 L 760.80 230.50 L 754.40 224.90 L 747.70 219.60 L 731.60 208.30 L 722.10 202.70 L 712.40 197.60 L 692.30 188.40 L 651.00 172.70 L 645.60 168.20 L 662.90 169.50 L 656.00 162.40 L 648.80 155.70 L 641.40 149.40 L 633.60 143.40 L 625.50 137.80 L 617.20 132.50 L 608.70 127.70 L 600.00 123.10 L 606.80 135.90 L 609.80 142.50 L 612.40 149.30 L 602.90 143.30 L 592.90 137.60 L 579.10 130.70 L 572.00 127.70 L 564.70 125.10 L 557.40 122.90 L 550.00 121.30 L 538.80 119.90 L 527.60 120.10 L 522.10 120.80 L 516.50 121.90 L 510.90 123.50 L 505.30 125.70 L 495.10 130.10 L 515.00 134.50 L 528.10 138.40 L 540.60 143.50 L 546.60 146.70 L 552.50 150.30 L 523.90 150.00 L 514.40 150.40 L 505.00 151.20 L 484.00 154.70 L 472.40 157.00 L 461.00 159.80 L 449.60 163.00 L 438.40 166.60 L 427.30 170.70 L 416.50 175.20 L 405.90 180.20 L 395.50 185.70 L 385.40 191.70 L 375.60 198.20 L 366.10 205.20 L 357.40 212.30 L 349.10 219.70 L 341.20 227.40 L 333.60 235.60 L 326.40 244.10 L 319.70 252.80 L 313.30 261.90 L 307.30 271.30 L 301.70 280.90 L 296.50 290.80 L 291.80 300.80 L 287.50 311.10 L 283.60 321.50 L 280.20 332.10 L 277.30 342.80 L 274.80 353.60 L 272.30 368.00 L 270.30 382.40 L 268.90 397.00 L 268.30 407.90 L 268.10 418.80 L 268.30 429.70 L 269.00 440.70 L 267.50 459.70 L 260.10 465.90 L 252.90 472.40 L 253.30 466.40 L 253.00 460.40 L 251.40 448.50 L 255.00 444.10 L 258.30 439.50 L 259.00 410.60 L 259.90 396.10 L 261.30 381.70 L 263.30 367.30 L 265.90 353.10 L 268.30 342.50 L 271.10 332.10 L 274.40 321.70 L 282.20 301.60 L 286.60 291.90 L 291.40 282.30 L 296.70 273.00 L 302.30 263.90 L 308.20 255.10 L 314.60 246.50 L 321.30 238.10 L 328.30 230.10 L 335.60 222.40 L 343.30 215.00 L 351.30 207.90 L 359.60 201.10 L 368.10 194.70 L 377.00 188.80 L 395.10 178.00 L 404.30 173.30 L 413.70 169.00 L 423.30 165.00 L 436.20 160.30 L 449.40 156.10 L 464.70 151.90 L 466.50 151.10 L 470.00 148.10 L 476.30 138.00 L 478.10 135.80 Z M 475.00 148.10 L 481.50 147.90 L 494.60 146.70 L 504.30 144.90 L 513.90 142.60 L 505.00 140.50 L 500.30 139.90 L 495.70 139.80 L 491.20 140.20 L 486.80 141.20 L 483.60 142.30 L 480.60 143.80 L 477.70 145.70 L 475.00 148.10 Z" fill="#2f3625" fill-rule="nonzero" node-id="96" stroke="none" target-height="408.40002" target-width="597.80005" target-x="251.4" target-y="112.8"></path><path d="M 505.30 125.70 L 510.90 123.50 L 516.50 121.90 L 522.10 120.80 L 527.60 120.10 L 538.80 119.90 L 550.00 121.30 L 557.40 122.90 L 564.70 125.10 L 572.00 127.70 L 579.10 130.70 L 592.90 137.60 L 602.90 143.30 L 612.40 149.30 L 607.70 148.40 L 598.60 145.70 L 572.60 134.30 L 563.60 131.30 L 559.00 130.30 L 550.10 128.80 L 541.20 127.70 L 523.30 126.40 L 505.30 125.70 Z" fill="#b9d599" fill-rule="nonzero" node-id="98" stroke="none" target-height="29.400002" target-width="107.10004" target-x="505.3" target-y="119.9"></path><path d="M 495.10 130.10 L 505.30 125.70 L 532.30 127.00 L 550.10 128.80 L 559.00 130.30 L 568.10 132.70 L 579.10 137.10 L 592.10 143.00 L 598.60 145.70 L 607.70 148.40 L 612.40 149.30 L 609.80 142.50 L 606.80 135.90 L 600.00 123.10 L 608.70 127.70 L 617.20 132.50 L 625.50 137.80 L 633.60 143.40 L 641.40 149.40 L 648.80 155.70 L 656.00 162.40 L 662.90 169.50 L 645.60 168.20 L 655.80 176.70 L 660.80 180.40 L 666.00 183.60 L 705.80 203.20 L 722.20 212.70 L 730.20 217.80 L 737.90 223.40 L 745.30 229.40 L 752.80 236.10 L 760.10 243.20 L 767.00 250.60 L 773.60 258.30 L 779.90 266.30 L 785.70 274.50 L 791.10 283.10 L 796.10 292.00 L 792.40 303.90 L 790.90 307.70 L 788.10 312.30 L 786.20 314.30 L 781.30 317.00 L 776.20 319.20 L 770.90 320.90 L 754.80 325.20 L 771.30 342.40 L 765.20 342.30 L 754.80 338.30 L 749.50 336.60 L 744.10 335.30 L 736.80 334.40 L 733.10 334.60 L 723.00 336.40 L 713.30 339.60 L 704.10 344.00 L 697.40 347.90 L 691.10 352.20 L 699.50 322.50 L 694.70 327.60 L 690.30 332.90 L 686.30 338.50 L 682.60 344.20 L 678.30 352.10 L 674.40 360.30 L 671.20 368.70 L 668.50 377.40 L 666.20 386.20 L 664.40 395.20 L 662.00 413.40 L 661.40 422.60 L 661.00 436.30 L 661.30 449.90 L 651.80 447.40 L 642.20 445.60 L 629.10 444.40 L 622.60 444.30 L 616.10 444.70 L 609.70 445.60 L 603.20 447.00 L 634.70 450.10 L 642.50 451.50 L 650.10 453.30 L 659.90 456.90 L 672.00 463.00 L 679.40 466.20 L 687.00 468.80 L 692.90 470.30 L 698.80 471.40 L 704.80 472.00 L 717.00 472.40 L 751.40 472.30 L 767.40 472.80 L 778.10 473.50 L 788.70 474.80 L 799.30 476.60 L 803.20 459.40 L 816.00 408.90 L 820.20 387.60 L 822.30 370.30 L 823.90 382.90 L 824.90 395.40 L 825.40 408.10 L 825.30 420.70 L 824.70 433.30 L 822.30 461.00 L 821.90 468.60 L 822.00 476.10 L 822.40 481.10 L 823.30 486.00 L 831.60 513.40 L 833.40 521.00 L 834.90 531.30 L 835.00 536.50 L 834.90 543.40 L 834.20 550.20 L 833.00 556.90 L 831.20 563.50 L 828.90 569.90 L 826.20 576.20 L 823.00 582.20 L 819.50 588.10 L 815.50 593.70 L 809.70 595.30 L 803.90 597.30 L 798.30 599.70 L 781.10 609.50 L 769.00 615.80 L 756.70 621.60 L 744.30 627.10 L 719.00 637.20 L 661.40 658.30 L 642.40 665.70 L 625.70 670.70 L 601.00 678.90 L 588.10 682.40 L 583.50 683.00 L 579.00 683.20 L 572.10 682.80 L 565.20 681.90 L 558.30 680.50 L 551.60 679.00 L 575.50 671.50 L 583.50 667.70 L 594.60 660.40 L 587.50 660.20 L 596.10 652.70 L 589.90 642.00 L 597.40 636.70 L 604.50 631.00 L 611.40 625.10 L 618.00 618.80 L 626.40 610.00 L 634.40 600.80 L 641.90 591.30 L 659.20 567.10 L 665.80 559.70 L 669.40 556.30 L 680.10 550.10 L 688.30 554.10 L 691.20 554.60 L 692.70 554.30 L 696.30 550.50 L 699.60 546.50 L 711.70 529.30 L 716.80 528.90 L 706.40 516.00 L 700.80 509.90 L 695.00 504.00 L 688.80 498.60 L 682.20 493.50 L 683.80 496.60 L 690.30 506.50 L 692.30 509.90 L 693.80 513.20 L 694.80 517.80 L 694.70 520.00 L 694.20 522.20 L 693.10 524.50 L 691.40 526.90 L 670.60 539.50 L 663.40 543.30 L 658.50 545.40 L 653.40 547.10 L 648.20 548.40 L 639.90 549.20 L 631.70 549.30 L 623.50 548.90 L 607.30 546.60 L 599.20 545.00 L 575.30 538.90 L 575.30 524.30 L 597.70 515.30 L 604.40 512.40 L 610.80 509.10 L 614.80 506.60 L 618.60 503.60 L 622.20 500.30 L 624.20 498.00 L 625.80 495.40 L 627.10 492.50 L 628.00 489.50 L 628.70 483.30 L 628.40 480.20 L 627.70 477.30 L 626.60 474.50 L 624.90 472.00 L 622.80 469.80 L 620.10 467.90 L 615.40 465.40 L 610.60 463.40 L 605.60 461.90 L 600.50 460.80 L 590.00 459.60 L 574.30 459.10 L 564.60 459.30 L 548.20 460.40 L 535.40 462.80 L 526.20 465.80 L 517.50 470.20 L 515.10 472.00 L 513.20 474.10 L 511.70 476.60 L 510.60 479.20 L 510.00 482.00 L 509.70 485.00 L 509.90 487.90 L 510.40 490.80 L 511.40 493.50 L 512.70 496.10 L 514.40 498.40 L 520.90 503.80 L 525.40 506.80 L 530.20 509.30 L 537.70 512.70 L 560.90 520.90 L 568.40 525.40 L 562.40 529.80 L 556.20 533.80 L 549.70 537.50 L 542.90 540.80 L 536.00 543.60 L 528.90 546.00 L 521.70 547.90 L 514.40 549.10 L 507.00 549.90 L 495.90 549.70 L 490.30 549.10 L 484.80 548.10 L 478.70 546.50 L 472.60 544.40 L 466.70 541.90 L 461.10 538.90 L 455.70 535.50 L 450.80 531.60 L 447.30 528.30 L 444.20 524.80 L 441.50 520.90 L 439.00 516.70 L 458.80 505.80 L 446.30 509.90 L 434.00 514.40 L 421.80 519.40 L 409.80 524.80 L 397.90 530.50 L 386.30 536.60 L 406.00 531.10 L 425.40 524.80 L 435.40 547.10 L 434.00 556.00 L 433.90 560.40 L 434.30 564.80 L 435.90 570.50 L 441.20 582.00 L 450.10 599.10 L 455.10 607.50 L 460.50 615.50 L 466.30 623.10 L 471.00 628.60 L 476.00 633.80 L 481.30 638.60 L 487.00 643.20 L 499.30 650.90 L 505.70 654.30 L 525.50 663.50 L 512.00 663.70 L 524.70 669.40 L 548.40 678.10 L 541.30 679.40 L 534.30 680.20 L 527.30 680.60 L 520.40 680.50 L 511.10 679.90 L 501.80 678.80 L 492.60 677.20 L 478.90 674.10 L 465.20 670.50 L 424.80 659.10 L 384.50 648.20 L 371.20 644.20 L 358.10 639.80 L 340.90 632.90 L 316.50 621.00 L 305.60 616.50 L 299.90 614.90 L 296.10 614.30 L 288.10 614.10 L 280.60 607.60 L 273.60 600.60 L 267.00 593.20 L 265.20 586.80 L 263.00 580.70 L 255.20 562.60 L 250.50 550.30 L 248.90 544.00 L 246.80 532.50 L 245.80 517.90 L 244.70 491.70 L 243.20 480.10 L 241.90 474.40 L 246.40 467.80 L 247.80 481.70 L 252.90 472.40 L 260.10 465.90 L 267.50 459.70 L 269.00 440.70 L 271.30 435.20 L 274.70 424.10 L 276.50 415.60 L 281.20 380.70 L 282.70 372.10 L 285.40 359.00 L 288.60 346.00 L 292.30 333.10 L 296.50 320.40 L 301.30 307.80 L 306.60 295.50 L 312.50 283.50 L 323.70 263.30 L 328.90 255.30 L 334.50 247.60 L 340.50 240.20 L 347.00 233.10 L 353.70 226.40 L 360.80 219.90 L 368.20 213.80 L 375.80 208.00 L 391.80 197.40 L 400.10 192.50 L 411.40 186.50 L 422.90 181.10 L 434.60 176.20 L 446.30 171.70 L 458.20 167.80 L 470.20 164.30 L 506.50 154.70 L 495.60 152.70 L 505.00 151.20 L 514.40 150.40 L 523.90 150.00 L 552.50 150.30 L 546.60 146.70 L 540.60 143.50 L 528.10 138.40 L 515.00 134.50 L 495.10 130.10 Z M 364.10 254.70 L 381.80 241.20 L 388.00 237.20 L 392.20 234.80 L 396.70 232.80 L 401.30 231.10 L 409.10 229.60 L 413.00 229.40 L 418.90 229.70 L 424.80 230.50 L 436.30 233.00 L 430.40 227.20 L 427.20 224.70 L 423.60 222.70 L 421.10 221.80 L 418.50 221.30 L 415.60 221.20 L 410.20 221.60 L 404.90 222.60 L 399.90 224.10 L 395.00 226.10 L 390.30 228.50 L 385.80 231.40 L 381.50 234.60 L 373.70 241.90 L 370.20 246.00 L 364.10 254.70 Z M 360.40 290.90 L 364.90 288.00 L 377.90 278.30 L 387.00 272.50 L 391.90 270.20 L 400.20 267.60 L 406.60 266.80 L 411.50 266.80 L 416.30 267.30 L 435.60 270.40 L 430.10 264.00 L 427.00 261.10 L 423.60 258.70 L 421.10 257.50 L 418.50 256.70 L 411.10 256.00 L 406.80 256.20 L 402.50 256.70 L 398.30 257.70 L 392.90 259.50 L 387.70 261.90 L 382.70 264.80 L 378.00 268.30 L 373.70 272.10 L 369.70 276.40 L 366.10 281.00 L 363.00 285.80 L 360.40 290.90 Z M 706.50 275.80 L 718.80 275.80 L 724.90 276.10 L 730.90 276.80 L 734.90 277.70 L 738.70 278.90 L 746.10 282.40 L 752.60 286.60 L 757.00 290.30 L 773.50 306.80 L 777.90 310.60 L 777.30 306.70 L 775.10 299.10 L 773.50 295.40 L 770.80 290.70 L 767.60 286.40 L 764.00 282.30 L 759.90 278.50 L 755.60 275.30 L 750.90 272.40 L 746.00 270.10 L 741.00 268.40 L 735.90 267.20 L 732.00 266.80 L 728.20 266.80 L 724.40 267.20 L 720.60 267.90 L 717.00 269.10 L 713.40 270.80 L 709.90 273.00 L 706.50 275.80 Z M 382.00 337.90 L 374.70 341.80 L 366.60 348.20 L 362.20 352.50 L 352.20 363.70 L 350.50 365.10 L 348.60 366.00 L 344.30 366.90 L 327.90 366.10 L 346.30 378.90 L 341.30 382.20 L 334.50 384.80 L 330.20 385.70 L 321.30 386.60 L 342.20 390.30 L 340.90 407.20 L 341.10 418.50 L 342.50 429.60 L 343.80 435.10 L 345.70 440.50 L 346.70 457.30 L 333.50 463.10 L 378.90 468.20 L 394.10 469.40 L 405.20 469.10 L 416.40 468.30 L 431.10 466.40 L 447.30 463.70 L 455.90 461.80 L 464.40 459.40 L 489.70 451.50 L 512.30 446.90 L 523.70 445.10 L 535.10 443.80 L 542.80 443.40 L 550.40 443.50 L 558.20 444.00 L 544.20 442.20 L 537.20 441.90 L 526.70 442.00 L 516.20 442.80 L 495.30 445.50 L 487.60 447.20 L 480.10 449.50 L 450.70 460.30 L 454.10 454.20 L 457.00 447.90 L 459.50 441.40 L 461.50 434.80 L 463.10 428.00 L 464.20 421.20 L 464.70 414.30 L 464.60 407.30 L 464.00 400.30 L 461.80 385.30 L 460.20 377.80 L 457.90 370.50 L 453.90 361.20 L 451.40 356.90 L 448.50 352.80 L 445.20 348.90 L 441.40 345.40 L 437.30 341.90 L 432.90 338.90 L 428.30 336.50 L 423.30 334.70 L 418.30 333.40 L 413.00 332.60 L 407.70 332.30 L 402.40 332.40 L 397.10 333.10 L 391.90 334.30 L 386.90 335.80 L 382.00 337.90 Z M 300.00 492.70 L 291.60 495.30 L 283.30 499.20 L 275.90 504.30 L 272.60 507.30 L 269.80 510.70 L 267.30 514.30 L 265.80 517.20 L 263.90 523.60 L 263.20 530.00 L 263.40 532.70 L 265.00 537.80 L 266.70 540.90 L 268.90 543.60 L 271.60 546.10 L 274.60 548.20 L 277.80 549.90 L 287.70 553.10 L 294.30 554.60 L 301.00 555.50 L 307.80 556.00 L 314.70 555.90 L 321.50 555.40 L 328.20 554.50 L 334.90 553.00 L 341.40 551.10 L 347.80 548.70 L 353.90 545.90 L 359.90 542.60 L 364.40 539.50 L 368.90 536.00 L 374.10 530.60 L 376.20 527.60 L 377.80 524.40 L 379.00 520.90 L 379.50 517.20 L 379.30 514.70 L 378.70 512.40 L 377.70 510.30 L 375.50 507.50 L 372.90 504.90 L 367.00 500.80 L 361.80 498.10 L 356.60 495.80 L 351.20 493.90 L 345.60 492.40 L 338.10 491.00 L 330.50 490.10 L 322.80 489.90 L 315.10 490.30 L 307.50 491.30 L 300.00 492.70 Z M 743.90 499.00 L 736.20 501.30 L 732.50 502.90 L 726.90 506.50 L 723.30 510.30 L 722.00 512.50 L 720.90 515.00 L 719.40 520.60 L 719.30 523.10 L 719.60 525.40 L 720.40 527.60 L 723.20 531.60 L 725.90 534.30 L 729.10 536.60 L 735.60 540.40 L 743.10 543.70 L 750.90 546.40 L 758.90 548.50 L 765.00 549.70 L 777.40 550.90 L 783.60 550.90 L 789.70 550.40 L 795.80 549.50 L 801.80 548.10 L 807.70 546.30 L 810.30 544.90 L 812.40 543.30 L 814.10 541.40 L 815.40 539.20 L 816.40 536.90 L 816.90 534.30 L 817.10 529.10 L 816.70 526.40 L 816.00 523.80 L 813.80 518.80 L 810.60 514.60 L 804.10 509.30 L 799.30 506.20 L 794.30 503.60 L 789.00 501.40 L 783.50 499.60 L 778.00 498.20 L 772.40 497.30 L 766.60 496.80 L 760.90 496.70 L 755.20 497.00 L 749.50 497.80 L 743.90 499.00 Z" fill="#94b36f" fill-rule="nonzero" node-id="100" stroke="none" target-height="560.10004" target-width="593.1" target-x="241.9" target-y="123.1"></path><path d="M 475.00 148.10 L 477.70 145.70 L 480.60 143.80 L 483.60 142.30 L 486.80 141.20 L 491.20 140.20 L 495.70 139.80 L 500.30 139.90 L 505.00 140.50 L 513.90 142.60 L 504.30 144.90 L 494.60 146.70 L 481.50 147.90 L 475.00 148.10 Z" fill="#819e60" fill-rule="nonzero" node-id="102" stroke="none" target-height="8.300003" target-width="38.900024" target-x="475" target-y="139.8"></path><path d="M 366.10 205.20 L 375.60 198.20 L 385.40 191.70 L 395.50 185.70 L 405.90 180.20 L 416.50 175.20 L 427.30 170.70 L 438.40 166.60 L 449.60 163.00 L 461.00 159.80 L 472.40 157.00 L 484.00 154.70 L 495.60 152.70 L 506.50 154.70 L 470.20 164.30 L 458.20 167.80 L 446.30 171.70 L 434.60 176.20 L 422.90 181.10 L 411.40 186.50 L 400.10 192.50 L 391.80 197.40 L 383.70 202.50 L 368.20 213.80 L 360.80 219.90 L 353.70 226.40 L 347.00 233.10 L 340.50 240.20 L 334.50 247.60 L 328.90 255.30 L 323.70 263.30 L 318.90 271.70 L 312.50 283.50 L 306.60 295.50 L 301.30 307.80 L 296.50 320.40 L 292.30 333.10 L 288.60 346.00 L 285.40 359.00 L 281.20 380.70 L 276.50 415.60 L 274.70 424.10 L 273.20 429.70 L 269.00 440.70 L 268.30 429.70 L 268.10 418.80 L 268.30 407.90 L 268.90 397.00 L 270.30 382.40 L 272.30 368.00 L 274.80 353.60 L 277.30 342.80 L 280.20 332.10 L 283.60 321.50 L 287.50 311.10 L 291.80 300.80 L 296.50 290.80 L 301.70 280.90 L 307.30 271.30 L 313.30 261.90 L 319.70 252.80 L 326.40 244.10 L 333.60 235.60 L 341.20 227.40 L 349.10 219.70 L 357.40 212.30 L 366.10 205.20 Z" fill="#c8dfac" fill-rule="nonzero" node-id="104" stroke="none" target-height="288" target-width="238.4" target-x="268.1" target-y="152.7"></path><path d="M 671.60 186.40 L 666.00 183.60 L 660.80 180.40 L 655.80 176.70 L 651.00 172.70 L 692.30 188.40 L 712.40 197.60 L 722.10 202.70 L 731.60 208.30 L 740.80 214.50 L 747.70 219.60 L 754.40 224.90 L 760.80 230.50 L 766.90 236.50 L 774.60 244.90 L 781.80 253.60 L 788.50 262.80 L 794.80 272.40 L 800.50 282.20 L 810.90 302.70 L 815.50 313.30 L 819.50 324.10 L 823.00 335.10 L 825.90 346.30 L 828.40 357.50 L 830.50 368.90 L 832.00 380.40 L 833.10 391.90 L 833.90 403.40 L 834.20 415.00 L 833.70 433.30 L 833.00 440.10 L 829.00 467.00 L 828.50 473.80 L 828.40 480.60 L 831.30 487.40 L 841.00 507.40 L 843.90 514.20 L 846.20 521.20 L 847.00 528.40 L 847.40 535.60 L 847.30 542.90 L 846.80 550.10 L 845.70 557.20 L 844.10 564.20 L 842.50 569.40 L 838.30 579.40 L 835.70 584.20 L 832.40 589.30 L 824.90 598.80 L 818.60 605.30 L 811.80 611.50 L 804.80 617.20 L 797.50 622.60 L 801.50 615.10 L 805.90 607.80 L 819.50 588.10 L 823.00 582.20 L 826.20 576.20 L 828.90 569.90 L 831.20 563.50 L 833.00 556.90 L 834.20 550.20 L 834.90 543.40 L 834.90 531.30 L 833.40 521.00 L 831.60 513.40 L 829.40 505.90 L 824.60 491.00 L 823.30 486.00 L 822.40 481.10 L 822.00 476.10 L 821.90 468.60 L 822.30 461.00 L 824.70 433.30 L 825.30 420.70 L 825.40 408.10 L 824.90 395.40 L 823.90 382.90 L 820.80 360.00 L 818.80 349.80 L 816.30 339.70 L 813.20 329.80 L 809.60 320.10 L 805.50 310.50 L 801.00 301.10 L 791.10 283.10 L 785.70 274.50 L 779.90 266.30 L 773.60 258.30 L 767.00 250.60 L 760.10 243.20 L 752.80 236.10 L 745.30 229.40 L 737.90 223.40 L 730.20 217.80 L 722.20 212.70 L 705.80 203.20 L 697.30 198.80 L 671.60 186.40 Z" fill="#d2ddba" fill-rule="nonzero" node-id="106" stroke="none" target-height="449.89996" target-width="196.40002" target-x="651" target-y="172.7"></path><path d="M 364.10 254.70 L 370.20 246.00 L 373.70 241.90 L 381.50 234.60 L 385.80 231.40 L 390.30 228.50 L 395.00 226.10 L 399.90 224.10 L 404.90 222.60 L 410.20 221.60 L 415.60 221.20 L 418.50 221.30 L 421.10 221.80 L 423.60 222.70 L 427.20 224.70 L 430.40 227.20 L 436.30 233.00 L 424.80 230.50 L 418.90 229.70 L 413.00 229.40 L 409.10 229.60 L 401.30 231.10 L 396.70 232.80 L 392.20 234.80 L 388.00 237.20 L 381.80 241.20 L 364.10 254.70 Z" fill="#211716" fill-rule="nonzero" node-id="108" stroke="none" target-height="33.5" target-width="72.19998" target-x="364.1" target-y="221.2"></path><path d="M 360.40 290.90 L 363.00 285.80 L 366.10 281.00 L 369.70 276.40 L 373.70 272.10 L 378.00 268.30 L 382.70 264.80 L 387.70 261.90 L 392.90 259.50 L 398.30 257.70 L 402.50 256.70 L 406.80 256.20 L 411.10 256.00 L 418.50 256.70 L 421.10 257.50 L 423.60 258.70 L 427.00 261.10 L 430.10 264.00 L 435.60 270.40 L 416.30 267.30 L 411.50 266.80 L 406.60 266.80 L 400.20 267.60 L 391.90 270.20 L 387.00 272.50 L 377.90 278.30 L 364.90 288.00 L 360.40 290.90 Z" fill="#100f0c" fill-rule="nonzero" node-id="110" stroke="none" target-height="34.899994" target-width="75.20001" target-x="360.4" target-y="256"></path><path d="M 706.50 275.80 L 709.90 273.00 L 713.40 270.80 L 717.00 269.10 L 720.60 267.90 L 724.40 267.20 L 728.20 266.80 L 732.00 266.80 L 735.90 267.20 L 741.00 268.40 L 746.00 270.10 L 750.90 272.40 L 755.60 275.30 L 759.90 278.50 L 764.00 282.30 L 767.60 286.40 L 770.80 290.70 L 773.50 295.40 L 775.10 299.10 L 777.30 306.70 L 777.90 310.60 L 773.50 306.80 L 757.00 290.30 L 752.60 286.60 L 746.10 282.40 L 738.70 278.90 L 734.90 277.70 L 730.90 276.80 L 724.90 276.10 L 718.80 275.80 L 706.50 275.80 Z" fill="#13140e" fill-rule="nonzero" node-id="112" stroke="none" target-height="43.80002" target-width="71.400024" target-x="706.5" target-y="266.8"></path><path d="M 786.20 314.30 L 788.10 312.30 L 790.90 307.70 L 792.40 303.90 L 796.10 292.00 L 801.00 301.10 L 805.50 310.50 L 809.60 320.10 L 813.20 329.80 L 816.30 339.70 L 818.80 349.80 L 820.80 360.00 L 822.30 370.30 L 820.20 387.60 L 816.00 408.90 L 803.20 459.40 L 800.30 472.10 L 776.10 468.50 L 782.40 454.50 L 785.20 447.40 L 789.10 435.20 L 791.10 425.30 L 791.90 417.80 L 793.20 395.10 L 794.60 385.10 L 795.80 380.20 L 787.70 370.60 L 794.50 360.10 L 801.70 349.90 L 793.60 355.90 L 785.00 361.00 L 779.80 356.70 L 765.20 342.30 L 771.30 342.40 L 754.80 325.20 L 770.90 320.90 L 776.20 319.20 L 781.30 317.00 L 786.20 314.30 Z" fill="#8eac69" fill-rule="nonzero" node-id="114" stroke="none" target-height="180.1" target-width="67.5" target-x="754.8" target-y="292"></path><path d="M 661.30 449.90 L 661.00 436.30 L 661.40 422.60 L 662.00 413.40 L 664.40 395.20 L 666.20 386.20 L 668.50 377.40 L 671.20 368.70 L 674.40 360.30 L 678.30 352.10 L 682.60 344.20 L 686.30 338.50 L 690.30 332.90 L 694.70 327.60 L 699.50 322.50 L 691.10 352.20 L 682.20 368.30 L 678.30 376.60 L 674.80 385.20 L 671.30 396.90 L 668.60 409.90 L 667.60 416.90 L 667.00 424.00 L 667.10 435.80 L 667.70 440.50 L 669.80 451.90 L 661.30 449.90 Z" fill="#c8ddac" fill-rule="nonzero" node-id="116" stroke="none" target-height="129.4" target-width="38.5" target-x="661" target-y="322.5"></path><path d="M 382.00 337.90 L 386.90 335.80 L 391.90 334.30 L 397.10 333.10 L 402.40 332.40 L 407.70 332.30 L 413.00 332.60 L 418.30 333.40 L 423.30 334.70 L 428.30 336.50 L 432.90 338.90 L 437.30 341.90 L 441.40 345.40 L 445.20 348.90 L 448.50 352.80 L 451.40 356.90 L 453.90 361.20 L 457.90 370.50 L 460.20 377.80 L 461.80 385.30 L 464.00 400.30 L 464.60 407.30 L 464.70 414.30 L 464.20 421.20 L 463.10 428.00 L 461.50 434.80 L 459.50 441.40 L 457.00 447.90 L 454.10 454.20 L 450.70 460.30 L 480.10 449.50 L 487.60 447.20 L 495.30 445.50 L 516.20 442.80 L 526.70 442.00 L 537.20 441.90 L 544.20 442.20 L 558.20 444.00 L 550.40 443.50 L 542.80 443.40 L 535.10 443.80 L 523.70 445.10 L 512.30 446.90 L 489.70 451.50 L 464.40 459.40 L 455.90 461.80 L 447.30 463.70 L 432.50 465.70 L 437.00 457.50 L 439.90 456.90 L 444.80 454.90 L 446.80 453.60 L 449.10 451.40 L 451.10 448.80 L 452.80 445.90 L 455.00 439.50 L 456.20 430.60 L 456.30 425.20 L 455.20 415.10 L 447.90 426.60 L 441.50 401.00 L 449.20 379.10 L 454.80 383.70 L 448.00 368.30 L 443.10 360.30 L 438.30 354.80 L 435.50 352.40 L 432.50 350.20 L 425.20 346.60 L 421.20 345.30 L 417.20 344.50 L 413.00 344.10 L 407.50 344.10 L 402.00 344.80 L 396.60 346.20 L 391.20 348.10 L 386.20 350.50 L 377.30 356.00 L 373.60 359.00 L 366.80 365.80 L 362.90 370.90 L 359.50 376.30 L 356.60 382.10 L 354.10 388.10 L 352.00 394.20 L 350.40 400.40 L 348.70 410.30 L 347.30 420.40 L 345.70 440.50 L 343.80 435.10 L 342.50 429.60 L 341.10 418.50 L 340.90 407.20 L 342.20 390.30 L 321.30 386.60 L 330.20 385.70 L 334.50 384.80 L 341.30 382.20 L 346.30 378.90 L 327.90 366.10 L 344.30 366.90 L 348.60 366.00 L 350.50 365.10 L 352.20 363.70 L 362.20 352.50 L 366.60 348.20 L 374.70 341.80 L 382.00 337.90 Z" fill="#0a0a0a" fill-rule="nonzero" node-id="118" stroke="none" target-height="133.40002" target-width="236.90002" target-x="321.3" target-y="332.3"></path><path d="M 691.10 352.20 L 697.40 347.90 L 704.10 344.00 L 713.30 339.60 L 723.00 336.40 L 733.10 334.60 L 736.80 334.40 L 744.10 335.30 L 749.50 336.60 L 765.20 342.30 L 779.80 356.70 L 785.00 361.00 L 793.60 355.90 L 801.70 349.90 L 794.50 360.10 L 787.70 370.60 L 795.80 380.20 L 794.60 385.10 L 793.20 395.10 L 791.90 417.80 L 791.10 425.30 L 789.10 435.20 L 787.40 440.10 L 787.20 425.40 L 786.80 418.10 L 786.00 410.80 L 784.00 401.20 L 781.10 391.80 L 777.40 382.50 L 775.10 378.00 L 769.50 369.70 L 766.30 366.00 L 762.80 362.50 L 758.90 359.40 L 754.80 356.70 L 750.40 354.40 L 745.60 352.50 L 741.40 351.20 L 737.10 350.20 L 732.80 349.70 L 724.10 349.80 L 715.70 351.40 L 707.50 354.50 L 700.20 359.00 L 696.80 361.70 L 693.80 364.80 L 691.00 368.10 L 688.60 371.80 L 686.50 375.80 L 683.40 382.20 L 680.50 389.60 L 679.60 393.50 L 679.20 397.10 L 679.30 399.40 L 679.80 401.60 L 680.70 403.60 L 682.00 405.30 L 683.80 406.90 L 686.30 408.30 L 690.40 408.80 L 694.40 408.70 L 698.40 408.10 L 702.40 406.90 L 706.20 405.40 L 709.80 403.40 L 713.30 401.10 L 716.40 398.50 L 720.50 393.90 L 721.30 392.10 L 721.60 390.40 L 721.20 386.70 L 719.20 382.10 L 714.50 374.50 L 699.50 368.20 L 704.60 366.40 L 709.70 365.20 L 714.90 364.50 L 720.20 364.30 L 725.30 364.70 L 730.50 365.70 L 735.40 367.30 L 740.20 369.50 L 744.90 372.30 L 748.80 375.00 L 752.30 378.00 L 755.30 381.20 L 758.00 384.70 L 762.30 392.50 L 765.30 401.00 L 766.60 406.90 L 767.40 412.90 L 767.70 419.00 L 767.50 425.20 L 766.90 431.10 L 765.90 437.00 L 763.20 420.30 L 760.40 409.50 L 758.60 404.20 L 756.40 399.10 L 753.70 394.20 L 750.50 389.50 L 749.60 413.10 L 748.20 426.20 L 745.70 436.40 L 740.10 454.30 L 735.30 472.40 L 723.10 472.50 L 710.90 472.20 L 697.10 468.70 L 693.80 467.30 L 691.00 465.50 L 689.30 463.90 L 687.90 462.10 L 686.80 459.80 L 682.80 450.70 L 679.30 441.50 L 676.20 432.00 L 673.60 422.40 L 671.50 412.70 L 670.00 402.90 L 672.90 391.00 L 674.80 385.20 L 678.30 376.60 L 682.20 368.30 L 691.10 352.20 Z M 718.60 402.10 L 717.80 418.80 L 720.10 420.20 L 722.20 421.00 L 724.30 421.30 L 726.50 421.10 L 728.60 420.50 L 730.60 419.50 L 734.00 416.50 L 735.40 414.70 L 736.50 412.70 L 737.60 408.30 L 737.60 406.00 L 737.10 403.80 L 736.20 401.50 L 718.60 402.10 Z" fill="#000000" fill-rule="nonzero" node-id="120" stroke="none" target-height="138.1" target-width="131.70001" target-x="670" target-y="334.4"></path><path d="M 413.90 365.30 L 432.20 367.60 L 436.80 369.90 L 441.10 372.70 L 449.20 379.10 L 441.50 401.00 L 431.30 401.80 L 428.90 402.30 L 425.40 404.10 L 423.30 407.00 L 423.60 410.50 L 425.60 413.90 L 427.40 415.70 L 431.60 418.50 L 438.10 416.00 L 444.40 413.20 L 447.90 426.60 L 443.10 442.30 L 440.20 450.00 L 437.00 457.50 L 432.50 465.70 L 438.50 465.10 L 431.10 466.40 L 416.40 468.30 L 405.20 469.10 L 394.10 469.40 L 390.40 457.50 L 387.10 445.50 L 385.30 437.40 L 383.90 429.20 L 382.90 421.00 L 382.40 412.80 L 382.60 404.50 L 383.40 396.10 L 388.30 396.70 L 393.00 396.70 L 397.50 396.10 L 402.00 394.90 L 406.20 393.20 L 410.20 390.90 L 414.00 388.20 L 417.60 384.80 L 413.90 365.30 Z M 394.10 404.70 L 393.80 415.70 L 401.40 415.30 L 400.20 406.20 L 394.10 404.70 Z" fill="#000000" fill-rule="nonzero" node-id="122" stroke="none" target-height="104.100006" target-width="66.80002" target-x="382.4" target-y="365.3"></path><path d="M 392.10 373.80 L 395.20 370.80 L 397.10 369.80 L 401.30 368.80 L 403.50 368.80 L 407.60 369.60 L 411.20 371.60 L 413.60 374.70 L 414.30 376.50 L 414.50 378.70 L 414.30 381.30 L 411.50 385.90 L 407.80 389.30 L 404.90 390.90 L 401.70 392.20 L 398.40 392.90 L 394.90 393.20 L 391.40 393.10 L 387.90 392.50 L 387.50 384.90 L 387.90 379.80 L 389.50 376.20 L 392.10 373.80 Z" fill="#fdfcfc" fill-rule="nonzero" node-id="124" stroke="none" target-height="24.400024" target-width="27" target-x="387.5" target-y="368.8"></path><path d="M 381.40 353.30 L 386.20 350.50 L 391.20 348.10 L 396.60 346.20 L 402.00 344.80 L 407.50 344.10 L 413.00 344.10 L 417.20 344.50 L 421.20 345.30 L 425.20 346.60 L 432.50 350.20 L 435.50 352.40 L 440.80 357.50 L 445.20 363.40 L 448.00 368.30 L 454.80 383.70 L 445.20 375.80 L 436.80 369.90 L 427.80 365.80 L 423.40 364.50 L 418.70 363.80 L 414.10 363.70 L 409.50 364.20 L 405.00 365.20 L 400.60 366.80 L 396.50 369.00 L 392.60 371.70 L 388.80 375.00 L 385.40 378.60 L 382.30 382.40 L 379.60 386.50 L 375.20 395.30 L 372.20 404.70 L 371.00 411.30 L 370.30 417.80 L 370.20 424.60 L 370.80 431.20 L 371.80 437.80 L 373.50 444.20 L 375.70 450.50 L 378.40 456.50 L 381.70 462.10 L 355.50 457.80 L 351.70 438.90 L 350.40 429.30 L 349.60 419.70 L 349.40 413.20 L 349.70 406.80 L 350.40 400.40 L 352.00 394.20 L 354.10 388.10 L 356.60 382.10 L 359.50 376.30 L 362.90 370.90 L 366.80 365.80 L 370.10 362.20 L 377.30 356.00 L 381.40 353.30 Z" fill="#f9f9fb" fill-rule="nonzero" node-id="126" stroke="none" target-height="118" target-width="105.399994" target-x="349.4" target-y="344.1"></path><path d="M 686.50 375.80 L 688.60 371.80 L 691.00 368.10 L 693.80 364.80 L 696.80 361.70 L 703.80 356.60 L 707.50 354.50 L 715.70 351.40 L 724.10 349.80 L 728.50 349.50 L 732.80 349.70 L 737.10 350.20 L 741.40 351.20 L 750.40 354.40 L 754.80 356.70 L 758.90 359.40 L 762.80 362.50 L 766.30 366.00 L 769.50 369.70 L 772.50 373.80 L 777.40 382.50 L 779.40 387.10 L 782.60 396.50 L 783.30 411.20 L 783.10 418.70 L 782.50 426.10 L 781.40 433.40 L 779.70 440.50 L 778.10 445.80 L 776.00 450.90 L 773.60 455.90 L 769.60 462.20 L 766.90 464.30 L 764.60 465.20 L 751.30 466.90 L 761.80 447.30 L 764.10 442.20 L 765.90 437.00 L 766.90 431.10 L 767.50 425.20 L 767.70 419.00 L 767.40 412.90 L 766.60 406.90 L 765.30 401.00 L 762.30 392.50 L 758.00 384.70 L 755.30 381.20 L 752.30 378.00 L 748.80 375.00 L 744.90 372.30 L 740.20 369.50 L 735.40 367.30 L 730.50 365.70 L 725.30 364.70 L 720.20 364.30 L 714.90 364.50 L 709.70 365.20 L 704.60 366.40 L 699.50 368.20 L 714.50 374.50 L 705.20 375.20 L 686.50 375.80 Z" fill="#f1f2f2" fill-rule="nonzero" node-id="128" stroke="none" target-height="117.399994" target-width="96.79999" target-x="686.5" target-y="349.5"></path><path d="M 392.60 371.70 L 396.50 369.00 L 400.60 366.80 L 405.00 365.20 L 409.50 364.20 L 414.10 363.70 L 418.70 363.80 L 423.40 364.50 L 427.80 365.80 L 432.20 367.60 L 413.90 365.30 L 417.60 384.80 L 414.00 388.20 L 410.20 390.90 L 406.20 393.20 L 402.00 394.90 L 397.50 396.10 L 393.00 396.70 L 388.30 396.70 L 383.40 396.10 L 382.60 404.50 L 382.40 412.80 L 382.90 421.00 L 383.90 429.20 L 385.30 437.40 L 387.10 445.50 L 390.40 457.50 L 394.10 469.40 L 378.90 468.20 L 333.50 463.10 L 346.70 457.30 L 345.70 440.50 L 347.30 420.40 L 348.70 410.30 L 350.40 400.40 L 349.70 406.80 L 349.40 413.20 L 349.60 419.70 L 350.40 429.30 L 351.70 438.90 L 355.50 457.80 L 381.70 462.10 L 378.40 456.50 L 375.70 450.50 L 373.50 444.20 L 371.80 437.80 L 370.80 431.20 L 370.20 424.60 L 370.30 417.80 L 371.00 411.20 L 372.20 404.70 L 373.60 399.90 L 377.30 390.80 L 379.60 386.50 L 382.30 382.40 L 385.40 378.60 L 388.80 375.00 L 392.60 371.70 Z M 392.10 373.80 L 389.50 376.20 L 387.90 379.80 L 387.50 384.90 L 387.90 392.50 L 391.40 393.10 L 394.90 393.20 L 398.40 392.90 L 401.70 392.20 L 404.90 390.90 L 407.80 389.30 L 411.50 385.90 L 414.30 381.30 L 414.50 378.70 L 414.30 376.50 L 413.60 374.70 L 412.50 373.00 L 409.50 370.50 L 405.60 369.00 L 403.50 368.80 L 399.20 369.20 L 395.20 370.80 L 392.10 373.80 Z" fill="#3e3a3a" fill-rule="nonzero" node-id="130" stroke="none" target-height="105.69998" target-width="98.70001" target-x="333.5" target-y="363.7"></path><path d="M 686.30 408.30 L 683.80 406.90 L 682.00 405.30 L 680.70 403.60 L 679.80 401.60 L 679.30 399.40 L 679.20 397.10 L 679.60 393.50 L 680.50 389.60 L 683.40 382.20 L 686.50 375.80 L 705.20 375.20 L 714.50 374.50 L 719.20 382.10 L 721.20 386.70 L 721.60 390.40 L 721.30 392.10 L 720.50 393.90 L 719.10 395.60 L 716.40 398.50 L 713.30 401.10 L 709.80 403.40 L 706.20 405.40 L 702.40 406.90 L 698.40 408.10 L 694.40 408.70 L 690.40 408.80 L 686.30 408.30 Z" fill="#f8f8f9" fill-rule="nonzero" node-id="132" stroke="none" target-height="34.299988" target-width="42.399963" target-x="679.2" target-y="374.5"></path><path d="M 750.50 389.50 L 753.70 394.20 L 756.40 399.10 L 758.60 404.20 L 760.40 409.50 L 763.20 420.30 L 765.90 437.00 L 764.10 442.20 L 761.80 447.30 L 751.30 466.90 L 764.60 465.20 L 768.30 463.40 L 770.70 460.70 L 773.60 455.90 L 776.00 450.90 L 778.10 445.80 L 779.70 440.50 L 781.40 433.40 L 782.50 426.10 L 783.10 418.70 L 783.30 411.20 L 782.60 396.50 L 785.10 406.00 L 786.80 418.10 L 787.20 425.40 L 787.40 440.10 L 785.20 447.40 L 782.40 454.50 L 776.10 468.50 L 800.30 472.10 L 799.30 476.60 L 788.70 474.80 L 778.10 473.50 L 767.40 472.80 L 751.40 472.30 L 735.30 472.40 L 740.10 454.30 L 745.70 436.40 L 748.20 426.20 L 749.60 413.10 L 750.50 389.50 Z" fill="#353437" fill-rule="nonzero" node-id="134" stroke="none" target-height="87.100006" target-width="65" target-x="735.3" target-y="389.5"></path><path d="M 423.30 407.00 L 425.40 404.10 L 428.90 402.30 L 431.30 401.80 L 441.50 401.00 L 444.40 413.20 L 438.10 416.00 L 431.60 418.50 L 427.40 415.70 L 425.60 413.90 L 423.60 410.50 L 423.30 407.00 Z" fill="#faf8f9" fill-rule="nonzero" node-id="136" stroke="none" target-height="17.5" target-width="21.100006" target-x="423.3" target-y="401"></path><path d="M 718.60 402.10 L 736.20 401.50 L 737.10 403.80 L 737.60 406.00 L 737.60 408.30 L 736.50 412.70 L 735.40 414.70 L 732.40 418.10 L 728.60 420.50 L 726.50 421.10 L 724.30 421.30 L 722.20 421.00 L 720.10 420.20 L 717.80 418.80 L 718.60 402.10 Z" fill="#f2f2f1" fill-rule="nonzero" node-id="138" stroke="none" target-height="19.799988" target-width="19.799988" target-x="717.8" target-y="401.5"></path><path d="M 668.60 445.20 L 667.10 435.80 L 667.00 424.00 L 667.60 416.90 L 670.00 402.90 L 671.50 412.70 L 673.60 422.40 L 676.20 432.00 L 679.30 441.50 L 682.80 450.70 L 687.90 462.10 L 689.30 463.90 L 691.00 465.50 L 693.80 467.30 L 700.50 469.70 L 710.90 472.20 L 704.80 472.00 L 698.80 471.40 L 692.90 470.30 L 687.00 468.80 L 679.40 466.20 L 672.00 463.00 L 664.80 459.30 L 670.80 452.90 L 668.60 445.20 Z" fill="#2f2b2f" fill-rule="nonzero" node-id="140" stroke="none" target-height="69.30002" target-width="46.100037" target-x="664.8" target-y="402.9"></path><path d="M 447.90 426.60 L 455.20 415.10 L 456.30 425.20 L 456.20 430.60 L 455.00 439.50 L 452.80 445.90 L 451.10 448.80 L 449.10 451.40 L 446.80 453.60 L 444.80 454.90 L 439.90 456.90 L 437.00 457.50 L 440.20 450.00 L 443.10 442.30 L 447.90 426.60 Z" fill="#3d3b41" fill-rule="nonzero" node-id="142" stroke="none" target-height="42.399994" target-width="19.299988" target-x="437" target-y="415.1"></path><path d="M 141.90 580.40 L 147.90 574.90 L 154.30 569.60 L 158.80 566.30 L 168.20 560.90 L 173.20 558.80 L 178.40 557.20 L 183.90 556.20 L 181.30 559.90 L 178.40 563.30 L 171.70 569.20 L 153.80 583.00 L 135.30 595.90 L 136.40 590.30 L 138.30 584.90 L 139.80 582.50 L 141.90 580.40 Z" fill="#e0b279" fill-rule="nonzero" node-id="144" stroke="none" target-height="39.700012" target-width="48.59999" target-x="135.3" target-y="556.2"></path><path d="M 603.20 447.00 L 609.70 445.60 L 616.10 444.70 L 622.60 444.30 L 635.70 444.80 L 642.20 445.60 L 651.80 447.40 L 669.80 451.90 L 668.60 445.20 L 670.80 452.90 L 664.80 459.30 L 655.10 454.90 L 650.10 453.30 L 642.50 451.50 L 626.80 449.20 L 603.20 447.00 Z" fill="#362b29" fill-rule="nonzero" node-id="146" stroke="none" target-height="15" target-width="67.599976" target-x="603.2" target-y="444.3"></path><path d="M 234.10 470.90 L 242.00 459.10 L 248.00 451.80 L 251.40 448.50 L 253.00 460.40 L 253.30 466.40 L 252.90 472.40 L 247.80 481.70 L 246.40 467.80 L 237.00 481.80 L 234.10 470.90 Z" fill="#657052" fill-rule="nonzero" node-id="148" stroke="none" target-height="33.299988" target-width="19.199997" target-x="234.1" target-y="448.5"></path><path d="M 517.50 470.20 L 526.20 465.80 L 535.40 462.80 L 548.20 460.40 L 554.80 459.80 L 574.30 459.10 L 590.00 459.60 L 600.50 460.80 L 605.60 461.90 L 610.60 463.40 L 615.40 465.40 L 620.10 467.90 L 622.80 469.80 L 624.90 472.00 L 626.60 474.50 L 627.70 477.30 L 628.40 480.20 L 628.70 483.30 L 628.60 486.40 L 627.10 492.50 L 625.80 495.40 L 624.20 498.00 L 622.20 500.30 L 618.60 503.60 L 614.80 506.60 L 610.80 509.10 L 604.40 512.40 L 584.20 520.60 L 572.50 521.00 L 560.90 520.90 L 545.40 515.60 L 537.70 512.70 L 530.20 509.30 L 525.40 506.80 L 520.90 503.80 L 516.50 500.40 L 514.40 498.40 L 512.70 496.10 L 511.40 493.50 L 510.40 490.80 L 509.90 487.90 L 509.70 485.00 L 510.00 482.00 L 510.60 479.20 L 511.70 476.60 L 513.20 474.10 L 515.10 472.00 L 517.50 470.20 Z M 518.30 479.40 L 527.10 480.20 L 535.90 480.40 L 577.20 479.90 L 602.00 482.30 L 608.20 482.60 L 614.40 482.50 L 620.60 481.70 L 618.70 479.00 L 616.60 476.70 L 614.20 474.90 L 608.80 472.10 L 605.90 471.10 L 601.20 470.00 L 587.30 467.60 L 569.50 466.80 L 560.50 466.90 L 551.60 467.60 L 545.70 468.50 L 539.90 469.80 L 534.20 471.50 L 528.70 473.60 L 523.40 476.20 L 518.30 479.40 Z M 552.50 494.40 L 555.80 496.50 L 559.20 498.10 L 562.70 499.10 L 566.30 499.70 L 570.00 499.90 L 573.70 499.70 L 581.00 498.20 L 584.60 497.00 L 589.80 494.70 L 594.60 491.90 L 587.50 490.80 L 580.40 490.20 L 575.60 490.10 L 566.20 490.70 L 561.60 491.50 L 557.00 492.80 L 552.50 494.40 Z" fill="#1f201d" fill-rule="nonzero" node-id="150" stroke="none" target-height="61.899994" target-width="119" target-x="509.7" target-y="459.1"></path><path d="M 518.30 479.40 L 523.40 476.20 L 528.70 473.60 L 534.20 471.50 L 539.90 469.80 L 545.70 468.50 L 551.60 467.60 L 560.50 466.90 L 569.60 466.80 L 587.30 467.60 L 601.20 470.00 L 608.80 472.10 L 614.20 474.90 L 616.60 476.70 L 618.70 479.00 L 620.60 481.70 L 614.40 482.50 L 608.20 482.60 L 602.00 482.30 L 577.20 479.90 L 535.90 480.40 L 527.10 480.20 L 518.30 479.40 Z" fill="#8da481" fill-rule="nonzero" node-id="152" stroke="none" target-height="15.800018" target-width="102.29999" target-x="518.3" target-y="466.8"></path><path d="M 223.80 519.70 L 226.80 495.90 L 228.00 490.00 L 230.90 480.50 L 234.70 473.30 L 237.00 481.80 L 234.80 489.30 L 233.30 496.80 L 232.40 504.20 L 232.20 511.70 L 232.50 519.20 L 233.40 526.60 L 234.80 534.00 L 236.70 541.30 L 239.10 548.50 L 241.90 555.50 L 245.20 562.30 L 248.90 569.00 L 253.00 575.50 L 257.30 581.60 L 262.00 587.50 L 273.60 600.60 L 280.60 607.60 L 288.10 614.10 L 296.50 620.70 L 305.20 626.80 L 314.20 632.40 L 332.90 642.30 L 342.60 646.80 L 357.30 653.00 L 372.20 658.80 L 402.20 669.70 L 448.50 684.50 L 474.40 691.80 L 484.90 694.30 L 504.40 698.00 L 513.30 699.20 L 522.20 699.90 L 540.20 700.20 L 558.10 699.00 L 574.40 696.60 L 581.70 695.00 L 599.60 689.90 L 620.90 683.00 L 638.80 677.70 L 646.10 675.90 L 672.30 671.00 L 691.20 666.90 L 716.20 660.40 L 728.50 656.60 L 740.70 652.40 L 752.60 647.60 L 764.30 642.30 L 772.90 637.90 L 781.20 633.20 L 789.40 628.10 L 804.80 617.20 L 811.80 611.50 L 818.60 605.30 L 824.90 598.80 L 828.80 594.20 L 835.70 584.20 L 838.30 579.40 L 842.50 569.40 L 844.10 564.20 L 845.70 557.20 L 846.80 550.10 L 847.30 542.90 L 847.40 535.60 L 847.00 528.40 L 846.20 521.20 L 849.20 508.70 L 851.40 515.10 L 853.10 521.50 L 854.30 528.10 L 854.90 534.70 L 855.00 541.30 L 854.70 548.00 L 853.90 554.60 L 852.70 561.20 L 849.20 574.20 L 844.30 586.60 L 852.10 590.50 L 848.20 598.30 L 845.50 611.60 L 843.30 591.30 L 840.30 594.60 L 818.10 615.00 L 810.50 621.50 L 802.70 627.80 L 794.40 633.60 L 784.90 639.50 L 775.10 645.00 L 765.10 650.20 L 754.90 654.90 L 741.00 660.60 L 727.00 665.80 L 712.70 670.40 L 704.40 671.20 L 696.30 672.50 L 680.10 676.30 L 664.10 680.80 L 653.30 682.60 L 620.60 687.10 L 620.50 706.70 L 633.50 709.20 L 646.50 711.20 L 659.60 712.70 L 672.80 713.70 L 677.00 697.90 L 682.20 713.90 L 697.80 714.50 L 713.30 714.50 L 728.90 713.90 L 744.40 712.60 L 746.50 699.50 L 753.30 711.00 L 761.30 710.30 L 769.20 709.20 L 800.50 702.60 L 812.40 704.70 L 800.80 709.60 L 794.90 711.40 L 785.80 713.70 L 767.20 716.90 L 739.30 720.70 L 768.10 746.50 L 778.10 754.50 L 785.00 759.60 L 792.20 764.20 L 799.70 768.40 L 829.40 783.50 L 845.60 792.40 L 857.80 800.80 L 860.10 802.60 L 861.80 804.50 L 863.10 806.70 L 864.10 809.00 L 865.00 814.20 L 865.20 818.20 L 864.40 830.20 L 862.90 835.70 L 860.80 840.80 L 858.20 845.60 L 855.20 850.20 L 851.70 854.40 L 847.90 858.40 L 843.70 862.10 L 834.60 868.60 L 824.90 873.90 L 810.40 880.00 L 800.90 883.30 L 791.20 885.90 L 781.30 888.10 L 771.40 889.70 L 761.30 890.90 L 741.10 892.20 L 731.00 892.30 L 715.80 891.90 L 700.70 891.00 L 682.50 888.20 L 673.40 886.20 L 664.40 883.80 L 655.60 880.90 L 647.00 877.50 L 640.80 874.60 L 634.70 871.30 L 628.90 867.60 L 623.20 863.50 L 619.30 859.90 L 615.80 856.10 L 612.80 852.00 L 610.10 847.60 L 607.90 843.00 L 604.50 833.20 L 602.50 823.00 L 601.70 815.20 L 601.70 807.50 L 590.50 804.20 L 593.30 803.10 L 595.60 801.70 L 597.50 800.10 L 600.50 796.10 L 602.70 790.10 L 603.90 782.10 L 606.30 740.40 L 570.80 746.40 L 558.90 748.00 L 543.00 749.20 L 535.00 749.40 L 583.90 742.70 L 608.10 738.00 L 610.50 718.70 L 612.60 692.70 L 603.90 695.80 L 595.20 698.60 L 586.40 700.90 L 577.50 702.90 L 565.50 705.00 L 553.40 706.50 L 541.20 707.30 L 529.10 707.60 L 516.90 707.40 L 504.70 706.70 L 492.20 725.10 L 490.40 719.60 L 496.80 705.30 L 473.60 699.20 L 437.70 688.90 L 431.20 687.50 L 424.60 686.70 L 420.20 686.60 L 415.80 686.80 L 411.30 687.50 L 382.10 692.60 L 350.10 697.70 L 345.20 699.50 L 341.90 701.60 L 338.80 704.20 L 336.10 707.10 L 317.60 733.00 L 310.40 743.70 L 303.70 754.90 L 294.60 772.20 L 286.90 790.00 L 283.60 799.20 L 280.90 808.50 L 278.60 817.90 L 276.80 827.30 L 275.60 836.90 L 275.00 846.50 L 275.00 856.20 L 275.60 866.00 L 272.10 875.80 L 267.50 861.60 L 253.50 861.60 L 229.90 860.90 L 211.10 859.20 L 201.80 857.80 L 192.60 855.90 L 183.60 853.50 L 176.90 851.40 L 163.90 846.10 L 157.60 842.90 L 154.10 840.80 L 151.20 838.30 L 148.70 835.50 L 146.70 832.30 L 145.10 828.90 L 143.90 825.30 L 142.70 817.80 L 142.70 813.90 L 143.80 806.20 L 148.30 790.70 L 152.30 779.10 L 156.70 767.70 L 161.60 756.40 L 172.20 734.20 L 197.40 684.80 L 205.10 668.10 L 187.80 658.40 L 179.30 653.00 L 171.10 647.20 L 163.30 641.00 L 155.90 634.40 L 150.60 629.10 L 145.60 623.60 L 140.90 617.70 L 136.60 611.60 L 132.70 604.30 L 130.90 600.40 L 129.60 596.40 L 129.00 593.70 L 129.00 588.40 L 129.60 585.90 L 130.80 583.40 L 132.60 581.00 L 137.90 575.10 L 143.70 569.70 L 149.90 564.60 L 159.80 558.00 L 170.50 552.80 L 176.00 550.70 L 181.70 549.10 L 187.60 548.00 L 193.60 547.30 L 199.30 543.70 L 204.80 539.60 L 210.20 535.10 L 215.10 530.20 L 219.70 525.10 L 223.80 519.70 Z M 197.90 555.60 L 188.70 564.60 L 183.20 571.10 L 181.00 574.70 L 179.20 580.00 L 178.70 583.00 L 184.90 588.80 L 191.40 594.20 L 198.00 599.20 L 212.20 608.30 L 227.00 616.10 L 234.80 619.50 L 245.20 623.60 L 255.90 627.20 L 266.70 630.30 L 277.70 633.00 L 288.70 635.20 L 299.70 637.00 L 294.10 631.60 L 270.30 611.80 L 264.70 606.40 L 258.60 599.40 L 252.90 592.10 L 247.70 584.40 L 242.90 576.50 L 238.50 568.20 L 234.60 559.80 L 231.20 551.20 L 224.80 530.80 L 211.10 542.90 L 197.90 555.60 Z M 141.90 580.40 L 139.80 582.50 L 138.30 584.90 L 136.40 590.30 L 135.30 595.90 L 139.20 602.70 L 143.40 609.10 L 148.00 615.40 L 152.90 621.40 L 158.10 627.00 L 163.70 632.40 L 169.60 637.30 L 175.80 641.90 L 182.30 646.10 L 194.10 629.80 L 206.30 613.80 L 189.20 601.40 L 183.70 597.00 L 177.00 590.50 L 174.00 586.80 L 172.00 583.30 L 171.20 578.40 L 171.70 569.20 L 178.40 563.30 L 181.30 559.90 L 183.90 556.20 L 178.40 557.20 L 173.20 558.80 L 168.20 560.90 L 163.40 563.40 L 154.30 569.60 L 147.90 574.90 L 141.90 580.40 Z M 189.30 650.60 L 200.00 658.00 L 214.20 665.80 L 223.00 669.90 L 241.00 677.30 L 249.70 658.20 L 252.20 653.60 L 255.10 649.40 L 257.30 646.80 L 262.80 642.30 L 252.10 666.80 L 247.80 679.50 L 257.60 682.30 L 277.40 686.90 L 297.60 689.90 L 307.70 690.80 L 317.80 691.30 L 328.00 691.40 L 343.70 691.00 L 352.30 689.70 L 358.90 687.40 L 359.30 681.40 L 359.20 675.40 L 358.30 663.40 L 354.70 663.20 L 349.80 660.20 L 344.60 657.60 L 339.30 655.50 L 331.10 652.70 L 306.10 645.60 L 298.10 643.50 L 290.00 642.00 L 281.90 640.90 L 273.60 640.40 L 252.60 633.00 L 231.80 625.00 L 211.20 616.50 L 206.20 621.00 L 201.20 627.80 L 198.60 632.20 L 189.30 650.60 Z M 364.00 665.80 L 365.00 687.80 L 385.90 685.00 L 396.30 683.20 L 406.70 680.90 L 399.90 677.40 L 393.00 674.50 L 385.90 671.90 L 364.00 665.80 Z M 205.20 687.10 L 197.50 698.40 L 193.80 704.30 L 190.70 710.30 L 188.90 714.50 L 187.50 718.80 L 186.50 723.30 L 182.40 730.20 L 175.10 744.30 L 165.40 766.20 L 159.10 781.40 L 156.30 789.30 L 153.90 797.20 L 151.70 807.90 L 150.80 818.80 L 150.90 824.30 L 151.50 829.90 L 160.50 836.30 L 170.50 841.10 L 180.70 845.50 L 191.10 849.30 L 203.70 850.60 L 209.60 851.90 L 221.50 853.30 L 233.50 853.30 L 239.50 852.70 L 242.70 856.50 L 263.60 854.10 L 264.10 843.60 L 265.30 833.20 L 267.10 822.90 L 269.40 812.70 L 272.20 802.60 L 275.40 792.60 L 279.00 782.70 L 287.00 763.30 L 276.80 759.20 L 266.70 754.60 L 256.90 749.60 L 247.30 744.10 L 243.60 740.40 L 236.90 732.40 L 232.50 726.00 L 228.40 719.30 L 221.10 705.40 L 221.00 699.60 L 219.60 688.00 L 218.30 682.30 L 216.50 676.80 L 214.30 671.30 L 206.80 680.70 L 205.70 682.70 L 205.10 684.80 L 205.20 687.10 Z M 224.80 679.50 L 226.90 692.50 L 229.90 705.40 L 231.70 710.30 L 233.90 715.00 L 236.40 719.40 L 239.40 723.50 L 242.60 727.40 L 249.90 734.50 L 254.00 737.60 L 259.70 741.40 L 265.70 744.70 L 272.00 747.50 L 278.50 749.80 L 285.10 751.60 L 291.70 752.90 L 298.20 745.80 L 305.00 736.00 L 312.60 723.70 L 316.70 717.80 L 331.50 699.50 L 320.50 699.40 L 309.60 698.90 L 298.70 698.00 L 287.90 696.70 L 277.10 695.00 L 266.40 692.80 L 255.80 690.10 L 245.40 687.00 L 235.00 683.50 L 224.80 679.50 Z M 619.00 712.30 L 614.80 741.10 L 613.20 755.60 L 611.10 777.30 L 609.50 799.10 L 609.40 807.20 L 610.40 821.30 L 612.60 832.30 L 614.30 837.60 L 616.50 842.60 L 619.10 847.40 L 621.50 850.80 L 624.10 853.90 L 627.10 856.80 L 630.50 859.60 L 636.50 863.30 L 648.90 869.80 L 655.40 872.50 L 664.20 875.60 L 673.20 878.20 L 682.40 880.30 L 691.70 882.00 L 710.30 884.30 L 725.60 884.90 L 741.10 885.00 L 751.40 884.70 L 761.70 883.90 L 771.90 882.70 L 787.00 879.80 L 801.80 875.40 L 828.60 864.10 L 834.80 856.50 L 837.40 858.10 L 845.60 850.10 L 850.40 844.20 L 852.40 840.90 L 848.60 838.30 L 836.40 831.60 L 832.70 829.00 L 829.30 825.80 L 828.80 822.70 L 828.80 819.60 L 830.50 807.20 L 851.30 806.50 L 846.90 800.70 L 844.40 800.80 L 835.20 794.90 L 825.70 789.50 L 796.60 774.20 L 787.20 768.80 L 775.00 760.70 L 764.70 752.70 L 751.70 741.20 L 748.70 738.90 L 742.00 735.10 L 737.90 727.40 L 732.20 721.90 L 713.20 722.30 L 694.20 722.10 L 681.50 721.60 L 668.90 720.70 L 656.30 719.40 L 643.80 717.60 L 631.40 715.30 L 619.00 712.30 Z M 832.00 811.80 L 831.40 814.60 L 831.40 817.10 L 831.80 819.30 L 833.80 823.30 L 838.10 827.40 L 854.20 837.20 L 856.80 830.10 L 857.70 826.40 L 858.20 822.70 L 858.10 818.90 L 857.50 815.10 L 852.40 812.00 L 849.60 810.90 L 843.70 809.70 L 837.70 809.90 L 834.80 810.60 L 832.00 811.80 Z" fill="#242317" fill-rule="nonzero" node-id="154" stroke="none" target-height="419" target-width="736.2" target-x="129" target-y="473.3"></path><path d="M 241.90 474.40 L 243.20 480.10 L 244.70 491.70 L 246.30 526.70 L 247.70 538.20 L 248.90 544.00 L 250.50 550.30 L 252.70 556.50 L 263.00 580.70 L 265.20 586.80 L 267.00 593.20 L 262.00 587.50 L 257.30 581.60 L 253.00 575.50 L 248.90 569.00 L 245.20 562.30 L 241.90 555.50 L 239.10 548.50 L 236.70 541.30 L 234.80 534.00 L 233.40 526.60 L 232.50 519.20 L 232.20 511.70 L 232.40 504.20 L 233.30 496.80 L 234.80 489.30 L 237.00 481.80 L 241.90 474.40 Z" fill="#bad99c" fill-rule="nonzero" node-id="156" stroke="none" target-height="118.80002" target-width="34.800003" target-x="232.2" target-y="474.4"></path><path d="M 300.00 492.70 L 307.50 491.30 L 315.10 490.30 L 322.80 489.90 L 330.50 490.10 L 338.10 491.00 L 345.60 492.40 L 351.20 493.90 L 356.60 495.80 L 361.80 498.10 L 367.00 500.80 L 372.90 504.90 L 375.50 507.50 L 377.70 510.30 L 378.70 512.40 L 379.30 514.70 L 379.50 517.20 L 379.00 520.90 L 377.80 524.40 L 376.20 527.60 L 371.60 533.40 L 364.40 539.50 L 359.90 542.60 L 353.90 545.90 L 347.80 548.70 L 341.40 551.10 L 334.90 553.00 L 328.20 554.50 L 321.50 555.40 L 314.70 555.90 L 307.80 556.00 L 301.00 555.50 L 294.30 554.60 L 287.70 553.10 L 277.80 549.90 L 274.60 548.20 L 271.60 546.10 L 268.90 543.60 L 266.70 540.90 L 265.00 537.80 L 264.00 535.30 L 263.20 530.00 L 263.40 527.10 L 263.90 523.60 L 265.80 517.20 L 267.30 514.30 L 269.80 510.70 L 272.60 507.30 L 275.90 504.30 L 283.30 499.20 L 291.60 495.30 L 300.00 492.70 Z" fill="#ba827c" fill-rule="nonzero" node-id="158" stroke="none" target-height="66.100006" target-width="116.29999" target-x="263.2" target-y="489.9"></path><path d="M 552.50 494.40 L 557.00 492.80 L 561.60 491.50 L 570.90 490.20 L 580.40 490.20 L 587.50 490.80 L 594.60 491.90 L 589.80 494.70 L 584.60 497.00 L 581.00 498.20 L 573.70 499.70 L 570.00 499.90 L 566.30 499.70 L 562.70 499.10 L 559.20 498.10 L 555.80 496.50 L 552.50 494.40 Z" fill="#42463f" fill-rule="nonzero" node-id="160" stroke="none" target-height="9.699982" target-width="42.099976" target-x="552.5" target-y="490.2"></path><path d="M 682.20 493.50 L 688.80 498.60 L 695.00 504.00 L 700.80 509.90 L 706.40 516.00 L 716.80 528.90 L 711.70 529.30 L 702.60 522.90 L 692.10 537.20 L 688.30 541.70 L 680.10 550.10 L 669.40 556.30 L 661.80 553.00 L 672.80 545.60 L 678.00 541.50 L 682.90 537.00 L 687.30 532.10 L 691.40 526.90 L 693.10 524.50 L 694.20 522.20 L 694.70 520.00 L 694.80 517.80 L 693.80 513.20 L 690.30 506.50 L 683.80 496.60 L 682.20 493.50 Z" fill="#393f2a" fill-rule="nonzero" node-id="162" stroke="none" target-height="62.799988" target-width="55" target-x="661.8" target-y="493.5"></path><path d="M 743.90 499.00 L 749.50 497.80 L 755.20 497.00 L 760.90 496.70 L 766.60 496.80 L 772.40 497.30 L 778.00 498.20 L 783.50 499.60 L 789.00 501.40 L 794.30 503.60 L 799.30 506.20 L 804.10 509.30 L 808.70 512.80 L 812.30 516.60 L 815.00 521.30 L 816.70 526.40 L 817.10 529.10 L 816.90 534.30 L 816.40 536.90 L 815.40 539.20 L 814.10 541.40 L 812.40 543.30 L 810.30 544.90 L 807.70 546.30 L 801.80 548.10 L 795.80 549.50 L 789.70 550.40 L 783.60 550.90 L 777.40 550.90 L 765.00 549.70 L 758.90 548.50 L 750.90 546.40 L 743.10 543.70 L 735.60 540.40 L 732.40 538.70 L 725.90 534.30 L 723.20 531.60 L 721.60 529.60 L 719.60 525.40 L 719.30 523.10 L 719.40 520.60 L 720.90 515.00 L 722.00 512.50 L 725.00 508.30 L 729.00 504.90 L 732.50 502.90 L 736.20 501.30 L 743.90 499.00 Z" fill="#ba7d77" fill-rule="nonzero" node-id="164" stroke="none" target-height="54.200012" target-width="97.79999" target-x="719.3" target-y="496.7"></path><path d="M 386.30 536.60 L 397.90 530.50 L 409.80 524.80 L 421.80 519.40 L 434.00 514.40 L 446.30 509.90 L 458.80 505.80 L 449.00 511.40 L 429.60 521.40 L 432.30 526.40 L 435.30 531.20 L 438.60 535.80 L 442.30 540.10 L 446.30 544.20 L 450.50 547.80 L 455.00 551.20 L 459.80 554.20 L 464.80 556.80 L 469.90 559.00 L 475.30 560.70 L 481.00 562.00 L 488.50 563.20 L 496.10 563.90 L 503.90 564.30 L 511.70 564.10 L 519.40 563.50 L 527.00 562.30 L 534.50 560.60 L 541.80 558.30 L 548.90 555.50 L 554.00 552.90 L 559.00 549.90 L 563.70 546.60 L 568.20 542.80 L 571.90 546.60 L 575.80 550.00 L 580.10 552.80 L 584.70 555.20 L 589.50 557.20 L 594.50 558.80 L 604.70 560.90 L 615.80 561.80 L 621.70 562.00 L 633.60 561.30 L 645.20 559.30 L 650.90 557.70 L 656.40 555.60 L 661.80 553.00 L 669.40 556.30 L 665.80 559.70 L 659.20 567.10 L 641.90 591.30 L 634.40 600.80 L 626.40 610.00 L 618.00 618.80 L 611.40 625.10 L 604.50 631.00 L 597.40 636.70 L 589.90 642.00 L 578.30 647.90 L 572.20 650.30 L 566.00 652.40 L 559.70 653.90 L 553.30 654.90 L 543.60 655.20 L 538.70 654.70 L 533.80 653.80 L 526.90 651.80 L 520.20 649.30 L 513.70 646.40 L 507.40 643.00 L 501.30 639.30 L 489.70 630.70 L 479.20 621.10 L 481.90 619.90 L 509.60 637.30 L 516.70 641.20 L 524.20 644.50 L 529.20 646.30 L 534.50 647.70 L 539.90 648.80 L 544.60 649.20 L 549.20 649.30 L 553.70 648.90 L 558.20 648.10 L 564.10 646.60 L 569.90 644.60 L 575.60 642.10 L 583.80 637.80 L 591.70 633.10 L 596.20 629.70 L 600.50 625.90 L 604.50 621.80 L 610.00 615.30 L 615.20 608.40 L 609.10 602.90 L 602.60 597.70 L 595.90 592.80 L 588.90 588.30 L 581.60 584.20 L 574.10 580.70 L 566.40 577.60 L 558.60 575.20 L 550.50 573.40 L 544.40 572.50 L 538.30 572.00 L 532.00 571.90 L 525.60 572.30 L 498.40 575.10 L 489.30 576.60 L 483.40 577.90 L 477.60 579.60 L 468.00 583.60 L 460.30 588.40 L 456.70 591.40 L 451.00 580.50 L 445.60 569.50 L 425.40 524.80 L 406.00 531.10 L 386.30 536.60 Z" fill="#170a06" fill-rule="nonzero" node-id="166" stroke="none" target-height="149.40002" target-width="283.10004" target-x="386.3" target-y="505.8"></path><path d="M 429.60 521.40 L 439.00 516.70 L 441.50 520.90 L 444.20 524.80 L 447.30 528.30 L 450.80 531.60 L 455.70 535.50 L 461.10 538.90 L 466.70 541.90 L 472.60 544.40 L 478.70 546.50 L 484.80 548.10 L 490.30 549.10 L 501.50 550.00 L 507.00 549.90 L 514.40 549.10 L 521.70 547.90 L 528.90 546.00 L 536.00 543.60 L 542.90 540.80 L 549.70 537.50 L 556.20 533.80 L 562.40 529.80 L 568.40 525.40 L 560.90 520.90 L 572.50 521.00 L 584.20 520.60 L 575.30 524.30 L 575.30 538.90 L 587.10 542.10 L 607.30 546.60 L 623.50 548.90 L 631.70 549.30 L 639.90 549.20 L 648.20 548.40 L 653.40 547.10 L 658.50 545.40 L 663.40 543.30 L 670.60 539.50 L 691.40 526.90 L 687.30 532.10 L 682.90 537.00 L 678.00 541.50 L 667.40 549.50 L 661.80 553.00 L 656.40 555.60 L 650.90 557.70 L 645.20 559.30 L 639.40 560.50 L 627.70 561.80 L 615.80 561.80 L 604.70 560.90 L 594.50 558.80 L 589.50 557.20 L 584.70 555.20 L 580.10 552.80 L 575.80 550.00 L 571.90 546.60 L 568.20 542.80 L 563.70 546.60 L 559.00 549.90 L 554.00 552.90 L 548.90 555.50 L 541.80 558.30 L 534.50 560.60 L 527.00 562.30 L 519.40 563.50 L 511.70 564.10 L 503.90 564.30 L 496.10 563.90 L 488.50 563.20 L 481.00 562.00 L 475.30 560.70 L 469.90 559.00 L 464.80 556.80 L 459.80 554.20 L 455.00 551.20 L 450.50 547.80 L 446.30 544.20 L 442.30 540.10 L 438.60 535.80 L 435.30 531.20 L 432.30 526.40 L 429.60 521.40 Z" fill="#78985f" fill-rule="nonzero" node-id="168" stroke="none" target-height="47.599976" target-width="261.80002" target-x="429.6" target-y="516.7"></path><path d="M 680.10 550.10 L 688.30 541.70 L 692.10 537.20 L 702.60 522.90 L 711.70 529.30 L 699.60 546.50 L 696.30 550.50 L 692.70 554.30 L 691.20 554.60 L 688.30 554.10 L 680.10 550.10 Z" fill="#7f9d5f" fill-rule="nonzero" node-id="170" stroke="none" target-height="31.699951" target-width="31.600037" target-x="680.1" target-y="522.9"></path><path d="M 197.90 555.60 L 211.10 542.90 L 224.80 530.80 L 228.30 542.40 L 219.70 548.70 L 211.40 555.40 L 187.00 576.30 L 178.70 583.00 L 179.90 577.20 L 181.00 574.70 L 183.20 571.10 L 188.70 564.60 L 197.90 555.60 Z" fill="#bc9b6b" fill-rule="nonzero" node-id="172" stroke="none" target-height="52.200012" target-width="49.600006" target-x="178.7" target-y="530.8"></path><path d="M 228.30 542.40 L 231.20 551.20 L 234.60 559.80 L 238.50 568.20 L 242.90 576.50 L 247.70 584.40 L 252.90 592.10 L 258.60 599.40 L 264.70 606.40 L 270.30 611.80 L 294.10 631.60 L 299.70 637.00 L 288.70 635.20 L 277.70 633.00 L 266.70 630.30 L 255.90 627.20 L 245.20 623.60 L 234.80 619.50 L 227.00 616.10 L 212.20 608.30 L 198.00 599.20 L 191.40 594.20 L 184.90 588.80 L 178.70 583.00 L 187.00 576.30 L 211.40 555.40 L 219.70 548.70 L 228.30 542.40 Z" fill="#804d2c" fill-rule="nonzero" node-id="174" stroke="none" target-height="94.599976" target-width="121.000015" target-x="178.7" target-y="542.4"></path><path d="M 437.10 573.30 L 434.90 567.70 L 434.30 564.80 L 433.90 560.40 L 434.00 556.00 L 435.40 547.10 L 445.60 569.50 L 451.00 580.50 L 456.70 591.40 L 461.60 599.30 L 466.90 607.00 L 472.80 614.20 L 479.20 621.10 L 489.70 630.70 L 501.30 639.30 L 507.40 643.00 L 513.70 646.40 L 520.20 649.30 L 526.90 651.80 L 533.80 653.80 L 538.70 654.70 L 543.60 655.20 L 548.40 655.20 L 553.30 654.90 L 559.70 653.90 L 566.00 652.40 L 572.20 650.30 L 578.30 647.90 L 589.90 642.00 L 596.10 652.70 L 587.50 660.20 L 579.90 662.30 L 572.20 663.80 L 564.50 664.90 L 556.70 665.50 L 548.90 665.70 L 541.10 665.40 L 533.30 664.70 L 525.50 663.50 L 505.70 654.30 L 499.30 650.90 L 487.00 643.20 L 481.30 638.60 L 476.00 633.80 L 471.00 628.60 L 466.30 623.10 L 460.50 615.50 L 455.10 607.50 L 450.10 599.10 L 445.50 590.60 L 437.10 573.30 Z" fill="#9dc07a" fill-rule="nonzero" node-id="176" stroke="none" target-height="118.60004" target-width="162.19998" target-x="433.9" target-y="547.1"></path><path d="M 135.30 595.90 L 153.80 583.00 L 171.70 569.20 L 171.20 578.40 L 171.50 581.40 L 172.80 585.10 L 174.00 586.80 L 177.00 590.50 L 183.70 597.00 L 189.20 601.40 L 206.30 613.80 L 194.10 629.80 L 182.30 646.10 L 175.80 641.90 L 169.60 637.30 L 163.70 632.40 L 158.10 627.00 L 152.90 621.40 L 148.00 615.40 L 143.40 609.10 L 139.20 602.70 L 135.30 595.90 Z" fill="#a57339" fill-rule="nonzero" node-id="178" stroke="none" target-height="76.89996" target-width="71" target-x="135.3" target-y="569.2"></path><path d="M 456.70 591.40 L 464.10 585.80 L 472.00 581.70 L 477.60 579.60 L 483.40 577.90 L 489.30 576.60 L 498.40 575.10 L 525.60 572.30 L 532.00 571.90 L 538.30 572.00 L 544.40 572.50 L 550.50 573.40 L 558.60 575.20 L 566.40 577.60 L 574.10 580.70 L 581.60 584.20 L 588.90 588.30 L 595.90 592.80 L 602.60 597.70 L 609.10 602.90 L 615.20 608.40 L 610.00 615.30 L 604.50 621.80 L 600.50 625.90 L 596.20 629.70 L 591.70 633.10 L 587.70 627.80 L 580.20 619.50 L 573.30 613.90 L 569.60 611.50 L 565.70 609.50 L 556.40 606.10 L 546.30 604.10 L 541.20 603.60 L 534.30 603.60 L 527.50 604.10 L 520.70 605.20 L 513.90 606.70 L 507.20 608.70 L 500.60 611.00 L 494.20 613.70 L 479.20 621.10 L 472.80 614.20 L 466.90 607.00 L 461.60 599.30 L 456.70 591.40 Z" fill="#471613" fill-rule="nonzero" node-id="180" stroke="none" target-height="61.19995" target-width="158.5" target-x="456.7" target-y="571.9"></path><path d="M 793.00 602.70 L 798.30 599.70 L 803.90 597.30 L 809.70 595.30 L 815.50 593.70 L 805.90 607.80 L 801.50 615.10 L 797.50 622.60 L 789.40 628.10 L 781.20 633.20 L 772.90 637.90 L 764.30 642.30 L 752.60 647.60 L 740.70 652.40 L 728.50 656.60 L 703.80 663.90 L 691.20 666.90 L 672.30 671.00 L 646.10 675.90 L 638.80 677.70 L 620.90 683.00 L 588.90 693.10 L 574.40 696.60 L 558.10 699.00 L 549.20 699.80 L 531.20 700.30 L 522.20 699.90 L 513.30 699.20 L 504.40 698.00 L 495.50 696.50 L 533.50 696.10 L 546.10 695.60 L 554.50 695.00 L 562.80 693.90 L 571.10 692.30 L 583.50 689.20 L 595.70 685.70 L 603.80 683.10 L 619.60 677.10 L 634.90 669.90 L 642.40 665.70 L 661.40 658.30 L 719.00 637.20 L 744.30 627.10 L 756.70 621.60 L 769.00 615.80 L 781.10 609.50 L 793.00 602.70 Z" fill="#738e57" fill-rule="nonzero" node-id="182" stroke="none" target-height="106.599976" target-width="320" target-x="495.5" target-y="593.7"></path><path d="M 840.30 594.60 L 843.30 591.30 L 845.50 611.60 L 844.90 615.20 L 843.90 618.60 L 842.60 621.70 L 839.00 627.60 L 833.10 634.10 L 829.10 637.60 L 820.70 643.90 L 815.10 647.70 L 803.40 654.40 L 794.30 658.70 L 775.50 666.20 L 747.00 676.50 L 753.30 711.00 L 746.50 699.50 L 744.40 712.60 L 742.20 678.50 L 725.40 679.40 L 675.00 683.90 L 677.00 697.90 L 675.00 705.80 L 664.10 680.80 L 680.10 676.30 L 696.30 672.50 L 704.40 671.20 L 712.70 670.40 L 719.30 670.70 L 732.20 669.90 L 738.60 669.00 L 747.10 667.30 L 755.40 665.10 L 763.70 662.40 L 775.90 657.80 L 787.80 652.70 L 804.30 644.00 L 812.30 639.10 L 820.00 633.70 L 824.80 629.80 L 833.70 621.10 L 836.40 617.30 L 838.40 612.00 L 839.00 608.60 L 840.30 594.60 Z" fill="#553319" fill-rule="nonzero" node-id="184" stroke="none" target-height="121.29999" target-width="181.40002" target-x="664.1" target-y="591.3"></path><path d="M 852.10 590.50 L 866.80 599.50 L 876.20 606.50 L 880.60 610.30 L 884.70 614.50 L 888.20 618.90 L 891.20 623.60 L 893.10 627.40 L 894.60 631.40 L 895.60 635.60 L 896.30 640.20 L 895.20 644.40 L 892.10 652.20 L 890.10 655.80 L 886.90 660.30 L 883.40 664.60 L 879.50 668.60 L 870.80 675.90 L 866.20 679.20 L 851.90 688.00 L 832.80 698.00 L 821.70 702.50 L 812.40 704.70 L 800.50 702.60 L 815.60 695.70 L 808.40 677.30 L 805.10 668.00 L 802.20 658.50 L 808.20 665.40 L 814.40 674.90 L 817.60 680.90 L 823.30 693.40 L 843.60 683.70 L 850.30 680.10 L 863.00 672.20 L 869.00 667.70 L 874.60 662.80 L 879.90 657.30 L 882.00 654.80 L 883.70 652.10 L 885.10 649.30 L 887.00 643.20 L 887.50 640.00 L 887.70 635.20 L 887.30 630.40 L 882.40 623.60 L 877.00 617.20 L 873.10 613.20 L 868.90 609.60 L 864.50 606.20 L 859.90 603.30 L 854.90 600.90 L 848.20 598.30 L 852.10 590.50 Z" fill="#302010" fill-rule="nonzero" node-id="186" stroke="none" target-height="114.20001" target-width="95.79999" target-x="800.5" target-y="590.5"></path><path d="M 794.40 633.60 L 802.70 627.80 L 810.50 621.50 L 840.30 594.60 L 839.00 608.60 L 838.40 612.00 L 837.40 615.30 L 835.20 619.30 L 829.40 625.60 L 824.80 629.80 L 820.00 633.70 L 812.30 639.10 L 804.30 644.00 L 787.80 652.70 L 775.90 657.80 L 763.70 662.40 L 755.40 665.10 L 747.10 667.30 L 738.60 669.00 L 732.20 669.90 L 719.30 670.70 L 712.70 670.40 L 727.00 665.80 L 741.00 660.60 L 754.90 654.90 L 765.10 650.20 L 775.10 645.00 L 784.90 639.50 L 794.40 633.60 Z" fill="#6d3f20" fill-rule="nonzero" node-id="188" stroke="none" target-height="76.10004" target-width="127.599976" target-x="712.7" target-y="594.6"></path><path d="M 848.20 598.30 L 849.60 599.00 L 853.70 607.10 L 856.20 610.90 L 860.30 616.20 L 869.80 626.00 L 885.00 639.70 L 887.30 630.40 L 887.70 635.20 L 887.00 643.20 L 885.10 649.30 L 883.70 652.10 L 879.90 657.30 L 874.60 662.80 L 869.00 667.70 L 863.00 672.20 L 850.30 680.10 L 843.60 683.70 L 823.30 693.40 L 817.60 680.90 L 814.40 674.90 L 808.20 665.40 L 802.20 658.50 L 805.10 668.00 L 808.40 677.30 L 815.60 695.70 L 800.50 702.60 L 769.20 709.20 L 761.30 710.30 L 753.30 711.00 L 747.00 676.50 L 775.50 666.20 L 794.30 658.70 L 803.40 654.40 L 809.40 651.20 L 815.10 647.70 L 824.90 640.90 L 833.10 634.10 L 836.80 630.30 L 839.00 627.60 L 842.60 621.70 L 843.90 618.60 L 844.90 615.20 L 848.20 598.30 Z" fill="#9d662f" fill-rule="nonzero" node-id="190" stroke="none" target-height="112.70001" target-width="140.70001" target-x="747" target-y="598.3"></path><path d="M 849.60 599.00 L 854.90 600.90 L 859.90 603.30 L 864.50 606.20 L 868.90 609.60 L 873.10 613.20 L 877.00 617.20 L 882.40 623.60 L 887.30 630.40 L 885.00 639.70 L 869.80 626.00 L 860.30 616.20 L 856.20 610.90 L 853.70 607.10 L 849.60 599.00 Z" fill="#d0b770" fill-rule="nonzero" node-id="192" stroke="none" target-height="40.700012" target-width="37.700012" target-x="849.6" target-y="599"></path><path d="M 481.90 619.90 L 494.20 613.70 L 507.20 608.70 L 513.90 606.70 L 520.70 605.20 L 527.50 604.10 L 534.30 603.60 L 541.20 603.60 L 546.30 604.10 L 551.40 604.90 L 561.50 607.80 L 565.70 609.50 L 569.60 611.50 L 573.30 613.90 L 580.20 619.50 L 587.70 627.80 L 591.70 633.10 L 583.80 637.80 L 575.60 642.10 L 569.90 644.60 L 564.10 646.60 L 558.20 648.10 L 553.70 648.90 L 549.20 649.30 L 544.60 649.20 L 539.90 648.80 L 534.50 647.70 L 529.20 646.30 L 524.20 644.50 L 516.70 641.20 L 509.60 637.30 L 481.90 619.90 Z" fill="#aa4e41" fill-rule="nonzero" node-id="194" stroke="none" target-height="45.700012" target-width="109.80002" target-x="481.9" target-y="603.6"></path><path d="M 288.10 614.10 L 296.10 614.30 L 299.90 614.90 L 305.60 616.50 L 316.50 621.00 L 340.90 632.90 L 358.10 639.80 L 371.20 644.20 L 384.50 648.20 L 478.90 674.10 L 492.60 677.20 L 501.80 678.80 L 511.10 679.90 L 520.40 680.50 L 527.30 680.60 L 534.30 680.20 L 541.30 679.40 L 548.40 678.10 L 537.80 674.30 L 549.00 674.30 L 560.20 673.90 L 571.30 673.00 L 551.60 679.00 L 565.20 681.90 L 572.10 682.80 L 579.00 683.20 L 583.50 683.00 L 588.10 682.40 L 592.70 681.30 L 634.00 668.10 L 642.40 665.70 L 627.40 673.70 L 611.80 680.30 L 595.70 685.70 L 583.50 689.20 L 571.10 692.30 L 562.80 693.90 L 554.50 695.00 L 546.10 695.60 L 533.50 696.10 L 495.50 696.50 L 484.90 694.30 L 464.00 689.00 L 433.00 679.60 L 402.20 669.70 L 372.20 658.80 L 357.30 653.00 L 342.60 646.80 L 332.90 642.30 L 314.20 632.40 L 305.20 626.80 L 296.50 620.70 L 288.10 614.10 Z" fill="#82a063" fill-rule="nonzero" node-id="196" stroke="none" target-height="82.400024" target-width="354.30002" target-x="288.1" target-y="614.1"></path><path d="M 189.30 650.60 L 198.60 632.20 L 201.20 627.80 L 206.20 621.00 L 211.20 616.50 L 231.80 625.00 L 252.60 633.00 L 273.60 640.40 L 280.00 648.50 L 282.40 650.90 L 286.20 653.10 L 299.30 656.60 L 310.20 658.90 L 321.30 660.70 L 332.40 662.00 L 343.60 662.80 L 358.30 663.40 L 359.20 675.40 L 359.30 681.40 L 358.90 687.40 L 352.30 689.70 L 343.70 691.00 L 328.00 691.40 L 317.80 691.30 L 307.70 690.80 L 297.60 689.90 L 277.40 686.90 L 257.60 682.30 L 247.80 679.50 L 252.10 666.80 L 262.80 642.30 L 257.30 646.80 L 255.10 649.40 L 252.20 653.60 L 249.70 658.20 L 241.00 677.30 L 223.00 669.90 L 214.20 665.80 L 200.00 658.00 L 189.30 650.60 Z" fill="#a16a2f" fill-rule="nonzero" node-id="198" stroke="none" target-height="74.900024" target-width="169.99998" target-x="189.3" target-y="616.5"></path><path d="M 273.60 640.40 L 281.90 640.90 L 290.00 642.00 L 298.10 643.50 L 322.80 650.30 L 331.10 652.70 L 339.30 655.50 L 344.60 657.60 L 349.80 660.20 L 354.70 663.20 L 343.60 662.80 L 332.40 662.00 L 321.30 660.70 L 310.20 658.90 L 299.30 656.60 L 288.50 653.80 L 286.20 653.10 L 282.40 650.90 L 280.00 648.50 L 273.60 640.40 Z" fill="#7d4e24" fill-rule="nonzero" node-id="200" stroke="none" target-height="22.799988" target-width="81.100006" target-x="273.6" target-y="640.4"></path><path d="M 525.50 663.50 L 533.30 664.70 L 541.10 665.40 L 548.90 665.70 L 556.70 665.50 L 564.50 664.90 L 572.20 663.80 L 579.90 662.30 L 587.50 660.20 L 594.60 660.40 L 583.50 667.70 L 575.50 671.50 L 571.30 673.00 L 560.20 673.90 L 549.00 674.30 L 537.80 674.30 L 531.20 672.00 L 518.30 666.70 L 512.00 663.70 L 525.50 663.50 Z" fill="#647d4b" fill-rule="nonzero" node-id="202" stroke="none" target-height="14.099976" target-width="82.599976" target-x="512" target-y="660.2"></path><path d="M 364.00 665.80 L 385.90 671.90 L 393.00 674.50 L 399.90 677.40 L 406.70 680.90 L 396.30 683.20 L 385.90 685.00 L 365.00 687.80 L 364.00 665.80 Z" fill="#9b672e" fill-rule="nonzero" node-id="204" stroke="none" target-height="22" target-width="42.700012" target-x="364" target-y="665.8"></path><path d="M 205.20 687.10 L 205.10 684.80 L 205.70 682.70 L 206.80 680.70 L 214.30 671.30 L 216.50 676.80 L 218.30 682.30 L 219.60 688.00 L 221.00 699.60 L 221.10 705.40 L 205.20 687.10 Z" fill="#697d48" fill-rule="nonzero" node-id="206" stroke="none" target-height="34.100037" target-width="16" target-x="205.1" target-y="671.3"></path><path d="M 224.80 679.50 L 235.00 683.50 L 245.40 687.00 L 255.80 690.10 L 266.40 692.80 L 277.10 695.00 L 287.90 696.70 L 298.70 698.00 L 309.60 698.90 L 320.50 699.40 L 331.50 699.50 L 316.70 717.80 L 283.20 711.70 L 264.80 707.40 L 250.50 702.80 L 243.50 700.00 L 236.60 696.80 L 229.90 693.20 L 229.90 705.40 L 226.90 692.50 L 224.80 679.50 Z" fill="#688250" fill-rule="nonzero" node-id="208" stroke="none" target-height="38.299988" target-width="106.7" target-x="224.8" target-y="679.5"></path><path d="M 675.00 683.90 L 725.40 679.40 L 742.20 678.50 L 744.40 712.60 L 728.90 713.90 L 713.30 714.50 L 697.80 714.50 L 682.20 713.90 L 677.00 697.90 L 675.00 683.90 Z" fill="#a16e31" fill-rule="nonzero" node-id="210" stroke="none" target-height="36" target-width="69.400024" target-x="675" target-y="678.5"></path><path d="M 620.60 687.10 L 653.30 682.60 L 664.10 680.80 L 675.00 705.80 L 672.80 713.70 L 659.60 712.70 L 646.50 711.20 L 633.50 709.20 L 620.50 706.70 L 620.60 687.10 Z" fill="#9f6e30" fill-rule="nonzero" node-id="212" stroke="none" target-height="32.900024" target-width="54.5" target-x="620.5" target-y="680.8"></path><path d="M 411.30 687.50 L 415.80 686.80 L 420.20 686.60 L 424.60 686.70 L 431.20 687.50 L 437.70 688.90 L 473.60 699.20 L 496.80 705.30 L 490.40 719.60 L 484.60 727.40 L 479.30 735.60 L 474.40 744.00 L 465.50 761.30 L 461.60 770.20 L 454.40 756.10 L 450.20 749.40 L 445.60 742.90 L 447.90 753.90 L 455.50 786.50 L 457.80 801.20 L 458.90 818.10 L 459.10 837.30 L 458.60 846.80 L 457.80 853.10 L 456.70 859.30 L 455.10 865.40 L 453.10 871.40 L 450.60 877.20 L 447.50 882.80 L 444.90 886.60 L 442.00 889.90 L 438.70 892.90 L 435.20 895.50 L 431.30 897.70 L 423.10 901.20 L 414.50 903.50 L 412.20 898.70 L 419.00 892.60 L 425.60 886.10 L 429.80 881.40 L 437.30 871.60 L 440.60 866.40 L 443.40 861.00 L 445.90 855.50 L 448.00 849.70 L 449.50 843.80 L 450.40 837.60 L 451.60 823.10 L 451.50 808.40 L 451.00 801.20 L 448.80 786.70 L 447.20 779.60 L 445.10 772.60 L 442.90 766.90 L 437.50 755.90 L 434.20 750.60 L 430.60 745.60 L 426.70 740.90 L 422.40 736.50 L 417.80 732.50 L 412.80 728.90 L 407.60 725.80 L 402.10 723.20 L 396.20 721.10 L 389.90 720.00 L 383.60 719.30 L 377.30 719.00 L 367.80 719.20 L 339.30 720.70 L 333.70 710.20 L 338.80 704.20 L 341.80 701.60 L 345.20 699.50 L 347.50 698.50 L 350.10 697.70 L 382.10 692.60 L 411.30 687.50 Z" fill="#738b56" fill-rule="nonzero" node-id="214" stroke="none" target-height="216.90002" target-width="163.09998" target-x="333.7" target-y="686.6"></path><path d="M 186.50 723.30 L 187.50 718.80 L 188.90 714.50 L 190.70 710.30 L 193.80 704.30 L 197.50 698.40 L 205.20 687.10 L 221.10 705.40 L 228.40 719.30 L 232.50 726.00 L 240.10 736.50 L 247.30 744.10 L 247.40 757.00 L 246.90 769.90 L 243.00 821.50 L 242.50 834.40 L 242.50 847.30 L 239.40 841.50 L 235.60 835.90 L 233.30 833.60 L 230.70 831.70 L 228.80 830.90 L 226.60 830.40 L 221.70 830.10 L 219.30 830.20 L 217.10 830.70 L 213.80 831.90 L 207.80 835.80 L 199.70 842.70 L 195.10 834.40 L 192.60 830.30 L 189.70 826.70 L 187.40 824.60 L 184.80 822.90 L 181.80 821.50 L 179.20 820.60 L 176.60 820.10 L 173.90 820.00 L 169.90 820.40 L 165.90 821.40 L 158.30 824.30 L 158.80 817.20 L 159.80 810.20 L 161.30 803.40 L 164.10 793.30 L 167.50 783.30 L 178.70 753.80 L 182.00 743.80 L 185.40 730.30 L 186.50 723.30 Z" fill="#8baa67" fill-rule="nonzero" node-id="216" stroke="none" target-height="160.20001" target-width="89.09999" target-x="158.3" target-y="687.1"></path><path d="M 229.90 693.20 L 236.60 696.80 L 243.50 700.00 L 250.50 702.80 L 264.80 707.40 L 283.20 711.80 L 316.70 717.80 L 301.00 742.00 L 295.10 749.50 L 291.70 752.90 L 285.10 751.60 L 278.50 749.80 L 272.00 747.50 L 265.70 744.70 L 259.70 741.40 L 254.00 737.60 L 249.90 734.50 L 242.60 727.40 L 239.40 723.50 L 236.40 719.40 L 233.90 715.00 L 231.70 710.30 L 229.90 705.40 L 229.90 693.20 Z" fill="#7d9861" fill-rule="nonzero" node-id="218" stroke="none" target-height="59.700012" target-width="86.80002" target-x="229.9" target-y="693.2"></path><path d="M 504.70 706.70 L 516.90 707.40 L 529.10 707.60 L 541.20 707.30 L 553.40 706.50 L 565.50 705.00 L 577.50 702.90 L 586.40 700.90 L 603.90 695.80 L 612.60 692.70 L 610.50 718.70 L 608.90 712.60 L 599.80 713.60 L 590.70 715.00 L 563.70 720.20 L 544.20 723.00 L 491.30 727.00 L 492.20 725.10 L 504.70 706.70 Z" fill="#c2913e" fill-rule="nonzero" node-id="220" stroke="none" target-height="34.299988" target-width="121.29999" target-x="491.3" target-y="692.7"></path><path d="M 325.10 722.60 L 333.70 710.20 L 339.30 720.70 L 367.80 719.20 L 377.30 719.00 L 383.60 719.30 L 389.90 720.00 L 396.20 721.10 L 402.10 723.20 L 407.60 725.80 L 412.80 728.90 L 417.80 732.50 L 422.40 736.50 L 426.70 740.90 L 430.60 745.60 L 434.20 750.60 L 437.50 755.90 L 442.90 766.90 L 445.10 772.60 L 447.20 779.60 L 448.80 786.70 L 450.10 793.90 L 451.50 808.40 L 451.60 823.10 L 450.40 837.60 L 449.50 843.80 L 448.00 849.70 L 445.90 855.50 L 443.40 861.00 L 440.60 866.40 L 437.30 871.60 L 429.80 881.40 L 425.60 886.10 L 419.00 892.60 L 412.20 898.70 L 409.60 893.00 L 406.40 887.50 L 404.40 885.20 L 402.10 883.40 L 400.30 882.60 L 398.30 882.10 L 396.00 882.00 L 390.00 883.60 L 383.20 887.10 L 371.70 895.00 L 363.50 885.60 L 361.20 883.60 L 358.60 881.90 L 355.80 881.30 L 350.20 881.40 L 346.00 882.20 L 333.70 886.20 L 323.90 876.50 L 320.40 873.50 L 315.30 870.30 L 312.70 869.20 L 309.90 868.60 L 306.90 868.50 L 303.70 869.00 L 300.50 871.00 L 297.80 873.40 L 295.30 876.20 L 288.20 884.90 L 286.10 881.50 L 285.20 872.50 L 284.70 863.50 L 284.70 854.60 L 285.20 845.60 L 286.00 836.70 L 288.90 819.10 L 291.00 810.40 L 294.20 798.80 L 298.10 787.50 L 302.50 776.30 L 307.40 765.40 L 312.80 754.70 L 320.40 740.90 L 321.80 737.40 L 324.20 728.30 L 325.10 722.60 Z" fill="#92b26c" fill-rule="nonzero" node-id="222" stroke="none" target-height="188.5" target-width="166.9" target-x="284.7" target-y="710.2"></path><path d="M 554.70 721.60 L 563.70 720.20 L 590.70 715.00 L 599.80 713.60 L 608.90 712.60 L 610.50 718.70 L 608.10 738.00 L 583.90 742.70 L 535.00 749.40 L 543.00 749.20 L 558.90 748.00 L 570.80 746.40 L 606.30 740.40 L 604.70 771.50 L 587.30 775.20 L 569.80 778.30 L 552.30 780.90 L 534.60 782.80 L 516.90 784.20 L 499.20 784.90 L 481.40 785.00 L 463.70 784.50 L 466.30 776.10 L 469.40 768.00 L 476.70 752.10 L 506.60 752.20 L 478.80 751.10 L 491.30 727.00 L 501.90 726.00 L 533.60 723.90 L 554.70 721.60 Z" fill="#ead055" fill-rule="nonzero" node-id="224" stroke="none" target-height="72.400024" target-width="146.79999" target-x="463.7" target-y="712.6"></path><path d="M 619.00 712.30 L 631.40 715.30 L 643.80 717.60 L 656.30 719.40 L 668.90 720.70 L 681.50 721.60 L 694.20 722.10 L 713.20 722.30 L 732.20 721.90 L 737.90 727.40 L 732.70 734.20 L 714.90 734.20 L 697.00 733.70 L 643.60 731.40 L 625.70 731.10 L 624.70 745.80 L 624.70 753.30 L 625.20 760.70 L 626.20 768.00 L 627.70 775.20 L 631.10 785.70 L 633.30 790.70 L 640.30 803.10 L 645.00 810.00 L 650.30 816.50 L 656.00 822.70 L 662.10 828.50 L 668.50 833.90 L 675.30 839.00 L 682.30 843.60 L 689.60 847.90 L 697.10 851.80 L 704.80 855.40 L 712.60 858.50 L 725.00 862.90 L 740.80 866.90 L 750.50 868.70 L 789.40 874.80 L 791.70 867.40 L 793.40 863.40 L 797.10 856.90 L 801.00 852.60 L 803.30 851.00 L 805.90 849.70 L 812.10 848.40 L 815.10 848.40 L 818.10 848.80 L 822.40 850.10 L 826.70 852.00 L 834.80 856.50 L 828.60 864.10 L 822.00 854.10 L 810.30 855.90 L 807.40 856.70 L 804.70 858.00 L 803.20 859.80 L 802.20 861.70 L 801.70 863.90 L 801.80 875.40 L 794.50 877.80 L 787.00 879.80 L 771.90 882.70 L 761.70 883.90 L 751.40 884.70 L 741.10 885.00 L 725.60 884.90 L 710.30 884.30 L 691.70 882.00 L 682.40 880.30 L 673.20 878.20 L 664.20 875.60 L 655.40 872.50 L 648.90 869.80 L 642.60 866.70 L 636.50 863.30 L 630.50 859.60 L 627.10 856.80 L 624.10 853.90 L 621.50 850.80 L 619.10 847.40 L 616.50 842.60 L 614.30 837.60 L 612.60 832.30 L 610.40 821.30 L 609.80 815.70 L 609.40 807.20 L 609.50 799.10 L 611.10 777.30 L 614.80 741.10 L 619.00 712.30 Z" fill="#677f4f" fill-rule="nonzero" node-id="226" stroke="none" target-height="172.70001" target-width="225.39996" target-x="609.4" target-y="712.3"></path><path d="M 461.60 770.20 L 465.50 761.30 L 474.40 744.00 L 479.30 735.60 L 484.60 727.40 L 490.40 719.60 L 492.20 725.10 L 478.80 751.10 L 506.60 752.20 L 476.70 752.10 L 469.40 768.00 L 466.30 776.10 L 463.70 784.50 L 481.40 785.00 L 499.20 784.90 L 516.90 784.20 L 534.60 782.80 L 552.30 780.90 L 569.80 778.30 L 587.30 775.20 L 604.70 771.50 L 604.20 778.00 L 597.20 778.20 L 583.30 779.40 L 552.30 784.10 L 529.20 786.80 L 516.50 787.70 L 503.70 788.10 L 465.40 788.30 L 469.50 820.00 L 487.90 819.40 L 506.30 818.20 L 518.60 817.00 L 543.00 813.60 L 574.50 806.90 L 590.50 804.20 L 596.10 805.90 L 585.90 809.60 L 575.60 812.80 L 565.20 815.50 L 544.10 819.80 L 533.40 821.40 L 517.30 823.30 L 501.20 824.60 L 468.90 825.90 L 468.70 835.90 L 468.00 846.30 L 467.10 853.20 L 465.80 859.90 L 464.00 866.60 L 461.80 873.10 L 459.10 879.20 L 455.80 885.00 L 452.90 889.20 L 449.60 893.00 L 445.90 896.60 L 441.80 899.90 L 436.30 903.20 L 430.60 906.00 L 424.90 908.30 L 419.00 910.30 L 411.00 912.20 L 402.80 913.70 L 394.40 914.60 L 377.60 915.10 L 369.10 915.00 L 344.20 913.60 L 327.70 910.50 L 319.40 908.50 L 305.80 903.90 L 295.70 899.10 L 290.90 896.20 L 286.50 892.90 L 282.30 889.30 L 278.50 885.30 L 275.10 880.80 L 272.10 875.80 L 275.60 866.00 L 288.20 884.90 L 295.30 876.20 L 297.80 873.40 L 300.50 871.00 L 303.70 869.00 L 306.90 868.50 L 309.90 868.60 L 312.70 869.20 L 315.30 870.30 L 320.40 873.50 L 323.90 876.50 L 333.70 886.20 L 346.00 882.20 L 350.20 881.40 L 355.80 881.30 L 358.60 881.90 L 361.20 883.60 L 363.50 885.60 L 371.70 895.00 L 383.20 887.10 L 387.20 884.90 L 393.00 882.70 L 396.00 882.00 L 398.30 882.10 L 400.30 882.60 L 402.10 883.40 L 404.40 885.20 L 406.40 887.50 L 409.60 893.00 L 414.50 903.50 L 423.10 901.20 L 431.30 897.70 L 435.20 895.50 L 438.70 892.90 L 442.00 889.90 L 444.90 886.60 L 447.50 882.80 L 450.60 877.20 L 453.10 871.40 L 455.10 865.40 L 456.70 859.30 L 457.80 853.10 L 458.60 846.80 L 459.10 837.30 L 459.20 827.70 L 457.80 801.20 L 455.50 786.50 L 447.90 753.90 L 445.60 742.90 L 450.20 749.40 L 454.40 756.10 L 461.60 770.20 Z M 300.40 875.20 L 299.10 876.40 L 297.40 879.10 L 296.40 884.00 L 296.40 889.00 L 299.60 891.70 L 303.00 894.00 L 306.70 896.00 L 312.50 898.30 L 318.50 900.10 L 330.80 902.60 L 330.40 897.90 L 329.00 890.20 L 326.80 884.40 L 325.30 881.80 L 323.30 879.50 L 320.80 877.40 L 316.10 874.50 L 310.60 872.50 L 307.90 872.10 L 305.20 872.40 L 301.90 873.90 L 300.40 875.20 Z M 334.90 903.70 L 351.50 906.20 L 359.80 906.90 L 368.20 907.20 L 365.00 896.40 L 363.60 892.90 L 360.90 888.80 L 359.30 887.10 L 357.40 885.80 L 355.10 884.90 L 349.50 884.10 L 347.10 884.40 L 345.20 885.20 L 341.90 888.20 L 338.80 893.50 L 334.90 903.70 Z M 373.30 907.30 L 382.30 907.70 L 391.40 907.40 L 397.30 906.80 L 403.20 905.70 L 409.00 904.10 L 405.20 892.40 L 403.20 889.20 L 401.90 888.00 L 400.40 887.30 L 398.50 887.00 L 393.00 887.20 L 390.40 887.70 L 388.00 888.60 L 383.70 891.50 L 379.40 896.70 L 373.30 907.30 Z" fill="#272c1b" fill-rule="nonzero" node-id="228" stroke="none" target-height="195.5" target-width="332.6" target-x="272.1" target-y="719.6"></path><path d="M 186.50 723.30 L 185.40 730.30 L 182.00 743.80 L 178.70 753.80 L 167.50 783.30 L 164.10 793.30 L 161.30 803.40 L 159.80 810.20 L 158.80 817.20 L 158.30 824.30 L 151.50 829.90 L 150.90 824.30 L 150.80 818.80 L 151.00 813.30 L 152.60 802.50 L 153.90 797.20 L 156.30 789.30 L 159.10 781.40 L 170.20 755.20 L 178.60 737.20 L 186.50 723.30 Z" fill="#b9d7a0" fill-rule="nonzero" node-id="230" stroke="none" target-height="106.60004" target-width="35.699997" target-x="150.8" target-y="723.3"></path><path d="M 275.60 866.00 L 275.00 856.20 L 275.00 846.50 L 275.60 836.90 L 276.80 827.30 L 278.60 817.90 L 280.90 808.50 L 283.60 799.20 L 286.90 790.00 L 290.50 781.00 L 298.90 763.50 L 303.70 754.90 L 310.40 743.70 L 317.60 733.00 L 325.10 722.60 L 324.20 728.30 L 321.80 737.40 L 320.40 740.90 L 312.80 754.70 L 307.40 765.40 L 302.50 776.30 L 298.10 787.50 L 294.20 798.80 L 291.00 810.40 L 287.30 827.90 L 285.20 845.60 L 284.70 854.60 L 284.70 863.50 L 285.20 872.50 L 286.10 881.50 L 275.60 866.00 Z" fill="#bcdb9c" fill-rule="nonzero" node-id="232" stroke="none" target-height="158.90002" target-width="50.100006" target-x="275" target-y="722.6"></path><path d="M 732.70 734.20 L 737.90 727.40 L 742.00 735.10 L 736.10 734.10 L 739.70 739.50 L 747.60 749.30 L 752.00 753.70 L 758.20 759.30 L 764.80 764.60 L 771.60 769.50 L 782.40 776.30 L 804.60 788.60 L 820.20 796.60 L 824.80 798.50 L 829.60 800.00 L 836.80 801.20 L 846.90 800.70 L 851.30 806.50 L 830.50 807.20 L 829.10 816.50 L 828.80 822.70 L 829.30 825.80 L 832.70 829.00 L 836.40 831.60 L 848.60 838.30 L 852.40 840.90 L 850.40 844.20 L 845.60 850.10 L 837.40 858.10 L 826.70 852.00 L 822.40 850.10 L 818.10 848.80 L 815.10 848.40 L 812.10 848.40 L 805.90 849.70 L 803.30 851.00 L 801.00 852.60 L 797.10 856.90 L 793.40 863.40 L 791.70 867.40 L 774.50 863.90 L 757.30 859.80 L 745.90 856.70 L 734.70 853.20 L 723.50 849.30 L 712.60 844.90 L 702.00 839.90 L 691.70 834.40 L 684.30 829.90 L 677.00 824.90 L 670.00 819.60 L 663.20 813.80 L 659.20 809.90 L 655.60 805.90 L 649.20 797.10 L 645.60 790.90 L 642.50 784.40 L 639.80 777.70 L 637.60 770.80 L 635.80 763.80 L 633.30 749.40 L 632.30 735.00 L 644.80 735.00 L 695.20 737.10 L 707.80 736.90 L 716.10 736.40 L 724.40 735.50 L 732.70 734.20 Z" fill="#90b06b" fill-rule="nonzero" node-id="234" stroke="none" target-height="140" target-width="220.10004" target-x="632.3" target-y="727.4"></path><path d="M 625.70 731.10 L 643.60 731.40 L 697.00 733.70 L 714.90 734.20 L 732.70 734.20 L 724.40 735.50 L 716.10 736.40 L 707.80 736.90 L 695.20 737.10 L 644.80 735.00 L 632.30 735.00 L 633.30 749.40 L 635.80 763.80 L 637.60 770.80 L 639.80 777.70 L 642.50 784.40 L 645.60 790.90 L 649.20 797.10 L 655.60 805.90 L 659.20 809.90 L 663.20 813.80 L 670.00 819.60 L 677.00 824.90 L 684.30 829.90 L 691.70 834.40 L 702.00 839.90 L 712.60 844.90 L 723.50 849.30 L 734.60 853.20 L 745.90 856.70 L 757.30 859.80 L 774.50 863.90 L 791.70 867.40 L 789.40 874.80 L 750.50 868.70 L 731.20 864.60 L 718.70 860.90 L 704.80 855.40 L 697.10 851.80 L 689.60 847.90 L 682.30 843.60 L 675.30 839.00 L 668.50 833.90 L 662.10 828.50 L 656.00 822.70 L 650.30 816.50 L 645.00 810.00 L 640.30 803.10 L 635.90 795.70 L 631.10 785.70 L 627.70 775.20 L 626.20 768.00 L 625.20 760.70 L 624.70 753.30 L 624.70 745.80 L 625.70 731.10 Z" fill="#759157" fill-rule="nonzero" node-id="236" stroke="none" target-height="143.70001" target-width="167" target-x="624.7" target-y="731.1"></path><path d="M 736.10 734.10 L 742.00 735.10 L 748.70 738.90 L 751.70 741.20 L 764.70 752.70 L 769.20 756.20 L 775.00 760.70 L 787.20 768.80 L 796.60 774.20 L 825.70 789.50 L 835.20 794.90 L 844.40 800.80 L 840.60 801.20 L 833.20 800.80 L 824.80 798.50 L 820.20 796.60 L 804.60 788.60 L 782.40 776.30 L 771.60 769.50 L 764.80 764.60 L 758.20 759.30 L 752.00 753.70 L 743.50 744.50 L 736.10 734.10 Z" fill="#aec88b" fill-rule="nonzero" node-id="238" stroke="none" target-height="67.10004" target-width="108.30005" target-x="736.1" target-y="734.1"></path><path d="M 247.30 744.10 L 256.90 749.60 L 266.70 754.60 L 276.80 759.20 L 287.00 763.30 L 279.00 782.70 L 275.40 792.60 L 272.20 802.60 L 269.40 812.70 L 267.10 822.90 L 265.30 833.20 L 264.10 843.60 L 263.60 854.10 L 242.70 856.50 L 242.50 834.40 L 243.00 821.50 L 246.90 769.90 L 247.40 757.00 L 247.30 744.10 Z" fill="#79955a" fill-rule="nonzero" node-id="240" stroke="none" target-height="112.400024" target-width="44.5" target-x="242.5" target-y="744.1"></path><path d="M 541.90 785.40 L 552.30 784.10 L 583.30 779.40 L 597.20 778.20 L 604.20 778.00 L 603.50 786.10 L 602.70 790.10 L 601.60 793.80 L 599.20 798.20 L 595.60 801.70 L 593.30 803.10 L 590.50 804.20 L 574.50 806.90 L 543.00 813.60 L 518.60 817.00 L 506.30 818.20 L 487.90 819.40 L 469.50 820.00 L 465.40 788.30 L 503.70 788.10 L 516.50 787.70 L 529.20 786.80 L 541.90 785.40 Z" fill="#cc9d3b" fill-rule="nonzero" node-id="242" stroke="none" target-height="42" target-width="138.80002" target-x="465.4" target-y="778"></path><path d="M 832.00 811.80 L 834.80 810.60 L 837.70 809.90 L 843.70 809.70 L 849.60 810.90 L 855.00 813.40 L 857.50 815.10 L 858.10 818.90 L 858.20 822.70 L 857.70 826.40 L 856.80 830.10 L 854.20 837.20 L 838.10 827.40 L 833.80 823.30 L 831.80 819.30 L 831.40 817.10 L 831.40 814.60 L 832.00 811.80 Z" fill="#d5e3cc" fill-rule="nonzero" node-id="244" stroke="none" target-height="27.5" target-width="26.799988" target-x="831.4" target-y="809.7"></path><path d="M 158.30 824.30 L 165.90 821.40 L 169.90 820.40 L 173.90 820.00 L 176.60 820.10 L 179.20 820.60 L 181.80 821.50 L 184.80 822.90 L 187.40 824.60 L 189.70 826.70 L 192.60 830.30 L 195.10 834.40 L 199.70 842.70 L 207.80 835.80 L 213.80 831.90 L 217.10 830.70 L 219.30 830.20 L 221.70 830.10 L 226.60 830.40 L 228.80 830.90 L 230.70 831.70 L 233.30 833.60 L 235.60 835.90 L 239.40 841.50 L 242.50 847.30 L 242.70 856.50 L 237.30 850.20 L 233.00 844.10 L 229.20 839.40 L 225.60 836.70 L 223.70 835.90 L 221.40 835.70 L 218.70 835.90 L 214.60 838.00 L 210.40 842.10 L 203.70 850.60 L 191.10 849.30 L 190.40 842.00 L 189.70 838.30 L 188.60 834.90 L 186.20 830.80 L 184.70 829.10 L 182.90 827.70 L 180.70 826.60 L 176.00 825.40 L 172.40 825.60 L 170.00 826.50 L 167.80 828.00 L 165.70 829.80 L 160.50 836.30 L 151.50 829.90 L 158.30 824.30 Z" fill="#63754d" fill-rule="nonzero" node-id="246" stroke="none" target-height="36.5" target-width="91.2" target-x="151.5" target-y="820"></path><path d="M 160.50 836.30 L 165.70 829.80 L 167.80 828.00 L 170.00 826.50 L 172.40 825.60 L 174.10 825.30 L 176.00 825.40 L 180.70 826.60 L 182.90 827.70 L 184.70 829.10 L 187.50 832.70 L 188.60 834.90 L 189.70 838.30 L 190.40 842.00 L 191.10 849.30 L 180.70 845.50 L 170.50 841.10 L 160.50 836.30 Z" fill="#d1dbc6" fill-rule="nonzero" node-id="248" stroke="none" target-height="24" target-width="30.600006" target-x="160.5" target-y="825.3"></path><path d="M 203.70 850.60 L 210.40 842.10 L 214.60 838.00 L 218.70 835.90 L 221.40 835.70 L 223.70 835.90 L 225.60 836.70 L 229.20 839.40 L 233.00 844.10 L 237.30 850.20 L 239.50 852.70 L 233.50 853.30 L 221.50 853.30 L 215.50 852.80 L 203.70 850.60 Z" fill="#dae2d2" fill-rule="nonzero" node-id="250" stroke="none" target-height="17.599976" target-width="35.800003" target-x="203.7" target-y="835.7"></path><path d="M 804.70 858.00 L 807.40 856.70 L 810.30 855.90 L 822.00 854.10 L 828.60 864.10 L 801.80 875.40 L 801.70 863.90 L 802.20 861.70 L 803.20 859.80 L 804.70 858.00 Z" fill="#dae0cd" fill-rule="nonzero" node-id="252" stroke="none" target-height="21.300049" target-width="26.899963" target-x="801.7" target-y="854.1"></path><path d="M 300.40 875.20 L 301.90 873.90 L 305.20 872.40 L 307.90 872.10 L 310.60 872.50 L 316.10 874.50 L 320.80 877.40 L 323.30 879.50 L 325.30 881.80 L 326.80 884.40 L 329.00 890.20 L 330.40 897.90 L 330.80 902.60 L 318.50 900.10 L 312.50 898.30 L 306.70 896.00 L 303.00 894.00 L 299.60 891.70 L 296.40 889.00 L 296.40 884.00 L 297.40 879.10 L 299.10 876.40 L 300.40 875.20 Z" fill="#e8eee2" fill-rule="nonzero" node-id="254" stroke="none" target-height="30.5" target-width="34.399994" target-x="296.4" target-y="872.1"></path><path d="M 334.90 903.70 L 338.80 893.50 L 341.90 888.20 L 345.20 885.20 L 347.10 884.40 L 349.50 884.10 L 352.30 884.40 L 355.10 884.90 L 357.40 885.80 L 359.30 887.10 L 362.40 890.70 L 365.00 896.40 L 368.20 907.20 L 359.80 906.90 L 351.50 906.20 L 334.90 903.70 Z" fill="#d2ddc5" fill-rule="nonzero" node-id="256" stroke="none" target-height="23.100037" target-width="33.30002" target-x="334.9" target-y="884.1"></path><path d="M 373.30 907.30 L 379.40 896.70 L 383.70 891.50 L 388.00 888.60 L 390.40 887.70 L 393.00 887.20 L 398.50 887.00 L 400.40 887.30 L 401.90 888.00 L 404.30 890.60 L 406.30 895.30 L 409.00 904.10 L 403.20 905.70 L 397.30 906.80 L 391.40 907.40 L 382.30 907.70 L 373.30 907.30 Z" fill="#e4e9dd" fill-rule="nonzero" node-id="258" stroke="none" target-height="20.700012" target-width="35.700012" target-x="373.3" target-y="887"></path></svg>