<?xml version="1.0" standalone="no"?><!DOCTYPE svg PUBLIC "-//W3C//DTD SVG 1.1//EN" "http://www.w3.org/Graphics/SVG/1.1/DTD/svg11.dtd"><svg t="1740250796284" class="icon" viewBox="0 0 1024 1024" version="1.1" xmlns="http://www.w3.org/2000/svg" p-id="20801" width="256" height="256" xmlns:xlink="http://www.w3.org/1999/xlink"><path d="M298.2 290.8c15.7-1.4 37-7.8 64-19.5 27-11.6 46.6-17.4 58.9-17.4s23.7 2.7 34.3 8.2c10.6 5.5 15.9 11.6 15.9 18.4s-3.2 12.5-9.7 16.9c-6.5 4.4-26.3 10.6-59.4 18.4s-59.4 11.8-78.8 11.8-34.3-0.7-44.5-2c-30 47.1-58 84.7-84 112.6 26.6-3.4 60.8-12.1 102.4-26.1s68.8-21 81.4-21 23.5 2.6 32.8 7.7 13.8 11.4 13.8 18.9c0 7.5-8 14.5-24.1 21-16 6.5-41.8 13.8-77.3 22 6.8 8.2 9.6 16 8.2 23.5-1.4 7.5-3.4 29.7-6.2 66.6 23.9-10.9 42.5-16.4 55.8-16.4s24.9 1.7 34.8 5.1c9.9 3.4 14.9 8.5 14.9 15.4 0 17.8-35.8 35.2-107.5 52.2-2 52.6-3.4 94.2-4.1 124.9 65.5-41 105.8-61.4 120.8-61.4 4.8 0 7.2 1.7 7.2 5.1 0 6.8-9.2 18.1-27.6 33.8-61.4 51.9-104.5 98.7-129 140.3-13 21.2-23.6 31.8-31.8 31.8S240 870.2 226 847.4c-14-22.9-21-38.8-21-47.6s6.8-16.4 20.5-22.5 22.7-17.6 27.1-34.3c4.4-16.7 9-57.9 13.8-123.4-36.2 8.2-62.6 12.3-79.4 12.3s-32.9-2.4-48.6-7.2-23.5-9.4-23.5-13.8 16.7-9.7 50.2-15.9c33.5-6.1 68.3-14.7 104.5-25.6 2-38.2-2-70.3-12.3-96.3-9.6 1.4-21.3 2-35.3 2s-31.2-3.8-51.7-11.3c-22.5 23.2-46.4 43.4-71.7 60.4s-40.3 25.6-45 25.6-7.2-1-7.2-3.1c0-6.1 8.5-19.1 25.6-38.9 49.1-55.3 94-118.6 134.6-189.9s60.9-128.5 60.9-171.5c0-8.9-1.2-17.1-3.6-24.6s-3.6-14-3.6-19.5c0-11.6 6.1-17.4 18.4-17.4s33.5 8.5 63.5 25.6 45.1 31.4 45.1 43c0 6.8-4.6 14.5-13.8 23s-17.9 19.1-26.1 31.8-24.6 40.2-49.2 82.5z m236.6 13.3c-34.8 31.4-58.4 47.1-70.7 47.1-4.1 0-6.1-2.4-6.1-7.2s5.1-13.3 15.4-25.6c32.8-40.3 57.8-80.2 75.2-119.8s26.1-65.2 26.1-76.8-1.9-20.5-5.6-26.6-5.6-12.3-5.6-18.4c0-10.2 6.1-15.4 18.4-15.4s30.4 6.8 54.3 20.5 35.8 24.9 35.8 33.8c0 5.5-4.1 12.1-12.3 20-8.2 7.9-19.8 24.1-34.8 48.6 34.8-3.4 62.1-14 81.9-31.8 10.2-9.5 20.1-14.3 29.7-14.3s26.3 8.2 50.2 24.6c23.9 16.4 35.8 28.3 35.8 35.8 0 6.1-7.9 12.8-23.5 20-15.7 7.2-33.5 23.6-53.2 49.2s-39.6 49.3-59.4 71.2c57.3 32.8 108.4 58.9 153.1 78.3s91 33.6 138.8 42.5c28 5.5 42 12 42 19.5 0 3.4-3.4 6.7-10.2 9.7-6.8 3.1-26.8 7.9-59.9 14.3s-58.7 9.7-76.8 9.7-36.2-7.5-54.3-22.5-72.9-54.3-164.3-117.8c-55.3 54.6-108.4 93.9-159.2 117.8s-85.8 35.8-105 35.8c-6.2 0-9.2-1.4-9.2-4.1 0-6.1 17.8-19.1 53.2-38.9s67.2-41.3 95.2-64.5c28-23.2 54.3-48.8 78.8-76.8-24.7-16.4-49.2-29-73.8-37.9z m84 256c-33.5 4.8-54.8 7.2-64 7.2s-23.4-2.2-42.5-6.7c-19.1-4.4-28.7-9.7-28.7-15.9 0-6.1 11.1-10.1 33.3-11.8 22.2-1.7 56.1-6.7 101.9-14.8-2.1-26.6-6.5-44.9-13.3-54.8s-10.2-17.2-10.2-22c0-8.9 6-13.3 17.9-13.3 11.9 0 29 3.9 51.2 11.8s33.3 16.2 33.3 25.1c0 3.4-1.9 8.7-5.6 15.9-3.8 7.2-6.7 14.5-8.7 22 27.3-9.6 48.1-14.3 62.5-14.3s27.7 2.6 39.9 7.7 18.4 10.8 18.4 16.9c0 6.2-7 12.1-21 17.9-14 5.8-47.6 12.8-100.9 21v43c32.1-8.9 55.3-13.3 69.6-13.3s25.6 2.7 33.8 8.2 12.3 11.3 12.3 17.4-4.4 10.8-13.3 13.8c-8.9 3.1-43 10.4-102.4 22v50.2c52.6-10.2 91.1-18.1 115.7-23.5 24.6-5.5 44.9-8.2 60.9-8.2s32.2 6.3 48.6 19c16.4 12.6 24.6 23.4 24.6 32.2 0 12.3-15.7 18.4-47.1 18.4l-97.3-2c-36.9 0-72 1.7-105.5 5.1l-2 105.5c-0.7 25.2-3.2 51.9-7.7 79.9-4.4 28-8.9 46.8-13.3 56.3s-8.7 14.3-12.8 14.3c-9.6 0-16.5-19.5-21-58.4-4.4-38.9-6.7-79.5-6.7-121.9v-67.6c-7.5 0.7-40.6 8.5-99.3 23.6-9.6 2-19.3 3.1-29.2 3.1-9.9 0-23.7-5.1-41.5-15.4-17.8-10.2-26.6-18.4-26.6-24.6 0-6.1 13.6-9.9 41-11.3 60.8-3.4 112.6-8.2 155.7-14.3v-50.2c-20.5 3.4-39.4 5.1-56.8 5.1s-32.9-2.4-46.6-7.2-20.5-9.6-20.5-14.3c0-6.8 10.8-10.7 32.2-11.8s52.1-6.3 91.7-15.9v-49.1z m-13.3-343c-13 19.8-27.7 39.6-44 59.4 23.9 8.9 48.5 20.1 73.7 33.8 13.7-16.4 26.6-34.8 38.9-55.3 12.3-20.5 18.4-31.7 18.4-33.8 0-5.5-3.2-8.2-9.7-8.2s-14.7 1.7-24.6 5.1c-9.9 3.4-18.8 5.1-26.6 5.1-7.9 0-16.6-2-26.1-6.1z" p-id="20802" fill="#d81e06"></path></svg>