<?xml version="1.0" standalone="no"?><!DOCTYPE svg PUBLIC "-//W3C//DTD SVG 1.1//EN" "http://www.w3.org/Graphics/SVG/1.1/DTD/svg11.dtd"><svg t="1744679925519" class="icon" viewBox="0 0 1024 1024" version="1.1" xmlns="http://www.w3.org/2000/svg" p-id="35992" xmlns:xlink="http://www.w3.org/1999/xlink" width="256" height="256"><path d="M512 512m-512 0a512 512 0 1 0 1024 0 512 512 0 1 0-1024 0Z" fill="#3598FE" p-id="35993"></path><path d="M324.408781 655.018925C505.290126 655.018925 651.918244 508.387706 651.918244 327.509463c0-152.138029-103.733293-280.047334-244.329811-316.853972C205.813923 52.463528 47.497011 213.017581 8.987325 415.981977 47.587706 553.880127 174.183098 655.018925 324.408781 655.018925z" fill="#FFFFFF" fill-opacity=".2" p-id="35994"></path><path d="M512 1024c282.766631 0 512-229.233369 512-512 0-31.765705-2.891385-62.853911-8.433853-93.018889C928.057169 336.0999 809.874701 285.26268 679.824375 285.26268c-269.711213 0-488.357305 218.645317-488.357305 488.357305 0 54.959576 9.084221 107.802937 25.822474 157.10377C300.626556 989.489417 402.283167 1024 512 1024z" fill="#FFFFFF" fill-opacity=".15" p-id="35995"></path><path d="M732.535958 756.566238c36.389596 0 65.889478-29.499882 65.889477-65.889478 0 36.389596 29.502983 65.889478 65.889478 65.889478-17.053747 0-65.889478 29.502983-65.889478 65.889477 0-36.386495-29.499882-65.889478-65.889477-65.889477zM159.685087 247.279334c25.686819 0 46.51022-20.8234 46.51022-46.51022 0 25.686819 20.8234 46.51022 46.510219 46.51022-12.03607 0-46.51022 20.8234-46.510219 46.510219 0-25.686819-20.8234-46.51022-46.51022-46.510219z" fill="#FFFFFF" fill-opacity=".5" p-id="35996"></path><path d="M206.195307 333.32324c8.562531 0 15.503407-6.940875 15.503406-15.503407 0 8.562531 6.940875 15.503407 15.503407 15.503407-4.012282 0-15.503407 6.940875-15.503407 15.503406 0-8.562531-6.940875-15.503407-15.503406-15.503406z" fill="#FFFFFF" fill-opacity=".3" p-id="35997"></path><path d="M670.461868 453.590916C657.322731 369.62059 584.710977 305.417108 497.092699 305.417108c-96.920321 0-175.519491 78.598395-175.519491 175.549723 0 1.208491 0 2.407679 0.04341 3.61617a119.925051 119.925051 0 0 0-66.563876 50.606994 119.991715 119.991715 0 0 0-17.326607 81.818453 119.969235 119.969235 0 0 0 40.332112 73.259022A119.895594 119.895594 0 0 0 356.444245 719.358062h297.751449a133.326195 133.326195 0 0 0 91.382504-36.220609 133.417665 133.417665 0 0 0 11.17253-182.466567 133.341699 133.341699 0 0 0-86.279558-47.105551l-0.009302 0.025581zM414.49365 538.230213a27.070498 27.070498 0 0 1 19.152909-7.943945 27.065847 27.065847 0 0 1 19.152908 7.943945l25.251949 25.251174V442.443192a27.104606 27.104606 0 0 1 16.609574-25.474423 27.089102 27.089102 0 0 1 35.646208 14.956136 27.119334 27.119334 0 0 1 1.922422 10.518287v121.038195l25.251173-25.251174a27.092203 27.092203 0 0 1 19.058338-7.613722 27.089877 27.089877 0 0 1 18.925783 7.934643 27.109257 27.109257 0 0 1 0.330223 37.996524l-70.958316 70.981571a28.458053 28.458053 0 0 1-39.401908 0l-70.94979-70.981571a27.082901 27.082901 0 0 1 0.008527-38.317445z" fill="#FFFFFF" p-id="35998"></path></svg>