<?xml version="1.0" standalone="no"?><!DOCTYPE svg PUBLIC "-//W3C//DTD SVG 1.1//EN" "http://www.w3.org/Graphics/SVG/1.1/DTD/svg11.dtd"><svg height="1024" node-id="1" sillyvg="true" template-height="1024" template-width="1024" version="1.1" viewBox="0 0 1024 1024" width="1024" xmlns="http://www.w3.org/2000/svg" xmlns:xlink="http://www.w3.org/1999/xlink"><defs node-id="52"></defs><path d="M 0.00 0.00 L 1024.00 0.00 L 1024.00 1024.00 L 0.00 1024.00 Z" fill="#ffffff" fill-rule="nonzero" node-id="54" stroke="none" target-height="1024" target-width="1024" target-x="0" target-y="0"></path><path d="M 650.10 96.30 L 656.80 91.10 L 664.00 86.20 L 669.00 83.20 L 679.40 78.10 L 684.80 76.00 L 690.30 74.40 L 695.90 73.10 L 701.60 72.30 L 707.30 72.00 L 713.10 72.20 L 716.20 72.80 L 718.90 73.80 L 721.30 75.20 L 723.40 77.10 L 727.00 81.60 L 729.10 85.50 L 730.80 89.70 L 733.40 98.10 L 736.20 110.80 L 738.50 123.50 L 740.20 136.40 L 741.50 149.30 L 742.30 162.20 L 742.60 175.20 L 742.40 188.10 L 741.70 201.10 L 740.50 214.00 L 738.80 226.80 L 736.60 239.60 L 734.00 252.20 L 730.80 264.80 L 727.20 277.20 L 723.00 289.50 L 714.00 313.50 L 712.90 317.40 L 712.10 322.80 L 712.20 325.50 L 714.90 331.30 L 728.00 353.40 L 730.50 359.20 L 733.50 367.20 L 735.80 375.40 L 737.60 383.90 L 738.90 392.50 L 739.40 401.10 L 739.40 409.70 L 738.90 416.20 L 736.90 428.90 L 735.30 435.20 L 733.30 441.30 L 730.90 447.30 L 728.00 453.10 L 724.70 458.80 L 718.20 467.90 L 710.50 476.00 L 704.80 480.90 L 698.80 485.30 L 692.40 489.40 L 685.80 493.00 L 679.10 496.10 L 672.20 498.90 L 648.60 506.80 L 644.90 508.50 L 641.30 510.60 L 637.90 513.10 L 633.80 511.20 L 629.60 509.80 L 625.10 508.90 L 620.80 508.40 L 644.40 502.30 L 656.30 498.80 L 668.00 494.80 L 675.60 491.80 L 683.00 488.30 L 690.10 484.40 L 695.20 481.10 L 700.10 477.50 L 704.80 473.60 L 709.30 469.20 L 714.10 463.70 L 718.40 457.80 L 722.00 451.70 L 725.20 445.30 L 727.80 438.60 L 729.90 431.80 L 731.50 424.90 L 732.60 417.70 L 733.20 410.50 L 733.40 403.30 L 733.10 396.10 L 732.40 388.90 L 731.20 381.70 L 729.60 374.70 L 727.70 367.90 L 723.30 356.40 L 721.00 351.90 L 710.40 334.40 L 708.10 329.90 L 706.10 325.20 L 706.40 321.40 L 708.10 314.10 L 716.50 291.30 L 720.60 279.00 L 724.20 266.60 L 727.30 254.00 L 729.90 241.30 L 732.10 228.50 L 733.70 215.70 L 734.90 202.80 L 735.60 189.90 L 735.90 176.90 L 735.70 163.90 L 735.00 150.90 L 733.90 138.00 L 732.30 125.20 L 730.30 112.30 L 728.00 101.70 L 725.00 91.20 L 722.00 84.60 L 720.10 81.50 L 718.20 79.60 L 716.00 78.10 L 713.60 77.20 L 711.10 76.60 L 705.70 76.20 L 697.70 76.90 L 691.70 78.20 L 685.80 79.90 L 680.10 82.10 L 674.60 84.60 L 667.50 88.40 L 660.60 92.80 L 654.10 97.60 L 641.80 108.30 L 636.20 114.10 L 630.60 120.50 L 625.60 127.40 L 606.50 156.20 L 595.00 151.60 L 583.30 147.50 L 571.30 144.00 L 559.20 141.00 L 547.10 138.70 L 534.80 137.10 L 525.50 136.20 L 507.00 135.80 L 497.70 136.20 L 488.50 136.90 L 479.30 138.20 L 470.10 139.80 L 453.10 143.80 L 445.40 146.20 L 437.90 149.10 L 400.90 165.70 L 395.10 158.30 L 388.90 151.30 L 382.10 144.50 L 376.70 139.70 L 365.20 131.20 L 359.20 127.40 L 352.90 123.90 L 346.50 120.90 L 339.90 118.40 L 333.10 116.30 L 326.20 114.70 L 319.20 113.60 L 312.10 113.10 L 304.80 113.20 L 301.60 123.40 L 298.80 133.70 L 296.40 144.10 L 294.50 154.70 L 292.90 165.30 L 291.80 176.00 L 291.20 186.70 L 290.90 197.40 L 291.10 208.20 L 291.70 218.90 L 292.80 229.60 L 294.30 240.20 L 296.20 250.80 L 298.50 261.30 L 301.30 271.60 L 306.50 287.70 L 313.00 304.70 L 314.80 312.50 L 315.20 316.50 L 313.00 322.10 L 310.30 327.60 L 301.40 343.70 L 299.00 349.30 L 296.10 357.00 L 293.70 364.90 L 291.70 373.10 L 290.20 381.30 L 289.30 389.60 L 288.90 398.00 L 289.40 410.40 L 291.40 422.70 L 292.90 428.70 L 294.90 434.60 L 297.30 440.30 L 303.00 451.10 L 306.30 455.90 L 309.80 460.50 L 313.60 464.80 L 319.20 470.10 L 325.20 475.00 L 331.60 479.40 L 338.30 483.30 L 345.20 486.80 L 352.40 489.80 L 391.90 505.00 L 384.10 509.90 L 380.90 507.40 L 374.30 503.30 L 368.90 500.80 L 353.80 495.70 L 344.50 491.90 L 338.50 489.00 L 327.00 482.40 L 321.60 478.60 L 316.40 474.40 L 311.50 469.80 L 306.70 464.80 L 302.40 459.40 L 298.60 453.80 L 295.10 447.80 L 292.20 441.70 L 289.70 435.30 L 287.70 428.70 L 286.30 422.10 L 285.30 415.20 L 284.70 406.60 L 284.50 397.90 L 284.80 389.20 L 285.50 380.50 L 286.80 371.90 L 288.60 363.40 L 290.40 357.20 L 292.60 351.10 L 295.10 345.00 L 298.10 339.10 L 307.00 322.70 L 308.60 318.40 L 309.70 313.90 L 308.50 307.60 L 306.60 301.60 L 299.60 283.90 L 297.50 277.80 L 294.10 265.90 L 291.30 253.90 L 289.10 241.70 L 287.40 229.50 L 286.40 217.20 L 285.80 204.80 L 285.80 192.50 L 286.30 180.10 L 287.40 167.80 L 288.90 155.50 L 290.90 143.30 L 293.50 131.20 L 295.20 124.70 L 297.30 118.20 L 298.80 115.20 L 300.70 112.30 L 303.00 110.90 L 307.80 109.20 L 311.70 108.60 L 315.80 108.60 L 323.70 109.10 L 331.70 110.70 L 339.40 113.00 L 346.90 115.70 L 354.20 119.00 L 361.30 122.80 L 368.10 127.00 L 374.70 131.70 L 381.00 136.60 L 393.00 147.50 L 403.80 159.40 L 433.40 146.30 L 443.40 142.40 L 450.20 140.10 L 457.10 138.20 L 473.60 134.80 L 483.10 133.40 L 492.50 132.40 L 501.90 131.90 L 511.40 131.70 L 523.30 132.10 L 535.10 133.00 L 546.80 134.50 L 558.60 136.60 L 570.20 139.20 L 581.70 142.20 L 593.00 145.80 L 604.20 149.80 L 617.80 130.80 L 625.00 121.40 L 632.70 112.40 L 638.10 106.80 L 643.90 101.40 L 650.10 96.30 Z" fill="#a5a6a7" fill-rule="nonzero" node-id="56" stroke="none" target-height="441.09998" target-width="458.09998" target-x="284.5" target-y="72"></path><path d="M 698.00 77.50 L 708.80 76.70 L 713.90 77.60 L 716.30 78.60 L 718.40 80.10 L 720.40 82.10 L 722.30 85.20 L 725.30 91.80 L 728.30 102.30 L 730.50 112.90 L 732.60 125.70 L 734.20 138.60 L 735.30 151.50 L 736.00 164.40 L 736.20 177.40 L 735.90 190.40 L 735.20 203.30 L 734.00 216.20 L 732.40 229.00 L 730.20 241.80 L 727.60 254.50 L 724.50 267.00 L 720.90 279.50 L 716.80 291.80 L 708.30 314.70 L 706.60 322.00 L 706.40 325.80 L 708.40 330.40 L 710.70 334.90 L 721.30 352.40 L 723.60 357.00 L 728.00 368.50 L 729.90 375.30 L 731.50 382.30 L 732.70 389.50 L 733.40 396.70 L 733.70 403.90 L 733.50 411.10 L 732.90 418.30 L 731.80 425.40 L 730.10 432.40 L 728.00 439.20 L 725.40 445.90 L 722.30 452.30 L 718.70 458.40 L 714.40 464.20 L 709.60 469.80 L 705.10 474.10 L 700.40 478.10 L 695.50 481.70 L 690.40 485.00 L 683.20 488.90 L 675.90 492.30 L 668.30 495.40 L 656.60 499.40 L 644.70 502.80 L 612.60 511.00 L 595.50 514.00 L 582.50 515.60 L 569.40 516.60 L 512.70 519.10 L 492.30 518.80 L 481.90 518.00 L 436.50 514.10 L 421.40 512.20 L 411.40 510.60 L 401.50 508.40 L 391.60 505.80 L 352.10 490.70 L 345.00 487.70 L 338.10 484.20 L 331.40 480.30 L 325.00 475.80 L 319.00 471.00 L 313.40 465.70 L 309.50 461.40 L 306.00 456.80 L 302.80 452.00 L 297.10 441.20 L 294.70 435.40 L 292.80 429.60 L 291.30 423.50 L 289.80 415.40 L 289.00 407.20 L 288.80 398.80 L 289.20 390.50 L 290.10 382.20 L 291.60 374.00 L 293.50 365.80 L 295.90 357.90 L 298.70 350.20 L 301.10 344.60 L 310.00 328.50 L 312.70 323.00 L 315.00 317.30 L 314.50 313.30 L 312.70 305.50 L 304.20 282.80 L 301.00 272.60 L 298.20 262.30 L 295.90 251.80 L 294.00 241.30 L 292.50 230.60 L 291.40 220.00 L 290.80 209.30 L 290.60 198.50 L 290.90 187.80 L 291.50 177.10 L 292.60 166.40 L 294.20 155.70 L 296.10 145.10 L 298.50 134.70 L 301.30 124.30 L 304.50 114.10 L 311.80 114.00 L 318.90 114.50 L 325.80 115.50 L 332.70 117.20 L 339.50 119.30 L 346.10 121.80 L 352.50 124.80 L 358.80 128.20 L 370.70 136.20 L 381.70 145.40 L 388.60 152.10 L 394.90 159.20 L 400.60 166.60 L 437.50 150.00 L 445.10 147.10 L 452.80 144.70 L 469.90 140.70 L 479.10 139.00 L 488.30 137.80 L 497.50 137.00 L 506.80 136.70 L 525.30 137.10 L 534.60 137.90 L 546.90 139.60 L 559.00 141.90 L 571.10 144.80 L 583.00 148.40 L 594.70 152.40 L 606.20 157.00 L 625.20 128.40 L 630.20 121.50 L 635.90 114.90 L 647.80 103.70 L 654.20 98.40 L 660.80 93.50 L 667.70 89.10 L 674.90 85.20 L 680.40 82.70 L 686.10 80.50 L 692.00 78.80 L 698.00 77.50 Z M 636.20 165.20 L 635.10 166.50 L 634.40 168.90 L 634.70 170.70 L 635.50 172.60 L 638.20 176.00 L 652.30 192.30 L 657.60 199.30 L 662.40 206.50 L 668.00 216.50 L 675.90 233.90 L 679.00 239.70 L 682.60 245.30 L 685.40 243.30 L 690.00 238.80 L 692.80 234.80 L 695.10 230.50 L 697.10 225.90 L 701.50 211.90 L 703.60 203.10 L 705.10 194.40 L 706.10 185.50 L 706.50 176.60 L 706.60 167.70 L 706.20 158.80 L 705.00 145.40 L 703.20 132.00 L 698.30 105.60 L 696.60 106.50 L 691.10 107.70 L 685.80 109.30 L 680.80 111.30 L 676.00 113.80 L 671.40 116.70 L 662.80 123.50 L 658.80 127.40 L 654.00 133.00 L 649.50 139.00 L 645.50 145.30 L 641.90 151.80 L 638.80 158.50 L 636.20 165.20 Z M 332.10 247.60 L 337.40 246.80 L 339.10 246.30 L 341.00 245.00 L 344.30 238.70 L 351.40 222.90 L 354.20 217.90 L 361.10 207.70 L 378.10 187.80 L 382.00 182.60 L 382.90 180.70 L 382.50 178.10 L 381.60 176.50 L 379.10 174.20 L 377.00 169.30 L 374.40 164.90 L 371.20 160.80 L 367.60 157.10 L 363.70 153.80 L 359.40 150.90 L 354.80 148.50 L 350.00 146.40 L 345.00 144.80 L 339.90 143.60 L 334.90 142.80 L 329.80 142.50 L 326.80 148.70 L 324.30 155.10 L 322.30 161.50 L 320.70 168.20 L 319.50 174.90 L 318.70 181.60 L 318.40 188.40 L 318.40 195.30 L 319.60 208.90 L 322.40 222.30 L 326.60 235.30 L 332.10 247.60 Z M 396.30 310.10 L 395.40 316.80 L 399.70 315.20 L 404.10 314.00 L 408.50 313.30 L 412.90 313.00 L 418.80 313.20 L 424.80 313.90 L 430.80 315.30 L 429.40 313.10 L 426.10 309.90 L 421.40 307.70 L 418.40 307.10 L 415.20 306.80 L 410.30 307.00 L 405.40 307.80 L 396.30 310.10 Z M 603.60 312.70 L 609.50 312.30 L 631.10 313.10 L 638.80 312.10 L 635.70 310.10 L 632.50 308.60 L 629.20 307.50 L 622.10 306.30 L 618.40 306.30 L 611.70 306.60 L 607.50 307.70 L 604.90 309.80 L 603.60 312.70 Z M 387.00 365.60 L 369.00 363.50 L 364.90 369.90 L 371.30 375.40 L 356.20 376.00 L 357.40 377.60 L 359.00 378.80 L 360.70 379.60 L 374.40 383.70 L 386.70 386.50 L 393.70 397.80 L 389.70 399.90 L 387.60 400.40 L 367.30 398.40 L 361.30 398.30 L 357.40 398.60 L 353.40 399.30 L 345.50 401.90 L 341.60 403.80 L 338.00 406.30 L 334.80 409.30 L 331.40 413.80 L 330.20 416.40 L 329.40 419.10 L 329.10 422.00 L 329.60 428.00 L 330.40 430.60 L 331.60 432.90 L 335.10 437.00 L 337.20 438.70 L 340.70 440.80 L 344.60 442.40 L 348.60 443.60 L 352.40 444.30 L 360.10 444.90 L 367.80 444.90 L 373.00 444.50 L 383.10 442.50 L 388.00 440.90 L 392.60 438.80 L 399.30 434.60 L 402.50 430.90 L 404.20 427.60 L 405.50 424.10 L 409.10 409.40 L 412.80 410.50 L 416.70 411.20 L 420.80 411.50 L 424.80 411.20 L 428.80 410.60 L 432.70 409.50 L 436.40 408.00 L 440.00 406.10 L 443.20 403.80 L 446.20 401.10 L 448.70 398.10 L 450.90 394.60 L 452.20 391.70 L 454.00 385.80 L 454.60 381.20 L 454.80 376.50 L 454.60 367.30 L 454.20 363.20 L 453.30 359.30 L 451.70 355.40 L 449.70 351.80 L 447.20 348.50 L 444.30 345.60 L 441.00 343.10 L 437.40 341.10 L 429.60 338.40 L 425.60 337.50 L 421.60 337.30 L 417.60 337.50 L 413.60 338.10 L 409.70 339.30 L 405.90 340.80 L 402.40 342.80 L 399.00 345.10 L 396.00 347.80 L 393.30 350.70 L 391.00 354.10 L 389.20 357.60 L 387.80 361.40 L 387.00 365.60 Z M 587.90 345.20 L 585.10 348.70 L 582.80 352.50 L 581.00 356.60 L 579.60 360.90 L 578.60 365.30 L 578.10 369.90 L 578.10 374.50 L 578.50 379.00 L 579.40 383.60 L 580.70 388.00 L 582.40 392.10 L 584.50 396.10 L 587.00 399.70 L 590.00 403.00 L 593.30 405.90 L 599.00 409.30 L 605.70 411.40 L 603.30 411.40 L 615.00 414.10 L 616.10 424.70 L 616.70 428.20 L 617.60 431.70 L 619.10 434.80 L 620.40 436.60 L 622.10 438.20 L 628.90 442.20 L 633.80 444.20 L 638.80 445.80 L 649.20 447.70 L 654.50 448.10 L 662.50 448.10 L 670.40 447.40 L 674.50 446.70 L 678.60 445.40 L 682.50 443.70 L 686.00 441.50 L 688.20 439.70 L 691.70 435.60 L 692.90 433.20 L 693.80 430.60 L 694.50 424.30 L 694.10 421.20 L 693.00 418.20 L 691.50 415.40 L 689.70 412.80 L 684.90 408.20 L 679.40 404.80 L 676.20 403.30 L 669.50 401.20 L 664.40 400.30 L 659.10 399.90 L 637.90 399.50 L 641.40 392.60 L 652.90 389.80 L 658.50 387.90 L 663.80 385.60 L 667.30 383.80 L 673.60 379.20 L 663.20 377.20 L 664.30 364.70 L 648.40 371.70 L 643.40 358.40 L 641.90 355.20 L 637.90 349.50 L 634.60 346.10 L 631.00 343.30 L 626.90 340.90 L 622.60 339.00 L 618.20 337.60 L 613.60 336.80 L 608.90 336.60 L 604.40 337.00 L 599.90 338.00 L 596.70 339.20 L 593.60 340.80 L 590.70 342.80 L 587.90 345.20 Z M 498.80 389.70 L 497.10 390.50 L 494.50 392.90 L 492.10 397.80 L 490.40 403.00 L 492.40 403.60 L 496.10 407.90 L 501.80 412.00 L 505.60 413.90 L 513.60 416.70 L 512.50 423.40 L 511.50 426.90 L 508.50 433.30 L 506.50 436.20 L 504.20 438.70 L 501.60 440.80 L 498.70 442.40 L 493.80 443.80 L 491.10 443.90 L 485.40 443.60 L 483.20 443.00 L 481.40 442.20 L 479.70 440.90 L 477.20 437.60 L 475.80 434.60 L 474.90 431.40 L 474.10 424.80 L 469.10 428.40 L 468.30 430.10 L 468.20 433.80 L 468.60 436.20 L 469.50 438.40 L 470.70 440.40 L 474.10 443.90 L 477.30 445.90 L 480.80 447.40 L 484.50 448.40 L 488.00 448.90 L 491.50 448.90 L 494.80 448.50 L 498.10 447.70 L 504.10 445.00 L 507.00 443.10 L 510.90 439.90 L 514.50 436.10 L 517.60 439.60 L 521.30 442.90 L 526.80 446.50 L 532.70 448.90 L 535.80 449.50 L 538.90 449.70 L 541.90 449.40 L 545.00 448.60 L 550.10 446.00 L 553.90 442.70 L 555.50 440.60 L 558.10 436.00 L 558.90 433.60 L 559.20 431.20 L 559.10 429.00 L 557.90 425.90 L 555.10 423.30 L 553.70 426.20 L 549.30 438.10 L 546.70 441.40 L 545.00 442.60 L 543.00 443.50 L 540.30 444.00 L 534.90 444.00 L 530.20 442.60 L 527.40 441.00 L 525.00 439.00 L 522.80 436.50 L 521.00 433.70 L 519.60 430.70 L 518.50 427.40 L 517.80 424.00 L 517.50 420.60 L 517.70 417.20 L 530.20 409.70 L 532.00 409.00 L 533.40 408.10 L 534.40 406.80 L 535.70 403.70 L 536.00 401.90 L 535.80 399.20 L 535.10 396.40 L 533.90 393.80 L 532.20 391.70 L 530.80 390.50 L 527.50 389.10 L 520.10 388.20 L 512.80 387.90 L 508.00 388.10 L 498.80 389.70 Z" fill="#f7f5f3" fill-rule="nonzero" node-id="58" stroke="none" target-height="442.39996" target-width="447.40002" target-x="288.8" target-y="76.7"></path><path d="M 397.40 814.80 L 409.10 810.80 L 423.00 820.30 L 444.90 821.30 L 451.40 821.90 L 457.80 822.80 L 474.70 826.20 L 483.10 827.40 L 491.50 828.20 L 491.70 845.80 L 491.20 854.60 L 490.10 867.80 L 485.10 915.70 L 483.40 923.90 L 482.40 926.60 L 479.80 931.20 L 478.10 933.20 L 476.00 935.00 L 473.50 936.50 L 468.30 938.90 L 457.70 942.50 L 452.10 943.70 L 444.70 944.90 L 437.10 945.50 L 429.50 945.80 L 418.00 945.50 L 406.70 944.60 L 398.10 942.90 L 393.60 941.60 L 389.30 939.90 L 386.70 938.50 L 382.20 934.80 L 380.50 932.60 L 379.10 930.00 L 378.30 926.90 L 378.00 921.80 L 378.30 916.80 L 379.20 912.10 L 380.40 907.40 L 383.90 898.20 L 393.30 877.90 L 396.10 871.10 L 397.50 866.40 L 398.60 861.60 L 399.20 856.60 L 399.60 842.70 L 398.50 825.30 L 397.40 814.80 Z" fill="#f7f5f3" fill-rule="nonzero" node-id="60" stroke="none" target-height="135" target-width="113.70001" target-x="378" target-y="810.8"></path><path d="M 597.50 818.90 L 606.50 812.20 L 622.20 818.30 L 620.70 834.60 L 619.90 851.20 L 620.00 856.70 L 621.10 867.50 L 622.10 872.90 L 623.50 878.10 L 627.50 888.80 L 634.40 905.30 L 636.20 911.00 L 637.40 916.60 L 637.80 920.50 L 637.80 924.40 L 637.30 928.40 L 636.00 931.10 L 634.40 933.30 L 632.50 935.30 L 628.00 938.30 L 625.40 939.50 L 617.10 942.00 L 608.90 943.50 L 597.70 944.20 L 586.50 944.50 L 579.00 944.30 L 571.50 943.70 L 558.70 941.70 L 548.10 938.40 L 542.90 936.20 L 540.10 934.70 L 537.80 932.80 L 536.00 930.60 L 533.30 925.50 L 531.60 918.00 L 530.40 904.30 L 530.10 868.10 L 528.40 832.00 L 537.70 828.80 L 541.90 827.90 L 554.90 824.00 L 559.20 822.90 L 563.60 822.40 L 569.30 822.80 L 582.90 826.60 L 585.90 826.60 L 588.00 825.90 L 590.10 824.70 L 597.50 818.90 Z" fill="#f7f5f3" fill-rule="nonzero" node-id="62" stroke="none" target-height="132.29999" target-width="109.39996" target-x="528.4" target-y="812.2"></path><path d="M 636.20 165.20 L 638.80 158.40 L 642.00 151.80 L 645.60 145.30 L 649.60 139.00 L 654.10 133.00 L 659.00 127.40 L 663.00 123.50 L 671.50 116.70 L 676.10 113.80 L 681.00 111.30 L 686.00 109.30 L 691.30 107.70 L 696.90 106.50 L 684.80 111.80 L 678.90 114.90 L 669.60 121.00 L 662.90 126.80 L 659.20 130.50 L 652.70 138.50 L 648.30 145.00 L 636.20 165.20 Z" fill="#39653a" fill-rule="nonzero" node-id="64" stroke="none" target-height="58.699997" target-width="60.700012" target-x="636.2" target-y="106.5"></path><path d="M 696.90 106.50 L 698.60 105.60 L 703.50 132.00 L 705.30 145.40 L 706.50 158.80 L 706.90 167.70 L 706.80 176.60 L 706.40 185.50 L 705.40 194.40 L 703.90 203.20 L 701.80 211.90 L 697.10 225.90 L 695.20 230.50 L 692.90 234.80 L 690.10 238.80 L 685.60 243.30 L 682.90 245.30 L 679.30 239.70 L 676.20 233.90 L 666.90 213.80 L 662.60 206.30 L 657.80 199.00 L 652.50 192.10 L 637.00 174.20 L 635.00 170.60 L 634.70 168.90 L 635.40 166.50 L 640.60 158.50 L 648.80 145.00 L 653.10 138.50 L 659.70 130.50 L 666.60 123.80 L 673.40 118.30 L 679.00 114.80 L 684.80 111.70 L 696.90 106.50 Z" fill="#da9bb8" fill-rule="nonzero" node-id="66" stroke="none" target-height="139.70001" target-width="72.20001" target-x="634.7" target-y="105.6"></path><path d="M 332.10 247.60 L 326.60 235.30 L 322.40 222.30 L 319.60 208.90 L 318.40 195.30 L 318.40 188.40 L 318.70 181.60 L 319.50 174.90 L 320.70 168.20 L 322.30 161.50 L 324.30 155.10 L 326.80 148.70 L 329.80 142.50 L 346.00 150.10 L 351.20 153.00 L 356.10 156.20 L 369.60 167.30 L 380.10 175.10 L 382.20 177.80 L 382.60 179.40 L 382.40 181.60 L 377.80 187.80 L 365.00 202.70 L 357.10 213.10 L 354.00 218.00 L 351.30 223.10 L 344.10 238.80 L 340.80 245.00 L 339.00 246.30 L 337.40 246.80 L 332.10 247.60 Z" fill="#db9cb9" fill-rule="nonzero" node-id="68" stroke="none" target-height="105.100006" target-width="64.20001" target-x="318.4" target-y="142.5"></path><path d="M 329.80 142.50 L 334.90 142.80 L 340.00 143.50 L 345.10 144.60 L 350.10 146.30 L 354.80 148.30 L 359.40 150.80 L 363.70 153.70 L 367.70 157.10 L 371.20 160.80 L 375.60 167.00 L 378.80 174.20 L 369.60 167.30 L 356.10 156.20 L 351.10 153.00 L 345.80 150.10 L 329.80 142.50 Z" fill="#b397a4" fill-rule="nonzero" node-id="70" stroke="none" target-height="31.699997" target-width="49" target-x="329.8" target-y="142.5"></path><path d="M 635.30 546.20 L 638.80 547.10 L 644.90 553.90 L 663.90 573.70 L 683.40 595.70 L 690.50 604.40 L 697.20 613.40 L 703.40 622.80 L 709.10 632.40 L 714.30 642.30 L 717.90 649.90 L 723.80 665.50 L 726.30 673.50 L 728.40 681.60 L 730.00 689.80 L 731.20 698.10 L 732.00 706.50 L 730.50 717.50 L 729.20 723.00 L 727.40 728.40 L 725.20 733.50 L 722.40 738.40 L 720.60 740.50 L 718.70 742.10 L 716.60 743.30 L 713.10 744.50 L 709.40 745.20 L 693.90 745.70 L 697.10 756.10 L 697.90 759.50 L 698.10 764.20 L 697.70 766.60 L 696.30 769.20 L 694.40 771.20 L 692.20 772.70 L 689.70 773.70 L 687.00 774.40 L 684.10 774.70 L 681.20 774.60 L 675.70 773.60 L 672.80 771.90 L 670.40 769.90 L 668.30 767.50 L 665.60 763.50 L 658.80 750.60 L 654.70 754.10 L 656.50 751.80 L 657.80 749.40 L 658.60 746.70 L 659.10 744.00 L 659.40 738.40 L 659.30 742.60 L 659.80 746.70 L 660.60 750.80 L 661.90 754.70 L 663.60 758.50 L 665.70 762.10 L 668.10 765.50 L 670.90 768.70 L 673.90 771.60 L 676.60 772.60 L 679.40 773.10 L 685.30 773.20 L 691.00 772.40 L 693.20 770.50 L 694.70 768.40 L 695.70 766.10 L 696.20 763.60 L 696.40 761.00 L 696.20 758.30 L 695.30 754.30 L 693.90 750.20 L 690.20 743.10 L 702.90 744.20 L 707.20 744.20 L 712.70 743.30 L 715.30 742.40 L 717.60 741.20 L 719.80 739.40 L 721.80 737.00 L 724.70 732.10 L 726.90 727.00 L 728.70 721.70 L 729.90 716.30 L 730.60 710.70 L 730.90 705.10 L 730.60 699.50 L 729.90 694.00 L 728.80 688.50 L 727.00 680.10 L 724.80 671.90 L 722.20 663.80 L 715.90 647.90 L 708.30 632.70 L 704.00 625.40 L 697.70 615.90 L 691.00 606.70 L 683.80 597.90 L 669.10 580.90 L 661.60 572.50 L 648.60 559.20 L 637.30 549.40 L 634.80 548.40 L 632.10 547.40 L 629.50 551.70 L 628.30 546.20 L 635.30 546.20 Z" fill="#000000" fill-rule="nonzero" node-id="72" stroke="none" target-height="228.5" target-width="103.70001" target-x="628.3" target-y="546.2"></path><path d="M 650.10 754.10 L 649.50 758.20 L 648.10 759.10 L 625.20 767.10 L 613.00 770.90 L 600.60 774.10 L 588.20 776.90 L 575.60 779.20 L 563.00 781.00 L 550.30 782.40 L 537.50 783.30 L 524.80 783.80 L 511.90 783.80 L 495.90 783.20 L 479.90 782.00 L 464.00 780.20 L 448.10 777.70 L 432.40 774.70 L 416.80 771.10 L 401.40 767.00 L 386.10 762.30 L 371.00 759.10 L 369.40 764.30 L 367.20 775.00 L 366.40 783.10 L 366.10 791.30 L 365.10 786.20 L 364.70 781.10 L 364.90 776.00 L 366.50 766.00 L 367.80 761.10 L 373.90 756.70 L 386.00 761.10 L 398.20 764.90 L 410.50 768.40 L 423.00 771.40 L 439.70 774.90 L 456.60 777.90 L 473.50 780.30 L 503.50 781.90 L 518.60 782.10 L 533.80 781.90 L 548.90 781.00 L 563.90 779.60 L 575.10 778.10 L 586.20 776.10 L 597.20 773.70 L 608.10 770.90 L 618.80 767.50 L 629.40 763.60 L 639.80 759.20 L 650.10 754.10 Z" fill="#000000" fill-rule="nonzero" node-id="74" stroke="none" target-height="37.200012" target-width="285.39996" target-x="364.7" target-y="754.1"></path><path d="M 409.10 810.80 L 407.80 793.40 L 407.80 787.60 L 408.30 781.90 L 409.30 776.20 L 410.40 795.80 L 411.10 802.30 L 412.20 805.80 L 413.80 809.10 L 418.00 815.00 L 422.70 820.30 L 416.10 815.30 L 409.10 810.80 Z" fill="#000000" fill-rule="nonzero" node-id="76" stroke="none" target-height="44.099976" target-width="14.900024" target-x="407.8" target-y="776.2"></path><path d="M 387.00 365.60 L 387.80 361.40 L 389.20 357.60 L 391.00 354.10 L 393.30 350.80 L 396.00 347.80 L 399.00 345.10 L 402.40 342.80 L 406.00 340.90 L 409.80 339.30 L 413.70 338.20 L 417.70 337.50 L 421.80 337.20 L 425.80 337.40 L 429.80 338.20 L 437.70 340.80 L 441.30 342.70 L 444.60 345.20 L 447.50 348.10 L 450.00 351.40 L 452.00 355.00 L 453.60 358.90 L 454.50 362.90 L 454.90 367.00 L 455.10 376.40 L 454.90 381.10 L 454.30 385.70 L 452.50 391.50 L 449.00 397.80 L 446.50 400.80 L 443.50 403.50 L 440.20 405.80 L 436.70 407.70 L 433.00 409.20 L 429.10 410.30 L 425.10 411.00 L 421.10 411.20 L 417.00 410.90 L 413.10 410.30 L 409.30 409.10 L 405.10 406.80 L 401.00 404.10 L 397.20 401.00 L 394.00 397.50 L 387.00 386.20 L 374.80 383.50 L 368.80 381.90 L 362.90 379.80 L 385.20 380.70 L 385.80 373.10 L 387.00 365.60 Z M 410.50 361.20 L 411.80 363.80 L 413.60 366.30 L 415.70 368.50 L 418.10 370.20 L 421.60 371.50 L 425.20 371.40 L 426.90 370.60 L 430.50 368.10 L 432.70 365.10 L 433.80 361.40 L 434.00 359.50 L 433.60 356.60 L 432.70 353.90 L 431.80 352.20 L 429.30 349.60 L 427.70 348.60 L 425.90 348.10 L 421.90 347.80 L 420.30 348.10 L 419.00 348.70 L 417.10 350.20 L 414.20 354.40 L 410.50 361.20 Z" fill="#010101" fill-rule="nonzero" node-id="78" stroke="none" target-height="74" target-width="92.20001" target-x="362.9" target-y="337.2"></path><path d="M 587.90 345.20 L 590.70 342.80 L 593.60 340.80 L 596.70 339.20 L 599.90 338.00 L 604.40 337.00 L 608.90 336.60 L 613.60 336.80 L 618.20 337.60 L 622.60 339.00 L 626.90 340.90 L 630.90 343.30 L 634.60 346.10 L 637.90 349.50 L 641.90 355.20 L 644.60 361.80 L 645.40 367.10 L 645.70 372.30 L 645.60 377.60 L 644.30 385.40 L 643.00 389.20 L 637.90 399.80 L 634.90 402.50 L 631.80 404.90 L 624.90 408.40 L 617.40 410.60 L 611.60 411.40 L 605.70 411.70 L 602.20 410.70 L 596.00 407.80 L 593.30 405.90 L 590.00 403.00 L 587.00 399.70 L 584.50 396.00 L 582.40 392.00 L 580.70 387.80 L 579.40 383.40 L 578.50 378.80 L 578.10 374.30 L 578.10 369.70 L 578.60 365.10 L 579.60 360.70 L 581.00 356.50 L 582.80 352.40 L 585.10 348.70 L 587.90 345.20 Z M 608.30 347.80 L 604.40 354.40 L 603.40 356.60 L 602.80 358.90 L 602.90 362.70 L 603.50 364.30 L 605.80 367.90 L 607.20 369.40 L 608.90 370.50 L 612.80 371.40 L 617.00 370.80 L 620.80 368.90 L 622.50 367.60 L 625.00 364.30 L 625.80 362.30 L 626.10 360.30 L 626.00 358.00 L 624.80 355.40 L 620.20 347.80 L 608.30 347.80 Z" fill="#010101" fill-rule="nonzero" node-id="80" stroke="none" target-height="75.100006" target-width="67.60004" target-x="578.1" target-y="336.6"></path><path d="M 396.30 310.10 L 405.30 307.80 L 410.20 307.00 L 415.00 306.80 L 418.20 307.10 L 421.20 307.70 L 425.80 309.90 L 429.10 313.10 L 430.50 315.30 L 424.60 314.10 L 418.60 313.40 L 412.70 313.20 L 408.30 313.50 L 403.90 314.20 L 399.50 315.20 L 395.10 316.80 L 396.30 310.10 Z" fill="#2b2a2a" fill-rule="nonzero" node-id="82" stroke="none" target-height="10" target-width="35.399994" target-x="395.1" target-y="306.8"></path><path d="M 603.60 312.70 L 604.90 309.80 L 607.50 307.60 L 609.50 306.90 L 614.00 306.30 L 622.10 306.30 L 629.10 307.50 L 632.50 308.60 L 635.70 310.10 L 638.80 312.10 L 631.00 313.20 L 609.50 312.50 L 603.60 312.70 Z" fill="#3f3d3c" fill-rule="nonzero" node-id="84" stroke="none" target-height="6.9000244" target-width="35.200012" target-x="603.6" target-y="306.3"></path><path d="M 410.50 361.20 L 415.40 352.30 L 417.00 350.40 L 418.90 348.90 L 420.30 348.20 L 423.90 347.80 L 425.90 348.00 L 427.70 348.50 L 430.60 350.60 L 432.70 353.70 L 433.60 356.40 L 434.00 359.30 L 433.80 361.30 L 432.70 364.90 L 430.50 368.10 L 426.90 370.60 L 425.20 371.40 L 421.60 371.50 L 418.10 370.20 L 415.70 368.50 L 413.60 366.30 L 411.80 363.80 L 410.50 361.20 Z" fill="#f5f1f2" fill-rule="nonzero" node-id="86" stroke="none" target-height="23.700012" target-width="23.5" target-x="410.5" target-y="347.8"></path><path d="M 608.30 347.80 L 619.90 348.10 L 623.00 353.00 L 625.70 358.30 L 625.80 360.50 L 625.50 362.60 L 624.70 364.50 L 622.20 367.90 L 620.50 369.20 L 616.70 371.10 L 612.50 371.70 L 610.50 371.40 L 608.60 370.80 L 607.00 369.70 L 605.50 368.20 L 603.30 364.50 L 602.60 361.40 L 602.70 359.00 L 603.40 356.70 L 604.40 354.40 L 608.30 347.80 Z" fill="#f7f4f6" fill-rule="nonzero" node-id="88" stroke="none" target-height="23.900024" target-width="23.200012" target-x="602.6" target-y="347.8"></path><path d="M 644.60 361.50 L 648.40 371.40 L 664.30 364.40 L 663.20 376.90 L 673.60 378.90 L 667.20 383.50 L 663.80 385.30 L 658.40 387.70 L 652.80 389.50 L 641.40 392.30 L 644.30 385.00 L 645.60 377.30 L 645.70 372.00 L 645.40 366.80 L 644.60 361.50 Z" fill="#aaa3a1" fill-rule="nonzero" node-id="90" stroke="none" target-height="30.799988" target-width="32.19995" target-x="641.4" target-y="361.5"></path><path d="M 369.00 363.50 L 387.00 365.60 L 384.70 380.90 L 373.50 380.30 L 362.30 380.10 L 360.40 379.60 L 358.70 378.80 L 357.20 377.60 L 355.90 376.00 L 371.00 375.40 L 364.60 369.90 L 369.00 363.50 Z" fill="#c9c8c6" fill-rule="nonzero" node-id="92" stroke="none" target-height="17.399994" target-width="31.100006" target-x="355.9" target-y="363.5"></path><path d="M 498.80 389.70 L 503.50 388.60 L 508.20 388.00 L 512.90 387.80 L 520.00 388.20 L 527.30 389.10 L 530.60 390.40 L 532.00 391.60 L 533.70 393.70 L 534.90 396.30 L 535.60 399.10 L 535.80 401.90 L 535.00 405.30 L 533.10 408.00 L 531.70 409.00 L 529.90 409.70 L 523.50 409.70 L 517.10 409.30 L 510.80 408.40 L 498.40 405.50 L 490.40 403.00 L 492.10 397.90 L 494.50 393.10 L 497.10 390.60 L 498.80 389.70 Z" fill="#c280ab" fill-rule="nonzero" node-id="94" stroke="none" target-height="21.900024" target-width="45.399994" target-x="490.4" target-y="387.8"></path><path d="M 393.70 397.50 L 397.10 401.00 L 400.80 404.10 L 404.80 406.80 L 409.10 409.10 L 405.60 423.90 L 404.30 427.40 L 402.60 430.60 L 399.30 434.30 L 392.70 438.40 L 388.00 440.50 L 383.10 442.10 L 373.00 444.10 L 362.60 444.60 L 352.40 444.00 L 348.60 443.20 L 344.50 442.00 L 340.70 440.30 L 337.10 438.20 L 333.10 434.60 L 331.50 432.50 L 330.30 430.20 L 329.50 427.60 L 329.10 421.70 L 329.40 418.80 L 330.20 416.10 L 332.90 411.20 L 334.80 409.00 L 338.00 406.00 L 341.60 403.60 L 345.50 401.60 L 353.40 398.90 L 357.40 398.20 L 361.30 397.90 L 367.30 397.90 L 385.20 400.10 L 387.60 400.10 L 389.70 399.60 L 393.70 397.50 Z" fill="#d699b8" fill-rule="nonzero" node-id="96" stroke="none" target-height="47.100006" target-width="80" target-x="329.1" target-y="397.5"></path><path d="M 605.70 411.10 L 611.60 410.90 L 617.40 410.00 L 624.90 407.80 L 631.80 404.30 L 634.90 402.00 L 637.90 399.20 L 659.10 399.60 L 664.40 400.00 L 669.50 400.90 L 676.20 403.00 L 679.40 404.50 L 684.80 407.90 L 689.60 412.50 L 691.40 415.10 L 692.90 417.90 L 693.90 420.90 L 694.40 424.00 L 693.80 430.30 L 692.90 432.90 L 691.60 435.30 L 690.00 437.50 L 685.90 441.20 L 682.30 443.40 L 678.40 445.10 L 674.40 446.40 L 670.40 447.20 L 662.50 447.80 L 654.50 447.80 L 649.20 447.40 L 638.80 445.50 L 633.80 443.90 L 628.90 441.90 L 624.30 439.30 L 622.20 437.80 L 620.50 436.20 L 619.20 434.30 L 617.80 431.20 L 616.30 424.30 L 615.00 413.80 L 603.30 411.10 L 605.70 411.10 Z" fill="#d794b4" fill-rule="nonzero" node-id="98" stroke="none" target-height="48.599976" target-width="91.10004" target-x="603.3" target-y="399.2"></path><path d="M 492.10 403.60 L 498.20 405.50 L 510.60 408.30 L 516.90 409.10 L 523.20 409.60 L 529.60 409.70 L 517.10 417.20 L 516.90 420.60 L 517.20 423.90 L 517.90 427.30 L 519.00 430.50 L 520.50 433.60 L 522.30 436.40 L 524.50 438.90 L 527.00 441.00 L 529.70 442.60 L 534.40 444.00 L 536.90 444.20 L 542.40 443.50 L 544.50 442.70 L 546.10 441.50 L 548.70 438.20 L 549.60 436.20 L 553.10 426.20 L 554.60 423.30 L 557.30 425.90 L 558.50 429.00 L 558.60 431.20 L 558.30 433.60 L 556.40 438.40 L 553.30 442.70 L 549.50 446.00 L 544.40 448.60 L 541.30 449.50 L 538.30 449.80 L 535.20 449.60 L 532.10 449.00 L 526.20 446.60 L 520.70 443.00 L 517.10 439.70 L 513.90 436.10 L 510.30 439.70 L 506.40 443.00 L 503.60 444.90 L 497.50 447.70 L 494.30 448.50 L 490.90 448.90 L 487.50 448.90 L 483.90 448.40 L 480.30 447.40 L 476.80 445.90 L 473.70 443.90 L 470.30 440.40 L 469.00 438.40 L 468.10 436.20 L 467.70 433.80 L 467.70 430.10 L 468.60 428.40 L 473.50 424.80 L 474.20 431.40 L 475.10 434.60 L 476.50 437.60 L 479.10 440.90 L 480.80 442.20 L 482.60 443.00 L 484.80 443.60 L 490.40 443.90 L 493.10 443.80 L 498.00 442.40 L 500.90 440.80 L 503.50 438.70 L 505.80 436.20 L 507.80 433.30 L 510.90 426.90 L 511.90 423.40 L 513.00 416.70 L 505.20 413.90 L 501.50 412.10 L 495.90 408.00 L 492.10 403.60 Z" fill="#2f2b2b" fill-rule="nonzero" node-id="100" stroke="none" target-height="46.19998" target-width="90.89996" target-x="467.7" target-y="403.6"></path><path d="M 384.10 510.50 L 391.90 505.50 L 401.80 508.10 L 411.70 510.10 L 421.70 511.80 L 436.70 513.70 L 482.20 517.70 L 492.40 518.50 L 502.60 518.80 L 523.00 518.40 L 543.50 517.40 L 546.40 549.10 L 548.40 547.90 L 549.80 546.60 L 550.90 545.10 L 552.10 542.50 L 552.70 539.50 L 552.90 536.40 L 552.50 526.40 L 552.80 520.30 L 565.40 520.10 L 578.40 520.30 L 580.30 530.40 L 581.30 540.70 L 566.50 546.80 L 546.70 550.50 L 526.70 553.00 L 506.50 554.00 L 496.50 553.80 L 486.40 553.20 L 476.40 552.00 L 474.40 549.10 L 471.20 542.90 L 465.60 528.30 L 463.40 523.50 L 461.50 536.60 L 460.20 549.70 L 443.60 548.90 L 435.30 548.10 L 421.70 545.90 L 411.10 542.70 L 409.20 539.30 L 408.90 537.60 L 409.00 535.00 L 409.60 532.20 L 413.40 521.50 L 409.90 518.60 L 406.10 542.10 L 400.90 543.00 L 395.70 543.50 L 390.50 543.50 L 382.60 542.80 L 374.80 541.50 L 374.80 520.60 L 379.30 515.10 L 384.10 510.50 Z" fill="#ab3691" fill-rule="nonzero" node-id="102" stroke="none" target-height="48.5" target-width="206.5" target-x="374.8" target-y="505.5"></path><path d="M 543.50 517.40 L 569.60 516.30 L 582.60 515.30 L 604.20 512.30 L 621.30 508.70 L 625.90 509.10 L 630.20 510.00 L 635.80 511.90 L 638.50 513.40 L 643.40 521.50 L 633.20 515.90 L 629.70 514.50 L 626.10 513.50 L 622.30 513.20 L 619.90 513.30 L 614.70 514.80 L 615.30 526.70 L 616.00 530.70 L 616.80 533.20 L 618.00 535.50 L 619.60 537.80 L 624.50 541.40 L 630.00 544.20 L 635.60 546.50 L 628.60 546.80 L 622.50 547.60 L 621.10 555.80 L 619.10 564.10 L 615.50 574.90 L 613.30 580.10 L 610.70 585.00 L 607.70 589.70 L 604.30 594.10 L 600.50 598.10 L 596.20 601.70 L 591.40 604.90 L 581.00 610.20 L 570.10 614.80 L 566.30 616.00 L 558.80 617.40 L 554.90 617.50 L 551.00 617.20 L 547.00 616.50 L 544.70 606.90 L 548.10 609.10 L 551.60 610.70 L 555.10 611.90 L 558.80 612.60 L 562.50 612.80 L 566.20 612.60 L 569.90 611.90 L 573.70 610.70 L 573.40 593.80 L 583.30 605.70 L 587.20 600.50 L 591.50 595.60 L 602.30 585.40 L 603.00 583.90 L 603.30 582.20 L 602.20 573.20 L 607.60 572.30 L 612.90 570.90 L 614.60 567.50 L 615.70 563.80 L 616.30 558.70 L 615.60 553.70 L 613.50 549.10 L 610.20 547.70 L 603.40 546.10 L 598.00 545.60 L 581.80 545.30 L 579.30 549.20 L 576.30 552.70 L 573.00 555.80 L 565.40 561.10 L 561.20 563.30 L 558.00 573.50 L 555.70 578.10 L 553.00 580.50 L 547.00 584.30 L 532.60 591.40 L 528.10 594.10 L 526.30 595.70 L 524.90 597.50 L 523.90 599.50 L 522.80 602.80 L 521.40 613.00 L 540.90 619.70 L 536.10 621.80 L 531.30 623.40 L 526.90 621.40 L 514.80 613.60 L 518.40 602.60 L 522.90 591.80 L 526.60 589.40 L 542.80 581.20 L 546.40 578.70 L 548.60 576.70 L 550.50 574.40 L 554.40 568.10 L 559.50 561.30 L 562.40 558.30 L 568.80 552.90 L 565.90 546.80 L 580.70 540.70 L 580.00 533.80 L 577.80 520.30 L 565.20 520.10 L 552.20 520.30 L 551.90 526.40 L 552.30 536.40 L 552.10 539.50 L 551.50 542.50 L 550.40 545.10 L 549.30 546.60 L 547.80 547.90 L 545.80 549.10 L 544.90 533.20 L 543.50 517.40 Z M 584.50 520.60 L 586.30 531.50 L 589.40 542.10 L 601.30 542.20 L 613.20 541.50 L 610.30 529.90 L 608.50 524.20 L 606.20 518.60 L 603.60 517.60 L 600.80 517.30 L 598.10 517.50 L 584.50 520.60 Z" fill="#6e235a" fill-rule="nonzero" node-id="104" stroke="none" target-height="114.70001" target-width="128.60004" target-x="514.8" target-y="508.7"></path><path d="M 614.70 514.50 L 619.90 513.10 L 622.30 512.90 L 626.10 513.30 L 629.70 514.30 L 633.20 515.70 L 643.40 521.20 L 646.90 527.70 L 649.20 534.60 L 646.90 537.70 L 639.10 546.80 L 635.60 545.90 L 630.00 543.60 L 624.50 540.90 L 619.60 537.20 L 618.00 535.00 L 616.80 532.80 L 616.00 530.30 L 615.30 526.50 L 614.70 514.50 Z" fill="#aa3599" fill-rule="nonzero" node-id="106" stroke="none" target-height="33.899963" target-width="34.5" target-x="614.7" target-y="512.9"></path><path d="M 409.60 517.70 L 413.10 520.60 L 409.50 531.60 L 408.80 534.30 L 408.70 536.90 L 409.00 538.60 L 410.80 541.80 L 416.10 543.50 L 426.80 545.90 L 443.30 547.80 L 459.90 548.80 L 461.70 531.40 L 463.10 522.70 L 465.30 527.40 L 470.90 542.10 L 474.10 548.20 L 476.10 551.10 L 465.70 550.00 L 465.90 554.70 L 466.70 559.00 L 468.10 563.00 L 471.90 570.50 L 474.40 574.00 L 478.60 579.10 L 496.90 598.30 L 500.80 603.40 L 500.90 606.60 L 500.60 609.70 L 499.90 612.50 L 498.70 615.20 L 496.90 617.70 L 494.40 620.00 L 477.60 616.10 L 451.10 612.20 L 442.30 609.40 L 436.80 606.80 L 431.40 603.80 L 426.20 600.30 L 416.50 592.40 L 405.30 581.40 L 399.20 574.70 L 401.30 560.30 L 403.00 545.90 L 399.80 547.70 L 397.00 549.80 L 394.70 552.20 L 390.90 557.90 L 389.30 561.00 L 385.50 570.90 L 380.80 585.80 L 373.20 612.00 L 370.40 623.20 L 367.90 634.60 L 366.00 646.00 L 363.90 661.30 L 362.50 676.70 L 361.60 692.10 L 361.30 723.00 L 362.00 741.00 L 362.60 743.30 L 363.60 745.50 L 365.70 748.50 L 368.20 751.30 L 373.60 756.50 L 367.50 760.80 L 360.70 748.40 L 359.40 745.00 L 358.60 741.50 L 358.00 736.00 L 358.10 713.40 L 357.30 708.00 L 356.30 704.50 L 354.80 701.10 L 352.70 697.80 L 356.70 692.30 L 357.60 689.10 L 358.70 673.00 L 360.30 656.90 L 362.60 640.90 L 364.70 628.90 L 367.20 617.00 L 370.10 605.30 L 373.40 593.60 L 377.20 582.10 L 381.40 570.70 L 386.10 559.50 L 391.30 548.50 L 371.30 544.40 L 369.60 538.00 L 369.50 531.50 L 370.10 528.40 L 371.10 525.30 L 372.50 522.40 L 374.50 519.50 L 374.50 540.40 L 382.20 541.70 L 390.10 542.30 L 395.30 542.30 L 400.60 541.90 L 405.90 541.00 L 409.60 517.70 Z M 410.80 548.80 L 407.00 557.00 L 406.10 560.00 L 405.70 563.00 L 405.80 565.90 L 406.20 567.70 L 408.20 571.20 L 409.90 572.90 L 411.60 574.00 L 413.40 574.60 L 417.40 574.70 L 432.30 570.30 L 415.40 579.90 L 416.30 583.90 L 417.80 587.90 L 419.10 590.40 L 422.70 594.50 L 424.90 596.10 L 427.40 597.20 L 430.30 597.90 L 434.20 596.60 L 438.00 595.00 L 452.30 587.10 L 447.20 593.20 L 442.40 599.60 L 442.40 601.80 L 442.70 603.70 L 443.60 605.20 L 446.20 607.70 L 448.00 608.60 L 450.80 609.50 L 455.60 609.90 L 459.00 609.30 L 461.30 608.20 L 463.50 606.70 L 471.50 599.60 L 474.40 612.70 L 484.40 613.90 L 494.40 614.10 L 494.80 610.30 L 494.50 606.90 L 493.70 603.80 L 492.30 600.90 L 488.50 595.40 L 471.20 578.40 L 468.90 575.50 L 464.30 567.60 L 462.10 562.60 L 458.40 552.30 L 450.50 551.90 L 426.70 549.30 L 418.80 548.70 L 410.80 548.80 Z" fill="#75285f" fill-rule="nonzero" node-id="108" stroke="none" target-height="243.09998" target-width="148.19998" target-x="352.7" target-y="517.7"></path><path d="M 584.50 520.60 L 598.20 517.50 L 600.90 517.30 L 603.50 517.60 L 606.00 518.60 L 608.30 524.10 L 610.10 529.90 L 612.90 541.50 L 601.00 542.10 L 589.10 542.10 L 586.10 531.50 L 584.50 520.60 Z" fill="#ab3294" fill-rule="nonzero" node-id="110" stroke="none" target-height="24.799988" target-width="28.400024" target-x="584.5" target-y="517.3"></path><path d="M 648.10 759.10 L 651.50 757.00 L 652.60 774.90 L 652.40 786.80 L 651.80 792.80 L 650.90 796.50 L 649.40 800.00 L 647.50 803.20 L 645.20 806.00 L 642.50 808.60 L 639.50 810.90 L 632.80 814.40 L 622.50 818.30 L 628.50 806.90 L 631.10 800.90 L 633.30 794.80 L 635.10 788.50 L 636.40 782.20 L 637.30 775.80 L 637.60 769.30 L 637.30 762.80 L 642.50 761.10 L 642.60 767.00 L 642.30 772.80 L 641.40 778.60 L 639.60 787.10 L 632.70 812.80 L 636.40 810.50 L 639.40 807.80 L 641.90 805.00 L 644.10 801.80 L 645.80 798.40 L 648.00 790.90 L 649.10 783.00 L 649.10 770.80 L 648.10 759.10 Z" fill="#0f2a75" fill-rule="nonzero" node-id="112" stroke="none" target-height="61.299988" target-width="30.099976" target-x="622.5" target-y="757"></path><path d="M 443.60 791.60 L 450.90 793.60 L 447.90 800.10 L 446.70 803.50 L 445.90 806.90 L 445.80 811.50 L 446.20 814.00 L 448.90 816.30 L 451.70 818.30 L 458.00 821.50 L 464.50 824.10 L 458.10 822.80 L 451.70 821.90 L 438.70 821.00 L 425.60 820.60 L 441.90 817.40 L 443.60 791.60 Z" fill="#0f2a75" fill-rule="nonzero" node-id="114" stroke="none" target-height="32.5" target-width="38.899994" target-x="425.6" target-y="791.6"></path><path d="M 371.60 544.70 L 379.10 546.20 L 349.00 578.50 L 339.30 589.60 L 333.20 597.20 L 327.40 605.10 L 321.90 613.30 L 311.00 632.10 L 306.00 641.80 L 301.50 651.70 L 297.50 661.90 L 294.20 672.20 L 292.10 680.00 L 290.40 687.90 L 289.20 696.00 L 288.50 704.20 L 288.50 708.90 L 289.50 718.80 L 290.60 723.60 L 291.70 726.70 L 294.70 732.30 L 296.70 734.70 L 299.10 736.90 L 301.90 738.70 L 305.60 739.80 L 313.10 740.50 L 324.50 740.50 L 324.20 755.00 L 325.10 762.30 L 326.00 764.40 L 327.10 766.20 L 328.70 767.70 L 330.50 768.80 L 332.40 769.60 L 336.70 770.30 L 340.90 769.40 L 342.80 768.40 L 344.40 767.00 L 348.60 760.70 L 350.90 756.00 L 352.70 751.10 L 354.80 741.00 L 355.40 735.80 L 355.60 727.80 L 355.50 719.80 L 354.70 704.20 L 344.20 710.10 L 338.80 712.70 L 333.10 714.80 L 329.30 715.70 L 325.30 716.20 L 321.10 716.10 L 331.10 709.20 L 344.50 702.00 L 352.70 698.10 L 354.80 701.40 L 356.30 704.80 L 357.30 708.30 L 358.10 713.70 L 358.00 736.30 L 358.60 741.80 L 359.40 745.30 L 360.70 748.70 L 362.60 752.10 L 351.20 766.60 L 348.00 769.90 L 344.60 773.00 L 342.00 774.30 L 339.30 775.00 L 336.50 775.30 L 330.90 774.50 L 325.40 772.30 L 320.80 769.20 L 318.40 766.30 L 317.00 762.10 L 316.70 759.30 L 316.70 748.00 L 302.80 745.10 L 298.50 743.40 L 295.80 742.00 L 293.40 740.00 L 291.10 737.60 L 288.40 733.60 L 286.30 729.60 L 284.60 725.30 L 282.60 716.30 L 282.10 711.70 L 282.00 704.70 L 282.50 697.60 L 284.50 683.80 L 286.60 675.00 L 289.20 666.30 L 292.20 657.80 L 295.50 649.30 L 300.50 638.20 L 306.00 627.40 L 312.20 616.90 L 318.80 606.60 L 325.80 596.70 L 333.30 587.10 L 339.40 579.90 L 365.30 552.00 L 371.60 544.70 Z" fill="#b9b7b8" fill-rule="nonzero" node-id="116" stroke="none" target-height="230.59998" target-width="97.100006" target-x="282" target-y="544.7"></path><path d="M 582.40 545.00 L 598.60 545.30 L 603.90 545.80 L 610.80 547.40 L 614.10 548.80 L 616.10 553.50 L 616.80 558.50 L 616.20 563.60 L 615.10 567.20 L 613.50 570.60 L 608.20 572.00 L 602.80 572.90 L 603.90 582.10 L 603.60 583.70 L 602.90 585.20 L 592.10 595.30 L 587.80 600.20 L 583.90 605.40 L 574.00 593.50 L 574.30 610.40 L 570.40 611.60 L 566.60 612.30 L 562.80 612.50 L 559.10 612.30 L 555.50 611.60 L 552.00 610.40 L 548.60 608.80 L 545.30 606.60 L 547.60 616.20 L 551.50 616.90 L 555.40 617.20 L 559.20 617.10 L 566.80 615.70 L 576.10 612.40 L 592.00 604.60 L 601.70 625.50 L 603.80 630.80 L 605.40 636.20 L 604.00 640.00 L 602.20 643.40 L 600.00 646.50 L 596.10 650.90 L 591.80 654.90 L 582.70 662.40 L 588.30 672.90 L 594.40 683.20 L 597.90 688.00 L 602.90 693.60 L 604.90 694.60 L 606.50 694.70 L 608.30 694.20 L 615.20 691.10 L 621.20 687.50 L 624.20 685.30 L 628.30 680.90 L 630.40 676.90 L 630.90 674.80 L 630.90 672.50 L 630.30 669.90 L 627.10 665.10 L 616.50 651.00 L 613.20 646.10 L 610.30 640.90 L 626.60 641.60 L 632.10 641.20 L 633.90 640.30 L 637.00 638.00 L 639.00 635.80 L 644.00 628.40 L 647.20 652.40 L 649.80 676.30 L 654.50 729.30 L 653.70 739.40 L 650.70 754.40 L 640.40 759.40 L 630.00 763.80 L 619.40 767.70 L 608.70 771.00 L 597.80 773.90 L 586.80 776.30 L 575.70 778.30 L 564.50 779.80 L 549.40 781.20 L 534.40 782.10 L 519.20 782.40 L 504.10 782.20 L 489.00 781.60 L 474.10 780.60 L 457.10 778.20 L 440.30 775.20 L 423.50 771.70 L 411.10 768.70 L 398.80 765.20 L 386.60 761.40 L 374.50 757.00 L 369.10 751.90 L 366.60 749.10 L 364.50 746.10 L 363.50 743.90 L 362.80 741.60 L 362.60 739.00 L 362.10 723.60 L 362.00 708.10 L 362.30 692.60 L 363.10 677.10 L 364.60 661.70 L 366.70 646.40 L 368.70 635.00 L 371.10 623.70 L 374.00 612.50 L 377.40 601.40 L 388.70 612.10 L 387.30 630.40 L 387.60 636.50 L 399.60 649.70 L 405.30 656.50 L 381.80 676.90 L 391.30 686.10 L 408.80 705.90 L 411.00 706.10 L 413.00 705.80 L 414.90 705.20 L 417.50 703.60 L 420.00 701.40 L 429.10 691.70 L 425.90 676.30 L 434.60 678.50 L 439.10 679.30 L 443.60 679.50 L 450.20 676.00 L 456.40 671.90 L 450.80 653.50 L 449.70 648.80 L 449.10 644.10 L 451.20 639.40 L 453.60 634.80 L 459.00 626.10 L 451.70 621.00 L 421.40 603.20 L 414.30 598.20 L 410.60 595.00 L 407.30 591.40 L 397.90 580.00 L 394.60 576.60 L 389.40 572.90 L 386.40 571.50 L 390.30 561.80 L 393.70 555.70 L 395.70 552.90 L 398.00 550.40 L 400.70 548.30 L 403.80 546.50 L 402.20 560.90 L 400.00 575.20 L 412.70 588.80 L 422.00 597.20 L 427.00 601.00 L 432.10 604.50 L 437.50 607.50 L 443.10 610.00 L 447.40 611.60 L 456.50 613.70 L 470.00 615.20 L 478.50 616.70 L 495.30 620.50 L 489.60 623.70 L 486.70 624.70 L 482.10 625.80 L 477.30 626.40 L 467.70 626.90 L 468.70 636.20 L 469.50 639.10 L 471.40 642.60 L 472.90 644.10 L 476.30 645.70 L 491.00 649.90 L 494.40 651.60 L 498.90 654.90 L 503.00 658.60 L 506.70 662.60 L 510.20 666.90 L 516.20 676.00 L 511.70 678.90 L 507.50 682.10 L 503.60 685.60 L 500.00 689.40 L 496.70 693.50 L 493.80 697.90 L 491.30 702.60 L 489.20 707.70 L 501.10 726.40 L 513.90 744.50 L 503.00 748.10 L 496.20 751.40 L 493.20 753.60 L 491.50 755.30 L 488.60 759.60 L 492.20 761.10 L 495.60 762.80 L 498.60 764.90 L 501.40 767.30 L 504.80 771.00 L 507.70 775.00 L 510.10 779.40 L 516.80 779.70 L 523.50 779.60 L 526.70 779.10 L 529.90 777.90 L 536.00 772.40 L 546.70 759.60 L 559.50 763.20 L 562.70 763.80 L 567.90 763.90 L 572.00 762.60 L 574.60 758.60 L 576.50 752.90 L 578.30 745.60 L 579.50 742.20 L 580.70 740.20 L 582.20 738.30 L 594.90 728.30 L 600.00 723.90 L 604.80 719.30 L 598.50 713.40 L 591.90 708.10 L 585.00 703.20 L 577.80 698.70 L 563.30 711.70 L 549.60 704.50 L 554.60 721.60 L 548.00 728.40 L 543.90 731.60 L 540.00 733.20 L 537.40 732.60 L 535.10 731.40 L 532.90 729.90 L 526.70 724.80 L 535.20 701.20 L 539.00 689.30 L 542.40 677.20 L 527.00 676.30 L 525.10 672.80 L 523.90 669.40 L 523.20 666.00 L 523.00 662.40 L 523.20 658.90 L 524.80 651.90 L 527.70 645.30 L 530.60 640.60 L 533.90 636.20 L 545.50 659.70 L 569.10 652.20 L 565.00 637.50 L 563.60 634.00 L 561.80 630.70 L 558.70 628.20 L 551.90 624.30 L 541.20 620.00 L 521.70 613.30 L 523.10 603.10 L 524.20 599.80 L 525.20 597.80 L 526.60 596.00 L 528.40 594.40 L 533.00 591.70 L 542.60 587.10 L 550.40 582.80 L 556.00 578.40 L 558.30 573.70 L 561.50 563.60 L 565.80 561.10 L 573.40 555.50 L 576.70 552.40 L 579.80 548.90 L 582.40 545.00 Z M 444.80 698.70 L 439.80 703.90 L 446.80 717.20 L 438.90 722.30 L 435.30 725.20 L 430.10 730.70 L 427.10 736.10 L 412.50 739.50 L 407.90 741.20 L 405.00 742.70 L 402.30 744.60 L 399.80 746.90 L 409.90 753.90 L 415.20 757.00 L 420.80 759.60 L 424.60 760.90 L 428.70 761.70 L 432.90 762.00 L 439.40 761.90 L 446.30 761.30 L 450.80 760.50 L 459.60 758.00 L 463.70 756.20 L 467.50 754.00 L 470.90 751.40 L 473.20 749.10 L 475.20 746.50 L 477.00 743.50 L 478.50 740.20 L 472.70 734.00 L 471.60 732.20 L 470.90 730.30 L 488.60 716.10 L 477.20 712.50 L 466.00 708.60 L 458.80 705.60 L 451.70 702.30 L 444.80 698.70 Z" fill="#b85ca3" fill-rule="nonzero" node-id="118" stroke="none" target-height="237.40002" target-width="292.5" target-x="362" target-y="545"></path><path d="M 378.80 546.20 L 391.30 548.80 L 386.20 559.80 L 381.50 571.00 L 377.20 582.40 L 373.50 593.90 L 370.20 605.60 L 367.30 617.30 L 364.80 629.20 L 362.70 641.20 L 360.40 657.20 L 357.30 691.00 L 355.80 694.00 L 352.70 698.10 L 344.50 702.00 L 331.10 709.20 L 321.10 716.10 L 325.20 716.20 L 329.20 715.70 L 333.00 714.80 L 338.60 712.70 L 344.10 710.10 L 354.70 704.20 L 355.60 727.70 L 355.40 735.60 L 354.80 740.90 L 352.70 751.00 L 350.90 755.90 L 348.60 760.60 L 344.40 767.00 L 342.70 768.40 L 340.80 769.40 L 336.60 770.30 L 332.30 769.60 L 330.30 768.80 L 328.50 767.70 L 327.00 766.20 L 325.90 764.40 L 325.10 762.30 L 324.50 758.70 L 324.20 755.10 L 324.50 740.50 L 313.10 740.60 L 305.60 739.80 L 301.90 738.70 L 299.10 736.90 L 296.70 734.70 L 294.70 732.30 L 291.70 726.70 L 290.60 723.60 L 289.50 718.80 L 288.80 713.90 L 288.50 704.20 L 289.20 696.00 L 290.40 687.90 L 292.10 680.00 L 294.20 672.10 L 297.50 661.80 L 301.50 651.60 L 306.00 641.70 L 311.00 631.90 L 321.90 613.30 L 327.30 605.00 L 333.00 597.10 L 339.10 589.50 L 348.70 578.40 L 378.80 546.20 Z" fill="#f8f5f2" fill-rule="nonzero" node-id="120" stroke="none" target-height="224.09998" target-width="102.79999" target-x="288.5" target-y="546.2"></path><path d="M 410.80 548.80 L 418.80 548.70 L 426.70 549.20 L 450.50 551.80 L 458.40 552.30 L 462.10 562.80 L 464.30 567.90 L 466.90 572.70 L 468.90 575.70 L 471.20 578.50 L 488.50 595.40 L 490.60 598.10 L 492.30 600.90 L 493.70 603.80 L 494.50 606.90 L 494.80 610.30 L 494.40 614.10 L 487.80 614.10 L 481.10 613.70 L 474.40 612.70 L 471.50 599.60 L 463.50 606.70 L 459.00 609.30 L 455.60 609.90 L 451.00 609.50 L 448.10 608.60 L 446.40 607.70 L 443.60 605.20 L 442.80 603.60 L 442.40 601.80 L 442.40 599.60 L 447.10 593.20 L 452.30 587.10 L 437.80 595.00 L 430.30 597.90 L 427.40 597.20 L 424.90 596.00 L 422.70 594.40 L 419.10 590.30 L 417.80 587.80 L 416.30 583.80 L 415.40 579.90 L 432.30 570.30 L 417.40 574.70 L 413.40 574.60 L 411.60 574.00 L 409.90 572.90 L 408.20 571.20 L 406.20 567.70 L 405.80 565.90 L 405.70 563.10 L 406.10 560.10 L 407.00 557.10 L 410.80 548.80 Z" fill="#b7509e" fill-rule="nonzero" node-id="122" stroke="none" target-height="65.39996" target-width="89.099976" target-x="405.7" target-y="548.7"></path><path d="M 476.40 551.40 L 486.40 552.70 L 496.50 553.40 L 506.50 553.50 L 516.60 553.20 L 526.70 552.50 L 536.70 551.40 L 546.70 550.00 L 566.50 546.20 L 569.40 552.30 L 564.50 556.40 L 560.10 561.00 L 555.00 567.60 L 551.10 573.80 L 549.20 576.10 L 547.00 578.10 L 543.40 580.60 L 539.40 582.80 L 527.20 588.80 L 513.10 598.70 L 509.40 600.80 L 505.50 602.40 L 501.40 603.40 L 497.50 598.30 L 493.00 593.40 L 479.10 579.10 L 475.00 574.00 L 470.40 566.80 L 468.60 563.00 L 467.30 559.00 L 466.50 554.70 L 466.30 550.00 L 476.40 551.40 Z" fill="#dac1cc" fill-rule="nonzero" node-id="124" stroke="none" target-height="57.200012" target-width="103.10004" target-x="466.3" target-y="546.2"></path><path d="M 622.50 547.40 L 628.60 546.50 L 631.50 559.80 L 630.50 565.70 L 630.50 568.50 L 631.00 572.80 L 635.50 589.70 L 638.40 602.50 L 643.40 628.40 L 638.30 635.90 L 636.40 638.10 L 633.30 640.40 L 631.50 641.20 L 624.20 641.80 L 609.70 640.90 L 612.60 646.10 L 615.80 651.00 L 629.80 669.90 L 630.40 672.50 L 630.40 674.80 L 630.00 676.90 L 628.00 680.90 L 623.80 685.30 L 617.70 689.50 L 614.70 691.10 L 607.70 694.10 L 605.90 694.50 L 604.30 694.50 L 602.30 693.60 L 597.50 688.00 L 593.90 683.30 L 590.70 678.20 L 582.10 662.40 L 591.20 654.90 L 595.50 650.90 L 599.40 646.50 L 601.70 643.40 L 603.40 640.00 L 604.80 636.20 L 603.20 630.70 L 601.10 625.30 L 591.40 604.60 L 596.20 601.40 L 600.50 597.80 L 604.30 593.80 L 607.70 589.40 L 610.70 584.70 L 613.30 579.80 L 617.50 569.30 L 619.10 563.80 L 621.10 555.60 L 622.50 547.40 Z" fill="#c070ab" fill-rule="nonzero" node-id="126" stroke="none" target-height="148" target-width="61.30005" target-x="582.1" target-y="546.5"></path><path d="M 629.80 552.00 L 632.40 547.60 L 637.60 549.70 L 643.40 554.50 L 654.20 564.70 L 661.90 572.80 L 684.10 598.20 L 691.20 607.00 L 697.90 616.10 L 704.10 625.70 L 712.50 640.50 L 719.50 656.10 L 722.50 664.10 L 725.10 672.20 L 727.30 680.40 L 730.20 694.30 L 730.90 699.80 L 731.20 705.40 L 730.90 711.00 L 730.20 716.60 L 729.00 722.00 L 727.20 727.30 L 724.90 732.40 L 722.10 737.30 L 720.20 739.70 L 718.10 741.40 L 715.70 742.70 L 710.60 744.10 L 703.40 744.30 L 690.50 743.40 L 694.00 750.50 L 695.40 754.50 L 696.30 758.60 L 696.60 761.30 L 695.90 766.40 L 695.00 768.70 L 693.50 770.80 L 691.30 772.70 L 682.70 773.70 L 679.70 773.60 L 676.90 773.00 L 674.20 771.80 L 671.10 769.00 L 668.40 765.90 L 666.00 762.50 L 663.90 758.90 L 662.20 755.10 L 660.90 751.20 L 660.10 747.10 L 659.60 743.00 L 658.90 721.30 L 658.80 703.90 L 680.30 712.40 L 691.60 715.50 L 686.40 711.80 L 680.90 708.50 L 658.20 696.60 L 651.40 644.80 L 648.70 627.60 L 645.50 610.40 L 641.70 593.40 L 638.80 582.10 L 631.80 559.80 L 629.80 552.00 Z" fill="#f9f6f4" fill-rule="nonzero" node-id="128" stroke="none" target-height="226.10004" target-width="101.400024" target-x="629.8" target-y="547.6"></path><path d="M 632.40 577.00 L 631.30 572.70 L 630.80 568.40 L 630.80 565.50 L 631.80 559.80 L 638.80 582.00 L 641.70 593.20 L 645.50 610.20 L 648.70 627.40 L 651.40 644.60 L 658.20 696.60 L 681.00 708.50 L 686.40 711.80 L 691.60 715.50 L 683.20 713.20 L 658.80 703.90 L 658.80 721.30 L 659.70 738.70 L 659.40 744.30 L 658.00 749.80 L 656.80 752.20 L 655.00 754.40 L 651.50 757.30 L 649.50 758.50 L 653.00 739.40 L 653.90 729.30 L 651.70 700.20 L 649.40 676.20 L 646.60 652.20 L 643.40 628.40 L 638.60 602.30 L 635.60 589.50 L 632.40 577.00 Z" fill="#885f7d" fill-rule="nonzero" node-id="130" stroke="none" target-height="198.70001" target-width="60.799988" target-x="630.8" target-y="559.8"></path><path d="M 385.80 570.90 L 388.80 572.30 L 394.00 576.00 L 397.40 579.30 L 410.10 594.30 L 413.70 597.60 L 420.90 602.80 L 428.30 607.40 L 451.10 620.50 L 458.40 625.50 L 453.10 634.30 L 450.60 638.80 L 448.50 643.50 L 449.20 648.20 L 450.30 652.90 L 455.80 671.40 L 449.60 675.40 L 443.00 678.90 L 438.50 678.70 L 434.10 678.00 L 425.30 675.70 L 428.50 691.10 L 419.30 700.70 L 416.80 702.90 L 414.20 704.50 L 412.30 705.20 L 410.30 705.50 L 408.20 705.30 L 390.80 685.50 L 381.20 676.30 L 393.20 666.30 L 404.70 656.00 L 399.10 649.10 L 387.00 635.90 L 386.70 629.80 L 388.10 611.50 L 376.80 600.80 L 381.00 585.80 L 385.80 570.90 Z" fill="#c275af" fill-rule="nonzero" node-id="132" stroke="none" target-height="134.59998" target-width="81.600006" target-x="376.8" target-y="570.9"></path><path d="M 501.10 603.70 L 505.30 602.50 L 509.20 600.90 L 512.90 598.90 L 523.20 591.50 L 518.70 602.20 L 515.10 613.30 L 523.00 618.60 L 527.20 621.10 L 531.60 623.20 L 536.40 621.50 L 541.20 619.40 L 552.20 623.80 L 558.90 627.60 L 561.80 630.10 L 563.60 633.40 L 566.20 640.50 L 569.10 651.60 L 545.50 659.20 L 533.90 635.60 L 530.70 640.00 L 527.90 644.70 L 524.90 651.40 L 523.30 658.30 L 523.00 661.80 L 523.20 665.40 L 523.90 668.80 L 525.10 672.30 L 527.00 675.70 L 542.40 676.60 L 539.00 688.70 L 535.20 700.60 L 526.70 724.20 L 532.80 729.30 L 535.00 730.80 L 537.40 732.00 L 540.00 732.60 L 543.90 731.10 L 547.90 727.80 L 554.60 721.00 L 549.60 703.90 L 563.30 711.10 L 577.80 698.10 L 585.00 702.50 L 591.90 707.40 L 598.50 712.80 L 604.80 718.70 L 594.70 727.70 L 582.20 737.70 L 580.70 739.60 L 579.50 741.60 L 578.30 744.90 L 576.50 752.10 L 574.60 757.90 L 572.00 762.00 L 567.80 763.30 L 562.60 763.20 L 559.30 762.60 L 546.70 759.10 L 536.00 771.90 L 529.90 777.40 L 526.70 778.50 L 523.50 779.00 L 520.10 779.20 L 510.10 778.80 L 507.60 774.40 L 504.70 770.40 L 501.30 766.80 L 498.60 764.30 L 495.50 762.30 L 492.20 760.50 L 488.60 759.10 L 491.50 754.70 L 493.20 753.00 L 496.20 750.80 L 503.00 747.50 L 513.90 744.00 L 501.10 725.80 L 489.20 707.10 L 491.40 702.10 L 493.90 697.50 L 496.80 693.10 L 500.10 689.00 L 503.70 685.10 L 507.60 681.60 L 511.70 678.30 L 516.20 675.40 L 511.70 668.60 L 506.60 662.00 L 502.90 658.00 L 498.90 654.30 L 494.40 651.00 L 491.00 649.30 L 476.40 645.20 L 472.90 643.50 L 471.40 642.00 L 469.40 638.50 L 468.60 635.60 L 467.70 626.30 L 477.30 625.90 L 482.10 625.20 L 486.70 624.10 L 489.60 623.10 L 495.30 620.00 L 497.50 618.00 L 499.10 615.60 L 500.30 612.90 L 501.00 610.00 L 501.20 606.90 L 501.10 603.70 Z" fill="#bf76ad" fill-rule="nonzero" node-id="134" stroke="none" target-height="187.70001" target-width="137.09998" target-x="467.7" target-y="591.5"></path><path d="M 444.80 698.70 L 458.80 705.50 L 466.10 708.40 L 477.20 712.30 L 488.30 715.80 L 484.10 719.60 L 470.60 730.00 L 471.40 731.90 L 472.60 733.70 L 478.20 739.90 L 476.70 743.20 L 474.90 746.20 L 472.90 748.80 L 470.60 751.10 L 467.20 753.70 L 463.40 756.00 L 459.30 757.80 L 455.00 759.20 L 446.00 761.00 L 439.10 761.60 L 432.60 761.70 L 428.40 761.40 L 424.40 760.60 L 420.50 759.30 L 414.90 756.70 L 409.60 753.60 L 399.50 746.60 L 402.00 744.30 L 404.80 742.40 L 407.60 741.00 L 412.20 739.20 L 426.80 735.80 L 430.00 730.40 L 435.10 724.90 L 438.70 722.00 L 446.50 717.00 L 439.50 703.60 L 444.80 698.70 Z" fill="#be77ab" fill-rule="nonzero" node-id="136" stroke="none" target-height="63" target-width="88.79999" target-x="399.5" target-y="698.7"></path><path d="M 642.50 761.10 L 648.10 759.10 L 649.20 770.80 L 649.40 776.90 L 649.30 783.00 L 648.10 790.90 L 645.80 798.30 L 644.10 801.70 L 642.00 804.80 L 639.40 807.70 L 636.40 810.20 L 632.70 812.50 L 639.40 787.00 L 641.20 778.50 L 642.10 772.80 L 642.50 767.00 L 642.50 761.10 Z" fill="#5aa1d0" fill-rule="nonzero" node-id="138" stroke="none" target-height="53.400024" target-width="16.700012" target-x="632.7" target-y="759.1"></path><path d="M 370.70 759.40 L 378.30 760.70 L 385.80 762.50 L 385.20 769.20 L 384.90 782.60 L 385.30 789.20 L 386.10 795.90 L 387.70 804.50 L 389.30 807.60 L 391.10 809.60 L 397.40 815.10 L 389.90 814.00 L 383.00 811.10 L 379.70 809.20 L 376.70 806.90 L 371.40 801.60 L 369.20 798.50 L 367.50 795.20 L 366.10 791.60 L 366.30 783.30 L 367.00 775.10 L 367.80 769.80 L 369.10 764.50 L 370.70 759.40 Z" fill="#528ec3" fill-rule="nonzero" node-id="140" stroke="none" target-height="55.69995" target-width="31.299988" target-x="366.1" target-y="759.4"></path><path d="M 387.30 802.30 L 386.10 795.80 L 385.30 789.10 L 384.90 782.40 L 384.90 775.70 L 385.80 762.30 L 401.10 767.00 L 416.50 771.10 L 432.10 774.70 L 447.90 777.70 L 463.70 780.20 L 479.70 782.00 L 495.60 783.20 L 511.60 783.80 L 524.50 783.80 L 537.30 783.30 L 550.00 782.40 L 562.70 781.00 L 575.30 779.20 L 587.90 776.90 L 600.30 774.10 L 612.70 770.90 L 624.90 767.10 L 637.00 762.80 L 637.30 769.30 L 637.00 775.80 L 636.20 782.20 L 634.80 788.50 L 633.00 794.80 L 630.80 800.90 L 628.30 806.90 L 622.20 818.30 L 606.50 812.20 L 607.20 805.20 L 607.40 798.30 L 607.20 791.30 L 606.50 784.30 L 604.00 786.40 L 601.90 788.70 L 600.40 791.30 L 598.20 797.00 L 597.10 804.80 L 597.00 809.70 L 597.50 818.90 L 590.10 824.80 L 588.00 826.00 L 585.90 826.70 L 583.00 826.70 L 576.60 825.10 L 572.30 823.50 L 579.50 818.00 L 577.10 804.10 L 574.30 790.40 L 562.50 807.40 L 555.70 815.10 L 551.50 818.20 L 547.00 820.80 L 542.30 822.90 L 537.30 824.60 L 532.30 825.70 L 527.20 826.40 L 522.00 826.70 L 516.90 826.40 L 511.80 825.70 L 506.80 824.40 L 502.00 822.70 L 497.30 820.50 L 493.00 817.90 L 488.90 814.70 L 485.10 811.00 L 473.90 794.90 L 468.00 787.20 L 467.90 791.70 L 468.60 800.40 L 471.20 813.30 L 474.70 825.90 L 464.20 823.80 L 457.70 821.30 L 451.30 818.20 L 448.50 816.20 L 445.90 813.70 L 445.50 811.20 L 445.70 806.60 L 446.50 803.20 L 450.60 793.30 L 443.30 791.30 L 441.60 816.90 L 425.30 820.10 L 423.00 819.80 L 418.30 814.20 L 414.10 808.30 L 412.50 805.10 L 411.40 801.80 L 410.70 795.20 L 409.60 775.60 L 408.60 781.30 L 408.10 787.10 L 408.10 792.90 L 409.30 810.20 L 397.70 814.20 L 391.20 809.30 L 389.30 807.30 L 387.70 804.20 L 387.30 802.30 Z M 531.60 805.80 L 534.00 805.10 L 538.00 802.80 L 541.10 799.60 L 543.10 795.50 L 543.80 790.70 L 541.50 790.50 L 539.70 790.70 L 536.90 792.20 L 534.90 795.00 L 533.80 797.50 L 531.60 805.80 Z" fill="#5ea4cb" fill-rule="nonzero" node-id="142" stroke="none" target-height="64.400024" target-width="252.4" target-x="384.9" target-y="762.3"></path><path d="M 597.50 818.90 L 597.00 809.70 L 597.10 804.80 L 598.20 797.00 L 600.30 791.30 L 601.90 788.70 L 604.00 786.40 L 606.50 784.30 L 607.20 791.30 L 607.40 798.30 L 607.20 805.20 L 606.50 812.20 L 597.50 818.90 Z" fill="#365e93" fill-rule="nonzero" node-id="144" stroke="none" target-height="34.600037" target-width="10.400024" target-x="597" target-y="784.3"></path><path d="M 468.00 787.20 L 473.90 795.10 L 482.20 807.20 L 485.10 811.00 L 488.90 814.70 L 493.00 817.90 L 497.30 820.50 L 502.00 822.70 L 506.80 824.40 L 511.80 825.60 L 516.90 826.30 L 522.00 826.50 L 527.20 826.30 L 532.30 825.60 L 537.30 824.40 L 542.30 822.80 L 547.00 820.70 L 551.50 818.10 L 555.70 815.10 L 559.30 811.50 L 565.50 803.30 L 574.30 790.40 L 577.10 804.10 L 579.50 818.00 L 572.30 823.50 L 566.40 822.30 L 563.60 822.20 L 559.20 822.70 L 537.70 828.80 L 522.30 829.10 L 506.90 828.80 L 491.50 827.90 L 474.70 825.90 L 471.00 813.30 L 469.50 806.90 L 467.90 796.10 L 468.00 787.20 Z" fill="#355c92" fill-rule="nonzero" node-id="146" stroke="none" target-height="41.899963" target-width="111.600006" target-x="467.9" target-y="787.2"></path><path d="M 531.60 805.80 L 533.80 797.80 L 534.90 795.20 L 536.90 792.40 L 539.70 790.80 L 541.50 790.50 L 543.80 790.70 L 543.60 793.50 L 542.90 796.00 L 541.90 798.30 L 540.40 800.30 L 536.60 803.60 L 531.60 805.80 Z" fill="#3f709c" fill-rule="nonzero" node-id="148" stroke="none" target-height="15.299988" target-width="12.200012" target-x="531.6" target-y="790.5"></path><path d="M 389.90 813.70 L 397.40 814.80 L 399.30 835.70 L 399.60 842.70 L 399.20 856.60 L 398.50 861.60 L 397.40 866.40 L 395.90 871.10 L 393.20 877.90 L 383.80 898.20 L 380.40 907.40 L 379.10 912.10 L 378.30 916.80 L 378.00 921.80 L 378.30 926.90 L 379.10 930.00 L 380.50 932.60 L 382.20 934.80 L 384.30 936.70 L 389.30 939.80 L 393.60 941.50 L 398.10 942.80 L 406.70 944.60 L 418.00 945.60 L 429.50 945.90 L 437.10 945.70 L 444.70 945.00 L 452.10 943.80 L 463.10 940.90 L 468.30 938.90 L 476.10 935.00 L 478.20 933.20 L 481.40 929.00 L 483.50 923.90 L 484.50 919.90 L 486.00 907.50 L 491.10 854.70 L 491.80 837.10 L 491.50 828.20 L 506.90 829.10 L 522.30 829.30 L 537.70 829.10 L 528.40 832.20 L 530.10 868.40 L 530.40 904.60 L 531.40 918.30 L 532.20 922.80 L 534.30 928.40 L 535.80 930.90 L 537.70 933.10 L 540.00 934.90 L 548.10 938.70 L 558.70 941.90 L 571.50 944.00 L 579.00 944.60 L 586.50 944.80 L 597.70 944.50 L 608.90 943.80 L 621.30 941.20 L 625.40 939.80 L 630.30 937.20 L 634.40 933.60 L 636.00 931.30 L 637.30 928.70 L 637.80 924.70 L 637.90 920.80 L 637.50 916.90 L 636.30 911.30 L 634.50 905.60 L 625.40 883.70 L 623.50 878.40 L 622.10 873.20 L 620.40 862.40 L 619.90 851.50 L 620.70 834.90 L 622.20 818.60 L 628.90 816.00 L 626.50 833.80 L 625.80 842.70 L 625.90 857.60 L 627.20 869.40 L 628.50 875.30 L 630.50 881.00 L 640.00 903.40 L 641.80 909.10 L 643.20 915.00 L 643.70 918.90 L 643.80 923.00 L 643.40 927.20 L 642.60 930.40 L 641.40 933.30 L 639.80 935.80 L 637.80 938.10 L 632.90 941.90 L 628.70 944.10 L 624.30 945.90 L 615.20 948.10 L 603.90 949.50 L 592.30 950.20 L 576.90 950.00 L 569.30 949.30 L 561.60 948.10 L 554.10 946.50 L 546.70 944.40 L 543.50 943.20 L 540.40 941.70 L 537.50 939.80 L 534.80 937.60 L 532.60 935.10 L 530.70 932.30 L 529.20 929.30 L 528.20 926.10 L 527.80 922.60 L 525.50 891.60 L 522.90 832.20 L 513.20 832.60 L 505.50 832.20 L 503.20 832.80 L 500.00 834.40 L 498.90 835.60 L 498.20 837.20 L 496.10 853.30 L 490.80 909.80 L 488.30 926.90 L 487.30 929.80 L 485.90 932.40 L 482.10 937.00 L 479.80 938.90 L 476.10 941.50 L 471.90 943.70 L 463.40 947.00 L 455.50 949.00 L 447.60 950.50 L 439.60 951.50 L 431.50 951.90 L 423.30 951.90 L 415.20 951.50 L 407.20 950.60 L 399.20 949.30 L 390.20 946.70 L 385.80 944.80 L 381.70 942.40 L 379.20 940.60 L 375.00 936.20 L 373.40 933.60 L 372.30 930.70 L 371.60 927.50 L 371.30 923.10 L 371.40 918.80 L 372.90 910.50 L 375.70 902.40 L 378.20 896.50 L 386.70 879.30 L 388.90 874.00 L 390.60 868.60 L 393.00 857.70 L 393.80 850.30 L 394.00 842.90 L 393.60 835.50 L 392.80 828.10 L 391.50 820.80 L 389.90 813.70 Z" fill="#b3b2b3" fill-rule="nonzero" node-id="150" stroke="none" target-height="138.20001" target-width="272.5" target-x="371.3" target-y="813.7"></path></svg>