<?xml version="1.0" standalone="no"?><!DOCTYPE svg PUBLIC "-//W3C//DTD SVG 1.1//EN" "http://www.w3.org/Graphics/SVG/1.1/DTD/svg11.dtd"><svg t="1744680687831" class="icon" viewBox="0 0 1024 1024" version="1.1" xmlns="http://www.w3.org/2000/svg" p-id="61692" xmlns:xlink="http://www.w3.org/1999/xlink" width="256" height="256"><path d="M511.9488 515.9424m-450.816 0a450.816 450.816 0 1 0 901.632 0 450.816 450.816 0 1 0-901.632 0Z" fill="#FFE3DB" p-id="61693"></path><path d="M773.5296 392.7552l-59.136 37.4272v-94.72c0-33.0752-26.7776-59.8528-59.8528-59.8528h-375.808c-33.0752 0-59.8528 26.7776-59.8528 59.8528v371.1488c0 33.0752 26.7776 59.8528 59.8528 59.8528h375.808c33.0752 0 59.8528-26.7776 59.8528-59.8528v-97.2288l58.2656 39.3728c22.4768 15.2064 52.8384-0.9216 52.8384-28.0576V421.376c0-26.6752-29.3888-42.8544-51.968-28.6208z m-202.496 156.8256l-136.192 86.1696c-20.1728 12.7488-46.4384-1.7408-46.4384-25.6v-178.176c0-24.2688 27.0848-38.656 47.2064-25.088l136.192 92.0064c18.0736 12.2368 17.664 39.0144-0.768 50.688z m49.2544-157.0816c-17.3568 0-31.4368-14.08-31.4368-31.4368 0-17.3568 14.08-31.4368 31.4368-31.4368s31.4368 14.08 31.4368 31.4368c0 17.3568-14.08 31.4368-31.4368 31.4368z" fill="#F23D4F" p-id="61694"></path><path d="M714.4448 430.1824v-94.72c0-33.0752-26.7776-59.8528-59.8528-59.8528h-375.808c-33.0752 0-59.8528 26.7776-59.8528 59.8528v371.1488c0 33.0752 26.7776 59.8528 59.8528 59.8528h222.9248c119.1936-70.8608 202.9056-195.1232 218.1632-339.7632l-5.4272 3.4816z m-143.4112 119.3984l-136.192 86.1696c-20.1728 12.7488-46.4384-1.7408-46.4384-25.6v-178.176c0-24.2688 27.0848-38.656 47.2064-25.088l136.192 92.0064c18.0736 12.2368 17.664 39.0144-0.768 50.688z m49.2544-157.0816c-17.3568 0-31.4368-14.08-31.4368-31.4368s14.08-31.4368 31.4368-31.4368 31.4368 14.08 31.4368 31.4368-14.08 31.4368-31.4368 31.4368z" fill="#FC4956" p-id="61695"></path><path d="M218.88 335.4624v339.5072c61.44-8.96 118.8864-30.2592 169.6768-61.3888-0.1024-1.1264-0.256-2.2528-0.256-3.4304v-178.176c0-24.2688 27.0848-38.656 47.2064-25.088l97.2288 65.6896a448.26112 448.26112 0 0 0 69.0688-196.9152h-323.072c-33.024-0.0512-59.8528 26.7776-59.8528 59.8016z" fill="#FF5C64" p-id="61696"></path><path d="M218.88 335.4624v147.8144c95.8464-41.472 174.4896-115.2512 222.1056-207.6672H278.7328c-33.024 0-59.8528 26.8288-59.8528 59.8528z" fill="#FF716E" p-id="61697"></path></svg>