<?xml version="1.0" standalone="no"?><!DOCTYPE svg PUBLIC "-//W3C//DTD SVG 1.1//EN" "http://www.w3.org/Graphics/SVG/1.1/DTD/svg11.dtd"><svg height="1024" node-id="1" sillyvg="true" template-height="1024" template-width="1024" version="1.1" viewBox="0 0 1024 1024" width="1024" xmlns="http://www.w3.org/2000/svg" xmlns:xlink="http://www.w3.org/1999/xlink"><defs node-id="86"></defs><path d="M 0.00 0.00 L 1024.00 0.00 L 1024.00 1024.00 L 0.00 1024.00 Z" fill="#ffffff" fill-rule="nonzero" node-id="88" stroke="none" target-height="1024" target-width="1024" target-x="0" target-y="0"></path><path d="M 290.50 293.10 L 300.80 285.00 L 311.40 277.20 L 322.20 269.70 L 333.20 262.60 L 344.50 255.80 L 356.10 249.40 L 367.80 243.50 L 379.70 238.00 L 391.80 232.90 L 404.10 228.30 L 416.60 224.30 L 429.20 220.70 L 442.00 217.70 L 454.80 215.30 L 467.90 213.50 L 494.40 211.40 L 507.80 211.00 L 521.20 211.20 L 534.60 211.90 L 547.90 213.20 L 561.10 215.00 L 574.30 217.40 L 587.40 220.30 L 600.30 223.80 L 613.10 227.80 L 625.70 232.40 L 638.10 237.50 L 652.00 243.90 L 665.60 250.80 L 679.00 258.20 L 692.10 266.10 L 704.80 274.50 L 717.30 283.40 L 729.50 292.60 L 746.20 305.80 L 751.30 309.30 L 761.80 315.50 L 772.20 302.60 L 777.80 296.40 L 783.80 290.70 L 788.10 287.30 L 792.70 284.30 L 797.60 281.60 L 803.30 279.10 L 809.10 277.10 L 815.20 275.70 L 821.30 274.70 L 827.50 274.30 L 833.70 274.30 L 839.80 274.90 L 845.90 276.10 L 851.80 277.70 L 857.60 280.00 L 863.10 282.70 L 868.40 286.00 L 872.60 289.40 L 876.30 293.20 L 879.70 297.40 L 892.20 314.80 L 898.20 321.30 L 903.90 325.70 L 920.40 335.60 L 931.10 342.90 L 935.90 347.10 L 938.80 350.20 L 941.40 353.50 L 943.80 357.20 L 946.10 361.70 L 948.10 366.40 L 949.60 371.10 L 950.70 376.00 L 951.70 382.50 L 952.00 389.20 L 951.70 395.80 L 950.90 402.50 L 949.50 409.00 L 947.50 415.50 L 945.10 421.80 L 942.20 427.70 L 938.80 433.50 L 935.10 438.80 L 931.10 443.70 L 926.70 448.30 L 921.90 452.50 L 916.90 456.40 L 906.20 463.20 L 894.80 469.00 L 885.90 472.70 L 876.90 475.90 L 885.00 483.00 L 892.60 490.60 L 895.90 494.80 L 898.80 499.30 L 900.30 502.50 L 901.50 505.80 L 903.60 514.20 L 904.70 523.80 L 904.60 528.50 L 904.10 534.90 L 902.90 541.10 L 901.20 547.30 L 899.00 553.30 L 896.30 559.20 L 893.30 564.90 L 886.20 575.70 L 879.20 584.20 L 874.10 591.60 L 870.80 597.60 L 859.00 622.20 L 853.20 631.90 L 850.50 635.50 L 843.40 643.70 L 829.60 656.80 L 825.30 661.40 L 821.40 666.30 L 822.90 674.30 L 831.20 706.50 L 832.80 714.60 L 833.50 720.00 L 833.80 730.80 L 833.30 736.10 L 832.20 741.50 L 830.50 747.00 L 829.00 750.60 L 827.30 754.00 L 823.00 759.90 L 819.50 763.40 L 815.70 766.50 L 811.60 769.30 L 807.20 771.70 L 797.90 775.40 L 788.10 778.00 L 770.60 780.60 L 757.70 781.80 L 744.60 782.50 L 734.80 782.60 L 725.00 782.30 L 715.30 781.60 L 705.60 780.50 L 695.90 778.90 L 686.40 776.90 L 677.10 774.40 L 667.90 771.40 L 658.90 767.80 L 650.10 763.70 L 641.50 759.00 L 621.60 745.90 L 618.60 744.40 L 615.40 743.30 L 611.00 743.10 L 576.00 750.50 L 559.50 753.50 L 543.10 756.00 L 532.00 757.10 L 521.00 757.80 L 481.50 758.10 L 474.50 758.60 L 467.50 759.60 L 462.50 762.50 L 457.90 765.80 L 440.40 780.90 L 435.80 784.30 L 430.90 787.30 L 415.30 795.10 L 407.40 798.50 L 390.90 804.30 L 374.00 808.50 L 365.50 810.00 L 356.80 811.10 L 348.20 811.80 L 339.50 812.10 L 324.20 811.70 L 310.90 810.30 L 304.30 808.90 L 297.70 807.20 L 291.30 805.10 L 285.10 802.60 L 279.00 799.70 L 273.10 796.40 L 267.50 792.80 L 262.30 788.70 L 257.30 784.30 L 252.70 779.50 L 248.60 774.30 L 244.80 768.70 L 241.60 762.70 L 239.10 757.50 L 237.20 752.20 L 235.90 746.70 L 234.20 735.50 L 233.10 712.80 L 232.90 710.10 L 232.30 707.70 L 231.30 705.40 L 229.10 702.20 L 226.50 699.20 L 219.10 692.40 L 215.20 690.30 L 212.10 689.40 L 208.70 689.00 L 185.80 688.90 L 176.50 688.30 L 167.20 687.10 L 153.50 684.20 L 140.30 679.90 L 133.80 677.20 L 127.60 674.10 L 121.60 670.50 L 115.80 666.60 L 111.60 663.10 L 107.80 659.30 L 104.30 655.20 L 101.30 650.70 L 98.60 646.10 L 96.40 641.10 L 94.50 636.10 L 93.20 630.90 L 92.30 625.50 L 91.90 620.10 L 92.00 614.80 L 93.20 605.10 L 95.50 592.20 L 95.90 587.90 L 95.70 583.70 L 95.10 581.00 L 94.20 578.30 L 88.80 567.90 L 85.20 560.00 L 81.80 552.00 L 78.80 543.90 L 76.30 535.60 L 74.30 527.20 L 72.40 514.40 L 72.10 508.00 L 72.10 501.40 L 73.20 491.70 L 74.40 486.90 L 76.50 480.00 L 88.70 450.50 L 100.60 412.90 L 104.30 403.70 L 108.30 394.90 L 112.80 386.30 L 117.70 377.90 L 123.00 369.70 L 128.70 361.80 L 134.80 354.20 L 139.70 348.80 L 144.80 343.60 L 155.70 334.10 L 161.50 329.80 L 167.60 325.80 L 174.00 322.20 L 187.10 316.00 L 193.70 313.60 L 200.30 311.60 L 214.00 308.80 L 221.00 308.00 L 231.50 307.10 L 242.00 306.80 L 265.90 307.10 L 268.50 306.80 L 271.00 306.20 L 274.50 304.80 L 277.90 302.80 L 290.50 293.10 Z M 434.50 255.90 L 424.40 258.80 L 414.40 262.10 L 404.60 265.80 L 395.00 269.90 L 382.40 275.90 L 370.10 282.50 L 358.10 289.60 L 346.40 297.30 L 335.00 305.30 L 323.80 313.80 L 302.30 331.80 L 290.50 342.70 L 287.30 344.60 L 284.70 345.40 L 278.90 345.80 L 254.00 343.60 L 245.90 343.50 L 237.80 343.80 L 221.60 345.60 L 205.70 348.90 L 197.80 351.00 L 185.60 357.30 L 179.60 360.70 L 174.00 364.60 L 170.50 367.50 L 167.20 370.70 L 164.30 374.30 L 161.90 377.60 L 160.00 381.20 L 154.50 396.40 L 152.80 400.10 L 145.80 410.80 L 141.40 418.40 L 136.60 429.00 L 134.60 434.40 L 133.10 440.00 L 132.00 445.70 L 131.40 451.50 L 128.00 465.60 L 116.70 478.30 L 111.60 486.10 L 108.80 493.20 L 107.20 502.80 L 107.10 512.50 L 107.80 519.00 L 109.10 525.30 L 111.00 531.50 L 113.50 537.60 L 116.40 543.40 L 119.80 549.00 L 123.60 554.30 L 127.90 559.20 L 132.50 563.70 L 133.00 566.10 L 134.00 568.20 L 140.00 576.20 L 133.30 588.80 L 130.30 595.30 L 127.90 602.00 L 126.80 606.60 L 126.10 611.20 L 125.90 616.00 L 127.00 620.90 L 128.90 625.80 L 132.30 631.80 L 134.50 634.40 L 137.00 636.80 L 139.70 638.70 L 142.80 640.20 L 147.90 643.50 L 153.10 646.30 L 158.50 648.70 L 164.10 650.60 L 171.70 652.60 L 179.50 654.00 L 187.50 654.70 L 195.50 655.00 L 203.50 654.80 L 211.60 654.10 L 223.50 652.60 L 235.00 650.40 L 238.40 655.70 L 242.20 660.70 L 246.30 665.20 L 250.80 669.50 L 255.50 673.40 L 260.60 677.00 L 271.20 683.50 L 276.70 686.40 L 271.00 706.20 L 269.60 712.90 L 268.80 722.00 L 268.90 726.50 L 269.40 730.90 L 270.40 735.40 L 273.50 744.30 L 275.50 748.40 L 278.00 752.30 L 280.80 755.90 L 284.00 759.20 L 287.50 762.20 L 291.30 764.80 L 299.40 769.30 L 303.80 771.00 L 312.70 773.50 L 321.30 774.80 L 330.00 775.60 L 338.60 775.80 L 347.30 775.50 L 356.00 774.70 L 364.60 773.40 L 373.10 771.60 L 381.60 769.40 L 389.90 766.70 L 398.10 763.70 L 406.10 760.20 L 413.90 756.30 L 419.60 753.10 L 425.10 749.50 L 430.40 745.60 L 437.90 739.30 L 459.70 719.20 L 464.30 720.90 L 473.70 723.20 L 483.30 724.10 L 515.90 722.30 L 543.50 720.10 L 561.80 717.50 L 580.30 713.80 L 589.60 711.40 L 617.30 703.00 L 626.60 700.60 L 630.90 705.80 L 635.60 710.70 L 640.50 715.30 L 645.70 719.50 L 656.90 727.00 L 668.80 733.30 L 677.10 736.80 L 685.60 739.80 L 694.30 742.20 L 703.10 744.10 L 712.00 745.60 L 720.90 746.50 L 740.10 746.90 L 749.70 746.90 L 765.80 745.90 L 778.40 744.00 L 784.60 742.50 L 790.70 740.70 L 796.80 738.40 L 797.40 732.40 L 797.60 726.50 L 797.30 720.70 L 796.60 715.00 L 795.00 707.40 L 792.90 700.00 L 790.20 692.60 L 787.00 685.50 L 779.70 671.50 L 767.50 651.50 L 784.50 642.70 L 792.90 637.80 L 801.00 632.50 L 811.00 624.60 L 815.60 620.20 L 819.80 615.50 L 823.70 610.40 L 827.10 604.90 L 828.80 601.40 L 830.00 597.60 L 832.60 586.00 L 833.80 582.40 L 835.00 580.10 L 836.50 578.00 L 851.30 561.80 L 855.30 556.70 L 859.00 551.40 L 862.10 545.90 L 863.70 542.00 L 865.00 538.10 L 865.90 534.10 L 866.30 530.00 L 866.20 525.70 L 865.50 521.20 L 863.70 518.20 L 861.60 515.70 L 859.30 513.60 L 855.30 510.80 L 851.00 508.50 L 837.40 502.50 L 833.20 500.20 L 817.00 474.20 L 815.30 468.60 L 814.00 466.00 L 809.50 458.50 L 807.30 453.50 L 805.30 448.40 L 802.20 438.00 L 825.20 439.50 L 836.70 439.90 L 848.30 440.00 L 863.60 439.10 L 871.20 438.20 L 880.00 436.20 L 888.60 432.90 L 892.60 430.80 L 900.10 425.70 L 903.40 422.70 L 906.40 419.40 L 909.00 415.70 L 911.20 411.80 L 912.90 407.50 L 914.30 403.20 L 915.40 398.40 L 915.90 393.60 L 915.70 388.80 L 915.20 385.70 L 914.30 382.80 L 913.00 380.00 L 911.30 377.50 L 909.20 375.30 L 901.00 369.50 L 885.40 356.50 L 878.20 351.30 L 874.30 349.20 L 870.30 347.50 L 866.00 346.20 L 861.40 345.50 L 855.40 331.20 L 853.20 326.50 L 850.60 322.00 L 847.70 317.90 L 845.40 315.50 L 842.80 313.40 L 839.80 311.50 L 836.60 310.40 L 830.30 309.30 L 827.10 309.40 L 823.00 309.90 L 818.90 311.10 L 815.00 312.70 L 811.20 314.90 L 807.80 317.40 L 804.50 320.30 L 801.60 323.60 L 799.10 327.10 L 797.00 330.80 L 795.40 334.70 L 794.30 338.70 L 793.80 342.90 L 791.90 347.60 L 790.60 352.40 L 789.80 357.30 L 789.40 364.70 L 789.50 372.20 L 790.70 394.90 L 790.40 402.30 L 789.80 407.20 L 788.80 412.00 L 787.20 416.70 L 779.00 403.70 L 770.30 390.90 L 761.00 378.60 L 751.20 366.60 L 743.10 357.20 L 734.60 348.20 L 725.80 339.50 L 716.80 331.00 L 707.40 322.90 L 697.80 315.00 L 687.90 307.60 L 677.80 300.40 L 667.50 293.70 L 656.90 287.30 L 646.10 281.20 L 635.10 275.60 L 623.90 270.40 L 612.50 265.70 L 600.90 261.30 L 590.10 257.80 L 579.30 254.80 L 568.30 252.20 L 557.30 250.10 L 546.10 248.40 L 534.90 247.10 L 523.70 246.30 L 512.50 245.90 L 501.20 246.00 L 490.00 246.50 L 478.70 247.50 L 467.60 248.90 L 456.50 250.80 L 445.50 253.10 L 434.50 255.90 Z" fill="#fdfdfd" fill-rule="nonzero" node-id="90" stroke="none" target-height="601.1" target-width="879.9" target-x="72.1" target-y="211"></path><path d="M 190.80 438.80 L 201.50 438.80 L 203.00 446.60 L 202.90 448.50 L 202.40 449.90 L 201.80 450.50 L 200.70 450.80 L 197.60 450.60 L 195.60 449.60 L 194.50 448.20 L 193.70 446.30 L 191.70 440.30 L 190.80 438.80 Z" fill="#c0c5d3" fill-rule="nonzero" node-id="92" stroke="none" target-height="12" target-width="12.199997" target-x="190.8" target-y="438.8"></path><path d="M 133.50 468.10 L 143.60 467.30 L 153.80 467.10 L 167.40 467.80 L 174.10 468.60 L 186.30 473.60 L 181.00 474.60 L 197.40 479.50 L 197.70 487.40 L 193.40 480.30 L 182.00 499.80 L 173.30 498.70 L 164.50 498.10 L 155.80 498.00 L 147.00 498.30 L 160.50 506.00 L 174.20 513.10 L 179.10 527.20 L 182.00 534.30 L 185.20 541.10 L 187.60 545.50 L 193.20 553.80 L 196.30 557.60 L 199.80 561.20 L 203.60 564.50 L 207.70 567.00 L 211.90 569.10 L 216.20 570.80 L 220.60 572.20 L 226.70 573.40 L 232.80 574.00 L 239.10 574.00 L 245.30 573.40 L 251.40 572.40 L 257.50 570.70 L 263.40 568.60 L 269.10 566.00 L 274.50 563.00 L 283.00 556.80 L 286.80 553.30 L 292.20 547.60 L 301.90 535.30 L 315.80 516.20 L 331.70 524.20 L 348.00 531.40 L 322.80 516.50 L 329.50 510.20 L 311.30 507.00 L 302.50 504.20 L 299.30 495.40 L 296.70 486.40 L 310.20 486.00 L 323.60 486.20 L 384.80 489.00 L 392.30 490.00 L 399.70 491.50 L 420.00 496.90 L 424.70 506.20 L 425.80 509.50 L 426.50 514.00 L 426.40 516.40 L 423.00 525.10 L 418.90 533.60 L 415.90 539.10 L 412.50 544.30 L 405.60 552.80 L 398.70 559.00 L 386.90 566.90 L 378.90 571.40 L 370.70 575.40 L 362.30 578.90 L 353.70 581.90 L 336.00 586.90 L 318.00 590.70 L 290.60 595.00 L 254.60 599.60 L 245.80 600.00 L 219.40 599.80 L 210.60 600.10 L 199.00 601.40 L 193.20 602.60 L 185.60 598.90 L 178.20 594.90 L 171.00 590.50 L 164.10 585.70 L 150.80 575.30 L 141.40 566.90 L 132.40 558.00 L 124.80 545.30 L 121.30 538.80 L 118.20 532.10 L 115.00 522.90 L 113.90 518.10 L 113.20 513.30 L 113.00 508.40 L 113.30 499.60 L 114.30 492.60 L 115.30 489.20 L 117.20 484.90 L 119.60 480.90 L 122.40 477.10 L 125.70 473.70 L 129.40 470.70 L 133.50 468.10 Z M 127.70 477.00 L 127.10 479.60 L 127.00 481.30 L 127.40 482.50 L 128.10 483.20 L 129.30 483.50 L 131.00 483.50 L 133.60 482.90 L 134.20 480.30 L 134.20 478.60 L 133.80 477.50 L 133.10 476.70 L 132.00 476.40 L 130.30 476.40 L 127.70 477.00 Z" fill="#f4e8a1" fill-rule="nonzero" node-id="94" stroke="none" target-height="135.49997" target-width="313.5" target-x="113" target-y="467.1"></path><path d="M 434.50 255.90 L 445.50 253.10 L 456.50 250.80 L 467.60 248.90 L 478.70 247.50 L 490.00 246.50 L 501.20 246.00 L 512.50 245.90 L 523.70 246.30 L 534.90 247.10 L 546.10 248.40 L 557.30 250.10 L 568.30 252.20 L 579.30 254.80 L 590.10 257.80 L 600.90 261.30 L 601.80 268.00 L 602.70 270.70 L 618.10 298.00 L 627.50 315.70 L 633.40 327.60 L 644.30 352.00 L 650.10 377.30 L 658.50 376.70 L 666.70 375.60 L 674.80 374.00 L 682.80 371.80 L 690.70 369.20 L 698.40 366.20 L 706.00 362.80 L 713.50 359.10 L 702.60 372.80 L 695.30 377.30 L 705.20 389.70 L 712.20 400.30 L 718.80 411.10 L 733.90 438.80 L 760.20 489.20 L 776.10 477.50 L 786.20 469.10 L 790.80 464.40 L 793.50 461.10 L 798.20 453.60 L 793.70 443.70 L 788.70 434.10 L 796.90 412.80 L 789.70 421.40 L 787.20 416.70 L 788.80 412.00 L 789.80 407.20 L 790.40 402.30 L 790.70 394.90 L 789.50 372.20 L 789.40 364.70 L 789.80 357.30 L 790.60 352.40 L 791.90 347.60 L 793.80 342.90 L 794.80 349.90 L 795.80 367.50 L 797.30 385.10 L 800.10 408.40 L 802.00 420.10 L 809.70 431.00 L 802.20 438.00 L 805.30 448.40 L 809.50 458.50 L 804.20 464.10 L 794.70 473.00 L 784.80 481.60 L 764.40 497.90 L 779.00 540.70 L 798.70 532.10 L 805.00 528.60 L 809.10 526.00 L 816.20 520.00 L 819.30 516.50 L 821.90 512.60 L 824.10 508.30 L 822.10 496.80 L 817.00 474.20 L 833.20 500.20 L 837.40 502.50 L 851.00 508.50 L 855.30 510.80 L 859.30 513.60 L 861.60 515.70 L 863.70 518.20 L 865.50 521.20 L 866.20 525.70 L 866.30 530.00 L 865.90 534.10 L 865.00 538.10 L 863.70 542.00 L 862.10 545.90 L 859.00 551.40 L 855.30 556.70 L 851.30 561.80 L 836.50 578.00 L 835.00 580.10 L 832.60 586.00 L 830.00 597.60 L 828.80 601.40 L 827.10 604.90 L 823.70 610.40 L 819.80 615.50 L 815.60 620.20 L 811.00 624.60 L 801.00 632.50 L 792.90 637.80 L 784.50 642.70 L 767.50 651.50 L 779.70 671.50 L 787.00 685.50 L 790.20 692.60 L 792.90 700.00 L 795.00 707.40 L 796.60 715.00 L 797.30 720.70 L 797.60 726.50 L 797.40 732.40 L 796.80 738.40 L 790.70 740.70 L 784.60 742.50 L 772.10 745.10 L 759.40 746.50 L 740.10 746.90 L 720.90 746.50 L 712.00 745.60 L 703.10 744.10 L 694.30 742.20 L 685.60 739.80 L 677.10 736.80 L 668.80 733.30 L 656.90 727.00 L 645.70 719.50 L 640.50 715.30 L 635.60 710.70 L 630.90 705.80 L 626.60 700.60 L 621.60 694.20 L 616.90 687.10 L 612.70 679.90 L 608.90 672.50 L 603.60 660.70 L 566.40 658.60 L 547.90 657.10 L 529.40 655.10 L 517.10 653.40 L 492.70 649.00 L 480.50 679.40 L 469.30 703.30 L 462.10 717.00 L 438.00 739.30 L 430.40 745.60 L 425.10 749.50 L 419.60 753.10 L 413.90 756.30 L 406.10 760.20 L 398.10 763.70 L 389.90 766.70 L 381.60 769.40 L 373.10 771.60 L 364.60 773.40 L 356.00 774.70 L 347.30 775.50 L 338.60 775.80 L 330.00 775.60 L 321.30 774.80 L 312.70 773.50 L 303.80 771.00 L 299.40 769.30 L 291.30 764.80 L 287.50 762.20 L 284.00 759.20 L 280.80 755.90 L 278.00 752.30 L 275.50 748.40 L 273.50 744.30 L 270.40 735.40 L 269.40 730.90 L 268.90 726.50 L 268.80 722.00 L 269.60 712.90 L 271.00 706.20 L 276.70 686.40 L 271.20 683.50 L 260.60 677.00 L 255.50 673.40 L 250.80 669.50 L 246.30 665.20 L 242.20 660.70 L 238.40 655.70 L 235.00 650.40 L 223.50 652.60 L 211.60 654.10 L 203.50 654.80 L 195.50 655.00 L 187.50 654.70 L 179.50 654.00 L 171.70 652.60 L 164.10 650.60 L 158.50 648.70 L 153.10 646.30 L 147.90 643.50 L 142.80 640.20 L 174.30 645.40 L 191.90 647.50 L 206.10 647.90 L 213.10 647.60 L 220.10 646.90 L 229.60 645.00 L 233.60 643.00 L 236.20 640.80 L 240.70 635.50 L 246.70 627.00 L 204.70 615.90 L 213.30 612.00 L 220.20 614.10 L 234.10 617.60 L 255.30 621.50 L 285.60 626.20 L 304.20 628.20 L 313.50 628.50 L 319.70 628.30 L 325.80 627.70 L 331.90 626.70 L 337.80 625.20 L 343.60 623.10 L 349.30 620.50 L 359.70 614.80 L 369.80 608.60 L 379.70 602.10 L 389.30 595.10 L 398.50 587.70 L 407.40 579.70 L 408.80 590.50 L 427.20 604.00 L 443.70 614.90 L 452.20 619.80 L 461.00 624.30 L 469.90 628.40 L 479.10 632.10 L 488.40 635.30 L 503.00 611.90 L 510.00 600.10 L 520.80 580.20 L 506.90 574.60 L 493.30 568.60 L 479.80 562.20 L 466.60 555.40 L 453.50 548.20 L 434.40 537.10 L 430.40 523.80 L 455.50 538.90 L 469.10 546.60 L 478.30 551.40 L 497.10 560.20 L 506.70 564.20 L 516.50 567.70 L 526.40 570.90 L 542.80 574.70 L 551.10 576.10 L 563.60 577.60 L 576.20 578.60 L 588.80 579.20 L 626.70 579.70 L 625.30 551.00 L 623.00 522.40 L 587.90 517.30 L 570.40 514.40 L 552.90 511.10 L 529.90 505.80 L 518.50 502.60 L 507.30 499.10 L 496.10 495.00 L 485.20 490.50 L 476.60 486.60 L 468.20 482.20 L 452.10 472.40 L 436.50 461.90 L 426.40 455.60 L 419.30 434.10 L 423.10 426.10 L 425.00 431.10 L 429.70 440.70 L 432.50 445.20 L 435.80 449.40 L 439.40 453.40 L 447.80 459.40 L 456.30 465.00 L 465.10 470.20 L 474.10 475.00 L 492.70 483.60 L 511.90 490.80 L 525.00 494.90 L 538.20 498.60 L 551.50 501.70 L 565.00 504.40 L 591.90 508.60 L 591.80 497.60 L 591.30 486.60 L 590.40 475.70 L 586.90 442.30 L 584.90 419.90 L 584.00 404.90 L 583.40 389.90 L 583.30 374.80 L 554.60 364.80 L 525.80 355.40 L 490.40 344.80 L 477.60 342.40 L 467.90 341.50 L 458.10 341.20 L 452.40 348.10 L 431.00 376.80 L 425.30 383.70 L 417.10 392.40 L 412.70 396.40 L 416.00 387.70 L 418.20 383.70 L 422.00 377.90 L 426.20 372.30 L 439.80 355.90 L 446.50 346.60 L 450.80 338.50 L 452.50 334.30 L 453.70 329.80 L 454.50 325.10 L 447.30 310.70 L 430.00 281.40 L 420.60 266.20 L 409.00 270.60 L 397.70 275.40 L 386.50 280.70 L 375.50 286.50 L 364.70 292.60 L 354.20 299.20 L 344.00 306.10 L 334.00 313.50 L 324.30 321.30 L 314.90 329.40 L 305.90 337.80 L 297.20 346.60 L 314.20 350.60 L 324.40 352.60 L 334.70 354.10 L 345.10 355.00 L 355.60 355.50 L 361.50 357.70 L 371.10 362.40 L 377.90 367.30 L 381.00 370.10 L 383.70 373.30 L 386.00 376.70 L 387.90 380.40 L 389.20 384.40 L 390.10 388.80 L 382.60 382.60 L 374.70 376.80 L 369.20 373.40 L 363.50 370.40 L 357.60 367.70 L 347.80 364.00 L 337.80 360.80 L 327.80 357.90 L 317.60 355.60 L 297.00 352.10 L 286.60 350.80 L 276.10 350.00 L 262.20 349.30 L 248.20 349.10 L 234.30 349.40 L 227.30 350.10 L 220.30 351.30 L 206.50 354.40 L 200.30 354.70 L 197.80 351.00 L 213.60 347.10 L 221.60 345.60 L 237.80 343.80 L 245.90 343.50 L 254.00 343.60 L 278.90 345.80 L 284.70 345.40 L 287.30 344.60 L 290.50 342.60 L 302.30 331.80 L 323.80 313.80 L 335.00 305.30 L 346.40 297.30 L 358.10 289.60 L 370.10 282.50 L 382.40 275.90 L 395.00 269.90 L 404.60 265.80 L 414.40 262.10 L 424.40 258.80 L 434.50 255.90 Z M 427.90 265.20 L 434.00 270.50 L 448.90 298.30 L 456.10 312.40 L 462.80 326.70 L 460.30 328.70 L 500.00 339.30 L 519.80 345.20 L 539.40 351.40 L 558.90 358.10 L 586.10 368.20 L 602.10 373.00 L 610.30 374.90 L 618.50 376.30 L 626.80 377.30 L 635.10 377.70 L 643.60 377.60 L 642.50 367.50 L 640.60 366.60 L 636.20 355.30 L 634.70 352.70 L 632.80 350.30 L 630.50 342.50 L 627.70 334.90 L 624.60 327.50 L 619.30 316.50 L 601.80 284.50 L 595.70 274.30 L 591.00 268.00 L 588.20 265.30 L 583.90 262.50 L 581.40 261.40 L 572.10 258.70 L 562.70 256.50 L 553.20 254.80 L 543.60 253.60 L 524.30 252.10 L 509.70 251.80 L 495.20 252.00 L 472.30 253.70 L 457.10 256.00 L 449.60 257.70 L 442.20 259.70 L 435.00 262.20 L 427.90 265.20 Z M 593.10 382.60 L 594.80 398.60 L 596.00 414.60 L 599.80 478.80 L 601.40 494.70 L 603.50 510.60 L 602.40 512.40 L 633.10 513.50 L 648.60 513.70 L 674.50 512.90 L 695.00 510.80 L 705.10 509.20 L 715.10 507.20 L 725.00 504.60 L 734.80 501.60 L 744.40 497.90 L 753.90 493.60 L 745.00 480.40 L 739.60 467.80 L 733.70 455.40 L 727.50 443.20 L 720.80 431.10 L 711.40 415.40 L 701.50 400.00 L 691.10 384.90 L 661.60 385.90 L 632.00 386.30 L 612.70 383.50 L 602.90 382.80 L 593.10 382.60 Z M 730.20 510.80 L 719.20 513.80 L 708.10 516.30 L 696.90 518.10 L 685.60 519.50 L 674.30 520.40 L 663.00 520.90 L 645.90 521.20 L 628.90 520.80 L 628.40 533.50 L 631.40 533.50 L 631.10 545.10 L 631.20 556.70 L 632.30 579.90 L 648.20 578.70 L 664.10 577.10 L 685.20 574.10 L 706.00 569.70 L 716.30 567.00 L 726.40 563.90 L 736.40 560.30 L 746.20 556.10 L 764.80 547.10 L 768.90 544.40 L 770.40 542.70 L 771.60 540.50 L 770.70 535.10 L 767.70 524.50 L 759.40 502.50 L 754.30 503.10 L 749.40 504.20 L 730.20 510.80 Z M 833.40 513.90 L 827.50 518.10 L 822.00 522.70 L 816.70 527.50 L 801.40 542.70 L 807.20 543.50 L 817.90 559.10 L 828.90 574.60 L 834.10 569.80 L 838.90 564.60 L 843.20 559.20 L 847.20 553.40 L 850.70 547.40 L 853.90 541.20 L 856.80 534.80 L 861.60 521.60 L 858.00 521.80 L 853.50 517.80 L 850.90 516.10 L 845.30 513.70 L 842.40 513.00 L 839.40 512.80 L 836.40 513.10 L 833.40 513.90 Z M 745.50 566.70 L 767.20 610.30 L 777.00 606.70 L 792.90 599.70 L 804.90 592.80 L 810.60 588.90 L 816.00 584.70 L 821.20 580.00 L 815.90 570.00 L 809.90 560.20 L 805.00 554.50 L 799.30 549.80 L 796.00 548.00 L 792.30 546.60 L 788.00 547.10 L 779.80 549.20 L 773.90 551.50 L 768.10 554.20 L 745.50 566.70 Z M 721.50 573.80 L 704.50 579.00 L 695.90 581.10 L 682.90 583.70 L 669.80 585.90 L 641.80 589.60 L 639.20 590.80 L 637.70 592.20 L 633.70 597.70 L 637.80 597.40 L 638.90 608.50 L 640.50 619.50 L 643.50 634.00 L 645.60 641.20 L 644.20 647.50 L 654.20 646.20 L 664.00 644.50 L 673.70 642.40 L 693.00 637.30 L 716.70 629.40 L 730.70 624.20 L 758.60 613.20 L 755.40 599.70 L 741.20 574.30 L 738.00 572.90 L 734.70 572.00 L 731.40 571.70 L 728.10 571.90 L 724.80 572.60 L 721.50 573.80 Z M 528.50 581.30 L 514.50 604.80 L 506.80 618.50 L 499.50 632.40 L 495.90 641.00 L 518.70 645.80 L 541.80 649.00 L 557.20 650.40 L 572.70 651.30 L 588.30 651.70 L 603.80 651.70 L 634.80 650.80 L 638.30 636.80 L 635.90 637.20 L 634.80 629.20 L 631.70 613.20 L 625.50 589.60 L 593.00 588.50 L 576.80 587.50 L 549.80 584.80 L 528.50 581.30 Z M 750.20 627.10 L 755.80 638.10 L 759.30 643.20 L 760.70 644.50 L 763.80 645.90 L 765.50 646.00 L 767.50 645.60 L 778.90 640.20 L 788.10 635.30 L 794.00 631.70 L 799.70 627.70 L 808.90 620.00 L 815.60 612.40 L 818.50 608.30 L 821.00 604.00 L 823.10 599.40 L 824.80 594.50 L 826.00 589.30 L 818.10 594.50 L 801.80 603.90 L 789.10 610.10 L 776.30 616.00 L 750.20 627.10 Z M 400.40 593.90 L 398.90 596.80 L 388.50 602.70 L 385.40 605.00 L 381.70 608.80 L 380.20 611.00 L 346.70 627.60 L 335.80 633.60 L 321.70 642.40 L 315.10 647.30 L 308.60 652.40 L 302.50 658.00 L 296.70 664.10 L 292.60 669.00 L 288.90 674.20 L 285.40 679.80 L 282.40 685.50 L 279.80 691.50 L 277.70 697.60 L 276.20 703.90 L 275.20 710.20 L 274.80 716.60 L 275.40 726.20 L 276.30 731.00 L 278.40 739.40 L 282.10 749.80 L 289.90 756.20 L 294.00 759.10 L 298.30 761.60 L 304.40 764.20 L 315.40 766.50 L 323.10 767.60 L 330.80 768.20 L 338.60 768.40 L 346.40 768.20 L 354.10 767.60 L 361.80 766.60 L 369.50 765.10 L 377.10 763.30 L 384.50 761.10 L 391.80 758.50 L 399.00 755.50 L 406.10 752.20 L 412.90 748.40 L 419.50 744.30 L 425.90 739.90 L 431.60 735.50 L 436.90 730.90 L 441.90 726.00 L 446.60 720.80 L 452.50 713.50 L 457.80 705.80 L 462.70 697.80 L 467.20 689.50 L 471.30 680.90 L 478.40 663.30 L 484.30 645.60 L 474.00 641.40 L 464.10 636.70 L 454.50 631.50 L 445.10 625.80 L 426.90 613.60 L 400.40 593.90 Z M 657.10 655.60 L 649.70 656.00 L 634.90 657.80 L 624.00 659.80 L 613.10 662.30 L 616.60 670.60 L 620.60 678.70 L 625.20 686.50 L 629.10 692.10 L 633.20 697.40 L 637.60 702.50 L 642.40 707.30 L 647.40 711.70 L 652.80 715.80 L 658.50 719.40 L 664.50 722.70 L 677.90 728.80 L 691.60 733.30 L 700.90 735.60 L 710.40 737.30 L 720.00 738.50 L 729.70 739.30 L 749.10 739.70 L 763.70 739.20 L 778.10 738.20 L 782.60 737.40 L 787.60 734.90 L 795.50 728.50 L 790.10 715.70 L 790.20 712.40 L 790.00 709.20 L 789.30 706.00 L 787.90 701.30 L 782.00 687.80 L 770.70 667.90 L 764.40 658.30 L 757.80 649.00 L 748.00 637.30 L 742.70 631.80 L 742.80 627.10 L 733.60 631.20 L 714.80 638.40 L 686.10 647.40 L 657.10 655.60 Z M 251.80 628.70 L 254.30 632.40 L 257.00 635.60 L 260.10 638.50 L 266.90 643.20 L 270.70 645.10 L 276.60 647.60 L 282.80 649.50 L 295.20 652.50 L 290.80 652.50 L 286.50 652.00 L 282.40 651.20 L 276.40 649.20 L 270.50 646.60 L 264.80 643.60 L 248.10 634.00 L 244.60 645.60 L 244.10 648.60 L 244.20 651.50 L 244.60 653.30 L 246.60 657.00 L 249.40 660.70 L 252.50 664.10 L 255.90 667.20 L 261.40 671.40 L 267.40 675.10 L 279.80 681.50 L 283.40 675.10 L 287.40 669.20 L 291.90 663.60 L 296.60 658.30 L 306.90 648.20 L 323.20 634.00 L 305.30 632.60 L 278.60 629.30 L 269.70 628.60 L 260.80 628.30 L 251.80 628.70 Z" fill="#242e21" fill-rule="nonzero" node-id="96" stroke="none" target-height="529.9" target-width="723.5" target-x="142.8" target-y="245.9"></path><path d="M 427.90 265.20 L 435.00 262.20 L 442.20 259.70 L 449.60 257.70 L 464.60 254.70 L 483.80 252.70 L 495.20 252.00 L 509.70 251.80 L 524.30 252.10 L 534.00 252.70 L 553.20 254.80 L 562.70 256.50 L 572.10 258.70 L 581.40 261.40 L 583.90 262.50 L 588.20 265.30 L 591.00 268.00 L 595.70 274.30 L 601.80 284.50 L 619.30 316.50 L 624.60 327.50 L 627.70 334.90 L 630.50 342.50 L 632.80 350.30 L 628.50 345.70 L 624.70 340.80 L 621.10 335.80 L 616.30 327.80 L 598.70 294.60 L 593.80 286.70 L 590.20 281.60 L 586.20 276.80 L 581.90 272.20 L 578.40 269.80 L 574.70 268.00 L 566.70 265.50 L 558.50 263.70 L 548.90 262.20 L 529.40 260.10 L 519.70 259.60 L 500.10 259.70 L 490.40 260.40 L 480.70 261.60 L 471.10 263.20 L 446.50 268.60 L 434.00 270.50 L 427.90 265.20 Z" fill="#99b883" fill-rule="nonzero" node-id="98" stroke="none" target-height="98.499985" target-width="204.9" target-x="427.9" target-y="251.8"></path><path d="M 471.10 263.20 L 480.70 261.60 L 490.40 260.40 L 500.10 259.70 L 519.70 259.60 L 529.40 260.10 L 539.20 261.00 L 558.50 263.70 L 570.80 266.60 L 574.70 268.00 L 578.40 269.80 L 581.90 272.20 L 586.20 276.80 L 590.20 281.60 L 593.80 286.70 L 598.70 294.60 L 616.30 327.80 L 621.10 335.80 L 624.70 340.80 L 628.50 345.70 L 634.70 352.70 L 636.20 355.30 L 640.60 366.60 L 616.10 355.00 L 599.30 348.30 L 550.30 332.70 L 536.70 328.80 L 523.00 325.30 L 509.20 322.40 L 499.90 320.80 L 490.50 319.70 L 478.70 318.80 L 474.30 319.50 L 471.20 320.80 L 468.30 322.60 L 462.80 326.70 L 456.10 312.40 L 448.90 298.30 L 434.00 270.50 L 446.50 268.60 L 471.10 263.20 Z" fill="#75a065" fill-rule="nonzero" node-id="100" stroke="none" target-height="107" target-width="206.59998" target-x="434" target-y="259.6"></path><path d="M 600.90 261.30 L 612.50 265.70 L 623.90 270.40 L 635.10 275.60 L 646.10 281.20 L 656.90 287.30 L 667.50 293.70 L 677.80 300.40 L 687.90 307.60 L 697.80 315.00 L 707.40 322.90 L 716.80 331.00 L 725.80 339.50 L 734.60 348.20 L 743.10 357.20 L 751.20 366.50 L 761.00 378.60 L 770.30 390.90 L 779.00 403.70 L 787.20 416.70 L 789.70 421.40 L 796.90 412.80 L 788.70 434.10 L 770.20 405.00 L 756.90 386.20 L 749.90 377.10 L 742.50 368.30 L 734.60 359.90 L 726.40 351.90 L 724.00 358.00 L 713.60 365.80 L 702.60 372.80 L 713.50 359.10 L 706.00 362.80 L 698.40 366.20 L 690.70 369.20 L 682.80 371.80 L 674.80 374.00 L 666.70 375.60 L 658.50 376.70 L 650.10 377.30 L 644.30 352.00 L 651.50 352.50 L 681.00 356.60 L 688.30 356.90 L 693.10 356.80 L 697.90 356.20 L 702.60 355.30 L 707.10 353.80 L 721.20 346.70 L 704.10 330.40 L 695.10 322.60 L 685.90 315.10 L 676.40 308.00 L 666.60 301.20 L 656.60 294.90 L 646.30 289.00 L 635.80 283.50 L 619.60 276.40 L 602.70 270.70 L 601.80 268.00 L 600.90 261.30 Z" fill="#537c51" fill-rule="nonzero" node-id="102" stroke="none" target-height="172.80002" target-width="196" target-x="600.9" target-y="261.3"></path><path d="M 128.00 465.60 L 131.40 451.50 L 133.50 468.10 L 129.40 470.70 L 125.70 473.70 L 122.40 477.10 L 119.60 480.90 L 117.20 484.90 L 115.30 489.20 L 113.60 496.10 L 113.00 508.40 L 113.20 513.30 L 113.90 518.10 L 116.40 527.50 L 121.30 538.80 L 124.80 545.30 L 132.40 558.00 L 132.50 563.70 L 127.90 559.20 L 123.60 554.30 L 119.80 549.00 L 116.40 543.40 L 113.50 537.60 L 111.00 531.50 L 109.10 525.30 L 107.80 519.00 L 107.10 512.50 L 107.20 502.80 L 107.80 498.00 L 108.80 493.20 L 110.00 489.60 L 113.50 482.90 L 116.70 478.30 L 128.00 465.60 Z" fill="#73472d" fill-rule="nonzero" node-id="104" stroke="none" target-height="112.20001" target-width="26.400002" target-x="107.1" target-y="451.5"></path><path d="M 297.20 346.60 L 305.90 337.80 L 314.90 329.40 L 324.30 321.30 L 334.00 313.50 L 344.00 306.10 L 354.20 299.20 L 364.70 292.60 L 375.50 286.50 L 386.50 280.70 L 397.70 275.40 L 409.00 270.60 L 420.60 266.20 L 439.20 296.70 L 441.30 312.20 L 425.00 290.50 L 420.40 285.50 L 415.40 280.90 L 412.00 280.70 L 408.70 280.80 L 405.40 281.30 L 400.60 282.70 L 395.90 284.50 L 386.70 288.70 L 375.50 294.90 L 364.60 301.50 L 353.80 308.30 L 343.30 315.60 L 333.10 323.20 L 323.10 331.20 L 313.40 339.40 L 304.00 348.10 L 297.20 346.60 Z" fill="#b2d09b" fill-rule="nonzero" node-id="106" stroke="none" target-height="81.899994" target-width="144.09998" target-x="297.2" target-y="266.2"></path><path d="M 602.70 270.70 L 619.60 276.40 L 635.80 283.50 L 646.30 289.00 L 656.60 294.90 L 666.60 301.20 L 676.40 308.00 L 685.90 315.10 L 695.10 322.60 L 704.10 330.40 L 721.20 346.70 L 716.10 349.00 L 691.20 328.70 L 678.40 319.00 L 665.30 309.70 L 656.30 303.90 L 637.80 293.30 L 628.20 288.60 L 618.40 284.30 L 608.30 280.50 L 602.70 270.70 Z" fill="#95b77f" fill-rule="nonzero" node-id="108" stroke="none" target-height="78.29999" target-width="118.5" target-x="602.7" target-y="270.7"></path><path d="M 386.70 288.70 L 395.90 284.50 L 400.60 282.70 L 405.40 281.30 L 408.70 280.80 L 412.00 280.70 L 415.40 280.90 L 420.40 285.50 L 425.00 290.50 L 441.30 312.20 L 439.20 296.70 L 447.30 310.70 L 454.50 325.10 L 449.00 330.60 L 438.70 342.20 L 417.20 369.70 L 409.70 378.60 L 397.60 369.40 L 391.20 365.20 L 384.70 361.50 L 380.20 359.40 L 375.60 357.60 L 370.80 356.30 L 365.90 355.50 L 360.90 355.20 L 355.60 355.50 L 345.10 355.00 L 334.70 354.10 L 324.40 352.60 L 314.20 350.60 L 304.00 348.10 L 313.40 339.40 L 323.10 331.20 L 333.10 323.20 L 343.30 315.60 L 353.80 308.30 L 364.60 301.50 L 375.50 294.90 L 386.70 288.70 Z" fill="#6a9560" fill-rule="nonzero" node-id="110" stroke="none" target-height="97.899994" target-width="150.5" target-x="304" target-y="280.7"></path><path d="M 608.30 280.50 L 618.40 284.30 L 628.20 288.60 L 637.80 293.30 L 656.30 303.90 L 665.30 309.70 L 678.40 319.00 L 691.20 328.70 L 716.10 349.00 L 711.60 351.80 L 707.10 353.80 L 702.60 355.30 L 697.90 356.20 L 693.10 356.80 L 688.30 356.90 L 681.00 356.60 L 651.50 352.50 L 644.30 352.00 L 639.00 339.70 L 627.50 315.70 L 618.10 298.00 L 608.30 280.50 Z" fill="#68945f" fill-rule="nonzero" node-id="112" stroke="none" target-height="76.399994" target-width="107.79999" target-x="608.3" target-y="280.5"></path><path d="M 793.80 342.90 L 794.30 338.70 L 795.40 334.70 L 797.00 330.80 L 799.10 327.10 L 801.60 323.60 L 804.50 320.30 L 807.80 317.40 L 811.20 314.90 L 815.00 312.70 L 818.90 311.10 L 823.00 309.90 L 827.10 309.40 L 833.40 309.60 L 839.80 311.50 L 842.80 313.40 L 845.40 315.50 L 847.70 317.90 L 850.60 322.00 L 853.20 326.50 L 855.40 331.20 L 861.40 345.50 L 866.00 346.20 L 870.30 347.50 L 874.30 349.20 L 878.20 351.30 L 885.40 356.50 L 901.00 369.50 L 909.20 375.30 L 911.30 377.50 L 913.00 380.00 L 914.30 382.80 L 915.20 385.70 L 915.70 388.80 L 915.90 393.60 L 915.40 398.40 L 914.30 403.20 L 911.20 411.80 L 909.00 415.70 L 906.40 419.40 L 903.40 422.70 L 900.10 425.70 L 896.40 428.40 L 888.60 432.90 L 884.30 434.70 L 875.60 437.40 L 871.20 438.20 L 855.90 439.70 L 836.70 439.90 L 825.20 439.50 L 802.20 438.00 L 809.70 431.00 L 838.30 431.70 L 854.30 431.10 L 866.80 429.10 L 872.90 427.50 L 878.80 425.40 L 888.50 420.50 L 895.50 415.30 L 898.70 412.30 L 902.50 407.90 L 906.00 403.30 L 909.10 398.30 L 908.70 394.70 L 906.80 388.10 L 905.40 385.10 L 903.00 381.30 L 900.30 377.80 L 897.10 374.40 L 892.00 369.80 L 875.60 357.00 L 872.90 355.30 L 870.30 354.30 L 867.70 354.00 L 865.00 354.20 L 862.40 354.80 L 859.70 355.80 L 855.70 357.90 L 845.10 365.30 L 841.90 347.90 L 838.10 330.70 L 842.60 337.70 L 847.40 344.40 L 852.70 350.80 L 851.90 341.50 L 851.00 337.00 L 849.70 332.50 L 847.90 328.30 L 845.80 324.20 L 843.20 320.50 L 840.00 317.10 L 836.30 314.00 L 832.50 314.00 L 825.50 315.10 L 822.30 316.20 L 818.20 318.10 L 814.40 320.50 L 810.90 323.30 L 807.70 326.60 L 804.80 330.10 L 802.20 334.00 L 797.90 342.30 L 794.80 349.90 L 793.80 342.90 Z" fill="#2d3e2a" fill-rule="nonzero" node-id="114" stroke="none" target-height="130.5" target-width="122.10004" target-x="793.8" target-y="309.4"></path><path d="M 796.30 346.70 L 799.90 338.10 L 804.80 330.10 L 807.70 326.60 L 810.90 323.30 L 814.40 320.50 L 818.20 318.10 L 822.30 316.20 L 825.50 315.10 L 832.50 314.00 L 836.30 314.00 L 818.90 329.40 L 815.00 333.60 L 811.50 338.20 L 809.50 342.20 L 806.50 350.60 L 804.70 357.10 L 800.60 376.90 L 796.30 346.70 Z" fill="#a2c191" fill-rule="nonzero" node-id="116" stroke="none" target-height="62.899994" target-width="40" target-x="796.3" target-y="314"></path><path d="M 836.30 314.00 L 840.00 317.10 L 843.20 320.50 L 845.80 324.20 L 847.90 328.30 L 849.70 332.50 L 851.00 337.00 L 852.50 346.20 L 852.70 350.80 L 847.40 344.40 L 842.60 337.70 L 838.10 330.70 L 841.90 347.90 L 845.10 365.30 L 830.10 381.40 L 849.60 388.30 L 841.20 392.90 L 825.10 403.10 L 802.00 420.10 L 800.10 408.40 L 797.30 385.10 L 795.80 367.50 L 794.80 349.90 L 796.30 346.70 L 800.60 376.90 L 804.70 357.10 L 806.50 350.60 L 809.50 342.20 L 811.50 338.20 L 815.00 333.60 L 818.90 329.40 L 836.30 314.00 Z" fill="#6b9a61" fill-rule="nonzero" node-id="118" stroke="none" target-height="106.100006" target-width="57.900024" target-x="794.8" target-y="314"></path><path d="M 462.80 326.70 L 468.30 322.60 L 471.20 320.80 L 474.30 319.50 L 478.70 318.80 L 490.50 319.70 L 499.90 320.80 L 509.20 322.40 L 523.00 325.30 L 536.70 328.80 L 563.80 336.90 L 599.30 348.30 L 616.10 355.00 L 642.50 367.50 L 643.60 377.60 L 635.10 377.70 L 626.80 377.30 L 618.50 376.30 L 610.30 374.90 L 594.10 370.80 L 586.10 368.20 L 558.90 358.10 L 539.40 351.40 L 519.80 345.20 L 500.00 339.30 L 460.30 328.70 L 462.80 326.70 Z" fill="#548058" fill-rule="nonzero" node-id="120" stroke="none" target-height="58.900024" target-width="183.29999" target-x="460.3" target-y="318.8"></path><path d="M 454.50 325.10 L 453.70 329.80 L 452.50 334.30 L 450.80 338.50 L 446.50 346.60 L 439.80 355.90 L 426.20 372.30 L 422.00 377.90 L 418.20 383.70 L 416.00 387.70 L 412.70 396.40 L 423.10 426.10 L 419.30 434.10 L 417.40 429.30 L 411.90 413.50 L 409.90 408.30 L 407.40 403.60 L 405.50 400.60 L 403.30 398.00 L 400.80 395.70 L 398.00 393.80 L 394.80 392.30 L 390.90 391.20 L 390.10 388.80 L 389.20 384.40 L 387.90 380.40 L 386.00 376.70 L 383.70 373.30 L 381.00 370.10 L 377.90 367.30 L 371.10 362.40 L 361.50 357.70 L 355.60 355.50 L 360.90 355.20 L 365.90 355.50 L 370.80 356.30 L 375.60 357.60 L 380.20 359.40 L 384.70 361.50 L 391.20 365.20 L 397.60 369.40 L 409.70 378.60 L 417.20 369.70 L 438.70 342.20 L 449.00 330.60 L 454.50 325.10 Z" fill="#456542" fill-rule="nonzero" node-id="122" stroke="none" target-height="109" target-width="98.899994" target-x="355.6" target-y="325.1"></path><path d="M 412.70 396.40 L 417.10 392.40 L 425.30 383.70 L 431.00 376.80 L 452.40 348.10 L 458.10 341.20 L 473.00 349.30 L 488.50 356.40 L 482.20 364.30 L 456.20 395.20 L 446.10 408.60 L 439.00 420.10 L 444.30 415.40 L 454.20 405.30 L 461.20 397.30 L 481.20 372.70 L 488.10 364.60 L 495.20 356.70 L 531.60 366.90 L 543.60 370.70 L 555.40 374.90 L 568.80 380.50 L 571.30 382.70 L 572.50 384.80 L 573.80 389.90 L 574.90 397.80 L 577.30 426.90 L 578.70 441.50 L 580.60 455.90 L 582.20 465.50 L 587.00 487.40 L 563.50 482.50 L 551.80 479.80 L 540.20 476.60 L 525.00 471.70 L 509.20 465.40 L 501.00 461.70 L 457.20 439.20 L 445.00 433.50 L 439.40 453.40 L 435.80 449.40 L 432.50 445.20 L 429.70 440.70 L 427.20 436.00 L 423.10 426.10 L 412.70 396.40 Z" fill="#6e9a62" fill-rule="nonzero" node-id="124" stroke="none" target-height="146.19998" target-width="174.29999" target-x="412.7" target-y="341.2"></path><path d="M 458.10 341.20 L 467.90 341.50 L 477.60 342.40 L 490.40 344.80 L 525.80 355.40 L 554.60 364.80 L 583.30 374.80 L 583.40 389.90 L 584.00 404.90 L 584.90 419.90 L 589.10 464.80 L 586.60 484.50 L 584.20 475.10 L 580.60 455.90 L 578.70 441.50 L 574.90 397.80 L 573.80 389.90 L 572.50 384.80 L 571.30 382.70 L 568.80 380.50 L 555.40 374.90 L 543.60 370.70 L 519.50 363.40 L 495.20 356.70 L 488.10 364.60 L 481.20 372.70 L 461.20 397.30 L 454.20 405.30 L 444.30 415.40 L 439.00 420.10 L 446.10 408.60 L 456.20 395.20 L 482.20 364.30 L 488.50 356.40 L 473.00 349.30 L 458.10 341.20 Z" fill="#9bc680" fill-rule="nonzero" node-id="126" stroke="none" target-height="143.29999" target-width="150.09998" target-x="439" target-y="341.2"></path><path d="M 164.30 374.30 L 167.20 370.70 L 170.50 367.50 L 174.00 364.60 L 179.60 360.70 L 185.60 357.30 L 197.80 351.00 L 210.70 371.30 L 196.40 368.40 L 191.60 368.00 L 184.90 370.00 L 181.90 371.50 L 177.50 374.20 L 173.50 377.40 L 166.20 384.90 L 159.60 392.80 L 178.70 391.50 L 183.60 391.60 L 188.20 392.30 L 191.10 393.10 L 193.70 394.30 L 196.10 395.90 L 198.10 398.00 L 199.90 400.70 L 201.30 404.10 L 202.00 408.30 L 198.50 404.90 L 194.70 401.70 L 190.60 398.90 L 186.20 396.70 L 183.20 395.60 L 180.10 395.00 L 177.00 394.80 L 173.90 395.00 L 170.70 395.90 L 167.40 397.30 L 163.40 400.20 L 159.80 403.40 L 153.60 410.40 L 150.10 415.60 L 147.00 421.10 L 144.30 426.90 L 142.00 432.80 L 138.40 445.20 L 136.50 454.70 L 135.20 463.90 L 154.50 464.40 L 161.80 465.40 L 169.10 466.80 L 174.10 468.60 L 167.40 467.80 L 153.80 467.10 L 143.60 467.30 L 133.50 468.10 L 131.40 451.50 L 132.00 445.70 L 133.10 440.00 L 134.60 434.40 L 138.80 423.60 L 141.40 418.40 L 145.80 410.80 L 152.80 400.10 L 154.50 396.40 L 160.00 381.20 L 161.90 377.60 L 164.30 374.30 Z" fill="#2a221e" fill-rule="nonzero" node-id="128" stroke="none" target-height="117.600006" target-width="79.3" target-x="131.4" target-y="351"></path><path d="M 206.50 354.40 L 220.30 351.30 L 227.30 350.10 L 234.30 349.40 L 248.20 349.10 L 262.20 349.30 L 276.10 350.00 L 297.00 352.10 L 317.60 355.60 L 327.80 357.90 L 337.80 360.80 L 347.80 364.00 L 357.60 367.70 L 357.80 376.40 L 320.60 366.40 L 301.80 362.40 L 289.90 360.70 L 278.00 359.60 L 230.30 357.00 L 218.40 356.00 L 206.50 354.40 Z" fill="#faf8bb" fill-rule="nonzero" node-id="130" stroke="none" target-height="27.299988" target-width="151.29999" target-x="206.5" target-y="349.1"></path><path d="M 726.40 351.90 L 734.60 359.90 L 742.50 368.30 L 749.90 377.10 L 763.70 395.50 L 779.60 419.50 L 788.70 434.10 L 793.70 443.70 L 798.20 453.60 L 794.20 450.90 L 790.50 447.90 L 784.00 441.00 L 778.40 433.20 L 773.40 424.10 L 768.00 415.30 L 762.30 406.70 L 753.10 394.30 L 724.00 358.00 L 726.40 351.90 Z" fill="#89b279" fill-rule="nonzero" node-id="132" stroke="none" target-height="101.70001" target-width="74.20001" target-x="724" target-y="351.9"></path><path d="M 200.30 354.70 L 206.50 354.40 L 218.40 356.00 L 230.30 357.00 L 266.10 358.80 L 289.90 360.70 L 301.80 362.40 L 320.60 366.40 L 357.80 376.40 L 357.60 367.70 L 363.50 370.40 L 369.20 373.40 L 374.70 376.80 L 382.60 382.60 L 390.10 388.80 L 390.90 391.20 L 384.60 389.50 L 373.80 387.50 L 365.10 387.00 L 360.80 387.30 L 356.50 388.10 L 352.30 389.40 L 347.60 392.10 L 343.40 395.20 L 339.50 398.70 L 336.10 402.70 L 333.10 407.00 L 330.40 411.60 L 326.60 418.90 L 323.20 426.50 L 318.30 439.50 L 317.00 445.00 L 316.00 450.50 L 315.20 461.60 L 315.90 475.70 L 316.80 484.00 L 293.30 486.50 L 279.80 487.00 L 270.20 475.00 L 264.30 473.20 L 258.20 471.70 L 252.10 470.70 L 245.90 470.00 L 239.60 469.80 L 233.40 470.00 L 227.20 470.60 L 221.00 471.60 L 214.90 473.00 L 208.90 474.80 L 203.10 477.00 L 197.40 479.50 L 181.00 474.60 L 194.10 472.10 L 198.90 470.10 L 200.90 468.60 L 202.90 465.90 L 205.30 457.50 L 206.50 450.80 L 207.20 444.10 L 207.40 437.30 L 207.10 430.50 L 206.40 423.70 L 205.20 417.00 L 203.50 410.50 L 199.90 400.70 L 198.10 398.00 L 196.10 395.90 L 193.70 394.30 L 191.10 393.10 L 188.20 392.30 L 183.60 391.60 L 178.70 391.50 L 159.60 392.80 L 166.20 384.90 L 173.50 377.40 L 177.50 374.20 L 181.90 371.50 L 184.90 370.00 L 191.60 368.00 L 196.40 368.40 L 210.70 371.30 L 200.30 354.70 Z" fill="#eee491" fill-rule="nonzero" node-id="134" stroke="none" target-height="132.6" target-width="231.29999" target-x="159.6" target-y="354.4"></path><path d="M 845.10 365.30 L 855.70 357.90 L 859.70 355.80 L 862.40 354.80 L 865.00 354.20 L 867.70 354.00 L 870.30 354.30 L 872.90 355.30 L 875.60 357.00 L 892.00 369.80 L 897.10 374.40 L 900.30 377.80 L 903.00 381.30 L 905.40 385.10 L 906.80 388.10 L 908.70 394.70 L 909.10 398.30 L 902.00 399.10 L 894.70 385.40 L 892.40 382.30 L 889.80 379.50 L 882.90 378.70 L 879.40 378.80 L 874.30 379.50 L 864.20 382.50 L 849.60 388.30 L 830.10 381.40 L 845.10 365.30 Z" fill="#76a56d" fill-rule="nonzero" node-id="136" stroke="none" target-height="45.100006" target-width="79" target-x="830.1" target-y="354"></path><path d="M 702.60 372.80 L 713.60 365.80 L 724.00 358.00 L 753.10 394.30 L 762.30 406.70 L 768.00 415.30 L 773.40 424.10 L 778.40 433.20 L 775.30 430.20 L 772.00 427.50 L 768.40 425.10 L 764.70 423.10 L 759.50 420.90 L 754.10 419.20 L 745.40 417.40 L 742.60 416.50 L 740.00 415.20 L 736.40 412.80 L 733.10 409.90 L 724.10 399.90 L 718.80 394.80 L 714.00 391.80 L 711.40 390.70 L 708.50 390.00 L 705.20 389.70 L 695.30 377.30 L 702.60 372.80 Z" fill="#5e8e5b" fill-rule="nonzero" node-id="138" stroke="none" target-height="75.20001" target-width="83.10004" target-x="695.3" target-y="358"></path><path d="M 849.60 388.30 L 864.20 382.50 L 869.20 380.80 L 874.30 379.50 L 879.40 378.80 L 886.30 378.90 L 889.80 379.50 L 892.40 382.30 L 896.70 388.70 L 902.00 399.10 L 909.10 398.30 L 906.00 403.30 L 902.50 407.90 L 898.70 412.30 L 892.10 418.10 L 884.70 422.60 L 878.80 425.40 L 872.90 427.50 L 866.80 429.10 L 854.30 431.10 L 838.30 431.70 L 809.70 431.00 L 802.00 420.10 L 825.10 403.10 L 841.20 392.90 L 849.60 388.30 Z" fill="#53814f" fill-rule="nonzero" node-id="140" stroke="none" target-height="52.900024" target-width="107.099976" target-x="802" target-y="378.8"></path><path d="M 593.10 382.60 L 602.90 382.80 L 612.70 383.50 L 632.00 386.30 L 598.90 388.30 L 609.10 391.70 L 608.00 400.30 L 607.40 408.90 L 607.30 417.40 L 607.80 430.30 L 608.80 443.10 L 613.00 481.70 L 613.80 494.60 L 603.50 510.60 L 601.40 494.70 L 599.80 478.80 L 596.00 414.60 L 594.80 398.60 L 593.10 382.60 Z" fill="#87b172" fill-rule="nonzero" node-id="142" stroke="none" target-height="128" target-width="38.900024" target-x="593.1" target-y="382.6"></path><path d="M 632.00 386.30 L 661.60 385.90 L 691.10 384.90 L 701.50 400.00 L 711.40 415.40 L 720.80 431.10 L 727.50 443.20 L 733.70 455.40 L 739.60 467.80 L 745.00 480.40 L 746.30 490.00 L 736.60 483.50 L 731.50 470.60 L 725.90 457.80 L 720.00 445.10 L 713.60 432.70 L 706.80 420.50 L 699.50 408.60 L 696.00 403.80 L 692.10 399.20 L 689.80 397.20 L 687.30 395.80 L 683.60 394.80 L 672.40 394.80 L 645.10 395.70 L 636.00 395.60 L 627.00 395.00 L 615.00 393.20 L 609.10 391.70 L 598.90 388.30 L 632.00 386.30 Z" fill="#a2c986" fill-rule="nonzero" node-id="144" stroke="none" target-height="105.100006" target-width="147.39996" target-x="598.9" target-y="384.9"></path><path d="M 352.30 389.40 L 356.50 388.10 L 360.80 387.30 L 365.10 387.00 L 373.80 387.50 L 378.10 388.10 L 384.60 389.50 L 394.80 392.30 L 398.00 393.80 L 400.80 395.70 L 403.30 398.00 L 405.50 400.60 L 407.40 403.60 L 409.90 408.30 L 411.90 413.50 L 423.00 444.80 L 426.40 455.60 L 428.90 466.90 L 430.80 478.30 L 432.30 489.70 L 433.40 501.30 L 420.00 496.90 L 399.70 491.50 L 388.80 484.90 L 393.50 466.60 L 394.80 460.40 L 395.70 454.20 L 396.20 447.90 L 395.90 441.60 L 395.10 435.40 L 393.90 429.20 L 389.70 410.80 L 402.50 410.20 L 385.00 398.90 L 374.70 393.50 L 366.20 390.50 L 361.70 389.60 L 357.10 389.30 L 352.30 389.40 Z" fill="#ddcb7d" fill-rule="nonzero" node-id="146" stroke="none" target-height="114.29999" target-width="81.100006" target-x="352.3" target-y="387"></path><path d="M 705.20 389.70 L 708.50 390.00 L 711.40 390.70 L 714.00 391.80 L 718.80 394.80 L 724.10 399.90 L 733.10 409.90 L 736.40 412.80 L 740.00 415.20 L 742.60 416.50 L 745.40 417.40 L 754.10 419.20 L 759.50 420.90 L 764.70 423.10 L 768.40 425.10 L 772.00 427.50 L 775.30 430.20 L 778.40 433.20 L 781.00 437.20 L 787.10 444.50 L 790.50 447.90 L 794.20 450.90 L 798.20 453.60 L 793.50 461.10 L 790.80 464.40 L 786.20 469.10 L 776.10 477.50 L 760.20 489.20 L 725.00 422.10 L 718.80 411.10 L 712.20 400.30 L 705.20 389.70 Z" fill="#517f50" fill-rule="nonzero" node-id="148" stroke="none" target-height="99.5" target-width="93" target-x="705.2" target-y="389.7"></path><path d="M 330.40 411.60 L 333.10 407.00 L 336.10 402.70 L 339.50 398.70 L 343.40 395.20 L 347.60 392.10 L 352.30 389.40 L 357.10 389.30 L 361.70 389.60 L 366.20 390.50 L 374.70 393.50 L 385.00 398.90 L 402.50 410.20 L 389.70 410.80 L 393.90 429.20 L 395.10 435.40 L 395.90 441.60 L 396.20 447.90 L 395.70 454.20 L 394.80 460.40 L 393.50 466.60 L 388.80 484.90 L 399.70 491.50 L 392.30 490.00 L 384.80 489.00 L 377.20 488.50 L 363.80 488.20 L 323.60 486.20 L 310.20 486.00 L 293.30 486.50 L 316.80 484.00 L 332.60 482.90 L 338.00 482.80 L 350.60 483.30 L 359.00 482.90 L 363.10 482.30 L 367.10 481.20 L 370.90 479.60 L 374.70 477.50 L 375.00 482.80 L 381.80 484.60 L 385.40 476.80 L 387.40 471.20 L 388.90 465.50 L 389.90 459.70 L 390.50 453.80 L 390.70 447.90 L 390.50 441.90 L 389.10 430.20 L 387.60 424.80 L 385.30 419.40 L 381.50 412.70 L 376.50 406.80 L 373.60 404.40 L 370.50 402.40 L 367.20 400.90 L 363.50 399.80 L 355.80 399.30 L 352.30 399.70 L 348.90 400.60 L 345.60 401.90 L 339.20 405.40 L 330.40 411.60 Z" fill="#27201d" fill-rule="nonzero" node-id="150" stroke="none" target-height="102.20001" target-width="109.20001" target-x="293.3" target-y="389.3"></path><path d="M 613.80 494.60 L 613.00 481.70 L 608.80 443.10 L 607.80 430.30 L 607.30 417.40 L 607.40 408.90 L 608.00 400.30 L 609.10 391.70 L 615.00 393.20 L 627.00 395.00 L 636.00 395.60 L 645.10 395.70 L 672.40 394.80 L 683.60 394.80 L 687.30 395.80 L 689.80 397.20 L 694.10 401.40 L 699.50 408.60 L 706.80 420.50 L 713.60 432.70 L 720.00 445.10 L 725.90 457.80 L 731.50 470.60 L 736.60 483.50 L 723.10 486.60 L 709.60 489.10 L 696.10 491.10 L 682.40 492.70 L 668.80 493.80 L 655.00 494.50 L 641.30 494.90 L 613.80 494.60 Z" fill="#6d9762" fill-rule="nonzero" node-id="152" stroke="none" target-height="103.19998" target-width="129.29999" target-x="607.3" target-y="391.7"></path><path d="M 167.40 397.30 L 170.70 395.90 L 173.90 395.00 L 177.00 394.80 L 180.10 395.00 L 183.20 395.60 L 186.20 396.70 L 190.60 398.90 L 194.70 401.70 L 198.50 404.90 L 202.00 408.30 L 203.60 421.60 L 204.50 434.90 L 191.20 425.20 L 181.60 423.60 L 176.70 423.30 L 171.90 423.60 L 168.80 424.10 L 162.70 426.20 L 160.20 428.80 L 158.30 431.50 L 156.90 434.40 L 155.00 440.70 L 154.20 449.20 L 154.50 464.40 L 135.20 463.90 L 136.50 454.70 L 138.40 445.20 L 140.00 439.00 L 144.30 426.90 L 147.00 421.10 L 150.10 415.60 L 153.60 410.40 L 156.60 406.80 L 163.40 400.20 L 167.40 397.30 Z" fill="#fcfcfc" fill-rule="nonzero" node-id="154" stroke="none" target-height="69.600006" target-width="69.3" target-x="135.2" target-y="394.8"></path><path d="M 330.40 411.60 L 339.20 405.40 L 345.60 401.90 L 348.90 400.60 L 352.30 399.70 L 355.80 399.30 L 363.50 399.80 L 367.20 400.90 L 370.50 402.40 L 373.60 404.40 L 376.50 406.80 L 381.50 412.70 L 385.30 419.40 L 387.60 424.80 L 389.10 430.20 L 390.50 441.90 L 390.70 447.90 L 390.50 453.80 L 389.90 459.70 L 388.90 465.50 L 387.40 471.20 L 385.40 476.80 L 382.90 482.20 L 381.60 479.60 L 379.90 474.20 L 379.40 470.00 L 379.40 465.70 L 379.90 457.10 L 370.30 451.60 L 366.20 448.00 L 367.30 445.80 L 368.80 444.00 L 370.60 442.60 L 381.50 436.90 L 372.70 433.00 L 368.10 431.30 L 363.50 430.10 L 357.30 429.60 L 354.30 429.90 L 351.40 430.70 L 348.50 432.10 L 341.40 436.80 L 337.90 439.90 L 334.90 443.30 L 332.30 447.10 L 330.10 451.10 L 328.30 455.40 L 326.00 462.10 L 324.20 469.00 L 321.50 482.70 L 320.00 476.70 L 318.10 464.60 L 317.80 458.50 L 318.20 446.30 L 320.20 434.20 L 323.20 426.50 L 326.60 418.90 L 330.40 411.60 Z" fill="#fcfcfd" fill-rule="nonzero" node-id="156" stroke="none" target-height="83.400024" target-width="72.900024" target-x="317.8" target-y="399.3"></path><path d="M 201.30 404.10 L 203.50 410.50 L 205.20 417.00 L 206.40 423.70 L 207.10 430.50 L 207.40 437.30 L 207.20 444.10 L 206.50 450.80 L 205.30 457.50 L 202.90 465.90 L 200.90 468.60 L 198.90 470.10 L 196.60 471.30 L 191.50 472.70 L 186.30 473.60 L 169.10 466.80 L 173.10 447.10 L 178.30 427.80 L 191.20 425.20 L 204.50 434.90 L 202.90 414.90 L 201.30 404.10 Z M 190.80 438.80 L 191.70 440.30 L 193.70 446.30 L 194.50 448.20 L 195.60 449.60 L 197.60 450.60 L 200.70 450.80 L 201.80 450.50 L 202.40 449.90 L 202.90 448.50 L 203.00 446.60 L 201.50 438.80 L 190.80 438.80 Z" fill="#151322" fill-rule="nonzero" node-id="158" stroke="none" target-height="69.5" target-width="38.299988" target-x="169.1" target-y="404.1"></path><path d="M 162.70 426.20 L 168.80 424.10 L 171.90 423.60 L 176.70 423.30 L 181.60 423.60 L 191.20 425.20 L 178.30 427.80 L 173.10 447.10 L 169.10 466.80 L 161.80 465.40 L 154.50 464.40 L 154.20 449.20 L 155.00 440.70 L 156.90 434.40 L 158.30 431.50 L 160.20 428.80 L 162.70 426.20 Z" fill="#50556e" fill-rule="nonzero" node-id="160" stroke="none" target-height="43.5" target-width="37" target-x="154.2" target-y="423.3"></path><path d="M 345.50 434.00 L 348.50 432.10 L 351.40 430.70 L 354.30 429.90 L 360.40 429.70 L 363.50 430.10 L 368.10 431.30 L 372.70 433.00 L 381.50 436.90 L 370.60 442.60 L 368.80 444.00 L 367.30 445.80 L 366.20 448.00 L 368.10 450.00 L 370.30 451.60 L 379.90 457.10 L 379.40 465.70 L 379.40 470.00 L 380.60 476.90 L 382.90 482.20 L 381.80 484.60 L 375.00 482.80 L 374.50 462.80 L 371.50 460.30 L 368.90 457.60 L 366.70 454.70 L 364.80 451.60 L 362.90 447.10 L 361.50 442.40 L 360.70 437.30 L 348.70 443.50 L 344.90 446.00 L 340.40 449.80 L 338.50 452.10 L 337.20 454.50 L 335.60 459.40 L 335.20 463.20 L 335.90 471.10 L 338.00 482.80 L 327.30 483.20 L 316.80 484.00 L 315.30 467.30 L 315.50 456.00 L 317.00 445.00 L 318.30 439.50 L 320.20 434.20 L 318.20 446.30 L 317.80 458.50 L 318.80 470.70 L 321.50 482.70 L 324.20 469.00 L 326.00 462.10 L 328.30 455.40 L 330.10 451.10 L 332.30 447.10 L 334.90 443.30 L 337.90 439.90 L 341.40 436.80 L 345.50 434.00 Z" fill="#667176" fill-rule="nonzero" node-id="162" stroke="none" target-height="54.899994" target-width="67.600006" target-x="315.3" target-y="429.7"></path><path d="M 445.00 433.50 L 457.20 439.20 L 493.00 457.70 L 509.20 465.40 L 525.00 471.70 L 532.50 474.30 L 551.80 479.80 L 563.50 482.50 L 587.00 487.40 L 586.60 484.50 L 589.10 464.80 L 590.40 475.70 L 591.30 486.60 L 591.90 508.60 L 565.00 504.40 L 551.50 501.70 L 538.20 498.60 L 525.00 494.90 L 511.90 490.80 L 502.20 487.40 L 492.70 483.60 L 474.10 475.00 L 465.10 470.20 L 456.30 465.00 L 447.80 459.40 L 439.40 453.40 L 445.00 433.50 Z" fill="#517d53" fill-rule="nonzero" node-id="164" stroke="none" target-height="75.100006" target-width="152.50003" target-x="439.4" target-y="433.5"></path><path d="M 338.50 452.10 L 340.40 449.80 L 344.90 446.00 L 348.70 443.50 L 360.70 437.30 L 361.50 442.40 L 362.90 447.10 L 364.80 451.60 L 366.70 454.70 L 368.90 457.60 L 371.50 460.30 L 374.50 462.80 L 374.70 477.50 L 370.90 479.60 L 367.10 481.20 L 363.10 482.30 L 359.00 482.90 L 350.60 483.30 L 338.00 482.80 L 335.90 471.10 L 335.20 463.20 L 335.60 459.40 L 336.20 456.90 L 338.50 452.10 Z" fill="#0b0b0a" fill-rule="nonzero" node-id="166" stroke="none" target-height="46" target-width="39.5" target-x="335.2" target-y="437.3"></path><path d="M 426.40 455.60 L 436.50 461.90 L 441.40 503.70 L 442.30 521.70 L 442.20 530.70 L 430.40 523.80 L 434.40 537.10 L 431.90 546.00 L 428.80 554.80 L 426.40 560.50 L 423.60 566.00 L 420.50 571.30 L 416.90 576.20 L 412.70 580.80 L 408.00 585.10 L 407.40 579.70 L 411.70 573.50 L 415.50 567.00 L 418.80 560.30 L 421.60 553.40 L 423.80 546.30 L 425.50 539.00 L 426.30 533.50 L 426.70 522.20 L 426.30 511.70 L 424.70 506.20 L 420.00 496.90 L 433.40 501.30 L 432.30 489.70 L 430.80 478.30 L 428.90 466.90 L 426.40 455.60 Z" fill="#474c2c" fill-rule="nonzero" node-id="168" stroke="none" target-height="129.49997" target-width="34.899994" target-x="407.4" target-y="455.6"></path><path d="M 809.50 458.50 L 814.00 466.00 L 816.20 471.40 L 822.10 496.80 L 824.10 508.30 L 821.90 512.60 L 819.30 516.50 L 816.20 520.00 L 812.80 523.20 L 809.10 526.00 L 805.00 528.60 L 798.70 532.10 L 792.10 535.20 L 779.00 540.70 L 768.20 509.10 L 780.20 501.20 L 791.60 492.60 L 798.50 486.00 L 801.60 482.40 L 802.90 480.60 L 803.80 478.70 L 804.30 476.70 L 804.50 473.60 L 804.20 464.10 L 809.50 458.50 Z" fill="#4c794b" fill-rule="nonzero" node-id="170" stroke="none" target-height="82.20001" target-width="55.899963" target-x="768.2" target-y="458.5"></path><path d="M 438.10 477.00 L 436.50 461.90 L 460.10 477.50 L 468.20 482.20 L 476.60 486.60 L 496.10 495.00 L 507.30 499.10 L 518.50 502.60 L 529.90 505.80 L 552.90 511.10 L 570.40 514.40 L 587.90 517.30 L 623.00 522.40 L 619.70 532.70 L 581.60 528.00 L 562.60 524.90 L 543.80 521.20 L 531.40 518.30 L 506.70 511.50 L 488.20 505.60 L 479.00 502.40 L 469.90 498.80 L 464.00 496.00 L 452.80 489.70 L 447.60 485.90 L 442.70 481.70 L 438.10 477.00 Z" fill="#82af73" fill-rule="nonzero" node-id="172" stroke="none" target-height="70.80002" target-width="186.5" target-x="436.5" target-y="461.9"></path><path d="M 764.40 497.90 L 784.80 481.60 L 794.70 473.00 L 804.20 464.10 L 804.50 473.60 L 803.80 478.70 L 802.90 480.60 L 801.60 482.40 L 798.50 486.00 L 791.60 492.60 L 780.20 501.20 L 768.20 509.10 L 764.40 497.90 Z" fill="#7eb575" fill-rule="nonzero" node-id="174" stroke="none" target-height="45" target-width="40.099976" target-x="764.4" target-y="464.1"></path><path d="M 197.40 479.50 L 203.10 477.00 L 208.90 474.80 L 214.90 473.00 L 221.00 471.60 L 227.20 470.60 L 233.40 470.00 L 239.60 469.80 L 245.90 470.00 L 252.10 470.70 L 258.20 471.70 L 264.30 473.20 L 270.20 475.00 L 251.10 480.00 L 232.80 480.10 L 214.50 481.90 L 218.00 484.00 L 221.60 485.80 L 225.20 487.10 L 230.90 488.60 L 242.70 490.10 L 260.60 491.10 L 245.70 498.80 L 240.60 500.80 L 237.00 501.80 L 233.40 502.30 L 229.60 502.50 L 223.00 501.70 L 203.50 497.50 L 197.70 487.40 L 197.40 479.50 Z" fill="#9e563d" fill-rule="nonzero" node-id="176" stroke="none" target-height="32.700012" target-width="72.80002" target-x="197.4" target-y="469.8"></path><path d="M 127.70 477.00 L 130.30 476.40 L 132.00 476.40 L 133.10 476.70 L 133.80 477.50 L 134.20 478.60 L 134.20 480.30 L 133.60 482.90 L 131.00 483.50 L 129.30 483.50 L 128.10 483.20 L 127.40 482.50 L 127.00 481.30 L 127.10 479.60 L 127.70 477.00 Z" fill="#bc9c6a" fill-rule="nonzero" node-id="178" stroke="none" target-height="7.100006" target-width="7.199997" target-x="127" target-y="476.4"></path><path d="M 251.10 480.00 L 270.20 475.00 L 279.80 487.00 L 276.40 491.50 L 272.70 495.70 L 268.60 499.60 L 264.40 503.10 L 255.10 509.30 L 245.10 514.40 L 239.80 516.50 L 247.40 522.50 L 255.50 528.00 L 259.80 530.30 L 264.30 531.90 L 267.30 532.70 L 270.60 533.10 L 277.50 533.20 L 281.00 532.80 L 284.30 532.10 L 289.10 530.40 L 293.70 528.00 L 302.50 522.30 L 310.80 516.10 L 302.50 504.20 L 311.30 507.00 L 329.60 510.20 L 322.80 516.50 L 348.00 531.40 L 331.70 524.20 L 315.80 516.20 L 301.90 535.30 L 292.20 547.60 L 286.80 553.30 L 283.00 556.80 L 274.50 563.00 L 269.10 566.00 L 263.40 568.60 L 257.50 570.70 L 251.40 572.40 L 245.30 573.40 L 239.10 574.00 L 232.80 574.00 L 226.70 573.40 L 220.60 572.20 L 216.20 570.80 L 211.90 569.10 L 207.70 567.00 L 203.60 564.50 L 199.80 561.20 L 196.30 557.60 L 190.30 549.70 L 185.20 541.10 L 182.00 534.30 L 179.10 527.20 L 174.20 513.10 L 176.70 508.60 L 184.00 518.50 L 186.20 520.60 L 188.80 522.30 L 193.40 522.30 L 202.60 521.30 L 222.90 516.90 L 229.70 515.80 L 219.90 511.30 L 215.20 508.60 L 210.90 505.40 L 208.20 503.10 L 203.50 497.50 L 223.00 501.70 L 229.60 502.50 L 233.40 502.30 L 237.00 501.80 L 240.60 500.80 L 245.70 498.80 L 250.80 496.40 L 268.10 487.20 L 251.10 480.00 Z M 221.80 525.10 L 213.30 526.30 L 187.60 530.90 L 192.50 540.70 L 198.30 550.20 L 201.70 554.50 L 205.60 558.30 L 208.40 560.50 L 214.90 564.20 L 220.00 565.90 L 225.10 567.10 L 230.30 567.90 L 235.60 568.20 L 240.90 568.00 L 246.20 567.40 L 251.30 566.30 L 256.40 564.80 L 261.40 562.90 L 266.10 560.60 L 270.60 557.90 L 274.90 554.80 L 278.90 551.40 L 282.50 547.60 L 285.80 543.40 L 288.70 538.90 L 272.90 538.60 L 264.30 537.30 L 260.90 536.40 L 253.20 533.50 L 240.20 527.90 L 235.70 526.40 L 228.20 524.90 L 221.80 525.10 Z" fill="#5d2d26" fill-rule="nonzero" node-id="180" stroke="none" target-height="99" target-width="173.8" target-x="174.2" target-y="475"></path><path d="M 438.10 477.00 L 442.70 481.70 L 447.60 485.90 L 452.80 489.70 L 464.00 496.00 L 469.90 498.80 L 479.00 502.40 L 488.20 505.60 L 506.70 511.50 L 531.40 518.30 L 543.80 521.20 L 562.60 524.90 L 581.60 528.00 L 619.70 532.70 L 623.00 522.40 L 625.30 551.00 L 626.70 579.70 L 601.50 579.40 L 576.20 578.60 L 563.60 577.60 L 551.10 576.10 L 534.60 573.00 L 526.40 570.90 L 516.50 567.70 L 506.70 564.20 L 487.60 556.00 L 469.10 546.60 L 455.50 538.90 L 442.20 530.70 L 442.30 521.70 L 441.40 503.70 L 438.10 477.00 Z" fill="#4d7d51" fill-rule="nonzero" node-id="182" stroke="none" target-height="102.70001" target-width="188.6" target-x="438.1" target-y="477"></path><path d="M 193.40 480.30 L 203.50 497.50 L 208.20 503.10 L 210.90 505.40 L 215.20 508.60 L 219.90 511.30 L 229.70 515.80 L 222.90 516.90 L 202.60 521.30 L 193.40 522.30 L 188.80 522.30 L 186.20 520.60 L 184.00 518.50 L 176.70 508.60 L 193.40 480.30 Z" fill="#f6efc5" fill-rule="nonzero" node-id="184" stroke="none" target-height="42" target-width="53" target-x="176.7" target-y="480.3"></path><path d="M 214.50 481.90 L 232.80 480.10 L 251.10 480.00 L 268.10 487.20 L 260.60 491.10 L 236.80 489.60 L 230.90 488.60 L 225.20 487.10 L 221.60 485.80 L 218.00 484.00 L 214.50 481.90 Z" fill="#e9cd9c" fill-rule="nonzero" node-id="186" stroke="none" target-height="11.100006" target-width="53.600006" target-x="214.5" target-y="480"></path><path d="M 745.00 480.40 L 753.90 493.60 L 744.40 497.90 L 734.80 501.60 L 725.00 504.60 L 715.10 507.20 L 705.10 509.20 L 695.00 510.80 L 674.50 512.90 L 664.20 513.40 L 648.60 513.70 L 633.10 513.50 L 602.40 512.40 L 613.80 494.60 L 641.30 494.90 L 655.00 494.50 L 668.80 493.80 L 682.40 492.70 L 696.10 491.10 L 709.60 489.10 L 723.10 486.60 L 736.60 483.50 L 746.30 490.00 L 745.00 480.40 Z" fill="#578254" fill-rule="nonzero" node-id="188" stroke="none" target-height="33.30002" target-width="151.5" target-x="602.4" target-y="480.4"></path><path d="M 279.80 487.00 L 296.70 486.40 L 299.30 495.40 L 302.50 504.20 L 310.80 516.10 L 302.50 522.30 L 293.70 528.00 L 289.10 530.40 L 284.30 532.10 L 281.00 532.80 L 277.50 533.20 L 270.60 533.10 L 267.30 532.70 L 264.30 531.90 L 259.80 530.30 L 255.50 528.00 L 251.40 525.40 L 239.80 516.50 L 245.10 514.40 L 255.10 509.30 L 264.40 503.10 L 268.60 499.60 L 272.70 495.70 L 276.40 491.50 L 279.80 487.00 Z" fill="#ece5ca" fill-rule="nonzero" node-id="190" stroke="none" target-height="46.80002" target-width="70.999985" target-x="239.8" target-y="486.4"></path><path d="M 147.00 498.30 L 155.80 498.00 L 164.50 498.10 L 173.30 498.70 L 182.00 499.80 L 174.20 513.10 L 160.50 506.00 L 147.00 498.30 Z" fill="#c5ae74" fill-rule="nonzero" node-id="192" stroke="none" target-height="15.099976" target-width="35" target-x="147" target-y="498"></path><path d="M 730.20 510.80 L 749.40 504.20 L 754.30 503.10 L 759.40 502.50 L 762.00 509.00 L 757.40 512.10 L 747.50 517.60 L 737.10 521.80 L 720.80 526.00 L 709.80 528.20 L 698.70 529.90 L 687.50 531.20 L 665.10 532.80 L 648.30 533.30 L 628.40 533.50 L 628.90 520.80 L 645.90 521.20 L 663.00 520.90 L 674.30 520.40 L 685.60 519.50 L 696.90 518.10 L 708.10 516.30 L 719.20 513.80 L 730.20 510.80 Z" fill="#76ab6c" fill-rule="nonzero" node-id="194" stroke="none" target-height="31" target-width="133.59998" target-x="628.4" target-y="502.5"></path><path d="M 762.00 509.00 L 767.70 524.50 L 770.70 535.10 L 771.60 540.50 L 770.40 542.70 L 768.90 544.40 L 764.80 547.10 L 746.20 556.10 L 736.40 560.30 L 726.40 563.90 L 716.30 567.00 L 706.00 569.70 L 685.20 574.10 L 664.10 577.10 L 648.20 578.70 L 632.30 579.90 L 631.20 556.70 L 631.10 545.10 L 631.40 533.50 L 648.30 533.30 L 676.40 532.20 L 698.70 529.90 L 709.80 528.20 L 720.80 526.00 L 731.70 523.40 L 742.40 519.80 L 752.50 515.00 L 762.00 509.00 Z" fill="#4a774c" fill-rule="nonzero" node-id="196" stroke="none" target-height="70.900024" target-width="140.5" target-x="631.1" target-y="509"></path><path d="M 833.40 513.90 L 836.40 513.10 L 839.40 512.80 L 842.40 513.00 L 845.30 513.70 L 850.90 516.10 L 853.50 517.80 L 858.00 521.80 L 841.80 523.40 L 837.80 524.30 L 833.90 525.60 L 824.80 531.20 L 811.70 540.60 L 807.20 543.50 L 801.40 542.70 L 816.70 527.50 L 822.00 522.70 L 827.50 518.10 L 833.40 513.90 Z" fill="#75a170" fill-rule="nonzero" node-id="198" stroke="none" target-height="30.700012" target-width="56.599976" target-x="801.4" target-y="512.8"></path><path d="M 394.80 561.70 L 398.70 559.00 L 405.60 552.80 L 408.70 549.30 L 412.50 544.30 L 415.90 539.10 L 418.90 533.60 L 423.00 525.10 L 426.40 516.40 L 426.70 522.20 L 426.30 533.50 L 425.50 539.00 L 423.80 546.30 L 421.60 553.40 L 418.80 560.30 L 415.50 567.00 L 411.70 573.50 L 407.40 579.70 L 398.50 587.70 L 389.30 595.10 L 379.70 602.10 L 369.80 608.60 L 359.70 614.80 L 349.30 620.50 L 343.60 623.10 L 337.80 625.20 L 331.90 626.70 L 325.80 627.70 L 319.70 628.30 L 313.50 628.50 L 304.20 628.20 L 294.90 627.40 L 276.60 625.00 L 244.70 619.70 L 227.10 616.00 L 213.30 612.00 L 203.20 607.50 L 193.20 602.60 L 199.00 601.40 L 210.60 600.10 L 219.40 599.80 L 245.80 600.00 L 254.60 599.60 L 263.30 598.70 L 304.30 593.00 L 327.10 588.90 L 344.90 584.60 L 353.70 581.90 L 362.30 578.90 L 370.70 575.40 L 378.90 571.40 L 386.90 566.90 L 394.80 561.70 Z" fill="#e3cd86" fill-rule="nonzero" node-id="200" stroke="none" target-height="112.099976" target-width="233.50002" target-x="193.2" target-y="516.4"></path><path d="M 221.80 525.10 L 228.20 524.90 L 235.70 526.40 L 240.20 527.90 L 253.20 533.50 L 260.90 536.40 L 264.30 537.30 L 272.90 538.60 L 288.70 538.90 L 285.80 543.40 L 282.50 547.60 L 278.90 551.40 L 274.90 554.80 L 270.60 557.90 L 266.10 560.60 L 261.40 562.90 L 256.40 564.80 L 251.30 566.30 L 246.20 567.40 L 240.90 568.00 L 235.60 568.20 L 230.30 567.90 L 225.10 567.10 L 220.00 565.90 L 214.90 564.20 L 211.50 562.50 L 205.60 558.30 L 201.70 554.50 L 198.30 550.20 L 195.30 545.60 L 192.50 540.70 L 187.60 530.90 L 213.30 526.30 L 221.80 525.10 Z" fill="#c7746b" fill-rule="nonzero" node-id="202" stroke="none" target-height="43.299988" target-width="101.100006" target-x="187.6" target-y="524.9"></path><path d="M 833.90 525.60 L 837.80 524.30 L 841.70 523.40 L 861.60 521.60 L 859.30 528.20 L 853.90 541.20 L 850.70 547.40 L 847.20 553.40 L 843.20 559.20 L 838.90 564.60 L 834.10 569.80 L 828.90 574.60 L 817.90 559.10 L 807.20 543.50 L 811.70 540.60 L 824.80 531.20 L 833.90 525.60 Z" fill="#568352" fill-rule="nonzero" node-id="204" stroke="none" target-height="53" target-width="54.399963" target-x="807.2" target-y="521.6"></path><path d="M 434.40 537.10 L 440.70 540.60 L 439.20 555.00 L 438.00 560.90 L 436.30 566.60 L 431.60 577.50 L 428.70 582.80 L 419.30 598.20 L 408.80 590.50 L 408.00 585.10 L 412.70 580.80 L 416.90 576.20 L 420.50 571.30 L 423.60 566.00 L 426.40 560.50 L 428.80 554.80 L 431.90 546.00 L 434.40 537.10 Z" fill="#487146" fill-rule="nonzero" node-id="206" stroke="none" target-height="61.100037" target-width="32.700012" target-x="408" target-y="537.1"></path><path d="M 439.80 549.00 L 440.70 540.60 L 453.50 548.20 L 466.60 555.40 L 479.80 562.20 L 493.30 568.60 L 506.90 574.60 L 520.80 580.20 L 516.60 588.00 L 489.80 577.40 L 472.30 569.40 L 463.80 565.00 L 455.50 560.20 L 447.50 554.80 L 439.80 549.00 Z" fill="#81b26e" fill-rule="nonzero" node-id="208" stroke="none" target-height="47.400024" target-width="81" target-x="439.8" target-y="540.6"></path><path d="M 439.80 549.00 L 447.50 554.80 L 455.50 560.20 L 463.80 565.00 L 472.30 569.40 L 489.80 577.40 L 516.60 588.00 L 503.00 611.90 L 488.40 635.30 L 479.10 632.10 L 469.90 628.40 L 461.00 624.30 L 452.20 619.80 L 443.70 614.90 L 427.20 604.00 L 419.30 598.20 L 428.70 582.80 L 434.10 572.10 L 436.30 566.60 L 438.00 560.90 L 439.20 555.00 L 439.80 549.00 Z" fill="#5c8b57" fill-rule="nonzero" node-id="210" stroke="none" target-height="86.29999" target-width="97.29999" target-x="419.3" target-y="549"></path><path d="M 745.50 566.70 L 768.10 554.20 L 773.90 551.50 L 779.80 549.20 L 783.90 548.00 L 792.30 546.60 L 796.00 548.00 L 799.30 549.80 L 802.20 552.00 L 807.50 557.20 L 813.00 565.00 L 821.20 580.00 L 816.00 584.70 L 810.60 588.90 L 798.90 596.40 L 786.60 602.70 L 777.00 606.70 L 767.20 610.30 L 745.50 566.70 Z" fill="#6b9a5f" fill-rule="nonzero" node-id="212" stroke="none" target-height="63.700012" target-width="75.70001" target-x="745.5" target-y="546.6"></path><path d="M 132.50 563.70 L 132.40 558.00 L 141.40 566.90 L 150.80 575.30 L 157.30 580.70 L 171.00 590.50 L 178.20 594.90 L 185.60 598.90 L 203.20 607.50 L 213.30 612.00 L 204.70 615.90 L 198.00 613.50 L 191.50 610.80 L 185.10 607.70 L 175.80 602.50 L 166.90 596.70 L 158.20 590.50 L 144.80 580.10 L 141.40 586.30 L 136.70 597.30 L 134.20 606.40 L 133.50 611.10 L 133.40 615.80 L 133.70 620.70 L 138.70 625.70 L 141.40 627.90 L 144.30 629.80 L 148.60 631.40 L 163.60 632.70 L 184.60 633.20 L 203.40 632.30 L 206.80 631.20 L 209.00 629.80 L 211.10 628.00 L 218.30 619.70 L 246.70 627.00 L 238.50 638.30 L 236.20 640.80 L 233.60 643.00 L 229.60 645.00 L 227.20 645.60 L 220.10 646.90 L 213.10 647.60 L 199.00 647.90 L 184.90 646.80 L 174.30 645.40 L 142.80 640.20 L 139.70 638.70 L 137.00 636.80 L 134.50 634.40 L 130.50 628.90 L 128.90 625.80 L 127.00 620.90 L 125.90 616.00 L 126.10 611.20 L 126.80 606.60 L 127.90 602.00 L 130.30 595.30 L 133.30 588.80 L 140.00 576.20 L 134.00 568.20 L 133.00 566.10 L 132.50 563.70 Z" fill="#51734b" fill-rule="nonzero" node-id="214" stroke="none" target-height="89.900024" target-width="120.799995" target-x="125.9" target-y="558"></path><path d="M 721.50 573.80 L 724.80 572.60 L 728.10 571.90 L 731.40 571.70 L 734.70 572.00 L 738.00 572.90 L 741.20 574.30 L 736.20 577.10 L 725.70 581.70 L 714.80 585.00 L 709.20 586.20 L 673.60 593.00 L 661.70 595.00 L 649.80 596.50 L 633.70 597.70 L 637.70 592.20 L 640.40 590.10 L 641.80 589.60 L 669.80 585.90 L 682.90 583.70 L 695.90 581.10 L 704.50 579.00 L 721.50 573.80 Z" fill="#96c07e" fill-rule="nonzero" node-id="216" stroke="none" target-height="26" target-width="107.5" target-x="633.7" target-y="571.7"></path><path d="M 741.20 574.30 L 755.40 599.70 L 748.70 604.10 L 741.90 608.00 L 727.80 614.80 L 713.20 620.40 L 702.00 624.00 L 667.90 633.90 L 656.60 637.30 L 645.60 641.20 L 643.50 634.00 L 640.50 619.50 L 638.90 608.50 L 637.80 597.40 L 649.80 596.50 L 661.70 595.00 L 673.60 593.00 L 714.80 585.00 L 725.70 581.70 L 731.00 579.50 L 741.20 574.30 Z" fill="#6e9863" fill-rule="nonzero" node-id="218" stroke="none" target-height="66.900024" target-width="117.60004" target-x="637.8" target-y="574.3"></path><path d="M 144.80 580.10 L 149.70 584.10 L 145.50 596.70 L 142.90 602.90 L 138.60 611.90 L 133.70 620.70 L 133.40 615.80 L 133.50 611.10 L 134.20 606.40 L 136.70 597.30 L 138.40 592.80 L 141.40 586.30 L 144.80 580.10 Z" fill="#afc27f" fill-rule="nonzero" node-id="220" stroke="none" target-height="40.600037" target-width="16.300003" target-x="133.4" target-y="580.1"></path><path d="M 528.50 581.30 L 549.80 584.80 L 576.80 587.50 L 593.00 588.50 L 625.50 589.60 L 631.70 613.20 L 633.40 621.10 L 635.90 637.20 L 631.40 631.30 L 627.50 625.10 L 624.20 618.60 L 618.70 605.10 L 616.50 598.10 L 569.40 595.80 L 553.80 594.80 L 538.10 593.30 L 522.60 591.40 L 528.50 581.30 Z" fill="#99c37f" fill-rule="nonzero" node-id="222" stroke="none" target-height="55.900024" target-width="113.30005" target-x="522.6" target-y="581.3"></path><path d="M 149.70 584.10 L 166.90 596.70 L 175.80 602.50 L 185.10 607.70 L 191.50 610.80 L 198.00 613.50 L 204.70 615.90 L 218.30 619.70 L 211.10 628.00 L 209.00 629.80 L 206.80 631.20 L 203.40 632.30 L 184.60 633.20 L 163.60 632.70 L 148.60 631.40 L 144.30 629.80 L 141.40 627.90 L 138.70 625.70 L 133.70 620.70 L 138.60 611.90 L 142.90 602.90 L 147.80 590.50 L 149.70 584.10 Z" fill="#759e6a" fill-rule="nonzero" node-id="224" stroke="none" target-height="49.100037" target-width="84.600006" target-x="133.7" target-y="584.1"></path><path d="M 499.50 632.40 L 506.80 618.50 L 514.50 604.80 L 522.60 591.40 L 538.10 593.30 L 553.80 594.80 L 569.40 595.80 L 616.50 598.10 L 618.70 605.10 L 624.20 618.60 L 627.50 625.10 L 631.40 631.30 L 635.90 637.20 L 621.50 639.40 L 603.30 640.30 L 546.60 639.40 L 534.70 638.70 L 522.80 637.50 L 515.00 636.30 L 507.20 634.60 L 499.50 632.40 Z" fill="#6e9a65" fill-rule="nonzero" node-id="226" stroke="none" target-height="48.899963" target-width="136.40002" target-x="499.5" target-y="591.4"></path><path d="M 750.20 627.10 L 776.30 616.00 L 789.10 610.10 L 801.80 603.90 L 818.10 594.50 L 826.00 589.30 L 824.80 594.50 L 823.10 599.40 L 821.00 604.00 L 818.50 608.30 L 812.40 616.30 L 805.10 623.40 L 799.70 627.70 L 794.00 631.70 L 788.10 635.30 L 778.90 640.20 L 767.50 645.60 L 765.50 646.00 L 763.80 645.90 L 762.20 645.30 L 759.30 643.20 L 757.50 640.90 L 750.20 627.10 Z" fill="#cdad4a" fill-rule="nonzero" node-id="228" stroke="none" target-height="56.700012" target-width="75.79999" target-x="750.2" target-y="589.3"></path><path d="M 400.40 593.90 L 426.90 613.60 L 445.10 625.80 L 454.50 631.50 L 464.10 636.70 L 474.00 641.40 L 484.30 645.60 L 478.40 663.30 L 475.00 672.20 L 471.30 680.90 L 467.20 689.50 L 462.70 697.80 L 457.80 705.80 L 452.50 713.50 L 446.60 720.80 L 441.90 726.00 L 436.90 730.90 L 431.60 735.50 L 425.90 739.90 L 419.50 744.30 L 412.90 748.40 L 406.10 752.20 L 399.00 755.50 L 391.80 758.50 L 384.50 761.10 L 377.10 763.30 L 369.50 765.10 L 361.80 766.60 L 354.10 767.60 L 346.40 768.20 L 338.60 768.40 L 330.80 768.20 L 323.10 767.60 L 315.40 766.50 L 307.70 765.00 L 301.30 763.00 L 294.00 759.10 L 289.90 756.20 L 282.10 749.80 L 289.60 743.50 L 298.90 746.00 L 308.30 748.00 L 317.90 749.60 L 327.50 750.60 L 337.10 751.00 L 346.70 750.80 L 353.90 750.30 L 361.10 749.30 L 368.20 747.90 L 382.60 744.10 L 389.80 741.60 L 396.70 738.60 L 403.40 735.10 L 409.90 731.20 L 416.10 726.90 L 422.10 722.20 L 427.70 717.10 L 433.10 711.70 L 438.10 706.10 L 442.70 700.10 L 447.10 693.80 L 451.00 687.30 L 454.50 680.60 L 457.60 673.70 L 460.30 666.60 L 461.90 660.50 L 462.70 654.10 L 462.50 652.10 L 461.40 648.30 L 460.40 646.70 L 458.90 645.30 L 456.90 644.00 L 451.60 640.70 L 440.70 635.20 L 432.20 631.70 L 423.50 628.60 L 388.40 617.20 L 400.40 593.90 Z" fill="#5a8153" fill-rule="nonzero" node-id="230" stroke="none" target-height="174.5" target-width="202.19998" target-x="282.1" target-y="593.9"></path><path d="M 380.20 611.00 L 381.70 608.80 L 385.40 605.00 L 388.50 602.70 L 398.90 596.80 L 388.40 617.20 L 423.50 628.60 L 432.20 631.70 L 440.70 635.20 L 451.60 640.70 L 458.90 645.30 L 460.40 646.70 L 462.10 650.10 L 462.70 654.10 L 461.90 660.50 L 460.30 666.60 L 457.60 673.70 L 454.50 680.60 L 451.00 687.30 L 447.10 693.80 L 442.70 700.10 L 438.10 706.10 L 433.10 711.70 L 427.70 717.10 L 422.10 722.20 L 416.10 726.90 L 409.90 731.20 L 403.40 735.10 L 396.70 738.60 L 389.80 741.60 L 382.60 744.10 L 368.20 747.90 L 361.10 749.30 L 353.90 750.30 L 346.70 750.80 L 337.10 751.00 L 327.50 750.60 L 317.90 749.60 L 308.30 748.00 L 298.90 746.00 L 289.60 743.50 L 282.10 749.80 L 279.50 742.90 L 277.60 735.80 L 284.60 707.50 L 288.90 693.60 L 292.80 684.80 L 295.20 680.50 L 299.10 674.70 L 303.40 669.30 L 308.10 664.40 L 318.40 655.30 L 323.90 651.30 L 332.60 645.60 L 341.60 640.30 L 364.10 628.30 L 368.00 625.60 L 371.50 622.40 L 374.70 618.90 L 377.60 615.10 L 380.20 611.00 Z" fill="#87ab68" fill-rule="nonzero" node-id="232" stroke="none" target-height="154.20001" target-width="185.1" target-x="277.6" target-y="596.8"></path><path d="M 755.40 599.70 L 758.60 613.20 L 730.70 624.20 L 716.70 629.40 L 693.00 637.30 L 673.70 642.40 L 664.00 644.50 L 654.20 646.20 L 644.20 647.50 L 645.60 641.20 L 656.60 637.30 L 667.90 633.90 L 702.00 624.00 L 720.60 617.70 L 735.00 611.60 L 741.90 608.00 L 748.70 604.10 L 755.40 599.70 Z" fill="#527750" fill-rule="nonzero" node-id="234" stroke="none" target-height="47.799988" target-width="114.39996" target-x="644.2" target-y="599.7"></path><path d="M 296.70 664.10 L 302.50 658.00 L 308.60 652.40 L 315.10 647.30 L 328.70 637.90 L 346.70 627.60 L 380.20 611.00 L 377.60 615.10 L 374.70 618.90 L 371.50 622.40 L 368.00 625.60 L 364.10 628.30 L 341.60 640.30 L 332.60 645.60 L 323.90 651.30 L 313.10 659.70 L 308.10 664.40 L 303.40 669.30 L 299.10 674.70 L 295.20 680.50 L 292.80 684.80 L 288.90 693.60 L 284.60 707.50 L 277.60 735.80 L 275.40 726.20 L 274.80 716.60 L 275.20 710.20 L 276.20 703.90 L 277.70 697.60 L 279.80 691.50 L 282.40 685.50 L 285.40 679.80 L 288.90 674.20 L 292.60 669.00 L 296.70 664.10 Z" fill="#b0c39b" fill-rule="nonzero" node-id="236" stroke="none" target-height="124.79999" target-width="105.400024" target-x="274.8" target-y="611"></path><path d="M 657.10 655.60 L 686.10 647.40 L 700.50 643.10 L 714.80 638.40 L 733.60 631.20 L 742.80 627.10 L 742.40 635.10 L 742.60 638.20 L 743.20 641.20 L 744.80 645.40 L 747.00 649.60 L 749.60 653.50 L 755.20 661.20 L 762.40 671.90 L 766.50 679.10 L 770.30 686.60 L 784.20 716.90 L 788.10 724.30 L 790.10 715.70 L 795.50 728.50 L 784.00 727.20 L 772.40 726.40 L 737.20 724.30 L 725.60 723.00 L 718.00 721.80 L 703.00 718.30 L 695.70 715.80 L 688.50 712.80 L 681.40 709.10 L 675.40 705.60 L 669.80 701.60 L 664.60 697.10 L 659.70 692.30 L 655.30 687.10 L 651.10 681.50 L 647.40 675.70 L 644.10 669.70 L 641.10 663.40 L 657.10 655.60 Z" fill="#87ac67" fill-rule="nonzero" node-id="238" stroke="none" target-height="101.400024" target-width="154.40002" target-x="641.1" target-y="627.1"></path><path d="M 251.80 628.70 L 260.80 628.30 L 269.70 628.60 L 278.60 629.30 L 305.30 632.60 L 323.20 634.00 L 306.90 648.20 L 296.60 658.30 L 291.90 663.60 L 287.40 669.20 L 283.40 675.10 L 279.80 681.50 L 267.40 675.10 L 261.40 671.40 L 255.90 667.20 L 252.50 664.10 L 249.40 660.70 L 246.60 657.00 L 244.60 653.30 L 244.20 651.50 L 244.10 648.60 L 244.60 645.60 L 248.10 634.00 L 264.80 643.60 L 270.50 646.60 L 276.40 649.20 L 282.40 651.20 L 286.50 652.00 L 290.80 652.50 L 295.20 652.50 L 282.80 649.50 L 276.60 647.60 L 270.70 645.10 L 266.90 643.20 L 260.10 638.50 L 257.00 635.60 L 254.30 632.40 L 251.80 628.70 Z" fill="#dec14f" fill-rule="nonzero" node-id="240" stroke="none" target-height="53.200012" target-width="79.100006" target-x="244.1" target-y="628.3"></path><path d="M 495.90 641.00 L 499.50 632.40 L 507.20 634.60 L 515.00 636.30 L 522.80 637.50 L 534.70 638.70 L 546.60 639.40 L 603.30 640.30 L 621.50 639.40 L 638.30 636.80 L 634.80 650.80 L 619.30 651.40 L 588.30 651.70 L 572.70 651.30 L 557.20 650.40 L 541.80 649.00 L 530.20 647.60 L 507.30 643.60 L 495.90 641.00 Z" fill="#568255" fill-rule="nonzero" node-id="242" stroke="none" target-height="19.299988" target-width="142.4" target-x="495.9" target-y="632.4"></path><path d="M 757.80 665.00 L 749.60 653.50 L 747.00 649.60 L 744.80 645.40 L 743.20 641.20 L 742.60 638.20 L 742.40 635.10 L 742.70 631.80 L 753.00 643.00 L 757.80 649.00 L 764.40 658.30 L 770.70 667.90 L 782.00 687.80 L 787.90 701.30 L 789.30 706.00 L 790.00 709.20 L 790.20 712.40 L 790.10 715.70 L 788.10 724.30 L 784.20 716.90 L 770.30 686.60 L 766.50 679.10 L 762.40 671.90 L 757.80 665.00 Z" fill="#a1c07e" fill-rule="nonzero" node-id="244" stroke="none" target-height="92.5" target-width="47.799988" target-x="742.4" target-y="631.8"></path><path d="M 492.70 649.00 L 517.10 653.40 L 529.40 655.10 L 547.90 657.10 L 566.40 658.60 L 603.60 660.70 L 608.90 672.50 L 595.10 676.90 L 581.10 680.60 L 567.10 683.80 L 556.40 685.80 L 545.70 687.30 L 534.90 688.30 L 524.10 688.80 L 476.00 689.40 L 484.70 669.40 L 492.70 649.00 Z" fill="#ccb150" fill-rule="nonzero" node-id="246" stroke="none" target-height="40.400024" target-width="132.90002" target-x="476" target-y="649"></path><path d="M 613.10 662.30 L 624.00 659.80 L 634.90 657.80 L 649.70 656.00 L 657.10 655.60 L 641.10 663.40 L 644.10 669.70 L 647.40 675.70 L 651.10 681.50 L 655.30 687.10 L 659.70 692.30 L 664.60 697.10 L 669.80 701.60 L 675.40 705.60 L 681.40 709.10 L 688.50 712.80 L 695.70 715.80 L 703.00 718.30 L 710.40 720.20 L 725.60 723.00 L 737.20 724.30 L 784.10 727.20 L 795.50 728.50 L 787.60 734.90 L 784.70 736.60 L 780.40 737.90 L 763.70 739.20 L 749.10 739.70 L 729.70 739.30 L 720.00 738.50 L 710.40 737.30 L 700.90 735.60 L 691.60 733.30 L 677.90 728.80 L 664.50 722.70 L 658.50 719.40 L 652.80 715.80 L 647.40 711.70 L 642.40 707.30 L 637.60 702.50 L 633.20 697.40 L 629.10 692.10 L 625.20 686.50 L 620.60 678.70 L 616.60 670.60 L 613.10 662.30 Z" fill="#5e8353" fill-rule="nonzero" node-id="248" stroke="none" target-height="84.10004" target-width="182.40002" target-x="613.1" target-y="655.6"></path><path d="M 524.10 688.80 L 534.90 688.30 L 545.70 687.30 L 556.40 685.80 L 567.10 683.80 L 581.10 680.60 L 595.10 676.90 L 608.90 672.50 L 612.70 679.90 L 616.90 687.10 L 621.60 694.20 L 612.00 697.70 L 592.60 703.70 L 582.90 706.10 L 569.70 708.80 L 556.40 711.10 L 543.00 712.80 L 516.10 715.20 L 482.30 716.60 L 462.10 717.00 L 469.30 703.30 L 476.00 689.40 L 524.10 688.80 Z" fill="#ebcc59" fill-rule="nonzero" node-id="250" stroke="none" target-height="44.5" target-width="159.49997" target-x="462.1" target-y="672.5"></path><path d="M 462.10 717.00 L 482.30 716.60 L 516.10 715.20 L 543.00 712.80 L 556.40 711.10 L 569.70 708.80 L 582.90 706.10 L 592.60 703.70 L 612.00 697.70 L 621.60 694.20 L 626.60 700.60 L 617.30 703.00 L 589.60 711.40 L 580.30 713.80 L 561.80 717.50 L 543.50 720.10 L 515.90 722.30 L 483.30 724.10 L 478.50 723.90 L 473.70 723.20 L 464.30 720.90 L 459.70 719.20 L 462.10 717.00 Z" fill="#5d4b32" fill-rule="nonzero" node-id="252" stroke="none" target-height="29.899963" target-width="166.89996" target-x="459.7" target-y="694.2"></path></svg>