<?xml version="1.0" standalone="no"?><!DOCTYPE svg PUBLIC "-//W3C//DTD SVG 1.1//EN" "http://www.w3.org/Graphics/SVG/1.1/DTD/svg11.dtd"><svg t="1744680087963" class="icon" viewBox="0 0 1024 1024" version="1.1" xmlns="http://www.w3.org/2000/svg" p-id="53018" xmlns:xlink="http://www.w3.org/1999/xlink" width="256" height="256"><path d="M0 512C0 794.773854 229.226146 1024 512 1024S1024 794.773854 1024 512 794.773854 0 512 0 0 229.226146 0 512z" fill="#B688FF" p-id="53019"></path><path d="M245.310439 399.609756C144.60878 399.609756 55.320976 449.086439 0 525.287024 5.394732 743.873561 144.958439 928.768 338.71922 999.02439 460.974829 959.213268 549.463415 843.451317 549.463415 706.684878 549.463415 537.100488 413.321366 399.609756 245.310439 399.609756z" fill="#C3A4FF" p-id="53020"></path><path d="M663.751805 342.840195c25.000585 0 42.358634-27.722927 32.99278-53.198049C677.438439 237.043512 630.434341 199.804878 575.71278 199.804878h-120.632195C383.050927 199.804878 324.682927 263.842341 324.682927 342.840195V424.585366h71.480195v-81.745171c0-35.665171 26.39922-64.611902 58.917463-64.611902h120.632195c24.35122 0 45.330732 16.334049 54.247025 39.511414 5.794341 14.910439 18.407024 25.175415 33.192585 25.175415h0.599415v-0.074927z" fill="#D7C7FF" p-id="53021"></path><path d="M695.845463 374.634146H328.154537A103.473951 103.473951 0 0 0 224.780488 478.208v217.437659A103.473951 103.473951 0 0 0 328.154537 799.219512h367.690926A103.473951 103.473951 0 0 0 799.219512 695.645659v-217.437659A103.473951 103.473951 0 0 0 695.845463 374.634146z m-151.801756 219.960195v75.376391a32.043707 32.043707 0 1 1-64.012487 0v-75.376391a64.686829 64.686829 0 0 1-32.618147-56.195121 64.636878 64.636878 0 1 1 129.223805 0c0 24.126439-13.137171 45.056-32.593171 56.195121z" fill="#FFFFFF" p-id="53022"></path></svg>