<?xml version="1.0" standalone="no"?><!DOCTYPE svg PUBLIC "-//W3C//DTD SVG 1.1//EN" "http://www.w3.org/Graphics/SVG/1.1/DTD/svg11.dtd"><svg height="1024" node-id="1" sillyvg="true" template-height="1024" template-width="1024" version="1.1" viewBox="0 0 1024 1024" width="1024" xmlns="http://www.w3.org/2000/svg" xmlns:xlink="http://www.w3.org/1999/xlink"><defs node-id="43"></defs><path d="M 0.00 0.00 L 1024.00 0.00 L 1024.00 1024.00 L 0.00 1024.00 Z" fill="#ffffff" fill-rule="nonzero" node-id="45" stroke="none" target-height="1024" target-width="1024" target-x="0" target-y="0"></path><path d="M 362.10 382.80 L 366.10 382.60 L 370.00 382.90 L 373.70 383.60 L 380.90 386.20 L 387.30 390.10 L 390.30 392.60 L 393.80 396.20 L 396.90 400.30 L 399.50 404.70 L 401.10 408.20 L 403.10 415.40 L 403.60 419.20 L 403.70 423.00 L 403.30 426.80 L 402.50 430.50 L 401.10 434.30 L 396.40 431.20 L 395.70 425.90 L 395.10 423.30 L 394.10 420.90 L 392.80 418.90 L 391.00 417.30 L 387.80 416.10 L 382.90 415.60 L 380.20 415.70 L 377.70 416.30 L 375.30 417.30 L 373.20 418.70 L 371.40 420.40 L 369.80 422.30 L 368.50 424.50 L 367.60 426.90 L 367.20 429.40 L 367.10 432.10 L 367.60 434.90 L 381.30 442.00 L 377.00 454.70 L 373.20 467.50 L 359.30 468.20 L 350.10 467.70 L 345.70 466.80 L 340.00 464.70 L 337.30 463.10 L 335.20 460.50 L 331.90 454.90 L 330.10 450.30 L 325.80 436.00 L 332.60 420.30 L 344.20 417.20 L 349.80 415.10 L 355.30 412.50 L 362.70 406.30 L 363.20 400.40 L 363.20 394.50 L 362.10 382.80 Z" fill="#000000" fill-rule="nonzero" node-id="47" stroke="none" target-height="85.600006" target-width="77.900024" target-x="325.8" target-y="382.6"></path><path d="M 337.60 388.20 L 339.40 387.00 L 343.20 385.60 L 346.20 385.10 L 355.70 385.20 L 357.70 388.40 L 360.70 395.20 L 362.30 402.50 L 362.70 406.30 L 355.30 412.50 L 348.10 414.70 L 344.50 415.50 L 340.80 415.90 L 335.90 415.60 L 333.40 414.90 L 331.50 413.00 L 330.10 410.80 L 329.10 408.50 L 328.70 406.00 L 328.60 403.50 L 328.90 400.90 L 330.60 395.90 L 332.00 393.60 L 333.60 391.50 L 337.60 388.20 Z" fill="#fdfcfc" fill-rule="nonzero" node-id="49" stroke="none" target-height="30.799988" target-width="34.100006" target-x="328.6" target-y="385.1"></path><path d="M 148.30 505.70 L 151.60 501.20 L 158.90 493.10 L 162.90 489.50 L 168.70 485.10 L 174.80 481.10 L 181.20 477.60 L 187.80 474.50 L 194.60 471.70 L 201.40 469.40 L 207.40 469.90 L 186.90 481.20 L 173.70 489.60 L 167.60 494.40 L 163.80 497.80 L 157.10 505.50 L 154.20 509.80 L 151.80 514.40 L 149.70 519.40 L 149.70 523.80 L 150.20 528.20 L 151.70 533.80 L 152.90 536.50 L 161.80 549.60 L 157.40 548.10 L 151.80 544.30 L 145.70 538.50 L 142.50 534.70 L 142.50 524.60 L 143.10 519.60 L 144.10 514.70 L 145.20 511.60 L 148.30 505.70 Z" fill="#eff0f3" fill-rule="nonzero" node-id="51" stroke="none" target-height="80.19998" target-width="64.899994" target-x="142.5" target-y="469.4"></path><path d="M 608.00 541.90 L 618.00 539.80 L 632.40 542.80 L 644.30 546.00 L 656.00 549.80 L 664.70 552.90 L 673.10 556.50 L 681.40 560.50 L 698.20 569.80 L 706.50 575.20 L 714.40 581.10 L 722.00 587.40 L 729.20 594.20 L 736.00 601.30 L 742.40 608.80 L 748.40 616.70 L 753.90 625.00 L 758.90 633.50 L 763.40 642.30 L 770.90 660.10 L 773.90 669.10 L 776.30 678.10 L 778.30 687.40 L 779.70 696.70 L 780.60 706.10 L 781.00 715.50 L 781.00 725.00 L 780.40 734.40 L 779.30 743.80 L 777.70 753.10 L 775.70 762.30 L 768.50 771.90 L 766.60 764.30 L 763.10 741.20 L 761.60 733.60 L 759.60 726.10 L 754.10 712.10 L 750.90 705.30 L 747.20 698.60 L 743.10 692.40 L 738.60 686.40 L 730.90 678.20 L 722.00 671.10 L 708.80 654.10 L 695.30 637.50 L 690.20 629.40 L 684.70 621.60 L 676.70 611.80 L 650.90 585.80 L 640.10 575.30 L 628.90 565.10 L 621.20 558.60 L 613.20 552.40 L 605.00 546.60 L 608.00 541.90 Z" fill="#e1d5d7" fill-rule="nonzero" node-id="53" stroke="none" target-height="232.10004" target-width="176" target-x="605" target-y="539.8"></path><path d="M 367.60 434.90 L 367.10 432.10 L 367.20 429.40 L 367.60 426.90 L 368.50 424.50 L 369.80 422.30 L 371.40 420.40 L 373.20 418.70 L 375.30 417.30 L 377.70 416.30 L 380.20 415.70 L 382.90 415.60 L 387.80 416.10 L 389.60 416.50 L 391.00 417.30 L 392.80 418.90 L 394.10 420.90 L 395.10 423.30 L 395.70 425.90 L 396.40 431.20 L 377.30 434.50 L 367.60 434.90 Z" fill="#fdfdfc" fill-rule="nonzero" node-id="55" stroke="none" target-height="19.299988" target-width="29.299988" target-x="367.1" target-y="415.6"></path><path d="M 625.80 871.60 L 626.40 864.40 L 627.40 857.40 L 628.70 850.40 L 630.50 843.60 L 632.70 836.90 L 636.00 828.80 L 639.70 820.80 L 644.00 813.20 L 648.80 805.80 L 654.10 798.70 L 659.80 792.00 L 665.90 785.60 L 672.40 779.50 L 679.20 773.90 L 686.40 768.70 L 693.80 763.90 L 701.60 759.50 L 709.60 755.70 L 717.70 752.30 L 726.10 749.50 L 734.60 747.20 L 734.80 750.40 L 726.10 753.50 L 717.50 757.00 L 709.20 761.00 L 701.20 765.50 L 693.40 770.50 L 685.90 775.90 L 678.70 781.60 L 671.80 787.70 L 665.10 794.20 L 657.10 803.70 L 653.60 808.80 L 648.80 816.80 L 644.60 825.10 L 640.90 833.70 L 635.20 849.20 L 629.50 870.20 L 625.80 871.60 Z" fill="#f1f3f5" fill-rule="nonzero" node-id="57" stroke="none" target-height="124.39996" target-width="109" target-x="625.8" target-y="747.2"></path><path d="M 513.00 98.60 L 520.90 94.10 L 528.80 90.00 L 537.00 86.40 L 545.30 83.20 L 553.70 80.40 L 564.50 77.50 L 575.30 75.20 L 586.30 73.50 L 597.50 72.50 L 608.70 72.00 L 619.90 72.10 L 631.00 72.80 L 642.20 74.10 L 653.30 75.80 L 664.20 78.10 L 675.00 80.90 L 685.60 84.20 L 703.30 91.30 L 714.70 97.20 L 720.10 100.60 L 725.20 104.30 L 729.90 108.60 L 734.30 113.30 L 736.80 116.60 L 740.80 123.70 L 742.20 127.60 L 743.70 132.90 L 744.50 138.20 L 744.70 143.70 L 744.40 147.90 L 742.90 155.80 L 741.60 159.70 L 739.90 163.50 L 737.80 167.00 L 735.40 170.30 L 729.40 176.60 L 726.00 179.30 L 722.30 181.60 L 716.50 184.60 L 691.90 194.50 L 686.20 197.60 L 682.60 200.00 L 679.20 202.80 L 674.00 208.70 L 672.20 211.60 L 670.70 214.80 L 669.70 218.10 L 669.00 221.50 L 668.80 224.90 L 669.00 228.30 L 669.80 231.50 L 671.00 234.60 L 673.80 238.70 L 675.70 240.50 L 689.60 250.40 L 700.90 259.00 L 712.00 268.00 L 722.80 277.30 L 733.30 287.00 L 743.40 297.00 L 753.20 307.30 L 762.60 318.00 L 771.70 329.00 L 780.30 340.40 L 789.20 353.20 L 797.60 366.20 L 805.50 379.40 L 813.00 393.00 L 820.10 406.80 L 826.80 420.80 L 832.90 435.00 L 838.60 449.40 L 843.90 464.00 L 848.60 478.80 L 852.90 493.70 L 856.70 508.70 L 859.90 523.90 L 862.70 539.10 L 865.00 554.40 L 866.80 569.90 L 868.00 585.30 L 868.70 600.70 L 868.90 616.20 L 868.50 631.80 L 867.20 653.00 L 863.80 679.30 L 861.30 695.00 L 855.40 726.30 L 871.00 736.30 L 880.60 744.00 L 885.00 748.30 L 889.30 753.30 L 897.00 763.90 L 900.40 769.50 L 904.50 777.30 L 908.10 785.20 L 911.10 793.50 L 913.60 801.90 L 915.50 810.40 L 917.00 819.10 L 918.20 829.60 L 920.10 871.90 L 921.30 882.50 L 922.10 896.40 L 922.00 910.60 L 921.50 915.30 L 919.70 924.40 L 918.30 928.70 L 916.50 933.00 L 914.20 937.20 L 911.80 940.60 L 909.10 943.50 L 905.90 946.00 L 902.50 948.10 L 898.90 949.70 L 895.00 950.90 L 891.00 951.70 L 887.00 952.00 L 882.90 951.90 L 878.90 951.30 L 875.00 950.30 L 871.30 948.80 L 868.10 946.60 L 862.40 941.70 L 847.10 924.70 L 841.40 919.80 L 838.20 917.70 L 831.90 914.30 L 825.40 911.60 L 818.70 909.30 L 791.30 901.20 L 778.00 896.10 L 771.60 892.90 L 765.50 889.20 L 747.80 876.90 L 736.00 882.10 L 730.00 884.10 L 720.70 886.70 L 711.30 888.60 L 701.80 890.20 L 668.30 894.80 L 663.70 896.20 L 659.30 898.10 L 642.20 907.10 L 637.70 908.90 L 631.60 910.60 L 628.30 911.00 L 620.30 910.80 L 612.10 909.40 L 608.30 908.10 L 604.70 906.30 L 599.80 902.90 L 597.70 900.70 L 593.40 894.40 L 591.60 890.60 L 590.20 886.60 L 589.30 882.50 L 588.40 874.00 L 588.60 867.50 L 589.20 861.00 L 591.30 848.40 L 593.10 840.20 L 595.40 832.10 L 598.00 824.20 L 601.00 816.30 L 604.40 808.60 L 608.10 801.10 L 612.20 793.80 L 616.70 786.70 L 621.50 779.80 L 626.60 773.20 L 632.00 766.90 L 637.80 760.80 L 643.90 755.00 L 650.20 749.50 L 656.80 744.40 L 669.30 736.10 L 686.60 726.90 L 692.20 723.70 L 697.70 720.20 L 696.70 713.90 L 693.90 706.40 L 687.40 694.30 L 682.70 686.50 L 677.70 679.00 L 672.10 671.90 L 664.00 663.10 L 659.50 659.10 L 652.80 674.60 L 650.70 678.30 L 648.30 681.70 L 644.40 685.60 L 642.10 687.30 L 637.00 690.20 L 631.80 692.70 L 626.50 694.70 L 615.50 697.70 L 609.80 698.60 L 601.20 699.60 L 592.50 700.00 L 583.80 699.90 L 567.90 699.00 L 553.30 696.50 L 546.20 694.80 L 536.80 691.80 L 527.60 688.40 L 518.60 684.30 L 509.90 679.70 L 501.50 674.60 L 493.30 669.00 L 485.50 663.00 L 478.00 656.70 L 465.00 644.60 L 459.00 639.50 L 457.60 645.00 L 455.70 656.10 L 454.70 673.10 L 454.40 690.10 L 453.60 698.00 L 451.50 706.00 L 450.00 709.80 L 446.00 716.90 L 443.50 720.00 L 440.70 722.80 L 437.50 725.30 L 434.00 727.30 L 430.20 728.90 L 425.10 730.20 L 415.10 731.70 L 410.00 731.90 L 403.30 731.60 L 396.60 730.70 L 390.00 729.30 L 383.50 727.30 L 377.10 724.90 L 370.90 722.10 L 364.90 718.80 L 359.20 715.20 L 353.70 711.30 L 345.80 704.70 L 338.30 697.60 L 331.30 690.20 L 324.70 682.30 L 318.60 674.10 L 312.90 665.50 L 307.70 656.60 L 303.00 647.50 L 294.80 630.20 L 293.20 627.70 L 291.40 625.40 L 289.20 623.70 L 287.60 622.90 L 285.70 622.50 L 250.60 619.40 L 228.70 616.60 L 217.80 614.80 L 207.10 612.40 L 196.50 609.50 L 186.00 606.00 L 181.20 604.10 L 176.80 601.70 L 172.50 599.00 L 156.10 587.60 L 151.90 585.50 L 134.50 578.40 L 130.30 576.30 L 126.30 573.70 L 119.00 567.60 L 112.40 560.60 L 107.20 552.70 L 105.10 548.50 L 103.50 544.00 L 102.30 539.30 L 101.40 533.80 L 101.00 528.30 L 101.20 522.90 L 101.90 517.50 L 103.10 512.10 L 104.70 506.80 L 108.90 496.60 L 111.50 491.70 L 115.90 484.60 L 120.60 478.00 L 130.60 465.50 L 132.80 462.10 L 134.50 458.60 L 135.80 453.60 L 136.00 442.00 L 134.80 415.40 L 134.80 406.60 L 136.20 386.00 L 137.60 374.40 L 139.70 362.90 L 142.40 351.50 L 145.70 340.20 L 149.50 329.20 L 153.90 318.40 L 158.90 307.80 L 164.50 297.40 L 170.50 287.40 L 177.10 277.80 L 184.10 268.40 L 190.30 260.90 L 196.80 253.80 L 203.60 247.00 L 210.70 240.40 L 220.50 232.20 L 230.70 224.40 L 241.30 217.00 L 252.20 210.10 L 263.30 203.50 L 274.50 197.30 L 285.40 192.10 L 296.50 187.20 L 307.70 182.80 L 319.10 178.70 L 330.70 175.10 L 345.30 171.10 L 360.00 167.70 L 374.90 164.90 L 389.80 162.80 L 397.90 162.10 L 422.30 161.70 L 430.30 161.30 L 438.40 160.20 L 443.10 158.70 L 448.20 155.40 L 451.00 152.90 L 473.70 129.60 L 482.80 121.00 L 492.30 112.80 L 499.00 107.80 L 505.90 103.00 L 513.00 98.60 Z M 588.20 104.90 L 580.50 106.20 L 572.90 107.80 L 565.40 109.90 L 550.80 115.10 L 536.90 121.80 L 530.10 125.60 L 521.30 131.10 L 512.80 137.10 L 504.70 143.60 L 496.90 150.40 L 489.40 157.60 L 482.30 165.10 L 458.90 193.30 L 446.40 192.80 L 421.50 192.80 L 409.00 193.40 L 396.60 194.40 L 384.20 195.90 L 371.90 197.90 L 359.70 200.30 L 347.60 203.20 L 335.60 206.60 L 323.80 210.50 L 312.10 214.90 L 301.10 219.70 L 290.40 224.90 L 279.80 230.60 L 269.50 236.60 L 259.50 243.10 L 249.70 250.00 L 240.30 257.40 L 231.40 265.30 L 222.80 273.50 L 216.70 280.10 L 205.30 293.90 L 200.10 301.20 L 195.40 308.40 L 191.10 315.80 L 187.20 323.40 L 183.70 331.10 L 177.70 347.10 L 173.10 363.50 L 170.90 374.60 L 169.10 385.90 L 168.00 397.20 L 167.50 408.60 L 167.40 420.00 L 168.00 431.30 L 169.10 442.10 L 169.80 452.90 L 170.50 474.60 L 163.70 479.20 L 157.10 484.30 L 152.90 488.00 L 149.00 492.00 L 145.50 496.20 L 142.40 500.70 L 139.70 505.50 L 135.90 514.50 L 134.80 518.30 L 134.20 522.30 L 134.10 526.30 L 134.40 530.30 L 135.30 534.20 L 136.70 537.90 L 138.60 541.50 L 141.00 544.80 L 143.80 547.80 L 146.80 550.40 L 150.10 552.50 L 155.30 555.10 L 160.80 557.20 L 183.60 563.90 L 192.80 570.90 L 197.70 574.20 L 202.70 577.00 L 209.80 579.90 L 224.70 583.40 L 246.90 587.40 L 263.60 589.70 L 280.50 591.60 L 314.20 594.40 L 324.80 596.70 L 326.10 605.60 L 328.00 614.30 L 330.50 623.00 L 333.60 631.50 L 337.20 639.70 L 341.30 647.80 L 346.00 655.50 L 351.10 662.90 L 356.70 669.90 L 362.80 676.60 L 369.30 682.70 L 376.30 688.40 L 386.90 694.80 L 392.70 697.50 L 398.50 699.60 L 406.60 701.30 L 410.70 701.60 L 414.70 701.40 L 418.80 700.70 L 422.90 699.50 L 423.30 680.90 L 424.90 662.20 L 426.40 652.90 L 428.30 643.80 L 430.60 634.70 L 433.40 625.90 L 436.80 617.20 L 439.70 610.90 L 446.50 598.60 L 450.50 592.70 L 454.40 591.10 L 458.50 589.90 L 466.80 588.00 L 471.00 595.80 L 475.60 603.30 L 480.60 610.50 L 486.10 617.60 L 491.90 624.30 L 498.10 630.60 L 504.60 636.50 L 511.50 642.10 L 518.70 647.30 L 526.20 651.90 L 533.90 656.10 L 542.00 659.80 L 548.50 662.30 L 555.00 664.40 L 561.60 666.00 L 568.40 667.30 L 575.20 668.10 L 582.00 668.60 L 588.80 668.60 L 595.70 668.20 L 602.50 667.50 L 609.30 666.30 L 615.90 664.70 L 622.50 662.70 L 628.10 658.00 L 610.70 633.60 L 602.10 619.30 L 596.50 607.30 L 594.40 601.10 L 592.70 594.70 L 591.50 588.00 L 598.90 589.90 L 613.20 594.60 L 623.70 598.90 L 633.90 603.70 L 653.90 614.40 L 662.20 619.70 L 670.20 625.40 L 677.80 631.60 L 685.00 638.20 L 691.90 645.20 L 698.30 652.60 L 704.40 660.30 L 710.00 668.30 L 715.30 676.60 L 720.00 685.20 L 724.40 694.00 L 728.20 703.00 L 731.60 712.30 L 734.50 721.60 L 736.90 731.10 L 738.80 740.70 L 720.50 745.80 L 712.80 748.50 L 705.30 751.60 L 698.00 755.20 L 690.90 759.10 L 684.00 763.40 L 677.30 768.10 L 670.90 773.20 L 664.80 778.50 L 658.90 784.20 L 653.50 790.20 L 648.30 796.50 L 644.00 802.60 L 636.10 815.60 L 632.60 822.30 L 629.40 829.20 L 626.70 836.30 L 624.40 843.50 L 622.60 850.80 L 621.30 858.30 L 620.60 865.80 L 620.50 873.30 L 621.10 881.00 L 627.50 878.80 L 646.10 870.50 L 652.40 868.00 L 658.90 866.10 L 667.90 864.20 L 704.00 858.40 L 712.90 856.40 L 724.60 853.00 L 730.30 850.70 L 735.00 848.40 L 739.40 845.70 L 747.60 839.20 L 755.30 832.30 L 761.50 842.90 L 765.00 847.90 L 768.90 852.60 L 771.80 855.50 L 778.30 860.60 L 783.30 863.90 L 788.50 866.80 L 793.90 869.30 L 802.20 872.60 L 810.70 875.50 L 836.30 883.70 L 844.60 887.00 L 850.00 889.40 L 855.20 892.30 L 860.30 895.60 L 864.00 898.40 L 867.50 901.50 L 880.70 914.80 L 884.20 917.90 L 888.00 920.60 L 888.80 912.00 L 889.20 903.30 L 889.20 894.60 L 888.60 881.60 L 887.00 862.20 L 886.10 836.30 L 885.60 829.90 L 884.70 823.50 L 881.50 809.60 L 879.10 802.20 L 876.10 794.90 L 870.60 784.50 L 863.70 775.00 L 859.80 770.60 L 855.60 766.70 L 850.90 763.00 L 846.00 759.70 L 842.20 757.70 L 838.20 756.10 L 821.70 751.20 L 817.80 749.50 L 814.00 747.30 L 819.00 735.70 L 823.60 720.70 L 825.80 711.60 L 828.50 697.90 L 830.70 684.20 L 832.60 670.50 L 834.00 656.60 L 835.00 642.80 L 835.80 615.00 L 835.70 601.20 L 835.00 585.80 L 833.70 570.50 L 831.90 555.30 L 829.60 540.10 L 826.70 525.10 L 823.30 510.10 L 819.40 495.30 L 814.90 480.60 L 810.00 466.10 L 804.50 451.70 L 798.60 437.60 L 792.10 423.60 L 785.20 409.90 L 777.80 396.50 L 770.00 383.40 L 761.60 370.50 L 754.10 359.80 L 746.20 349.40 L 738.00 339.30 L 729.30 329.40 L 720.40 319.90 L 711.10 310.70 L 701.50 301.80 L 691.70 293.20 L 681.50 284.90 L 660.60 269.30 L 649.80 262.00 L 644.50 258.00 L 642.00 255.70 L 639.90 253.20 L 637.90 249.40 L 636.00 241.70 L 635.20 236.10 L 634.80 230.40 L 634.90 224.70 L 635.40 219.00 L 636.50 213.40 L 638.10 208.00 L 640.30 202.80 L 645.20 194.20 L 650.50 187.80 L 664.20 175.00 L 668.50 170.50 L 671.90 170.50 L 673.50 170.00 L 680.70 166.60 L 700.10 159.00 L 702.80 157.60 L 707.70 154.30 L 709.70 152.30 L 711.40 149.80 L 712.80 146.90 L 713.10 144.60 L 713.00 142.40 L 712.50 140.40 L 711.20 137.60 L 709.20 134.90 L 704.20 130.40 L 698.90 126.60 L 690.40 122.10 L 681.80 118.20 L 672.90 114.60 L 663.80 111.60 L 654.60 109.10 L 645.30 107.00 L 635.90 105.50 L 626.40 104.40 L 616.80 103.80 L 607.30 103.70 L 597.70 104.10 L 588.20 104.90 Z" fill="#fefdfd" fill-rule="nonzero" node-id="59" stroke="none" target-height="880" target-width="821.1" target-x="101" target-y="72"></path><path d="M 588.20 104.90 L 597.70 104.10 L 607.30 103.70 L 616.80 103.80 L 626.40 104.40 L 635.90 105.50 L 645.30 107.00 L 654.60 109.10 L 663.80 111.60 L 672.90 114.60 L 681.80 118.20 L 690.40 122.10 L 698.90 126.60 L 704.20 130.40 L 709.20 134.90 L 711.20 137.60 L 712.50 140.40 L 713.00 142.40 L 713.10 144.60 L 712.80 146.90 L 711.40 149.80 L 709.70 152.30 L 705.30 156.10 L 700.10 159.00 L 687.10 163.90 L 680.70 166.60 L 675.90 169.00 L 671.90 170.50 L 668.50 170.50 L 663.10 169.10 L 668.10 165.90 L 673.30 163.30 L 689.60 156.30 L 700.10 151.10 L 705.00 147.80 L 707.00 143.40 L 703.40 139.80 L 699.60 136.50 L 691.10 131.10 L 681.90 126.70 L 667.70 121.30 L 658.00 118.20 L 648.00 115.70 L 637.90 113.70 L 627.70 112.30 L 617.50 111.60 L 607.20 111.40 L 599.50 111.80 L 584.20 113.60 L 576.70 115.00 L 569.20 116.90 L 561.90 119.10 L 554.70 121.80 L 540.90 128.20 L 534.40 131.80 L 528.20 135.80 L 519.10 142.20 L 510.40 149.10 L 493.60 163.70 L 482.30 165.10 L 489.40 157.60 L 496.90 150.40 L 504.70 143.60 L 512.80 137.10 L 521.30 131.10 L 530.10 125.60 L 543.80 118.30 L 558.10 112.30 L 565.40 109.90 L 572.90 107.80 L 580.50 106.20 L 588.20 104.90 Z" fill="#34455b" fill-rule="nonzero" node-id="61" stroke="none" target-height="66.8" target-width="230.79999" target-x="482.3" target-y="103.7"></path><path d="M 547.60 124.90 L 554.70 121.80 L 561.90 119.10 L 569.20 116.90 L 576.70 115.00 L 591.80 112.50 L 607.20 111.40 L 617.50 111.60 L 627.70 112.30 L 637.90 113.70 L 648.00 115.70 L 658.00 118.20 L 674.80 123.90 L 686.60 128.80 L 695.50 133.60 L 699.60 136.50 L 703.40 139.80 L 707.00 143.40 L 705.00 147.80 L 699.00 143.50 L 692.80 139.50 L 686.30 136.00 L 679.70 132.90 L 670.60 129.20 L 661.30 126.10 L 651.80 123.60 L 642.10 121.50 L 632.50 119.90 L 622.80 118.70 L 614.50 118.40 L 606.20 118.50 L 598.00 119.10 L 589.90 120.10 L 581.70 121.60 L 573.70 123.50 L 565.80 125.80 L 558.00 128.50 L 550.40 131.60 L 542.90 135.00 L 535.60 138.80 L 528.40 143.00 L 521.50 147.50 L 514.80 152.40 L 508.40 157.50 L 497.40 167.20 L 492.40 171.10 L 481.70 178.20 L 493.60 163.70 L 510.40 149.10 L 519.10 142.20 L 528.20 135.80 L 534.40 131.80 L 540.90 128.20 L 547.60 124.90 Z" fill="#cadde2" fill-rule="nonzero" node-id="63" stroke="none" target-height="66.799995" target-width="225.29999" target-x="481.7" target-y="111.4"></path><path d="M 502.30 163.00 L 508.40 157.50 L 514.80 152.40 L 521.50 147.50 L 528.40 143.00 L 535.60 138.80 L 542.90 135.00 L 550.40 131.60 L 558.00 128.50 L 565.80 125.80 L 573.70 123.50 L 581.70 121.60 L 589.90 120.10 L 598.00 119.10 L 606.20 118.50 L 614.50 118.40 L 622.80 118.70 L 632.50 119.90 L 642.10 121.50 L 651.80 123.60 L 661.30 126.10 L 670.60 129.20 L 679.70 132.90 L 686.30 136.00 L 692.80 139.50 L 699.00 143.50 L 705.00 147.80 L 700.10 151.10 L 694.90 153.80 L 673.30 163.30 L 668.10 165.90 L 658.30 171.90 L 653.80 175.00 L 649.60 178.50 L 645.60 182.40 L 642.10 186.60 L 638.80 191.00 L 636.00 195.70 L 633.60 200.70 L 631.60 205.80 L 629.20 214.70 L 627.90 226.10 L 627.70 233.10 L 627.90 246.90 L 615.60 240.00 L 603.10 233.40 L 590.40 227.30 L 577.50 221.60 L 564.40 216.40 L 551.10 211.60 L 537.70 207.30 L 524.10 203.50 L 510.40 200.20 L 496.60 197.50 L 482.70 195.20 L 468.60 193.60 L 475.00 185.70 L 481.70 178.20 L 492.40 171.10 L 502.30 163.00 Z" fill="#7695aa" fill-rule="nonzero" node-id="65" stroke="none" target-height="128.5" target-width="236.4" target-x="468.6" target-y="118.4"></path><path d="M 482.30 165.10 L 493.60 163.70 L 468.60 193.60 L 482.70 195.20 L 496.60 197.50 L 510.40 200.20 L 524.10 203.50 L 537.70 207.30 L 551.10 211.60 L 564.40 216.40 L 577.50 221.60 L 590.40 227.30 L 603.10 233.40 L 615.60 240.00 L 627.90 246.90 L 627.70 233.10 L 627.90 226.10 L 629.20 214.70 L 631.60 205.80 L 633.60 200.70 L 636.00 195.70 L 638.80 191.00 L 642.10 186.60 L 645.60 182.40 L 649.60 178.50 L 653.80 175.00 L 658.30 171.90 L 663.10 169.10 L 668.50 170.50 L 664.20 175.00 L 655.00 183.50 L 647.80 190.90 L 643.00 197.70 L 640.30 202.80 L 638.10 208.00 L 636.50 213.40 L 635.40 219.00 L 634.90 224.70 L 634.80 230.40 L 635.20 236.10 L 636.00 241.70 L 637.90 249.40 L 639.90 253.20 L 642.00 255.70 L 644.50 258.00 L 671.20 277.00 L 681.50 284.90 L 691.70 293.20 L 701.50 301.80 L 711.10 310.70 L 720.40 319.90 L 729.30 329.40 L 738.00 339.30 L 746.20 349.40 L 754.10 359.80 L 761.60 370.50 L 770.00 383.40 L 777.80 396.50 L 785.20 409.90 L 792.10 423.60 L 798.60 437.60 L 804.50 451.70 L 810.00 466.10 L 814.90 480.60 L 819.40 495.30 L 823.30 510.10 L 826.70 525.10 L 829.60 540.10 L 831.90 555.30 L 833.70 570.50 L 835.00 585.80 L 835.70 601.20 L 835.80 615.00 L 835.00 642.80 L 834.00 656.60 L 832.60 670.50 L 830.70 684.20 L 828.50 697.90 L 825.80 711.60 L 823.60 720.70 L 821.00 729.80 L 816.70 741.50 L 810.60 754.00 L 805.10 762.70 L 798.80 770.90 L 808.20 747.10 L 813.50 731.00 L 818.50 711.60 L 821.00 700.40 L 822.40 692.90 L 823.30 685.30 L 826.80 637.70 L 827.30 624.30 L 827.40 597.60 L 826.90 584.30 L 825.80 571.00 L 824.20 557.70 L 821.90 543.50 L 819.20 529.40 L 816.00 515.30 L 812.40 501.30 L 808.40 487.40 L 803.90 473.70 L 798.90 460.10 L 793.50 446.70 L 787.70 433.50 L 781.40 420.50 L 774.70 407.70 L 767.50 395.20 L 759.90 383.00 L 751.80 371.00 L 743.30 359.40 L 734.30 348.10 L 725.00 337.20 L 715.10 326.70 L 704.90 316.50 L 694.10 306.70 L 682.80 296.80 L 671.20 287.20 L 659.10 278.10 L 646.80 269.40 L 634.10 261.20 L 621.10 253.40 L 607.90 246.10 L 594.40 239.30 L 580.60 233.00 L 566.70 227.20 L 552.60 222.00 L 538.20 217.30 L 523.70 213.20 L 509.10 209.60 L 494.30 206.70 L 479.40 204.30 L 467.40 202.80 L 455.40 201.80 L 443.40 201.20 L 431.30 200.90 L 408.00 201.60 L 397.00 202.50 L 386.00 203.70 L 374.90 205.40 L 364.00 207.50 L 353.20 209.90 L 342.50 212.80 L 331.80 216.10 L 321.30 219.70 L 311.00 223.80 L 300.90 228.30 L 290.90 233.20 L 281.10 238.50 L 271.60 244.20 L 262.30 250.30 L 253.30 256.80 L 245.60 262.80 L 238.20 269.20 L 231.10 275.90 L 224.20 283.00 L 217.80 290.40 L 211.80 298.10 L 206.10 306.10 L 200.90 314.40 L 196.20 322.90 L 191.90 331.70 L 188.20 340.70 L 185.00 350.10 L 182.00 360.00 L 179.60 370.10 L 177.80 380.30 L 176.50 390.60 L 175.70 400.90 L 175.40 411.30 L 175.40 421.70 L 176.30 442.40 L 177.70 455.60 L 178.60 459.90 L 180.60 465.40 L 182.10 468.00 L 198.80 463.40 L 210.30 461.40 L 221.70 460.70 L 227.50 461.00 L 233.30 461.80 L 217.30 465.10 L 209.30 467.10 L 194.60 471.70 L 187.80 474.50 L 181.20 477.60 L 174.80 481.10 L 168.70 485.10 L 162.90 489.50 L 158.90 493.10 L 151.60 501.20 L 148.30 505.70 L 145.20 511.60 L 144.10 514.70 L 143.10 519.60 L 142.50 524.60 L 142.50 534.70 L 139.70 522.70 L 137.50 510.70 L 139.70 505.50 L 142.40 500.70 L 145.50 496.20 L 149.00 492.00 L 152.90 488.00 L 157.10 484.30 L 163.70 479.20 L 170.50 474.60 L 169.80 452.90 L 169.10 442.10 L 168.00 431.30 L 167.40 420.00 L 167.50 408.60 L 168.00 397.20 L 169.10 385.90 L 170.90 374.60 L 173.10 363.50 L 175.30 355.20 L 180.50 339.00 L 183.70 331.10 L 187.20 323.40 L 191.10 315.80 L 195.40 308.40 L 200.10 301.20 L 205.30 293.90 L 216.70 280.10 L 222.80 273.50 L 231.40 265.30 L 240.30 257.40 L 249.70 250.00 L 259.50 243.10 L 269.50 236.60 L 279.80 230.60 L 290.40 224.90 L 301.10 219.70 L 312.10 214.90 L 323.80 210.50 L 335.60 206.60 L 347.60 203.20 L 359.70 200.30 L 371.90 197.90 L 384.20 195.90 L 396.60 194.40 L 409.00 193.40 L 421.50 192.80 L 434.00 192.60 L 458.90 193.30 L 482.30 165.10 Z" fill="#2a3d52" fill-rule="nonzero" node-id="67" stroke="none" target-height="607.2" target-width="698.3" target-x="137.5" target-y="163.7"></path><path d="M 253.30 256.80 L 262.30 250.30 L 271.60 244.20 L 281.10 238.50 L 290.90 233.20 L 300.90 228.30 L 311.00 223.80 L 321.30 219.70 L 331.80 216.10 L 342.50 212.80 L 353.20 209.90 L 364.00 207.50 L 374.90 205.40 L 386.00 203.70 L 397.00 202.50 L 408.00 201.60 L 431.30 200.90 L 443.40 201.20 L 455.40 201.80 L 467.40 202.80 L 479.40 204.30 L 494.30 206.70 L 509.10 209.60 L 523.70 213.20 L 538.20 217.30 L 552.60 222.00 L 566.70 227.20 L 580.60 233.00 L 594.40 239.30 L 607.90 246.10 L 621.10 253.40 L 634.10 261.20 L 646.80 269.40 L 659.10 278.10 L 671.20 287.20 L 682.80 296.80 L 704.90 316.50 L 715.10 326.70 L 725.00 337.20 L 734.30 348.10 L 743.30 359.40 L 751.80 371.00 L 759.90 383.00 L 767.50 395.20 L 774.70 407.70 L 781.40 420.50 L 787.70 433.50 L 793.50 446.70 L 798.90 460.10 L 803.90 473.70 L 808.40 487.40 L 812.40 501.30 L 816.00 515.30 L 819.20 529.40 L 821.90 543.50 L 824.20 557.70 L 825.80 571.00 L 826.90 584.30 L 827.40 597.60 L 827.60 611.00 L 826.80 637.70 L 823.80 677.60 L 822.50 668.80 L 821.70 659.90 L 821.40 651.10 L 821.20 615.50 L 819.80 591.40 L 818.50 576.20 L 816.70 561.00 L 814.30 545.90 L 811.50 531.00 L 808.00 516.10 L 805.00 505.10 L 801.60 494.20 L 797.80 483.40 L 788.90 459.90 L 783.70 447.30 L 778.20 434.90 L 772.10 422.70 L 765.60 410.70 L 758.70 399.00 L 751.40 387.50 L 743.80 376.20 L 735.80 365.20 L 727.30 354.50 L 717.30 343.00 L 706.80 331.90 L 695.90 321.30 L 684.60 311.10 L 672.90 301.30 L 660.90 291.90 L 648.50 283.00 L 635.90 274.40 L 623.10 266.20 L 610.70 258.90 L 598.10 252.00 L 585.30 245.60 L 572.20 239.60 L 558.90 234.10 L 545.50 229.10 L 531.80 224.70 L 518.00 220.70 L 506.40 217.90 L 494.70 215.50 L 482.90 213.40 L 471.00 211.80 L 459.00 210.60 L 447.10 209.90 L 435.10 209.50 L 423.10 209.60 L 411.10 210.20 L 399.20 211.10 L 387.30 212.60 L 375.50 214.40 L 363.70 216.80 L 352.10 219.60 L 340.60 222.90 L 329.20 226.70 L 308.00 235.50 L 297.60 240.50 L 287.30 245.80 L 277.40 251.60 L 267.60 257.80 L 258.30 264.50 L 249.30 271.60 L 240.70 279.20 L 234.50 285.20 L 228.70 291.50 L 223.10 298.10 L 217.90 305.10 L 212.80 312.10 L 208.20 319.20 L 204.00 326.60 L 200.10 334.30 L 193.50 350.00 L 188.30 366.30 L 185.60 377.50 L 183.50 388.70 L 182.00 400.00 L 181.30 411.30 L 181.30 434.00 L 182.10 468.00 L 180.60 465.40 L 178.60 459.90 L 177.20 451.20 L 175.70 432.10 L 175.40 411.30 L 175.70 400.90 L 176.50 390.60 L 177.80 380.30 L 179.60 370.10 L 182.00 360.00 L 185.00 350.10 L 188.20 340.70 L 191.90 331.70 L 196.20 322.90 L 200.90 314.40 L 206.10 306.10 L 211.80 298.10 L 217.80 290.40 L 224.20 283.00 L 231.10 275.90 L 238.20 269.20 L 245.60 262.80 L 253.30 256.80 Z" fill="#d7e4e8" fill-rule="nonzero" node-id="69" stroke="none" target-height="476.69998" target-width="652.19995" target-x="175.4" target-y="200.9"></path><path d="M 329.20 226.70 L 340.60 222.90 L 352.10 219.60 L 363.70 216.80 L 375.50 214.40 L 387.30 212.60 L 399.20 211.10 L 411.10 210.20 L 423.10 209.60 L 435.10 209.50 L 447.10 209.90 L 459.00 210.60 L 471.00 211.80 L 482.90 213.40 L 494.70 215.50 L 506.40 217.90 L 518.00 220.70 L 531.80 224.70 L 545.50 229.10 L 558.90 234.10 L 572.20 239.60 L 585.30 245.60 L 598.10 252.00 L 610.70 258.90 L 623.10 266.20 L 635.90 274.40 L 648.50 283.00 L 660.90 291.90 L 672.90 301.30 L 684.60 311.10 L 695.90 321.30 L 706.80 331.90 L 717.30 343.00 L 727.30 354.50 L 735.80 365.20 L 743.80 376.20 L 751.40 387.50 L 758.70 399.00 L 765.60 410.70 L 772.10 422.70 L 778.20 434.90 L 783.70 447.30 L 788.90 459.90 L 793.60 472.70 L 786.10 468.20 L 778.90 463.20 L 751.20 441.90 L 736.30 431.60 L 721.10 421.60 L 705.50 412.20 L 689.60 403.20 L 676.60 396.40 L 663.50 390.00 L 650.20 383.90 L 636.80 378.30 L 623.20 373.10 L 609.40 368.20 L 595.50 363.90 L 581.50 360.00 L 567.40 356.60 L 553.10 353.70 L 538.80 351.30 L 524.40 349.50 L 509.90 348.20 L 495.30 347.50 L 468.80 347.20 L 457.10 347.50 L 445.50 348.30 L 428.00 350.00 L 410.50 352.20 L 375.80 357.30 L 371.90 358.00 L 364.50 360.20 L 353.90 365.00 L 338.40 373.10 L 333.10 375.40 L 327.60 377.20 L 285.00 384.90 L 248.10 391.00 L 237.10 392.50 L 203.90 396.20 L 192.90 397.80 L 182.00 400.00 L 183.50 388.70 L 185.60 377.50 L 188.30 366.30 L 190.70 358.10 L 196.60 342.10 L 200.10 334.30 L 204.00 326.60 L 208.20 319.20 L 212.80 312.10 L 217.90 305.10 L 223.10 298.10 L 228.70 291.50 L 234.50 285.20 L 240.70 279.20 L 249.30 271.60 L 258.30 264.50 L 267.60 257.80 L 277.40 251.60 L 287.30 245.80 L 297.60 240.50 L 308.00 235.50 L 329.20 226.70 Z" fill="#9ab3c0" fill-rule="nonzero" node-id="71" stroke="none" target-height="263.2" target-width="611.6" target-x="182" target-y="209.5"></path><path d="M 375.80 357.30 L 410.50 352.20 L 428.00 350.00 L 445.50 348.30 L 457.10 347.50 L 468.80 347.20 L 495.30 347.50 L 509.90 348.20 L 524.40 349.50 L 538.80 351.30 L 553.10 353.70 L 567.40 356.60 L 581.50 360.00 L 595.50 363.90 L 609.40 368.20 L 623.20 373.10 L 636.80 378.30 L 650.20 383.90 L 663.50 390.00 L 676.60 396.40 L 689.60 403.20 L 705.50 412.20 L 721.10 421.60 L 736.30 431.60 L 758.20 447.10 L 778.90 463.20 L 786.10 468.20 L 793.60 472.70 L 797.80 483.40 L 801.60 494.20 L 805.00 505.10 L 808.00 516.10 L 811.50 531.00 L 814.30 545.90 L 816.70 561.00 L 818.50 576.20 L 819.80 591.40 L 821.20 615.50 L 821.40 651.10 L 821.70 659.90 L 822.50 668.80 L 823.80 677.60 L 823.30 685.30 L 822.40 692.90 L 821.00 700.40 L 815.50 722.80 L 814.50 717.30 L 813.80 706.40 L 814.00 698.10 L 815.70 673.40 L 815.80 667.90 L 814.90 657.00 L 813.30 647.20 L 811.30 637.70 L 808.70 628.20 L 805.70 618.90 L 802.20 609.70 L 798.30 600.70 L 794.10 591.90 L 789.50 583.20 L 782.90 571.80 L 775.80 560.80 L 768.40 550.10 L 761.40 540.90 L 754.10 532.10 L 746.30 523.70 L 738.10 515.60 L 729.60 507.90 L 720.80 500.50 L 711.70 493.60 L 702.30 486.90 L 692.60 480.60 L 672.80 469.10 L 662.60 463.80 L 650.50 458.50 L 638.20 453.60 L 625.70 449.10 L 613.00 445.10 L 600.30 441.50 L 587.40 438.40 L 574.40 435.80 L 561.30 433.70 L 548.20 432.00 L 535.00 430.90 L 521.70 430.40 L 493.80 430.30 L 479.20 430.90 L 464.60 431.90 L 420.90 436.40 L 421.50 430.60 L 421.60 424.70 L 421.10 418.70 L 420.20 412.90 L 418.90 407.20 L 417.00 401.50 L 414.60 396.10 L 411.80 391.00 L 408.50 386.20 L 404.70 381.70 L 400.50 377.60 L 395.70 374.00 L 392.30 372.00 L 388.70 370.40 L 381.20 368.30 L 376.10 367.60 L 370.90 367.50 L 365.70 368.00 L 360.60 368.90 L 355.50 370.40 L 350.60 372.30 L 345.90 374.70 L 341.50 377.40 L 337.30 380.60 L 333.80 384.50 L 327.80 393.20 L 325.20 397.90 L 321.10 407.70 L 318.50 418.00 L 317.20 428.60 L 317.50 439.10 L 318.30 444.40 L 319.40 449.60 L 321.00 454.60 L 323.00 459.60 L 307.30 475.00 L 302.80 492.10 L 301.10 482.00 L 300.40 479.60 L 299.30 477.40 L 297.10 474.90 L 290.80 471.40 L 285.90 469.30 L 280.90 467.60 L 273.20 465.60 L 265.30 464.30 L 257.30 463.40 L 233.30 461.80 L 227.50 461.00 L 221.70 460.70 L 216.00 460.80 L 204.50 462.20 L 190.40 465.60 L 182.10 468.00 L 181.10 422.60 L 181.30 411.30 L 182.00 400.00 L 192.90 397.80 L 203.90 396.20 L 237.10 392.50 L 248.10 391.00 L 285.00 384.90 L 327.60 377.20 L 333.10 375.40 L 338.40 373.10 L 353.90 365.00 L 364.50 360.20 L 371.90 358.00 L 375.80 357.30 Z" fill="#8ba4b6" fill-rule="nonzero" node-id="73" stroke="none" target-height="375.59998" target-width="642.69995" target-x="181.1" target-y="347.2"></path><path d="M 337.30 380.60 L 341.50 377.40 L 345.90 374.70 L 350.60 372.30 L 355.50 370.40 L 360.60 368.90 L 365.70 368.00 L 370.90 367.50 L 376.10 367.60 L 381.20 368.30 L 385.00 369.10 L 392.30 372.00 L 395.70 374.00 L 400.50 377.60 L 404.70 381.70 L 408.50 386.20 L 411.80 391.00 L 414.60 396.10 L 417.00 401.50 L 418.90 407.20 L 420.20 412.90 L 421.10 418.70 L 421.60 424.70 L 421.50 430.60 L 420.90 436.40 L 419.00 442.60 L 416.60 448.60 L 412.40 456.10 L 407.10 462.90 L 404.00 465.80 L 400.50 468.50 L 407.20 455.00 L 411.10 445.70 L 412.60 441.00 L 413.80 436.20 L 414.30 431.20 L 414.00 420.90 L 413.10 415.80 L 411.70 410.70 L 409.90 405.70 L 407.60 401.00 L 404.80 396.60 L 401.60 392.40 L 398.10 388.60 L 394.20 385.10 L 389.90 382.20 L 385.30 379.70 L 380.30 377.80 L 376.40 376.90 L 372.50 376.40 L 368.60 376.50 L 362.80 377.30 L 357.10 378.70 L 345.80 382.50 L 337.30 380.60 Z" fill="#030303" fill-rule="nonzero" node-id="75" stroke="none" target-height="101" target-width="84.30002" target-x="337.3" target-y="367.5"></path><path d="M 345.80 382.50 L 357.10 378.70 L 362.80 377.30 L 368.60 376.50 L 372.50 376.40 L 376.40 376.90 L 380.30 377.80 L 385.30 379.70 L 389.90 382.20 L 394.20 385.10 L 398.10 388.60 L 401.60 392.40 L 404.80 396.60 L 407.60 401.00 L 409.90 405.70 L 411.70 410.70 L 413.10 415.80 L 414.00 420.90 L 414.40 426.10 L 409.60 414.10 L 408.10 426.90 L 405.90 439.70 L 404.20 445.90 L 401.90 451.80 L 400.00 455.60 L 397.70 459.30 L 395.10 462.80 L 393.10 464.90 L 390.90 466.50 L 388.50 467.70 L 384.60 469.00 L 376.20 470.00 L 357.40 469.80 L 342.70 468.50 L 335.40 467.30 L 328.30 465.60 L 325.90 450.90 L 325.50 441.00 L 325.80 436.00 L 330.10 450.30 L 331.90 454.90 L 335.20 460.50 L 337.30 463.10 L 342.80 465.90 L 345.70 466.80 L 350.10 467.70 L 359.30 468.20 L 373.20 467.50 L 377.00 454.70 L 381.30 442.00 L 367.60 434.90 L 377.30 434.50 L 396.40 431.20 L 401.10 434.30 L 402.50 430.50 L 403.30 426.80 L 403.70 423.00 L 403.60 419.20 L 403.10 415.40 L 401.10 408.20 L 399.50 404.70 L 396.90 400.30 L 393.80 396.20 L 390.30 392.60 L 387.30 390.10 L 380.90 386.20 L 377.30 384.70 L 373.70 383.60 L 370.00 382.90 L 366.10 382.60 L 362.10 382.80 L 363.20 394.50 L 363.20 400.40 L 362.70 406.30 L 362.30 402.50 L 360.70 395.20 L 357.70 388.40 L 355.70 385.20 L 345.80 382.50 Z" fill="#465a75" fill-rule="nonzero" node-id="77" stroke="none" target-height="93.600006" target-width="88.899994" target-x="325.5" target-y="376.4"></path><path d="M 323.00 459.60 L 321.00 454.60 L 319.40 449.60 L 318.30 444.40 L 317.50 439.10 L 317.20 433.80 L 317.60 423.30 L 318.50 418.00 L 319.60 412.80 L 323.00 402.70 L 327.80 393.20 L 330.70 388.70 L 337.30 380.60 L 355.70 385.20 L 346.20 385.10 L 341.20 386.10 L 339.40 387.00 L 335.50 389.70 L 333.60 391.50 L 330.60 395.90 L 328.90 400.90 L 328.60 403.50 L 328.70 406.00 L 329.10 408.50 L 330.10 410.80 L 331.50 413.00 L 333.40 414.90 L 338.30 415.90 L 344.50 415.50 L 348.10 414.70 L 355.30 412.50 L 349.80 415.10 L 344.20 417.20 L 332.60 420.30 L 325.80 436.00 L 325.50 441.00 L 325.90 450.90 L 328.30 465.60 L 323.00 459.60 Z" fill="#101217" fill-rule="nonzero" node-id="79" stroke="none" target-height="85" target-width="38.5" target-x="317.2" target-y="380.6"></path><path d="M 409.60 414.10 L 414.40 426.10 L 414.30 431.20 L 413.80 436.20 L 412.60 441.00 L 409.30 450.40 L 400.50 468.50 L 404.00 465.80 L 407.10 462.90 L 412.40 456.10 L 416.60 448.60 L 419.00 442.60 L 420.90 436.40 L 450.00 433.20 L 479.20 430.90 L 493.80 430.30 L 521.70 430.40 L 535.00 430.90 L 548.20 432.00 L 561.30 433.70 L 574.40 435.80 L 587.40 438.40 L 600.30 441.50 L 613.00 445.10 L 625.70 449.10 L 638.20 453.60 L 650.50 458.50 L 662.60 463.80 L 682.80 474.70 L 692.60 480.60 L 702.30 486.90 L 711.70 493.60 L 720.80 500.50 L 729.60 507.90 L 738.10 515.60 L 746.30 523.70 L 754.10 532.10 L 761.40 540.90 L 768.40 550.10 L 775.80 560.80 L 782.90 571.80 L 789.50 583.20 L 794.10 591.90 L 798.30 600.70 L 802.20 609.70 L 805.70 618.90 L 808.70 628.20 L 811.30 637.70 L 813.30 647.20 L 814.90 657.00 L 815.50 662.50 L 815.70 673.40 L 814.00 698.10 L 813.80 706.40 L 814.00 711.80 L 814.50 717.30 L 815.50 722.80 L 813.50 731.00 L 808.20 747.10 L 798.80 770.90 L 795.60 775.10 L 794.30 767.30 L 776.90 767.30 L 775.70 762.30 L 777.70 753.10 L 779.30 743.80 L 780.40 734.40 L 781.00 725.00 L 781.00 715.50 L 780.60 706.10 L 779.70 696.70 L 778.30 687.40 L 776.30 678.10 L 773.90 669.10 L 770.90 660.10 L 763.40 642.30 L 758.90 633.50 L 753.90 625.00 L 748.40 616.70 L 742.40 608.80 L 736.00 601.30 L 729.20 594.20 L 722.00 587.40 L 714.40 581.10 L 706.50 575.20 L 698.20 569.80 L 681.40 560.50 L 673.10 556.50 L 664.70 552.90 L 656.00 549.80 L 644.30 546.00 L 632.40 542.80 L 620.40 540.20 L 619.50 532.40 L 617.70 524.70 L 615.50 520.10 L 614.00 517.90 L 611.10 515.00 L 607.80 512.60 L 600.50 508.90 L 592.90 505.80 L 590.90 500.50 L 593.60 489.70 L 595.80 478.70 L 593.00 479.80 L 590.60 481.20 L 588.50 482.90 L 585.80 485.90 L 583.40 489.40 L 581.50 493.10 L 576.90 504.90 L 574.80 511.90 L 573.10 519.00 L 571.90 526.00 L 571.10 533.20 L 570.60 542.80 L 570.80 552.40 L 571.60 562.00 L 572.90 571.50 L 574.80 581.00 L 577.20 590.40 L 580.10 599.70 L 583.30 608.70 L 587.00 617.60 L 590.00 623.90 L 607.10 654.50 L 598.20 654.90 L 589.50 654.70 L 580.70 653.80 L 572.10 652.30 L 563.50 650.20 L 555.20 647.50 L 547.10 644.30 L 539.10 640.60 L 531.40 636.30 L 524.10 631.50 L 517.00 626.30 L 510.30 620.60 L 504.00 614.50 L 498.20 607.90 L 492.80 601.00 L 484.50 588.00 L 481.40 582.20 L 478.80 576.20 L 475.30 567.00 L 466.00 539.00 L 466.80 530.60 L 469.50 520.60 L 474.40 509.00 L 482.90 492.20 L 479.20 495.90 L 472.50 503.90 L 469.50 508.20 L 466.90 512.70 L 464.70 517.50 L 457.40 514.30 L 449.90 511.40 L 442.40 509.00 L 430.80 505.90 L 419.10 503.40 L 407.30 501.30 L 385.50 498.30 L 368.80 497.20 L 355.40 497.70 L 362.80 493.40 L 347.10 489.50 L 335.70 484.20 L 327.80 490.70 L 307.70 510.70 L 301.80 515.70 L 297.60 518.60 L 293.10 521.10 L 288.20 523.20 L 299.60 510.80 L 291.60 511.10 L 297.00 501.20 L 302.80 492.10 L 307.30 475.00 L 323.00 459.60 L 328.30 465.60 L 335.40 467.30 L 342.70 468.50 L 350.00 469.30 L 357.40 469.80 L 372.10 470.10 L 380.50 469.70 L 384.60 469.00 L 388.50 467.70 L 390.90 466.50 L 393.10 464.90 L 397.70 459.30 L 400.00 455.60 L 401.90 451.80 L 404.20 445.90 L 405.90 439.70 L 407.20 433.30 L 409.60 414.10 Z" fill="#7493a7" fill-rule="nonzero" node-id="81" stroke="none" target-height="360.99997" target-width="527.5" target-x="288.2" target-y="414.1"></path><path d="M 233.30 461.80 L 257.30 463.40 L 265.30 464.30 L 273.20 465.60 L 280.90 467.60 L 285.90 469.30 L 290.80 471.40 L 297.10 474.90 L 299.30 477.40 L 300.40 479.60 L 301.10 482.00 L 302.80 492.10 L 297.00 501.20 L 291.30 505.20 L 279.50 512.00 L 273.40 515.00 L 265.00 518.40 L 256.50 521.30 L 247.70 523.70 L 238.80 525.60 L 229.80 527.10 L 220.70 528.10 L 211.60 528.70 L 193.50 528.80 L 186.00 528.10 L 178.60 526.90 L 164.10 523.50 L 149.70 519.40 L 151.80 514.40 L 154.20 509.80 L 157.10 505.50 L 163.80 497.80 L 167.60 494.40 L 173.70 489.60 L 180.20 485.30 L 186.90 481.20 L 207.40 469.90 L 201.40 469.40 L 217.30 465.10 L 233.30 461.80 Z" fill="#96afbe" fill-rule="nonzero" node-id="83" stroke="none" target-height="67" target-width="153.09999" target-x="149.7" target-y="461.8"></path><path d="M 576.90 504.90 L 581.50 493.10 L 583.40 489.40 L 585.80 485.90 L 588.50 482.90 L 590.60 481.20 L 593.00 479.80 L 595.80 478.70 L 591.80 485.20 L 588.30 491.80 L 585.30 498.60 L 582.90 505.60 L 580.90 512.80 L 579.30 520.10 L 578.20 527.50 L 577.50 535.00 L 577.10 545.00 L 577.40 555.00 L 578.30 564.80 L 579.80 574.80 L 583.30 591.30 L 587.40 604.10 L 589.90 610.40 L 592.70 616.50 L 599.70 629.00 L 617.00 653.70 L 620.90 660.20 L 591.60 661.70 L 581.80 661.50 L 575.40 661.10 L 568.90 660.10 L 562.50 658.70 L 554.80 656.40 L 547.30 653.70 L 540.00 650.50 L 532.90 646.80 L 526.00 642.70 L 519.40 638.20 L 513.10 633.40 L 507.00 628.20 L 501.20 622.60 L 495.70 616.80 L 490.50 610.80 L 485.70 604.40 L 481.30 598.00 L 477.40 591.30 L 474.00 584.30 L 471.10 577.10 L 468.80 569.70 L 467.00 562.20 L 466.10 556.40 L 465.70 550.70 L 465.60 544.80 L 466.00 539.00 L 475.30 567.00 L 478.80 576.20 L 481.40 582.20 L 484.50 588.00 L 492.80 601.00 L 498.20 607.90 L 504.00 614.50 L 510.30 620.60 L 517.00 626.30 L 524.10 631.50 L 531.40 636.30 L 539.10 640.60 L 547.10 644.30 L 555.20 647.50 L 563.50 650.20 L 572.10 652.30 L 580.70 653.80 L 589.50 654.70 L 598.20 654.90 L 607.10 654.50 L 593.30 630.10 L 587.00 617.60 L 583.30 608.70 L 580.10 599.70 L 577.20 590.40 L 574.80 581.00 L 572.90 571.50 L 571.60 562.00 L 570.80 552.40 L 570.60 542.80 L 571.10 533.20 L 571.90 526.00 L 573.10 519.00 L 574.80 511.90 L 576.90 504.90 Z" fill="#bfd1d9" fill-rule="nonzero" node-id="85" stroke="none" target-height="183" target-width="155.30002" target-x="465.6" target-y="478.7"></path><path d="M 595.80 478.70 L 593.60 489.70 L 589.30 507.00 L 588.00 513.50 L 586.40 530.10 L 585.90 540.10 L 602.00 538.70 L 612.70 539.10 L 618.00 539.80 L 608.00 541.90 L 585.40 548.40 L 587.20 568.90 L 589.40 579.00 L 597.90 582.80 L 615.70 588.90 L 625.50 592.60 L 635.00 596.80 L 644.30 601.50 L 653.30 606.70 L 662.20 612.20 L 670.80 618.10 L 679.20 624.30 L 695.30 637.50 L 708.80 654.10 L 722.00 671.10 L 727.90 683.90 L 733.40 696.90 L 736.80 705.80 L 739.70 714.70 L 743.80 730.60 L 745.80 744.50 L 746.20 751.60 L 745.90 757.40 L 744.40 769.00 L 743.00 774.70 L 741.30 780.30 L 739.20 785.80 L 736.60 791.00 L 733.70 796.10 L 730.30 800.90 L 721.40 807.90 L 725.40 801.80 L 728.90 795.60 L 732.00 789.10 L 734.50 782.40 L 736.50 775.60 L 738.00 768.50 L 738.90 761.50 L 739.20 754.30 L 739.00 747.00 L 728.30 743.60 L 738.80 740.70 L 736.90 731.10 L 734.50 721.60 L 731.60 712.30 L 728.20 703.00 L 724.40 694.00 L 720.00 685.20 L 715.30 676.60 L 710.00 668.30 L 704.40 660.30 L 698.30 652.60 L 691.90 645.20 L 685.00 638.20 L 677.80 631.60 L 670.20 625.40 L 662.20 619.70 L 653.90 614.40 L 644.00 608.90 L 633.90 603.70 L 623.70 598.90 L 613.20 594.60 L 606.10 592.10 L 591.50 588.00 L 592.70 594.70 L 594.40 601.10 L 596.50 607.30 L 602.10 619.30 L 610.70 633.60 L 628.10 658.00 L 622.50 662.70 L 617.00 653.70 L 599.70 629.00 L 592.70 616.50 L 589.90 610.40 L 587.40 604.10 L 583.30 591.30 L 579.80 574.80 L 578.30 564.80 L 577.40 555.00 L 577.10 545.00 L 577.50 535.00 L 578.20 527.50 L 579.30 520.10 L 580.90 512.80 L 582.90 505.60 L 585.30 498.60 L 588.30 491.80 L 591.80 485.20 L 595.80 478.70 Z" fill="#2c3846" fill-rule="nonzero" node-id="87" stroke="none" target-height="329.2" target-width="169.10004" target-x="577.1" target-y="478.7"></path><path d="M 288.20 523.20 L 293.10 521.10 L 297.60 518.60 L 301.80 515.70 L 307.70 510.70 L 327.80 490.70 L 335.70 484.20 L 347.10 489.50 L 342.60 488.30 L 347.30 496.40 L 340.70 503.50 L 333.70 510.20 L 326.40 516.40 L 318.80 522.00 L 310.70 527.30 L 302.50 532.00 L 294.00 536.40 L 285.20 540.30 L 276.20 543.80 L 267.10 546.80 L 257.80 549.50 L 238.90 553.60 L 220.00 556.30 L 210.50 557.00 L 201.40 557.20 L 186.20 556.60 L 174.20 554.70 L 168.40 553.10 L 162.80 550.90 L 157.40 548.10 L 161.80 549.60 L 152.90 536.50 L 160.10 537.50 L 181.70 541.20 L 189.00 542.20 L 196.30 542.70 L 205.80 542.60 L 215.20 542.10 L 224.60 541.20 L 234.00 539.90 L 243.40 538.10 L 252.60 536.00 L 261.70 533.40 L 270.70 530.40 L 279.50 527.00 L 288.20 523.20 Z" fill="#6d8da2" fill-rule="nonzero" node-id="89" stroke="none" target-height="73" target-width="194.4" target-x="152.9" target-y="484.2"></path><path d="M 342.60 488.30 L 362.80 493.40 L 355.40 497.70 L 350.60 501.30 L 346.00 505.20 L 341.70 509.40 L 335.70 516.10 L 330.20 523.30 L 316.20 544.20 L 311.80 549.50 L 306.90 554.40 L 301.60 558.90 L 296.00 563.10 L 290.10 566.80 L 266.80 579.50 L 259.20 584.20 L 303.60 588.80 L 299.20 590.40 L 314.20 594.40 L 280.50 591.60 L 263.60 589.70 L 246.90 587.40 L 224.70 583.40 L 209.80 579.90 L 202.70 577.00 L 197.70 574.20 L 192.80 570.90 L 183.60 563.90 L 160.80 557.20 L 155.30 555.10 L 150.10 552.50 L 146.80 550.40 L 143.80 547.80 L 141.00 544.80 L 138.60 541.50 L 136.70 537.90 L 135.30 534.20 L 134.40 530.30 L 134.10 526.30 L 134.20 522.30 L 134.80 518.30 L 135.90 514.50 L 137.50 510.70 L 139.70 522.70 L 142.50 534.70 L 149.20 542.10 L 154.50 546.30 L 162.80 550.90 L 168.40 553.10 L 174.20 554.70 L 186.20 556.60 L 201.40 557.20 L 210.50 557.00 L 229.40 555.10 L 238.90 553.60 L 257.80 549.50 L 267.10 546.80 L 276.20 543.80 L 285.20 540.30 L 294.00 536.40 L 302.50 532.00 L 310.70 527.30 L 318.80 522.00 L 326.40 516.40 L 333.70 510.20 L 340.70 503.50 L 347.30 496.40 L 342.60 488.30 Z M 268.50 553.20 L 260.50 555.60 L 244.30 559.30 L 232.10 561.20 L 219.70 562.70 L 194.80 564.80 L 203.20 570.70 L 207.80 573.20 L 217.50 577.20 L 227.70 579.80 L 238.10 580.90 L 243.30 580.90 L 248.50 580.50 L 253.60 579.70 L 258.70 578.40 L 263.50 576.70 L 268.20 574.50 L 272.80 571.90 L 281.30 566.60 L 294.90 556.80 L 304.80 548.00 L 309.30 543.10 L 313.40 537.90 L 317.10 532.20 L 301.20 540.00 L 285.10 547.20 L 276.90 550.40 L 268.50 553.20 Z" fill="#25303e" fill-rule="nonzero" node-id="91" stroke="none" target-height="106.10004" target-width="228.69998" target-x="134.1" target-y="488.3"></path><path d="M 464.70 517.50 L 466.90 512.70 L 469.50 508.20 L 472.50 503.90 L 479.20 495.90 L 482.90 492.20 L 471.80 514.80 L 469.50 520.60 L 467.70 526.50 L 466.20 534.70 L 465.60 544.80 L 465.70 550.70 L 466.10 556.40 L 467.00 562.20 L 468.80 569.70 L 471.10 577.10 L 474.00 584.30 L 477.40 591.30 L 481.30 598.00 L 485.70 604.40 L 490.50 610.80 L 495.70 616.80 L 501.20 622.60 L 507.00 628.20 L 513.10 633.40 L 519.40 638.20 L 526.00 642.70 L 532.90 646.80 L 540.00 650.50 L 547.30 653.70 L 554.80 656.40 L 562.50 658.70 L 568.90 660.10 L 575.40 661.10 L 581.80 661.50 L 591.60 661.70 L 620.90 660.20 L 622.50 662.70 L 615.90 664.70 L 609.30 666.30 L 602.50 667.50 L 595.70 668.20 L 588.80 668.60 L 582.00 668.60 L 575.20 668.10 L 568.40 667.30 L 561.60 666.00 L 555.00 664.40 L 548.50 662.30 L 542.00 659.80 L 533.90 656.10 L 526.20 651.90 L 518.70 647.30 L 511.50 642.10 L 504.60 636.50 L 498.10 630.60 L 491.90 624.30 L 486.10 617.60 L 480.60 610.50 L 475.60 603.30 L 471.00 595.80 L 466.80 588.00 L 458.50 589.90 L 454.40 591.10 L 450.50 592.70 L 442.90 604.70 L 436.80 617.20 L 433.40 625.90 L 430.60 634.70 L 428.30 643.80 L 426.40 652.90 L 424.90 662.20 L 423.90 671.50 L 423.30 680.90 L 422.90 699.50 L 418.80 700.70 L 414.70 701.40 L 410.70 701.60 L 402.60 700.60 L 398.50 699.60 L 392.70 697.50 L 386.90 694.80 L 381.40 691.70 L 376.30 688.40 L 369.30 682.70 L 362.80 676.60 L 356.70 669.90 L 351.10 662.90 L 346.00 655.50 L 341.30 647.80 L 337.20 639.70 L 333.60 631.50 L 330.50 623.00 L 328.00 614.30 L 326.10 605.60 L 324.80 596.70 L 314.20 594.40 L 299.20 590.40 L 303.60 588.80 L 321.30 590.00 L 339.10 590.80 L 356.90 591.20 L 374.70 591.10 L 392.50 590.40 L 410.20 589.20 L 423.50 587.90 L 449.90 584.10 L 463.00 581.70 L 461.30 573.50 L 460.00 565.20 L 459.30 556.90 L 459.00 548.50 L 459.20 540.10 L 459.70 531.80 L 462.00 524.50 L 464.70 517.50 Z M 386.00 597.30 L 343.40 597.30 L 334.90 597.50 L 328.50 596.40 L 330.40 605.60 L 332.80 614.70 L 335.80 623.70 L 339.40 632.50 L 343.60 640.90 L 348.30 649.10 L 353.50 657.00 L 359.20 664.60 L 365.40 671.70 L 375.20 680.50 L 380.60 684.50 L 386.20 688.10 L 392.00 691.20 L 398.00 693.80 L 402.70 695.40 L 407.50 696.50 L 412.30 697.30 L 417.40 697.70 L 417.80 690.00 L 420.00 667.10 L 420.80 651.80 L 422.00 646.20 L 424.90 629.20 L 426.20 623.70 L 428.00 618.20 L 438.90 593.30 L 403.70 596.40 L 386.00 597.30 Z" fill="#293345" fill-rule="nonzero" node-id="93" stroke="none" target-height="209.39996" target-width="323.3" target-x="299.2" target-y="492.2"></path><path d="M 320.20 538.40 L 330.20 523.30 L 335.70 516.10 L 341.70 509.40 L 346.00 505.20 L 350.60 501.30 L 355.40 497.70 L 362.10 497.20 L 375.50 497.40 L 385.50 498.30 L 407.30 501.30 L 419.10 503.40 L 430.80 505.90 L 442.40 509.00 L 449.90 511.40 L 457.40 514.30 L 464.70 517.50 L 462.00 524.50 L 459.70 531.80 L 433.70 550.50 L 426.80 554.70 L 419.80 558.50 L 409.90 562.60 L 395.40 567.00 L 385.90 569.30 L 376.40 571.00 L 357.20 573.10 L 347.50 573.60 L 333.00 573.80 L 289.30 573.10 L 290.10 566.80 L 296.00 563.10 L 301.60 558.90 L 306.90 554.40 L 311.80 549.50 L 316.20 544.20 L 320.20 538.40 Z" fill="#eee2e1" fill-rule="nonzero" node-id="95" stroke="none" target-height="76.599976" target-width="175.40002" target-x="289.3" target-y="497.2"></path><path d="M 193.50 528.80 L 211.60 528.70 L 220.70 528.10 L 229.80 527.10 L 238.80 525.60 L 247.70 523.70 L 256.50 521.30 L 265.00 518.40 L 273.40 515.00 L 285.50 508.80 L 297.00 501.20 L 291.60 511.10 L 299.60 510.80 L 288.20 523.20 L 279.50 527.00 L 270.70 530.40 L 261.70 533.40 L 252.60 536.00 L 243.40 538.10 L 234.00 539.90 L 224.60 541.20 L 215.20 542.10 L 205.80 542.60 L 196.30 542.60 L 189.00 542.20 L 152.90 536.50 L 151.70 533.80 L 150.20 528.20 L 149.70 523.80 L 149.70 519.40 L 164.10 523.50 L 178.60 526.90 L 186.00 528.10 L 193.50 528.80 Z" fill="#819fb1" fill-rule="nonzero" node-id="97" stroke="none" target-height="41.399963" target-width="149.90001" target-x="149.7" target-y="501.2"></path><path d="M 585.90 540.10 L 587.20 520.10 L 589.30 507.00 L 590.90 500.50 L 592.90 505.80 L 600.50 508.90 L 607.80 512.60 L 611.10 515.00 L 614.00 517.90 L 615.50 520.10 L 617.70 524.70 L 619.50 532.40 L 620.40 540.20 L 612.70 539.10 L 607.30 538.70 L 593.90 539.20 L 585.90 540.10 Z" fill="#66869d" fill-rule="nonzero" node-id="99" stroke="none" target-height="39.700012" target-width="34.5" target-x="585.9" target-y="500.5"></path><path d="M 268.50 553.20 L 276.90 550.40 L 285.10 547.20 L 301.20 540.00 L 317.10 532.20 L 313.40 537.90 L 309.30 543.10 L 304.80 548.00 L 294.90 556.80 L 281.30 566.60 L 272.80 571.90 L 268.20 574.50 L 263.50 576.70 L 258.70 578.40 L 253.60 579.70 L 248.50 580.50 L 243.30 580.90 L 238.10 580.90 L 227.70 579.80 L 217.50 577.20 L 207.80 573.20 L 203.20 570.70 L 194.80 564.80 L 219.70 562.70 L 232.10 561.20 L 244.30 559.30 L 260.50 555.60 L 268.50 553.20 Z" fill="#be586a" fill-rule="nonzero" node-id="101" stroke="none" target-height="48.700012" target-width="122.3" target-x="194.8" target-y="532.2"></path><path d="M 404.70 564.10 L 415.00 560.70 L 419.80 558.50 L 426.80 554.70 L 440.30 546.00 L 459.70 531.80 L 459.20 540.10 L 459.00 548.50 L 459.30 556.90 L 460.00 565.20 L 461.30 573.50 L 463.00 581.70 L 449.90 584.10 L 423.50 587.90 L 410.20 589.20 L 392.50 590.40 L 374.70 591.10 L 356.90 591.20 L 339.10 590.80 L 321.30 590.00 L 303.60 588.80 L 259.20 584.20 L 266.80 579.50 L 290.10 566.80 L 289.30 573.10 L 333.00 573.80 L 347.50 573.60 L 357.20 573.10 L 376.40 571.00 L 385.90 569.30 L 395.40 567.00 L 404.70 564.10 Z" fill="#d7c4ca" fill-rule="nonzero" node-id="103" stroke="none" target-height="59.400024" target-width="203.79999" target-x="259.2" target-y="531.8"></path><path d="M 585.40 548.40 L 608.00 541.90 L 605.00 546.60 L 613.20 552.40 L 621.20 558.60 L 628.90 565.10 L 640.10 575.30 L 650.90 585.80 L 672.30 607.20 L 676.70 611.80 L 684.70 621.60 L 690.20 629.40 L 695.30 637.50 L 679.20 624.30 L 670.80 618.10 L 662.20 612.20 L 653.30 606.70 L 644.30 601.50 L 635.00 596.80 L 625.50 592.60 L 615.70 588.90 L 597.90 582.80 L 589.40 579.00 L 587.20 568.90 L 585.40 548.40 Z" fill="#d3c2c8" fill-rule="nonzero" node-id="105" stroke="none" target-height="95.599976" target-width="109.89996" target-x="585.4" target-y="541.9"></path><path d="M 386.00 597.30 L 403.70 596.40 L 438.90 593.30 L 430.60 611.90 L 426.20 623.70 L 424.90 629.20 L 422.00 646.20 L 420.80 651.80 L 418.50 639.40 L 416.80 645.00 L 414.20 656.40 L 412.90 665.10 L 410.20 691.40 L 404.10 689.20 L 398.30 686.60 L 392.80 683.70 L 387.50 680.40 L 382.50 676.80 L 373.10 668.70 L 368.70 664.20 L 363.30 657.80 L 358.30 651.10 L 353.70 644.10 L 349.50 636.70 L 345.70 629.10 L 342.40 621.40 L 339.50 613.40 L 337.00 605.50 L 334.90 597.50 L 343.40 597.30 L 386.00 597.30 Z" fill="#7092a8" fill-rule="nonzero" node-id="107" stroke="none" target-height="98.10004" target-width="104" target-x="334.9" target-y="593.3"></path><path d="M 328.50 596.40 L 334.90 597.50 L 337.00 605.50 L 339.50 613.40 L 342.40 621.40 L 345.70 629.10 L 349.50 636.70 L 353.70 644.10 L 358.30 651.10 L 363.30 657.80 L 368.70 664.20 L 377.70 672.90 L 387.50 680.40 L 392.80 683.70 L 398.30 686.60 L 404.10 689.20 L 410.20 691.40 L 411.90 673.90 L 414.20 656.40 L 416.80 645.00 L 418.50 639.40 L 420.80 651.80 L 420.00 667.10 L 417.80 690.00 L 417.40 697.70 L 412.30 697.30 L 407.50 696.50 L 402.70 695.40 L 398.00 693.80 L 392.00 691.20 L 386.20 688.10 L 380.60 684.50 L 370.20 676.20 L 365.40 671.70 L 359.20 664.60 L 353.50 657.00 L 348.30 649.10 L 343.60 640.90 L 339.40 632.50 L 335.80 623.70 L 332.80 614.70 L 330.40 605.60 L 328.50 596.40 Z" fill="#9cb8c5" fill-rule="nonzero" node-id="109" stroke="none" target-height="101.29999" target-width="92.29999" target-x="328.5" target-y="596.4"></path><path d="M 722.00 671.10 L 726.60 674.60 L 730.90 678.20 L 734.90 682.20 L 738.60 686.40 L 743.10 692.40 L 747.20 698.60 L 750.90 705.30 L 754.10 712.10 L 759.60 726.10 L 761.60 733.60 L 763.10 741.20 L 766.60 764.30 L 768.50 771.90 L 763.10 778.90 L 756.10 787.00 L 741.40 802.40 L 734.50 804.60 L 730.30 800.90 L 733.70 796.10 L 736.60 791.00 L 739.20 785.80 L 741.30 780.30 L 743.00 774.70 L 744.40 769.00 L 745.90 757.40 L 746.20 751.60 L 745.80 744.50 L 743.80 730.60 L 739.70 714.70 L 736.80 705.80 L 733.40 696.90 L 727.90 683.90 L 722.00 671.10 Z" fill="#cdbec3" fill-rule="nonzero" node-id="111" stroke="none" target-height="133.5" target-width="46.5" target-x="722" target-y="671.1"></path><path d="M 648.30 796.50 L 653.50 790.20 L 658.90 784.20 L 664.80 778.50 L 670.90 773.20 L 677.30 768.10 L 684.00 763.40 L 690.90 759.10 L 698.00 755.20 L 705.30 751.60 L 712.80 748.50 L 720.50 745.80 L 728.30 743.60 L 734.40 745.40 L 734.60 747.20 L 726.10 749.50 L 717.70 752.30 L 709.60 755.70 L 701.60 759.50 L 693.80 763.90 L 686.40 768.70 L 679.20 773.90 L 672.40 779.50 L 665.90 785.60 L 659.80 792.00 L 654.10 798.70 L 648.80 805.80 L 644.00 813.20 L 639.70 820.80 L 636.00 828.80 L 632.70 836.90 L 630.50 843.60 L 628.70 850.40 L 627.40 857.40 L 626.40 864.40 L 625.80 871.60 L 642.30 865.60 L 655.30 861.50 L 664.10 859.10 L 673.00 857.20 L 698.30 852.90 L 706.60 851.20 L 714.60 849.10 L 725.10 845.40 L 730.10 843.10 L 734.80 840.40 L 739.40 837.30 L 743.70 833.70 L 746.00 831.40 L 747.80 828.90 L 749.20 826.30 L 750.70 822.00 L 751.70 817.50 L 752.30 812.90 L 753.20 799.10 L 741.40 802.40 L 748.90 794.80 L 763.10 778.90 L 760.70 787.60 L 759.50 792.90 L 758.80 798.40 L 758.50 804.00 L 758.60 809.50 L 759.10 815.00 L 760.10 820.50 L 761.60 825.80 L 763.50 830.90 L 765.90 835.90 L 768.70 840.60 L 772.10 844.90 L 776.00 849.00 L 780.30 852.80 L 784.90 856.10 L 789.60 859.00 L 797.10 862.80 L 805.00 866.10 L 813.00 869.00 L 837.10 877.10 L 849.90 882.50 L 856.00 885.70 L 862.00 889.10 L 867.80 893.00 L 873.30 897.20 L 883.90 909.40 L 883.30 890.20 L 882.10 880.40 L 879.90 840.90 L 878.90 831.10 L 876.70 818.10 L 875.00 811.70 L 873.00 805.20 L 870.50 798.80 L 867.50 792.60 L 864.10 786.60 L 860.20 781.00 L 855.80 775.70 L 852.20 772.10 L 844.30 765.60 L 839.90 762.80 L 835.40 760.40 L 830.60 758.50 L 820.70 755.80 L 810.60 754.00 L 814.00 747.30 L 817.80 749.50 L 821.70 751.20 L 838.20 756.10 L 842.20 757.70 L 846.00 759.70 L 850.90 763.00 L 855.60 766.70 L 859.80 770.60 L 863.70 775.00 L 867.30 779.60 L 873.50 789.60 L 876.10 794.90 L 879.10 802.20 L 881.50 809.60 L 884.70 823.50 L 886.10 836.30 L 886.60 855.70 L 888.60 881.60 L 889.20 894.60 L 889.20 903.30 L 888.80 912.00 L 888.00 920.60 L 884.20 917.90 L 880.70 914.80 L 867.50 901.50 L 864.00 898.40 L 860.30 895.60 L 855.20 892.30 L 850.00 889.40 L 844.60 887.00 L 836.30 883.70 L 810.70 875.50 L 802.20 872.60 L 793.90 869.30 L 788.50 866.80 L 783.30 863.90 L 778.30 860.60 L 771.80 855.50 L 768.90 852.60 L 765.00 847.90 L 761.50 842.90 L 755.30 832.30 L 747.60 839.20 L 739.40 845.70 L 735.00 848.40 L 730.30 850.70 L 724.60 853.00 L 712.90 856.40 L 704.00 858.40 L 667.90 864.20 L 658.90 866.10 L 652.40 868.00 L 646.10 870.50 L 627.50 878.80 L 621.10 881.00 L 620.50 873.30 L 620.60 865.80 L 621.30 858.30 L 622.60 850.80 L 624.40 843.50 L 626.70 836.30 L 629.40 829.20 L 632.60 822.30 L 636.10 815.60 L 639.90 809.00 L 648.30 796.50 Z" fill="#445360" fill-rule="nonzero" node-id="113" stroke="none" target-height="177" target-width="268.7" target-x="620.5" target-y="743.6"></path><path d="M 734.40 745.40 L 739.00 747.00 L 739.20 754.30 L 738.90 761.50 L 738.00 768.50 L 736.50 775.60 L 734.50 782.40 L 732.00 789.10 L 728.90 795.60 L 725.40 801.80 L 721.40 807.90 L 730.30 800.90 L 734.50 804.60 L 733.10 811.00 L 732.00 814.00 L 730.50 816.80 L 729.20 818.50 L 725.70 821.10 L 719.00 825.00 L 712.10 828.20 L 705.10 830.90 L 697.80 833.10 L 683.00 836.50 L 671.60 838.30 L 637.50 842.30 L 640.90 833.70 L 644.60 825.10 L 648.80 816.80 L 653.60 808.80 L 657.10 803.70 L 665.10 794.20 L 671.80 787.70 L 678.70 781.60 L 685.90 775.90 L 693.40 770.50 L 701.20 765.50 L 709.20 761.00 L 717.50 757.00 L 726.10 753.50 L 734.80 750.40 L 734.40 745.40 Z" fill="#8da7b9" fill-rule="nonzero" node-id="115" stroke="none" target-height="96.89996" target-width="101.70001" target-x="637.5" target-y="745.4"></path><path d="M 798.80 770.90 L 805.10 762.70 L 810.60 754.00 L 820.60 760.50 L 835.90 769.60 L 840.80 773.00 L 845.30 776.70 L 849.50 781.00 L 853.90 786.00 L 857.80 791.40 L 861.30 797.00 L 864.40 802.90 L 867.10 809.00 L 869.30 815.30 L 871.00 821.70 L 873.30 835.40 L 874.20 849.80 L 874.60 871.60 L 875.20 878.80 L 876.20 885.90 L 878.60 895.20 L 880.40 899.80 L 883.30 890.20 L 883.90 909.40 L 873.30 897.20 L 872.70 887.40 L 872.00 884.30 L 871.20 882.40 L 870.00 880.70 L 868.40 879.10 L 857.70 871.40 L 852.10 868.00 L 843.40 863.40 L 807.40 846.90 L 793.00 839.20 L 782.10 831.80 L 777.70 828.10 L 773.80 824.00 L 770.20 819.60 L 767.20 814.80 L 764.70 809.80 L 762.70 804.50 L 761.00 796.20 L 760.70 787.60 L 763.10 778.90 L 775.70 762.30 L 776.90 767.30 L 794.30 767.30 L 795.60 775.10 L 798.80 770.90 Z" fill="#8da6b7" fill-rule="nonzero" node-id="117" stroke="none" target-height="155.40002" target-width="123.20001" target-x="760.7" target-y="754"></path><path d="M 810.60 754.00 L 820.70 755.80 L 830.60 758.50 L 835.40 760.40 L 839.90 762.80 L 844.30 765.60 L 852.20 772.10 L 855.80 775.70 L 860.20 781.00 L 864.10 786.60 L 867.50 792.60 L 870.50 798.80 L 873.00 805.20 L 876.70 818.10 L 878.90 831.10 L 879.90 840.90 L 881.40 870.50 L 882.10 880.40 L 883.30 890.20 L 880.40 899.80 L 877.30 890.50 L 876.20 885.90 L 875.20 878.80 L 874.60 871.60 L 873.90 842.60 L 873.30 835.40 L 872.20 828.20 L 871.00 821.70 L 869.30 815.30 L 867.10 809.00 L 864.40 802.90 L 861.30 797.00 L 857.80 791.40 L 853.90 786.00 L 849.50 781.00 L 845.30 776.70 L 840.80 773.00 L 835.90 769.60 L 820.60 760.50 L 810.60 754.00 Z" fill="#cad4db" fill-rule="nonzero" node-id="119" stroke="none" target-height="145.79999" target-width="72.70001" target-x="810.6" target-y="754"></path><path d="M 776.00 849.00 L 772.10 844.90 L 768.70 840.60 L 765.90 835.90 L 763.50 830.90 L 761.60 825.80 L 760.10 820.50 L 759.10 815.00 L 758.60 809.50 L 758.50 804.00 L 758.80 798.40 L 759.50 792.90 L 760.70 787.60 L 760.70 791.90 L 761.70 800.40 L 762.70 804.50 L 764.70 809.80 L 767.20 814.80 L 770.20 819.60 L 773.80 824.00 L 777.70 828.10 L 782.10 831.80 L 787.40 835.60 L 798.60 842.40 L 807.40 846.90 L 843.40 863.40 L 852.10 868.00 L 857.70 871.40 L 868.40 879.10 L 870.00 880.70 L 871.20 882.40 L 872.00 884.30 L 872.70 887.40 L 873.30 897.20 L 867.80 893.00 L 862.00 889.10 L 849.90 882.50 L 837.10 877.10 L 813.00 869.00 L 805.00 866.10 L 797.10 862.80 L 789.60 859.00 L 784.90 856.10 L 780.30 852.80 L 776.00 849.00 Z" fill="#6c8ba1" fill-rule="nonzero" node-id="121" stroke="none" target-height="109.60004" target-width="114.79999" target-x="758.5" target-y="787.6"></path><path d="M 741.40 802.40 L 753.20 799.10 L 752.30 812.90 L 751.70 817.50 L 750.70 822.00 L 749.20 826.30 L 747.80 828.90 L 746.00 831.40 L 743.70 833.70 L 739.40 837.30 L 734.80 840.40 L 730.10 843.10 L 719.90 847.40 L 706.60 851.20 L 698.30 852.90 L 673.00 857.20 L 664.10 859.10 L 655.30 861.50 L 642.30 865.60 L 629.50 870.20 L 633.20 856.10 L 637.50 842.30 L 671.60 838.30 L 683.00 836.50 L 697.80 833.10 L 705.10 830.90 L 712.10 828.20 L 719.00 825.00 L 727.70 819.90 L 730.50 816.80 L 732.00 814.00 L 733.10 811.00 L 734.50 804.60 L 741.40 802.40 Z" fill="#6c8ea4" fill-rule="nonzero" node-id="123" stroke="none" target-height="71.10004" target-width="123.70001" target-x="629.5" target-y="799.1"></path></svg>