<?xml version="1.0" standalone="no"?><!DOCTYPE svg PUBLIC "-//W3C//DTD SVG 1.1//EN" "http://www.w3.org/Graphics/SVG/1.1/DTD/svg11.dtd"><svg height="1366" node-id="1" sillyvg="true" template-height="1366" template-width="1366" version="1.1" viewBox="0 0 1366 1366" width="1366" xmlns="http://www.w3.org/2000/svg" xmlns:xlink="http://www.w3.org/1999/xlink"><defs node-id="52"><clipPath id="clip0_725_40514" node-id="49"><path d="M 0.00 0.00 L 1365.30 0.00 L 1365.30 1365.30 L 0.00 1365.30 Z" fill="#000000" fill-rule="nonzero" node-id="55" stroke="none" target-height="1365.3" target-width="1365.3" target-x="0" target-y="0"></path></clipPath></defs><g clip-path="url(#clip0_725_40514)" id="sillyvg_g_0" node-id="59"><path d="M 0.00 0.00 L 1365.30 0.00 L 1365.30 1365.30 L 0.00 1365.30 L 0.00 0.00 Z M 571.50 271.60 L 563.70 276.70 L 556.30 282.30 L 549.20 288.30 L 542.40 294.60 L 535.90 301.30 L 529.80 308.30 L 507.00 307.00 L 478.40 306.90 L 461.30 307.20 L 431.20 308.90 L 411.20 311.10 L 391.30 314.50 L 381.50 316.80 L 371.90 319.50 L 362.40 322.60 L 353.00 326.20 L 336.80 333.90 L 330.00 337.90 L 321.50 344.00 L 317.60 347.50 L 314.00 351.20 L 310.70 355.30 L 307.90 359.70 L 305.50 364.40 L 303.70 369.20 L 302.30 374.30 L 301.40 379.40 L 301.10 384.50 L 301.20 389.70 L 301.90 394.90 L 303.00 399.90 L 304.70 404.90 L 307.60 411.40 L 311.00 417.70 L 314.80 423.70 L 323.40 435.00 L 328.10 440.40 L 343.00 455.80 L 361.60 472.10 L 371.30 479.90 L 381.30 487.30 L 372.30 505.80 L 368.20 515.20 L 360.00 536.90 L 356.10 549.30 L 352.70 561.80 L 349.70 574.40 L 347.10 587.10 L 343.20 612.80 L 340.80 638.60 L 339.70 659.50 L 339.20 680.50 L 339.30 701.50 L 340.00 722.40 L 341.10 743.40 L 342.80 764.30 L 344.90 785.20 L 347.50 806.00 L 353.60 846.30 L 357.30 865.90 L 361.50 885.30 L 366.20 904.70 L 371.50 923.80 L 377.40 942.80 L 382.30 956.90 L 387.50 970.80 L 393.10 984.60 L 399.10 998.30 L 403.90 1008.20 L 409.00 1017.90 L 414.60 1027.40 L 420.70 1036.60 L 427.10 1045.50 L 434.00 1054.10 L 439.60 1059.70 L 445.80 1065.00 L 450.10 1068.20 L 454.60 1071.00 L 459.40 1073.40 L 464.30 1075.40 L 469.40 1076.90 L 474.70 1077.80 L 478.60 1078.00 L 482.40 1077.80 L 486.10 1077.10 L 489.80 1076.00 L 493.30 1074.60 L 500.10 1070.80 L 503.10 1068.50 L 511.70 1061.20 L 514.80 1059.10 L 518.10 1057.50 L 522.80 1056.30 L 527.80 1056.10 L 530.20 1056.40 L 532.40 1057.20 L 535.70 1058.70 L 538.70 1060.70 L 563.60 1080.90 L 570.20 1085.70 L 577.10 1090.20 L 584.30 1094.30 L 595.40 1099.00 L 601.20 1100.90 L 607.10 1102.30 L 613.10 1103.10 L 619.10 1103.40 L 623.60 1103.20 L 628.00 1102.50 L 632.40 1101.30 L 636.70 1099.80 L 641.30 1097.50 L 645.50 1095.00 L 649.50 1092.00 L 655.20 1087.10 L 660.40 1081.70 L 672.20 1068.90 L 676.20 1066.20 L 678.40 1065.60 L 681.50 1065.60 L 691.30 1070.00 L 699.20 1074.50 L 734.20 1096.80 L 744.40 1102.50 L 754.80 1107.60 L 769.30 1113.40 L 776.70 1115.70 L 783.80 1117.50 L 791.00 1118.80 L 798.30 1119.60 L 805.70 1119.80 L 813.00 1119.60 L 820.30 1118.80 L 825.30 1117.70 L 830.30 1116.10 L 835.10 1114.10 L 839.70 1111.70 L 844.00 1108.90 L 848.00 1105.60 L 850.80 1102.90 L 855.40 1096.80 L 857.30 1093.30 L 859.30 1088.80 L 860.90 1084.30 L 862.00 1079.60 L 863.20 1072.50 L 863.90 1065.20 L 864.70 1049.00 L 865.70 1045.70 L 866.70 1044.30 L 867.90 1043.30 L 869.60 1042.60 L 874.30 1041.90 L 880.20 1042.60 L 922.50 1054.20 L 933.20 1056.60 L 942.00 1058.20 L 957.00 1059.60 L 968.90 1059.40 L 974.80 1058.70 L 980.70 1057.60 L 986.50 1056.00 L 993.00 1053.40 L 999.30 1050.30 L 1003.40 1048.00 L 1010.80 1042.40 L 1014.20 1039.10 L 1017.10 1035.60 L 1019.80 1031.70 L 1022.00 1027.50 L 1023.60 1023.10 L 1024.60 1018.50 L 1025.10 1013.80 L 1025.00 1009.10 L 1024.40 1004.40 L 1023.20 999.80 L 1021.60 995.40 L 1017.20 987.20 L 1011.80 979.70 L 992.90 959.20 L 998.50 959.10 L 1004.00 959.50 L 1016.50 961.70 L 1023.50 962.60 L 1037.80 963.20 L 1052.00 962.70 L 1058.70 961.80 L 1065.30 960.40 L 1069.70 959.10 L 1078.00 955.60 L 1081.80 953.30 L 1085.40 950.60 L 1091.90 944.10 L 1094.60 940.40 L 1096.10 937.70 L 1098.20 931.90 L 1099.20 925.90 L 1098.80 918.90 L 1097.90 915.20 L 1096.50 911.70 L 1094.70 908.30 L 1090.20 902.10 L 1086.10 897.90 L 1081.70 894.30 L 1048.50 871.70 L 1038.10 863.70 L 1028.10 855.20 L 1018.40 846.40 L 1009.00 837.20 L 1000.10 827.60 L 991.50 817.80 L 983.20 807.60 L 975.40 797.10 L 967.90 786.30 L 960.90 775.20 L 954.20 763.90 L 948.00 752.40 L 942.20 740.60 L 936.80 728.60 L 931.90 716.50 L 923.60 692.30 L 920.10 680.30 L 914.10 656.10 L 908.80 631.60 L 918.90 632.40 L 929.00 632.80 L 949.20 632.60 L 963.30 631.80 L 977.40 630.60 L 986.80 629.30 L 996.10 627.70 L 1012.10 623.70 L 1025.30 618.90 L 1031.80 616.00 L 1037.30 612.80 L 1042.60 609.10 L 1045.80 606.20 L 1051.50 599.90 L 1053.90 596.40 L 1055.90 592.60 L 1057.50 588.60 L 1059.20 580.10 L 1059.50 575.90 L 1059.20 567.30 L 1057.20 556.60 L 1055.30 550.50 L 1052.20 542.90 L 1048.50 535.60 L 1044.40 528.60 L 1035.00 515.20 L 1029.80 508.80 L 1021.70 499.70 L 1013.10 490.90 L 1003.40 481.90 L 993.50 473.30 L 983.20 465.00 L 972.80 457.10 L 958.40 446.90 L 943.80 437.20 L 928.80 428.00 L 913.60 419.20 L 898.10 410.80 L 882.50 402.70 L 881.30 394.50 L 879.70 386.30 L 877.60 378.30 L 872.30 362.50 L 869.20 354.70 L 865.10 346.10 L 860.40 337.70 L 855.30 329.60 L 849.60 321.90 L 843.50 314.50 L 836.90 307.50 L 829.90 301.00 L 816.00 289.90 L 809.30 285.20 L 795.30 276.90 L 780.60 269.70 L 769.30 265.00 L 757.80 260.80 L 746.90 257.40 L 735.80 254.50 L 724.70 251.90 L 713.50 249.70 L 702.20 248.00 L 690.80 246.80 L 679.40 246.10 L 659.60 245.90 L 651.20 246.40 L 634.40 248.40 L 617.90 251.90 L 601.80 256.90 L 594.00 260.00 L 586.30 263.50 L 578.80 267.30 L 571.50 271.60 Z" fill="#fefefe" fill-rule="nonzero" node-id="61" stroke="none" target-height="1365.3" target-width="1365.3" target-x="0" target-y="0"></path><path d="M 479.90 414.70 L 488.50 410.40 L 497.30 406.70 L 506.30 403.50 L 515.40 400.70 L 524.70 398.40 L 543.60 395.00 L 562.60 392.70 L 575.40 392.10 L 588.20 391.90 L 601.00 392.10 L 613.80 392.80 L 626.60 393.90 L 639.30 395.40 L 652.00 397.40 L 664.60 399.80 L 677.00 402.70 L 700.30 409.30 L 711.00 412.90 L 732.20 420.80 L 733.50 423.50 L 735.20 425.80 L 743.30 434.10 L 751.60 444.50 L 763.70 460.40 L 767.30 466.00 L 774.10 478.10 L 780.60 490.40 L 788.40 507.20 L 794.60 522.30 L 796.70 529.00 L 803.30 556.30 L 808.30 585.30 L 809.60 595.10 L 811.40 614.60 L 814.00 635.10 L 816.50 665.90 L 819.10 686.30 L 827.10 725.10 L 831.20 739.80 L 835.80 754.40 L 840.70 768.80 L 846.20 783.10 L 858.10 809.20 L 864.40 822.10 L 871.10 834.80 L 878.20 847.20 L 900.40 882.90 L 915.00 904.40 L 941.40 944.40 L 945.20 951.10 L 950.30 962.20 L 951.60 966.50 L 952.40 970.90 L 952.50 975.30 L 951.60 981.10 L 949.40 986.40 L 947.90 988.50 L 946.10 990.40 L 943.00 992.80 L 939.50 994.70 L 932.10 997.60 L 926.80 998.60 L 921.50 999.10 L 910.70 999.00 L 900.00 997.40 L 892.20 995.40 L 884.50 992.90 L 877.60 990.30 L 870.80 987.30 L 864.20 983.90 L 854.70 978.10 L 845.50 971.90 L 834.50 963.40 L 823.90 954.50 L 813.70 945.20 L 794.10 925.60 L 784.60 915.40 L 773.30 901.80 L 755.90 881.80 L 736.80 858.50 L 731.90 853.30 L 734.00 858.70 L 736.60 863.80 L 762.20 909.00 L 774.80 932.70 L 780.70 944.80 L 791.90 969.70 L 795.10 978.20 L 796.80 984.00 L 798.20 989.90 L 799.10 995.90 L 799.60 1000.10 L 799.50 1004.30 L 798.80 1008.50 L 797.70 1012.60 L 796.00 1016.50 L 793.90 1020.10 L 791.30 1023.40 L 788.30 1026.30 L 781.30 1031.00 L 773.80 1034.30 L 769.90 1035.40 L 764.50 1036.40 L 759.00 1036.80 L 753.50 1036.80 L 747.00 1036.30 L 740.70 1035.20 L 734.50 1033.50 L 728.50 1031.30 L 722.60 1028.70 L 716.80 1025.80 L 708.50 1020.90 L 700.40 1015.60 L 692.70 1009.10 L 685.40 1002.30 L 678.50 995.10 L 665.40 979.90 L 659.30 972.00 L 641.80 947.50 L 622.60 917.70 L 608.40 894.30 L 602.00 886.40 L 601.80 889.50 L 602.10 892.50 L 616.30 946.40 L 619.80 961.00 L 622.80 975.60 L 625.70 995.30 L 626.70 1005.30 L 626.60 1014.00 L 626.10 1018.30 L 625.10 1022.50 L 624.10 1025.20 L 622.70 1027.80 L 619.30 1032.40 L 615.10 1035.90 L 610.10 1038.20 L 607.50 1038.90 L 604.70 1039.40 L 599.20 1039.40 L 590.10 1037.70 L 585.60 1036.30 L 579.10 1033.70 L 572.90 1030.50 L 566.90 1026.80 L 561.20 1022.80 L 555.40 1018.00 L 544.70 1007.60 L 537.20 999.30 L 530.10 990.60 L 516.90 972.50 L 509.20 960.20 L 501.90 947.70 L 494.90 934.90 L 488.30 922.00 L 482.00 908.90 L 471.30 884.70 L 466.80 873.60 L 460.40 855.70 L 457.40 849.30 L 456.80 853.80 L 456.80 862.70 L 459.80 904.10 L 460.50 918.00 L 460.50 947.20 L 459.30 957.30 L 458.00 962.20 L 456.40 965.40 L 453.60 967.80 L 450.20 968.90 L 448.00 968.90 L 446.00 968.40 L 442.20 966.40 L 438.90 963.70 L 434.30 958.90 L 430.20 953.60 L 426.40 948.10 L 423.10 942.20 L 412.70 921.30 L 406.60 907.00 L 399.20 886.40 L 390.60 859.70 L 384.90 839.40 L 379.60 818.90 L 372.40 786.20 L 366.20 753.20 L 363.10 731.10 L 362.10 720.00 L 361.50 717.40 L 360.60 714.90 L 358.30 710.10 L 357.80 687.90 L 357.80 665.60 L 358.30 650.80 L 359.30 636.00 L 362.20 608.60 L 364.20 596.00 L 366.60 583.40 L 369.40 571.00 L 372.70 558.60 L 376.50 546.40 L 380.60 534.30 L 385.20 522.40 L 388.50 514.70 L 392.30 507.30 L 405.00 484.40 L 410.10 476.50 L 415.70 469.00 L 428.00 454.60 L 441.30 441.20 L 448.40 435.10 L 455.90 429.50 L 463.70 424.20 L 479.90 414.70 Z M 470.00 437.10 L 464.70 438.80 L 459.50 441.10 L 456.10 442.90 L 450.10 447.30 L 447.40 449.90 L 445.10 452.80 L 442.50 457.40 L 442.50 459.60 L 443.20 461.10 L 444.50 462.30 L 446.10 463.30 L 448.00 463.80 L 449.80 463.90 L 451.50 463.60 L 453.10 462.40 L 459.70 455.70 L 462.80 453.50 L 466.10 451.70 L 469.60 450.20 L 476.90 448.50 L 480.70 448.10 L 488.30 448.60 L 494.10 449.90 L 496.30 450.00 L 499.00 449.10 L 501.00 447.20 L 502.00 444.90 L 502.00 443.00 L 501.50 441.20 L 500.80 440.20 L 498.60 438.70 L 494.00 437.10 L 489.30 436.10 L 484.50 435.60 L 479.60 435.70 L 474.80 436.20 L 470.00 437.10 Z M 660.30 441.20 L 659.00 441.70 L 657.30 443.30 L 656.60 444.80 L 656.40 446.60 L 656.60 448.40 L 657.30 450.00 L 658.50 451.40 L 660.10 452.40 L 664.00 452.70 L 672.10 452.10 L 676.30 452.50 L 680.30 453.30 L 684.30 454.60 L 688.10 456.30 L 691.70 458.30 L 695.20 460.80 L 698.30 463.50 L 704.80 471.00 L 706.10 471.60 L 707.60 471.70 L 712.10 471.00 L 713.10 468.90 L 713.80 466.60 L 713.80 465.00 L 713.50 463.50 L 712.70 462.00 L 709.80 457.90 L 706.50 454.20 L 702.80 450.80 L 698.70 447.70 L 694.40 445.10 L 689.80 443.00 L 685.00 441.30 L 680.20 440.20 L 675.20 439.50 L 670.20 439.50 L 665.20 440.00 L 660.30 441.20 Z M 450.90 484.50 L 446.60 486.70 L 442.50 489.20 L 435.10 495.30 L 428.60 502.50 L 425.80 506.40 L 420.90 514.70 L 418.30 513.10 L 409.20 504.60 L 406.60 503.00 L 404.90 502.70 L 403.40 502.80 L 400.80 504.30 L 399.10 506.90 L 398.80 508.40 L 398.90 509.90 L 399.40 511.50 L 401.40 514.90 L 406.30 520.90 L 409.10 523.50 L 412.20 525.80 L 415.50 527.80 L 414.00 530.60 L 401.30 528.50 L 398.70 528.70 L 397.50 529.20 L 395.60 530.90 L 394.90 532.80 L 394.80 534.80 L 395.00 536.10 L 396.30 538.30 L 398.50 540.30 L 401.00 541.80 L 406.60 543.70 L 412.40 544.80 L 412.20 551.00 L 412.40 557.30 L 413.00 563.50 L 414.00 569.70 L 415.50 575.80 L 417.40 581.80 L 419.70 587.60 L 422.50 593.10 L 425.80 598.40 L 429.60 603.40 L 433.80 607.90 L 438.60 612.10 L 446.00 617.10 L 450.00 619.20 L 454.20 620.80 L 458.50 622.00 L 462.90 622.80 L 467.30 623.10 L 471.80 622.90 L 481.40 620.90 L 486.40 619.20 L 491.20 617.00 L 495.80 614.30 L 500.10 611.30 L 504.10 607.90 L 507.80 604.20 L 511.20 600.10 L 514.20 595.80 L 517.20 590.60 L 519.80 585.20 L 522.10 579.70 L 524.00 574.00 L 525.50 568.20 L 526.60 562.30 L 527.30 556.40 L 527.60 550.40 L 527.40 544.30 L 526.90 538.40 L 525.90 532.50 L 524.40 526.70 L 522.90 521.60 L 521.00 516.60 L 518.60 511.80 L 515.90 507.10 L 512.80 502.80 L 509.40 498.70 L 505.60 494.90 L 501.60 491.40 L 497.20 488.30 L 492.50 485.60 L 487.60 483.50 L 482.50 481.80 L 477.20 480.80 L 471.80 480.30 L 466.50 480.40 L 462.40 480.90 L 454.70 482.90 L 450.90 484.50 Z M 664.50 488.10 L 660.10 488.60 L 655.70 489.60 L 651.50 490.90 L 643.40 494.70 L 639.60 497.00 L 632.60 502.50 L 629.40 505.50 L 625.10 510.70 L 621.30 516.30 L 618.00 522.20 L 615.20 528.40 L 613.00 534.70 L 611.30 541.30 L 610.20 547.90 L 609.60 554.60 L 609.60 567.50 L 610.30 573.60 L 611.40 579.70 L 612.90 585.70 L 614.90 591.50 L 617.40 597.10 L 620.30 602.50 L 623.60 607.70 L 630.30 615.70 L 636.60 621.10 L 643.80 625.40 L 647.70 627.10 L 651.60 628.40 L 659.80 630.10 L 664.80 630.40 L 669.80 630.10 L 674.70 629.40 L 679.60 628.10 L 684.20 626.40 L 688.70 624.30 L 693.00 621.70 L 697.00 618.70 L 704.50 611.60 L 711.00 603.40 L 713.80 598.90 L 717.10 592.60 L 719.80 586.10 L 721.90 579.40 L 723.40 572.50 L 724.40 565.50 L 724.90 558.50 L 735.30 558.00 L 738.60 557.20 L 740.60 556.30 L 742.40 555.10 L 744.10 553.40 L 744.90 552.20 L 745.60 549.50 L 745.40 547.50 L 744.60 545.60 L 742.70 543.80 L 741.40 543.20 L 738.30 543.10 L 726.10 544.50 L 723.00 544.10 L 724.60 542.70 L 729.90 539.90 L 736.20 535.50 L 739.00 532.80 L 741.50 529.90 L 743.70 526.70 L 744.30 525.40 L 744.50 522.70 L 743.80 520.80 L 742.60 519.10 L 741.00 517.80 L 739.20 517.00 L 737.90 516.90 L 735.30 517.80 L 728.00 524.00 L 724.20 526.80 L 720.00 529.10 L 717.80 523.70 L 715.20 518.50 L 712.20 513.50 L 708.80 508.80 L 705.00 504.50 L 700.80 500.40 L 697.50 497.60 L 690.00 492.90 L 686.00 491.10 L 681.90 489.60 L 677.60 488.60 L 673.30 487.90 L 668.90 487.80 L 664.50 488.10 Z M 406.10 611.80 L 401.90 612.90 L 397.90 614.50 L 393.90 616.40 L 390.20 618.70 L 386.80 621.40 L 383.60 624.40 L 380.90 627.70 L 378.60 631.40 L 376.70 635.40 L 375.30 638.90 L 374.40 642.50 L 373.80 646.00 L 373.70 649.70 L 374.10 654.50 L 375.00 659.20 L 376.60 663.90 L 378.80 668.30 L 381.40 672.40 L 384.50 676.20 L 388.00 679.70 L 391.90 682.50 L 396.10 684.90 L 400.10 686.70 L 404.20 687.90 L 408.50 688.60 L 412.80 688.80 L 421.40 688.40 L 425.90 687.50 L 430.10 686.00 L 434.20 684.00 L 438.00 681.50 L 441.50 678.70 L 444.70 675.50 L 447.40 671.90 L 449.70 668.00 L 451.50 663.80 L 452.60 660.10 L 453.30 656.40 L 453.70 652.60 L 453.20 644.90 L 451.30 637.50 L 448.00 630.60 L 445.10 626.50 L 441.80 622.80 L 438.00 619.40 L 433.90 616.50 L 429.50 614.10 L 424.90 612.20 L 420.20 611.40 L 415.50 611.10 L 406.10 611.80 Z M 712.50 623.70 L 708.60 625.10 L 704.90 626.90 L 701.40 629.20 L 698.10 631.80 L 695.20 634.70 L 692.50 638.00 L 690.20 641.50 L 688.30 645.10 L 686.70 649.00 L 685.60 653.00 L 684.80 657.10 L 684.60 661.20 L 684.80 665.30 L 685.50 669.40 L 686.80 673.50 L 690.00 680.40 L 694.50 686.40 L 698.10 690.00 L 702.10 693.00 L 706.50 695.60 L 711.20 697.70 L 716.00 699.10 L 721.00 700.00 L 728.50 700.20 L 736.00 698.90 L 740.50 697.30 L 744.70 695.20 L 748.70 692.60 L 752.30 689.60 L 755.60 686.20 L 758.40 682.40 L 760.40 678.80 L 762.00 675.10 L 763.20 671.20 L 764.00 667.10 L 764.40 663.10 L 764.40 659.00 L 764.00 655.00 L 763.10 651.00 L 760.20 643.70 L 756.20 637.40 L 753.80 634.60 L 750.10 631.20 L 746.10 628.30 L 741.70 625.90 L 737.00 624.00 L 732.30 622.70 L 727.30 622.00 L 719.90 622.10 L 712.50 623.70 Z M 524.70 625.10 L 521.30 626.30 L 518.20 627.90 L 515.20 629.90 L 512.50 632.30 L 508.00 637.80 L 506.20 640.90 L 504.80 644.20 L 503.80 647.70 L 502.90 652.40 L 502.40 657.10 L 502.40 661.90 L 502.80 666.70 L 503.60 671.50 L 504.80 676.20 L 506.40 680.70 L 508.30 685.20 L 510.70 689.40 L 513.30 693.40 L 516.30 697.10 L 519.60 700.60 L 523.20 703.80 L 527.10 706.50 L 531.30 708.90 L 535.80 710.80 L 545.20 713.40 L 554.90 714.50 L 561.40 714.40 L 567.80 713.70 L 574.20 712.30 L 580.40 710.40 L 586.40 707.90 L 592.20 704.90 L 597.70 701.40 L 602.80 697.40 L 607.50 692.90 L 610.70 689.20 L 616.20 681.20 L 620.20 672.60 L 621.60 668.20 L 622.60 663.80 L 623.20 659.20 L 623.30 654.60 L 623.00 650.10 L 622.20 645.60 L 620.90 641.20 L 619.10 637.00 L 617.60 634.40 L 615.70 632.10 L 611.20 628.40 L 605.90 625.70 L 601.60 624.40 L 597.30 623.60 L 594.40 623.50 L 589.00 624.30 L 573.50 630.20 L 568.10 631.40 L 565.30 631.50 L 561.10 631.50 L 557.10 630.80 L 541.10 625.70 L 537.10 624.70 L 530.40 624.10 L 524.70 625.10 Z" fill="#fefefe" fill-rule="nonzero" node-id="63" stroke="none" target-height="647.5" target-width="594.7" target-x="357.8" target-y="391.9"></path><path d="M 463.20 491.70 L 467.20 491.10 L 471.20 490.90 L 475.00 491.10 L 478.80 491.80 L 483.80 493.30 L 488.50 495.40 L 493.00 498.00 L 497.20 501.20 L 501.00 504.80 L 504.50 508.80 L 507.60 513.10 L 510.10 517.70 L 514.30 528.70 L 515.80 535.00 L 516.80 541.40 L 517.20 548.00 L 517.00 554.50 L 516.20 561.00 L 514.90 567.40 L 513.00 573.60 L 510.50 579.70 L 506.00 588.40 L 503.20 592.50 L 500.10 596.30 L 496.70 599.90 L 493.00 603.10 L 489.00 605.90 L 484.70 608.20 L 480.10 610.10 L 476.10 611.30 L 472.10 612.00 L 468.00 612.10 L 463.90 611.80 L 459.80 611.10 L 455.90 609.90 L 452.10 608.30 L 448.50 606.30 L 445.20 603.90 L 441.20 600.30 L 437.60 596.40 L 434.50 592.10 L 431.70 587.50 L 429.20 582.80 L 427.20 577.90 L 425.70 572.70 L 423.60 562.20 L 423.00 551.40 L 423.30 546.00 L 424.90 535.40 L 426.20 530.10 L 427.90 525.00 L 430.00 520.10 L 432.50 515.30 L 437.60 508.10 L 440.60 504.80 L 447.20 498.90 L 450.90 496.50 L 454.80 494.40 L 458.90 492.80 L 463.20 491.70 Z M 456.00 514.60 L 458.20 515.30 L 460.30 516.40 L 462.10 517.90 L 463.50 519.60 L 464.50 521.70 L 464.90 526.00 L 464.60 527.80 L 462.80 531.10 L 460.00 533.70 L 456.50 535.00 L 454.60 535.10 L 452.30 534.60 L 450.10 533.50 L 446.40 530.60 L 444.90 536.50 L 444.00 542.50 L 443.70 548.60 L 443.90 554.60 L 444.60 560.70 L 445.60 566.70 L 447.00 571.70 L 450.30 579.90 L 454.00 585.90 L 458.70 591.00 L 463.90 594.60 L 469.10 596.50 L 474.50 597.20 L 480.00 596.50 L 482.60 595.60 L 485.10 594.30 L 489.10 591.40 L 492.80 588.10 L 496.00 584.40 L 498.80 580.40 L 501.20 576.10 L 503.20 571.50 L 504.90 566.80 L 507.10 557.30 L 507.60 551.30 L 507.50 545.40 L 506.90 539.40 L 505.00 530.70 L 501.60 522.40 L 499.20 518.30 L 496.30 514.40 L 491.60 510.00 L 486.30 506.60 L 483.30 505.50 L 480.20 504.70 L 477.10 504.30 L 474.10 504.40 L 468.20 505.90 L 462.80 508.60 L 459.20 511.40 L 456.00 514.60 Z" fill="#fefefe" fill-rule="nonzero" node-id="65" stroke="none" target-height="121.19998" target-width="94.20001" target-x="423" target-y="490.9"></path><path d="M 661.50 498.90 L 665.50 498.30 L 669.50 498.20 L 673.50 498.60 L 677.40 499.50 L 681.10 500.70 L 684.80 502.40 L 688.40 504.40 L 694.80 509.10 L 698.20 512.50 L 701.20 516.10 L 706.40 524.10 L 710.20 532.70 L 711.60 537.30 L 713.60 546.50 L 714.10 552.80 L 714.20 559.10 L 713.80 565.50 L 712.90 571.70 L 711.50 577.90 L 709.60 583.90 L 705.60 592.40 L 700.30 600.30 L 695.10 606.30 L 692.20 609.10 L 689.00 611.60 L 682.20 615.70 L 674.80 618.60 L 670.90 619.50 L 667.00 619.90 L 663.20 619.90 L 659.30 619.40 L 655.50 618.60 L 648.30 615.80 L 644.90 613.80 L 638.90 609.00 L 635.60 605.60 L 632.60 601.90 L 627.70 593.90 L 625.10 588.20 L 623.00 582.30 L 621.50 576.10 L 620.50 569.80 L 620.00 563.60 L 619.90 557.30 L 620.70 550.00 L 622.00 542.60 L 624.90 533.10 L 629.00 524.20 L 631.60 520.00 L 634.60 516.00 L 638.20 512.00 L 642.30 508.40 L 646.60 505.20 L 651.30 502.40 L 658.00 499.80 L 661.50 498.90 Z M 654.00 522.40 L 658.30 524.80 L 661.00 527.70 L 661.90 529.90 L 662.30 532.20 L 662.20 534.60 L 661.50 536.90 L 660.40 539.00 L 658.20 541.10 L 656.80 541.90 L 654.40 542.50 L 652.10 542.60 L 649.80 542.30 L 647.60 541.50 L 645.60 540.30 L 643.80 538.60 L 641.90 549.70 L 641.60 560.90 L 642.10 566.50 L 642.90 572.10 L 644.20 577.50 L 645.90 582.90 L 648.00 588.10 L 650.40 592.20 L 653.20 596.00 L 655.40 598.30 L 660.40 602.20 L 663.20 603.70 L 666.10 604.80 L 671.90 605.70 L 677.10 605.10 L 680.80 603.90 L 684.40 602.10 L 687.70 599.90 L 690.70 597.40 L 695.90 591.00 L 699.90 583.90 L 702.90 576.10 L 704.50 570.10 L 705.60 564.10 L 705.90 555.20 L 705.10 546.30 L 702.80 537.70 L 701.20 533.60 L 699.20 529.70 L 696.70 525.90 L 692.60 520.90 L 687.40 516.70 L 684.60 515.10 L 681.60 513.80 L 678.50 512.90 L 675.30 512.50 L 672.00 512.50 L 669.60 512.70 L 665.10 514.00 L 662.00 515.50 L 659.10 517.50 L 654.00 522.40 Z" fill="#fefefe" fill-rule="nonzero" node-id="67" stroke="none" target-height="121.70001" target-width="94.29999" target-x="619.9" target-y="498.2"></path><path d="M 571.50 271.60 L 578.80 267.30 L 586.30 263.50 L 594.00 260.00 L 601.80 256.90 L 617.90 251.90 L 634.40 248.40 L 651.20 246.40 L 659.60 245.90 L 679.40 246.10 L 690.80 246.80 L 702.20 248.00 L 713.50 249.70 L 724.70 251.90 L 735.80 254.50 L 746.90 257.40 L 757.80 260.80 L 769.30 265.00 L 780.60 269.70 L 795.30 276.90 L 809.30 285.20 L 816.00 289.90 L 829.90 301.00 L 836.90 307.50 L 843.50 314.50 L 849.60 321.90 L 855.30 329.60 L 860.40 337.70 L 865.10 346.10 L 869.20 354.70 L 872.30 362.50 L 877.60 378.30 L 879.70 386.30 L 881.30 394.50 L 882.50 402.70 L 898.10 410.80 L 913.60 419.20 L 928.80 428.00 L 943.80 437.20 L 958.40 446.90 L 972.80 457.10 L 983.20 465.00 L 993.50 473.30 L 1003.40 481.90 L 1013.10 490.90 L 1021.70 499.70 L 1029.80 508.80 L 1035.00 515.20 L 1044.40 528.60 L 1048.50 535.60 L 1052.20 542.90 L 1055.30 550.50 L 1057.20 556.60 L 1059.20 567.30 L 1059.50 575.90 L 1059.20 580.10 L 1057.50 588.60 L 1055.90 592.60 L 1053.90 596.40 L 1051.50 599.90 L 1045.80 606.20 L 1042.60 609.10 L 1037.30 612.80 L 1031.80 616.00 L 1025.30 618.90 L 1012.10 623.70 L 996.10 627.70 L 986.80 629.30 L 977.40 630.60 L 963.30 631.80 L 949.20 632.60 L 929.00 632.80 L 918.90 632.40 L 908.80 631.60 L 914.10 656.10 L 920.10 680.30 L 923.60 692.30 L 931.90 716.50 L 936.80 728.60 L 942.20 740.60 L 948.00 752.40 L 954.20 763.90 L 960.90 775.20 L 967.90 786.30 L 975.40 797.10 L 983.20 807.60 L 991.50 817.80 L 1000.10 827.60 L 1009.00 837.20 L 1018.40 846.40 L 1028.10 855.20 L 1038.10 863.70 L 1048.50 871.70 L 1081.70 894.30 L 1086.10 897.90 L 1090.20 902.10 L 1094.70 908.30 L 1096.50 911.70 L 1097.90 915.20 L 1098.80 918.90 L 1099.20 922.80 L 1098.90 928.90 L 1097.30 934.90 L 1094.60 940.40 L 1091.90 944.10 L 1085.40 950.60 L 1081.80 953.30 L 1078.00 955.60 L 1073.90 957.50 L 1065.30 960.40 L 1058.70 961.80 L 1052.00 962.70 L 1044.90 963.10 L 1030.60 963.10 L 1023.50 962.60 L 1016.50 961.70 L 1004.00 959.50 L 998.50 959.10 L 992.90 959.20 L 1011.80 979.70 L 1017.20 987.20 L 1021.60 995.40 L 1023.20 999.80 L 1024.40 1004.40 L 1025.00 1009.10 L 1025.10 1013.80 L 1024.60 1018.50 L 1023.60 1023.10 L 1022.00 1027.50 L 1019.80 1031.70 L 1017.10 1035.60 L 1014.20 1039.10 L 1010.80 1042.40 L 1003.40 1048.00 L 999.30 1050.30 L 993.00 1053.40 L 986.50 1056.00 L 980.70 1057.60 L 974.80 1058.70 L 968.90 1059.40 L 957.00 1059.60 L 942.00 1058.20 L 933.20 1056.60 L 922.50 1054.20 L 880.20 1042.60 L 874.30 1041.90 L 869.60 1042.60 L 867.90 1043.30 L 866.70 1044.30 L 865.70 1045.70 L 864.70 1049.00 L 863.90 1065.20 L 863.20 1072.50 L 862.00 1079.60 L 860.90 1084.30 L 859.30 1088.80 L 857.30 1093.30 L 855.40 1096.80 L 850.80 1102.90 L 848.00 1105.60 L 844.00 1108.90 L 839.70 1111.70 L 835.10 1114.10 L 830.30 1116.10 L 825.30 1117.70 L 820.30 1118.80 L 813.00 1119.60 L 805.70 1119.80 L 798.30 1119.60 L 791.00 1118.80 L 783.80 1117.50 L 776.70 1115.70 L 769.30 1113.40 L 754.80 1107.60 L 744.40 1102.50 L 734.20 1096.80 L 699.20 1074.50 L 691.30 1070.00 L 681.50 1065.60 L 678.40 1065.60 L 676.20 1066.20 L 674.10 1067.40 L 672.20 1068.90 L 660.40 1081.70 L 655.20 1087.10 L 649.50 1092.00 L 645.50 1095.00 L 641.30 1097.50 L 636.70 1099.80 L 632.40 1101.30 L 628.00 1102.50 L 623.60 1103.20 L 619.10 1103.40 L 613.10 1103.10 L 607.10 1102.30 L 601.20 1100.90 L 595.40 1099.00 L 584.30 1094.30 L 577.10 1090.20 L 570.20 1085.70 L 563.60 1080.90 L 538.70 1060.70 L 535.70 1058.70 L 532.40 1057.20 L 530.20 1056.40 L 527.80 1056.10 L 522.80 1056.30 L 518.10 1057.50 L 514.80 1059.10 L 511.70 1061.20 L 503.10 1068.50 L 500.10 1070.80 L 493.30 1074.60 L 489.80 1076.00 L 486.10 1077.10 L 482.40 1077.80 L 478.60 1078.00 L 474.70 1077.80 L 469.40 1076.90 L 464.30 1075.40 L 459.40 1073.40 L 454.60 1071.00 L 450.10 1068.20 L 445.80 1065.00 L 439.60 1059.70 L 434.00 1054.10 L 427.10 1045.50 L 420.70 1036.60 L 414.60 1027.40 L 409.00 1017.90 L 403.90 1008.20 L 399.10 998.30 L 393.10 984.60 L 387.50 970.80 L 382.30 956.90 L 377.40 942.80 L 371.50 923.80 L 366.20 904.70 L 361.50 885.30 L 357.30 865.90 L 353.60 846.30 L 347.50 806.00 L 344.90 785.20 L 342.80 764.30 L 341.10 743.40 L 340.00 722.40 L 339.30 701.50 L 339.20 680.50 L 339.70 659.50 L 340.80 638.60 L 343.20 612.80 L 347.10 587.10 L 349.70 574.40 L 352.70 561.80 L 356.10 549.30 L 360.00 536.90 L 368.20 515.20 L 372.30 505.80 L 381.30 487.30 L 371.30 479.90 L 361.60 472.10 L 343.00 455.80 L 328.10 440.40 L 323.40 435.00 L 314.80 423.70 L 311.00 417.70 L 307.60 411.40 L 304.70 404.90 L 303.00 399.90 L 301.90 394.90 L 301.20 389.70 L 301.10 384.50 L 301.40 379.40 L 302.30 374.30 L 303.70 369.20 L 305.50 364.40 L 307.90 359.70 L 310.70 355.30 L 314.00 351.20 L 317.60 347.50 L 321.50 344.00 L 330.00 337.90 L 336.80 333.90 L 353.00 326.20 L 362.40 322.60 L 371.90 319.50 L 381.50 316.80 L 391.30 314.50 L 411.20 311.10 L 431.20 308.90 L 461.30 307.20 L 478.40 306.90 L 507.00 307.00 L 529.80 308.30 L 535.90 301.30 L 542.40 294.60 L 549.20 288.30 L 556.30 282.30 L 563.70 276.70 L 571.50 271.60 Z M 570.10 296.90 L 562.50 303.30 L 559.00 306.90 L 555.90 310.80 L 576.70 312.80 L 597.40 315.30 L 638.70 321.50 L 671.80 328.10 L 688.30 331.90 L 712.80 338.30 L 737.10 345.30 L 785.40 360.50 L 786.50 360.30 L 787.90 362.90 L 791.60 363.30 L 806.20 368.70 L 860.80 392.00 L 858.80 384.60 L 853.90 370.20 L 847.50 356.30 L 843.80 349.60 L 835.50 336.80 L 830.80 330.80 L 825.80 325.10 L 820.50 319.60 L 814.90 314.40 L 808.30 309.00 L 801.60 303.80 L 792.10 297.60 L 775.60 289.30 L 763.80 284.10 L 751.80 279.50 L 739.60 275.50 L 727.20 272.10 L 714.70 269.30 L 712.10 268.90 L 704.50 268.90 L 706.20 267.10 L 675.10 264.70 L 664.90 264.60 L 654.70 265.10 L 644.60 266.20 L 634.50 267.90 L 624.60 270.10 L 617.20 272.20 L 602.90 277.50 L 589.20 284.10 L 582.70 288.00 L 576.30 292.20 L 570.10 296.90 Z M 433.50 327.90 L 409.10 330.80 L 397.00 332.80 L 377.00 337.10 L 361.30 341.90 L 393.00 337.00 L 414.10 335.20 L 428.80 334.30 L 443.60 334.00 L 473.20 334.40 L 487.90 335.10 L 532.20 338.20 L 540.10 339.30 L 556.00 340.60 L 558.20 341.20 L 590.10 345.60 L 615.30 349.70 L 648.70 356.10 L 686.60 364.90 L 707.70 370.60 L 728.70 376.70 L 749.50 383.30 L 790.80 397.80 L 831.50 413.70 L 855.80 424.30 L 880.00 435.40 L 911.60 451.20 L 927.10 459.70 L 942.40 468.50 L 957.50 477.70 L 981.20 493.40 L 998.50 506.30 L 1006.70 513.20 L 1020.20 526.00 L 1015.00 519.30 L 1009.30 513.00 L 1003.30 507.00 L 984.30 489.90 L 984.00 490.10 L 981.20 488.40 L 981.30 487.30 L 971.20 479.00 L 964.70 474.10 L 951.30 464.70 L 934.50 453.30 L 917.40 442.60 L 903.40 434.80 L 889.20 427.40 L 845.60 405.60 L 830.50 398.70 L 815.10 392.20 L 791.90 383.00 L 768.40 374.50 L 746.90 367.10 L 725.30 360.40 L 703.40 354.20 L 681.40 348.70 L 659.20 343.80 L 636.90 339.50 L 614.60 335.90 L 592.10 332.80 L 574.50 330.80 L 539.30 327.70 L 504.10 326.10 L 486.40 325.80 L 468.80 326.10 L 451.10 326.70 L 433.50 327.90 Z M 380.70 340.40 L 381.10 341.50 L 381.60 341.90 L 382.40 341.90 L 383.60 341.30 L 383.20 340.10 L 382.70 339.70 L 381.90 339.70 L 380.70 340.40 Z M 404.40 347.00 L 393.60 347.70 L 382.90 349.00 L 372.20 350.80 L 356.40 354.60 L 341.00 359.80 L 332.40 364.10 L 329.60 365.90 L 324.90 370.10 L 323.00 372.60 L 321.50 375.40 L 320.30 378.50 L 319.70 382.60 L 319.60 386.60 L 320.10 390.60 L 322.20 398.30 L 323.80 402.10 L 326.60 407.50 L 329.90 412.60 L 334.70 419.00 L 345.00 431.10 L 353.40 439.60 L 362.20 447.70 L 371.30 455.40 L 388.20 469.30 L 391.90 471.40 L 398.10 462.60 L 404.60 454.10 L 411.60 445.80 L 419.00 437.90 L 426.70 430.40 L 434.90 423.30 L 443.30 416.60 L 452.10 410.30 L 461.20 404.50 L 469.90 399.60 L 478.70 395.20 L 487.70 391.20 L 497.00 387.70 L 506.40 384.70 L 515.90 382.00 L 525.50 379.80 L 535.30 378.00 L 548.40 376.10 L 561.50 374.80 L 574.60 374.00 L 590.20 373.80 L 605.70 374.20 L 621.30 375.20 L 632.90 376.40 L 655.90 379.90 L 680.30 385.20 L 705.80 392.30 L 718.40 396.50 L 730.90 401.10 L 743.10 406.20 L 744.30 405.60 L 744.40 406.70 L 764.20 415.80 L 773.90 420.80 L 792.80 431.60 L 801.90 437.60 L 810.80 443.80 L 819.40 450.50 L 827.70 457.60 L 831.10 459.90 L 836.00 465.00 L 838.70 467.20 L 841.70 469.00 L 839.70 469.00 L 842.50 471.20 L 845.10 473.70 L 849.90 479.20 L 850.70 479.00 L 852.80 481.50 L 852.50 481.90 L 854.90 484.90 L 855.60 484.80 L 857.50 487.90 L 863.80 496.20 L 869.60 504.70 L 874.90 513.60 L 879.80 522.80 L 884.30 532.20 L 888.20 541.70 L 891.80 551.50 L 897.70 571.80 L 904.60 603.40 L 905.90 612.60 L 917.40 612.90 L 916.00 613.10 L 926.00 613.70 L 936.00 613.90 L 946.00 613.80 L 972.80 612.00 L 989.50 609.50 L 1006.00 605.80 L 1015.20 602.80 L 1019.70 601.00 L 1023.90 598.70 L 1025.00 599.20 L 1026.20 598.50 L 1026.30 597.30 L 1028.80 596.20 L 1031.10 594.80 L 1035.30 591.30 L 1039.60 586.50 L 1041.20 583.80 L 1042.40 580.80 L 1042.70 578.80 L 1042.40 574.50 L 1040.70 569.40 L 1038.70 564.70 L 1036.10 560.10 L 1030.10 551.60 L 1026.70 547.60 L 1015.90 536.10 L 1007.00 527.50 L 997.70 519.30 L 988.20 511.50 L 978.30 504.00 L 968.20 496.90 L 947.60 483.70 L 926.90 471.50 L 894.90 454.70 L 862.60 438.70 L 838.90 428.40 L 815.00 418.50 L 791.00 409.00 L 772.80 402.20 L 754.50 395.90 L 736.10 390.00 L 696.90 378.60 L 676.30 373.30 L 655.50 368.40 L 634.70 364.00 L 613.70 360.00 L 592.60 356.50 L 571.50 353.40 L 550.40 350.80 L 529.20 348.60 L 507.90 346.90 L 505.10 347.00 L 497.80 346.20 L 476.00 345.10 L 452.10 344.80 L 428.20 345.10 L 416.30 345.80 L 404.40 347.00 Z M 479.90 414.70 L 463.70 424.20 L 455.90 429.50 L 448.40 435.10 L 441.30 441.20 L 428.00 454.60 L 415.70 469.00 L 410.10 476.50 L 405.00 484.40 L 392.30 507.30 L 388.50 514.70 L 385.20 522.40 L 380.60 534.30 L 376.50 546.40 L 372.70 558.60 L 369.40 571.00 L 366.60 583.40 L 364.20 596.00 L 362.20 608.60 L 359.30 636.00 L 358.30 650.80 L 357.80 665.60 L 357.80 687.90 L 358.30 710.10 L 358.90 728.60 L 359.90 747.00 L 361.50 765.50 L 364.40 793.10 L 367.90 820.60 L 371.10 840.10 L 374.80 859.40 L 379.00 878.70 L 383.60 897.80 L 388.80 916.80 L 394.70 935.60 L 399.40 949.60 L 404.60 963.40 L 410.20 977.10 L 416.20 990.70 L 426.80 1011.10 L 434.90 1024.30 L 439.20 1030.60 L 444.00 1036.60 L 449.10 1042.40 L 454.60 1047.80 L 453.20 1039.10 L 453.10 1034.60 L 453.50 1030.20 L 454.30 1025.90 L 455.60 1021.70 L 457.40 1017.70 L 459.70 1014.00 L 462.60 1010.60 L 465.80 1007.80 L 469.20 1005.50 L 472.90 1003.80 L 476.80 1002.50 L 480.80 1001.80 L 485.00 1001.50 L 489.10 1001.60 L 493.20 1002.20 L 497.20 1003.20 L 506.20 1006.70 L 510.60 1008.90 L 516.80 1012.60 L 522.70 1016.80 L 533.90 1026.10 L 539.20 1031.20 L 559.40 1052.80 L 571.10 1063.10 L 577.60 1068.20 L 584.40 1072.90 L 591.50 1077.10 L 596.40 1079.50 L 601.50 1081.50 L 606.80 1083.20 L 611.30 1084.10 L 615.90 1084.60 L 620.60 1084.50 L 625.10 1083.80 L 630.90 1081.80 L 637.20 1078.10 L 640.40 1075.60 L 647.80 1068.40 L 656.20 1059.10 L 660.70 1054.90 L 663.90 1052.30 L 667.30 1050.10 L 671.10 1048.20 L 674.60 1047.20 L 678.10 1046.90 L 681.60 1047.00 L 688.50 1048.70 L 691.90 1050.00 L 701.60 1054.70 L 711.30 1060.40 L 740.10 1078.50 L 749.80 1084.20 L 759.90 1089.40 L 768.00 1093.20 L 776.30 1096.30 L 787.80 1099.50 L 799.60 1101.30 L 805.50 1101.50 L 811.50 1101.40 L 817.00 1100.70 L 822.50 1099.30 L 826.00 1098.10 L 829.40 1096.50 L 832.50 1094.60 L 835.40 1092.30 L 837.80 1089.60 L 839.90 1086.50 L 841.50 1083.10 L 843.70 1076.30 L 844.60 1071.00 L 845.10 1065.60 L 846.00 1049.30 L 846.70 1043.90 L 847.60 1040.70 L 848.80 1037.70 L 850.50 1034.80 L 852.50 1032.20 L 854.80 1029.90 L 857.40 1027.90 L 860.30 1026.30 L 863.30 1025.10 L 866.60 1024.30 L 871.50 1023.70 L 876.30 1023.60 L 881.20 1024.00 L 888.30 1025.30 L 921.90 1034.90 L 934.50 1037.90 L 942.90 1039.40 L 951.40 1040.40 L 960.00 1040.90 L 966.40 1040.70 L 972.90 1039.90 L 981.30 1037.80 L 989.30 1034.60 L 996.70 1030.00 L 999.50 1027.60 L 1002.10 1024.70 L 1003.50 1022.60 L 1005.70 1018.10 L 1006.60 1013.20 L 1006.40 1010.60 L 1005.70 1006.90 L 1004.60 1003.40 L 1003.10 1000.10 L 1000.30 995.30 L 996.90 990.80 L 993.20 986.60 L 981.00 973.60 L 978.40 970.50 L 976.10 967.20 L 974.20 963.60 L 973.30 961.30 L 972.80 956.70 L 973.80 952.20 L 976.00 948.10 L 977.50 946.30 L 981.80 943.30 L 987.00 941.20 L 991.10 940.50 L 995.40 940.30 L 999.60 940.50 L 1018.90 943.30 L 1034.00 944.70 L 1041.60 944.80 L 1049.20 944.40 L 1059.00 942.80 L 1063.90 941.50 L 1068.40 939.60 L 1073.90 936.00 L 1076.40 933.70 L 1078.10 931.60 L 1079.50 929.10 L 1080.40 926.40 L 1080.70 923.70 L 1080.50 921.80 L 1079.00 918.40 L 1076.10 914.80 L 1072.80 911.70 L 1065.40 906.20 L 1048.20 894.80 L 1038.80 888.20 L 1029.70 881.20 L 1020.90 873.80 L 1009.20 863.20 L 997.80 852.20 L 990.50 844.60 L 983.40 836.80 L 969.40 819.80 L 962.40 810.70 L 949.30 791.80 L 937.40 772.10 L 926.80 751.60 L 920.50 737.70 L 914.70 723.40 L 909.60 709.00 L 905.10 695.10 L 901.10 681.10 L 897.60 667.00 L 894.50 652.70 L 884.50 596.80 L 881.70 583.20 L 878.30 569.80 L 872.80 552.30 L 869.40 543.70 L 865.10 534.30 L 860.30 525.10 L 855.00 516.20 L 849.30 507.60 L 843.20 499.20 L 836.60 491.30 L 829.60 483.70 L 822.20 476.50 L 813.30 468.60 L 804.10 461.20 L 794.60 454.30 L 784.70 447.80 L 774.60 441.60 L 764.30 435.90 L 753.80 430.50 L 732.20 420.80 L 711.00 412.90 L 700.30 409.30 L 677.00 402.70 L 664.60 399.80 L 652.00 397.40 L 639.30 395.40 L 626.60 393.90 L 613.80 392.80 L 601.00 392.10 L 588.20 391.90 L 575.40 392.10 L 562.60 392.70 L 543.60 395.00 L 534.10 396.50 L 524.70 398.40 L 515.40 400.70 L 506.30 403.50 L 497.30 406.70 L 488.50 410.40 L 479.90 414.70 Z M 477.50 1015.20 L 475.00 1016.50 L 472.90 1018.00 L 471.10 1019.90 L 468.30 1024.40 L 467.30 1026.90 L 466.40 1030.80 L 466.00 1038.40 L 466.40 1042.10 L 467.30 1045.80 L 468.60 1049.20 L 471.40 1053.20 L 473.20 1054.90 L 475.40 1056.50 L 477.80 1057.50 L 480.40 1057.90 L 483.10 1057.80 L 485.70 1057.20 L 488.10 1056.20 L 491.30 1054.20 L 502.90 1045.00 L 509.40 1041.30 L 513.00 1040.00 L 516.70 1039.00 L 522.30 1038.20 L 528.10 1037.80 L 510.90 1024.20 L 506.40 1021.10 L 497.90 1016.60 L 493.90 1015.00 L 489.80 1014.00 L 485.70 1013.60 L 482.90 1013.70 L 480.20 1014.20 L 477.50 1015.20 Z" fill="#010101" fill-rule="nonzero" node-id="69" stroke="none" target-height="873.9" target-width="798.1" target-x="301.1" target-y="245.9"></path><path d="M 470.00 437.10 L 474.80 436.20 L 479.60 435.70 L 484.50 435.60 L 489.30 436.10 L 494.00 437.10 L 498.60 438.70 L 499.80 439.30 L 501.50 441.20 L 502.00 443.00 L 502.00 444.90 L 501.00 447.20 L 499.00 449.10 L 497.70 449.70 L 494.10 449.90 L 488.30 448.60 L 484.60 448.20 L 476.90 448.50 L 473.20 449.20 L 469.60 450.20 L 466.10 451.70 L 462.80 453.50 L 459.70 455.70 L 454.40 461.20 L 451.50 463.60 L 449.80 463.90 L 448.00 463.80 L 446.10 463.30 L 444.50 462.30 L 443.20 461.10 L 442.50 459.60 L 442.30 458.60 L 443.10 456.10 L 445.10 452.80 L 447.40 449.90 L 450.10 447.30 L 456.10 442.90 L 459.50 441.10 L 464.70 438.80 L 470.00 437.10 Z" fill="#010101" fill-rule="nonzero" node-id="71" stroke="none" target-height="28.299988" target-width="59.700012" target-x="442.3" target-y="435.6"></path><path d="M 660.30 441.20 L 665.20 440.00 L 670.20 439.50 L 675.20 439.50 L 680.20 440.20 L 685.00 441.30 L 689.80 443.00 L 694.40 445.10 L 698.70 447.70 L 702.80 450.80 L 706.50 454.20 L 709.80 457.90 L 712.70 462.00 L 713.50 463.50 L 713.80 465.00 L 713.80 466.60 L 713.10 468.90 L 712.10 471.00 L 707.60 471.70 L 706.10 471.60 L 704.80 471.00 L 698.30 463.50 L 695.20 460.80 L 691.70 458.30 L 688.10 456.30 L 684.30 454.60 L 680.30 453.30 L 676.30 452.50 L 672.10 452.10 L 664.00 452.70 L 660.10 452.40 L 658.50 451.40 L 657.30 450.00 L 656.60 448.40 L 656.40 446.60 L 656.60 444.80 L 657.30 443.30 L 659.00 441.70 L 660.30 441.20 Z" fill="#010101" fill-rule="nonzero" node-id="73" stroke="none" target-height="32.200012" target-width="57.399963" target-x="656.4" target-y="439.5"></path><path d="M 664.50 488.10 L 668.90 487.80 L 673.30 487.90 L 677.60 488.60 L 681.90 489.60 L 686.00 491.10 L 690.00 492.90 L 697.50 497.60 L 700.80 500.40 L 705.00 504.50 L 708.80 508.80 L 712.20 513.50 L 715.20 518.50 L 717.80 523.70 L 720.00 529.10 L 724.20 526.80 L 728.00 524.00 L 735.30 517.80 L 737.90 516.90 L 739.20 517.00 L 741.00 517.80 L 742.60 519.10 L 743.80 520.80 L 744.50 522.70 L 744.30 525.40 L 743.70 526.70 L 741.50 529.90 L 739.00 532.80 L 736.20 535.50 L 729.90 539.90 L 724.60 542.70 L 723.00 544.10 L 726.10 544.50 L 738.30 543.10 L 741.40 543.20 L 742.70 543.80 L 744.60 545.60 L 745.40 547.50 L 745.60 549.50 L 744.90 552.20 L 744.10 553.40 L 742.40 555.10 L 740.60 556.30 L 738.60 557.20 L 735.30 558.00 L 724.90 558.50 L 724.40 565.50 L 723.40 572.50 L 721.90 579.40 L 719.80 586.10 L 717.10 592.60 L 713.80 598.90 L 711.00 603.40 L 704.50 611.60 L 697.00 618.70 L 693.00 621.70 L 688.70 624.30 L 684.20 626.40 L 679.60 628.10 L 674.70 629.40 L 669.80 630.10 L 664.80 630.40 L 659.80 630.10 L 655.70 629.40 L 647.70 627.10 L 643.80 625.40 L 636.60 621.10 L 630.30 615.70 L 623.60 607.70 L 620.30 602.50 L 617.40 597.10 L 614.90 591.50 L 612.90 585.70 L 611.40 579.70 L 610.30 573.60 L 609.60 567.50 L 609.60 554.60 L 610.20 547.90 L 611.30 541.30 L 613.00 534.70 L 615.20 528.40 L 618.00 522.20 L 621.30 516.30 L 625.10 510.80 L 629.40 505.50 L 632.60 502.50 L 639.60 497.00 L 643.40 494.70 L 651.50 490.90 L 655.70 489.60 L 660.10 488.60 L 664.50 488.10 Z M 661.50 498.90 L 654.60 501.00 L 651.30 502.40 L 646.60 505.20 L 642.30 508.40 L 638.20 512.00 L 634.60 516.00 L 631.60 520.00 L 629.00 524.20 L 626.80 528.60 L 623.30 537.80 L 622.00 542.60 L 620.70 550.00 L 619.90 557.30 L 620.00 563.60 L 620.50 569.80 L 621.50 576.10 L 623.00 582.30 L 625.10 588.20 L 627.70 593.90 L 630.00 598.00 L 632.60 601.90 L 635.60 605.60 L 641.80 611.60 L 644.90 613.80 L 651.90 617.40 L 659.30 619.40 L 663.20 619.90 L 667.00 619.90 L 670.90 619.50 L 678.60 617.40 L 682.20 615.70 L 689.00 611.60 L 692.20 609.10 L 697.80 603.40 L 703.10 596.50 L 707.70 588.20 L 709.60 583.90 L 711.50 577.90 L 712.90 571.70 L 713.80 565.50 L 714.20 559.10 L 714.10 552.80 L 713.60 546.50 L 712.80 541.90 L 710.20 532.70 L 708.40 528.30 L 704.00 520.00 L 701.20 516.10 L 698.20 512.50 L 694.80 509.10 L 691.70 506.60 L 684.80 502.40 L 681.10 500.70 L 677.40 499.50 L 673.50 498.60 L 669.50 498.20 L 665.50 498.30 L 661.50 498.90 Z" fill="#010101" fill-rule="nonzero" node-id="75" stroke="none" target-height="142.60004" target-width="136" target-x="609.6" target-y="487.8"></path><path d="M 456.00 514.60 L 459.20 511.40 L 462.80 508.60 L 465.50 507.10 L 471.10 505.00 L 474.10 504.40 L 477.10 504.30 L 480.20 504.70 L 483.30 505.50 L 486.30 506.60 L 489.00 508.20 L 494.00 512.10 L 496.30 514.40 L 499.20 518.30 L 501.60 522.40 L 503.50 526.50 L 506.10 535.00 L 506.90 539.40 L 507.50 545.40 L 507.60 551.30 L 507.10 557.30 L 506.10 562.10 L 503.20 571.50 L 501.20 576.10 L 498.80 580.40 L 496.00 584.40 L 492.80 588.10 L 489.10 591.40 L 485.10 594.30 L 482.60 595.60 L 480.00 596.50 L 477.30 597.10 L 471.80 597.10 L 469.10 596.50 L 466.40 595.70 L 461.50 593.10 L 458.70 591.00 L 454.00 585.90 L 450.30 579.90 L 448.80 576.70 L 447.00 571.70 L 445.60 566.70 L 444.60 560.70 L 443.90 554.60 L 443.70 548.60 L 444.00 542.50 L 444.90 536.50 L 446.40 530.60 L 450.10 533.50 L 452.30 534.60 L 454.60 535.10 L 456.50 535.00 L 458.30 534.50 L 461.50 532.50 L 463.80 529.50 L 464.60 527.80 L 464.90 524.10 L 464.50 521.70 L 463.50 519.60 L 462.10 517.90 L 460.30 516.40 L 458.20 515.30 L 456.00 514.60 Z M 474.10 554.10 L 475.50 556.20 L 478.00 557.40 L 479.80 557.60 L 483.40 556.90 L 484.40 555.10 L 485.00 553.00 L 485.30 550.90 L 484.90 548.90 L 484.40 547.80 L 483.40 546.80 L 482.10 546.10 L 480.20 545.60 L 478.50 545.70 L 476.80 546.40 L 475.40 547.50 L 474.40 548.90 L 473.70 550.50 L 473.60 552.30 L 474.10 554.10 Z" fill="#010101" fill-rule="nonzero" node-id="77" stroke="none" target-height="92.79999" target-width="63.899994" target-x="443.7" target-y="504.3"></path><path d="M 654.00 522.40 L 659.10 517.50 L 662.00 515.50 L 667.30 513.20 L 669.60 512.70 L 675.30 512.50 L 678.50 512.90 L 681.60 513.80 L 684.60 515.10 L 687.40 516.70 L 692.60 520.90 L 694.80 523.30 L 699.20 529.70 L 701.20 533.60 L 702.80 537.70 L 705.10 546.30 L 705.70 550.70 L 705.90 555.20 L 705.60 564.10 L 704.50 570.10 L 702.90 576.10 L 701.60 580.10 L 698.10 587.50 L 693.40 594.30 L 690.70 597.40 L 687.70 599.90 L 684.40 602.10 L 680.80 603.90 L 677.10 605.10 L 671.90 605.70 L 669.30 605.40 L 666.10 604.80 L 663.20 603.70 L 660.40 602.20 L 655.40 598.30 L 653.20 596.00 L 650.40 592.20 L 648.00 588.10 L 645.90 582.90 L 644.20 577.50 L 642.90 572.10 L 642.10 566.50 L 641.60 560.90 L 641.90 549.70 L 643.80 538.60 L 645.60 540.30 L 647.60 541.50 L 649.80 542.30 L 652.10 542.60 L 654.40 542.50 L 656.80 541.90 L 658.20 541.10 L 660.40 539.00 L 661.50 536.90 L 662.20 534.60 L 662.30 532.20 L 661.90 529.90 L 661.00 527.70 L 658.30 524.80 L 654.00 522.40 Z M 674.20 554.30 L 673.00 555.30 L 671.60 557.80 L 671.40 560.70 L 672.40 563.40 L 673.40 564.40 L 676.20 565.70 L 677.60 565.80 L 680.50 565.00 L 682.60 563.00 L 683.30 561.70 L 683.50 560.30 L 683.30 558.70 L 682.40 556.10 L 681.60 555.20 L 680.00 554.10 L 678.10 553.60 L 675.40 553.80 L 674.20 554.30 Z" fill="#010101" fill-rule="nonzero" node-id="79" stroke="none" target-height="93.20001" target-width="64.30005" target-x="641.6" target-y="512.5"></path><path d="M 524.70 625.10 L 530.40 624.10 L 537.10 624.70 L 541.10 625.70 L 557.10 630.80 L 561.10 631.50 L 565.30 631.50 L 568.10 631.40 L 573.50 630.20 L 589.00 624.30 L 594.40 623.50 L 597.30 623.60 L 601.60 624.40 L 608.60 627.00 L 613.60 630.10 L 615.70 632.10 L 617.60 634.40 L 619.10 637.00 L 620.90 641.20 L 622.20 645.60 L 623.00 650.10 L 623.30 654.60 L 623.20 659.20 L 622.60 663.80 L 621.60 668.20 L 620.20 672.60 L 618.40 676.80 L 616.20 681.20 L 610.70 689.20 L 607.50 692.90 L 602.80 697.40 L 597.70 701.40 L 592.20 704.90 L 586.40 707.90 L 580.40 710.40 L 574.20 712.30 L 567.80 713.70 L 561.40 714.40 L 554.90 714.50 L 550.00 714.20 L 540.50 712.30 L 535.80 710.80 L 531.30 708.90 L 527.10 706.50 L 523.20 703.80 L 519.60 700.60 L 516.30 697.10 L 513.30 693.40 L 510.70 689.40 L 508.30 685.20 L 506.40 680.70 L 504.80 676.20 L 503.60 671.50 L 502.80 666.70 L 502.40 661.90 L 502.40 657.10 L 502.90 652.40 L 503.80 647.70 L 504.80 644.20 L 506.20 640.90 L 508.00 637.80 L 510.10 634.90 L 512.50 632.30 L 515.20 629.90 L 518.20 627.90 L 521.30 626.30 L 524.70 625.10 Z M 537.30 700.40 L 542.50 702.00 L 547.70 703.00 L 553.00 703.50 L 558.30 703.50 L 563.60 703.10 L 568.90 702.10 L 574.10 700.80 L 579.20 699.00 L 584.10 696.90 L 588.90 694.30 L 593.40 691.40 L 597.60 688.20 L 602.50 681.50 L 596.30 678.40 L 593.00 677.40 L 586.10 676.40 L 577.30 676.80 L 567.70 678.90 L 558.70 682.20 L 554.30 684.30 L 550.30 686.80 L 546.40 689.60 L 543.00 692.80 L 539.90 696.40 L 537.30 700.40 Z" fill="#010101" fill-rule="nonzero" node-id="81" stroke="none" target-height="91" target-width="120.899994" target-x="502.4" target-y="623.5"></path><path d="M 570.10 296.90 L 576.30 292.20 L 582.70 288.00 L 589.20 284.10 L 602.90 277.50 L 617.20 272.20 L 624.60 270.10 L 634.50 267.90 L 644.60 266.20 L 654.70 265.10 L 664.90 264.60 L 675.10 264.70 L 706.20 267.10 L 704.50 268.90 L 712.10 268.90 L 714.70 269.30 L 727.20 272.10 L 739.60 275.50 L 751.80 279.50 L 763.80 284.10 L 775.60 289.30 L 787.00 295.00 L 789.60 301.80 L 795.70 314.80 L 797.50 320.20 L 798.90 325.70 L 799.70 331.30 L 800.10 336.90 L 800.00 342.50 L 799.40 348.20 L 798.40 353.80 L 797.00 359.20 L 795.10 364.50 L 791.60 363.30 L 787.90 362.90 L 786.80 361.30 L 788.50 361.10 L 788.30 359.90 L 787.10 359.60 L 786.50 360.30 L 785.40 360.50 L 737.10 345.30 L 712.80 338.30 L 688.30 331.90 L 671.80 328.10 L 638.70 321.50 L 618.10 318.20 L 597.40 315.30 L 576.70 312.80 L 555.90 310.80 L 559.00 306.90 L 562.50 303.30 L 570.10 296.90 Z M 639.10 281.80 L 631.50 288.80 L 630.00 290.90 L 628.80 293.20 L 630.20 297.90 L 634.50 298.40 L 636.60 297.60 L 658.20 279.10 L 658.40 277.30 L 658.20 275.40 L 657.60 273.70 L 656.60 272.40 L 655.70 271.80 L 653.20 271.50 L 649.40 273.60 L 645.80 276.20 L 639.10 281.80 Z" fill="#fbb10a" fill-rule="nonzero" node-id="83" stroke="none" target-height="99.899994" target-width="244.19995" target-x="555.9" target-y="264.6"></path><path d="M 639.10 281.80 L 645.80 276.20 L 649.40 273.60 L 653.20 271.50 L 655.70 271.80 L 656.60 272.40 L 657.60 273.70 L 658.20 275.40 L 658.40 277.30 L 658.20 279.10 L 636.60 297.60 L 634.50 298.40 L 630.20 297.90 L 628.80 293.20 L 630.00 290.90 L 631.50 288.80 L 639.10 281.80 Z" fill="#010109" fill-rule="nonzero" node-id="85" stroke="none" target-height="26.899994" target-width="29.600037" target-x="628.8" target-y="271.5"></path><path d="M 795.70 314.80 L 789.60 301.80 L 787.00 295.00 L 792.10 297.60 L 801.60 303.80 L 814.90 314.40 L 820.50 319.60 L 825.80 325.10 L 830.80 330.80 L 835.50 336.80 L 839.80 343.10 L 847.50 356.30 L 850.90 363.10 L 856.50 377.30 L 860.80 392.00 L 817.20 373.20 L 795.10 364.50 L 797.00 359.20 L 798.40 353.80 L 799.40 348.20 L 800.00 342.50 L 800.10 336.90 L 799.70 331.30 L 798.90 325.70 L 797.50 320.20 L 795.70 314.80 Z" fill="#da9106" fill-rule="nonzero" node-id="87" stroke="none" target-height="97" target-width="73.79999" target-x="787" target-y="295"></path><path d="M 433.50 327.90 L 451.10 326.70 L 468.80 326.10 L 486.40 325.80 L 504.10 326.10 L 539.30 327.70 L 574.50 330.80 L 592.10 332.80 L 614.60 335.90 L 636.90 339.50 L 659.20 343.80 L 681.40 348.70 L 703.40 354.20 L 725.30 360.40 L 746.90 367.10 L 768.40 374.50 L 791.90 383.00 L 815.10 392.20 L 830.50 398.70 L 845.60 405.60 L 889.20 427.40 L 903.40 434.80 L 917.40 442.60 L 926.00 447.80 L 951.30 464.70 L 964.70 474.10 L 971.20 479.00 L 977.50 484.30 L 972.30 487.40 L 957.50 477.70 L 942.40 468.50 L 927.10 459.70 L 911.60 451.20 L 880.00 435.40 L 855.80 424.30 L 831.50 413.70 L 790.80 397.80 L 749.50 383.30 L 728.70 376.70 L 707.70 370.60 L 686.60 364.90 L 648.70 356.10 L 615.30 349.70 L 590.10 345.60 L 558.20 341.20 L 556.00 340.60 L 553.60 339.20 L 551.10 338.20 L 548.50 337.60 L 544.50 337.30 L 540.30 337.40 L 532.20 338.20 L 487.90 335.10 L 473.20 334.40 L 443.60 334.00 L 428.80 334.30 L 414.10 335.20 L 393.00 337.00 L 361.30 341.90 L 377.00 337.10 L 397.00 332.80 L 409.10 330.80 L 433.50 327.90 Z" fill="#f9af05" fill-rule="nonzero" node-id="89" stroke="none" target-height="161.6" target-width="616.2" target-x="361.3" target-y="325.8"></path><path d="M 532.20 338.20 L 540.30 337.40 L 544.50 337.30 L 548.50 337.60 L 551.10 338.20 L 553.60 339.20 L 556.00 340.60 L 540.10 339.30 L 532.20 338.20 Z" fill="#f2b131" fill-rule="nonzero" node-id="91" stroke="none" target-height="3.3000183" target-width="23.799988" target-x="532.2" target-y="337.3"></path><path d="M 380.70 340.40 L 381.90 339.70 L 382.70 339.70 L 383.20 340.10 L 383.60 341.30 L 382.40 341.90 L 381.60 341.90 L 381.10 341.50 L 380.70 340.40 Z" fill="#000047" fill-rule="nonzero" node-id="93" stroke="none" target-height="2.1999817" target-width="2.899994" target-x="380.7" target-y="339.7"></path><path d="M 404.40 347.00 L 416.30 345.80 L 440.10 344.80 L 476.00 345.10 L 497.80 346.20 L 505.10 347.00 L 495.20 347.90 L 461.30 346.70 L 430.60 346.80 L 411.00 347.50 L 404.40 347.00 Z" fill="#d2952a" fill-rule="nonzero" node-id="95" stroke="none" target-height="3.100006" target-width="100.70001" target-x="404.4" target-y="344.8"></path><path d="M 341.00 359.80 L 356.40 354.60 L 372.20 350.80 L 382.90 349.00 L 393.60 347.70 L 404.40 347.00 L 411.00 347.50 L 430.60 346.80 L 461.30 346.70 L 495.20 347.90 L 507.90 346.90 L 529.20 348.60 L 550.40 350.80 L 571.50 353.40 L 592.60 356.50 L 613.70 360.00 L 634.70 364.00 L 655.50 368.40 L 676.30 373.30 L 696.90 378.60 L 717.50 384.40 L 736.10 390.00 L 754.50 395.90 L 772.80 402.20 L 791.00 409.00 L 815.00 418.50 L 838.90 428.40 L 862.60 438.70 L 894.90 454.70 L 926.90 471.50 L 947.60 483.70 L 968.20 496.90 L 978.30 504.00 L 988.20 511.50 L 997.70 519.30 L 1007.00 527.50 L 1015.90 536.10 L 1026.70 547.60 L 1030.10 551.60 L 1036.10 560.10 L 1038.70 564.70 L 1040.70 569.40 L 1042.40 574.50 L 1042.70 578.80 L 1042.40 580.80 L 1041.20 583.80 L 1039.60 586.50 L 1035.30 591.30 L 1031.10 594.80 L 1028.80 596.20 L 1026.30 597.30 L 1019.70 601.00 L 1015.20 602.80 L 1006.00 605.80 L 997.80 607.80 L 981.20 610.90 L 972.80 612.00 L 955.90 613.00 L 946.30 612.20 L 936.70 611.90 L 927.00 612.10 L 917.40 612.90 L 910.80 612.80 L 904.60 603.40 L 897.70 571.80 L 891.80 551.50 L 888.20 541.70 L 884.30 532.20 L 879.80 522.80 L 874.90 513.60 L 869.60 504.70 L 863.80 496.20 L 857.50 487.90 L 860.10 488.80 L 859.40 486.60 L 858.70 485.60 L 857.90 484.90 L 856.90 484.60 L 854.90 484.90 L 852.50 481.90 L 853.30 480.70 L 853.30 480.00 L 853.00 479.30 L 851.60 478.70 L 849.90 479.20 L 845.10 473.70 L 842.50 471.20 L 839.70 469.00 L 841.70 469.00 L 840.50 466.90 L 837.40 463.40 L 835.50 462.00 L 829.40 458.80 L 819.40 450.50 L 810.80 443.80 L 801.90 437.60 L 783.50 426.00 L 764.20 415.80 L 744.40 406.70 L 746.00 407.00 L 746.40 406.00 L 745.80 405.10 L 745.20 405.10 L 743.10 406.20 L 730.90 401.10 L 718.40 396.50 L 705.80 392.30 L 680.30 385.20 L 655.90 379.90 L 632.90 376.40 L 621.30 375.20 L 605.70 374.20 L 590.20 373.80 L 574.60 374.00 L 561.50 374.80 L 548.40 376.10 L 535.30 378.00 L 525.50 379.80 L 515.90 382.00 L 506.40 384.70 L 497.00 387.70 L 487.70 391.20 L 478.70 395.20 L 469.90 399.60 L 461.20 404.50 L 452.10 410.30 L 443.30 416.60 L 434.90 423.30 L 426.70 430.40 L 419.00 437.90 L 411.60 445.80 L 404.60 454.10 L 398.10 462.60 L 391.90 471.40 L 388.20 469.30 L 389.10 464.60 L 380.70 462.90 L 362.20 447.70 L 353.40 439.60 L 345.00 431.10 L 334.70 419.00 L 329.90 412.60 L 326.60 407.50 L 323.80 402.10 L 321.00 394.50 L 320.10 390.60 L 319.60 386.60 L 319.70 382.60 L 320.30 378.50 L 321.50 375.40 L 323.00 372.60 L 324.90 370.10 L 329.60 365.90 L 336.70 361.70 L 341.00 359.80 Z" fill="#dc9107" fill-rule="nonzero" node-id="97" stroke="none" target-height="266.3" target-width="723.1" target-x="319.6" target-y="346.7"></path><path d="M 786.50 360.30 L 787.10 359.60 L 788.30 359.90 L 788.50 361.10 L 786.80 361.30 L 786.50 360.30 Z" fill="#edbf43" fill-rule="nonzero" node-id="99" stroke="none" target-height="1.6999817" target-width="2" target-x="786.5" target-y="359.6"></path><path d="M 744.30 405.60 L 745.80 405.10 L 746.40 406.00 L 746.00 407.00 L 745.40 407.10 L 744.40 406.70 L 744.30 405.60 Z" fill="#bc9768" fill-rule="nonzero" node-id="101" stroke="none" target-height="2" target-width="2.1000366" target-x="744.3" target-y="405.1"></path><path d="M 732.20 420.80 L 753.80 430.50 L 764.30 435.90 L 774.60 441.60 L 784.70 447.80 L 794.60 454.30 L 804.10 461.20 L 813.30 468.60 L 822.20 476.50 L 829.60 483.70 L 836.60 491.30 L 843.20 499.20 L 849.30 507.60 L 855.00 516.20 L 860.30 525.10 L 865.10 534.30 L 869.40 543.70 L 875.70 561.00 L 878.30 569.80 L 881.70 583.20 L 884.50 596.80 L 891.70 638.40 L 897.60 667.00 L 901.10 681.10 L 905.10 695.10 L 909.60 709.00 L 914.70 723.40 L 920.50 737.70 L 926.80 751.60 L 937.40 772.10 L 949.30 791.80 L 962.40 810.70 L 969.40 819.80 L 983.40 836.80 L 990.50 844.60 L 997.80 852.20 L 1009.20 863.20 L 1020.90 873.80 L 1029.70 881.20 L 1038.80 888.20 L 1048.20 894.80 L 1065.40 906.20 L 1072.80 911.70 L 1076.10 914.80 L 1079.00 918.40 L 1079.90 920.10 L 1080.70 923.70 L 1080.40 926.40 L 1079.50 929.10 L 1078.10 931.60 L 1076.40 933.70 L 1073.90 936.00 L 1071.30 938.00 L 1068.40 939.60 L 1063.90 941.50 L 1059.00 942.80 L 1054.10 943.80 L 1049.20 944.40 L 1041.60 944.80 L 1034.00 944.70 L 1026.40 944.10 L 999.60 940.50 L 995.40 940.30 L 991.10 940.50 L 987.00 941.20 L 981.80 943.30 L 977.50 946.30 L 974.70 950.00 L 973.80 952.20 L 972.90 956.70 L 973.30 961.30 L 974.20 963.60 L 976.10 967.20 L 978.40 970.50 L 996.90 990.80 L 1000.30 995.30 L 1003.10 1000.10 L 1004.60 1003.40 L 1005.70 1006.90 L 1006.40 1010.60 L 1006.30 1015.70 L 1005.70 1018.10 L 1003.50 1022.60 L 999.50 1027.60 L 996.70 1030.00 L 993.10 1032.50 L 989.30 1034.60 L 981.30 1037.80 L 972.90 1039.90 L 966.40 1040.70 L 960.00 1040.90 L 951.40 1040.40 L 942.90 1039.40 L 934.50 1037.90 L 921.90 1034.90 L 888.30 1025.30 L 881.20 1024.00 L 876.30 1023.60 L 871.50 1023.70 L 866.60 1024.30 L 863.30 1025.10 L 860.30 1026.30 L 857.40 1027.90 L 854.80 1029.90 L 852.50 1032.20 L 850.50 1034.80 L 848.80 1037.70 L 847.60 1040.70 L 846.70 1043.90 L 846.00 1049.30 L 845.10 1065.60 L 844.60 1071.00 L 843.70 1076.30 L 841.50 1083.10 L 839.90 1086.50 L 837.80 1089.60 L 835.40 1092.30 L 832.50 1094.60 L 826.00 1098.10 L 822.50 1099.30 L 817.00 1100.70 L 811.50 1101.40 L 805.50 1101.50 L 799.60 1101.30 L 787.80 1099.50 L 776.30 1096.30 L 768.00 1093.20 L 759.90 1089.40 L 749.80 1084.20 L 740.10 1078.50 L 711.30 1060.40 L 701.60 1054.70 L 691.90 1050.00 L 688.50 1048.70 L 681.60 1047.00 L 678.10 1046.90 L 674.60 1047.20 L 671.10 1048.20 L 667.30 1050.10 L 663.90 1052.30 L 660.70 1054.90 L 656.20 1059.10 L 647.80 1068.40 L 640.40 1075.60 L 637.20 1078.10 L 630.90 1081.80 L 625.10 1083.80 L 620.60 1084.50 L 615.90 1084.60 L 611.30 1084.10 L 606.80 1083.20 L 601.50 1081.50 L 596.40 1079.50 L 591.50 1077.10 L 584.40 1072.90 L 577.60 1068.20 L 571.10 1063.10 L 559.40 1052.80 L 539.20 1031.20 L 533.90 1026.10 L 522.70 1016.80 L 516.80 1012.60 L 510.60 1008.90 L 506.20 1006.70 L 497.20 1003.20 L 493.20 1002.20 L 489.10 1001.60 L 485.00 1001.50 L 480.80 1001.80 L 476.80 1002.50 L 472.90 1003.80 L 469.20 1005.50 L 465.80 1007.80 L 462.60 1010.60 L 459.70 1014.00 L 457.40 1017.70 L 455.60 1021.70 L 454.30 1025.90 L 453.50 1030.20 L 453.10 1034.60 L 453.20 1039.10 L 454.60 1047.80 L 449.10 1042.40 L 444.00 1036.60 L 439.20 1030.60 L 434.90 1024.30 L 426.80 1011.10 L 416.20 990.70 L 410.20 977.10 L 404.60 963.40 L 399.40 949.60 L 394.70 935.60 L 388.80 916.80 L 383.60 897.80 L 379.00 878.70 L 374.80 859.40 L 371.10 840.10 L 367.90 820.60 L 364.40 793.10 L 361.50 765.50 L 359.90 747.00 L 358.90 728.60 L 358.30 710.10 L 360.60 714.90 L 361.50 717.40 L 362.10 720.00 L 363.10 731.10 L 366.20 753.20 L 372.40 786.20 L 379.60 818.90 L 384.90 839.40 L 390.60 859.70 L 399.20 886.40 L 409.50 914.20 L 417.80 931.90 L 423.10 942.20 L 426.40 948.10 L 430.20 953.60 L 434.30 958.90 L 438.90 963.70 L 444.10 967.60 L 448.00 968.90 L 452.00 968.50 L 455.10 966.80 L 457.30 963.90 L 459.30 957.30 L 460.50 947.20 L 460.50 918.00 L 459.80 904.10 L 456.80 862.70 L 456.80 853.80 L 457.40 849.30 L 460.40 855.70 L 466.80 873.60 L 471.30 884.70 L 482.00 908.90 L 488.30 922.00 L 494.90 934.90 L 501.90 947.70 L 509.20 960.20 L 516.90 972.50 L 530.10 990.60 L 537.20 999.30 L 544.70 1007.60 L 549.90 1012.90 L 561.20 1022.80 L 566.90 1026.80 L 572.90 1030.50 L 579.10 1033.70 L 585.60 1036.30 L 594.60 1038.70 L 602.00 1039.50 L 607.50 1038.90 L 610.10 1038.20 L 615.10 1035.90 L 619.30 1032.40 L 622.70 1027.80 L 624.10 1025.20 L 625.10 1022.50 L 626.10 1018.30 L 626.60 1014.00 L 626.70 1005.30 L 625.70 995.30 L 622.80 975.60 L 619.80 961.00 L 616.30 946.40 L 602.10 892.50 L 601.80 889.50 L 602.00 886.40 L 608.40 894.30 L 622.60 917.70 L 641.80 947.50 L 659.30 972.00 L 665.40 979.90 L 678.50 995.10 L 685.40 1002.30 L 692.70 1009.10 L 700.40 1015.60 L 708.50 1020.90 L 716.80 1025.80 L 722.60 1028.70 L 728.50 1031.30 L 734.50 1033.50 L 740.70 1035.20 L 747.00 1036.30 L 759.00 1036.80 L 764.50 1036.40 L 769.90 1035.40 L 773.80 1034.30 L 781.30 1031.00 L 784.80 1028.80 L 788.30 1026.30 L 791.30 1023.40 L 793.90 1020.10 L 796.00 1016.50 L 797.70 1012.60 L 798.80 1008.50 L 799.50 1004.30 L 799.60 1000.10 L 798.20 989.90 L 796.80 984.00 L 795.10 978.20 L 791.90 969.70 L 788.20 961.30 L 774.80 932.70 L 762.20 909.00 L 736.60 863.80 L 734.00 858.70 L 731.90 853.30 L 736.80 858.50 L 755.90 881.80 L 773.30 901.80 L 784.60 915.40 L 803.70 935.50 L 813.70 945.20 L 823.90 954.50 L 834.50 963.40 L 845.50 971.90 L 854.70 978.10 L 864.20 983.90 L 870.80 987.30 L 877.60 990.30 L 892.20 995.40 L 900.00 997.40 L 910.70 999.00 L 921.50 999.10 L 926.80 998.60 L 932.10 997.60 L 939.50 994.70 L 943.00 992.80 L 946.10 990.40 L 949.40 986.40 L 951.60 981.10 L 952.20 978.30 L 952.50 975.30 L 952.40 970.90 L 951.60 966.50 L 950.30 962.20 L 945.20 951.10 L 937.20 937.80 L 915.00 904.40 L 900.40 882.90 L 878.20 847.20 L 871.10 834.80 L 864.40 822.10 L 858.10 809.20 L 846.20 783.10 L 840.70 768.80 L 835.80 754.40 L 831.20 739.80 L 827.10 725.10 L 819.10 686.30 L 816.50 665.90 L 814.00 635.10 L 811.40 614.60 L 810.60 604.80 L 808.30 585.30 L 803.30 556.30 L 796.70 529.00 L 794.60 522.30 L 784.60 498.80 L 774.10 478.10 L 767.30 466.00 L 759.80 455.00 L 743.30 434.10 L 735.20 425.80 L 733.50 423.50 L 732.20 420.80 Z" fill="#daeefd" fill-rule="nonzero" node-id="103" stroke="none" target-height="680.7" target-width="722.39996" target-x="358.3" target-y="420.8"></path><path d="M 831.10 459.90 L 835.50 462.00 L 839.00 465.00 L 841.70 469.00 L 838.70 467.20 L 836.00 465.00 L 831.10 459.90 Z" fill="#cf982c" fill-rule="nonzero" node-id="105" stroke="none" target-height="9.100006" target-width="10.600037" target-x="831.1" target-y="459.9"></path><path d="M 380.70 462.90 L 389.10 464.60 L 388.30 469.10 L 380.70 462.90 Z" fill="#c28a25" fill-rule="nonzero" node-id="107" stroke="none" target-height="6.200012" target-width="8.399994" target-x="380.7" target-y="462.9"></path><path d="M 850.70 479.00 L 851.60 478.70 L 853.00 479.30 L 853.30 480.70 L 852.80 481.50 L 850.70 479.00 Z" fill="#d1a43a" fill-rule="nonzero" node-id="109" stroke="none" target-height="2.7999878" target-width="2.5999756" target-x="850.7" target-y="478.7"></path><path d="M 450.90 484.50 L 454.70 482.90 L 462.40 480.90 L 466.50 480.40 L 471.80 480.30 L 477.20 480.80 L 482.50 481.80 L 487.60 483.50 L 492.50 485.60 L 497.20 488.30 L 501.60 491.40 L 505.60 494.90 L 509.40 498.70 L 512.80 502.80 L 515.90 507.10 L 518.60 511.80 L 521.00 516.60 L 522.90 521.60 L 525.90 532.50 L 526.90 538.40 L 527.40 544.30 L 527.60 550.40 L 527.30 556.40 L 526.60 562.30 L 525.50 568.20 L 524.00 574.00 L 522.10 579.70 L 519.80 585.20 L 517.20 590.60 L 514.20 595.80 L 511.20 600.10 L 507.80 604.20 L 504.10 607.90 L 500.10 611.30 L 495.80 614.30 L 491.20 617.00 L 486.40 619.20 L 481.40 620.90 L 476.30 622.10 L 471.80 622.90 L 467.30 623.10 L 462.90 622.80 L 458.50 622.00 L 454.20 620.80 L 450.00 619.20 L 446.00 617.10 L 438.60 612.10 L 433.80 607.90 L 429.60 603.40 L 425.80 598.40 L 422.50 593.10 L 419.70 587.60 L 417.40 581.80 L 415.50 575.80 L 414.00 569.70 L 413.00 563.50 L 412.40 557.30 L 412.20 551.00 L 412.40 544.80 L 406.60 543.70 L 401.00 541.80 L 398.50 540.30 L 396.30 538.30 L 395.00 536.10 L 394.80 534.80 L 394.90 532.80 L 395.60 530.90 L 397.50 529.20 L 398.70 528.70 L 401.30 528.50 L 414.00 530.60 L 415.50 527.80 L 412.20 525.80 L 409.10 523.50 L 406.30 520.90 L 401.40 514.90 L 399.40 511.50 L 398.90 509.90 L 398.80 508.40 L 399.10 506.90 L 400.80 504.30 L 403.40 502.80 L 404.90 502.70 L 406.60 503.00 L 409.20 504.60 L 418.30 513.10 L 420.90 514.70 L 425.80 506.40 L 428.60 502.50 L 435.10 495.30 L 442.50 489.20 L 446.60 486.70 L 450.90 484.50 Z M 463.20 491.70 L 458.90 492.80 L 454.80 494.40 L 450.90 496.50 L 447.20 498.90 L 440.60 504.80 L 437.60 508.10 L 432.50 515.30 L 427.90 525.00 L 424.90 535.40 L 423.30 546.00 L 423.10 556.80 L 424.50 567.50 L 427.20 577.90 L 429.20 582.80 L 431.70 587.50 L 434.50 592.10 L 437.60 596.40 L 441.20 600.30 L 445.20 603.90 L 448.50 606.30 L 452.10 608.30 L 455.90 609.90 L 459.80 611.10 L 463.90 611.80 L 468.00 612.10 L 472.10 612.00 L 476.10 611.30 L 480.10 610.10 L 484.70 608.20 L 489.00 605.90 L 493.00 603.10 L 496.70 599.90 L 500.10 596.30 L 503.20 592.50 L 506.00 588.40 L 510.50 579.70 L 513.00 573.60 L 514.90 567.40 L 516.20 561.00 L 517.00 554.50 L 517.20 548.00 L 516.80 541.40 L 515.80 535.00 L 514.30 528.70 L 510.10 517.70 L 507.60 513.10 L 504.50 508.80 L 501.00 504.80 L 497.20 501.20 L 493.00 498.00 L 488.50 495.40 L 483.80 493.30 L 478.80 491.80 L 475.00 491.10 L 471.20 490.90 L 467.20 491.10 L 463.20 491.70 Z" fill="#020202" fill-rule="nonzero" node-id="111" stroke="none" target-height="142.79999" target-width="132.79999" target-x="394.8" target-y="480.3"></path><path d="M 855.60 484.80 L 856.90 484.60 L 857.90 484.90 L 859.40 486.60 L 860.10 488.80 L 857.50 487.90 L 855.60 484.80 Z" fill="#ce9c3d" fill-rule="nonzero" node-id="113" stroke="none" target-height="4.1999817" target-width="4.5" target-x="855.6" target-y="484.6"></path><path d="M 977.50 484.30 L 981.30 487.30 L 981.10 489.20 L 981.90 490.50 L 983.30 490.70 L 984.30 489.90 L 1003.30 507.00 L 1009.30 513.00 L 1015.00 519.30 L 1020.20 526.00 L 1006.70 513.20 L 998.50 506.30 L 990.00 499.70 L 972.30 487.40 L 977.50 484.30 Z" fill="#f0aa00" fill-rule="nonzero" node-id="115" stroke="none" target-height="41.700012" target-width="47.900024" target-x="972.3" target-y="484.3"></path><path d="M 981.20 488.40 L 984.00 490.10 L 983.30 490.70 L 981.90 490.50 L 981.10 489.20 L 981.20 488.40 Z" fill="#b8a25c" fill-rule="nonzero" node-id="117" stroke="none" target-height="2.3000183" target-width="2.9000244" target-x="981.1" target-y="488.4"></path><path d="M 474.10 554.10 L 473.60 552.30 L 473.70 550.50 L 474.40 548.90 L 475.40 547.50 L 476.80 546.40 L 478.50 545.70 L 480.20 545.60 L 482.10 546.10 L 484.40 547.80 L 484.90 548.90 L 485.30 550.90 L 485.00 553.00 L 484.40 555.10 L 483.40 556.90 L 479.80 557.60 L 478.00 557.40 L 475.50 556.20 L 474.10 554.10 Z" fill="#ffffff" fill-rule="nonzero" node-id="119" stroke="none" target-height="12" target-width="11.699982" target-x="473.6" target-y="545.6"></path><path d="M 674.20 554.30 L 675.40 553.80 L 678.10 553.60 L 680.00 554.10 L 681.60 555.20 L 682.40 556.10 L 683.00 557.30 L 683.50 560.30 L 683.30 561.70 L 681.60 564.10 L 679.10 565.50 L 677.60 565.80 L 674.70 565.10 L 672.40 563.40 L 671.40 560.70 L 671.60 557.80 L 673.00 555.30 L 674.20 554.30 Z" fill="#ffffff" fill-rule="nonzero" node-id="121" stroke="none" target-height="12.200012" target-width="12.099976" target-x="671.4" target-y="553.6"></path><path d="M 1023.90 598.70 L 1026.30 597.30 L 1026.20 598.50 L 1025.00 599.20 L 1023.90 598.70 Z" fill="#756959" fill-rule="nonzero" node-id="123" stroke="none" target-height="1.9000244" target-width="2.4000244" target-x="1023.9" target-y="597.3"></path><path d="M 904.60 603.40 L 910.80 612.80 L 905.90 612.60 L 904.60 603.40 Z" fill="#d59b2c" fill-rule="nonzero" node-id="125" stroke="none" target-height="9.399963" target-width="6.200012" target-x="904.6" target-y="603.4"></path><path d="M 406.10 611.80 L 415.50 611.10 L 420.20 611.40 L 424.90 612.20 L 429.50 614.10 L 433.90 616.50 L 438.00 619.40 L 441.80 622.80 L 445.10 626.50 L 448.00 630.60 L 449.80 634.00 L 452.40 641.20 L 453.60 648.70 L 453.30 656.40 L 452.60 660.10 L 451.50 663.80 L 449.70 668.00 L 447.40 671.90 L 444.70 675.50 L 441.50 678.70 L 438.00 681.50 L 434.20 684.00 L 430.10 686.00 L 425.90 687.50 L 421.40 688.40 L 417.10 688.80 L 408.50 688.60 L 404.20 687.90 L 400.10 686.70 L 396.10 684.90 L 391.90 682.50 L 388.00 679.70 L 384.50 676.20 L 381.40 672.40 L 378.80 668.30 L 376.60 663.90 L 375.00 659.20 L 374.10 654.50 L 373.70 649.70 L 373.80 646.00 L 374.40 642.50 L 375.30 638.90 L 376.70 635.40 L 378.60 631.40 L 380.90 627.70 L 383.60 624.40 L 386.80 621.40 L 390.20 618.70 L 393.90 616.40 L 397.90 614.50 L 401.90 612.90 L 406.10 611.80 Z M 397.30 639.90 L 390.70 650.50 L 388.80 654.20 L 388.60 655.30 L 389.50 657.40 L 390.40 658.10 L 391.40 658.20 L 392.50 657.80 L 394.80 655.80 L 398.80 651.10 L 401.20 647.20 L 403.10 643.00 L 403.50 641.60 L 402.30 637.30 L 399.40 638.00 L 398.20 638.70 L 397.30 639.90 Z M 416.50 639.20 L 413.60 642.40 L 411.10 646.00 L 408.90 649.80 L 406.80 654.80 L 407.30 657.30 L 408.90 659.20 L 409.90 659.60 L 411.00 659.50 L 412.20 658.80 L 417.20 652.40 L 419.30 648.80 L 421.60 644.00 L 421.30 641.20 L 420.00 638.90 L 418.30 638.30 L 416.50 639.20 Z M 435.20 639.20 L 432.70 641.10 L 430.70 643.40 L 428.90 646.00 L 424.60 655.40 L 424.80 657.20 L 425.60 658.40 L 426.80 659.20 L 428.40 659.20 L 431.60 656.50 L 433.60 654.10 L 436.90 648.60 L 438.10 645.70 L 439.00 642.60 L 439.10 641.60 L 438.80 640.60 L 437.20 639.20 L 436.20 639.00 L 435.20 639.20 Z" fill="#f88878" fill-rule="nonzero" node-id="127" stroke="none" target-height="77.70001" target-width="79.899994" target-x="373.7" target-y="611.1"></path><path d="M 917.40 612.90 L 927.00 612.10 L 936.70 611.90 L 946.30 612.20 L 955.90 613.00 L 946.00 613.80 L 936.00 613.90 L 926.00 613.70 L 916.00 613.10 L 917.40 612.90 Z" fill="#d7982b" fill-rule="nonzero" node-id="129" stroke="none" target-height="2" target-width="39.900024" target-x="916" target-y="611.9"></path><path d="M 712.50 623.70 L 719.90 622.10 L 727.30 622.00 L 732.30 622.70 L 737.00 624.00 L 741.70 625.90 L 746.10 628.30 L 750.10 631.20 L 753.80 634.60 L 758.40 640.40 L 761.70 647.10 L 763.10 651.00 L 764.00 655.00 L 764.40 659.00 L 764.40 663.10 L 764.00 667.10 L 763.20 671.20 L 762.00 675.10 L 760.40 678.80 L 758.40 682.40 L 755.60 686.20 L 752.30 689.60 L 748.70 692.60 L 744.70 695.20 L 740.50 697.30 L 736.00 698.90 L 732.30 699.70 L 724.80 700.30 L 721.00 700.00 L 716.00 699.10 L 711.20 697.70 L 706.50 695.60 L 702.10 693.00 L 698.10 690.00 L 694.50 686.40 L 690.00 680.40 L 686.80 673.50 L 685.50 669.40 L 684.80 665.30 L 684.60 661.20 L 684.80 657.10 L 685.60 653.00 L 686.70 649.00 L 688.30 645.10 L 690.20 641.50 L 692.50 638.00 L 695.20 634.70 L 698.10 631.80 L 701.40 629.20 L 704.90 626.90 L 708.60 625.10 L 712.50 623.70 Z M 700.90 660.80 L 699.90 662.70 L 699.30 664.70 L 699.00 668.90 L 703.10 668.80 L 704.00 668.40 L 707.60 665.00 L 712.40 659.00 L 714.30 655.70 L 714.60 652.70 L 714.20 651.20 L 713.40 649.90 L 711.80 648.90 L 710.70 648.80 L 707.70 651.30 L 705.20 654.30 L 700.90 660.80 Z M 726.70 650.60 L 722.00 656.00 L 717.10 663.40 L 716.90 666.50 L 718.60 671.00 L 720.90 670.40 L 722.80 669.20 L 725.90 665.80 L 728.40 661.90 L 730.30 658.50 L 731.70 654.80 L 731.90 652.90 L 731.40 650.90 L 729.10 649.80 L 727.50 650.00 L 726.70 650.60 Z M 743.80 651.80 L 738.60 659.40 L 734.60 667.70 L 738.80 670.10 L 741.20 668.60 L 743.30 666.70 L 746.50 662.00 L 749.20 657.00 L 749.90 655.30 L 750.30 653.40 L 750.20 649.70 L 745.60 650.30 L 743.80 651.80 Z" fill="#f98a78" fill-rule="nonzero" node-id="131" stroke="none" target-height="78.29999" target-width="79.80005" target-x="684.6" target-y="622"></path><path d="M 397.30 639.90 L 398.20 638.70 L 399.40 638.00 L 402.30 637.30 L 403.50 641.60 L 403.10 643.00 L 401.20 647.20 L 398.80 651.10 L 394.80 655.80 L 392.50 657.80 L 391.40 658.20 L 390.40 658.10 L 389.50 657.40 L 388.80 656.40 L 388.60 655.30 L 388.80 654.20 L 390.70 650.50 L 397.30 639.90 Z" fill="#df6757" fill-rule="nonzero" node-id="133" stroke="none" target-height="20.900024" target-width="14.899994" target-x="388.6" target-y="637.3"></path><path d="M 416.50 639.20 L 418.30 638.30 L 420.00 638.90 L 421.30 641.20 L 421.60 644.00 L 419.30 648.80 L 417.20 652.40 L 412.20 658.80 L 411.00 659.50 L 409.90 659.60 L 408.90 659.20 L 407.30 657.30 L 406.80 654.80 L 408.90 649.80 L 411.10 646.00 L 413.60 642.40 L 416.50 639.20 Z" fill="#e16758" fill-rule="nonzero" node-id="135" stroke="none" target-height="21.299988" target-width="14.800018" target-x="406.8" target-y="638.3"></path><path d="M 435.20 639.20 L 436.20 639.00 L 437.20 639.20 L 438.80 640.60 L 439.10 641.60 L 439.00 642.60 L 438.10 645.70 L 435.40 651.40 L 433.60 654.10 L 429.30 658.70 L 428.40 659.20 L 426.80 659.20 L 425.60 658.40 L 424.80 657.20 L 424.60 655.40 L 428.90 646.00 L 430.70 643.40 L 432.70 641.10 L 435.20 639.20 Z" fill="#e76b5e" fill-rule="nonzero" node-id="137" stroke="none" target-height="20.200012" target-width="14.5" target-x="424.6" target-y="639"></path><path d="M 700.90 660.80 L 705.20 654.30 L 707.70 651.30 L 710.70 648.80 L 712.70 649.30 L 714.20 651.20 L 714.60 652.70 L 714.30 655.70 L 712.40 659.00 L 710.10 662.10 L 704.90 667.70 L 703.10 668.80 L 699.00 668.90 L 699.30 664.70 L 699.90 662.70 L 700.90 660.80 Z" fill="#e16859" fill-rule="nonzero" node-id="139" stroke="none" target-height="20.100037" target-width="15.599976" target-x="699" target-y="648.8"></path><path d="M 726.70 650.60 L 727.50 650.00 L 729.10 649.80 L 731.40 650.90 L 731.90 652.90 L 731.70 654.80 L 730.30 658.50 L 728.40 661.90 L 724.50 667.70 L 722.80 669.20 L 720.90 670.40 L 718.60 671.00 L 717.30 668.00 L 716.80 664.90 L 717.10 663.40 L 717.90 661.90 L 722.00 656.00 L 726.70 650.60 Z" fill="#e56659" fill-rule="nonzero" node-id="141" stroke="none" target-height="21.200012" target-width="15.100037" target-x="716.8" target-y="649.8"></path><path d="M 743.80 651.80 L 745.60 650.30 L 750.20 649.70 L 750.30 653.40 L 749.90 655.30 L 745.00 664.50 L 743.30 666.70 L 741.20 668.60 L 738.80 670.10 L 734.60 667.70 L 738.60 659.40 L 743.80 651.80 Z" fill="#e46859" fill-rule="nonzero" node-id="143" stroke="none" target-height="20.399963" target-width="15.700012" target-x="734.6" target-y="649.7"></path><path d="M 537.30 700.40 L 539.90 696.40 L 543.00 692.80 L 546.40 689.60 L 550.30 686.80 L 554.30 684.30 L 563.20 680.40 L 572.20 677.70 L 589.30 678.60 L 593.80 679.50 L 595.80 680.30 L 597.60 681.70 L 597.60 688.20 L 593.40 691.40 L 588.90 694.30 L 584.10 696.90 L 579.20 699.00 L 574.10 700.80 L 568.90 702.10 L 563.60 703.10 L 558.30 703.50 L 553.00 703.50 L 547.70 703.00 L 542.50 702.00 L 537.30 700.40 Z" fill="#f47c6f" fill-rule="nonzero" node-id="145" stroke="none" target-height="25.799988" target-width="60.299988" target-x="537.3" target-y="677.7"></path><path d="M 572.20 677.70 L 577.30 676.80 L 586.10 676.40 L 593.00 677.40 L 596.30 678.40 L 599.50 679.80 L 602.50 681.50 L 597.60 688.20 L 597.60 681.70 L 595.80 680.30 L 593.80 679.50 L 589.30 678.60 L 572.20 677.70 Z" fill="#d88380" fill-rule="nonzero" node-id="147" stroke="none" target-height="11.799988" target-width="30.299988" target-x="572.2" target-y="676.4"></path><path d="M 477.50 1015.20 L 480.20 1014.20 L 482.90 1013.70 L 485.70 1013.50 L 489.80 1014.00 L 493.90 1015.00 L 497.90 1016.60 L 506.40 1021.10 L 510.90 1024.20 L 528.10 1037.80 L 522.30 1038.20 L 516.70 1039.00 L 513.00 1040.00 L 509.40 1041.30 L 502.90 1045.00 L 491.30 1054.20 L 488.10 1056.20 L 485.70 1057.20 L 483.10 1057.80 L 480.40 1057.90 L 477.80 1057.50 L 475.40 1056.50 L 471.40 1053.20 L 468.60 1049.20 L 467.30 1045.80 L 466.40 1042.10 L 466.00 1038.40 L 466.00 1034.70 L 466.40 1030.80 L 467.30 1026.90 L 469.60 1022.10 L 472.90 1018.00 L 475.00 1016.50 L 477.50 1015.20 Z" fill="#d9edfc" fill-rule="nonzero" node-id="149" stroke="none" target-height="44.400024" target-width="62.099976" target-x="466" target-y="1013.5"></path></g></svg>