<?xml version="1.0" standalone="no"?><!DOCTYPE svg PUBLIC "-//W3C//DTD SVG 1.1//EN" "http://www.w3.org/Graphics/SVG/1.1/DTD/svg11.dtd"><svg t="1745330989792" class="icon" viewBox="0 0 1024 1024" version="1.1" xmlns="http://www.w3.org/2000/svg" p-id="69940" xmlns:xlink="http://www.w3.org/1999/xlink" width="256" height="256"><path d="M0 399.685818V133.352727C0 83.316364 40.587636 42.682182 90.670545 42.682182H357.003636c50.082909 0 90.670545 40.587636 90.670546 90.670545v266.333091a90.717091 90.717091 0 0 1-90.670546 90.670546H90.670545A90.670545 90.670545 0 0 1 0 399.685818z" fill="#FF4F4F" p-id="69941"></path><path d="M357.003636 42.682182c50.082909 0 90.670545 40.587636 90.670546 90.670545v54.085818c-67.304727 11.729455-139.636364 18.152727-214.946909 18.152728-82.013091 0-160.442182-7.586909-232.727273-21.410909V133.352727C0 83.316364 40.587636 42.682182 90.670545 42.682182H357.003636z" fill="#FF7C7C" p-id="69942"></path><path d="M0 916.759273v-266.333091c0-50.082909 40.587636-90.670545 90.670545-90.670546H357.003636c50.082909 0 90.670545 40.587636 90.670546 90.670546V916.945455c0 49.989818-40.494545 90.530909-90.530909 90.530909H90.670545A90.717091 90.717091 0 0 1 0 916.759273z" fill="#FFBC55" p-id="69943"></path><path d="M357.003636 559.755636c50.082909 0 90.670545 40.587636 90.670546 90.670546v49.012363c-67.304727 11.729455-139.636364 18.152727-214.946909 18.152728-82.013091 0-160.442182-7.586909-232.727273-21.410909v-45.754182c0-50.082909 40.587636-90.670545 90.670545-90.670546H357.003636z" fill="#FFCD81" p-id="69944"></path><path d="M508.602182 399.685818V133.352727c0-50.082909 40.587636-90.670545 90.670545-90.670545h266.333091c50.082909 0 90.670545 40.587636 90.670546 90.670545v266.333091a90.717091 90.717091 0 0 1-90.670546 90.670546h-266.333091a90.670545 90.670545 0 0 1-90.670545-90.670546z" fill="#2ABEF0" p-id="69945"></path><path d="M865.605818 42.682182c50.082909 0 90.670545 40.587636 90.670546 90.670545V188.043636A1255.610182 1255.610182 0 0 1 744.727273 205.591273c-83.316364 0-162.909091-7.819636-236.171637-22.062546l0.046546-50.176c0-50.082909 40.587636-90.670545 90.670545-90.670545h266.333091z" fill="#58CCF3" p-id="69946"></path><path d="M732.439273 559.709091a223.883636 223.883636 0 0 0 0 447.767273 222.952727 222.952727 0 0 0 156.578909-64.139637l69.538909 44.776728a42.449455 42.449455 0 0 0 45.986909-71.400728l-67.258182-43.287272c12.101818-27.554909 19.083636-57.856 19.083637-89.832728a223.883636 223.883636 0 0 0-223.883637-223.883636" fill="#246CF9" p-id="69947"></path><path d="M732.439273 559.709091a223.976727 223.976727 0 0 1 208.756363 142.754909c-62.045091 9.821091-128 15.127273-196.468363 15.127273-77.032727 0-150.900364-6.702545-219.508364-18.944a224.069818 224.069818 0 0 1 207.220364-138.938182z" fill="#548CFA" p-id="69948"></path></svg>