<?xml version="1.0" standalone="no"?><!DOCTYPE svg PUBLIC "-//W3C//DTD SVG 1.1//EN" "http://www.w3.org/Graphics/SVG/1.1/DTD/svg11.dtd"><svg t="1744679694604" class="icon" viewBox="0 0 1024 1024" version="1.1" xmlns="http://www.w3.org/2000/svg" p-id="18028" width="256" height="256" xmlns:xlink="http://www.w3.org/1999/xlink"><path d="M628.48 394.2912c0-57.1904-48.7424-103.7312-108.6976-103.7312s-108.6976 46.5408-108.6976 103.7312 48.7424 103.7312 108.6976 103.7312 108.6976-46.5408 108.6976-103.7312z" fill="#1296db" p-id="18029"></path><path d="M515.6352 72.6016c-241.0496 0-436.48 195.4304-436.48 436.48s195.4304 436.48 436.48 436.48 436.48-195.4304 436.48-436.48-195.4304-436.48-436.48-436.48z m209.5104 680.7552c-15.872 0-28.7232-12.8512-28.7232-28.7232 0-93.3376-79.2576-169.216-176.64-169.216s-176.64 75.9296-176.64 169.216c0 15.872-12.8512 28.7232-28.7232 28.7232s-28.7232-12.8512-28.7232-28.7232c0-89.3952 53.76-166.8608 131.584-203.7248C378.5728 491.3664 353.6896 445.5936 353.6896 394.24c0-88.832 74.496-161.1264 166.0928-161.1264 91.5968 0 166.0928 72.2944 166.0928 161.1264 0 51.3536-24.9344 97.1264-63.5904 126.6688 77.824 36.864 131.584 114.3296 131.584 203.7248 0 15.872-12.8512 28.7232-28.7232 28.7232z" fill="#1296db" p-id="18030"></path><path d="M515.6352 72.6016c-241.0496 0-436.48 195.4304-436.48 436.48 0 73.1136 18.0736 141.9264 49.8176 202.4448 98.2528 80.7424 227.5328 123.5968 363.9808 109.1584 78.5408-8.3456 150.784-34.7648 213.0432-74.6496a28.6976 28.6976 0 0 1-9.5744-21.3504c0-93.3376-79.2576-169.216-176.64-169.216s-176.64 75.9296-176.64 169.216c0 15.872-12.8512 28.7232-28.7232 28.7232-15.872 0-28.7232-12.8512-28.7232-28.7232 0-89.3952 53.76-166.8608 131.584-203.7248-38.7072-29.5424-63.5904-75.3152-63.5904-126.6688 0-88.832 74.496-161.1264 166.0928-161.1264 91.5968 0 166.0928 72.2944 166.0928 161.1264 0 51.3536-24.9344 97.1264-63.5904 126.6688 73.984 35.0208 126.1568 106.752 131.1232 190.5152 100.0448-82.4832 165.9392-203.2128 177.408-337.1008-56.7808-175.1552-221.1328-301.7728-415.1808-301.7728z" fill="#1296db" p-id="18031"></path><path d="M515.6352 72.6016c-241.0496 0-436.48 195.4304-436.48 436.48 0 25.4464 2.304 50.3296 6.5024 74.5984a489.472 489.472 0 0 0 212.4288 68.352c20.1216-57.4976 63.488-104.704 119.2448-131.1232C378.624 491.3664 353.7408 445.5936 353.7408 394.24c0-88.832 74.496-161.1264 166.0928-161.1264 91.5968 0 166.0928 72.2944 166.0928 161.1264 0 51.3536-24.9344 97.1264-63.5904 126.6688 11.0592 5.2224 21.6064 11.3152 31.6416 18.1248 98.304-82.432 162.9184-202.0864 174.2336-334.592-79.36-81.3056-190.0544-131.84-312.576-131.84z" fill="#1296db" p-id="18032"></path><path d="M519.7824 555.4176c-70.7584 0-131.8912 40.0896-160.0512 97.7408 10.1376-0.4608 20.3264-1.1776 30.5152-2.2528 78.7968-8.3456 151.2448-34.9184 213.6576-75.0592a182.1696 182.1696 0 0 0-84.1216-20.4288z" fill="#1296db" p-id="18033"></path><path d="M594.8928 319.5392c-19.5584-17.8688-45.9776-28.9792-75.1616-28.9792-59.904 0-108.6976 46.5408-108.6976 103.7312 0 20.3776 6.2976 39.3216 16.9472 55.3472 65.1264-31.0272 121.856-75.776 166.912-130.0992z" fill="#1296db" p-id="18034"></path><path d="M80.3328 478.208c59.2896 17.1008 122.8288 23.296 188.0064 16.384 36.7616-3.8912 72.1408-11.776 105.728-23.1424A156.02176 156.02176 0 0 1 353.6384 394.24c0-88.832 74.496-161.1264 166.0928-161.1264 41.8304 0 80.0256 15.104 109.2608 39.936a490.0608 490.0608 0 0 0 67.5328-161.1776 434.26816 434.26816 0 0 0-180.9408-39.3216c-230.656 0.0512-419.3792 179.0464-435.2512 405.6576z" fill="#1296db" p-id="18035"></path><path d="M116.7872 331.776c19.1488 0.4096 38.5024-0.3584 58.0608-2.4064 162.048-17.2032 294.7072-118.6816 359.0144-256.3072-6.0416-0.256-12.1344-0.4608-18.2272-0.4608-177.92 0-330.8544 106.496-398.848 259.1744z" fill="#1296db" p-id="18036"></path></svg>