<?xml version="1.0" ?>
<!-- Uploaded to: SVG Repo, www.svgrepo.com, Generator: SVG Repo Mixer Tools -->
<svg width="800px" height="800px" viewBox="0 0 512 512" version="1.1" xml:space="preserve" xmlns="http://www.w3.org/2000/svg" xmlns:xlink="http://www.w3.org/1999/xlink">
<style type="text/css">
	.st0{display:none;}
	.st1{display:inline;}
	.st2{fill:none;stroke:#B3B3B3;stroke-miterlimit:10;}
	.st3{fill:none;stroke:#ED1C24;stroke-miterlimit:10;}
	.st4{fill:#F9C04A;}
	.st5{fill:#FFFFFF;stroke:#000000;stroke-width:10;stroke-linecap:round;stroke-linejoin:round;stroke-miterlimit:10;}
	.st6{fill:#DEF6FC;}
	.st7{fill:#FFDA9F;}
	.st8{fill:#FFFFFF;}
	.st9{fill:#FF5751;}
	.st10{fill:#FF908A;}
	.st11{fill:#133260;}
	.st12{fill:#7782BB;}
	.st13{fill:#96A5D6;}
	.st14{fill:#FF5741;}
	.st15{fill:#43527A;}
	.st16{fill:#5E7296;}
	.st17{fill:none;stroke:#133260;stroke-width:9;stroke-linecap:round;stroke-linejoin:round;stroke-miterlimit:10;}
	.st18{fill:#83D689;}
	.st19{fill:#B5F4B8;}
	.st20{fill:#9BC5FF;}
	.st21{fill:#B8D8FF;}
	.st22{fill:#F24133;}
	.st23{fill:#589FFF;}
	.st24{fill:#7180BC;}
	.st25{fill:#93A3D8;}
	.st26{fill:#FF8103;}
	.st27{fill:#FF9D4D;}
	.st28{fill:#BC8D66;}
	.st29{fill:#CEA282;}
	.st30{fill:#FFDDA1;}
	.st31{fill:#FFF1DC;}
	.st32{fill:#7F6674;}
	.st33{fill:#937A89;}
	.st34{fill:#04398E;}
	.st35{fill:#A6D1FF;}
	.st36{fill:#EAA62D;}
	.st37{fill:#C5DFFF;}
	.st38{fill:#D6A47F;}
	.st39{fill:#99A4D6;}
</style>
<g class="st0" id="Layer_31">
<g class="st1">
<g>
<g>
<ellipse class="st2" cx="256" cy="256" rx="248.1" ry="248.3"/>
<path class="st2" d="M398.8,504.5H113.2c-18.8,0-34.1-15.3-34.1-34.1V41.6c0-18.8,15.3-34.1,34.1-34.1h285.5      c18.8,0,34.1,15.3,34.1,34.1v428.9C432.9,489.3,417.6,504.5,398.8,504.5z"/>
<path class="st2" d="M7.9,399.8V112.2c0-16.4,13.3-29.8,29.8-29.8h436.7c16.4,0,29.8,13.3,29.8,29.8v287.6      c0,16.4-13.3,29.8-29.8,29.8H37.6C21.2,429.6,7.9,416.2,7.9,399.8z"/>
<path class="st2" d="M440.4,469.9H71.6c-16.4,0-29.8-13.3-29.8-29.8V71.9c0-16.4,13.3-29.8,29.8-29.8h368.8      c16.4,0,29.8,13.3,29.8,29.8v368.2C470.2,456.5,456.8,469.9,440.4,469.9z"/>
</g>
<rect class="st3" height="497" transform="matrix(-1.836970e-16 1 -1 -1.836970e-16 512 5.684342e-14)" width="497" x="7.5" y="7.5"/>
</g>
</g>
</g>
<g id="Layer_32">
<g>
<g>
<g>
<g>
<g>
<path class="st15" d="M123.2,166.5v-17c0-31.5,25.6-57.1,57.1-57.1h151.5c31.5,0,57.1,25.6,57.1,57.1v17        c0,11.5,8.4,21.3,19.8,23.1l61.4,9.6c19.7,3.1,37.4-12.1,37.4-32v-17.5c0-73.9-59.9-133.7-133.7-133.7H138.3        C64.4,15.8,4.6,75.7,4.6,149.6v17.5c0,19.9,17.8,35.1,37.4,32l61.4-9.6C114.8,187.8,123.2,178,123.2,166.5z"/>
<g>
<path class="st16" d="M29.8,167.1v-17.5c0-73.9,59.9-133.7,133.7-133.7h-25.2C64.4,15.8,4.6,75.7,4.6,149.6v17.5         c0,19.9,17.8,35.1,37.4,32l9.4-1.5C38.9,193.3,29.8,181.4,29.8,167.1z"/>
</g>
<path class="st12" d="M507.4,167.1v-17.5c0-1.1,0-2.3,0-3.4L386,131.7c1.8,5.6,2.8,11.6,2.8,17.8v17        c0,11.5,8.4,21.3,19.8,23.1l61.4,9.6C489.7,202.2,507.4,187,507.4,167.1z"/>
<path class="st12" d="M4.6,167.1v-17.5c0-1.1,0-2.3,0-3.4L126,131.7c-1.8,5.6-2.8,11.6-2.8,17.8v17c0,11.5-8.4,21.3-19.8,23.1        L42,199.1C22.3,202.2,4.6,187,4.6,167.1z"/>
<path class="st39" d="M29.9,143.2l-25.3,3c0,1.1,0,2.2,0,3.4v17.5c0,19.9,17.8,35.1,37.4,32l9.4-1.5        c-12.4-4.4-21.6-16.3-21.6-30.6v-17.5C29.8,147.4,29.8,145.3,29.9,143.2z"/>
</g>
<path class="st15" d="M505.3,453.4l-25-151.9c-3.8-23.3-17.7-43.6-37.9-55.8L351.1,191v-40.7c0-7.2-5.9-13.1-13.1-13.1h-36.5       c-7.2,0-13.1,5.9-13.1,13.1V191h-64.6v-40.7c0-7.2-5.9-13.1-13.1-13.1H174c-7.2,0-13.1,5.9-13.1,13.1V191l-91.3,54.7       c-20.2,12.1-34.1,32.5-37.9,55.8l-25,151.9C3,475.8,20.3,496.2,43,496.2H469C491.7,496.2,509,475.8,505.3,453.4z"/>
<g>
<path class="st16" d="M29.3,479.4l28.5-173.2c3.2-19.5,14.8-36.5,31.7-46.6l79-47.4c10.8-6.5,17.5-18.2,17.5-30.8v-44.2H174        c-7.2,0-13.1,5.9-13.1,13.1V191l-91.3,54.7c-20.2,12.1-34.1,32.5-37.9,55.8l-25,151.9c-3,18.5,8.2,35.6,25,41        C29.4,490,28.4,484.8,29.3,479.4z"/>
</g>
</g>
<circle class="st20" cx="256" cy="344.6" r="121.4"/>
<path class="st21" d="M159.8,344.6c0-62.8,47.7-114.4,108.8-120.7c-4.1-0.4-8.4-0.6-12.6-0.6c-67,0-121.4,54.4-121.4,121.4      S189,466,256,466c4.3,0,8.5-0.2,12.6-0.6C207.5,459,159.8,407.4,159.8,344.6z"/>
</g>
<g>
<path class="st11" d="M220.2,282.1c16.6,0,28.7,12.1,28.7,27.7c0,31-48.5,40.9-48.5,60.1v9h46.1c1.9,0,3.5,2,3.5,4.3      c0,2.3-1.6,4.5-3.5,4.5h-51.4c-1.9,0-4.5-1.4-4.5-3.8v-14c0-24,48.8-34.5,48.8-59.8c0-9.1-6.2-19.1-19.5-19.1      c-10,0-17.5,5.6-17.5,17c0,1.9-1.7,3.9-5.1,3.9c-2.9,0-4.3-1.6-4.3-5.9C193.1,292.2,204.9,282.1,220.2,282.1z"/>
<path class="st11" d="M291.2,362.8h-36.7c-2.5,0-3.8-1.7-3.8-3.9c0-0.9,0.1-1.7,0.6-2.5l36.2-71.5c1-2,2.7-2.9,4.5-2.9      c1.9,0,4.6,1.6,4.6,3.9c0,0.6-0.1,1.2-0.4,1.9l-33.4,65.8h28.3v-27.9c0-2.5,2.3-3.6,4.8-3.6c2.3,0,4.8,1.2,4.8,3.6v27.9h7.9      c2.5,0,3.6,2.3,3.6,4.5c0,2.3-1.4,4.6-3.6,4.6h-7.9v21.1c0,2.5-2.5,3.8-4.8,3.8c-2.5,0-4.8-1.3-4.8-3.8V362.8z"/>
</g>
</g>
<g>
<path class="st11" d="M512,148.7c0-0.3,0-0.5,0-0.8c0,0,0-0.1,0-0.1c0-0.2,0-0.5,0-0.7c0-0.1,0-0.1,0-0.2c0-0.2,0-0.4,0-0.6     c0-0.1,0-0.2,0-0.3c0,0,0,0,0,0c-1.9-74.6-63.2-134.8-138.3-134.8H138.3C62,11.3,0,73.3,0,149.6v17.5c0,10.8,4.7,21.1,12.9,28.1     c6.8,5.8,15.3,8.9,24,8.9c1.9,0,3.8-0.1,5.7-0.4l61.4-9.6c13.7-2.1,23.6-13.7,23.6-27.6v-17c0-5.6,0.9-11.1,2.6-16.2     c0-0.1,0.1-0.2,0.1-0.4c7-20.9,26.7-36,49.8-36h151.5c23.2,0,42.9,15.1,49.9,36c0,0.1,0,0.1,0,0.2c1.6,4.8,2.4,9.8,2.6,14.8     c0,0,0,0,0,0c0,0.2,0,0.3,0,0.5v0c0,0.2,0,0.3,0,0.5c0,0,0,0.1,0,0.1c0,0.2,0,0.3,0,0.5v17c0,13.9,9.9,25.5,23.6,27.6l61.4,9.6     c0.1,0,0.3,0,0.4,0.1c0,0,0.1,0,0.1,0c0.1,0,0.2,0,0.3,0c0,0,0.1,0,0.1,0c0.1,0,0.3,0,0.4,0c0.1,0,0.1,0,0.2,0c0.1,0,0.2,0,0.2,0     c0.1,0,0.1,0,0.2,0c0.1,0,0.1,0,0.2,0c0.2,0,0.3,0,0.5,0c0,0,0.1,0,0.1,0c0.1,0,0.2,0,0.3,0c0,0,0.1,0,0.1,0c0.3,0,0.7,0,1,0.1     l0,0c6.4,0.2,12.7-1.2,18.3-4.1l0,0c0.1-0.1,0.2-0.1,0.3-0.2c0,0,0,0,0.1,0c0.1-0.1,0.2-0.1,0.3-0.2c0,0,0,0,0.1,0     c0.1-0.1,0.2-0.1,0.3-0.2c0,0,0,0,0,0c0.3-0.2,0.7-0.4,1-0.6c0,0,0.1,0,0.1-0.1c0.1,0,0.2-0.1,0.2-0.1c0,0,0.1-0.1,0.1-0.1     c0.1,0,0.2-0.1,0.2-0.1c0.1,0,0.1-0.1,0.2-0.1c0.1,0,0.1-0.1,0.2-0.1c0.1,0,0.1-0.1,0.2-0.1c0.1-0.1,0.2-0.2,0.3-0.2     c0.1,0,0.1-0.1,0.2-0.1c0.1,0,0.1-0.1,0.2-0.1c0.1,0,0.1-0.1,0.2-0.1c0.1,0,0.1-0.1,0.2-0.1c0.1,0,0.1-0.1,0.2-0.1     c0.1,0,0.1-0.1,0.2-0.1c0.1-0.1,0.2-0.1,0.2-0.2c0,0,0.1-0.1,0.1-0.1c0.1-0.1,0.2-0.2,0.4-0.3c0,0,0.1-0.1,0.1-0.1     c0.1-0.1,0.2-0.1,0.2-0.2c0,0,0.1-0.1,0.1-0.1c0.1-0.1,0.2-0.1,0.2-0.2c0,0,0.1-0.1,0.1-0.1c0.1-0.1,0.2-0.1,0.2-0.2     c0,0,0.1-0.1,0.1-0.1c0.1-0.1,0.2-0.2,0.4-0.3c8.2-7,12.9-17.3,12.9-28.1v-17.5C512,149.3,512,149,512,148.7z M118.6,149.5v17     c0,9.3-6.7,17.2-15.9,18.6l-61.4,9.6c-8.1,1.3-16.2-1.1-22.4-6.4c-6.2-5.3-9.7-13-9.7-21.2v-16.9L119.9,137     C119.1,141.1,118.6,145.2,118.6,149.5z M331.7,87.9H180.3c-26.2,0-48.7,16.5-57.6,39.6L9.4,141C13.8,73.8,69.9,20.4,138.3,20.4     h235.4c68.4,0,124.5,53.4,128.9,120.7l-113.3-13.5C380.4,104.4,358,87.9,331.7,87.9z M502.9,167.1c0,8.2-3.6,15.9-9.7,21.2     c-0.6,0.5-1.2,1-1.8,1.4c-5.9,4.3-13.3,6.1-20.6,5l-61.4-9.6c-6.3-1-11.5-5-14.1-10.4c-0.1-0.2-0.2-0.5-0.3-0.8     c-0.1-0.3-0.2-0.5-0.3-0.8c0-0.1,0-0.1-0.1-0.2c0-0.1-0.1-0.3-0.1-0.4c-0.6-1.9-1-3.9-1-6.1v-17c0-4.3-0.4-8.5-1.3-12.5     l110.8,13.2V167.1z"/>
<path class="st11" d="M484.8,300.7c-4.1-24.6-18.7-46.1-40.1-58.9l-89.1-53.4v-38.1c0-9.7-7.9-17.7-17.7-17.7h-36.5     c-9.7,0-17.7,7.9-17.7,17.7v36.1h-55.5v-36.1c0-9.7-7.9-17.7-17.7-17.7H174c-9.7,0-17.7,7.9-17.7,17.7v38.1l-89.1,53.4     c-21.4,12.8-36,34.3-40.1,58.9l-25,151.9c-2,12,1.4,24.2,9.3,33.5s19.4,14.6,31.5,14.6H469c12.2,0,23.7-5.3,31.5-14.6     c7.9-9.3,11.3-21.5,9.3-33.5L484.8,300.7z M493.5,480.2c-6.1,7.2-15.1,11.4-24.6,11.4H43c-9.5,0-18.4-4.1-24.6-11.4     c-6.1-7.2-8.8-16.7-7.2-26.1l25-151.9c3.6-22,16.6-41.1,35.8-52.6l91.3-54.7c1.4-0.8,2.2-2.3,2.2-3.9v-40.7     c0-4.7,3.8-8.6,8.6-8.6h36.5c4.7,0,8.6,3.8,8.6,8.6V191c0,2.5,2,4.6,4.6,4.6h64.6c2.5,0,4.6-2,4.6-4.6v-40.7     c0-4.7,3.8-8.6,8.6-8.6H338c4.7,0,8.6,3.8,8.6,8.6V191c0,1.6,0.8,3.1,2.2,3.9l91.3,54.7c19.1,11.4,32.1,30.6,35.8,52.6l25,151.9     C502.3,463.5,499.7,473,493.5,480.2z"/>
<path class="st11" d="M256,218.6c-69.4,0-125.9,56.5-125.9,125.9S186.6,470.5,256,470.5S381.9,414,381.9,344.6     S325.4,218.6,256,218.6z M256,461.4c-64.4,0-116.8-52.4-116.8-116.8S191.6,227.7,256,227.7c64.4,0,116.8,52.4,116.8,116.8     S320.4,461.4,256,461.4z"/>
</g>
</g>
</g>
</svg>