<?xml version="1.0" standalone="no"?><!DOCTYPE svg PUBLIC "-//W3C//DTD SVG 1.1//EN" "http://www.w3.org/Graphics/SVG/1.1/DTD/svg11.dtd"><svg t="1745330973156" class="icon" viewBox="0 0 1024 1024" version="1.1" xmlns="http://www.w3.org/2000/svg" p-id="67220" xmlns:xlink="http://www.w3.org/1999/xlink" width="256" height="256"><path d="M602.965 275.232H420.921a27.319 27.319 0 0 0-27.308 27.307v33.135h236.66v-33.135a27.319 27.319 0 0 0-27.308-27.307z" fill="#FE2D56" p-id="67221"></path><path d="M511.994 0C229.233 0 0 229.278 0 512.006S229.233 1024 511.994 1024 1024 794.767 1024 512.006 794.767 0 511.994 0z m291.354 766.866a36.368 36.368 0 0 1-36.413 36.402H257.077a36.368 36.368 0 0 1-36.402-36.402V517.787h218.447v54.615a36.368 36.368 0 0 0 36.413 36.413h72.816a36.368 36.368 0 0 0 36.413-36.413h0.114v-54.615h218.447z m-259.545-199a16.293 16.293 0 0 1-13.71 4.57h-36.357a15.996 15.996 0 0 1-13.654-4.57 16.327 16.327 0 0 1-4.57-13.711v-36.356a16.076 16.076 0 0 1 13.654-18.202 30.198 30.198 0 0 1 4.57 0h36.414a16.076 16.076 0 0 1 18.2 13.654 15.173 15.173 0 0 1 0 4.57v36.414a15.996 15.996 0 0 1-4.547 13.63z m259.522-86.47H579.748a36.116 36.116 0 0 0-31.283-18.2h-72.816a36.3 36.3 0 0 0-31.294 18.2H220.789V372.167a36.368 36.368 0 0 1 36.402-36.402h81.922v-33.134a82.093 82.093 0 0 1 81.922-81.922h182.044a82.093 82.093 0 0 1 81.922 81.922v33.134h81.91a36.562 36.562 0 0 1 36.414 36.402z" fill="#FE2D56" p-id="67222"></path></svg>