<?xml version="1.0" standalone="no"?><!DOCTYPE svg PUBLIC "-//W3C//DTD SVG 1.1//EN" "http://www.w3.org/Graphics/SVG/1.1/DTD/svg11.dtd"><svg t="1744680128144" class="icon" viewBox="0 0 1024 1024" version="1.1" xmlns="http://www.w3.org/2000/svg" p-id="56197" xmlns:xlink="http://www.w3.org/1999/xlink" width="256" height="256"><path d="M242.190871 182.705394h531.120332v658.589212H242.190871z" fill="#FFFFFF" p-id="56198"></path><path d="M509.985992 288.258124h-10.32498c-18.954622 0-36.855502 7.456929-50.396946 20.998374-13.541444 13.545693-20.998373 31.442324-20.998373 50.401195v103.262539h153.128365V359.657693c-0.004249-39.370888-32.037178-71.399568-71.408066-71.399569z m-1.427652-257.261941c-273.382506 0-495.004149 221.621643-495.004149 495.004149 0 273.386755 221.621643 495.004149 495.004149 495.004149 273.382506 0 495.004149-221.617394 495.00415-495.004149-0.004249-273.382506-221.621643-495.004149-495.00415-495.004149z m205.445843 734.067784H295.655568V462.924481h68.875685V359.657693c0-35.980216 14.085311-69.886938 39.664067-95.465693 25.578755-25.583004 59.485477-39.668315 95.465692-39.668315h10.32498c74.522556 0 135.138257 60.61995 135.138257 135.134008v103.262539h68.879934v302.143735z" fill="#F06262" p-id="56199"></path></svg>