<?xml version="1.0" standalone="no"?><!DOCTYPE svg PUBLIC "-//W3C//DTD SVG 1.1//EN" "http://www.w3.org/Graphics/SVG/1.1/DTD/svg11.dtd"><svg t="1745330825425" class="icon" viewBox="0 0 1024 1024" version="1.1" xmlns="http://www.w3.org/2000/svg" p-id="50708" xmlns:xlink="http://www.w3.org/1999/xlink" width="256" height="256"><path d="M512 0L32 208v608l480 208 480-208V208L512 0zM129.6 222.4L512 56l388.8 169.6L512 393.6 129.6 222.4z m812.8 558.4l-404.8 176V440l404.8-176v516.8z" fill="#333333" p-id="50709"></path><path d="M486.4 955.2L81.6 780.8V257.6l404.8 182.4z" fill="#1682BF" p-id="50710"></path><path d="M353.6 542.4l-174.4-76.8c-12.8-6.4-19.2-20.8-12.8-33.6 6.4-12.8 20.8-19.2 33.6-12.8L374.4 496c12.8 6.4 19.2 20.8 12.8 33.6-6.4 12.8-20.8 19.2-33.6 12.8z" fill="#333333" p-id="50711"></path></svg>