<?xml version="1.0" standalone="no"?><!DOCTYPE svg PUBLIC "-//W3C//DTD SVG 1.1//EN" "http://www.w3.org/Graphics/SVG/1.1/DTD/svg11.dtd"><svg t="1745330785801" class="icon" viewBox="0 0 1117 1024" version="1.1" xmlns="http://www.w3.org/2000/svg" p-id="45453" xmlns:xlink="http://www.w3.org/1999/xlink" width="279.25" height="256"><path d="M844.34 302.225H273.14v-163.67c0-70.86 53.798-128.509 119.936-128.509h331.326c66.138 0 119.936 57.65 119.936 128.509z m-516.497-58.603h461.81V138.555c0-38.51-29.267-69.905-65.3-69.905H393.077c-35.965 0-65.3 31.36-65.3 69.905z" fill="#F7C11C" p-id="45454"></path><path d="M854.385 312.272h-591.29V138.555C263.095 62.153 321.481 0 393.077 0h331.326c71.68 0 129.982 62.153 129.982 138.555z m-571.197-20.093h551.105V138.555c0-65.3-49.294-118.462-109.89-118.462H393.077c-60.596 0-109.89 53.144-109.89 118.462zM799.7 253.67H317.797V138.554c0-44.087 33.823-79.952 75.28-79.952h331.326c41.508 0 75.347 35.865 75.347 79.952z m-461.81-20.093h441.718v-95.021c0-33.002-24.764-59.86-55.255-59.86H393.077c-30.44 0-55.254 26.79-55.254 59.86z" fill="#33241A" p-id="45455"></path><path d="M724.403 50.533H393.077c-35.965 0-65.3 31.36-65.3 69.905v18.117c0-38.51 29.268-69.905 65.3-69.905h331.326c35.983 0 65.301 31.36 65.301 69.905v-18.117c-0.05-38.544-29.318-69.905-65.3-69.905zM273.141 284.109h571.215v18.116H273.14z" fill="#EBA017" p-id="45456"></path><path d="M327.843 243.622h461.81v24.496h-461.81z m396.56-233.576H393.077c-66.138 0-119.936 57.65-119.936 128.509v24.496c0-70.86 53.798-128.509 119.936-128.509h331.326c66.138 0 119.936 57.65 119.936 128.509v-24.496c0-70.86-53.798-128.509-119.936-128.509z" fill="#FFFFFF" p-id="45457"></path><path d="M275.05 222.14h49.68v17.296h-49.68z m519.627 0h49.679v17.296h-49.679z" fill="#EBA017" p-id="45458"></path><path d="M854.385 312.272h-591.29V138.555C263.095 62.153 321.481 0 393.077 0h331.326c71.68 0 129.982 62.153 129.982 138.555z m-571.197-20.093h551.105V138.555c0-65.3-49.294-118.462-109.89-118.462H393.077c-60.596 0-109.89 53.144-109.89 118.462zM799.7 253.67H317.797V138.554c0-44.087 33.823-79.952 75.28-79.952h331.326c41.508 0 75.347 35.865 75.347 79.952z m-461.81-20.093h441.718v-95.021c0-33.002-24.764-59.86-55.255-59.86H393.077c-30.44 0-55.254 26.79-55.254 59.86z" fill="#33241A" p-id="45459"></path><path d="M40.955 540.523h1035.57v422.798a50.633 50.633 0 0 1-50.633 50.633H91.589a50.633 50.633 0 0 1-50.634-50.633V540.523z" fill="#AEE4F5" p-id="45460"></path><path d="M1025.892 1024H91.589a60.746 60.746 0 0 1-60.68-60.68V530.478h1055.663V963.32a60.746 60.746 0 0 1-60.68 60.679zM51.002 550.57v412.75a40.637 40.637 0 0 0 40.587 40.587h934.303a40.637 40.637 0 0 0 40.587-40.586V550.569z" fill="#33241A" p-id="45461"></path><path d="M1025.892 978.038H91.589a50.633 50.633 0 0 1-50.634-50.633v35.916a50.633 50.633 0 0 0 50.634 50.633h934.303a50.633 50.633 0 0 0 50.633-50.633v-35.916a50.633 50.633 0 0 1-50.633 50.633z" fill="#FFFFFF" p-id="45462"></path><path d="M37.288 540.523h1039.237v34.542H37.288z" fill="#64CAE2" p-id="45463"></path><path d="M1025.892 1024H91.589a60.746 60.746 0 0 1-60.68-60.68V530.478h1055.663V963.32a60.746 60.746 0 0 1-60.68 60.679zM51.002 550.57v412.75a40.637 40.637 0 0 0 40.587 40.587h934.303a40.637 40.637 0 0 0 40.587-40.586V550.569z" fill="#33241A" p-id="45464"></path><path d="M1107.434 539.468H10.046V292.045a50.633 50.633 0 0 1 50.633-50.633h996.122a50.633 50.633 0 0 1 50.633 50.633v247.423z" fill="#AEE4F5" p-id="45465"></path><path d="M1117.48 549.514H0V292.13a60.746 60.746 0 0 1 60.68-60.68H1056.8a60.73 60.73 0 0 1 60.68 60.68zM20.094 529.422h1077.295V292.129a40.62 40.62 0 0 0-40.587-40.587H60.68a40.62 40.62 0 0 0-40.586 40.587z" fill="#33241A" p-id="45466"></path><path d="M1056.801 241.496H60.68a50.616 50.616 0 0 0-50.633 50.633v34.593a50.633 50.633 0 0 1 50.633-50.634h996.122a50.633 50.633 0 0 1 50.633 50.634v-34.593a50.616 50.616 0 0 0-50.633-50.633z" fill="#FFFFFF" p-id="45467"></path><path d="M11.62 504.608h1095.814v31.511H11.62z" fill="#64CAE2" p-id="45468"></path><path d="M1117.48 549.514H0V292.13a60.746 60.746 0 0 1 60.68-60.68H1056.8a60.73 60.73 0 0 1 60.68 60.68zM20.094 529.422h1077.295V292.129a40.62 40.62 0 0 0-40.587-40.587H60.68a40.62 40.62 0 0 0-40.586 40.587z" fill="#33241A" p-id="45469"></path><path d="M484.599 394.316h150.694v285.331H484.599v-285.33z" fill="#FF7997" p-id="45470"></path><path d="M615.2 689.693H504.691a30.139 30.139 0 0 1-30.138-30.138V414.409a30.139 30.139 0 0 1 30.138-30.139h110.51a30.139 30.139 0 0 1 30.138 30.139v245.146a30.139 30.139 0 0 1-30.139 30.138z m-110.509-285.33a10.046 10.046 0 0 0-10.046 10.046v245.146a10.046 10.046 0 0 0 10.046 10.046h110.51a10.046 10.046 0 0 0 10.046-10.046V414.409a10.046 10.046 0 0 0-10.047-10.046z" fill="#33241A" p-id="45471"></path><path d="M615.2 394.316H504.691A20.093 20.093 0 0 0 484.6 414.41v20.796a20.093 20.093 0 0 1 20.092-20.093h110.51a20.093 20.093 0 0 1 20.092 20.093v-20.796a20.093 20.093 0 0 0-20.093-20.093z" fill="#FFFFFF" p-id="45472"></path><path d="M615.2 679.647H504.691a20.093 20.093 0 0 1-20.092-20.092v-20.796a20.093 20.093 0 0 0 20.092 20.092h110.51a20.093 20.093 0 0 0 20.092-20.092v20.796a20.093 20.093 0 0 1-20.093 20.092z" fill="#E85D88" p-id="45473"></path><path d="M615.2 689.693H504.691a30.139 30.139 0 0 1-30.138-30.138V414.409a30.139 30.139 0 0 1 30.138-30.139h110.51a30.139 30.139 0 0 1 30.138 30.139v245.146a30.139 30.139 0 0 1-30.139 30.138z m-110.509-285.33a10.046 10.046 0 0 0-10.046 10.046v245.146a10.046 10.046 0 0 0 10.046 10.046h110.51a10.046 10.046 0 0 0 10.046-10.046V414.409a10.046 10.046 0 0 0-10.047-10.046z" fill="#33241A" p-id="45474"></path><path d="M594.823 499.317a34.877 34.877 0 1 0-42.964 33.889v59.524a10.046 10.046 0 0 0 20.092 0v-60.696a34.86 34.86 0 0 0 22.872-32.717z" fill="#F7C11C" p-id="45475"></path><path d="M561.905 607.8a15.07 15.07 0 0 1-15.07-15.07v-55.757a39.917 39.917 0 1 1 30.14-1.674v57.431a15.07 15.07 0 0 1-15.07 15.07z m-1.96-138.421a29.854 29.854 0 0 0-6.931 58.888 5.023 5.023 0 0 1 3.868 4.872v59.591a5.023 5.023 0 0 0 10.046 0v-60.696a5.023 5.023 0 0 1 3.349-4.722 29.837 29.837 0 0 0-10.264-57.866z" fill="#33241A" p-id="45476"></path><path d="M571.951 523.093v8.94a34.86 34.86 0 0 0 22.872-32.716 35.262 35.262 0 0 0-0.301-4.438 34.877 34.877 0 0 1-22.57 28.214z m-20.092 1.189a34.894 34.894 0 0 1-26.49-29.436 35.798 35.798 0 0 0-0.3 4.47 34.827 34.827 0 0 0 26.79 33.89z m10.046 69.637a10.046 10.046 0 0 1-10.046-10.046v8.857a10.046 10.046 0 0 0 20.092 0v-8.924a10.046 10.046 0 0 1-10.046 10.113z" fill="#EBA017" p-id="45477"></path><path d="M559.946 480.33a34.894 34.894 0 0 1 33.956 27.007 34.877 34.877 0 1 0-68.833-8.004 34.693 34.693 0 0 0 0.937 7.954 34.894 34.894 0 0 1 33.94-26.958z" fill="#FFFFFF" p-id="45478"></path><path d="M561.905 607.8a15.07 15.07 0 0 1-15.07-15.07v-55.757a39.917 39.917 0 1 1 30.14-1.674v57.431a15.07 15.07 0 0 1-15.07 15.07z m-1.96-138.421a29.854 29.854 0 0 0-6.931 58.888 5.023 5.023 0 0 1 3.868 4.872v59.591a5.023 5.023 0 0 0 10.046 0v-60.696a5.023 5.023 0 0 1 3.349-4.722 29.837 29.837 0 0 0-10.264-57.866z m476.395 428.088a10.046 10.046 0 0 1-10.046-10.046v-92.928a10.046 10.046 0 0 1 20.092 0v92.928a10.046 10.046 0 0 1-10.046 10.046z m0-128.927a10.046 10.046 0 0 1-10.046-10.046V734.5a10.046 10.046 0 0 1 20.092 0v23.994a10.046 10.046 0 0 1-10.046 10.046zM120.455 486.86H54.183a10.046 10.046 0 0 1 0-20.093h66.272a10.046 10.046 0 0 1 0 20.092z m89.311 0h-42.981a10.046 10.046 0 0 1 0-20.093h42.981a10.046 10.046 0 0 1 0 20.092z" fill="#33241A" p-id="45479"></path><path d="M96.461 903.411h149.572v48.005H96.461V903.41z" fill="#F7C11C" p-id="45480"></path><path d="M224.266 956.422H118.228a26.79 26.79 0 0 1-26.79-26.79v-4.454a26.79 26.79 0 0 1 26.79-26.79h106.038a26.79 26.79 0 0 1 26.79 26.79v4.454a26.79 26.79 0 0 1-26.79 26.79z m-106.038-47.988a16.744 16.744 0 0 0-16.744 16.744v4.454a16.744 16.744 0 0 0 16.744 16.744h106.038a16.744 16.744 0 0 0 16.744-16.744v-4.454a16.744 16.744 0 0 0-16.744-16.744z" fill="#33241A" p-id="45481"></path><path d="M120.455 916.237h101.584a24.01 24.01 0 0 1 23.107 17.58 23.944 23.944 0 0 0-23.107-30.406H120.455a23.944 23.944 0 0 0-23.107 30.407 23.994 23.994 0 0 1 23.107-17.581z" fill="#FFFFFF" p-id="45482"></path><path d="M120.455 939.795h101.584a24.01 24.01 0 0 0 23.107-17.58 23.944 23.944 0 0 1-23.107 30.406H120.455a23.944 23.944 0 0 1-23.107-30.407 23.994 23.994 0 0 0 23.107 17.581z" fill="#EBA017" p-id="45483"></path><path d="M222.04 956.422H120.454a29.017 29.017 0 1 1 0-58.034h101.584a29.017 29.017 0 0 1 0 58.034z m-101.585-47.988a18.97 18.97 0 1 0 0 37.942h101.584a18.97 18.97 0 0 0 0-37.942z" fill="#33241A" p-id="45484"></path></svg>