<?xml version="1.0" standalone="no"?><!DOCTYPE svg PUBLIC "-//W3C//DTD SVG 1.1//EN" "http://www.w3.org/Graphics/SVG/1.1/DTD/svg11.dtd"><svg t="1745330675529" class="icon" viewBox="0 0 1024 1024" version="1.1" xmlns="http://www.w3.org/2000/svg" p-id="36638" xmlns:xlink="http://www.w3.org/1999/xlink" width="256" height="256"><path d="M512 512m-512 0a512 512 0 1 0 1024 0 512 512 0 1 0-1024 0Z" fill="#E35653" p-id="36639"></path><path d="M501.134222 312.888889a164.551111 164.551111 0 0 1 163.441778 145.578667 121.856 121.856 0 0 1-11.719111 243.171555h-303.445333a121.856 121.856 0 0 1-11.719112-243.171555 164.551111 164.551111 0 0 1 163.441778-145.578667z m0 117.589333a19.484444 19.484444 0 0 0-19.484444 19.484445v117.447111l-44.913778-44.913778a19.484444 19.484444 0 1 0-27.562667 27.562667l78.421334 78.421333a19.427556 19.427556 0 0 0 13.880889 5.688889 19.427556 19.427556 0 0 0 13.539555-5.489778l0.227556-0.227555 78.421333-78.421334a19.484444 19.484444 0 0 0-27.335111-27.790222l-0.227556 0.227556-45.511111 45.511111v-118.044445a19.484444 19.484444 0 0 0-19.456-19.456z" fill="#FFFFFF" p-id="36640"></path><path d="M799.374222 684.970667a80.924444 80.924444 0 1 1 80.952889-81.009778 80.924444 80.924444 0 0 1-80.952889 81.009778z m15.416889-79.644445a17.777778 17.777778 0 1 0-17.777778-17.777778 17.777778 17.777778 0 0 0 17.891556 17.635556z" fill="#FFDA6A" p-id="36641"></path><path d="M766.293333 684.629333l-64.824889 73.159111-48.696888 7.196445 0.568888-52.138667 24.348445-6.058666 1.024-27.704889 26.055111-1.080889 1.735111-27.136 16.384-2.218667 34.872889-4.977778z" fill="#FFDA6A" p-id="36642"></path><path d="M652.344889 770.958222a5.006222 5.006222 0 0 1-1.336889 0 6.371556 6.371556 0 0 1-4.408889-5.916444l-0.824889-54.983111a6.371556 6.371556 0 0 1 5.688889-6.371556l20.138667-2.673778 2.417778-21.845333a6.371556 6.371556 0 0 1 5.148444-5.546667l21.219556-3.896889 1.336888-20.394666a6.371556 6.371556 0 0 1 5.546667-5.916445l10.638222-1.393777-2.844444-7.082667a87.893333 87.893333 0 0 1 121.088-107.889778l3.072 1.649778 0.768-1.024a46.762667 46.762667 0 0 1 41.614222-14.535111 24.291556 24.291556 0 0 1 15.672889 27.022222 60.216889 60.216889 0 0 1-14.222222 31.288889l-2.844445 2.844444 1.393778 3.555556a87.864889 87.864889 0 0 1-80.042667 116.366222 89.571556 89.571556 0 0 1-21.020444-1.706667l-8.220444-2.218666-67.100445 73.102222a6.371556 6.371556 0 0 1-3.953778 2.048l-47.530666 5.404444a4.664889 4.664889 0 0 1-1.336889 0z m16.896-14.592l28.16-3.185778 62.122667-67.669333-8.334223-4.664889a87.552 87.552 0 0 1-23.950222-22.357333l-2.844444-4.266667-10.382223 1.336889-1.336888 20.081778a6.371556 6.371556 0 0 1-5.233778 5.859555l-21.418667 4.010667-2.474667 21.731556a6.371556 6.371556 0 0 1-5.489777 5.688889l-19.114667 2.56 0.199111 33.137777 66.076445-72.135111a6.371556 6.371556 0 0 1 9.443555 8.533334z m131.84-73.102222a75.918222 75.918222 0 0 0 42.382222-14.734222 76.8 76.8 0 0 0 29.44-79.644445l-1.905778-6.371555-2.616889 1.706666a38.229333 38.229333 0 0 1-19.683555 5.347556 35.015111 35.015111 0 0 1-8.533333-1.080889l-1.905778-0.625778v1.28a22.300444 22.300444 0 0 1-8.988445 14.648889 22.584889 22.584889 0 1 1 4.579556-31.288889 20.764444 20.764444 0 0 1 1.223111 1.962667l1.649778 0.881778a25.6 25.6 0 0 0 23.267555 0.312889l6.058667-3.697778-2.104889-4.067556a58.823111 58.823111 0 0 0-4.323555-6.371555 76.8 76.8 0 1 0-123.562667 90.481778l5.859555 6.684444 8.931556 8.533333 6.371556 4.408889a76.8 76.8 0 0 0 43.889777 11.633778z m-61.952-77.482667a5.688889 5.688889 0 0 1-5.489778-5.546666 63.345778 63.345778 0 0 1 60.785778-59.136 5.688889 5.688889 0 1 1-0.824889 11.093333 52.650667 52.650667 0 0 0-48.867556 48.099556 5.688889 5.688889 0 0 1-5.575111 5.489777z m77.368889-8.988444a11.719111 11.719111 0 0 0 6.371555-2.161778 11.52 11.52 0 0 0 4.323556-11.861333v-0.881778l-0.711111-0.512a5.688889 5.688889 0 0 1-2.304-3.640889v-0.568889a11.377778 11.377778 0 1 0-7.196445 19.911111z m58.368-32.938667l5.233778-7.509333a44.231111 44.231111 0 0 0 5.688888-17.066667 13.255111 13.255111 0 0 0-7.964444-15.416889 30.72 30.72 0 0 0-25.6 8.220445l-3.441778 2.673778 1.792 1.223111a86.414222 86.414222 0 0 1 18.602667 18.744889 80.839111 80.839111 0 0 1 4.892444 7.594666z" fill="#333333" p-id="36643"></path></svg>