<?xml version="1.0" standalone="no"?><!DOCTYPE svg PUBLIC "-//W3C//DTD SVG 1.1//EN" "http://www.w3.org/Graphics/SVG/1.1/DTD/svg11.dtd"><svg t="1744679777804" class="icon" viewBox="0 0 1024 1024" version="1.1" xmlns="http://www.w3.org/2000/svg" p-id="23527" width="256" height="256" xmlns:xlink="http://www.w3.org/1999/xlink"><path d="M175.56 217.87m-85.37 0a85.37 85.37 0 1 0 170.74 0 85.37 85.37 0 1 0-170.74 0Z" fill="#AC1F24" p-id="23528"></path><path d="M882.58 221.37c-148.4-170.43-404.21-191.82-578.7-51.28l-0.21-0.63s-51.16 51.26-106.12 45.01c-10.69-1.22-20.16-3.52-28.67-6.41-22.56-8.9-31.34-24.72-32.22-38.79-1.7-26.89 22.65-35.01 22.65-35.01-37.38 5.73-67.48 45.76-83.97 81.64-30.42 62.05-62.47 181.9-11.47 374.9C90.78 692.63 233.06 924 555.92 916.24l-0.25-0.75c101.21 2.64 203.66-31.12 286.04-102.84 174.56-151.99 192.86-416.72 40.87-591.28z" fill="#E64F49" p-id="23529"></path><path d="M667.42 490.93m-224.81 0a224.81 224.81 0 1 0 449.62 0 224.81 224.81 0 1 0-449.62 0Z" fill="#FFFFFF" p-id="23530"></path><path d="M706.95 485.12m-95.88 0a95.88 95.88 0 1 0 191.76 0 95.88 95.88 0 1 0-191.76 0Z" fill="#E64F49" p-id="23531"></path><path d="M750.19 478.89m-24.09 0a24.09 24.09 0 1 0 48.18 0 24.09 24.09 0 1 0-48.18 0Z" fill="#FFFFFF" p-id="23532"></path><path d="M357.49 788.8c-27.54-39.13-102.19-35.43-146.71-4.1s-55.43 87.59-27.89 126.71c27.54 39.13 83.1 46.31 127.62 14.98s74.52-98.46 46.98-137.59z" fill="#AC1F24" p-id="23533"></path></svg>