<?xml version="1.0" standalone="no"?><!DOCTYPE svg PUBLIC "-//W3C//DTD SVG 1.1//EN" "http://www.w3.org/Graphics/SVG/1.1/DTD/svg11.dtd"><svg t="1745330636153" class="icon" viewBox="0 0 1194 1024" version="1.1" xmlns="http://www.w3.org/2000/svg" p-id="35184" xmlns:xlink="http://www.w3.org/1999/xlink" width="298.5" height="256"><path d="M21.589333 28.672A85.333333 85.333333 0 0 0 0 85.333333v853.333334a85.333333 85.333333 0 0 0 85.333333 85.333333h1024a85.333333 85.333333 0 0 0 85.333334-85.333333V256a85.333333 85.333333 0 0 0-85.333334-85.333333H735.402667a85.333333 85.333333 0 0 1-76.288-47.189334L620.885333 47.189333 615.594667 37.973333A85.333333 85.333333 0 0 0 544.597333 0H85.333333L75.349333 0.597333a85.333333 85.333333 0 0 0-53.76 28.074667zM597.333333 256c92.16 0 167.253333 59.136 166.741334 147.626667v25.6h-63.744v-31.061334c0-46.506667-46.165333-84.48-102.997334-84.48s-103.082667 38.144-103.082666 84.48v88.149334h205.994666v-0.341334h104.106667v-0.768h7.594667a42.325333 42.325333 0 0 1 29.098666 11.52 39.765333 39.765333 0 0 1 12.202667 28.16v288.768a38.656 38.656 0 0 1-12.202667 28.16 41.301333 41.301333 0 0 1-29.098666 11.52H382.634667a41.813333 41.813333 0 0 1-29.098667-11.52 39.253333 39.253333 0 0 1-12.202667-28.16V524.885333a40.533333 40.533333 0 0 1 40.874667-39.68h47.786667v-80.896C430.08 315.904 505.173333 256 597.504 256zM597.333333 585.984a50.858667 50.858667 0 0 0-51.456 47.104c0 9.045333 2.730667 17.92 7.68 25.685333a50.346667 50.346667 0 0 0 20.48 17.92v63.146667c0 2.986667 2.56 5.290667 5.546667 5.290667h35.498667a5.546667 5.546667 0 0 0 3.84-1.536 5.205333 5.205333 0 0 0 1.621333-3.669334v-63.146666a50.005333 50.005333 0 0 0 20.48-17.92 47.786667 47.786667 0 0 0 7.765333-25.770667A50.858667 50.858667 0 0 0 597.333333 585.984z" fill="#3282FF" p-id="35185"></path></svg>