<?xml version="1.0" standalone="no"?><!DOCTYPE svg PUBLIC "-//W3C//DTD SVG 1.1//EN" "http://www.w3.org/Graphics/SVG/1.1/DTD/svg11.dtd"><svg height="1024" node-id="1" sillyvg="true" template-height="1024" template-width="1024" version="1.1" viewBox="0 0 1024 1024" width="1024" xmlns="http://www.w3.org/2000/svg" xmlns:xlink="http://www.w3.org/1999/xlink"><defs node-id="61"></defs><path d="M 0.00 0.00 L 1024.00 0.00 L 1024.00 1024.00 L 0.00 1024.00 Z" fill="#ffffff" fill-rule="nonzero" node-id="63" stroke="none" target-height="1024" target-width="1024" target-x="0" target-y="0"></path><path d="M 478.10 377.90 L 487.00 377.00 L 495.90 376.60 L 504.80 376.90 L 513.70 377.80 L 522.50 379.20 L 531.20 381.20 L 546.20 384.10 L 553.60 385.80 L 560.90 387.90 L 565.60 389.70 L 570.20 391.90 L 579.90 397.90 L 584.90 401.50 L 589.50 405.40 L 598.10 414.10 L 607.70 426.00 L 623.60 448.60 L 625.80 451.90 L 629.70 459.20 L 635.90 471.80 L 639.80 482.10 L 641.20 487.50 L 642.10 493.00 L 642.50 498.60 L 642.20 504.50 L 641.40 510.40 L 640.10 516.20 L 638.30 521.90 L 636.10 527.40 L 633.50 532.80 L 630.50 537.90 L 627.00 542.70 L 623.20 547.30 L 619.00 551.50 L 614.50 555.30 L 609.60 558.70 L 602.40 563.10 L 595.00 567.00 L 564.80 581.80 L 557.50 586.10 L 550.70 590.80 L 546.40 594.30 L 542.40 598.20 L 538.50 602.50 L 541.70 610.90 L 526.90 617.60 L 521.80 619.00 L 516.70 619.10 L 514.00 618.50 L 508.50 616.50 L 505.70 616.00 L 503.00 615.90 L 498.80 616.40 L 482.10 620.50 L 477.90 621.10 L 472.30 620.70 L 469.40 619.90 L 458.80 615.10 L 443.30 606.70 L 432.70 601.80 L 427.10 599.90 L 395.80 591.20 L 378.60 585.60 L 365.40 579.70 L 357.00 575.60 L 348.80 571.10 L 340.80 566.30 L 333.00 561.00 L 325.40 555.40 L 318.10 549.50 L 311.20 543.30 L 304.40 536.70 L 298.10 529.80 L 292.10 522.60 L 286.50 515.10 L 281.20 507.30 L 276.40 499.30 L 272.10 491.00 L 268.30 482.50 L 264.90 473.70 L 263.10 468.10 L 261.80 462.60 L 261.00 456.90 L 260.80 451.30 L 261.00 445.60 L 261.70 440.00 L 262.80 434.40 L 264.30 428.90 L 266.20 423.50 L 271.10 413.20 L 274.10 408.30 L 277.60 426.30 L 274.20 433.20 L 272.90 437.00 L 272.00 440.90 L 271.20 448.70 L 271.40 452.60 L 272.10 456.30 L 273.30 459.90 L 275.00 463.30 L 277.20 466.50 L 283.40 472.20 L 286.80 474.50 L 290.40 476.50 L 294.10 478.10 L 299.20 479.70 L 304.50 480.70 L 309.90 481.00 L 315.30 480.80 L 320.70 480.10 L 326.00 478.80 L 331.20 477.00 L 336.10 474.70 L 340.90 471.90 L 345.30 468.60 L 349.20 464.90 L 362.30 449.30 L 367.50 442.10 L 377.50 427.20 L 386.30 415.10 L 394.20 406.30 L 398.60 402.40 L 403.30 398.90 L 408.60 395.70 L 415.90 392.40 L 423.30 389.60 L 430.90 387.10 L 446.40 383.10 L 454.30 381.50 L 466.20 379.50 L 478.10 377.90 Z M 468.50 386.50 L 465.20 387.60 L 461.70 389.10 L 458.50 391.00 L 455.60 393.30 L 452.80 397.10 L 451.90 399.20 L 451.50 401.50 L 451.60 403.90 L 453.70 410.80 L 455.60 414.60 L 457.90 418.10 L 463.60 424.20 L 466.90 426.80 L 472.20 430.40 L 477.80 433.70 L 489.10 439.50 L 487.70 461.30 L 485.60 483.20 L 483.30 496.50 L 481.60 503.20 L 479.40 509.60 L 477.50 513.80 L 472.90 521.50 L 470.10 524.90 L 466.90 528.00 L 463.20 530.90 L 459.50 533.20 L 451.80 536.70 L 447.70 537.90 L 442.20 538.90 L 436.60 539.40 L 430.90 539.20 L 425.30 538.50 L 419.80 537.20 L 414.40 535.40 L 409.20 533.00 L 404.40 530.20 L 399.90 526.80 L 393.90 520.80 L 389.00 513.80 L 387.10 510.20 L 385.70 506.40 L 384.70 502.60 L 383.80 496.80 L 383.50 490.80 L 383.80 466.70 L 381.30 471.60 L 379.40 476.80 L 378.00 482.10 L 377.20 487.60 L 376.90 493.10 L 377.10 498.60 L 377.90 504.10 L 379.20 509.40 L 381.00 514.60 L 383.30 519.60 L 386.20 524.30 L 389.50 528.80 L 393.20 532.60 L 397.20 536.00 L 401.60 538.80 L 411.00 543.20 L 423.70 547.00 L 431.30 548.80 L 434.60 557.60 L 438.30 566.10 L 442.60 574.50 L 447.30 582.60 L 452.60 590.40 L 458.40 597.80 L 463.90 603.40 L 470.30 607.90 L 475.00 610.20 L 479.90 612.00 L 485.10 613.20 L 490.40 614.00 L 495.70 614.10 L 501.00 613.80 L 506.20 612.90 L 511.20 611.40 L 516.10 609.50 L 522.90 605.50 L 528.80 600.30 L 532.20 596.50 L 535.20 592.60 L 540.20 584.00 L 544.10 574.80 L 548.40 560.30 L 551.80 545.80 L 564.70 541.90 L 571.00 539.50 L 577.10 536.70 L 584.70 532.10 L 588.20 529.20 L 591.60 525.80 L 594.60 522.10 L 597.20 518.10 L 599.50 513.90 L 601.40 509.50 L 603.00 504.90 L 604.10 500.20 L 604.80 495.50 L 605.20 490.70 L 604.70 479.50 L 604.30 477.60 L 602.80 474.50 L 601.70 473.30 L 600.10 472.30 L 598.10 471.60 L 598.70 489.30 L 598.50 493.80 L 597.90 498.10 L 596.30 503.80 L 592.90 510.70 L 590.40 514.70 L 587.50 518.40 L 584.20 521.80 L 580.60 524.80 L 576.80 527.50 L 572.70 529.90 L 568.40 531.70 L 564.00 533.20 L 559.40 534.20 L 554.70 534.70 L 550.00 534.70 L 545.20 534.30 L 540.70 533.30 L 536.40 531.70 L 532.30 529.70 L 528.40 527.20 L 524.80 524.30 L 521.40 521.00 L 518.40 517.50 L 515.80 513.70 L 513.50 509.60 L 511.60 505.40 L 507.20 490.60 L 502.50 469.50 L 499.80 453.50 L 497.80 437.40 L 504.30 435.90 L 510.80 433.80 L 515.10 432.10 L 523.00 427.70 L 526.60 425.10 L 529.90 422.10 L 532.80 418.80 L 535.30 415.10 L 537.20 411.10 L 539.40 404.10 L 539.70 401.80 L 538.90 397.50 L 536.70 393.60 L 534.30 391.00 L 531.50 388.90 L 528.30 387.20 L 525.10 386.10 L 518.90 384.80 L 512.70 383.80 L 506.30 383.20 L 493.70 383.10 L 487.30 383.60 L 477.80 384.80 L 468.50 386.50 Z" fill="#fdfdfd" fill-rule="nonzero" node-id="65" stroke="none" target-height="244.49997" target-width="381.7" target-x="260.8" target-y="376.6"></path><path d="M 370.30 673.60 L 368.90 664.80 L 367.60 649.70 L 367.90 637.70 L 368.50 631.70 L 369.60 625.80 L 371.10 620.10 L 373.10 614.50 L 375.70 609.10 L 378.80 603.80 L 375.00 626.90 L 371.80 650.20 L 370.80 661.80 L 370.30 673.60 Z" fill="#fdfdfd" fill-rule="nonzero" node-id="67" stroke="none" target-height="69.79999" target-width="11.199982" target-x="367.6" target-y="603.8"></path><path d="M 481.50 695.30 L 484.00 693.50 L 489.20 691.10 L 491.80 690.50 L 495.50 690.20 L 499.20 690.40 L 503.00 691.10 L 510.20 693.80 L 513.70 695.70 L 520.00 700.20 L 532.80 711.40 L 543.10 719.70 L 588.30 753.30 L 590.20 755.40 L 591.40 757.50 L 592.10 759.90 L 592.40 762.40 L 592.20 765.00 L 591.40 769.00 L 589.80 773.10 L 585.80 780.90 L 578.90 792.00 L 575.90 795.60 L 569.40 802.00 L 564.60 805.60 L 559.40 808.70 L 554.00 811.40 L 542.50 815.60 L 536.50 817.20 L 527.30 819.00 L 508.80 821.30 L 490.60 822.50 L 481.10 822.60 L 471.50 822.40 L 461.90 821.60 L 455.50 820.80 L 443.30 818.00 L 437.30 816.00 L 431.60 813.60 L 426.10 810.70 L 422.20 808.20 L 414.90 802.20 L 411.40 798.70 L 405.10 788.90 L 402.30 783.70 L 399.90 778.30 L 398.00 772.70 L 396.50 767.10 L 395.80 762.70 L 395.50 754.00 L 395.90 749.60 L 401.40 749.20 L 406.60 748.30 L 411.60 747.10 L 416.40 745.50 L 422.60 742.80 L 428.60 739.60 L 434.30 736.00 L 445.30 727.60 L 473.70 701.80 L 481.50 695.30 Z" fill="#fdfdfd" fill-rule="nonzero" node-id="69" stroke="none" target-height="132.39996" target-width="196.90002" target-x="395.5" target-y="690.2"></path><path d="M 576.00 309.00 L 578.30 314.30 L 575.90 319.50 L 572.10 330.20 L 570.80 335.80 L 569.60 343.20 L 568.90 350.70 L 568.80 358.30 L 569.30 365.90 L 570.30 373.40 L 571.80 380.90 L 567.10 374.40 L 563.80 367.50 L 562.40 362.60 L 561.50 357.60 L 561.00 352.50 L 561.10 347.30 L 561.70 342.20 L 562.60 337.00 L 565.80 326.90 L 570.30 317.40 L 576.00 309.00 Z" fill="#fdfcfd" fill-rule="nonzero" node-id="71" stroke="none" target-height="71.899994" target-width="17.299988" target-x="561" target-y="309"></path><path d="M 420.50 380.90 L 421.50 373.20 L 422.20 365.50 L 422.20 350.10 L 420.90 334.80 L 419.10 323.40 L 416.90 312.00 L 420.30 316.10 L 423.30 320.50 L 425.90 325.20 L 428.00 330.20 L 429.80 335.20 L 431.10 340.50 L 431.40 351.30 L 431.00 356.70 L 429.40 365.60 L 426.90 372.20 L 425.20 375.20 L 423.00 378.10 L 420.50 380.90 Z" fill="#fdfcfd" fill-rule="nonzero" node-id="73" stroke="none" target-height="68.899994" target-width="14.5" target-x="416.9" target-y="312"></path><path d="M 411.70 138.20 L 439.40 132.50 L 453.40 130.30 L 467.50 128.40 L 481.60 127.10 L 495.70 126.30 L 517.00 126.30 L 538.10 127.60 L 548.60 128.90 L 559.10 130.60 L 569.50 132.80 L 579.90 135.40 L 588.70 137.80 L 606.10 143.60 L 618.80 148.70 L 631.30 154.30 L 680.60 178.60 L 653.10 174.20 L 646.30 165.10 L 634.90 159.60 L 623.30 154.70 L 611.60 150.30 L 599.60 146.40 L 587.50 143.00 L 575.30 140.10 L 562.90 137.60 L 550.50 135.70 L 538.00 134.30 L 525.40 133.30 L 512.80 132.90 L 500.20 132.90 L 487.60 133.40 L 475.10 134.30 L 462.60 135.70 L 439.50 139.30 L 418.40 143.90 L 408.00 146.70 L 397.70 150.00 L 387.60 153.80 L 377.70 158.10 L 331.30 180.00 L 322.00 184.00 L 302.30 191.60 L 291.80 194.90 L 281.20 197.70 L 238.30 207.40 L 227.70 210.20 L 222.70 211.80 L 217.90 213.90 L 213.50 216.40 L 209.40 219.30 L 205.50 222.50 L 198.50 229.90 L 195.40 234.00 L 191.70 239.80 L 188.50 245.90 L 185.80 252.30 L 183.60 258.90 L 181.90 265.50 L 180.70 272.10 L 178.90 293.10 L 178.40 319.50 L 178.70 367.20 L 178.40 377.70 L 176.80 398.70 L 175.40 409.10 L 173.30 419.50 L 170.70 429.80 L 163.20 432.00 L 166.10 424.70 L 168.70 417.50 L 170.80 410.10 L 172.50 402.70 L 174.20 392.60 L 175.40 382.50 L 176.00 372.30 L 176.20 351.80 L 175.80 341.50 L 173.70 310.80 L 172.60 303.10 L 172.10 295.30 L 172.10 287.50 L 172.80 279.70 L 174.00 272.00 L 175.80 264.40 L 178.20 257.00 L 181.10 249.80 L 184.60 242.90 L 187.60 237.90 L 194.50 228.50 L 202.10 220.40 L 205.90 217.20 L 214.20 211.70 L 223.30 207.30 L 230.30 204.50 L 237.60 202.20 L 271.70 193.50 L 291.00 188.10 L 303.80 184.10 L 316.40 179.70 L 329.00 174.90 L 339.40 170.40 L 379.80 149.80 L 390.10 145.20 L 397.10 142.50 L 404.30 140.10 L 411.70 138.20 Z" fill="#fefefd" fill-rule="nonzero" node-id="75" stroke="none" target-height="305.7" target-width="517.39996" target-x="163.2" target-y="126.3"></path><path d="M 733.70 193.70 L 740.90 194.10 L 747.80 195.00 L 754.50 196.40 L 761.00 198.20 L 767.40 200.60 L 773.50 203.40 L 779.40 206.60 L 785.20 210.20 L 790.70 214.20 L 795.90 218.60 L 800.90 223.20 L 805.60 228.20 L 814.10 239.00 L 821.40 250.70 L 827.40 263.10 L 831.90 276.10 L 833.60 282.80 L 834.90 289.50 L 835.80 296.20 L 836.30 303.00 L 836.50 313.40 L 836.00 334.10 L 835.30 344.40 L 834.00 354.70 L 832.10 364.90 L 833.30 339.50 L 833.50 326.60 L 833.20 313.90 L 832.60 305.40 L 831.60 297.00 L 830.20 288.60 L 828.30 280.40 L 825.80 272.30 L 820.00 258.00 L 816.80 252.00 L 813.20 246.20 L 809.20 240.70 L 804.90 235.40 L 800.30 230.40 L 795.30 225.70 L 790.10 221.30 L 784.60 217.20 L 778.90 213.50 L 772.90 210.20 L 766.80 207.20 L 744.60 198.60 L 733.70 193.70 Z" fill="#fefefd" fill-rule="nonzero" node-id="77" stroke="none" target-height="171.2" target-width="102.79999" target-x="733.7" target-y="193.7"></path><path d="M 262.60 257.80 L 267.40 250.30 L 272.80 242.80 L 276.60 238.10 L 285.10 229.40 L 289.70 225.50 L 294.60 222.20 L 299.80 219.30 L 303.90 217.60 L 308.10 216.20 L 312.60 215.20 L 317.30 214.70 L 309.80 219.50 L 302.60 224.60 L 295.70 230.20 L 289.20 236.10 L 283.00 242.40 L 277.10 248.90 L 271.60 255.70 L 266.40 262.90 L 261.50 270.20 L 257.00 277.80 L 252.90 285.60 L 249.10 293.60 L 245.60 301.80 L 239.90 318.50 L 235.60 335.70 L 234.10 344.40 L 232.20 361.90 L 226.70 358.50 L 227.30 349.40 L 228.40 340.50 L 230.10 331.70 L 232.40 323.10 L 235.10 314.50 L 238.20 306.00 L 245.50 289.50 L 256.00 269.40 L 262.60 257.80 Z" fill="#fefefd" fill-rule="nonzero" node-id="79" stroke="none" target-height="147.2" target-width="90.59999" target-x="226.7" target-y="214.7"></path><path d="M 637.50 274.30 L 639.40 274.30 L 641.50 274.80 L 643.40 275.80 L 645.20 277.10 L 646.70 278.80 L 647.80 280.60 L 648.40 282.60 L 648.30 284.50 L 643.00 284.20 L 640.80 282.50 L 639.20 280.70 L 638.20 278.80 L 637.60 276.70 L 637.50 274.30 Z" fill="#fefefd" fill-rule="nonzero" node-id="81" stroke="none" target-height="10.200012" target-width="10.900024" target-x="637.5" target-y="274.3"></path><path d="M 634.10 290.60 L 649.80 296.90 L 653.50 299.30 L 656.20 302.50 L 657.10 304.60 L 659.60 317.90 L 660.50 329.30 L 659.90 340.80 L 659.00 346.50 L 657.70 352.00 L 656.00 357.30 L 653.80 362.40 L 651.10 367.20 L 647.90 371.70 L 645.20 374.90 L 642.20 377.70 L 638.80 380.40 L 635.00 382.80 L 637.60 377.30 L 639.70 371.80 L 641.50 366.10 L 642.90 360.40 L 644.20 352.60 L 644.80 344.70 L 644.90 336.70 L 644.30 328.80 L 643.30 320.90 L 641.70 313.10 L 639.60 305.40 L 637.00 297.90 L 634.10 290.60 Z" fill="#fefefd" fill-rule="nonzero" node-id="83" stroke="none" target-height="92.19998" target-width="26.400024" target-x="634.1" target-y="290.6"></path><path d="M 248.60 765.50 L 257.80 759.60 L 267.60 755.10 L 274.50 752.80 L 281.60 751.10 L 288.80 749.90 L 296.10 749.20 L 303.40 749.00 L 310.80 749.30 L 318.10 750.00 L 325.20 751.20 L 332.20 752.80 L 322.90 751.80 L 313.50 751.30 L 307.20 751.30 L 294.70 752.30 L 288.60 753.30 L 282.60 754.80 L 276.70 756.80 L 271.00 759.20 L 265.50 762.20 L 260.20 765.70 L 255.20 770.10 L 250.70 774.80 L 246.60 779.80 L 242.90 785.20 L 239.60 790.80 L 236.50 796.60 L 232.50 805.60 L 229.00 814.90 L 223.20 833.60 L 222.70 827.30 L 222.80 821.10 L 223.50 814.90 L 224.70 808.80 L 226.40 802.80 L 228.50 796.90 L 234.00 785.60 L 237.20 780.20 L 240.80 775.00 L 248.60 765.50 Z" fill="#fefefd" fill-rule="nonzero" node-id="85" stroke="none" target-height="84.599976" target-width="109.500015" target-x="222.7" target-y="749"></path><path d="M 643.00 194.50 L 648.90 192.30 L 655.00 190.70 L 661.40 189.70 L 667.90 189.20 L 674.30 189.30 L 680.70 190.10 L 690.00 192.50 L 698.70 196.20 L 702.80 198.70 L 706.60 201.50 L 710.20 204.70 L 720.00 215.70 L 726.20 223.30 L 732.10 231.30 L 737.60 239.60 L 742.70 248.10 L 747.30 256.90 L 751.40 265.90 L 754.90 275.10 L 757.90 284.50 L 759.70 291.70 L 761.10 298.90 L 762.10 306.20 L 762.70 313.70 L 760.10 303.10 L 758.30 298.00 L 756.00 293.10 L 737.90 260.10 L 731.50 249.30 L 724.60 238.70 L 717.30 228.50 L 706.60 215.70 L 700.80 209.60 L 696.90 206.10 L 692.70 203.00 L 688.30 200.30 L 683.60 198.00 L 678.80 196.00 L 673.90 194.50 L 668.80 193.40 L 663.60 192.70 L 658.40 192.50 L 653.30 192.70 L 648.10 193.40 L 643.00 194.50 Z" fill="#fdf6bc" fill-rule="nonzero" node-id="87" stroke="none" target-height="124.500015" target-width="119.70001" target-x="643" target-y="189.2"></path><path d="M 631.10 764.50 L 633.90 761.20 L 636.90 758.30 L 640.30 756.00 L 647.60 752.40 L 651.60 751.00 L 657.80 749.50 L 670.50 747.70 L 682.50 746.80 L 688.50 746.80 L 700.60 747.70 L 706.50 748.70 L 712.40 750.10 L 718.10 751.90 L 723.60 754.20 L 728.80 757.00 L 732.60 759.40 L 739.50 765.10 L 742.70 768.50 L 734.20 774.90 L 730.90 770.90 L 727.30 767.30 L 723.40 764.20 L 719.20 761.40 L 714.80 759.10 L 710.10 757.10 L 705.30 755.50 L 700.40 754.30 L 690.30 752.80 L 680.20 752.60 L 668.00 753.20 L 661.80 754.20 L 655.70 755.70 L 651.80 757.10 L 648.20 758.80 L 644.80 760.90 L 641.70 763.50 L 639.00 766.50 L 636.50 770.10 L 634.10 775.50 L 632.10 781.00 L 630.70 786.60 L 628.90 798.20 L 627.20 830.70 L 626.30 839.40 L 622.50 830.20 L 619.20 820.90 L 619.60 811.30 L 621.10 795.00 L 623.70 782.40 L 625.60 776.20 L 628.00 770.20 L 631.10 764.50 Z" fill="#fdf6bc" fill-rule="nonzero" node-id="89" stroke="none" target-height="92.60004" target-width="123.5" target-x="619.2" target-y="746.8"></path><path d="M 408.00 125.00 L 422.10 121.80 L 436.40 119.00 L 450.90 116.60 L 465.40 114.70 L 479.90 113.20 L 494.50 112.30 L 505.40 112.00 L 527.30 112.50 L 538.10 113.30 L 549.00 114.50 L 559.80 116.20 L 570.50 118.30 L 591.80 123.50 L 602.20 126.70 L 612.40 130.30 L 632.40 138.70 L 656.80 150.70 L 699.60 174.10 L 744.60 181.20 L 759.40 184.40 L 766.70 186.40 L 773.80 188.80 L 780.80 191.70 L 787.70 195.20 L 794.60 199.20 L 801.10 203.70 L 807.30 208.70 L 813.00 214.10 L 818.40 219.80 L 823.40 225.90 L 828.00 232.30 L 832.20 239.00 L 836.00 246.00 L 839.50 253.10 L 842.50 260.50 L 845.10 268.00 L 847.30 275.70 L 849.10 283.40 L 850.50 291.10 L 851.50 298.90 L 852.50 317.80 L 852.50 327.40 L 852.10 336.90 L 851.10 346.40 L 849.60 355.70 L 848.00 362.60 L 845.90 369.40 L 843.40 376.10 L 840.50 382.70 L 838.10 386.90 L 835.30 391.00 L 832.00 394.90 L 828.40 398.50 L 824.60 401.70 L 820.50 404.50 L 817.20 406.20 L 813.80 407.60 L 806.80 409.40 L 803.20 409.60 L 799.50 409.40 L 795.80 408.80 L 791.90 407.60 L 786.30 405.20 L 781.00 402.40 L 776.20 399.20 L 771.70 395.50 L 767.40 391.60 L 763.40 387.30 L 757.70 380.50 L 736.40 351.50 L 730.80 344.80 L 730.60 351.30 L 730.80 357.60 L 731.40 363.90 L 733.00 373.20 L 735.20 382.40 L 745.60 419.00 L 748.00 431.40 L 748.70 437.60 L 749.10 443.80 L 748.90 450.20 L 747.40 463.70 L 746.00 470.60 L 744.10 477.40 L 741.80 484.00 L 736.30 496.90 L 731.40 506.30 L 726.10 515.50 L 715.00 533.40 L 720.40 551.70 L 724.70 570.40 L 727.60 589.30 L 728.50 598.90 L 728.90 608.40 L 728.30 663.00 L 728.80 708.10 L 760.40 707.60 L 770.90 706.90 L 777.90 706.10 L 784.80 705.00 L 791.60 703.40 L 797.60 700.90 L 808.80 695.20 L 814.20 691.80 L 821.00 686.90 L 827.50 681.60 L 833.70 675.80 L 839.50 669.70 L 845.00 663.30 L 850.10 656.50 L 859.40 642.40 L 866.60 630.20 L 870.30 625.60 L 871.70 624.40 L 874.80 623.10 L 876.50 623.10 L 878.30 623.60 L 880.50 624.80 L 881.70 630.70 L 882.50 636.60 L 882.80 642.50 L 882.60 648.30 L 881.80 656.10 L 880.40 663.80 L 878.30 671.50 L 875.70 679.00 L 872.70 686.30 L 869.20 693.60 L 865.40 700.60 L 857.20 713.90 L 853.50 719.20 L 849.50 724.10 L 845.10 728.70 L 835.50 736.90 L 830.30 740.70 L 822.30 746.00 L 814.10 750.80 L 822.90 751.40 L 831.60 752.40 L 840.40 754.00 L 849.00 756.00 L 857.40 758.50 L 865.70 761.50 L 873.90 765.10 L 881.70 769.10 L 889.30 773.60 L 891.60 775.20 L 893.60 777.00 L 895.30 779.10 L 897.60 783.90 L 898.40 789.20 L 898.30 791.80 L 897.70 794.40 L 896.80 797.00 L 895.40 799.30 L 893.60 801.50 L 888.90 805.00 L 884.00 807.80 L 878.80 810.20 L 867.90 813.70 L 862.30 815.00 L 845.30 818.00 L 832.50 819.50 L 819.60 819.60 L 806.80 818.40 L 822.20 829.10 L 809.90 829.70 L 797.50 829.80 L 772.70 828.80 L 768.90 841.90 L 767.60 845.10 L 765.80 847.80 L 762.60 850.90 L 756.60 853.90 L 752.70 855.40 L 748.70 856.50 L 742.50 857.60 L 736.20 858.10 L 723.60 858.10 L 711.00 857.30 L 671.60 858.90 L 661.70 859.10 L 645.40 858.40 L 632.40 856.70 L 626.60 854.70 L 620.30 850.50 L 610.00 841.30 L 589.50 846.10 L 568.70 850.40 L 554.80 852.90 L 540.90 855.00 L 526.90 856.70 L 512.90 857.90 L 498.80 858.50 L 484.70 858.50 L 472.70 858.00 L 460.80 857.10 L 437.20 853.80 L 413.70 849.30 L 378.80 841.10 L 376.10 844.40 L 370.30 849.60 L 367.30 851.70 L 362.90 854.00 L 358.40 855.90 L 353.70 857.30 L 343.90 858.90 L 331.10 859.30 L 300.00 857.40 L 285.40 856.90 L 262.90 857.30 L 248.00 856.80 L 243.20 856.20 L 233.70 853.90 L 229.20 852.20 L 224.80 850.00 L 218.50 845.70 L 215.60 842.30 L 214.10 839.30 L 212.30 832.50 L 210.80 822.10 L 191.50 822.20 L 185.10 821.70 L 181.00 821.00 L 176.90 819.80 L 172.90 818.20 L 170.50 816.80 L 168.30 815.10 L 166.50 813.00 L 163.70 808.00 L 162.80 805.20 L 162.00 799.60 L 162.20 796.80 L 162.80 794.10 L 163.80 791.60 L 165.20 789.30 L 167.00 787.40 L 169.30 785.80 L 177.70 782.60 L 189.10 779.90 L 197.80 778.60 L 224.10 775.90 L 233.10 763.60 L 237.90 757.80 L 243.20 752.30 L 267.70 737.50 L 267.50 723.50 L 266.70 709.60 L 265.50 695.70 L 259.40 640.20 L 258.20 617.10 L 258.60 598.50 L 259.30 590.10 L 260.40 581.90 L 262.00 573.70 L 265.00 561.60 L 268.50 549.70 L 276.60 526.00 L 267.60 513.00 L 263.40 506.10 L 259.50 499.10 L 256.10 491.90 L 253.00 484.50 L 250.40 477.00 L 248.40 469.30 L 246.90 461.50 L 246.20 455.70 L 245.90 443.70 L 246.40 437.70 L 248.60 426.80 L 251.40 416.00 L 263.90 373.40 L 259.60 374.10 L 238.70 406.50 L 230.90 416.60 L 226.60 421.30 L 222.00 425.70 L 217.00 429.70 L 211.60 433.30 L 205.00 437.00 L 198.00 440.20 L 193.20 442.10 L 183.30 444.80 L 178.30 445.60 L 173.20 445.90 L 168.20 445.80 L 163.30 445.10 L 158.40 443.70 L 153.50 441.80 L 151.60 440.70 L 150.30 439.50 L 149.40 438.10 L 148.60 434.80 L 149.00 430.20 L 149.70 427.40 L 154.80 414.50 L 157.30 406.60 L 159.10 398.60 L 160.50 390.50 L 161.40 382.30 L 161.80 374.10 L 161.90 361.70 L 161.30 349.20 L 158.20 311.90 L 157.30 299.60 L 157.10 292.80 L 157.90 279.10 L 158.80 272.10 L 160.10 265.30 L 161.90 258.60 L 164.00 252.00 L 166.40 245.50 L 169.30 239.30 L 172.60 233.20 L 176.30 227.50 L 180.30 221.90 L 184.80 216.70 L 189.70 211.90 L 195.00 207.50 L 200.70 203.40 L 207.60 199.20 L 214.70 195.60 L 221.90 192.40 L 236.90 187.10 L 256.10 181.90 L 291.20 173.50 L 298.80 171.40 L 313.90 166.20 L 329.70 159.60 L 371.90 138.40 L 383.60 133.20 L 391.50 130.00 L 399.60 127.30 L 408.00 125.00 Z M 411.70 138.20 L 404.30 140.10 L 397.10 142.50 L 390.10 145.20 L 379.80 149.80 L 339.40 170.40 L 329.00 174.90 L 316.40 179.70 L 303.80 184.10 L 291.00 188.10 L 271.70 193.50 L 237.60 202.20 L 230.30 204.50 L 223.30 207.30 L 214.20 211.70 L 205.90 217.20 L 202.10 220.40 L 194.50 228.50 L 187.60 237.90 L 184.60 242.90 L 181.10 249.80 L 178.20 257.00 L 175.80 264.40 L 174.00 272.00 L 172.80 279.70 L 172.10 287.50 L 172.10 295.30 L 172.60 303.10 L 173.70 310.80 L 175.80 341.50 L 176.20 351.80 L 176.00 372.30 L 175.40 382.50 L 174.20 392.60 L 172.50 402.70 L 170.80 410.10 L 168.70 417.50 L 166.10 424.70 L 163.20 432.00 L 170.70 429.80 L 169.20 437.00 L 175.80 435.30 L 182.10 433.00 L 188.00 430.30 L 193.60 427.00 L 199.10 423.30 L 209.20 414.80 L 218.70 405.20 L 225.30 397.60 L 244.10 374.30 L 223.10 371.10 L 216.50 368.90 L 213.30 367.20 L 212.30 360.00 L 211.90 352.90 L 212.20 345.70 L 213.90 331.50 L 215.30 324.30 L 220.70 303.40 L 223.70 294.90 L 230.50 277.90 L 234.40 269.60 L 238.70 261.60 L 243.40 253.70 L 248.50 246.10 L 254.10 239.00 L 260.10 232.20 L 264.90 227.40 L 270.00 222.90 L 275.40 218.70 L 281.10 214.70 L 285.70 212.10 L 290.70 210.00 L 311.30 202.90 L 316.20 200.60 L 320.70 197.90 L 323.50 195.80 L 326.00 193.20 L 328.30 190.20 L 322.90 190.50 L 317.60 190.00 L 315.10 189.20 L 312.60 187.80 L 331.30 180.00 L 367.90 162.80 L 366.90 173.30 L 362.40 177.60 L 357.60 181.50 L 337.10 195.80 L 327.40 203.70 L 358.20 206.10 L 368.40 206.30 L 382.10 205.60 L 390.90 204.40 L 392.60 204.60 L 394.10 205.20 L 396.10 206.60 L 397.80 208.70 L 402.90 218.10 L 398.70 217.90 L 394.70 218.10 L 391.00 218.80 L 383.90 221.40 L 380.60 223.30 L 376.00 226.50 L 367.20 234.40 L 355.20 247.20 L 354.90 252.20 L 362.60 247.70 L 370.70 244.80 L 376.40 243.70 L 382.10 243.10 L 387.90 243.20 L 393.60 243.90 L 399.20 245.10 L 404.80 246.90 L 410.10 249.20 L 415.10 252.00 L 419.80 255.40 L 426.10 261.30 L 431.40 268.30 L 435.40 275.30 L 438.90 282.50 L 441.90 290.10 L 444.30 297.80 L 446.20 305.60 L 447.60 313.60 L 448.50 321.70 L 448.80 329.80 L 448.70 337.90 L 448.10 346.00 L 447.00 354.00 L 445.40 361.80 L 441.70 346.90 L 440.50 325.50 L 439.70 318.30 L 437.20 304.10 L 435.30 297.20 L 433.00 290.50 L 430.20 284.00 L 427.70 279.30 L 424.90 274.80 L 421.60 270.50 L 418.00 266.40 L 414.20 263.00 L 410.20 260.30 L 405.90 258.10 L 401.40 256.50 L 396.80 255.40 L 392.10 254.90 L 387.30 254.80 L 382.50 255.20 L 377.70 256.00 L 373.00 257.40 L 368.50 259.10 L 364.10 261.20 L 359.90 263.70 L 356.10 266.60 L 352.60 269.90 L 350.00 275.10 L 343.10 291.20 L 350.70 280.50 L 352.90 278.10 L 355.30 276.30 L 357.10 275.40 L 359.20 275.00 L 361.50 275.00 L 368.10 275.30 L 374.70 276.10 L 381.30 277.30 L 387.80 279.00 L 394.00 281.10 L 400.10 283.60 L 406.00 286.70 L 411.50 290.30 L 416.80 294.40 L 423.30 301.10 L 428.50 308.60 L 431.30 314.00 L 433.80 319.60 L 435.90 325.50 L 438.50 334.40 L 440.70 343.30 L 436.90 355.80 L 431.10 340.50 L 429.80 335.20 L 428.00 330.20 L 425.90 325.20 L 423.30 320.50 L 420.30 316.10 L 416.90 312.00 L 398.60 297.40 L 392.10 293.50 L 386.50 291.50 L 383.60 291.10 L 380.50 291.10 L 377.30 291.50 L 373.30 293.30 L 371.90 294.60 L 370.10 297.00 L 368.70 299.80 L 367.80 302.90 L 366.50 312.30 L 364.30 315.90 L 362.60 319.50 L 361.30 323.20 L 360.00 329.00 L 359.20 334.90 L 358.20 352.90 L 357.50 358.90 L 355.80 366.60 L 354.40 370.40 L 352.90 363.60 L 351.90 356.90 L 351.50 350.20 L 351.60 343.40 L 352.20 336.70 L 353.20 329.90 L 356.30 316.70 L 361.90 300.50 L 365.80 291.20 L 355.20 294.90 L 349.80 297.30 L 344.70 300.20 L 341.60 302.40 L 338.90 305.00 L 336.70 307.80 L 335.30 310.10 L 334.40 312.60 L 333.70 315.40 L 333.00 324.70 L 332.90 330.80 L 333.30 337.10 L 334.00 343.30 L 335.20 349.40 L 336.80 355.40 L 338.90 361.30 L 341.40 366.80 L 344.50 372.20 L 347.10 375.90 L 353.30 382.80 L 356.80 385.90 L 368.60 393.70 L 361.70 397.70 L 357.20 395.60 L 352.90 393.10 L 348.90 390.30 L 341.70 383.80 L 335.60 376.30 L 333.00 372.10 L 329.90 366.40 L 327.30 360.40 L 325.30 354.10 L 323.90 347.70 L 323.00 341.30 L 322.70 334.70 L 323.10 328.20 L 324.00 321.80 L 325.60 315.50 L 320.90 322.60 L 315.90 329.40 L 310.40 335.80 L 301.80 345.20 L 292.70 354.10 L 295.20 368.20 L 290.50 378.40 L 285.40 388.50 L 280.00 398.30 L 274.00 407.80 L 274.10 408.30 L 268.50 418.30 L 264.30 428.90 L 262.80 434.40 L 261.70 440.00 L 261.00 445.60 L 260.80 451.30 L 261.00 456.90 L 261.80 462.60 L 263.10 468.10 L 264.90 473.70 L 268.30 482.50 L 272.10 491.00 L 276.40 499.30 L 281.20 507.30 L 286.50 515.10 L 292.10 522.60 L 298.10 529.80 L 304.40 536.70 L 311.20 543.30 L 318.10 549.50 L 325.40 555.40 L 333.00 561.00 L 340.80 566.30 L 348.80 571.10 L 357.00 575.60 L 365.40 579.70 L 378.60 585.60 L 395.80 591.20 L 427.10 599.90 L 432.70 601.80 L 443.30 606.70 L 458.80 615.10 L 469.40 619.90 L 472.30 620.70 L 477.90 621.10 L 482.10 620.50 L 498.80 616.40 L 503.00 615.90 L 505.70 616.00 L 508.50 616.50 L 514.00 618.50 L 516.60 619.10 L 519.20 619.20 L 524.30 618.40 L 530.70 616.10 L 552.40 606.00 L 563.20 601.70 L 574.20 597.70 L 607.50 586.70 L 629.40 578.60 L 643.50 572.20 L 650.40 568.50 L 657.70 564.00 L 664.70 559.20 L 671.40 554.10 L 677.90 548.60 L 684.10 542.80 L 691.50 535.20 L 698.40 527.10 L 704.90 518.70 L 710.90 509.90 L 716.40 500.70 L 721.40 491.40 L 725.90 481.80 L 729.90 472.00 L 731.80 466.60 L 733.20 461.10 L 734.10 455.60 L 734.50 450.00 L 734.40 444.30 L 733.90 438.80 L 733.00 433.30 L 731.50 427.80 L 729.70 422.50 L 727.50 417.30 L 724.80 412.40 L 716.40 398.40 L 701.70 370.10 L 698.80 338.40 L 698.60 330.50 L 698.90 322.50 L 689.70 317.10 L 684.10 313.00 L 672.50 305.60 L 666.50 302.30 L 668.10 310.40 L 669.10 318.50 L 669.60 326.60 L 669.40 334.80 L 668.60 342.90 L 667.40 351.00 L 665.60 358.90 L 663.30 366.80 L 662.60 367.10 L 659.00 372.70 L 652.20 381.80 L 645.80 388.10 L 642.30 390.70 L 638.40 392.90 L 634.20 394.70 L 629.80 396.10 L 625.40 397.00 L 621.00 397.40 L 614.30 397.40 L 607.60 396.80 L 594.30 394.90 L 596.40 393.60 L 601.00 391.90 L 608.60 391.10 L 620.20 391.00 L 623.80 390.60 L 626.10 390.10 L 630.20 388.30 L 632.00 386.90 L 633.60 385.10 L 635.00 382.80 L 638.80 380.40 L 642.20 377.70 L 645.20 374.90 L 647.90 371.70 L 651.10 367.20 L 653.80 362.40 L 656.00 357.30 L 657.70 352.00 L 659.00 346.50 L 659.90 340.80 L 660.30 335.10 L 660.50 329.30 L 659.60 317.90 L 657.10 304.60 L 656.20 302.50 L 655.00 300.80 L 651.80 298.00 L 646.70 295.50 L 637.10 291.70 L 631.30 284.60 L 643.00 284.20 L 648.30 284.50 L 648.40 282.60 L 647.80 280.60 L 646.70 278.80 L 645.20 277.10 L 643.40 275.80 L 641.50 274.80 L 639.40 274.30 L 637.50 274.30 L 640.30 263.60 L 637.00 266.50 L 635.80 268.30 L 632.80 274.20 L 627.40 274.10 L 630.20 259.70 L 626.20 257.70 L 622.20 256.10 L 618.00 255.00 L 613.70 254.40 L 609.30 254.20 L 605.00 254.40 L 600.70 255.00 L 596.40 256.00 L 588.20 259.10 L 580.60 263.60 L 577.20 266.30 L 574.00 269.40 L 571.20 272.60 L 568.70 276.20 L 566.20 280.60 L 562.30 289.70 L 560.20 296.80 L 558.60 304.10 L 557.40 311.50 L 555.00 333.80 L 558.40 322.50 L 562.50 311.50 L 565.00 306.30 L 568.10 301.20 L 579.60 304.10 L 575.60 308.00 L 576.00 309.00 L 570.30 317.40 L 565.80 326.90 L 562.60 337.00 L 561.70 342.20 L 561.10 347.30 L 561.00 352.50 L 561.50 357.60 L 562.40 362.60 L 563.80 367.50 L 565.30 371.00 L 569.30 377.70 L 571.80 380.90 L 574.60 394.50 L 570.20 391.90 L 565.60 389.70 L 560.90 387.90 L 553.60 385.80 L 546.20 384.10 L 531.20 381.20 L 534.60 374.10 L 540.80 375.20 L 558.90 380.30 L 555.70 372.10 L 552.90 363.60 L 550.60 355.00 L 548.90 346.20 L 547.70 337.30 L 547.20 328.40 L 547.20 321.70 L 548.30 308.50 L 549.40 302.00 L 551.00 295.50 L 553.00 289.20 L 555.50 283.00 L 560.60 272.60 L 563.10 268.40 L 569.10 260.80 L 573.70 256.20 L 578.60 252.20 L 584.00 248.60 L 588.30 246.30 L 597.20 242.70 L 606.70 240.50 L 611.40 240.00 L 616.30 240.00 L 621.20 240.30 L 609.20 213.10 L 592.00 209.90 L 587.80 208.70 L 583.80 206.90 L 583.10 204.20 L 583.40 203.10 L 584.40 201.80 L 587.80 199.70 L 593.30 197.70 L 607.10 194.40 L 620.50 190.00 L 627.00 187.20 L 633.30 184.10 L 639.40 180.50 L 645.20 176.50 L 650.80 172.10 L 642.70 170.20 L 649.60 169.30 L 653.10 174.20 L 680.60 178.60 L 631.30 154.30 L 618.80 148.70 L 606.10 143.60 L 588.70 137.80 L 579.90 135.40 L 569.50 132.80 L 559.10 130.60 L 548.60 128.90 L 538.10 127.60 L 517.00 126.30 L 495.70 126.30 L 481.60 127.10 L 467.50 128.40 L 453.40 130.30 L 439.40 132.50 L 411.70 138.20 Z M 643.00 194.50 L 632.50 199.80 L 629.20 201.90 L 626.20 204.20 L 623.50 207.10 L 624.90 216.50 L 626.10 221.20 L 627.70 225.80 L 629.00 228.60 L 632.40 233.90 L 634.50 236.20 L 637.00 238.20 L 639.80 240.00 L 640.40 247.70 L 642.60 254.70 L 644.80 259.20 L 647.40 263.40 L 650.50 267.50 L 655.60 273.20 L 661.30 278.60 L 672.90 288.20 L 699.50 308.80 L 706.50 313.70 L 713.70 318.00 L 718.60 320.50 L 723.70 322.50 L 728.90 324.10 L 734.30 325.20 L 739.80 325.70 L 747.60 325.50 L 749.40 325.10 L 753.10 323.10 L 755.20 321.40 L 762.70 313.70 L 762.10 306.20 L 761.10 298.90 L 759.70 291.70 L 757.90 284.50 L 754.90 275.10 L 751.40 265.90 L 747.30 256.90 L 742.70 248.10 L 737.60 239.60 L 732.10 231.30 L 726.20 223.30 L 720.00 215.70 L 710.20 204.70 L 706.60 201.50 L 702.80 198.70 L 698.70 196.20 L 694.40 194.20 L 685.40 191.10 L 680.70 190.10 L 674.30 189.30 L 667.90 189.20 L 661.40 189.70 L 655.00 190.70 L 648.90 192.30 L 643.00 194.50 Z M 733.70 193.70 L 744.60 198.60 L 766.80 207.20 L 764.00 208.30 L 761.30 209.00 L 758.70 209.30 L 754.60 209.00 L 750.60 208.20 L 746.60 206.90 L 734.50 202.00 L 726.40 199.50 L 733.40 208.10 L 746.40 226.00 L 752.40 235.30 L 758.00 244.80 L 766.30 260.50 L 771.90 273.00 L 774.10 279.60 L 775.80 286.20 L 777.10 292.90 L 777.80 299.70 L 777.80 306.40 L 777.30 313.20 L 776.40 318.10 L 775.10 323.00 L 773.30 327.80 L 771.00 332.60 L 767.30 336.10 L 765.10 337.20 L 761.70 338.50 L 757.90 339.30 L 754.10 339.60 L 742.70 339.20 L 751.00 350.30 L 759.70 361.20 L 777.80 382.50 L 781.00 385.60 L 784.60 388.70 L 788.50 391.40 L 792.60 393.70 L 795.40 394.90 L 801.30 396.30 L 804.30 396.40 L 807.40 396.00 L 810.60 395.10 L 814.30 393.00 L 817.70 390.50 L 820.90 387.60 L 823.70 384.40 L 826.20 380.90 L 828.30 377.10 L 830.00 373.20 L 831.30 369.10 L 834.00 354.70 L 835.30 344.40 L 836.00 334.10 L 836.40 323.70 L 836.30 303.00 L 835.80 296.20 L 834.90 289.50 L 833.60 282.80 L 829.80 269.50 L 824.60 256.80 L 821.40 250.70 L 814.10 239.00 L 805.60 228.20 L 800.90 223.20 L 795.90 218.60 L 790.70 214.20 L 785.20 210.20 L 779.40 206.60 L 773.50 203.40 L 767.40 200.60 L 761.00 198.20 L 754.50 196.40 L 747.80 195.00 L 740.90 194.10 L 733.70 193.70 Z M 262.60 257.80 L 256.00 269.40 L 245.50 289.50 L 238.20 306.00 L 235.10 314.50 L 232.40 323.10 L 230.10 331.70 L 228.40 340.50 L 227.30 349.40 L 226.70 358.50 L 232.20 361.90 L 240.90 359.90 L 249.50 357.30 L 257.80 354.00 L 265.90 350.30 L 273.70 346.00 L 281.30 341.20 L 288.50 335.90 L 295.30 330.10 L 301.80 323.90 L 306.10 317.10 L 313.90 302.80 L 329.10 269.20 L 334.40 258.20 L 338.30 251.10 L 342.40 244.10 L 347.00 237.50 L 350.70 232.70 L 359.10 223.90 L 363.80 219.70 L 340.50 217.50 L 317.30 214.70 L 312.60 215.20 L 308.10 216.20 L 303.90 217.60 L 299.80 219.30 L 294.60 222.20 L 289.70 225.50 L 285.10 229.40 L 280.70 233.60 L 272.80 242.80 L 267.40 250.30 L 262.60 257.80 Z M 288.10 536.70 L 284.40 546.50 L 281.10 556.50 L 278.20 566.60 L 275.90 576.90 L 274.10 587.20 L 272.90 597.70 L 272.20 608.20 L 272.20 618.70 L 272.80 629.20 L 278.10 684.10 L 279.20 697.90 L 280.10 720.80 L 279.60 739.30 L 285.80 737.10 L 298.40 737.20 L 311.00 737.40 L 317.30 737.80 L 323.50 738.70 L 328.80 740.00 L 333.90 741.70 L 338.80 743.90 L 348.20 749.10 L 359.20 756.90 L 365.50 762.00 L 371.90 777.40 L 376.70 793.30 L 379.20 804.10 L 381.00 815.10 L 382.30 826.10 L 392.40 828.30 L 422.40 835.90 L 432.50 838.10 L 442.70 839.80 L 456.50 841.40 L 470.30 842.40 L 484.20 842.90 L 498.00 842.80 L 511.90 842.10 L 525.70 841.00 L 539.50 839.50 L 553.20 837.40 L 571.40 834.10 L 589.50 830.20 L 607.40 825.60 L 607.90 806.80 L 608.70 797.40 L 610.10 788.00 L 611.40 781.80 L 615.00 769.90 L 617.50 764.10 L 620.40 758.60 L 625.60 750.80 L 626.90 748.20 L 627.70 745.60 L 628.20 741.50 L 628.20 737.20 L 626.70 724.20 L 626.60 720.00 L 618.40 730.80 L 616.20 733.30 L 611.90 736.60 L 607.70 738.40 L 605.10 738.40 L 600.00 737.60 L 592.80 734.90 L 586.00 731.20 L 574.10 723.50 L 562.60 715.30 L 551.40 706.70 L 518.10 680.30 L 503.20 680.60 L 473.50 679.90 L 435.70 710.40 L 422.80 720.20 L 414.10 726.60 L 396.10 738.60 L 388.30 733.60 L 384.70 730.70 L 381.40 727.40 L 379.50 725.00 L 376.50 719.60 L 384.70 709.50 L 389.80 717.40 L 392.90 720.90 L 396.30 724.10 L 401.50 721.30 L 410.90 714.50 L 431.70 697.50 L 461.20 674.60 L 468.20 668.50 L 465.00 666.40 L 461.70 664.80 L 458.30 663.60 L 451.20 662.40 L 442.00 662.30 L 425.00 663.90 L 414.00 664.30 L 417.60 659.00 L 426.50 656.40 L 438.10 655.10 L 459.10 654.80 L 464.30 628.30 L 451.00 622.00 L 437.40 616.30 L 423.70 611.10 L 413.30 607.50 L 402.80 604.40 L 392.10 601.70 L 381.20 599.40 L 362.30 591.10 L 351.60 585.70 L 341.20 580.00 L 331.00 573.70 L 321.20 567.00 L 311.70 559.80 L 302.60 552.10 L 293.80 543.90 L 288.10 536.70 Z M 688.50 557.10 L 688.70 558.10 L 681.70 563.70 L 674.50 569.00 L 659.40 578.50 L 651.60 582.80 L 643.60 586.60 L 635.30 590.10 L 626.90 593.20 L 630.60 600.80 L 633.60 608.50 L 636.10 616.50 L 638.00 624.50 L 639.30 632.70 L 640.20 641.00 L 640.50 649.30 L 640.50 657.60 L 639.10 674.30 L 637.90 682.50 L 635.10 696.70 L 633.70 708.80 L 633.40 717.90 L 633.40 745.40 L 639.10 742.90 L 650.70 739.00 L 659.70 737.00 L 668.80 735.60 L 678.00 734.60 L 687.20 734.00 L 698.20 735.10 L 709.20 736.60 L 720.10 738.50 L 715.90 724.00 L 714.20 716.70 L 712.90 709.30 L 711.90 699.30 L 712.10 679.30 L 713.80 634.00 L 714.00 618.80 L 713.60 603.80 L 713.00 593.80 L 711.90 583.80 L 710.40 574.00 L 708.40 564.20 L 705.80 554.50 L 702.40 544.90 L 688.50 557.10 Z M 527.70 628.90 L 529.60 646.10 L 553.60 645.50 L 561.70 645.80 L 569.00 646.70 L 571.40 647.30 L 573.50 648.20 L 575.40 649.70 L 577.00 652.40 L 577.60 654.30 L 554.80 653.10 L 543.40 653.20 L 532.00 653.80 L 521.40 667.50 L 548.50 690.10 L 562.50 701.00 L 576.80 711.40 L 586.60 717.90 L 596.60 724.10 L 606.90 729.80 L 614.60 713.30 L 621.30 695.70 L 624.10 686.60 L 626.40 677.50 L 628.20 668.20 L 629.30 658.90 L 629.80 649.70 L 629.80 642.80 L 629.20 636.00 L 628.20 629.20 L 626.70 622.50 L 624.70 616.00 L 622.20 609.60 L 619.00 603.30 L 615.20 597.00 L 607.50 598.30 L 592.30 601.80 L 575.10 607.50 L 555.90 615.50 L 527.70 628.90 Z M 468.70 629.30 L 467.00 643.20 L 466.60 651.10 L 467.50 657.00 L 468.60 659.70 L 470.20 662.30 L 472.40 664.80 L 476.30 666.40 L 480.10 667.50 L 484.10 668.30 L 490.10 668.90 L 496.30 668.80 L 502.40 668.30 L 520.60 665.40 L 521.50 646.80 L 521.30 628.20 L 512.60 627.30 L 503.80 627.00 L 495.00 627.10 L 481.90 627.90 L 468.70 629.30 Z M 807.00 709.20 L 801.10 711.90 L 795.10 714.30 L 789.00 716.10 L 776.50 718.80 L 760.50 720.50 L 750.90 720.80 L 731.60 720.50 L 728.70 727.70 L 731.20 727.70 L 732.20 731.10 L 733.40 734.20 L 735.00 737.10 L 737.90 741.00 L 741.30 744.80 L 752.10 755.60 L 755.30 759.40 L 764.30 757.90 L 773.20 755.70 L 782.00 753.00 L 790.50 749.70 L 798.90 745.80 L 806.90 741.40 L 814.60 736.50 L 822.10 731.10 L 829.20 725.20 L 835.80 718.90 L 842.10 712.20 L 847.90 705.10 L 848.90 704.90 L 855.70 693.20 L 861.50 681.10 L 863.80 674.70 L 865.60 668.10 L 865.90 667.90 L 870.90 649.00 L 850.10 675.00 L 842.60 683.30 L 837.40 688.50 L 831.90 693.40 L 826.20 698.00 L 820.20 702.20 L 813.80 705.90 L 807.00 709.20 Z M 248.60 765.50 L 240.80 775.00 L 237.20 780.20 L 234.00 785.60 L 228.50 796.90 L 226.40 802.80 L 224.70 808.80 L 223.50 814.90 L 222.80 821.10 L 222.70 827.30 L 223.20 833.60 L 222.50 835.80 L 226.90 838.30 L 231.40 840.30 L 236.00 842.00 L 240.70 843.20 L 245.50 844.00 L 250.50 844.20 L 252.20 839.70 L 257.80 821.40 L 259.60 817.00 L 261.80 812.80 L 264.50 808.80 L 264.10 817.60 L 263.40 826.30 L 261.00 843.70 L 293.10 842.50 L 299.00 827.90 L 300.20 831.50 L 300.90 835.30 L 301.90 842.90 L 329.70 845.00 L 338.90 845.20 L 351.30 844.70 L 357.50 843.90 L 357.50 843.60 L 363.20 839.30 L 366.60 836.00 L 367.70 834.00 L 368.40 831.10 L 367.10 812.40 L 365.90 803.80 L 364.00 795.20 L 362.50 789.60 L 358.30 779.00 L 355.70 774.00 L 352.60 769.30 L 349.10 764.90 L 346.20 761.90 L 339.50 756.50 L 335.70 754.10 L 334.90 753.10 L 332.20 752.80 L 325.20 751.20 L 318.10 750.00 L 310.80 749.30 L 303.40 749.00 L 296.10 749.20 L 288.80 749.90 L 281.60 751.10 L 274.50 752.80 L 267.60 755.10 L 257.80 759.60 L 248.60 765.50 Z M 631.10 764.50 L 628.00 770.20 L 625.60 776.20 L 623.70 782.40 L 622.20 788.70 L 620.30 801.50 L 619.20 820.90 L 620.40 831.20 L 622.20 836.50 L 624.60 840.10 L 626.20 841.50 L 628.20 842.70 L 630.60 843.60 L 641.00 844.70 L 646.30 844.90 L 655.00 844.30 L 661.70 842.50 L 664.80 841.20 L 667.80 839.40 L 670.70 837.20 L 676.30 843.40 L 713.80 842.80 L 712.10 825.80 L 711.80 817.40 L 712.00 808.90 L 714.40 812.90 L 716.30 817.20 L 722.80 834.80 L 724.70 839.10 L 727.00 843.10 L 740.20 843.00 L 747.40 841.90 L 752.60 839.90 L 755.00 838.40 L 757.10 836.40 L 759.00 834.00 L 757.50 830.70 L 758.10 823.40 L 758.10 816.20 L 757.60 808.90 L 756.50 801.70 L 754.90 794.70 L 752.80 787.80 L 748.40 777.80 L 742.70 768.50 L 736.10 762.10 L 728.80 757.00 L 723.60 754.20 L 718.10 751.90 L 712.40 750.10 L 706.50 748.70 L 694.60 747.10 L 688.50 746.80 L 676.50 747.20 L 664.10 748.50 L 657.80 749.50 L 651.60 751.00 L 647.60 752.40 L 640.30 756.00 L 636.90 758.30 L 633.90 761.20 L 631.10 764.50 Z M 761.40 772.40 L 764.60 780.50 L 779.30 780.20 L 823.50 778.00 L 838.20 777.60 L 853.00 777.90 L 857.30 778.30 L 861.50 779.00 L 865.50 780.20 L 871.40 782.50 L 888.50 791.20 L 887.90 788.60 L 887.00 786.30 L 885.80 784.30 L 883.50 781.60 L 880.60 779.30 L 877.50 777.30 L 867.60 772.30 L 857.90 768.60 L 848.10 765.30 L 838.10 762.50 L 828.10 760.00 L 807.80 756.00 L 777.10 767.40 L 761.40 772.40 Z M 767.00 788.50 L 771.20 802.80 L 812.00 804.80 L 825.70 805.00 L 834.80 804.80 L 852.80 803.30 L 861.70 801.80 L 870.60 799.80 L 879.40 797.20 L 877.20 794.90 L 874.90 793.10 L 872.30 791.70 L 866.70 789.70 L 859.10 788.70 L 845.50 788.20 L 819.30 788.60 L 767.00 788.50 Z M 173.60 798.40 L 175.10 805.30 L 178.10 806.80 L 181.20 807.80 L 184.40 808.40 L 189.30 808.70 L 194.40 808.30 L 214.50 805.50 L 220.20 789.10 L 196.20 791.10 L 190.20 792.00 L 184.40 793.40 L 180.70 794.70 L 173.60 798.40 Z" fill="#292236" fill-rule="nonzero" node-id="91" stroke="none" target-height="747.3" target-width="749.80005" target-x="148.6" target-y="112"></path><path d="M 450.20 137.60 L 462.60 135.70 L 475.10 134.30 L 487.60 133.40 L 500.20 132.90 L 512.80 132.90 L 525.40 133.30 L 538.00 134.30 L 550.50 135.70 L 562.90 137.60 L 575.30 140.10 L 587.50 143.00 L 599.60 146.40 L 611.60 150.30 L 623.30 154.70 L 634.90 159.60 L 646.30 165.10 L 649.60 169.30 L 642.70 170.20 L 650.80 172.10 L 645.20 176.50 L 639.40 180.50 L 633.30 184.10 L 627.00 187.20 L 620.50 190.00 L 613.90 192.40 L 607.10 194.40 L 593.30 197.70 L 587.80 199.70 L 584.40 201.80 L 583.40 203.10 L 583.20 205.40 L 583.80 206.90 L 587.80 208.70 L 592.00 209.90 L 609.20 213.10 L 621.20 240.30 L 616.30 240.00 L 611.40 240.00 L 606.70 240.50 L 601.90 241.40 L 592.70 244.30 L 584.00 248.60 L 578.60 252.20 L 573.70 256.20 L 569.10 260.80 L 565.90 264.50 L 560.60 272.60 L 555.50 283.00 L 553.00 289.20 L 551.00 295.50 L 549.40 302.00 L 547.50 315.10 L 547.20 328.40 L 547.70 337.30 L 548.90 346.20 L 550.60 355.00 L 552.90 363.60 L 555.70 372.10 L 558.90 380.30 L 540.80 375.20 L 534.60 374.10 L 531.20 381.20 L 522.50 379.20 L 513.70 377.80 L 504.80 376.90 L 495.90 376.60 L 487.00 377.00 L 478.10 377.90 L 468.90 378.30 L 441.20 378.50 L 445.40 361.80 L 447.00 354.00 L 448.10 346.00 L 448.70 337.90 L 448.80 329.80 L 448.50 321.70 L 447.60 313.60 L 446.20 305.60 L 444.30 297.80 L 441.90 290.10 L 438.90 282.50 L 435.40 275.30 L 431.40 268.30 L 428.90 264.60 L 423.10 258.20 L 419.80 255.40 L 415.10 252.00 L 410.10 249.20 L 404.80 246.90 L 399.20 245.10 L 393.60 243.90 L 387.90 243.20 L 382.10 243.10 L 376.40 243.70 L 370.70 244.80 L 362.60 247.70 L 354.90 252.20 L 355.20 247.20 L 367.20 234.40 L 376.00 226.50 L 380.60 223.30 L 383.90 221.40 L 391.00 218.80 L 394.70 218.10 L 398.70 217.90 L 402.90 218.10 L 397.80 208.70 L 396.10 206.60 L 394.10 205.20 L 392.60 204.60 L 390.90 204.40 L 382.10 205.60 L 368.40 206.30 L 358.20 206.10 L 327.40 203.70 L 337.10 195.80 L 357.60 181.50 L 362.40 177.60 L 366.90 173.30 L 367.90 162.80 L 377.70 158.10 L 387.60 153.80 L 397.70 150.00 L 407.90 146.70 L 428.90 141.40 L 450.20 137.60 Z" fill="#f1a156" fill-rule="nonzero" node-id="93" stroke="none" target-height="248.30002" target-width="323.4" target-x="327.4" target-y="132.9"></path><path d="M 227.70 210.20 L 238.30 207.40 L 281.20 197.70 L 291.80 194.90 L 302.30 191.60 L 312.60 187.80 L 315.10 189.20 L 317.60 190.00 L 322.90 190.50 L 328.30 190.20 L 326.00 193.20 L 323.50 195.80 L 320.70 197.90 L 316.20 200.60 L 311.30 202.90 L 290.70 210.00 L 285.70 212.10 L 281.10 214.70 L 275.40 218.70 L 270.00 222.90 L 264.90 227.40 L 260.10 232.20 L 254.10 239.00 L 248.50 246.10 L 243.40 253.70 L 238.70 261.60 L 234.40 269.60 L 230.50 277.90 L 226.90 286.40 L 220.70 303.40 L 217.90 313.80 L 213.90 331.50 L 212.20 345.70 L 211.90 352.90 L 212.30 360.00 L 213.30 367.20 L 216.50 368.90 L 223.10 371.10 L 244.10 374.30 L 225.30 397.60 L 218.70 405.20 L 209.20 414.80 L 199.10 423.30 L 193.60 427.00 L 188.00 430.30 L 182.10 433.00 L 175.80 435.30 L 169.20 437.00 L 173.30 419.50 L 175.40 409.10 L 176.80 398.70 L 177.80 388.20 L 178.70 367.20 L 178.50 303.70 L 179.60 282.60 L 180.70 272.10 L 181.90 265.50 L 183.60 258.90 L 185.80 252.30 L 188.50 245.90 L 191.70 239.80 L 195.40 234.00 L 198.50 229.90 L 205.50 222.50 L 209.40 219.30 L 213.50 216.40 L 217.90 213.90 L 222.70 211.80 L 227.70 210.20 Z" fill="#3b2d43" fill-rule="nonzero" node-id="95" stroke="none" target-height="249.2" target-width="159.09999" target-x="169.2" target-y="187.8"></path><path d="M 623.50 207.10 L 626.20 204.20 L 629.20 201.90 L 632.50 199.80 L 643.00 194.50 L 648.10 193.40 L 653.30 192.70 L 658.40 192.50 L 663.60 192.70 L 668.80 193.40 L 673.90 194.50 L 678.80 196.00 L 683.60 198.00 L 688.30 200.30 L 692.70 203.00 L 696.90 206.10 L 700.80 209.60 L 706.60 215.70 L 712.10 222.00 L 717.30 228.50 L 724.60 238.70 L 731.50 249.30 L 744.10 271.00 L 756.00 293.10 L 758.30 298.00 L 760.10 303.10 L 762.70 313.70 L 755.20 321.40 L 750.90 324.50 L 747.60 325.50 L 745.70 325.60 L 739.80 325.70 L 734.30 325.20 L 728.90 324.10 L 723.70 322.50 L 718.60 320.50 L 713.70 318.00 L 706.50 313.70 L 692.70 303.70 L 672.90 288.20 L 661.30 278.60 L 655.60 273.20 L 650.50 267.50 L 647.40 263.40 L 644.80 259.20 L 642.60 254.70 L 641.30 251.30 L 639.90 244.00 L 639.80 240.00 L 637.00 238.20 L 634.50 236.20 L 632.40 233.90 L 629.00 228.60 L 627.70 225.80 L 626.10 221.20 L 624.90 216.50 L 623.50 207.10 Z" fill="#f09851" fill-rule="nonzero" node-id="97" stroke="none" target-height="133.20001" target-width="139.20001" target-x="623.5" target-y="192.5"></path><path d="M 726.40 199.50 L 734.50 202.00 L 746.60 206.90 L 750.60 208.20 L 754.60 209.00 L 758.70 209.30 L 761.30 209.00 L 764.00 208.30 L 766.80 207.20 L 772.90 210.20 L 778.90 213.50 L 784.60 217.20 L 790.10 221.30 L 795.30 225.70 L 800.30 230.40 L 804.90 235.40 L 809.20 240.70 L 813.20 246.20 L 816.80 252.00 L 820.00 258.00 L 825.80 272.30 L 828.30 280.40 L 830.20 288.60 L 831.60 297.00 L 832.60 305.40 L 833.20 313.90 L 833.50 326.60 L 833.30 339.50 L 832.10 364.90 L 831.30 369.10 L 830.00 373.20 L 828.30 377.10 L 826.20 380.90 L 823.70 384.40 L 820.90 387.60 L 817.70 390.50 L 814.30 393.00 L 810.60 395.10 L 807.40 396.00 L 804.30 396.40 L 801.30 396.30 L 795.40 394.90 L 792.60 393.70 L 788.50 391.40 L 784.60 388.70 L 777.80 382.50 L 759.70 361.20 L 751.00 350.30 L 742.70 339.20 L 754.10 339.60 L 757.90 339.30 L 761.70 338.50 L 765.10 337.20 L 767.30 336.10 L 771.00 332.60 L 773.30 327.80 L 775.10 323.00 L 776.40 318.10 L 777.30 313.20 L 777.80 306.40 L 777.80 299.70 L 777.10 292.90 L 775.80 286.20 L 774.10 279.60 L 771.90 273.00 L 769.30 266.60 L 766.30 260.50 L 758.00 244.80 L 752.40 235.30 L 746.40 226.00 L 733.40 208.10 L 726.40 199.50 Z" fill="#3a2e42" fill-rule="nonzero" node-id="99" stroke="none" target-height="196.9" target-width="107.099976" target-x="726.4" target-y="199.5"></path><path d="M 317.30 214.70 L 340.50 217.50 L 363.80 219.70 L 359.10 223.90 L 350.70 232.70 L 347.00 237.50 L 342.40 244.10 L 338.30 251.10 L 334.40 258.20 L 329.10 269.20 L 313.90 302.80 L 310.20 310.10 L 301.80 323.90 L 295.30 330.10 L 288.50 335.90 L 281.30 341.20 L 273.70 346.00 L 265.90 350.30 L 257.80 354.00 L 249.50 357.30 L 240.90 359.90 L 232.20 361.90 L 234.10 344.40 L 235.60 335.70 L 239.90 318.50 L 245.60 301.80 L 249.10 293.60 L 252.90 285.60 L 257.00 277.80 L 261.50 270.20 L 266.40 262.90 L 271.60 255.70 L 277.10 248.90 L 283.00 242.40 L 289.20 236.10 L 295.70 230.20 L 302.60 224.60 L 309.80 219.50 L 317.30 214.70 Z" fill="#ea9e53" fill-rule="nonzero" node-id="101" stroke="none" target-height="147.2" target-width="131.59999" target-x="232.2" target-y="214.7"></path><path d="M 352.60 269.90 L 356.10 266.60 L 359.90 263.70 L 364.10 261.20 L 368.50 259.10 L 373.00 257.40 L 377.70 256.00 L 382.50 255.20 L 387.30 254.80 L 392.10 254.90 L 396.80 255.40 L 401.40 256.50 L 405.90 258.10 L 410.20 260.30 L 414.20 263.00 L 418.00 266.40 L 421.60 270.50 L 424.90 274.80 L 427.70 279.30 L 430.20 284.00 L 433.00 290.50 L 435.30 297.20 L 437.20 304.10 L 439.70 318.30 L 441.30 336.30 L 441.70 346.90 L 438.50 334.40 L 435.90 325.50 L 433.80 319.60 L 431.30 314.00 L 428.50 308.60 L 426.10 304.70 L 420.20 297.70 L 416.80 294.40 L 411.50 290.30 L 406.00 286.70 L 400.10 283.60 L 394.00 281.10 L 387.80 279.00 L 381.30 277.30 L 374.70 276.10 L 368.20 275.30 L 361.50 275.00 L 359.20 275.00 L 357.10 275.40 L 355.30 276.30 L 352.90 278.10 L 350.70 280.50 L 343.10 291.20 L 350.00 275.10 L 352.60 269.90 Z" fill="#f7f7f9" fill-rule="nonzero" node-id="103" stroke="none" target-height="92.09999" target-width="98.600006" target-x="343.1" target-y="254.8"></path><path d="M 568.70 276.20 L 571.20 272.60 L 574.00 269.40 L 577.20 266.30 L 584.30 261.20 L 592.20 257.40 L 596.40 256.00 L 600.70 255.00 L 609.30 254.20 L 613.70 254.40 L 618.00 255.00 L 622.20 256.10 L 626.20 257.70 L 630.20 259.70 L 627.40 274.10 L 621.70 274.10 L 616.10 274.50 L 610.50 275.30 L 605.00 276.60 L 599.50 278.20 L 594.30 280.30 L 589.30 282.80 L 584.40 285.70 L 579.90 289.00 L 575.60 292.70 L 571.70 296.70 L 568.10 301.20 L 565.00 306.30 L 562.50 311.50 L 560.30 317.00 L 555.00 333.80 L 557.40 311.50 L 558.60 304.10 L 560.20 296.80 L 562.30 289.70 L 564.00 285.10 L 568.70 276.20 Z" fill="#fbfaf7" fill-rule="nonzero" node-id="105" stroke="none" target-height="79.59999" target-width="75.20001" target-x="555" target-y="254.2"></path><path d="M 632.80 274.20 L 635.80 268.30 L 637.00 266.50 L 640.30 263.60 L 637.50 274.30 L 637.60 276.70 L 638.20 278.80 L 639.20 280.70 L 640.80 282.50 L 643.00 284.20 L 631.30 284.60 L 637.10 291.70 L 634.10 290.60 L 637.00 297.90 L 639.60 305.40 L 641.70 313.10 L 643.30 320.90 L 644.30 328.80 L 644.90 336.70 L 644.80 344.70 L 644.20 352.60 L 642.90 360.40 L 641.50 366.10 L 639.70 371.80 L 637.60 377.30 L 635.00 382.80 L 633.60 385.10 L 632.00 386.90 L 628.20 389.30 L 623.80 390.60 L 620.20 391.00 L 608.60 391.10 L 601.00 391.90 L 598.60 392.60 L 594.30 394.90 L 591.90 395.70 L 597.30 400.30 L 602.40 405.20 L 607.00 410.50 L 611.20 416.10 L 614.90 422.10 L 618.00 428.30 L 619.90 433.10 L 622.80 443.30 L 623.60 448.60 L 607.70 426.00 L 598.10 414.10 L 589.50 405.40 L 584.90 401.50 L 579.90 397.90 L 574.60 394.50 L 570.30 373.40 L 569.30 365.90 L 568.80 358.30 L 568.90 350.70 L 569.60 343.20 L 570.80 335.80 L 572.10 330.20 L 575.90 319.50 L 578.30 314.30 L 575.60 308.00 L 579.60 304.10 L 568.10 301.20 L 571.70 296.70 L 575.60 292.70 L 579.90 289.00 L 584.40 285.70 L 589.30 282.80 L 594.30 280.30 L 599.50 278.20 L 605.00 276.60 L 610.50 275.30 L 616.10 274.50 L 621.70 274.10 L 632.80 274.20 Z" fill="#312a3f" fill-rule="nonzero" node-id="107" stroke="none" target-height="185" target-width="76.80005" target-x="568.1" target-y="263.6"></path><path d="M 333.50 318.60 L 333.70 315.40 L 334.40 312.60 L 335.30 310.10 L 336.70 307.80 L 338.90 305.00 L 341.60 302.40 L 344.70 300.20 L 349.80 297.30 L 355.20 294.90 L 365.80 291.20 L 361.90 300.50 L 356.30 316.70 L 353.20 329.90 L 352.20 336.70 L 351.60 343.40 L 351.50 350.20 L 351.90 356.90 L 352.90 363.60 L 355.80 378.10 L 356.80 385.90 L 350.00 379.50 L 344.50 372.20 L 341.40 366.80 L 338.90 361.30 L 336.80 355.40 L 335.20 349.40 L 334.00 343.30 L 333.30 337.10 L 332.90 330.80 L 333.50 318.60 Z" fill="#fdfdfc" fill-rule="nonzero" node-id="109" stroke="none" target-height="94.69998" target-width="32.899994" target-x="332.9" target-y="291.2"></path><path d="M 366.50 312.30 L 367.80 302.90 L 368.70 299.80 L 370.10 297.00 L 371.90 294.60 L 375.10 292.30 L 377.30 291.50 L 380.50 291.10 L 383.60 291.10 L 386.50 291.50 L 392.10 293.50 L 394.80 294.90 L 402.40 300.20 L 413.30 309.40 L 416.90 312.00 L 419.10 323.40 L 420.90 334.80 L 422.20 350.10 L 422.20 365.50 L 421.50 373.20 L 420.50 380.90 L 423.00 378.10 L 425.20 375.20 L 426.90 372.20 L 429.40 365.60 L 431.00 356.70 L 431.40 351.30 L 431.10 340.50 L 436.90 355.80 L 440.70 343.30 L 443.70 354.30 L 445.40 361.80 L 441.20 378.50 L 459.60 378.40 L 478.10 377.90 L 466.20 379.50 L 454.30 381.50 L 446.40 383.10 L 430.90 387.10 L 423.30 389.60 L 415.90 392.40 L 408.60 395.70 L 403.30 398.90 L 398.60 402.40 L 394.20 406.30 L 386.30 415.10 L 377.50 427.20 L 367.50 442.10 L 362.30 449.30 L 363.40 443.10 L 365.00 437.00 L 367.10 431.20 L 369.50 425.40 L 375.50 414.50 L 379.00 409.30 L 386.60 399.40 L 374.10 399.10 L 361.70 397.70 L 368.60 393.70 L 356.80 385.90 L 354.40 370.40 L 355.80 366.60 L 357.50 358.90 L 358.20 352.90 L 359.20 334.90 L 360.00 329.00 L 361.30 323.20 L 362.60 319.50 L 364.30 315.90 L 366.50 312.30 Z M 365.80 328.60 L 368.00 327.90 L 369.40 327.00 L 370.10 325.80 L 370.30 324.30 L 369.90 322.40 L 368.60 319.70 L 366.30 320.40 L 365.00 321.40 L 364.20 322.50 L 364.00 324.00 L 364.50 325.90 L 365.80 328.60 Z" fill="#382c41" fill-rule="nonzero" node-id="111" stroke="none" target-height="158.19998" target-width="123.70001" target-x="354.4" target-y="291.1"></path><path d="M 666.50 302.30 L 678.40 309.20 L 689.70 317.10 L 677.60 316.40 L 676.30 333.00 L 675.20 341.30 L 673.70 349.50 L 672.30 354.80 L 668.50 365.30 L 663.30 366.80 L 665.60 358.90 L 667.40 351.00 L 668.60 342.90 L 669.40 334.80 L 669.60 326.60 L 669.10 318.50 L 668.10 310.40 L 666.50 302.30 Z" fill="#e49d67" fill-rule="nonzero" node-id="113" stroke="none" target-height="64.5" target-width="26.400024" target-x="663.3" target-y="302.3"></path><path d="M 292.70 354.10 L 301.80 345.20 L 310.40 335.80 L 315.90 329.40 L 320.90 322.60 L 325.60 315.50 L 324.00 321.80 L 323.10 328.20 L 322.70 334.70 L 323.00 341.30 L 323.90 347.70 L 325.30 354.10 L 327.30 360.40 L 329.90 366.40 L 333.00 372.10 L 335.60 376.30 L 341.70 383.80 L 348.90 390.30 L 352.90 393.10 L 357.20 395.60 L 361.70 397.70 L 374.10 399.10 L 386.60 399.40 L 382.70 404.30 L 375.50 414.50 L 369.50 425.40 L 367.10 431.20 L 365.00 437.00 L 363.40 443.10 L 362.30 449.30 L 352.80 460.80 L 352.30 455.60 L 351.30 450.50 L 349.90 445.60 L 347.90 440.90 L 345.50 436.40 L 342.60 432.20 L 337.40 426.70 L 334.30 424.30 L 328.40 420.30 L 323.10 417.80 L 318.90 416.80 L 314.50 416.30 L 301.10 415.60 L 296.70 415.00 L 291.00 413.50 L 288.30 412.20 L 291.00 407.80 L 293.30 403.20 L 295.20 398.40 L 296.70 393.40 L 297.60 388.40 L 298.00 383.30 L 297.40 375.80 L 295.20 368.20 L 292.70 354.10 Z" fill="#ed9453" fill-rule="nonzero" node-id="115" stroke="none" target-height="145.29999" target-width="98.30002" target-x="288.3" target-y="315.5"></path><path d="M 677.60 316.40 L 689.70 317.10 L 698.90 322.50 L 698.60 330.50 L 698.80 338.40 L 701.70 370.10 L 697.80 405.50 L 685.40 407.10 L 679.20 408.50 L 673.10 410.30 L 667.30 412.60 L 661.70 415.30 L 653.90 420.50 L 646.90 427.00 L 644.60 429.70 L 642.80 432.60 L 641.50 435.70 L 640.00 440.70 L 637.20 456.10 L 625.80 451.90 L 623.60 448.60 L 622.80 443.30 L 619.90 433.10 L 618.00 428.30 L 614.90 422.10 L 611.20 416.10 L 607.00 410.50 L 602.40 405.20 L 597.40 400.30 L 591.90 395.70 L 594.30 394.90 L 607.60 396.80 L 614.30 397.40 L 621.00 397.40 L 625.40 397.00 L 629.80 396.10 L 634.20 394.70 L 638.40 392.90 L 642.30 390.70 L 645.80 388.10 L 649.10 385.00 L 655.00 378.30 L 662.60 367.10 L 668.50 365.30 L 672.30 354.80 L 673.70 349.50 L 675.20 341.30 L 676.30 333.00 L 677.60 316.40 Z" fill="#ec9658" fill-rule="nonzero" node-id="117" stroke="none" target-height="139.70001" target-width="109.79999" target-x="591.9" target-y="316.4"></path><path d="M 365.80 328.60 L 364.50 325.90 L 364.00 324.00 L 364.20 322.50 L 365.00 321.40 L 366.30 320.40 L 368.60 319.70 L 369.90 322.40 L 370.30 324.30 L 370.10 325.80 L 369.40 327.00 L 368.00 327.90 L 365.80 328.60 Z" fill="#a09b9a" fill-rule="nonzero" node-id="119" stroke="none" target-height="8.899994" target-width="6.299988" target-x="364" target-y="319.7"></path><path d="M 295.20 368.20 L 297.40 375.80 L 298.00 383.30 L 297.60 388.40 L 296.70 393.40 L 295.20 398.40 L 293.30 403.20 L 291.00 407.80 L 288.30 412.20 L 277.60 426.30 L 274.00 407.80 L 280.00 398.30 L 285.40 388.50 L 290.50 378.40 L 295.20 368.20 Z" fill="#f4d8c5" fill-rule="nonzero" node-id="121" stroke="none" target-height="58.099976" target-width="24" target-x="274" target-y="368.2"></path><path d="M 697.80 405.50 L 701.70 370.10 L 711.40 389.00 L 721.70 407.60 L 718.40 418.40 L 697.80 405.50 Z" fill="#c7a0a4" fill-rule="nonzero" node-id="123" stroke="none" target-height="48.299988" target-width="23.900024" target-x="697.8" target-y="370.1"></path><path d="M 468.50 386.50 L 477.80 384.80 L 487.30 383.60 L 493.70 383.10 L 506.30 383.20 L 512.70 383.80 L 518.90 384.80 L 525.10 386.10 L 528.30 387.20 L 531.50 388.90 L 534.30 391.00 L 536.70 393.60 L 538.90 397.50 L 539.70 401.80 L 539.40 404.10 L 537.20 411.10 L 535.30 415.10 L 532.80 418.80 L 529.90 422.10 L 526.60 425.10 L 523.00 427.70 L 515.10 432.10 L 510.80 433.80 L 504.30 435.90 L 497.80 437.40 L 499.80 453.50 L 502.50 469.50 L 507.20 490.60 L 511.60 505.40 L 513.50 509.60 L 515.80 513.70 L 518.40 517.50 L 521.40 521.00 L 524.80 524.30 L 528.40 527.20 L 532.30 529.70 L 536.40 531.70 L 540.70 533.30 L 545.20 534.30 L 550.00 534.70 L 554.70 534.70 L 559.40 534.20 L 564.00 533.20 L 568.40 531.70 L 572.70 529.90 L 576.80 527.50 L 580.60 524.80 L 584.20 521.80 L 587.50 518.40 L 590.40 514.70 L 592.90 510.70 L 596.30 503.80 L 597.90 498.10 L 598.50 493.80 L 598.70 489.30 L 598.10 471.60 L 600.10 472.30 L 601.70 473.30 L 602.80 474.50 L 604.30 477.60 L 604.70 479.50 L 605.20 490.70 L 604.80 495.50 L 604.10 500.20 L 603.00 504.90 L 601.40 509.50 L 599.50 513.90 L 597.20 518.10 L 594.60 522.10 L 591.60 525.80 L 588.20 529.20 L 584.70 532.10 L 577.10 536.80 L 571.00 539.50 L 564.70 541.90 L 551.80 545.80 L 548.40 560.30 L 544.10 574.80 L 542.30 579.50 L 537.90 588.40 L 535.20 592.60 L 532.20 596.50 L 525.90 603.00 L 519.60 607.60 L 516.10 609.50 L 511.20 611.40 L 506.20 612.90 L 501.00 613.80 L 495.70 614.10 L 490.40 614.00 L 485.10 613.20 L 479.90 612.00 L 475.00 610.20 L 470.30 607.90 L 463.90 603.40 L 458.40 597.80 L 452.60 590.40 L 447.30 582.60 L 442.60 574.50 L 438.30 566.10 L 434.60 557.60 L 431.30 548.80 L 423.70 547.00 L 411.00 543.20 L 401.60 538.80 L 397.20 536.00 L 393.20 532.60 L 389.50 528.80 L 386.20 524.30 L 383.30 519.60 L 381.00 514.60 L 379.20 509.40 L 377.90 504.10 L 377.10 498.60 L 376.90 493.10 L 377.20 487.60 L 378.00 482.10 L 379.40 476.80 L 381.30 471.60 L 383.80 466.70 L 383.50 490.80 L 383.80 496.80 L 384.70 502.60 L 385.70 506.40 L 387.10 510.20 L 389.00 513.80 L 393.90 520.80 L 399.90 526.80 L 404.40 530.20 L 409.20 533.00 L 414.40 535.40 L 419.80 537.20 L 425.30 538.50 L 430.90 539.20 L 436.60 539.40 L 442.20 538.90 L 447.70 537.90 L 451.80 536.70 L 459.50 533.20 L 463.20 530.90 L 466.90 528.00 L 470.10 524.90 L 472.90 521.50 L 477.50 513.80 L 479.40 509.60 L 481.60 503.20 L 483.30 496.50 L 485.60 483.20 L 487.70 461.30 L 489.10 439.50 L 477.80 433.70 L 472.20 430.40 L 466.90 426.80 L 463.60 424.20 L 457.90 418.10 L 455.60 414.60 L 453.70 410.80 L 451.60 403.90 L 451.50 401.50 L 451.90 399.20 L 452.80 397.10 L 455.60 393.30 L 458.50 391.00 L 461.70 389.10 L 465.20 387.60 L 468.50 386.50 Z M 465.00 400.80 L 523.60 400.20 L 514.40 396.40 L 509.40 395.00 L 499.20 393.30 L 494.00 393.00 L 488.80 393.20 L 483.70 393.80 L 478.80 394.80 L 473.90 396.30 L 469.40 398.30 L 465.00 400.80 Z M 450.70 555.20 L 453.80 568.70 L 456.00 575.40 L 458.80 581.70 L 461.00 585.80 L 463.60 589.60 L 466.40 593.20 L 469.60 596.40 L 473.20 599.30 L 477.30 601.80 L 482.00 603.60 L 486.80 604.80 L 491.70 605.40 L 496.70 605.40 L 501.60 604.80 L 506.40 603.70 L 511.20 602.10 L 515.60 600.00 L 519.90 597.30 L 523.70 594.20 L 527.20 590.70 L 530.20 586.70 L 532.70 582.50 L 534.90 578.20 L 536.60 573.70 L 538.70 566.70 L 540.30 559.50 L 542.20 545.00 L 534.60 542.80 L 527.30 540.00 L 520.20 536.70 L 510.20 530.70 L 501.00 523.40 L 495.50 528.50 L 489.70 533.30 L 483.80 537.80 L 477.50 541.90 L 464.50 549.20 L 450.70 555.20 Z" fill="#2d243d" fill-rule="nonzero" node-id="125" stroke="none" target-height="230.99997" target-width="228.30002" target-x="376.9" target-y="383.1"></path><path d="M 465.00 400.80 L 469.40 398.30 L 473.90 396.30 L 478.80 394.80 L 483.70 393.80 L 488.80 393.20 L 494.00 393.00 L 499.20 393.30 L 509.40 395.00 L 514.40 396.40 L 523.60 400.20 L 465.00 400.80 Z" fill="#beb5c7" fill-rule="nonzero" node-id="127" stroke="none" target-height="7.799988" target-width="58.599976" target-x="465" target-y="393"></path><path d="M 646.90 427.00 L 650.30 423.50 L 657.70 417.70 L 661.70 415.30 L 667.30 412.60 L 673.10 410.30 L 679.20 408.50 L 685.40 407.10 L 697.80 405.50 L 718.40 418.40 L 720.70 423.30 L 722.40 428.40 L 723.30 432.00 L 724.00 439.10 L 723.80 442.60 L 722.40 449.50 L 721.00 452.80 L 719.20 455.90 L 716.80 458.90 L 713.60 462.10 L 710.20 464.90 L 706.50 467.40 L 698.50 471.20 L 690.00 473.70 L 685.50 474.40 L 679.60 474.70 L 673.60 474.50 L 667.60 473.60 L 661.80 472.20 L 656.20 470.10 L 650.90 467.50 L 647.10 465.10 L 643.50 462.40 L 640.20 459.40 L 637.20 456.10 L 640.00 440.70 L 641.50 435.70 L 642.80 432.60 L 644.60 429.70 L 646.90 427.00 Z" fill="#ef6765" fill-rule="nonzero" node-id="129" stroke="none" target-height="69.20001" target-width="86.79999" target-x="637.2" target-y="405.5"></path><path d="M 288.30 412.20 L 291.00 413.50 L 296.70 415.00 L 301.10 415.60 L 314.50 416.30 L 318.90 416.80 L 323.10 417.80 L 328.40 420.30 L 334.30 424.30 L 337.40 426.70 L 342.60 432.20 L 345.50 436.40 L 347.90 440.90 L 349.90 445.60 L 351.30 450.50 L 352.30 455.60 L 352.80 460.80 L 349.20 464.90 L 345.30 468.60 L 340.90 471.90 L 336.10 474.70 L 331.20 477.00 L 326.00 478.80 L 320.70 480.10 L 315.30 480.80 L 309.90 481.00 L 304.50 480.70 L 299.20 479.70 L 294.10 478.10 L 290.30 476.50 L 286.80 474.50 L 283.40 472.20 L 277.20 466.50 L 275.00 463.30 L 273.30 459.90 L 272.10 456.30 L 271.40 452.60 L 271.20 448.70 L 271.40 444.80 L 272.90 437.00 L 275.80 429.70 L 277.60 426.30 L 288.30 412.20 Z" fill="#ef6866" fill-rule="nonzero" node-id="131" stroke="none" target-height="68.79999" target-width="81.599976" target-x="271.2" target-y="412.2"></path><path d="M 718.40 418.40 L 721.70 407.60 L 724.80 412.40 L 727.50 417.30 L 729.70 422.50 L 731.50 427.80 L 733.00 433.30 L 733.90 438.80 L 734.40 444.30 L 734.50 450.00 L 734.10 455.60 L 733.20 461.10 L 731.80 466.60 L 729.90 472.00 L 725.90 481.80 L 721.40 491.40 L 716.40 500.70 L 710.90 509.90 L 704.90 518.70 L 698.40 527.10 L 691.50 535.20 L 684.10 542.80 L 677.90 548.60 L 671.40 554.10 L 664.70 559.20 L 657.70 564.00 L 650.40 568.50 L 643.50 572.20 L 629.40 578.60 L 618.50 582.90 L 574.20 597.70 L 563.20 601.70 L 552.40 606.00 L 541.70 610.90 L 538.50 602.50 L 542.40 598.20 L 546.40 594.30 L 550.70 590.80 L 557.50 586.10 L 564.80 581.80 L 595.00 567.00 L 602.40 563.10 L 609.60 558.70 L 614.50 555.30 L 619.00 551.50 L 623.20 547.30 L 627.00 542.70 L 630.50 537.90 L 633.50 532.80 L 636.10 527.40 L 638.30 521.90 L 640.10 516.20 L 641.40 510.40 L 642.20 504.50 L 642.50 498.60 L 642.10 493.00 L 641.20 487.50 L 639.80 482.10 L 638.00 476.90 L 633.50 466.70 L 625.80 451.90 L 637.20 456.10 L 640.20 459.40 L 643.50 462.40 L 647.10 465.10 L 650.90 467.50 L 656.20 470.10 L 661.80 472.20 L 667.60 473.60 L 673.60 474.50 L 679.60 474.70 L 685.50 474.40 L 690.00 473.70 L 698.50 471.20 L 702.60 469.50 L 706.50 467.40 L 710.20 464.90 L 713.60 462.10 L 716.80 458.90 L 719.20 455.90 L 721.00 452.80 L 722.40 449.50 L 723.80 442.60 L 723.80 435.50 L 722.40 428.40 L 720.70 423.30 L 718.40 418.40 Z" fill="#cdc6d5" fill-rule="nonzero" node-id="133" stroke="none" target-height="203.30002" target-width="196" target-x="538.5" target-y="407.6"></path><path d="M 450.70 555.20 L 464.50 549.20 L 477.50 541.90 L 483.80 537.80 L 489.70 533.30 L 495.50 528.50 L 501.00 523.40 L 510.20 530.70 L 520.20 536.70 L 527.30 540.00 L 534.60 542.80 L 542.20 545.00 L 540.30 559.50 L 538.70 566.70 L 536.60 573.70 L 534.90 578.20 L 532.70 582.50 L 530.20 586.70 L 527.20 590.70 L 523.70 594.20 L 519.90 597.30 L 515.60 600.00 L 511.20 602.10 L 506.40 603.70 L 501.60 604.80 L 496.60 605.40 L 491.70 605.40 L 486.80 604.80 L 482.00 603.60 L 477.30 601.80 L 473.20 599.30 L 469.60 596.40 L 466.40 593.20 L 463.60 589.60 L 461.00 585.80 L 458.80 581.70 L 456.00 575.40 L 453.80 568.70 L 450.70 555.20 Z M 487.60 579.60 L 494.50 574.50 L 498.90 570.40 L 501.20 566.70 L 501.70 563.40 L 501.30 561.80 L 500.50 560.00 L 499.10 558.00 L 496.40 556.90 L 494.30 556.60 L 492.70 556.90 L 491.30 557.60 L 490.10 558.70 L 489.10 560.40 L 488.10 563.20 L 487.50 566.60 L 487.30 573.60 L 487.60 579.60 Z" fill="#ef3858" fill-rule="nonzero" node-id="135" stroke="none" target-height="82" target-width="91.5" target-x="450.7" target-y="523.4"></path><path d="M 288.10 536.70 L 293.80 543.90 L 288.70 568.30 L 286.70 580.60 L 285.10 593.00 L 284.00 609.60 L 284.40 637.80 L 286.50 697.30 L 286.40 723.80 L 285.80 737.10 L 279.60 739.30 L 280.10 720.80 L 279.20 697.90 L 278.10 684.10 L 272.80 629.20 L 272.20 618.70 L 272.20 608.20 L 272.90 597.70 L 274.10 587.20 L 275.90 576.90 L 278.20 566.60 L 281.10 556.50 L 284.40 546.50 L 288.10 536.70 Z" fill="#eee6e5" fill-rule="nonzero" node-id="137" stroke="none" target-height="202.59998" target-width="21.599976" target-x="272.2" target-y="536.7"></path><path d="M 293.80 543.90 L 302.60 552.10 L 311.70 559.80 L 321.20 567.00 L 331.00 573.70 L 341.20 580.00 L 351.60 585.70 L 362.30 591.10 L 373.30 596.00 L 369.80 600.20 L 366.80 604.60 L 364.20 609.20 L 360.30 619.10 L 358.90 624.30 L 357.00 634.90 L 356.20 648.30 L 356.30 656.30 L 356.90 663.10 L 358.00 669.70 L 359.50 676.30 L 362.40 686.00 L 365.90 695.50 L 374.00 714.10 L 374.40 719.60 L 374.30 725.00 L 373.90 730.40 L 372.50 738.50 L 370.60 746.40 L 365.50 762.00 L 359.20 756.90 L 348.20 749.10 L 338.80 743.90 L 333.90 741.70 L 328.80 740.00 L 323.50 738.70 L 311.00 737.40 L 285.80 737.10 L 286.40 723.80 L 286.50 697.30 L 284.40 637.80 L 284.00 609.60 L 285.10 593.00 L 286.70 580.60 L 288.70 568.30 L 293.80 543.90 Z" fill="#eca056" fill-rule="nonzero" node-id="139" stroke="none" target-height="218.09998" target-width="90.399994" target-x="284" target-y="543.9"></path><path d="M 688.50 557.10 L 702.40 544.90 L 705.80 554.50 L 708.40 564.20 L 710.40 574.00 L 711.90 583.80 L 713.00 593.80 L 713.60 603.80 L 714.00 618.80 L 713.80 634.00 L 712.10 679.30 L 711.90 699.30 L 712.90 709.30 L 714.20 716.70 L 715.90 724.00 L 720.10 738.50 L 709.20 736.60 L 698.20 735.10 L 687.20 734.00 L 687.40 714.60 L 688.10 705.00 L 693.50 665.00 L 695.00 649.60 L 696.00 626.60 L 695.50 603.60 L 694.60 592.10 L 693.20 580.70 L 691.20 569.40 L 688.50 557.10 Z" fill="#da8554" fill-rule="nonzero" node-id="141" stroke="none" target-height="193.59998" target-width="32.899963" target-x="687.2" target-y="544.9"></path><path d="M 487.60 579.60 L 487.30 573.60 L 487.50 566.60 L 488.10 563.20 L 489.10 560.40 L 490.10 558.70 L 491.30 557.60 L 492.70 556.90 L 494.30 556.60 L 496.40 556.90 L 499.10 558.00 L 500.50 560.00 L 501.30 561.80 L 501.60 565.10 L 500.40 568.20 L 498.90 570.40 L 494.50 574.50 L 487.60 579.60 Z" fill="#de8883" fill-rule="nonzero" node-id="143" stroke="none" target-height="23" target-width="14.300018" target-x="487.3" target-y="556.6"></path><path d="M 626.90 593.20 L 635.30 590.10 L 643.60 586.60 L 651.60 582.80 L 659.40 578.50 L 674.50 569.00 L 688.70 558.10 L 691.20 569.40 L 693.20 580.70 L 694.60 592.10 L 695.50 603.60 L 696.00 626.60 L 695.00 649.60 L 693.50 665.00 L 688.10 705.00 L 687.40 714.60 L 687.20 734.00 L 668.80 735.60 L 659.70 737.00 L 650.70 739.00 L 644.90 740.80 L 633.40 745.40 L 633.40 717.90 L 633.70 708.80 L 635.10 696.70 L 637.90 682.50 L 639.10 674.30 L 640.50 657.60 L 640.50 649.30 L 640.20 641.00 L 639.30 632.70 L 638.00 624.50 L 636.10 616.50 L 633.60 608.50 L 630.60 600.80 L 626.90 593.20 Z" fill="#f19c5a" fill-rule="nonzero" node-id="145" stroke="none" target-height="187.30005" target-width="69.099976" target-x="626.9" target-y="558.1"></path><path d="M 356.30 656.30 L 356.20 648.30 L 357.00 634.90 L 358.90 624.30 L 362.10 614.10 L 364.20 609.20 L 366.80 604.60 L 369.80 600.20 L 373.30 596.00 L 381.20 599.40 L 375.70 609.10 L 373.10 614.50 L 371.10 620.10 L 369.60 625.80 L 368.50 631.70 L 367.90 637.70 L 367.60 649.70 L 368.90 664.80 L 370.30 673.60 L 371.80 679.90 L 373.70 686.00 L 376.10 692.10 L 380.20 700.90 L 384.70 709.50 L 376.50 719.60 L 369.90 704.90 L 365.90 695.50 L 362.40 686.00 L 359.50 676.30 L 358.00 669.70 L 356.90 663.10 L 356.30 656.30 Z" fill="#1b193a" fill-rule="nonzero" node-id="147" stroke="none" target-height="123.599976" target-width="28.5" target-x="356.2" target-y="596"></path><path d="M 381.20 599.40 L 392.10 601.70 L 402.80 604.40 L 413.30 607.50 L 423.70 611.10 L 437.40 616.30 L 451.00 622.00 L 464.30 628.30 L 459.10 654.80 L 438.10 655.10 L 426.50 656.40 L 417.60 659.00 L 414.00 664.30 L 425.00 663.90 L 442.00 662.30 L 451.20 662.40 L 458.30 663.60 L 461.70 664.80 L 465.00 666.40 L 468.20 668.50 L 461.20 674.60 L 431.70 697.50 L 410.90 714.50 L 401.50 721.30 L 396.30 724.10 L 392.90 720.90 L 389.80 717.40 L 387.10 713.50 L 384.70 709.50 L 380.20 700.90 L 376.10 692.10 L 373.70 686.00 L 371.80 679.90 L 370.30 673.60 L 370.80 661.80 L 371.80 650.20 L 373.20 638.50 L 378.80 603.80 L 381.20 599.40 Z" fill="#4da4c6" fill-rule="nonzero" node-id="149" stroke="none" target-height="124.69995" target-width="97.900024" target-x="370.3" target-y="599.4"></path><path d="M 527.70 628.90 L 555.90 615.50 L 575.10 607.50 L 592.30 601.80 L 607.50 598.30 L 615.20 597.00 L 619.00 603.30 L 622.20 609.60 L 624.70 616.00 L 626.70 622.50 L 628.20 629.20 L 629.20 636.00 L 629.80 642.80 L 629.80 649.70 L 629.30 658.90 L 628.20 668.20 L 626.40 677.50 L 624.10 686.60 L 621.30 695.70 L 618.20 704.60 L 614.60 713.30 L 606.90 729.80 L 596.60 724.10 L 586.60 717.90 L 576.80 711.40 L 562.50 701.00 L 548.50 690.10 L 521.40 667.50 L 532.00 653.80 L 543.40 653.20 L 554.80 653.10 L 577.60 654.30 L 577.00 652.40 L 575.40 649.70 L 573.50 648.20 L 571.40 647.30 L 569.00 646.70 L 561.70 645.80 L 553.60 645.50 L 529.60 646.10 L 527.70 628.90 Z" fill="#4aa2c5" fill-rule="nonzero" node-id="151" stroke="none" target-height="132.79999" target-width="108.39996" target-x="521.4" target-y="597"></path><path d="M 468.70 629.30 L 481.90 627.90 L 495.00 627.10 L 503.80 627.00 L 512.60 627.30 L 521.30 628.20 L 521.50 646.80 L 520.60 665.40 L 502.40 668.30 L 496.30 668.80 L 490.10 668.90 L 484.10 668.30 L 480.10 667.50 L 476.30 666.30 L 472.40 664.80 L 470.20 662.30 L 468.60 659.70 L 467.50 657.00 L 466.90 654.10 L 466.60 647.90 L 468.70 629.30 Z" fill="#459bb8" fill-rule="nonzero" node-id="153" stroke="none" target-height="41.900024" target-width="54.899994" target-x="466.6" target-y="627"></path><path d="M 807.00 709.20 L 813.80 705.90 L 820.20 702.20 L 826.20 698.00 L 831.90 693.40 L 837.40 688.50 L 842.60 683.30 L 850.10 675.00 L 870.90 649.00 L 865.90 667.90 L 860.20 670.30 L 858.00 671.90 L 855.00 674.80 L 842.20 691.60 L 836.70 697.80 L 830.80 703.60 L 824.50 708.90 L 808.60 716.70 L 800.50 720.20 L 792.20 723.20 L 786.60 724.90 L 775.00 727.30 L 760.40 728.30 L 728.70 727.70 L 731.60 720.50 L 750.90 720.80 L 760.50 720.50 L 776.50 718.80 L 789.00 716.10 L 795.10 714.30 L 801.10 711.90 L 807.00 709.20 Z" fill="#f5c58d" fill-rule="nonzero" node-id="155" stroke="none" target-height="79.29999" target-width="142.20001" target-x="728.7" target-y="649"></path><path d="M 847.20 685.10 L 855.00 674.80 L 858.00 671.90 L 860.20 670.30 L 862.70 669.00 L 865.60 668.10 L 863.80 674.70 L 861.50 681.10 L 858.80 687.20 L 855.70 693.20 L 848.90 704.90 L 836.20 707.30 L 824.50 708.90 L 830.80 703.60 L 836.70 697.80 L 842.20 691.60 L 847.20 685.10 Z" fill="#d48047" fill-rule="nonzero" node-id="157" stroke="none" target-height="40.80005" target-width="41.099976" target-x="824.5" target-y="668.1"></path><path d="M 473.50 679.90 L 503.20 680.60 L 518.10 680.30 L 551.40 706.70 L 562.60 715.30 L 574.10 723.50 L 586.00 731.20 L 592.80 734.90 L 600.00 737.60 L 605.10 738.40 L 607.70 738.40 L 611.90 736.60 L 616.20 733.30 L 618.40 730.80 L 626.60 720.00 L 626.70 724.20 L 628.20 737.20 L 628.20 741.50 L 627.70 745.60 L 626.90 748.20 L 625.60 750.80 L 620.40 758.60 L 617.50 764.10 L 615.00 769.90 L 611.40 781.80 L 610.10 788.00 L 608.70 797.40 L 607.90 806.80 L 607.40 825.60 L 589.50 830.20 L 571.40 834.10 L 553.20 837.40 L 539.50 839.50 L 525.70 841.00 L 511.90 842.10 L 498.00 842.80 L 484.20 842.90 L 470.30 842.40 L 456.50 841.40 L 442.70 839.80 L 432.50 838.10 L 422.40 835.90 L 392.40 828.30 L 382.30 826.10 L 381.00 815.10 L 379.20 804.10 L 376.70 793.30 L 371.90 777.40 L 365.50 762.00 L 370.60 746.40 L 372.50 738.50 L 373.90 730.40 L 374.30 725.00 L 374.40 719.60 L 374.00 714.10 L 377.80 722.40 L 381.40 727.40 L 384.70 730.70 L 388.30 733.60 L 396.10 738.60 L 405.20 732.70 L 422.80 720.20 L 435.70 710.40 L 473.50 679.90 Z M 481.50 695.30 L 473.70 701.80 L 445.30 727.60 L 434.30 736.00 L 428.60 739.60 L 422.60 742.80 L 416.40 745.50 L 411.60 747.10 L 406.60 748.30 L 401.40 749.20 L 395.90 749.60 L 395.50 754.00 L 395.80 762.70 L 396.50 767.10 L 398.00 772.70 L 399.90 778.30 L 402.30 783.70 L 405.10 788.90 L 411.40 798.70 L 414.90 802.20 L 422.20 808.20 L 426.10 810.70 L 431.60 813.60 L 437.30 816.00 L 443.30 818.00 L 455.50 820.80 L 461.90 821.60 L 471.50 822.40 L 481.10 822.60 L 499.80 822.00 L 518.00 820.40 L 527.30 819.00 L 536.50 817.20 L 548.30 813.60 L 554.00 811.40 L 559.40 808.70 L 564.60 805.60 L 569.40 802.00 L 575.90 795.60 L 581.60 787.90 L 587.90 777.10 L 589.80 773.10 L 591.40 769.00 L 592.20 765.00 L 592.40 762.40 L 592.10 759.90 L 591.40 757.50 L 590.20 755.40 L 588.30 753.30 L 543.10 719.70 L 532.80 711.40 L 520.00 700.20 L 513.70 695.70 L 510.20 693.80 L 503.00 691.10 L 499.20 690.40 L 495.50 690.20 L 491.80 690.50 L 489.20 691.10 L 484.00 693.50 L 481.50 695.30 Z" fill="#c9c5d3" fill-rule="nonzero" node-id="159" stroke="none" target-height="163" target-width="262.7" target-x="365.5" target-y="679.9"></path><path d="M 824.50 708.90 L 836.20 707.30 L 847.90 705.10 L 842.10 712.20 L 835.80 718.90 L 829.20 725.20 L 822.10 731.10 L 814.60 736.50 L 806.90 741.40 L 798.90 745.80 L 790.50 749.70 L 782.00 753.00 L 773.20 755.70 L 764.30 757.90 L 755.30 759.40 L 752.10 755.60 L 741.30 744.80 L 737.90 741.00 L 735.00 737.10 L 733.40 734.20 L 732.20 731.10 L 731.20 727.70 L 760.50 728.30 L 775.00 727.30 L 780.90 726.30 L 792.20 723.20 L 800.50 720.20 L 808.60 716.70 L 824.50 708.90 Z" fill="#ec8f50" fill-rule="nonzero" node-id="161" stroke="none" target-height="54.30005" target-width="116.70001" target-x="731.2" target-y="705.1"></path><path d="M 196.30 767.00 L 219.30 758.20 L 227.10 755.70 L 237.80 753.20 L 243.20 752.30 L 237.90 757.80 L 233.10 763.60 L 224.10 775.90 L 197.80 778.60 L 189.10 779.90 L 177.70 782.60 L 172.10 784.50 L 169.30 785.80 L 167.00 787.40 L 165.20 789.30 L 163.80 791.60 L 162.80 794.10 L 162.20 796.80 L 162.00 799.60 L 162.80 805.20 L 164.90 810.60 L 166.50 813.00 L 168.30 815.10 L 170.50 816.80 L 172.90 818.20 L 176.90 819.80 L 181.00 821.00 L 185.10 821.70 L 191.50 822.20 L 210.80 822.10 L 213.00 836.00 L 214.10 839.30 L 215.60 842.30 L 216.90 844.10 L 220.50 847.20 L 224.80 850.00 L 229.20 852.20 L 233.70 853.90 L 243.20 856.20 L 255.40 857.20 L 285.40 856.90 L 300.00 857.40 L 331.10 859.30 L 343.90 858.90 L 353.70 857.30 L 358.40 855.90 L 362.90 854.00 L 367.30 851.70 L 370.30 849.60 L 376.10 844.40 L 378.80 841.10 L 413.70 849.30 L 425.40 851.70 L 449.00 855.60 L 460.80 857.10 L 472.70 858.00 L 484.70 858.50 L 498.80 858.50 L 512.90 857.90 L 526.90 856.70 L 540.90 855.00 L 554.80 852.90 L 568.70 850.40 L 589.50 846.10 L 610.00 841.30 L 620.30 850.50 L 624.00 853.20 L 629.40 855.80 L 632.40 856.70 L 638.90 857.70 L 651.90 858.90 L 661.70 859.10 L 711.00 857.30 L 723.60 858.10 L 736.20 858.10 L 742.50 857.60 L 748.70 856.50 L 752.70 855.40 L 760.50 852.10 L 764.40 849.50 L 765.80 847.80 L 767.60 845.10 L 768.90 841.90 L 772.70 828.80 L 797.50 829.80 L 809.90 829.70 L 822.20 829.10 L 806.80 818.40 L 819.60 819.60 L 832.50 819.50 L 845.30 818.00 L 862.30 815.00 L 867.90 813.70 L 878.80 810.20 L 884.00 807.80 L 888.90 805.00 L 893.60 801.50 L 895.90 808.60 L 896.70 815.80 L 896.40 819.40 L 895.80 822.90 L 894.80 826.30 L 893.40 829.60 L 891.60 832.60 L 889.40 835.50 L 886.80 838.00 L 883.80 840.30 L 874.60 846.50 L 865.20 852.10 L 855.50 857.20 L 845.50 861.80 L 835.40 865.90 L 825.10 869.70 L 809.40 874.90 L 793.50 879.50 L 761.60 887.80 L 740.60 891.90 L 719.50 895.70 L 698.40 899.00 L 677.20 901.90 L 656.00 904.40 L 629.30 906.90 L 602.70 909.00 L 576.00 910.40 L 549.20 911.40 L 522.40 911.90 L 495.70 912.00 L 468.90 911.60 L 442.20 910.90 L 408.60 908.80 L 374.80 906.10 L 352.40 903.90 L 330.00 901.20 L 307.70 898.00 L 274.40 892.00 L 241.50 884.60 L 225.20 880.20 L 209.10 875.30 L 193.00 870.00 L 177.10 864.10 L 156.90 855.10 L 146.30 848.90 L 138.60 842.90 L 135.20 839.50 L 132.10 835.70 L 129.30 831.60 L 127.70 828.30 L 126.60 825.10 L 126.10 821.70 L 126.00 818.30 L 126.40 814.90 L 127.20 811.60 L 129.90 805.20 L 134.00 799.60 L 139.20 795.10 L 148.20 789.30 L 157.40 784.10 L 166.90 779.30 L 176.50 774.80 L 196.30 767.00 Z" fill="#afc391" fill-rule="nonzero" node-id="163" stroke="none" target-height="159.70001" target-width="770.7" target-x="126" target-y="752.3"></path><path d="M 260.20 765.70 L 265.50 762.20 L 271.00 759.20 L 276.70 756.80 L 282.60 754.80 L 288.60 753.30 L 294.70 752.30 L 307.20 751.30 L 313.50 751.30 L 322.90 751.80 L 334.90 753.10 L 339.50 758.90 L 342.90 763.80 L 345.80 768.80 L 348.20 774.10 L 350.90 781.30 L 353.10 788.80 L 354.60 796.50 L 356.60 812.20 L 357.10 820.10 L 357.50 843.90 L 351.30 844.70 L 338.90 845.20 L 329.70 845.00 L 301.90 842.90 L 300.90 835.30 L 300.20 831.50 L 299.00 827.90 L 293.10 842.50 L 261.00 843.70 L 263.40 826.30 L 264.10 817.60 L 264.50 808.80 L 261.80 812.80 L 259.60 817.00 L 257.80 821.40 L 252.20 839.70 L 250.50 844.20 L 245.50 844.00 L 240.70 843.20 L 236.00 842.00 L 226.90 838.30 L 222.50 835.80 L 229.00 814.90 L 232.50 805.60 L 236.50 796.60 L 239.60 790.80 L 242.90 785.20 L 246.60 779.80 L 250.70 774.80 L 255.20 770.10 L 260.20 765.70 Z" fill="#f19e51" fill-rule="nonzero" node-id="165" stroke="none" target-height="93.900024" target-width="135" target-x="222.5" target-y="751.3"></path><path d="M 636.50 770.10 L 639.00 766.50 L 641.70 763.50 L 644.80 760.90 L 648.20 758.80 L 651.80 757.10 L 655.70 755.70 L 661.80 754.20 L 668.00 753.20 L 674.20 752.80 L 685.30 752.60 L 695.40 753.40 L 705.30 755.50 L 710.10 757.10 L 714.80 759.10 L 719.20 761.40 L 723.40 764.20 L 727.30 767.30 L 730.90 770.90 L 734.20 774.90 L 738.00 781.50 L 741.20 788.30 L 744.10 795.30 L 754.40 823.80 L 759.00 834.00 L 757.10 836.40 L 755.00 838.40 L 752.70 839.90 L 747.40 841.90 L 740.20 843.00 L 727.00 843.10 L 724.70 839.10 L 722.80 834.80 L 716.30 817.20 L 714.40 812.90 L 712.00 808.90 L 711.80 817.40 L 712.10 825.80 L 713.80 842.80 L 676.30 843.40 L 670.70 837.20 L 667.80 839.40 L 664.80 841.20 L 661.70 842.50 L 655.00 844.30 L 646.30 844.90 L 641.00 844.70 L 630.60 843.60 L 628.20 842.70 L 626.20 841.50 L 624.60 840.10 L 622.20 836.50 L 620.40 831.20 L 619.20 820.90 L 622.50 830.20 L 626.30 839.40 L 627.20 830.70 L 628.40 804.10 L 629.70 792.40 L 630.70 786.60 L 632.10 781.00 L 634.10 775.50 L 636.50 770.10 Z" fill="#f39c51" fill-rule="nonzero" node-id="167" stroke="none" target-height="92.30005" target-width="139.79999" target-x="619.2" target-y="752.6"></path><path d="M 335.70 754.10 L 339.50 756.50 L 346.20 761.90 L 349.10 764.90 L 352.60 769.30 L 355.70 774.00 L 358.30 779.00 L 362.50 789.60 L 364.00 795.20 L 365.90 803.80 L 367.10 812.40 L 367.90 821.00 L 368.40 831.10 L 367.70 834.00 L 366.60 836.00 L 363.20 839.30 L 357.50 843.60 L 357.10 820.10 L 356.60 812.20 L 354.60 796.50 L 353.10 788.80 L 350.90 781.30 L 348.20 774.10 L 345.80 768.80 L 342.90 763.80 L 339.50 758.90 L 335.70 754.10 Z" fill="#efb798" fill-rule="nonzero" node-id="169" stroke="none" target-height="89.5" target-width="32.69998" target-x="335.7" target-y="754.1"></path><path d="M 761.40 772.40 L 777.10 767.40 L 807.80 756.00 L 828.10 760.00 L 838.10 762.50 L 848.10 765.30 L 857.90 768.60 L 867.60 772.30 L 874.20 775.50 L 880.60 779.30 L 883.50 781.60 L 885.80 784.30 L 887.00 786.30 L 887.90 788.60 L 888.50 791.20 L 877.20 785.20 L 871.40 782.50 L 865.50 780.20 L 861.50 779.00 L 857.30 778.30 L 853.00 777.90 L 838.20 777.60 L 823.50 778.00 L 779.30 780.20 L 764.60 780.50 L 761.40 772.40 Z" fill="#bac8a4" fill-rule="nonzero" node-id="171" stroke="none" target-height="35.200012" target-width="127.099976" target-x="761.4" target-y="756"></path><path d="M 734.20 774.90 L 742.70 768.50 L 745.80 773.10 L 748.40 777.80 L 752.80 787.80 L 754.90 794.70 L 756.50 801.70 L 757.60 808.90 L 758.10 816.20 L 758.10 823.40 L 757.50 830.70 L 751.60 816.80 L 744.10 795.30 L 741.20 788.30 L 738.00 781.50 L 734.20 774.90 Z" fill="#e2ba88" fill-rule="nonzero" node-id="173" stroke="none" target-height="62.200012" target-width="23.899963" target-x="734.2" target-y="768.5"></path><path d="M 767.00 788.50 L 793.20 788.70 L 845.50 788.20 L 859.10 788.70 L 866.70 789.70 L 872.30 791.70 L 874.90 793.10 L 877.20 794.90 L 879.40 797.20 L 870.60 799.80 L 861.70 801.80 L 852.80 803.30 L 834.80 804.80 L 812.00 804.80 L 771.20 802.80 L 767.00 788.50 Z" fill="#a9b88c" fill-rule="nonzero" node-id="175" stroke="none" target-height="16.599976" target-width="112.400024" target-x="767" target-y="788.2"></path><path d="M 173.60 798.40 L 180.70 794.70 L 184.40 793.40 L 190.20 792.00 L 196.20 791.10 L 220.20 789.10 L 214.50 805.50 L 194.40 808.30 L 189.30 808.70 L 184.40 808.40 L 181.20 807.80 L 178.10 806.80 L 175.10 805.30 L 173.60 798.40 Z" fill="#9b9e7b" fill-rule="nonzero" node-id="177" stroke="none" target-height="19.600037" target-width="46.59999" target-x="173.6" target-y="789.1"></path></svg>