<?xml version="1.0" standalone="no"?><!DOCTYPE svg PUBLIC "-//W3C//DTD SVG 1.1//EN" "http://www.w3.org/Graphics/SVG/1.1/DTD/svg11.dtd"><svg t="1745330421038" class="icon" viewBox="0 0 1024 1024" version="1.1" xmlns="http://www.w3.org/2000/svg" p-id="13224" xmlns:xlink="http://www.w3.org/1999/xlink" width="256" height="256"><path d="M0 0h1024v1024H0z" fill="#202425" opacity=".01" p-id="13225"></path><path d="M34.032941 102.4a34.032941 34.032941 0 0 1 34.334118-34.032941h409.6A34.032941 34.032941 0 0 1 512 102.4a34.032941 34.032941 0 0 0 34.032941 34.032941h409.6a34.334118 34.334118 0 0 1 34.334118 34.334118V921.6a34.032941 34.032941 0 0 1-34.334118 34.032941H68.367059a34.032941 34.032941 0 0 1-34.334118-34.032941z" fill="#FFAA44" p-id="13226"></path><path d="M102.4 238.832941A34.334118 34.334118 0 0 1 136.432941 204.8h751.134118a34.334118 34.334118 0 0 1 34.032941 34.032941v614.4a34.334118 34.334118 0 0 1-34.032941 34.334118H136.432941a34.334118 34.334118 0 0 1-34.032941-34.334118z" fill="#FFFFFF" p-id="13227"></path><path d="M34.032941 312.018824a34.032941 34.032941 0 0 1 34.334118-34.032942h887.265882a34.032941 34.032941 0 0 1 34.334118 34.032942v614.4a34.334118 34.334118 0 0 1-34.032941 34.032941H68.367059a34.334118 34.334118 0 0 1-34.334118-34.032941z" fill="#0AB27D" p-id="13228"></path><path d="M445.44 401.468235h110.230588a164.743529 164.743529 0 0 1 21.082353 4.818824A78.305882 78.305882 0 0 1 630.362353 481.882353v72.884706h3.614118a51.2 51.2 0 0 1 43.670588 49.995294v156.009412A50.597647 50.597647 0 0 1 625.543529 813.176471h-257.204705a50.898824 50.898824 0 0 1-50.597648-50.898824v-155.708235a51.501176 51.501176 0 0 1 36.74353-49.091765c4.216471 0 8.734118-1.505882 13.854118-2.710588v-3.011765-71.077647a76.8 76.8 0 0 1 56.621176-74.992941 164.743529 164.743529 0 0 1 20.48-4.216471z m131.312941 153.901177v-2.108236-48.188235a110.832941 110.832941 0 0 0-4.21647-28.310588 33.430588 33.430588 0 0 0-26.804706-25.298824 103.303529 103.303529 0 0 0-21.38353-2.409411h-53.007059a87.943529 87.943529 0 0 0-15.36 0A37.044706 37.044706 0 0 0 421.647059 481.882353a107.52 107.52 0 0 0-3.011765 21.684706v52.103529z m-53.910588 144.865882V662.588235a24.395294 24.395294 0 0 0-6.324706-16.564706 24.696471 24.696471 0 0 0-34.635294-3.312941 24.094118 24.094118 0 0 0-8.432941 18.371765v78.607059a12.348235 12.348235 0 0 0 0 3.312941 24.997647 24.997647 0 0 0 49.392941-4.216471v-38.550588z" fill="#FFFFFF" p-id="13229"></path></svg>