<?xml version="1.0" standalone="no"?><!DOCTYPE svg PUBLIC "-//W3C//DTD SVG 1.1//EN" "http://www.w3.org/Graphics/SVG/1.1/DTD/svg11.dtd"><svg t="1744680108544" class="icon" viewBox="0 0 1024 1024" version="1.1" xmlns="http://www.w3.org/2000/svg" p-id="55035" xmlns:xlink="http://www.w3.org/1999/xlink" width="256" height="256"><path d="M512 512m-512 0a512 512 0 1 0 1024 0 512 512 0 1 0-1024 0Z" fill="#1990FF" opacity=".2" p-id="55036"></path><path d="M512 511.522133m-409.6 0a409.6 409.6 0 1 0 819.2 0 409.6 409.6 0 1 0-819.2 0Z" fill="#1990FF" p-id="55037"></path><path d="M47.786667 74.615467m-47.786667 0a47.786667 47.786667 0 1 0 95.573333 0 47.786667 47.786667 0 1 0-95.573333 0Z" fill="#1990FF" p-id="55038"></path><path d="M1003.52 921.122133m-20.48 0a20.48 20.48 0 1 0 40.96 0 20.48 20.48 0 1 0-40.96 0Z" fill="#1990FF" p-id="55039"></path><path d="M199.8848 228.352H675.84a62.532267 62.532267 0 0 1 62.532267 62.532267v592.827733h-600.746667V290.884267a62.532267 62.532267 0 0 1 62.2592-62.532267z" fill="#FFFFFF" p-id="55040"></path><path d="M198.792533 323.925333m19.182934 0l439.5008 0q19.182933 0 19.182933 19.182934l0 2.594133q0 19.182933-19.182933 19.182933l-439.5008 0q-19.182933 0-19.182934-19.182933l0-2.594133q0-19.182933 19.182934-19.182934Z" fill="#70CAFF" opacity=".2" p-id="55041"></path><path d="M202.205867 414.378667m19.182933 0l439.5008 0q19.182933 0 19.182933 19.182933l0 2.594133q0 19.182933-19.182933 19.182934l-439.5008 0q-19.182933 0-19.182933-19.182934l0-2.594133q0-19.182933 19.182933-19.182933Z" fill="#70CAFF" opacity=".2" p-id="55042"></path><path d="M202.205867 504.832m19.182933 0l439.5008 0q19.182933 0 19.182933 19.182933l0 2.594134q0 19.182933-19.182933 19.182933l-439.5008 0q-19.182933 0-19.182933-19.182933l0-2.594134q0-19.182933 19.182933-19.182933Z" fill="#70CAFF" opacity=".2" p-id="55043"></path><path d="M202.205867 595.285333m19.182933 0l439.5008 0q19.182933 0 19.182933 19.182934l0 2.594133q0 19.182933-19.182933 19.182933l-439.5008 0q-19.182933 0-19.182933-19.182933l0-2.594133q0-19.182933 19.182933-19.182934Z" fill="#70CAFF" opacity=".2" p-id="55044"></path><path d="M202.205867 685.738667m15.018666 0l263.509334 0q15.018667 0 15.018666 15.018666l0 10.922667q0 15.018667-15.018666 15.018667l-263.509334 0q-15.018667 0-15.018666-15.018667l0-10.922667q0-15.018667 15.018666-15.018666Z" fill="#70CAFF" opacity=".2" p-id="55045"></path><path d="M705.809067 613.9904H318.190933V486.058667c0-84.3776 62.805333-153.053867 140.014934-153.053867h107.588266c77.141333 0 140.014933 68.676267 140.014934 153.053867z m-333.0048-54.613333h278.391466V486.058667c0-54.613333-38.365867-98.440533-85.4016-98.440534H458.205867c-47.035733 0-85.4016 44.168533-85.4016 98.440534z" fill="#5BC1F4" p-id="55046"></path><path d="M253.201067 557.806933m44.8512 0l427.895466 0q44.8512 0 44.8512 44.8512l0 236.202667q0 44.8512-44.8512 44.8512l-427.895466 0q-44.8512 0-44.8512-44.8512l0-236.202667q0-44.8512 44.8512-44.8512Z" fill="#70CAFF" p-id="55047"></path><path d="M562.653867 699.665067a50.653867 50.653867 0 0 0-52.087467-50.653867 50.653867 50.653867 0 0 0-23.9616 94.4128 21.777067 21.777067 0 0 1 11.332267 18.705067v17.066666c0 8.3968 4.9152 13.243733 10.922666 13.243734h6.280534a10.922667 10.922667 0 0 0 10.922666-10.922667v-19.456a21.7088 21.7088 0 0 1 11.195734-18.568533 50.5856 50.5856 0 0 0 25.3952-43.8272z" fill="#FFFFFF" p-id="55048"></path><path d="M731.477333 842.3424a69.4272 69.4272 0 0 1-35.089066-11.810133 159.9488 159.9488 0 0 1-29.764267-23.825067 154.8288 154.8288 0 0 1-34.542933-56.183467l-0.546134-1.570133V640.6144a8.055467 8.055467 0 0 1 8.123734-8.055467 109.636267 109.636267 0 0 0 36.932266-6.007466 183.842133 183.842133 0 0 0 49.220267-24.9856l5.256533-3.754667 5.3248 3.549867a242.688 242.688 0 0 0 49.629867 25.258666 132.642133 132.642133 0 0 0 23.893333 5.666134 72.430933 72.430933 0 0 0 7.9872 0.546133h2.525867a9.4208 9.4208 0 0 1 10.990933 8.874667v106.973866l-0.546133 1.570134a155.716267 155.716267 0 0 1-34.133333 56.1152 162.4064 162.4064 0 0 1-29.9008 23.825066 69.632 69.632 0 0 1-35.0208 11.8784z" fill="#FF9600" p-id="55049"></path><path d="M716.8 761.2416a11.332267 11.332267 0 0 1-7.7824-3.072l-35.771733-32.904533a11.4688 11.4688 0 0 1 15.5648-16.930134l35.771733 32.904534a11.537067 11.537067 0 0 1 0.682667 16.315733 11.400533 11.400533 0 0 1-8.465067 3.6864z" fill="#FFFFFF" p-id="55050"></path><path d="M717.277867 761.2416a11.400533 11.400533 0 0 1-8.465067-3.6864 11.537067 11.537067 0 0 1 0.682667-16.315733l64.512-59.392a11.537067 11.537067 0 0 1 15.5648 16.9984l-64.512 59.323733a11.332267 11.332267 0 0 1-7.7824 3.072z" fill="#FFFFFF" p-id="55051"></path></svg>