<?xml version="1.0" standalone="no"?><!DOCTYPE svg PUBLIC "-//W3C//DTD SVG 1.1//EN" "http://www.w3.org/Graphics/SVG/1.1/DTD/svg11.dtd"><svg t="1745330386262" class="icon" viewBox="0 0 1026 1024" version="1.1" xmlns="http://www.w3.org/2000/svg" p-id="11348" xmlns:xlink="http://www.w3.org/1999/xlink" width="256.5" height="256"><path d="M901.697686 350.710092V96.377608a12.808458 12.808458 0 0 0-12.832626-12.832625H374.641705a12.760125 12.760125 0 0 1-10.971774-6.210894L321.039515 6.283395a12.856792 12.856792 0 0 0-10.971774-6.283395H79.660491a12.856792 12.856792 0 0 0-12.832625 12.832625v337.877467z m0 0" fill="#D85959" p-id="11349"></path><path d="M116.925855 283.912773h734.673841v66.797319h-734.673841z" fill="#FFFFFF" p-id="11350"></path><path d="M133.649352 233.83895h701.275182v50.097989H133.649352z" fill="#E7ECED" p-id="11351"></path><path d="M150.324515 183.740961h667.900689v50.097989H150.324515z" fill="#C7CAC7" p-id="11352"></path><path d="M880.382477 901.715472H86.69306a4.519211 4.519211 0 0 1-4.470877-3.842537L0.054714 355.930143a4.519211 4.519211 0 0 1 4.470877-5.220051h957.976022a4.519211 4.519211 0 0 1 4.470877 5.220051l-82.167469 541.966959a4.519211 4.519211 0 0 1-4.470877 3.842537z m0 0" fill="#EC6666" p-id="11353"></path><path d="M582.69457 577.588974h-196.791088a25.375248 25.375248 0 0 0-25.302747 25.302747v157.399037a25.399415 25.399415 0 0 0 25.302747 25.302747h196.791088a25.375248 25.375248 0 0 0 25.254414-25.302747v-157.399037A25.375248 25.375248 0 0 0 582.69457 577.588974z m-82.699141 90.287548v51.064666c0 12.929293-1.353347 23.079392-15.75682 23.079392s-15.611819-10.488436-15.611819-23.393562l-0.386671-50.750496a33.833664 33.833664 0 0 1-10.101765-24.166902c0-15.225149 11.696781-23.393562 26.076088-23.393562s26.076088 8.482583 26.076088 23.393562a34.365336 34.365336 0 0 1-10.391768 24.166902z m0 0M533.780759 555.331256V525.630133a49.46965 49.46965 0 1 0-98.939299 0v29.701123h-24.746909V525.630133a74.216558 74.216558 0 1 1 148.40895 0v29.701123z m0 0" fill="#F8F8F8" p-id="11354"></path></svg>