<?xml version="1.0" standalone="no"?><!DOCTYPE svg PUBLIC "-//W3C//DTD SVG 1.1//EN" "http://www.w3.org/Graphics/SVG/1.1/DTD/svg11.dtd"><svg t="1744680072710" class="icon" viewBox="0 0 1024 1024" version="1.1" xmlns="http://www.w3.org/2000/svg" p-id="51102" xmlns:xlink="http://www.w3.org/1999/xlink" width="256" height="256"><path d="M496.493013 626.036947v31.222756c0 8.189575 6.65403 14.331757 14.331757 14.331757 8.189575 0 14.331757-6.65403 14.331757-14.331757v-31.222756c31.222757-8.189575 49.649301-39.92418 41.971575-70.635089-8.189575-31.222757-39.92418-49.649301-70.635089-41.971574-31.222757 8.189575-49.649301 39.92418-41.971574 70.635088 5.630333 20.473939 21.497636 36.85309 41.971574 41.971575z m14.843606-84.966846c15.867302 0 29.175363 12.796212 29.175362 29.175363 0 15.867302-12.796212 29.175363-29.175362 29.175362-15.867302 0-29.175363-12.796212-29.175363-29.175362s12.796212-29.175363 29.175363-29.175363z m159.696722-87.526088h-203.71569v-43.50712c0-24.056878 19.450242-43.50712 43.507119-43.507119s43.50712 19.450242 43.50712 43.507119c0 8.189575 6.65403 14.331757 14.331757 14.331757 8.189575 0 14.331757-6.65403 14.331757-14.331757 0-39.92418-32.758302-72.682482-72.682482-72.682482-39.92418 0-72.682482 32.758302-72.682482 72.682482v43.50712h-29.175363v-43.50712c0-56.303331 45.554514-101.857845 101.857845-101.857845s101.857845 45.554514 101.857845 101.857845c0 8.189575 6.65403 14.331757 14.331757 14.331757 8.189575 0 14.331757-6.65403 14.331757-14.331757 0-72.170634-58.862574-131.033208-131.033208-131.033207-72.170634 0-131.033208 58.862574-131.033207 131.033207v43.50712h-29.175363c-8.189575 0-14.331757 6.65403-14.331757 14.331757v118.236996c0 90.597179 92.132724 158.161176 174.540327 158.161176s174.540327-67.563998 174.540328-158.161176v-118.236996c1.023697-7.677727-5.118485-14.331757-13.30806-14.331757z m-14.331758 132.568753c0 73.706179-76.77727 128.985814-145.364964 128.985814-68.587695 0-145.364965-55.279634-145.364965-128.985814v-103.39339h290.729929v103.39339z" fill="#1AAA5E" p-id="51103"></path><path d="M71.658785 678.757339c5.630333 15.355454 12.284363 30.19906 19.962091 45.042665 22.521333 44.018968 51.184847 84.454997 86.502391 119.260693 65.516604 65.004755 142.293874 108.511875 232.379204 126.93842 133.59245 27.639817 256.947931 2.047394 369.554593-73.70618 22.009484-14.843606 42.483423-32.758302 61.421816-51.184846 81.895755-83.4313 128.985814-183.7536 137.687238-300.966899 1.023697-14.331757 1.023697-28.663514 0.511848-42.483423 0-13.819909 8.701424-24.056878 20.985787-24.056878 12.284363 0 20.985787 9.213272 20.985788 23.033181 1.535545 84.454997-16.890999 164.815206-54.255938 241.080628-27.639817 55.279634-64.492907 104.928936-110.559269 146.388662-90.597179 82.919452-198.085357 127.962117-320.928989 135.127995-116.189602 6.142182-222.142235-24.568726-316.834201-90.597179-94.180118-65.516604-159.696722-153.55454-195.526115-262.578263-5.630333-17.914696 4.094788-30.19906 23.033182-30.19906 51.696695 0.511848 103.39339 0 155.090085 0.511849h52.208544c12.284363 0 20.473939 8.189575 20.985787 19.450241 0 11.772515-8.701424 19.450242-20.473939 19.962091h-177.099569c-1.535545-1.535545-3.582939-1.023697-5.630334-1.023697z m842.502578-406.919532c-11.772515-20.473939-25.592423-39.92418-40.947878-58.350725-24.056878-29.175363-50.672998-54.767786-80.872058-77.289119-38.388635-29.175363-80.360209-52.208544-125.914723-67.052149-142.293874-48.113756-278.957415-34.293847-405.383986 45.042665-131.545056 82.919452-203.203842 204.739387-218.559295 359.317624-1.535545 12.284363-6.65403 20.473939-16.379151 23.033181-14.331757 3.071091-26.61612-7.677727-25.592424-22.009484 1.023697-18.938393 4.094788-38.900484 7.677727-57.327028 14.843606-78.312815 46.066362-150.483449 95.203815-213.952659 76.77727-100.3223 177.09957-164.815206 300.455051-191.431327 131.033208-27.639817 254.900537-6.65403 369.554593 61.421816 53.232241 31.222757 99.298603 71.658785 137.687238 120.28439 21.497636 27.639817 40.947877 56.81518 56.303331 88.037936 4.094788 7.677727 4.094788 15.355454-0.511848 22.521333-4.606636 6.65403-11.772515 9.725121-20.473939 9.213272-3.071091-0.511848-6.142182-0.511848-9.725121-0.511848h-197.573508c-16.890999 0-26.61612-15.867302-18.938394-29.687212 4.094788-6.65403 10.236969-9.725121 18.426545-9.72512 18.426545 0.511848 36.85309 0 54.767786 0h113.63036c2.047394 0 4.094788 0.511848 6.65403 1.535545 0.511848-1.023697 0.511848-1.535545 0.511849-3.071091z" fill="#1AAA5E" p-id="51104"></path></svg>