<?xml version="1.0" standalone="no"?><!DOCTYPE svg PUBLIC "-//W3C//DTD SVG 1.1//EN" "http://www.w3.org/Graphics/SVG/1.1/DTD/svg11.dtd"><svg t="1744679858483" class="icon" viewBox="0 0 1024 1024" version="1.1" xmlns="http://www.w3.org/2000/svg" p-id="31134" xmlns:xlink="http://www.w3.org/1999/xlink" width="256" height="256"><path d="M512 0A513.536 513.536 0 0 0 0 512a513.536 513.536 0 0 0 512 512 513.536 513.536 0 0 0 512-512A513.536 513.536 0 0 0 512 0z m55.424 612.48l-98.176 98.176a109.184 109.184 0 0 1-153.6 0l-1.92-1.792a109.312 109.312 0 0 1 0-153.6L382.08 486.4a151.168 151.168 0 0 0 11.008 59.52l-44.416 44.16a59.008 59.008 0 0 0 0 83.456l1.792 1.792a59.008 59.008 0 0 0 83.456 0l98.176-98.176a58.88 58.88 0 0 0 0-83.328l-1.792-1.92a56.192 56.192 0 0 0-11.776-8.96l35.84-35.968a100.48 100.48 0 0 1 11.264 9.728l1.792 1.792a109.44 109.44 0 0 1 0 153.984z m143.232-143.232L641.92 537.6a151.552 151.552 0 0 0-11.008-59.52l44.416-44.416a59.008 59.008 0 0 0 0-83.456l-1.792-1.792a59.264 59.264 0 0 0-83.456 0l-98.176 98.176a59.008 59.008 0 0 0 0 83.456l1.792 1.792a56.192 56.192 0 0 0 11.776 8.96l-35.968 35.968a129.92 129.92 0 0 1-11.136-9.6l-1.792-1.792a109.312 109.312 0 0 1 0-153.6l98.176-98.176a109.184 109.184 0 0 1 153.6 0l1.92 1.92a109.184 109.184 0 0 1 0.384 153.728z" fill="#FF7B3E" p-id="31135"></path></svg>