<?xml version="1.0" encoding="utf-8"?>
<!-- Uploaded to: SVG Repo, www.svgrepo.com, Generator: SVG Repo Mixer Tools -->
<svg width="800px" height="800px" viewBox="0 -5.98 72.44 72.44" xmlns="http://www.w3.org/2000/svg">
  <g id="add_folder" data-name="add folder" transform="translate(-63.211 -1770.396)">
    <g id="Group_147" data-name="Group 147">
      <path id="Path_360" data-name="Path 360" d="M100.313,1785.356c-.486,0-.88.006-.88.01s-.254-.3-.564-.664l-3.879-4.674a2.18,2.18,0,0,0-1.447-.672H65.122v-2.445a.83.83,0,0,1,.831-.832H98.605c.451,0,.828,0,.828,0s.239-.281.531-.629l3.68-4.42a2.024,2.024,0,0,1,1.365-.638h27.909a.831.831,0,0,1,.83.83v14.13Z" fill="#163844"/>
      <path id="Path_361" data-name="Path 361" d="M100.313,1785.356c-.486,0-.88.006-.88.01s-.254-.3-.564-.664l-3.879-4.674a2.18,2.18,0,0,0-1.447-.672H67.82v-1.791h63.225v7.791Z" fill="#f4f4f4"/>
      <path id="Path_362" data-name="Path 362" d="M64.087,1779.356H93.543a2.18,2.18,0,0,1,1.447.672l3.879,4.674c.31.365.564.668.564.664s.394-.01.88-.01h34.462a.879.879,0,0,1,.876.875v43.762a.875.875,0,0,1-.876.873H64.087a.874.874,0,0,1-.876-.873v-49.76A.88.88,0,0,1,64.087,1779.356Z" fill="#27b7ff"/>
    </g>
    <g id="Group_148" data-name="Group 148">
      <path id="Path_363" data-name="Path 363" d="M117.05,1808.4a17.62,17.62,0,1,1-17.62-17.625A17.619,17.619,0,0,1,117.05,1808.4Z" fill="#f4f4f4"/>
      <path id="Path_364" data-name="Path 364" d="M107.026,1806.927h-6.131V1800.8h-3.06v6.125H91.7v3.066h6.13v6.125h3.06v-6.125h6.131Z" fill="#f44b41"/>
    </g>
  </g>
</svg>