<?xml version="1.0" encoding="utf-8"?>

<!DOCTYPE svg PUBLIC "-//W3C//DTD SVG 1.1//EN" "http://www.w3.org/Graphics/SVG/1.1/DTD/svg11.dtd">
<!-- Uploaded to: SVG Repo, www.svgrepo.com, Generator: SVG Repo Mixer Tools -->
<svg version="1.1" id="Icons" xmlns="http://www.w3.org/2000/svg" xmlns:xlink="http://www.w3.org/1999/xlink" 
	 width="800px" height="800px" viewBox="0 0 512 512" enable-background="new 0 0 512 512" xml:space="preserve">
<g id="Safari">
	<g>
		<g>
			<g>
				<g>
					<g>
						<path fill="#EAEAEA" d="M398.24878,512H113.75122C51.18805,512,0,460.81195,0,398.24878V113.75122
							C0,51.18805,51.18805,0,113.75122,0h284.49756C460.81195,0,512,51.18805,512,113.75122v284.49756
							C512,460.81195,460.81195,512,398.24878,512z"/>
					</g>
				</g>
				<g>
					<g opacity="0.1">
						<g>
							<path d="M283,479.59277c-107.29883,0-194.59277-87.29395-194.59277-194.59277S175.70117,90.40723,283,90.40723
								S477.59277,177.70117,477.59277,285S390.29883,479.59277,283,479.59277z"/>
						</g>
					</g>
					<g>
						<g>
							<path fill="#4FC4E8" d="M256,452.59277c-107.29883,0-194.59277-87.29395-194.59277-194.59277
								S148.70117,63.40723,256,63.40723S450.59277,150.70117,450.59277,258S363.29883,452.59277,256,452.59277z"/>
						</g>
					</g>
					<g opacity="0.1">
						<g>
							<path d="M78.40723,275c0-107.29883,87.29395-194.59277,194.59277-194.59277c49.33301,0,94.42798,18.4632,128.76343,48.82941
								C366.08325,88.89282,313.96582,63.40723,256,63.40723C148.70117,63.40723,61.40723,150.70117,61.40723,258
								c0,57.96588,25.4856,110.08325,65.82935,145.76337C96.87036,369.42798,78.40723,324.33295,78.40723,275z"/>
						</g>
					</g>
				</g>
			</g>
			<g>
				<g>
					<path fill="#333333" d="M256,69.40692c104.1571,0,188.59302,84.43597,188.59302,188.59308S360.1571,446.59308,256,446.59308
						S67.40686,362.1571,67.40686,258S151.8429,69.40692,256,69.40692 M256,57.40692c-27.07458,0-53.3457,5.3053-78.0835,15.76855
						c-23.88794,10.1037-45.33899,24.56555-63.75732,42.98383c-18.41821,18.41821-32.88,39.86926-42.98376,63.75714
						C60.71216,204.6543,55.40686,230.92542,55.40686,258s5.3053,53.3457,15.76855,78.08356
						c10.10376,23.88788,24.56555,45.33893,42.98376,63.75714c18.41833,18.41827,39.86938,32.88013,63.75732,42.98383
						c24.73779,10.46326,51.00891,15.76855,78.0835,15.76855s53.3457-5.3053,78.0835-15.76855
						c23.88794-10.1037,45.33899-24.56555,63.7572-42.98383c18.41821-18.41821,32.88013-39.86926,42.98376-63.75714
						C451.28772,311.3457,456.59302,285.07458,456.59302,258s-5.3053-53.3457-15.76855-78.08356
						c-10.10364-23.88788-24.56555-45.33893-42.98376-63.75714c-18.41821-18.41827-39.86926-32.88013-63.7572-42.98383
						C309.3457,62.71222,283.07458,57.40692,256,57.40692L256,57.40692z"/>
				</g>
			</g>
		</g>
		<g>
			<g>
				<g>
					<path fill="#EAEAEA" d="M255,162c-3.31348,0-6-2.68652-6-6v-30c0-3.31348,2.68652-6,6-6s6,2.68652,6,6v30
						C261,159.31348,258.31348,162,255,162z"/>
				</g>
			</g>
			<g>
				<g>
					<path fill="#EAEAEA" d="M156,263h-30c-3.31348,0-6-2.68652-6-6s2.68652-6,6-6h30c3.31348,0,6,2.68652,6,6
						S159.31348,263,156,263z"/>
				</g>
			</g>
			<g>
				<g>
					<path fill="#EAEAEA" d="M257,392c-3.31348,0-6-2.68652-6-6v-30c0-3.31348,2.68652-6,6-6s6,2.68652,6,6v30
						C263,389.31348,260.31348,392,257,392z"/>
				</g>
			</g>
			<g>
				<g>
					<path fill="#EAEAEA" d="M386,261h-30c-3.31348,0-6-2.68652-6-6s2.68652-6,6-6h30c3.31348,0,6,2.68652,6,6
						S389.31348,261,386,261z"/>
				</g>
			</g>
			<g>
				<g>
					<path fill="#EAEAEA" d="M184.58203,191.99658c-1.53613,0-3.07129-0.58545-4.24316-1.75732l-21.21289-21.21338
						c-2.34277-2.34326-2.34277-6.14209,0.00098-8.48535c2.34277-2.34375,6.14258-2.34277,8.48535,0l21.21289,21.21338
						c2.34277,2.34326,2.34277,6.14209-0.00098,8.48535C187.65332,191.41064,186.11719,191.99658,184.58203,191.99658z"/>
				</g>
			</g>
			<g>
				<g>
					<path fill="#EAEAEA" d="M164.7832,354.63086c-1.53516,0-3.07129-0.58594-4.24219-1.75781
						c-2.34375-2.34277-2.34375-6.1416,0-8.48438l21.21289-21.21338c2.3418-2.34277,6.14258-2.34277,8.48438,0
						c2.34375,2.34326,2.34375,6.14209,0,8.48486l-21.21289,21.21289C167.85449,354.04492,166.31836,354.63086,164.7832,354.63086z"
						/>
				</g>
			</g>
			<g>
				<g>
					<path fill="#EAEAEA" d="M348.63086,353.2168c-1.53516,0-3.07129-0.58594-4.24219-1.75781l-21.21289-21.21289
						c-2.34375-2.34277-2.34375-6.1416,0-8.48486c2.3418-2.34277,6.14258-2.34277,8.48438,0l21.21289,21.21338
						c2.34375,2.34277,2.34375,6.1416,0,8.48438C351.70215,352.63086,350.16602,353.2168,348.63086,353.2168z"/>
				</g>
			</g>
			<g>
				<g>
					<path fill="#EAEAEA" d="M326.00391,190.58203c-1.53516,0-3.07129-0.58594-4.24219-1.75732
						c-2.34375-2.34326-2.34375-6.14209,0-8.48535l21.21289-21.21289c2.3418-2.34277,6.14258-2.34277,8.48438,0
						c2.34375,2.34326,2.34375,6.14209,0,8.48535l-21.21289,21.21289C329.0752,189.99609,327.53906,190.58203,326.00391,190.58203z"
						/>
				</g>
			</g>
		</g>
		<g opacity="0.1">
			<g>
				<path d="M346.34567,114.08478c-2.39767-1.49906-5.52002-1.11847-7.49008,0.91489l-95.56837,130.54124
					c-0.50519,0.52185-0.89935,1.12619-1.183,1.77631c-0.4597,0.53972-0.82993,1.15883-1.07771,1.84157l-75.88516,141.17307
					c-0.9644,2.66013,0.06085,5.63364,2.46161,7.133c1.38928,0.86893,3.02071,1.10666,4.53079,0.75803
					c1.09711-0.25327,2.13066-0.81662,2.9594-1.67245l134.39658-104.61108c0.50516-0.52185,0.89935-1.12619,1.18298-1.77631
					c0.45969-0.5397,0.82993-1.15881,1.0777-1.84155l37.05701-167.10324C349.7717,118.55764,348.74655,115.5846,346.34567,114.08478
					z"/>
			</g>
		</g>
		<g>
			<g>
				<g>
					<polygon fill="#FD4E4B" points="285.72101,273.53629 227.20967,236.97435 341.96729,118.42358 					"/>
				</g>
				<g>
					<path fill="#333333" d="M285.7207,279.53613c-1.11133,0-2.21484-0.30859-3.17969-0.91162l-58.51074-36.56201
						c-1.53613-0.95996-2.55664-2.5625-2.77637-4.36084c-0.21973-1.79785,0.38477-3.59912,1.64551-4.90088l114.75684-118.55029
						c1.96973-2.03418,5.0918-2.41504,7.49121-0.91504c2.40039,1.5,3.42578,4.47314,2.46094,7.13379l-56.24707,155.1123
						c-0.61719,1.70312-1.97168,3.03564-3.68359,3.62646C287.04102,279.42773,286.37891,279.53613,285.7207,279.53613z
						 M236.68066,235.81689l45.92871,28.69971l44.15137-121.75635L236.68066,235.81689z"/>
				</g>
			</g>
			<g>
				<g>
					<polygon fill="#EAEAEA" points="226.27901,238.46371 284.79034,275.02567 170.03271,393.57642 					"/>
				</g>
				<g>
					<path fill="#333333" d="M170.03027,399.57617c-1.09473,0-2.19629-0.29883-3.17773-0.91211
						c-2.40039-1.49902-3.42578-4.47266-2.46094-7.13281l56.24707-155.11279c0.61719-1.70312,1.97168-3.03564,3.68359-3.62646
						c1.71094-0.59082,3.60059-0.37695,5.13672,0.5835l58.51074,36.56201c1.53613,0.95996,2.55664,2.5625,2.77637,4.36084
						c0.21973,1.79785-0.38477,3.59912-1.64551,4.90088l-114.75684,118.5498
						C173.17969,398.95117,171.6123,399.57617,170.03027,399.57617z M229.39062,247.4834l-44.15137,121.75684l90.08008-93.05713
						L229.39062,247.4834z"/>
				</g>
			</g>
		</g>
		<g opacity="0.1">
			<g>
				<g>
					<circle cx="256" cy="255.99998" r="34.31737"/>
				</g>
			</g>
		</g>
		<g>
			<g>
				<circle fill="#EAEAEA" cx="256" cy="256" r="17.08683"/>
			</g>
			<g>
				<path fill="#333333" d="M256,279.08691c-12.73047,0-23.08691-10.35693-23.08691-23.08691S243.26953,232.91309,256,232.91309
					S279.08691,243.27002,279.08691,256S268.73047,279.08691,256,279.08691z M256,244.91309
					c-6.11328,0-11.08691,4.97363-11.08691,11.08691S249.88672,267.08691,256,267.08691S267.08691,262.11328,267.08691,256
					S262.11328,244.91309,256,244.91309z"/>
			</g>
		</g>
	</g>
	<g>
		<g>
			<path fill="#FFFFFF" d="M88.03125,266.76416c-3.23828,0-5.90625-2.57959-5.99512-5.83643
				c-0.31934-11.69873,0.55859-23.52246,2.60742-35.14307c7.21289-40.90381,28.84277-77.92383,60.90723-104.23926
				c31.7168-26.03027,71.68359-40.07666,112.46191-39.55957c3.31348,0.04199,5.96582,2.7627,5.92383,6.07617
				c-0.04199,3.28711-2.7207,5.92334-5.99805,5.92334c-0.02637,0-0.05273,0-0.07812-0.00049
				c-0.67676-0.00879-1.3584-0.01318-2.03516-0.01318c-37.27441,0-73.65527,13.04346-102.66113,36.84961
				c-29.85059,24.49854-49.9873,58.96387-56.70215,97.04785c-1.91016,10.82617-2.72754,21.83887-2.42969,32.73145
				c0.08984,3.3125-2.52148,6.0708-5.83398,6.16113C88.14258,266.76367,88.08594,266.76416,88.03125,266.76416z"/>
		</g>
	</g>
	<g>
		<g>
			<circle fill="#FFFFFF" cx="283.75516" cy="90.57389" r="6.00944"/>
		</g>
	</g>
</g>
</svg>