<?xml version="1.0" encoding="utf-8"?>

<!DOCTYPE svg PUBLIC "-//W3C//DTD SVG 1.1//EN" "http://www.w3.org/Graphics/SVG/1.1/DTD/svg11.dtd">
<!-- Uploaded to: SVG Repo, www.svgrepo.com, Generator: SVG Repo Mixer Tools -->
<svg version="1.1" id="Icons" xmlns="http://www.w3.org/2000/svg" xmlns:xlink="http://www.w3.org/1999/xlink" 
	 width="800px" height="800px" viewBox="0 0 512 512" enable-background="new 0 0 512 512" xml:space="preserve">
<g id="Video">
	<g>
		<g>
			<path fill="#FFC50D" d="M398.24878,512H113.75122C51.18805,512,0,460.81195,0,398.24878V113.75122
				C0,51.18805,51.18805,0,113.75122,0h284.49756C460.81195,0,512,51.18805,512,113.75122v284.49756
				C512,460.81195,460.81195,512,398.24878,512z"/>
		</g>
	</g>
	<g>
		<g opacity="0.1">
			<g>
				<path d="M414,192.52997c0-3.57031-0.98956-5.52997-4.55984-5.52997h-214.7538l210.89095-37.65321
					c1.68677-0.29672,3.18625-1.48595,4.168-2.88861c0.98175-1.40265,1.36688-3.25471,1.06909-4.94043l-11.41382-64.78899
					c-0.61871-3.51138-3.97015-5.89344-7.47839-5.2663l-278.31842,49.06049c-3.51243,0.61873-5.85686,3.9597-5.23708,7.47108
					l10.96833,64.7269c0.02867,0.16284-0.335,0.31834-0.335,0.47749v64.63875c0,1.05042,0,2.03928,0,2.91632v192.27499
					c0,3.39877,4.34447,6.97153,7.74326,6.97153H409.3707c3.39877,0,4.6293-3.57275,4.6293-6.97153V260.00613
					c0-0.67899,0-1.40689,0-2.16898V192.52997z"/>
			</g>
		</g>
		<g>
			<g>
				<rect x="114.89066" y="199.97714" fill="#EAEAEA" width="282.62744" height="241.19838"/>
			</g>
			<g>
				<path fill="#333333" d="M397.51855,447.17578H114.89062c-3.31348,0-6-2.68652-6-6V199.97754c0-3.31348,2.68652-6,6-6h282.62793
					c3.31348,0,6,2.68652,6,6v241.19824C403.51855,444.48926,400.83203,447.17578,397.51855,447.17578z M120.89062,435.17578
					h270.62793V205.97754H120.89062V435.17578z"/>
			</g>
		</g>
		<g>
			<g>
				<rect x="114.5013" y="180.67783" fill="#EAEAEA" width="283.08627" height="65.30679"/>
			</g>
			<g>
				<path fill="#333333" d="M397.58789,251.98438H114.50098c-3.31348,0-6-2.68652-6-6v-65.30664c0-3.31348,2.68652-6,6-6h283.08691
					c3.31348,0,6,2.68652,6,6v65.30664C403.58789,249.29785,400.90137,251.98438,397.58789,251.98438z M120.50098,239.98438
					h271.08691v-53.30664H120.50098V239.98438z"/>
			</g>
		</g>
		<g>
			<g>
				<polygon fill="#333333" points="347.16003,243 403.90054,185.96851 399.22299,181 344.87057,181 283.45251,243 				"/>
			</g>
		</g>
		<g>
			<g>
				<polygon fill="#333333" points="237.25403,243 293.99454,185.96851 289.31702,181 234.96458,181 173.54654,243 				"/>
			</g>
		</g>
		<g>
			<g>
				<polygon fill="#333333" points="127.34805,243 184.08856,185.96851 179.41103,181 115,181 115,243 				"/>
			</g>
		</g>
		<g>
			<g>
				<g>
					
						<rect x="106.43154" y="89.97714" transform="matrix(-0.98481 0.17365 -0.17365 -0.98481 513.04272 200.79695)" fill="#EAEAEA" width="282.61218" height="65.7281"/>
				</g>
				<g>
					<path fill="#333333" d="M114.27832,185.74414c-2.85742,0-5.38867-2.04785-5.90234-4.95898l-11.41406-64.72949
						c-0.27637-1.56738,0.08105-3.17969,0.99414-4.4834s2.30566-2.19141,3.87305-2.46777l278.31934-49.0752
						c1.56738-0.27344,3.17969,0.08105,4.4834,0.99414s2.19141,2.30566,2.46777,3.87305l11.41309,64.72949
						c0.5752,3.26367-1.60352,6.375-4.86719,6.95117l-278.31836,49.0752
						C114.97461,185.71387,114.62402,185.74414,114.27832,185.74414z M109.82227,119.88086l9.33008,52.91113l266.5-46.99121
						l-9.3291-52.91113L109.82227,119.88086z"/>
				</g>
			</g>
			<g>
				<g>
					<g>
						<polygon fill="#333333" points="228.32924,156.35205 162.75024,110.29956 166.53191,104.88306 219.91261,95.4706 
							290.89777,145.31952 						"/>
					</g>
				</g>
				<g>
					<g>
						<polygon fill="#333333" points="334.15384,137.69232 268.57483,91.63983 272.35651,86.22332 325.73721,76.81087 
							396.72235,126.6598 						"/>
					</g>
				</g>
				<g>
					<g>
						<polygon fill="#333333" points="114.99575,118.26453 180.57474,164.31702 176.79308,169.73352 113.65923,180.86572 
							102.99409,120.38074 						"/>
					</g>
				</g>
			</g>
		</g>
		<g>
			<g>
				<g>
					<path fill="#333333" d="M355,300H155c-5.24707,0-9.5-4.25293-9.5-9.5s4.25293-9.5,9.5-9.5h200c5.24707,0,9.5,4.25293,9.5,9.5
						S360.24707,300,355,300z"/>
				</g>
			</g>
			<g>
				<g>
					<path fill="#333333" d="M355,351H155c-5.24707,0-9.5-4.25293-9.5-9.5s4.25293-9.5,9.5-9.5h200c5.24707,0,9.5,4.25293,9.5,9.5
						S360.24707,351,355,351z"/>
				</g>
			</g>
			<g>
				<g>
					<path fill="#333333" d="M256,403H155c-5.24707,0-9.5-4.25293-9.5-9.5s4.25293-9.5,9.5-9.5h101c5.24707,0,9.5,4.25293,9.5,9.5
						S261.24707,403,256,403z"/>
				</g>
			</g>
		</g>
		<g>
			<g>
				<circle fill="#EAEAEA" cx="140.75089" cy="205.58965" r="4.60207"/>
			</g>
		</g>
	</g>
	<g>
		<g>
			<path fill="#FFFFFF" d="M130.74219,151.00098c-2.91895,0-5.47754-2.13379-5.9248-5.10742l-2.02637-13.44922
				c-0.48242-3.20801,1.67188-6.21973,4.86523-6.79785L322.68164,90.3457c3.26172-0.58789,6.38184,1.57617,6.97266,4.83594
				c0.58984,3.26074-1.5752,6.38184-4.83594,6.97266l-189.29297,34.2627l1.1582,7.68945
				c0.49316,3.27637-1.76367,6.33301-5.04004,6.82715C131.34082,150.97852,131.04004,151.00098,130.74219,151.00098z"/>
		</g>
	</g>
	<g>
		<g>
			<circle fill="#FFFFFF" cx="342.66666" cy="92.83334" r="5.80013"/>
		</g>
	</g>
</g>
</svg>