<?xml version="1.0" encoding="utf-8"?>

<!DOCTYPE svg PUBLIC "-//W3C//DTD SVG 1.1//EN" "http://www.w3.org/Graphics/SVG/1.1/DTD/svg11.dtd">
<!-- Uploaded to: SVG Repo, www.svgrepo.com, Generator: SVG Repo Mixer Tools -->
<svg version="1.1" id="Icons" xmlns="http://www.w3.org/2000/svg" xmlns:xlink="http://www.w3.org/1999/xlink" 
	 width="800px" height="800px" viewBox="0 0 512 512" enable-background="new 0 0 512 512" xml:space="preserve">
<g id="Date">
	<g>
		<g>
			<g>
				<g>
					<path fill="#EAEAEA" d="M398.24878,512H113.75122C51.18805,512,0,460.81195,0,398.24878V113.75122
						C0,51.18805,51.18805,0,113.75122,0h284.49756C460.81195,0,512,51.18805,512,113.75122v284.49756
						C512,460.81195,460.81195,512,398.24878,512z"/>
				</g>
			</g>
		</g>
	</g>
	<g>
		<g opacity="0.1">
			<g>
				<path d="M440,144.04688C440,127.47852,426.46094,114,409.81836,114H128.18164C111.53906,114,98,127.47852,98,144.04688V211
					c0,0.16882,0.01172,0.33472,0.02539,0.5C98.01172,211.66528,98,211.83118,98,212v194.36914
					C98,422.70801,111.53906,436,128.18164,436h281.63672C426.46094,436,440,422.70801,440,406.36914V212
					c0-0.16882-0.01172-0.33472-0.02539-0.5C439.98828,211.33472,440,211.16882,440,211V144.04688z"/>
			</g>
		</g>
		<g>
			<g>
				<path fill="#E54C4C" d="M420.75327,197.97258H91.24673v-66.92546c0-13.21874,10.7159-23.93465,23.93464-23.93465h281.63727
					c13.21875,0,23.93463,10.7159,23.93463,23.93465V197.97258z"/>
			</g>
			<g>
				<path fill="#333333" d="M420.75293,203.97266H91.24707c-3.31348,0-6-2.68652-6-6v-66.92578
					c0-16.50586,13.42871-29.93457,29.93457-29.93457h281.63672c16.50586,0,29.93457,13.42871,29.93457,29.93457v66.92578
					C426.75293,201.28613,424.06641,203.97266,420.75293,203.97266z M97.24707,191.97266h317.50586v-60.92578
					c0-9.88867-8.0459-17.93457-17.93457-17.93457H115.18164c-9.88867,0-17.93457,8.0459-17.93457,17.93457V191.97266z"/>
			</g>
		</g>
		<g>
			<g>
				<path fill="#EAEAEA" d="M396.81863,417.30389H115.18137c-13.21873,0-23.93464-10.71588-23.93464-23.93463V198.70265h329.50653
					v194.66661C420.75327,406.58801,410.03738,417.30389,396.81863,417.30389z"/>
			</g>
			<g>
				<path fill="#333333" d="M396.81836,423.30371H115.18164c-16.50586,0-29.93457-13.42871-29.93457-29.93457V198.70312
					c0-3.31348,2.68652-6,6-6h329.50586c3.31348,0,6,2.68652,6,6v194.66602
					C426.75293,409.875,413.32422,423.30371,396.81836,423.30371z M97.24707,204.70312v188.66602
					c0,9.88867,8.0459,17.93457,17.93457,17.93457h281.63672c9.88867,0,17.93457-8.0459,17.93457-17.93457V204.70312H97.24707z"/>
			</g>
		</g>
		<g>
			<g>
				<g>
					<path fill="#333333" d="M184.03125,295.98242c4.26172-5.07715,8.90039-8.83887,13.91602-11.2832
						c5.01367-2.44434,10.62402-3.66699,16.83008-3.66699c5.9541,0,11.4541,1.11328,16.50098,3.33789
						c5.04492,2.22559,9.46387,5.3916,13.25684,9.49609c3.79199,4.10645,6.72363,8.94922,8.79199,14.52734
						c2.06836,5.5791,3.10254,11.40918,3.10254,17.48828c0,8.83789-2.02148,16.8623-6.06445,24.07031
						c-4.04297,7.20898-9.68457,12.83398-16.9248,16.87695c-7.23926,4.04297-15.43555,6.06445-24.58691,6.06445
						c-10.53027,0-19.62012-2.56934-27.2666-7.70996c-7.64844-5.13867-13.49316-12.74023-17.53613-22.80078
						s-6.06445-22.36133-6.06445-36.9043c0-11.84668,1.22266-22.43945,3.66699-31.78027
						c2.44531-9.33887,5.95508-17.08008,10.53125-23.22363c4.57422-6.14258,10.12207-10.78027,16.6416-13.91602
						c6.51855-3.13281,13.94629-4.70117,22.28418-4.70117c8.02246,0,15.09082,1.56836,21.20215,4.70117
						c6.11133,3.13574,10.71875,7.02148,13.82129,11.65918c3.10254,4.63965,4.6543,9.08984,4.6543,13.35156
						c0,2.57129-0.97266,4.90527-2.91504,7.00488c-1.94336,2.10059-4.41895,3.14941-7.42773,3.14941
						c-2.63281,0-5.07715-0.83008-7.33398-2.49121c-2.25586-1.66016-3.91797-3.96387-4.98242-6.91113
						c-1.44336-3.76074-3.73047-6.78418-6.86426-9.07324c-3.13477-2.28711-6.76953-3.43164-10.90625-3.43164
						c-3.32324,0-6.62891,0.95605-9.91992,2.86816s-6.06445,4.49805-8.32129,7.75684
						C187.54102,267.08594,184.84473,278.93262,184.03125,295.98242z M209.41797,354.37109
						c6.33008,0,11.56445-2.58594,15.70215-7.75684c4.13672-5.17188,6.20508-11.95605,6.20508-20.35645
						c0-5.70312-0.97266-10.6084-2.91504-14.71484c-1.94336-4.10449-4.60645-7.24023-7.99121-9.40234
						c-3.38574-2.16211-7.11523-3.24414-11.18945-3.24414c-3.88672,0-7.60059,1.03418-11.1416,3.10352
						c-3.54199,2.06836-6.39355,5.0625-8.55664,8.97852c-2.16211,3.91895-3.24316,8.50977-3.24316,13.77441
						c0,8.46289,2.19336,15.51465,6.58105,21.15625C197.25586,351.5498,202.77246,354.37109,209.41797,354.37109z"/>
				</g>
			</g>
			<g>
				<g>
					<path fill="#333333" d="M284.33496,327.81055v-35.79102h12.3291c2.7832,0,4.90723,0.1709,6.37207,0.5127
						c2.05078,0.47266,3.7998,1.32715,5.24902,2.56348c1.8877,1.5957,3.2998,3.63379,4.23535,6.11523
						c0.93652,2.48242,1.4043,5.31934,1.4043,8.50879c0,2.71875-0.31738,5.12695-0.95215,7.22656s-1.44922,3.83691-2.44141,5.21191
						c-0.99316,1.37598-2.0791,2.45801-3.25879,3.24805c-1.18066,0.78906-2.60449,1.3877-4.27344,1.79395
						c-1.66797,0.40723-3.58496,0.61035-5.74902,0.61035H284.33496z M289.07129,323.58691h7.6416
						c2.35938,0,4.21191-0.21973,5.55371-0.65918c1.34375-0.43945,2.41309-1.05762,3.21094-1.85547
						c1.12305-1.12305,1.99805-2.63281,2.625-4.5293c0.62598-1.89551,0.93945-4.19434,0.93945-6.89648
						c0-3.74316-0.61426-6.62012-1.84375-8.63086c-1.22852-2.00977-2.72168-3.35645-4.47949-4.04004
						c-1.26953-0.48828-3.3125-0.73242-6.12793-0.73242h-7.51953V323.58691z"/>
					<path fill="#333333" d="M297.25,327.93555h-13.04004v-36.04102h12.4541c2.7793,0,4.93359,0.17383,6.40039,0.51562
						c2.05957,0.47461,3.84375,1.34668,5.30176,2.59082c1.89551,1.60156,3.33301,3.67676,4.27148,6.16602
						c0.93652,2.48438,1.41211,5.36133,1.41211,8.55273c0,2.71777-0.32227,5.16113-0.95703,7.2627
						c-0.63574,2.10156-1.46289,3.86719-2.45996,5.24902c-0.99707,1.38086-2.10352,2.4834-3.29102,3.27832
						c-1.18945,0.79492-2.64062,1.4043-4.31348,1.81152C301.36035,327.72852,299.41602,327.93555,297.25,327.93555z
						 M284.45996,327.68555H297.25c2.14551,0,4.07031-0.2041,5.71973-0.60645c1.64453-0.40039,3.06836-0.99805,4.2334-1.77637
						c1.16211-0.77832,2.24805-1.86133,3.22656-3.21777c0.98047-1.3584,1.7959-3.09961,2.42285-5.1748
						c0.62891-2.07812,0.94727-4.49707,0.94727-7.19043c0-3.16113-0.46973-6.00879-1.39648-8.46484
						c-0.92285-2.44824-2.33594-4.48926-4.19922-6.06348c-1.42773-1.21777-3.17578-2.07129-5.19629-2.53711
						c-1.44922-0.33789-3.58301-0.50977-6.34375-0.50977h-12.2041V327.68555z M296.71289,323.71191h-7.7666v-27.59375h7.64453
						c2.81836,0,4.89453,0.24902,6.17285,0.74121c1.77637,0.69043,3.30371,2.06641,4.54102,4.09082
						c1.23535,2.02051,1.8623,4.94629,1.8623,8.69629c0,2.70215-0.31836,5.03516-0.94531,6.93555
						c-0.63086,1.90625-1.52441,3.44727-2.65527,4.5791c-0.80859,0.80762-1.90527,1.44238-3.26074,1.88574
						C300.95703,323.48828,299.07617,323.71191,296.71289,323.71191z M289.19629,323.46191h7.5166
						c2.33594,0,4.19141-0.21973,5.51465-0.65332c1.31836-0.43066,2.38184-1.04492,3.16113-1.8252
						c1.10449-1.10352,1.97754-2.61035,2.59473-4.47949c0.62012-1.875,0.93359-4.18262,0.93359-6.85742
						c0-3.70312-0.61426-6.58496-1.8252-8.56543c-1.20801-1.97656-2.69531-3.31836-4.41797-3.98926
						c-1.24902-0.48047-3.2959-0.72363-6.08301-0.72363h-7.39453V323.46191z"/>
				</g>
				<g>
					<path fill="#333333" d="M337.63086,319.46094l4.54102,0.56152c-0.7168,2.65332-2.04297,4.71191-3.97949,6.17676
						c-1.9375,1.46484-4.41113,2.19727-7.42188,2.19727c-3.79297,0-6.7998-1.16797-9.02051-3.50391
						c-2.22266-2.33496-3.33301-5.61035-3.33301-9.82617c0-4.36133,1.12305-7.74707,3.36914-10.15625
						c2.24609-2.4082,5.15918-3.61328,8.74023-3.61328c3.4668,0,6.29883,1.18066,8.49609,3.54004
						c2.19727,2.36035,3.2959,5.68066,3.2959,9.96094c0,0.26074-0.00879,0.65137-0.02441,1.17188h-19.33594
						c0.16211,2.84863,0.96777,5.0293,2.41699,6.54297c1.44824,1.51367,3.25488,2.27051,5.41992,2.27051
						c1.61133,0,2.98633-0.42285,4.12598-1.26953C336.05957,322.66797,336.96289,321.31641,337.63086,319.46094z
						 M323.20215,312.35645h14.47754c-0.19531-2.18066-0.74902-3.81641-1.66016-4.90723
						c-1.40039-1.69238-3.21484-2.53906-5.44434-2.53906c-2.01855,0-3.71484,0.67578-5.09082,2.02637
						C324.10938,308.28809,323.34863,310.09473,323.20215,312.35645z"/>
					<path fill="#333333" d="M330.77051,328.52148c-3.81055,0-6.87598-1.19238-9.11133-3.54297
						c-2.23438-2.34668-3.36719-5.68262-3.36719-9.91211c0-4.37402,1.14453-7.81934,3.40234-10.24121
						c2.26074-2.42383,5.23242-3.65332,8.83203-3.65332c3.48633,0,6.375,1.2041,8.58789,3.58008
						c2.20898,2.37305,3.3291,5.75293,3.3291,10.0459c0,0.26172-0.00879,0.65332-0.02441,1.17578l-0.00391,0.12109h-19.32422
						c0.17676,2.74121,0.97559,4.87012,2.37402,6.33105c1.41699,1.48145,3.21094,2.23242,5.33008,2.23242
						c1.57617,0,2.93945-0.41895,4.05176-1.24512s2.00977-2.16992,2.66699-3.99414l0.0332-0.09473l0.09961,0.0127l4.68359,0.5791
						l-0.03711,0.13867c-0.72168,2.66895-2.0752,4.76953-4.02539,6.24414S333.79492,328.52148,330.77051,328.52148z
						 M330.52637,301.42188c-3.52734,0-6.4375,1.20215-8.64844,3.57324c-2.21387,2.37402-3.33594,5.7627-3.33594,10.07129
						c0,4.16406,1.10938,7.44043,3.29883,9.74023c2.18555,2.29883,5.19043,3.46484,8.92969,3.46484
						c2.96875,0,5.44043-0.73047,7.34668-2.17188c1.87012-1.41504,3.18066-3.42285,3.89551-5.9707l-4.29883-0.53125
						c-0.66992,1.82324-1.58496,3.17383-2.71875,4.0166c-1.15527,0.8584-2.56934,1.29395-4.2002,1.29395
						c-2.19043,0-4.04395-0.77734-5.50977-2.30957c-1.46387-1.52832-2.28906-3.75586-2.45215-6.62207l-0.00684-0.13184h19.34668
						c0.0127-0.45898,0.02051-0.80762,0.02051-1.04688c0-4.22754-1.09766-7.55078-3.2627-9.87598
						C336.76758,302.59961,333.94043,301.42188,330.52637,301.42188z M337.81641,312.48145h-14.74805l0.00879-0.13281
						c0.14844-2.2832,0.92871-4.13379,2.31934-5.50098c1.39453-1.36914,3.13672-2.0625,5.17871-2.0625
						c2.25781,0,4.12207,0.86914,5.54102,2.58398c0.92285,1.10645,1.49121,2.78027,1.6875,4.97656L337.81641,312.48145z
						 M323.33594,312.23145h14.20605c-0.20215-2.07715-0.74707-3.6582-1.61816-4.70215
						c-1.37012-1.65527-3.16895-2.49414-5.34863-2.49414c-1.97461,0-3.65723,0.66992-5.00293,1.99023
						C324.25293,308.32227,323.50098,310.07324,323.33594,312.23145z"/>
				</g>
				<g>
					<path fill="#333333" d="M364.6084,318.31348l4.32129,0.56152c-0.47266,2.97852-1.68066,5.31055-3.62598,6.99414
						c-1.94434,1.68555-4.33301,2.52734-7.16504,2.52734c-3.54883,0-6.40039-1.16016-8.55762-3.47852
						c-2.15625-2.32031-3.23438-5.64355-3.23438-9.97363c0-2.79883,0.46387-5.24902,1.3916-7.34863s2.33984-3.67383,4.23535-4.72461
						c1.89648-1.04883,3.95898-1.57422,6.18945-1.57422c2.81543,0,5.11816,0.71191,6.90918,2.13672
						c1.79004,1.42383,2.9375,3.44629,3.44238,6.06641l-4.27246,0.65918c-0.40723-1.74121-1.12695-3.05176-2.16113-3.93066
						c-1.0332-0.87891-2.28223-1.31836-3.74707-1.31836c-2.21387,0-4.0127,0.79297-5.39551,2.38086
						c-1.38379,1.58594-2.0752,4.09766-2.0752,7.53125c0,3.4834,0.66699,6.01465,2.00195,7.59277
						c1.33398,1.5791,3.07617,2.36816,5.22461,2.36816c1.72461,0,3.16504-0.52832,4.32129-1.58691
						C363.56641,322.13867,364.29883,320.51074,364.6084,318.31348z"/>
					<path fill="#333333" d="M358.13867,328.52148c-3.56641,0-6.47656-1.18359-8.64941-3.51855
						c-2.16797-2.33301-3.26758-5.71777-3.26758-10.05859c0-2.80371,0.47168-5.29297,1.40234-7.39941
						c0.93457-2.11426,2.37695-3.72363,4.28906-4.7832c1.90723-1.05469,4.01074-1.58984,6.25-1.58984
						c2.83105,0,5.18164,0.72852,6.9873,2.16406c1.80566,1.43652,2.97852,3.50195,3.4873,6.14062l0.02441,0.12695l-0.12793,0.02051
						l-4.3877,0.67676l-0.02637-0.11328c-0.39941-1.70703-1.1123-3.00781-2.12012-3.86328
						c-1.00488-0.85547-2.23828-1.28906-3.66602-1.28906c-2.16699,0-3.9502,0.78613-5.30078,2.33789
						c-1.35742,1.55469-2.04492,4.06152-2.04492,7.44922c0,3.4375,0.66406,5.96484,1.97266,7.51172
						c1.30273,1.54199,3.02832,2.32422,5.12891,2.32422c1.68457,0,3.11035-0.52246,4.2373-1.55371
						c1.12695-1.0332,1.85352-2.65039,2.15723-4.80859l0.01758-0.12207l4.57129,0.59375l-0.02051,0.12695
						c-0.47461,2.99609-1.70898,5.37402-3.66699,7.06934C363.42773,327.66113,360.98926,328.52148,358.13867,328.52148z
						 M358.16309,301.42188c-2.19727,0-4.25879,0.52441-6.12891,1.55859c-1.86328,1.0332-3.26953,2.60254-4.18164,4.66602
						c-0.91602,2.07324-1.38086,4.5293-1.38086,7.29785c0,4.27637,1.07715,7.60254,3.20117,9.88867
						c2.12305,2.28125,4.97168,3.43848,8.46582,3.43848c2.78906,0,5.17188-0.83984,7.08301-2.49707
						c1.88477-1.63086,3.08398-3.91602,3.56348-6.79199l-4.07031-0.5293c-0.32324,2.15625-1.06934,3.78223-2.21973,4.83496
						c-1.17383,1.0752-2.65625,1.62012-4.40527,1.62012c-2.17773,0-3.96777-0.81152-5.32031-2.41211
						c-1.34766-1.59375-2.03125-4.17578-2.03125-7.67383c0-3.4502,0.70898-6.01172,2.10645-7.61328
						c1.40039-1.6084,3.24707-2.42383,5.48926-2.42383c1.48828,0,2.77637,0.45312,3.82812,1.34766
						c1.02637,0.87305,1.75781,2.17969,2.1748,3.88574l4.03027-0.62207c-0.50977-2.51758-1.64453-4.49023-3.37305-5.86523
						C363.23535,302.13184,360.93652,301.42188,358.16309,301.42188z"/>
				</g>
			</g>
		</g>
		<g>
			<g>
				<g>
					<path fill="#FFFFFF" d="M113,184c-3.31348,0-6-2.68652-6-6v-37.94922c-0.01562-1.22266,0.14355-7.6377,4.96484-12.6123
						C114.36914,124.95801,118.82129,122,126.375,122H247c3.31348,0,6,2.68652,6,6s-2.68652,6-6,6H126.375
						c-6.08008,0-7.375,3.21289-7.375,5.9082V178C119,181.31348,116.31348,184,113,184z"/>
				</g>
			</g>
			<g>
				<g>
					<circle fill="#FFFFFF" cx="265.62488" cy="128" r="5.99756"/>
				</g>
			</g>
		</g>
		<g opacity="0.1">
			<g>
				<g>
					<g>
						<path d="M148,149c-3.31348,0-6-2.68652-6-6V84c0-3.31348,2.68652-6,6-6s6,2.68652,6,6v59C154,146.31348,151.31348,149,148,149
							z"/>
					</g>
				</g>
			</g>
			<g>
				<g>
					<g>
						<path d="M223,149c-3.31348,0-6-2.68652-6-6V84c0-3.31348,2.68652-6,6-6s6,2.68652,6,6v59C229,146.31348,226.31348,149,223,149
							z"/>
					</g>
				</g>
			</g>
			<g>
				<g>
					<g>
						<path d="M298,149c-3.31348,0-6-2.68652-6-6V84c0-3.31348,2.68652-6,6-6s6,2.68652,6,6v59C304,146.31348,301.31348,149,298,149
							z"/>
					</g>
				</g>
			</g>
			<g>
				<g>
					<g>
						<path d="M373,149c-3.31348,0-6-2.68652-6-6V84c0-3.31348,2.68652-6,6-6s6,2.68652,6,6v59C379,146.31348,376.31348,149,373,149
							z"/>
					</g>
				</g>
			</g>
		</g>
		<g>
			<g>
				<g>
					<path fill="#333333" d="M143,144c-3.31348,0-6-2.68652-6-6V79c0-3.31348,2.68652-6,6-6s6,2.68652,6,6v59
						C149,141.31348,146.31348,144,143,144z"/>
				</g>
			</g>
			<g>
				<g>
					<path fill="#333333" d="M218,144c-3.31348,0-6-2.68652-6-6V79c0-3.31348,2.68652-6,6-6s6,2.68652,6,6v59
						C224,141.31348,221.31348,144,218,144z"/>
				</g>
			</g>
			<g>
				<g>
					<path fill="#333333" d="M293,144c-3.31348,0-6-2.68652-6-6V79c0-3.31348,2.68652-6,6-6s6,2.68652,6,6v59
						C299,141.31348,296.31348,144,293,144z"/>
				</g>
			</g>
			<g>
				<g>
					<path fill="#333333" d="M368,144c-3.31348,0-6-2.68652-6-6V79c0-3.31348,2.68652-6,6-6s6,2.68652,6,6v59
						C374,141.31348,371.31348,144,368,144z"/>
				</g>
			</g>
		</g>
		<g opacity="0.1">
			<g>
				<rect x="91.24673" y="199" width="329.75327" height="21"/>
			</g>
		</g>
	</g>
</g>
</svg>