<?xml version="1.0" encoding="utf-8"?>

<!DOCTYPE svg PUBLIC "-//W3C//DTD SVG 1.1//EN" "http://www.w3.org/Graphics/SVG/1.1/DTD/svg11.dtd">
<!-- Uploaded to: SVG Repo, www.svgrepo.com, Generator: SVG Repo Mixer Tools -->
<svg version="1.1" id="Icons" xmlns="http://www.w3.org/2000/svg" xmlns:xlink="http://www.w3.org/1999/xlink" 
	 width="800px" height="800px" viewBox="0 0 512 512" enable-background="new 0 0 512 512" xml:space="preserve">
<g id="Maps">
	<g>
		<g>
			<path fill="#FFC50D" d="M398.24878,512H113.75122C51.18805,512,0,460.81195,0,398.24878V113.75122
				C0,51.18805,51.18805,0,113.75122,0h284.49756C460.81195,0,512,51.18805,512,113.75122v284.49756
				C512,460.81195,460.81195,512,398.24878,512z"/>
		</g>
	</g>
	<g opacity="0.1">
		<g>
			<path fill="#333333" d="M271,65.5C157.68652,65.5,65.5,157.68652,65.5,271S157.68652,476.5,271,476.5S476.5,384.31348,476.5,271
				S384.31348,65.5,271,65.5z"/>
		</g>
	</g>
	<g>
		<g>
			<circle fill="#4FC4E8" cx="256" cy="256" r="199.5"/>
		</g>
		<g>
			<path fill="#333333" d="M256,461.5c-113.31348,0-205.5-92.18652-205.5-205.5S142.68652,50.5,256,50.5S461.5,142.68652,461.5,256
				S369.31348,461.5,256,461.5z M256,62.5C149.30371,62.5,62.5,149.30371,62.5,256S149.30371,449.5,256,449.5
				S449.5,362.69629,449.5,256S362.69629,62.5,256,62.5z"/>
		</g>
	</g>
	<g>
		<g>
			<path fill="#A5D621" d="M441.37027,329.875c-16.19153,11.06131-47.91016,1.92896-61.13025-10.21158
				c-8.94394-8.21356-13.68933-20.07748-16.302-31.93628c-3.84979-17.47382-4.39102-35.6078-9.6774-52.79193
				c-2.70364-8.78854-7.59891-17.19446-15.15198-22.43842c-8.10498-5.62711-18.39563-7.08276-28.26245-7.10744
				c-26.72751-0.06683-56.15262,3.96121-71.31892-23.45102c-8.68712-15.70146-8.42516-35.59625-0.83377-51.85596
				c19.54741-41.86755,73.85567-49.64806,114.9532-48.07948c0,0,52.74554,21.82551,85.54941,94.91129
				S441.37027,329.875,441.37027,329.875z"/>
		</g>
		<g>
			<path fill="#333333" d="M422.37695,340.85742c-4.38379,0-9.04883-0.50098-13.91016-1.51367
				c-12.49902-2.60449-24.87012-8.45215-32.28516-15.26172c-8.63281-7.92676-14.72363-19.72363-18.10254-35.06348
				c-1.63184-7.40625-2.68945-14.93555-3.71094-22.21777c-1.47559-10.50879-2.86816-20.43457-5.8418-30.10156
				c-1.84961-6.00977-5.57812-14.23242-12.83984-19.27344c-5.81152-4.03516-13.94141-6.00879-24.85449-6.03613
				c-3.02051-0.00977-6.1582,0.04004-9.19336,0.08398c-24.45898,0.36914-52.19629,0.78027-67.36133-26.63086
				c-9.29102-16.79102-9.68164-38.74707-1.02051-57.29883c22.40625-47.99219,85.18555-52.87988,120.61816-51.53711
				c0.70996,0.02734,1.40918,0.18066,2.06543,0.45215c2.24414,0.92773,55.33398,23.5918,88.72949,97.99805
				c17.51172,39.01465,17.20801,79.76074,13.87012,107.07227c-3.60449,29.49805-11.24414,49.65039-11.56738,50.49414
				c-0.4375,1.13867-1.21094,2.11719-2.21777,2.80566C438.91504,338.81836,431.21973,340.85742,422.37695,340.85742z M441.37012,330
				h0.00977H441.37012z M441.37012,330h0.00977H441.37012z M310.1709,199c0.23145,0,0.46094,0,0.69141,0
				c13.43066,0,23.78906,2.90381,31.66797,8.37354c10.07715,6.99609,15.05957,17.88159,17.46484,25.69995
				c3.25488,10.58105,4.78125,21.4989,6.25684,32.01062c0.99023,7.05566,2.01367,14.37592,3.5459,21.32806
				c2.83887,12.88672,7.71777,22.59128,14.5,28.81882c5.82422,5.34863,16.27148,10.20334,26.61719,12.35861
				c10.33984,2.15625,19.49316,1.51575,25.51172-1.72546c4.19238-12.26074,25.94824-82.65765-2.7041-146.49457
				c-16.37012-36.47266-37.88086-59.48654-53.04395-72.37033c-13.93164-11.83887-25.21191-17.54063-28.4209-19.04259
				c-32.62891-1.08691-88.88281,3.44257-108.12793,44.66328c-7.06641,15.13672-6.81836,32.92099,0.64746,46.41318
				c11.68164,21.11426,33.53906,20.59087,56.68262,20.24809C304.31934,199.23824,307.26855,199,310.1709,199z"/>
		</g>
	</g>
	<g>
		<g>
			<path fill="#A5D621" d="M188.23637,443.68637c3.52356,1.49384,4.60477-27.21457,4.66977-30.29877
				c0.40874-19.39395-7.40714-35.08658-22.66141-47.2106c-13.47789-10.71222-29.64471-17.41498-44.23486-26.55457
				c-7.46526-4.67642-14.80005-10.32501-18.56332-18.28973c-3.3245-7.03607-3.49869-15.12537-3.04421-22.89404
				c1.44436-24.68954,8.73526-49.53645,4.89624-74.33859c-3.37736-21.81956-15.43173-41.56374-32.98683-54.87036
				c0.01933,0.01465-8.86268,21.26393-9.24068,22.52321C61.1181,211.58443,56.22456,235.28712,56.5,256
				c0.60615,45.58151,11.5,78.85403,41.26958,121.51022C118.55392,407.29163,152,428.32379,188.23637,443.68637z"/>
		</g>
		<g>
			<path fill="#333333" d="M188.49219,449.73926c-0.87988,0-1.76367-0.1748-2.59863-0.5293
				c-42.78516-18.13867-74.09082-41.10645-93.04395-68.2666c-30.23633-43.32422-41.71484-77.16602-42.34863-124.86328
				c-0.33301-24.99121,6.63867-52.11133,10.82324-66.05273c0.25-0.83105,1.35742-3.59668,7.57617-18.57617
				c0.90332-2.17676,1.58203-3.81055,1.77734-4.29102c0.19922-0.54004,0.47852-1.05957,0.84277-1.54297
				c1.99219-2.64062,5.74414-3.17285,8.39062-1.1875c0.01562,0.01172,0.03125,0.02344,0.04688,0.03516
				c18.85254,14.29785,31.70605,35.69727,35.27051,58.7168c2.6543,17.15137,0.28223,34.14746-2.01172,50.58301
				c-1.15137,8.25-2.34277,16.7793-2.8252,25.02441c-0.37891,6.4834-0.37988,13.92773,2.47949,19.98047
				c3.29785,6.97852,10.45605,12.0918,16.32324,15.76758c5.32324,3.33496,11.03809,6.43066,16.56543,9.42383
				c9.53418,5.16504,19.39355,10.50488,28.21875,17.51855c16.98242,13.49805,25.36914,31.00488,24.92676,52.03418
				c-0.03223,1.52344-0.28516,8.67871-0.93066,15.87891c-1.25293,13.98242-2.88281,17.35352-5.84277,19.26855
				C191.02832,449.375,189.76367,449.73926,188.49219,449.73926z M190.5791,438h0.00977H190.5791z M72.78809,193.57617
				c-6.86426,22.89844-10.51855,45.03613-10.28906,62.34375c0.59961,45.01172,11.49219,77.03516,40.19043,118.15625
				c16.84863,24.14258,44.57422,44.89355,82.46484,61.73145c0.89746-5.87988,1.61328-15.96387,1.75293-22.54688
				c0.36523-17.32422-6.30664-31.18848-20.39551-42.38672c-8-6.3584-16.9707-11.2168-26.46777-16.36133
				c-5.69043-3.08301-11.5752-6.27051-17.21973-9.80566c-7.25391-4.54395-16.1748-11.01562-20.80273-20.81055
				c-4.0127-8.49414-4.07617-17.8125-3.60938-25.80859c0.51074-8.72559,1.73535-17.49805,2.91992-25.98145
				c2.27344-16.29297,4.42188-31.68262,2.03711-47.08887c-2.69727-17.42188-11.54492-33.78711-24.64258-45.93652
				C76.48633,184.48047,73.25,192.30566,72.78809,193.57617z"/>
		</g>
	</g>
	<g>
		<g>
			<path fill="#A5D621" d="M255.67107,315.13965c-0.27318,4.35583,0.18164,9.3157,0.40102,14.233
				c0.60916,13.65506-11.0797,39.78345-0.92046,49.5246c10.07451,9.65985,36.41216,4.65491,46.78688-1.89642
				c15.86371-10.01825,22.10504-31.72784,15.49008-49.0932c-5.41129-14.20554-30.66873-25.6322-44.76126-26.56842
				C259.49628,300.46436,256.20306,306.65652,255.67107,315.13965z"/>
		</g>
		<g>
			<path fill="#333333" d="M273.1582,390.30566c-8.61035,0.00098-16.81348-1.95215-22.15918-7.07715
				c-9.03516-8.66309-5.91895-24.05176-3.16895-37.62891c1.24707-6.16113,2.42578-11.98047,2.24805-15.95898
				c-0.05371-1.21191-0.12305-2.42578-0.19141-3.63281c-0.21191-3.74902-0.43164-7.62598-0.2041-11.24414
				c0.42383-6.75,2.4502-11.63086,6.19629-14.92285c4.00977-3.52246,9.63379-4.99707,17.18555-4.48828
				c16.05664,1.06641,43.50586,13.44727,49.97168,30.41895c7.74805,20.34082-0.11133,45.07227-17.89355,56.30273
				C298.25781,386.4209,285.30273,390.30566,273.1582,390.30566z M270.27637,307.25586c-3.05664,0-5.27539,0.54395-6.47656,1.59961
				c-1.22656,1.07812-1.92676,3.25684-2.14062,6.66016l0,0c-0.18262,2.90332,0.00781,6.26074,0.20898,9.81348
				c0.07031,1.25488,0.1416,2.5166,0.19824,3.77637c0.24316,5.45117-1.07715,11.97168-2.47559,18.87598
				c-2.0293,10.02148-4.55469,22.49316-0.28711,26.58496c7.08105,6.79102,30.09082,3.25977,39.43164-2.63867
				c13.12695-8.29004,18.875-26.68848,13.08594-41.88477c-1.90234-4.99414-7.87207-10.50586-16.37988-15.12207
				c-7.72461-4.19141-16.82031-7.17285-23.17188-7.5957C271.57031,307.2793,270.90527,307.25586,270.27637,307.25586z M255.6709,315
				h0.00977H255.6709z"/>
		</g>
	</g>
	<g opacity="0.1">
		<g>
			<path d="M417.43237,212.45915c0,113.31349-92.18652,205.50002-205.50002,205.50002
				c-45.45557,0-87.50365-14.84509-121.5725-39.92749c37.44385,50.85938,97.71459,83.92749,165.57251,83.92749
				c113.31349,0,205.50002-92.18652,205.50002-205.5c0-67.8578-33.06812-128.12868-83.92749-165.57253
				C402.58716,124.95549,417.43237,167.00359,417.43237,212.45915z"/>
		</g>
	</g>
	<g>
		<g>
			<path fill="#FFFFFF" d="M96.84473,262c-3.31348,0-6-2.68652-6-6c0-91.06738,74.08789-165.15527,165.15527-165.15527
				c3.31348,0,6,2.68652,6,6s-2.68652,6-6,6c-84.4502,0-153.15527,68.70508-153.15527,153.15527
				C102.84473,259.31348,100.1582,262,96.84473,262z"/>
		</g>
	</g>
	<g>
		<g>
			<circle fill="#FFFFFF" cx="285" cy="99.66666" r="7.33333"/>
		</g>
	</g>
	<g opacity="0.1">
		<g>
			<path fill="#333333" d="M338.54251,103.29146c-30.22559,0-54.81543,24.58984-54.81543,54.81543
				c0,27.74707,44.52441,106.76073,49.60156,115.67967c1.06641,1.87402,3.05762,3.03125,5.21387,3.03125
				s4.14746-1.15723,5.21387-3.03125c5.07715-8.91895,49.60156-87.9326,49.60156-115.67967
				C393.35794,127.8813,368.7681,103.29146,338.54251,103.29146z M355.89212,162.10884
				c0,8.69922-7.07715,15.77734-15.77637,15.77734s-15.77734-7.07812-15.77734-15.77734s7.07812-15.77637,15.77734-15.77637
				S355.89212,153.40962,355.89212,162.10884z"/>
		</g>
		<g>
			<path d="M338.54297,277.31738c-2.33105,0-4.49609-1.25879-5.64844-3.28418
				c-5.08398-8.92969-49.66699-88.05371-49.66699-115.92676c0-30.50098,24.81445-55.31543,55.31543-55.31543
				s55.31543,24.81445,55.31543,55.31543c0,27.87305-44.58301,106.99707-49.66699,115.92676
				C343.03906,276.05859,340.87402,277.31738,338.54297,277.31738z M338.54297,103.79102
				c-29.94922,0-54.31543,24.36621-54.31543,54.31543c0,27.61621,44.46582,106.52539,49.53613,115.43262
				c0.97559,1.71387,2.80664,2.77832,4.7793,2.77832s3.80371-1.06445,4.7793-2.77832
				c5.07031-8.90723,49.53613-87.81641,49.53613-115.43262C392.8584,128.15723,368.49219,103.79102,338.54297,103.79102z
				 M340.11621,178.38574c-8.97559,0-16.27734-7.30176-16.27734-16.27734c0-8.97461,7.30176-16.27637,16.27734-16.27637
				c8.97461,0,16.27637,7.30176,16.27637,16.27637C356.39258,171.08398,349.09082,178.38574,340.11621,178.38574z
				 M340.11621,146.83203c-8.42383,0-15.27734,6.85254-15.27734,15.27637s6.85352,15.27734,15.27734,15.27734
				s15.27637-6.85352,15.27637-15.27734S348.54004,146.83203,340.11621,146.83203z"/>
		</g>
	</g>
	<g>
		<g>
			<path fill="#E54C4C" d="M331.04404,102.79279c-26.96033,0-48.81558,21.85564-48.81558,48.81576
				s48.81558,112.71106,48.81558,112.71106s48.81558-85.75093,48.81558-112.71106S358.00397,102.79279,331.04404,102.79279z
				 M332.617,177.38728c-12.02689,0-21.77679-9.74991-21.77679-21.77679s9.74991-21.77681,21.77679-21.77681
				c12.02725,0,21.77679,9.74992,21.77679,21.77681S344.64426,177.38728,332.617,177.38728z"/>
		</g>
		<g>
			<path fill="#333333" d="M331.04395,270.31934c-2.15625,0-4.14746-1.15723-5.21387-3.03125
				c-5.07715-8.91895-49.60156-87.93262-49.60156-115.67969c0-30.22559,24.58984-54.81543,54.81543-54.81543
				s54.81543,24.58984,54.81543,54.81543c0,27.74707-44.52441,106.76074-49.60156,115.67969
				C335.19141,269.16211,333.2002,270.31934,331.04395,270.31934z M331.04395,108.79297
				c-23.6084,0-42.81543,19.20703-42.81543,42.81543c0,18.47461,27.33594,72.16309,42.81543,100.39355
				c15.47949-28.23047,42.81543-81.91895,42.81543-100.39355C373.85938,128,354.65234,108.79297,331.04395,108.79297z
				 M332.61719,183.3877c-15.31641,0-27.77734-12.46094-27.77734-27.77734s12.46094-27.77637,27.77734-27.77637
				s27.77637,12.45996,27.77637,27.77637S347.93359,183.3877,332.61719,183.3877z M332.61719,139.83398
				c-8.69922,0-15.77734,7.07715-15.77734,15.77637s7.07812,15.77734,15.77734,15.77734s15.77637-7.07812,15.77637-15.77734
				S341.31641,139.83398,332.61719,139.83398z"/>
		</g>
	</g>
</g>
</svg>