<?xml version="1.0" encoding="utf-8"?>

<!DOCTYPE svg PUBLIC "-//W3C//DTD SVG 1.1//EN" "http://www.w3.org/Graphics/SVG/1.1/DTD/svg11.dtd">
<!-- Uploaded to: SVG Repo, www.svgrepo.com, Generator: SVG Repo Mixer Tools -->
<svg version="1.1" id="Icons" xmlns="http://www.w3.org/2000/svg" xmlns:xlink="http://www.w3.org/1999/xlink" 
	 width="800px" height="800px" viewBox="0 0 512 512" enable-background="new 0 0 512 512" xml:space="preserve">
<g id="Phone">
	<g>
		<g>
			<g>
				<g>
					<path fill="#B6D82A" d="M398.24878,512H113.75122C51.18805,512,0,460.81195,0,398.24878V113.75122
						C0,51.18805,51.18805,0,113.75122,0h284.49756C460.81195,0,512,51.18805,512,113.75122v284.49756
						C512,460.81195,460.81195,512,398.24878,512z"/>
				</g>
			</g>
		</g>
	</g>
	<g>
		<g opacity="0.1">
			<g>
				<path d="M424.87399,286.27536c2.24023-1.32422,4.51074-2.62207,6.77637-3.91602
					c19.83008-11.33203,42.30664-24.17578,38.88867-54.50977c-3.09668-27.4834-18.18457-51.74121-44.84473-72.10059
					c-50.17676-38.31835-121.33594-55.2539-190.36621-45.29784c-33.05469,4.76758-67.94141,17.14258-95.71387,33.95214
					c-35.05468,21.21582-57.07616,48.37891-63.68554,78.55176c-4.49316,20.5166,2.51562,37.94922,19.23047,47.82715l1.81396,1.07245
					c-7.63428,10.6842-22.3977,34.52344-18.07275,59.12091C81.70164,346.91312,91,360.16202,108,370.40671v62.60205
					c0,6.06543,6.04978,11.9913,12.11521,11.9913h306c6.06543,0,9.8848-5.92587,9.8848-11.9913v-66.04199
					c0-27.61127-6.30176-54.21887-19.20459-77.91071c0.01172-0.17621,0.29294-0.35974,0.29562-0.54309
					C419.74728,288.35446,422.57834,287.63254,424.87399,286.27536z M343.80661,185.09274
					c4.71484,1.74609,8.92773,5.38574,10.49609,9.07031c0.84863,1.99316,0.875,3.89258,0.0791,5.80078l-6.70312,12.875
					c-1.28076,2.46063-1.95483,4.80017-2.17163,7.02142c-22.27344-11.04657-46.90454-16.89349-72.39185-16.89349
					c-25.53198,0-50.20532,5.86688-72.50977,16.95123c-0.16504-0.06409-0.33398-0.12366-0.50977-0.17462
					c-0.26123-2.09045-0.93555-4.29388-2.15527-6.61353l-6.75293-12.84863c-0.80176-1.90527-0.7832-3.80469,0.05762-5.80078
					c1.55469-3.69238,5.75488-7.34863,10.46484-9.11426C249.48434,168.83981,295.96579,168.75192,343.80661,185.09274z
					 M91.28416,328.94333c-3.69653-20.88574,9.89941-42.46381,16.2085-51.11951l13.95557,8.27478
					c2.62549,1.55664,5.17383,2.35754,7.63427,2.58624c-11.3391,20.69183-18.05199,43.62134-19.60644,67.51025
					C99.25388,348.55252,93.13865,339.41971,91.28416,328.94333z"/>
			</g>
		</g>
		<g>
			<g>
				<g>
					<g>
						<path fill="#E54C4C" d="M408.99997,420.89374H103.00003c-2.75002,0-5.00003-2.25003-5.00003-5.00003v-66.04218
							c0-86.8999,71.09993-157.99983,157.99985-157.99983h0.00031C342.90009,191.8517,414,262.95163,414,349.85153v66.04218
							C414,418.64371,411.75,420.89374,408.99997,420.89374z"/>
					</g>
				</g>
				<g opacity="0.1">
					<g>
						
							<ellipse transform="matrix(0.70711 -0.70711 0.70711 0.70711 -125.40517 176.01505)" cx="149.76637" cy="239.38495" rx="50.17116" ry="15.15778"/>
					</g>
				</g>
				<g opacity="0.1">
					<g>
						
							<ellipse transform="matrix(0.70711 -0.70711 0.70711 0.70711 -63.6003 327.22534)" cx="363.19577" cy="240.38503" rx="15.15778" ry="50.17116"/>
					</g>
				</g>
				<g opacity="0.1">
					<g>
						<rect x="98" y="370" width="316" height="45.8937"/>
					</g>
				</g>
				<g>
					<g>
						<path fill="#333333" d="M409,426.89355H103c-6.06543,0-11-4.93457-11-11v-66.04199
							c0-43.63184,17.10742-84.76758,48.16992-115.83008S212.36816,185.85156,256,185.85156s84.76758,17.10742,115.83008,48.16992
							S420,306.21973,420,349.85156v66.04199C420,421.95898,415.06543,426.89355,409,426.89355z M104,414.89355h304v-65.04199
							c0-40.42578-15.8584-78.54883-44.65527-107.34473C334.54883,213.70996,296.42578,197.85156,256,197.85156
							s-78.54883,15.8584-107.34473,44.65527C119.8584,271.30273,104,309.42578,104,349.85156V414.89355z"/>
					</g>
				</g>
			</g>
			<g opacity="0.1">
				<g>
					<path d="M264.87387,211.86501c-48.56154,0-88.06935,29.93652-88.06935,66.73341s39.50781,66.7334,88.06935,66.7334
						s88.06934-29.93652,88.06934-66.7334S313.43539,211.86501,264.87387,211.86501z M315.70493,278.59842
						c0,18.33398-23.44727,33.82324-51.2002,33.82324c-27.75392,0-51.20119-15.48926-51.20119-33.82324
						s23.44727-33.82326,51.20119-33.82326C292.25766,244.77516,315.70493,260.26443,315.70493,278.59842z"/>
				</g>
			</g>
			<g>
				<g>
					<g>
						<path fill="#D3D3D3" d="M255.63086,334.54785c-20.86426,0-40.65039-6.11816-55.71387-17.22852
							c-16.19727-11.94531-25.4873-28.92871-25.4873-46.59473s9.29004-34.64941,25.4873-46.59473
							c15.06348-11.11035,34.84961-17.22852,55.71387-17.22852c20.86328,0,40.64941,6.11816,55.71387,17.22852
							c16.19629,11.94531,25.48633,28.92871,25.48633,46.59473s-9.29004,34.64941-25.48633,46.59473
							C296.28027,328.42969,276.49414,334.54785,255.63086,334.54785z M255.63086,236.90137
							c-27.75391,0-51.20117,15.48926-51.20117,33.82324s23.44727,33.82324,51.20117,33.82324
							c27.75293,0,51.2002-15.48926,51.2002-33.82324S283.38379,236.90137,255.63086,236.90137z"/>
					</g>
				</g>
			</g>
			<g>
				<g>
					<path fill="#333333" d="M256,337.45801c-48.56152,0-88.06934-29.93652-88.06934-66.7334s39.50781-66.7334,88.06934-66.7334
						s88.06934,29.93652,88.06934,66.7334S304.56152,337.45801,256,337.45801z M256,215.99121
						c-41.94434,0-76.06934,24.55371-76.06934,54.7334s34.125,54.7334,76.06934,54.7334s76.06934-24.55371,76.06934-54.7334
						S297.94434,215.99121,256,215.99121z"/>
				</g>
			</g>
			<g>
				<g>
					<path fill="#333333" d="M256,310.16602c-14.47852,0-28.16699-3.82715-38.54395-10.77637
						c-11.08789-7.42383-17.19434-17.52832-17.19434-28.45117c0-10.92188,6.10645-21.02637,17.19434-28.4502
						c10.37695-6.94922,24.06543-10.77637,38.54395-10.77637s28.16699,3.82715,38.54395,10.77637
						c11.08789,7.42383,17.19434,17.52832,17.19434,28.4502c0,10.92285-6.10645,21.02734-17.19434,28.45117
						C284.16699,306.33887,270.47852,310.16602,256,310.16602z M256,243.2373c-23.96582,0-44.21289,12.68555-44.21289,27.70117
						c0,15.0166,20.24707,27.70215,44.21289,27.70215s44.21289-12.68555,44.21289-27.70215
						C300.21289,255.92285,279.96582,243.2373,256,243.2373z"/>
				</g>
			</g>
			<g>
				<g>
					<path fill="#333333" d="M174,376H98c-3.31348,0-6-2.68652-6-6s2.68652-6,6-6h76c3.31348,0,6,2.68652,6,6S177.31348,376,174,376
						z"/>
				</g>
			</g>
			<g>
				<g>
					<path fill="#333333" d="M413,376h-76c-3.31348,0-6-2.68652-6-6s2.68652-6,6-6h76c3.31348,0,6,2.68652,6,6
						S416.31348,376,413,376z"/>
				</g>
			</g>
			<g>
				<g>
					<g>
						<path fill="#E54C4C" d="M404.93732,143.40236c-51.57104-39.38239-121.84381-53.36116-185.86771-44.12751
							c-57.32584,8.26764-140.44759,44.17213-154.3951,107.84949c-3.68247,16.8123,1.10005,32.32239,16.42216,41.37717
							c0.10034-0.04913,0.15063-0.07361,0.25098-0.1225c8.68192,5.14792,17.36383,10.29579,26.04574,15.44365
							c12.8493,7.61887,24.33067-11.67491,31.52967-19.06084c7.95959-8.16624,16.39085-15.87329,25.23981-23.06636
							c6.83438-5.55547,16.79887-12.52777,11.35104-22.88982c-2.74243-5.21783-4.11377-7.82672-6.8562-13.04462
							c-4.55908-10.25305,4.9812-19.84442,13.9082-23.15741c49.00854-16.96753,97.07275-17.05341,146.13354-0.28015
							c8.93896,3.27783,18.51123,12.83105,13.99219,23.09937c-2.72217,5.22852-4.08301,7.84277-6.80542,13.0717
							c-5.66821,10.88812,5.80453,18.73442,13.15567,24.33614c12.48901,9.51692,24.64856,20.6925,34.07626,33.32024
							c5.7789,7.73868,15.10129,11.67825,21.58658,7.84412c21.65302-12.80141,46.08047-23.09142,42.75702-52.58865
							C444.27826,183.15146,427.46466,160.60547,404.93732,143.40236z"/>
					</g>
					<g>
						<path fill="#333333" d="M113.45801,271.64746c-2.91602,0.00098-5.96582-0.79102-9.125-2.66406l-23.24414-13.78223
							l-0.24512,0.12109l-2.7998-1.65527c-16.71484-9.87793-23.72363-27.31055-19.23047-47.82715
							c6.60938-30.17285,28.63086-57.33594,63.68555-78.55176c27.77246-16.80957,62.65918-29.18457,95.71387-33.95215
							c69.03027-9.95605,140.18945,6.97949,190.36621,45.29785c26.66016,20.35938,41.74805,44.61719,44.84473,72.10059
							c3.41797,30.33398-19.05859,43.17773-38.88867,54.50977c-2.26562,1.29395-4.53613,2.5918-6.77637,3.91602
							c-8.86523,5.24121-21.52539,1.19043-29.44824-9.41895c-8.11816-10.87402-19.18848-21.68652-32.90527-32.1377l-1.15137-0.87305
							c-7.48145-5.65527-21.40723-16.18262-13.69043-31.00684l6.70312-12.875c0.7959-1.9082,0.76953-3.80762-0.0791-5.80078
							c-1.56836-3.68457-5.78125-7.32422-10.49609-9.07031c-47.84082-16.34082-94.32227-16.25293-142.09668,0.27344
							c-4.70996,1.76562-8.91016,5.42188-10.46484,9.11426c-0.84082,1.99609-0.85938,3.89551-0.05762,5.80078l6.75293,12.84863
							c7.39453,14.06348-4.92188,23.94727-11.53809,29.25781c-0.45605,0.36523-0.9043,0.72461-1.33887,1.07812
							c-8.62793,7.0127-16.94727,14.61621-24.72852,22.59961c-1.20898,1.23926-2.68945,3.02344-4.25586,4.91211
							C133.12988,260.8916,124.2041,271.64746,113.45801,271.64746z M81.63184,241.57129l28.82129,17.08984
							c5.06543,3.00488,10.46387-1.84375,19.27539-12.46191c1.72559-2.0791,3.35449-4.04199,4.89746-5.62598
							c8.10352-8.3125,16.76758-16.23047,25.75293-23.53418c0.45312-0.36816,0.9209-0.74414,1.39746-1.12598
							c8.2793-6.64453,10.79688-9.80664,8.42676-14.31543l-7.02734-13.39844c-2.22656-5.00879-2.26367-10.36523-0.10645-15.49023
							c3.41016-8.09961,11.22949-13.43652,17.40918-15.73047l0.125-0.04492c50.44434-17.46387,99.52051-17.55859,150.03711-0.28809
							l0.12402,0.04492c6.1875,2.26855,14.02441,7.57422,17.46484,15.65918c2.17773,5.11719,2.16113,10.47363-0.04688,15.49023
							l-0.16895,0.35352l-6.80664,13.07227c-2.35254,4.51953-0.0459,8.08398,10.2832,15.89258l1.18848,0.90039
							c14.60352,11.12793,26.46191,22.73633,35.24707,34.50293c4.03906,5.40918,10.32812,8.27832,13.72559,6.26855
							c2.29102-1.35449,4.6123-2.68164,6.92969-4.00488c19.02344-10.87109,35.45215-20.25879,32.91895-42.74707
							c-2.7168-24.1084-16.24316-45.60938-40.2041-63.90723c-47.66797-36.40234-115.46777-52.46289-181.37012-42.95801
							c-52.62695,7.59082-135.84082,41.33789-149.38965,103.19531c-4.00391,18.27637,4.18457,28.26074,10.99707,33.21094
							L81.63184,241.57129z"/>
					</g>
				</g>
			</g>
			<g>
				<g>
					<path fill="#333333" d="M95.07422,355.08984c-18.75098-10.47363-29.76367-24.34473-32.73145-41.22949
						c-5.70801-32.46289,20.87207-63.62695,22.00586-64.9375l9.07422,7.85156l-4.53711-3.92578l4.54199,3.9209
						c-0.24121,0.2793-24.00488,28.24316-19.25879,55.05859c2.3252,13.13574,11.32715,24.16699,26.75684,32.78516
						L95.07422,355.08984z"/>
				</g>
			</g>
			<g>
				<g>
					<path fill="#FFFFFF" d="M112.60352,246.38574c-0.86426,0-1.74121-0.18652-2.57324-0.58203
						c-12.6416-6.0127-24.81152-13.23145-28.23438-25.24805c-2.3877-8.38281-0.19141-17.67285,6.71387-28.40039
						c23.85449-37.0625,66.44434-63.69629,119.92285-74.99609c3.23535-0.68945,6.4248,1.38672,7.11035,4.62988
						c0.68555,3.24219-1.3877,6.42578-4.62988,7.11035c-50.31934,10.63281-90.20605,35.40332-112.31348,69.75
						c-4.92871,7.6582-6.65039,13.74805-5.2627,18.61914c2.12207,7.44922,12.23438,13.12598,21.84766,17.69727
						c2.99219,1.42383,4.26465,5.00293,2.8418,7.99609C116.99805,245.12207,114.84668,246.38574,112.60352,246.38574z"/>
				</g>
			</g>
			<g>
				<g>
					<circle fill="#FFFFFF" cx="236.55356" cy="119.29571" r="6.7457"/>
				</g>
			</g>
			<g opacity="0.1">
				<g>
					<path d="M191.91675,159.30566c38.35718-11.33282,125.11108-12.17841,148.31152,15.60046
						c1.60596-2.70428,2.46338-5.52838,2.46338-8.43475c0-19.66803-38.97876-35.61206-87.06128-35.61206
						s-87.06128,15.94403-87.06128,35.61206c0,2.72748,0.75244,5.38287,2.17188,7.93451
						C171.8291,169.14185,177.31006,163.62128,191.91675,159.30566z"/>
				</g>
			</g>
			<g opacity="0.1">
				<g>
					<path d="M301.2666,247.8125c-10.57422-7.03613-24.51953-10.91113-39.2666-10.91113s-28.69238,3.875-39.2666,10.91113
						c-11.32715,7.53711-17.56445,17.80469-17.56445,28.91211s6.2373,21.375,17.56445,28.91211
						c10.57422,7.03613,24.51953,10.91113,39.2666,10.91113s28.69238-3.875,39.2666-10.91113
						c11.32715-7.53711,17.56445-17.80469,17.56445-28.91211S312.59375,255.34961,301.2666,247.8125z"/>
				</g>
			</g>
			<g>
				<g>
					<ellipse fill="#D3D3D3" cx="256" cy="270.72458" rx="24.9295" ry="16.58823"/>
				</g>
				<g>
					<path fill="#333333" d="M256,293.3125c-17.34375,0-30.92969-9.92188-30.92969-22.58789S238.65625,248.13672,256,248.13672
						s30.92969,9.92188,30.92969,22.58789S273.34375,293.3125,256,293.3125z M256,260.13672
						c-11.15527,0-18.92969,5.58008-18.92969,10.58789S244.84473,281.3125,256,281.3125s18.92969-5.58008,18.92969-10.58789
						S267.15527,260.13672,256,260.13672z"/>
				</g>
			</g>
		</g>
	</g>
</g>
</svg>