<?xml version="1.0" encoding="utf-8"?>

<!DOCTYPE svg PUBLIC "-//W3C//DTD SVG 1.1//EN" "http://www.w3.org/Graphics/SVG/1.1/DTD/svg11.dtd">
<!-- Uploaded to: SVG Repo, www.svgrepo.com, Generator: SVG Repo Mixer Tools -->
<svg version="1.1" id="Icons" xmlns="http://www.w3.org/2000/svg" xmlns:xlink="http://www.w3.org/1999/xlink" 
	 width="800px" height="800px" viewBox="0 0 512 512" enable-background="new 0 0 512 512" xml:space="preserve">
<g id="Calculator">
	<g>
		<g>
			<path fill="#E54C4C" d="M398.24878,512H113.75122C51.18805,512,0,460.81195,0,398.24878V113.75122
				C0,51.18805,51.18805,0,113.75122,0h284.49756C460.81195,0,512,51.18805,512,113.75122v284.49756
				C512,460.81195,460.81195,512,398.24878,512z"/>
		</g>
	</g>
	<g>
		<g opacity="0.1">
			<g>
				<path d="M410,87.69629C410,73.50462,398.49539,62,384.30371,62H152.69629C138.50462,62,127,73.50462,127,87.69629v362.60742
					C127,464.49539,138.50462,476,152.69629,476h231.60742C398.49539,476,410,464.49539,410,450.30371V87.69629z"/>
			</g>
		</g>
		<g>
			<g>
				<path fill="#EAEAEA" d="M371.90799,457.04956H140.09201c-10.87794,0-19.69626-8.8183-19.69626-19.69623V74.64668
					c0-10.87794,8.81831-19.69625,19.69626-19.69625h231.81598c10.87796,0,19.69626,8.81831,19.69626,19.69625v362.70667
					C391.60425,448.23126,382.78595,457.04956,371.90799,457.04956z"/>
			</g>
			<g>
				<path fill="#333333" d="M371.9082,463.0498H140.0918c-14.16895,0-25.69629-11.52734-25.69629-25.69629V74.64648
					c0-14.16895,11.52734-25.69629,25.69629-25.69629H371.9082c14.16895,0,25.69629,11.52734,25.69629,25.69629v362.70703
					C397.60449,451.52246,386.07715,463.0498,371.9082,463.0498z M140.0918,60.9502c-7.55176,0-13.69629,6.14453-13.69629,13.69629
					v362.70703c0,7.55176,6.14453,13.69629,13.69629,13.69629H371.9082c7.55176,0,13.69629-6.14453,13.69629-13.69629V74.64648
					c0-7.55176-6.14453-13.69629-13.69629-13.69629H140.0918z"/>
			</g>
		</g>
		<g opacity="0.1">
			<g>
				<path d="M373,132.20508C373,125.4644,367.53561,120,360.79492,120H166.20508C159.4644,120,154,125.4644,154,132.20508v39.58984
					C154,178.5356,159.4644,195,166.20508,195h194.58984C367.53561,195,373,189.5356,373,182.79492V132.20508z"/>
			</g>
		</g>
		<g>
			<g>
				<path fill="#FFC50D" d="M353.41385,181.22369H158.58614c-3.4269,0-6.20496-2.77806-6.20496-6.20496V124.2037
					c0-3.4269,2.77806-6.20496,6.20496-6.20496h194.82771c3.42691,0,6.20496,2.77805,6.20496,6.20496v50.81504
					C359.6188,178.44563,356.84076,181.22369,353.41385,181.22369z"/>
			</g>
			<g>
				<path fill="#333333" d="M353.41406,187.22363H158.58594c-6.72949,0-12.20508-5.47559-12.20508-12.20508V124.2041
					c0-6.72949,5.47559-12.20508,12.20508-12.20508h194.82812c6.72949,0,12.20508,5.47559,12.20508,12.20508v50.81445
					C365.61914,181.74805,360.14355,187.22363,353.41406,187.22363z M158.58594,123.99902
					c-0.11328,0-0.20508,0.0918-0.20508,0.20508v50.81445c0,0.11328,0.0918,0.20508,0.20508,0.20508h194.82812
					c0.11328,0,0.20508-0.0918,0.20508-0.20508V124.2041c0-0.11328-0.0918-0.20508-0.20508-0.20508H158.58594z"/>
			</g>
		</g>
		<g opacity="0.1">
			<g>
				<g>
					<path d="M362,101h-83c-4.9707,0-9-4.0293-9-9s4.0293-9,9-9h83c4.9707,0,9,4.0293,9,9S366.9707,101,362,101z"/>
				</g>
			</g>
		</g>
		<g>
			<g>
				<path fill="#333333" d="M358,95h-83c-4.9707,0-9-4.0293-9-9s4.0293-9,9-9h83c4.9707,0,9,4.0293,9,9S362.9707,95,358,95z"/>
			</g>
		</g>
		<g opacity="0.1">
			<g>
				<g>
					<path d="M216,252.2002C216,245.46222,210.53822,240,203.80078,240h-39.60156C157.46178,240,152,245.46222,152,252.2002
						v35.59961C152,294.53778,157.46178,300,164.19922,300h39.60156C210.53822,300,216,294.53778,216,287.7998V252.2002z"/>
				</g>
			</g>
			<g>
				<g>
					<path d="M294,252.2002C294,245.46222,288.53778,240,281.7998,240H242.2002C235.46222,240,230,245.46222,230,252.2002v35.59961
						C230,294.53778,235.46222,300,242.2002,300h39.59961C288.53778,300,294,294.53778,294,287.7998V252.2002z"/>
				</g>
			</g>
			<g>
				<g>
					<path d="M372,252.2002C372,245.46222,366.53778,240,359.7998,240H320.2002C313.46222,240,308,245.46222,308,252.2002v35.59961
						C308,294.53778,313.46222,300,320.2002,300h39.59961C366.53778,300,372,294.53778,372,287.7998V252.2002z"/>
				</g>
			</g>
			<g>
				<g>
					<path d="M216,321.2002C216,314.46222,210.53822,309,203.80078,309h-39.60156C157.46178,309,152,314.46222,152,321.2002
						v35.59961C152,363.53778,157.46178,369,164.19922,369h39.60156C210.53822,369,216,363.53778,216,356.7998V321.2002z"/>
				</g>
			</g>
			<g>
				<g>
					<path d="M294,321.2002C294,314.46222,288.53778,309,281.7998,309H242.2002C235.46222,309,230,314.46222,230,321.2002v35.59961
						C230,363.53778,235.46222,369,242.2002,369h39.59961C288.53778,369,294,363.53778,294,356.7998V321.2002z"/>
				</g>
			</g>
			<g>
				<g>
					<path d="M372,321.2002C372,314.46222,366.53778,309,359.7998,309H320.2002C313.46222,309,308,314.46222,308,321.2002v35.59961
						C308,363.53778,313.46222,369,320.2002,369h39.59961C366.53778,369,372,363.53778,372,356.7998V321.2002z"/>
				</g>
			</g>
			<g>
				<g>
					<path d="M216,389.2002C216,382.46222,210.53822,377,203.80078,377h-39.60156C157.46178,377,152,382.46222,152,389.2002
						v35.59961C152,431.53778,157.46178,437,164.19922,437h39.60156C210.53822,437,216,431.53778,216,424.7998V389.2002z"/>
				</g>
			</g>
			<g>
				<g>
					<path d="M294,389.2002C294,382.46222,288.53778,377,281.7998,377H242.2002C235.46222,377,230,382.46222,230,389.2002v35.59961
						C230,431.53778,235.46222,437,242.2002,437h39.59961C288.53778,437,294,431.53778,294,424.7998V389.2002z"/>
				</g>
			</g>
			<g>
				<g>
					<path d="M372,389.2002C372,382.46222,366.53778,377,359.7998,377H320.2002C313.46222,377,308,382.46222,308,389.2002v35.59961
						C308,431.53778,313.46222,437,320.2002,437h39.59961C366.53778,437,372,431.53778,372,424.7998V389.2002z"/>
				</g>
			</g>
		</g>
		<g>
			<g>
				<g>
					<path fill="#545A5B" d="M198.63152,287.66965h-40.05034c-3.41,0-6.2-2.78998-6.2-6.19998v-35.26665
						c0-3.40999,2.78999-6.2,6.2-6.2h40.05034c3.41,0,6.2,2.79001,6.2,6.2v35.26665
						C204.83151,284.87967,202.04152,287.66965,198.63152,287.66965z"/>
				</g>
				<g>
					<path fill="#333333" d="M198.63184,293.66992h-40.05078c-6.72754,0-12.2002-5.47266-12.2002-12.2002v-35.2666
						c0-6.72754,5.47266-12.2002,12.2002-12.2002h40.05078c6.72656,0,12.19922,5.47266,12.19922,12.2002v35.2666
						C210.83105,288.19727,205.3584,293.66992,198.63184,293.66992z M158.58105,246.00293c-0.09766,0-0.2002,0.10254-0.2002,0.2002
						v35.2666c0,0.09766,0.10254,0.2002,0.2002,0.2002h40.05078c0.09668,0,0.19922-0.10254,0.19922-0.2002v-35.2666
						c0-0.09766-0.10254-0.2002-0.19922-0.2002H158.58105z"/>
				</g>
			</g>
			<g>
				<g>
					<path fill="#545A5B" d="M276.46289,287.66965h-40.05032c-3.41,0-6.2-2.78998-6.2-6.19998v-35.26665
						c0-3.40999,2.78999-6.2,6.2-6.2h40.05032c3.41,0,6.20001,2.79001,6.20001,6.2v35.26665
						C282.6629,284.87967,279.87289,287.66965,276.46289,287.66965z"/>
				</g>
				<g>
					<path fill="#333333" d="M276.46289,293.66992h-40.05078c-6.72656,0-12.19922-5.47266-12.19922-12.2002v-35.2666
						c0-6.72754,5.47266-12.2002,12.19922-12.2002h40.05078c6.72754,0,12.2002,5.47266,12.2002,12.2002v35.2666
						C288.66309,288.19727,283.19043,293.66992,276.46289,293.66992z M236.41211,246.00293
						c-0.09473,0-0.19922,0.10449-0.19922,0.2002v35.2666c0,0.0957,0.10449,0.2002,0.19922,0.2002h40.05078
						c0.09766,0,0.2002-0.10254,0.2002-0.2002v-35.2666c0-0.09766-0.10254-0.2002-0.2002-0.2002H236.41211z"/>
				</g>
			</g>
			<g>
				<g>
					<path fill="#545A5B" d="M354.29428,287.66965h-40.05032c-3.41,0-6.20001-2.78998-6.20001-6.19998v-35.26665
						c0-3.40999,2.79001-6.2,6.20001-6.2h40.05032c3.41,0,6.20001,2.79001,6.20001,6.2v35.26665
						C360.49429,284.87967,357.70428,287.66965,354.29428,287.66965z"/>
				</g>
				<g>
					<path fill="#333333" d="M354.29395,293.66992h-40.0498c-6.72754,0-12.2002-5.47266-12.2002-12.2002v-35.2666
						c0-6.72754,5.47266-12.2002,12.2002-12.2002h40.0498c6.72754,0,12.2002,5.47266,12.2002,12.2002v35.2666
						C366.49414,288.19727,361.02148,293.66992,354.29395,293.66992z M314.24414,246.00293c-0.09766,0-0.2002,0.10254-0.2002,0.2002
						v35.2666c0,0.09766,0.10254,0.2002,0.2002,0.2002h40.0498c0.09766,0,0.2002-0.10254,0.2002-0.2002v-35.2666
						c0-0.09766-0.10254-0.2002-0.2002-0.2002H314.24414z"/>
				</g>
			</g>
		</g>
		<g>
			<g>
				<g>
					<path fill="#545A5B" d="M198.63152,356.66876h-40.05034c-3.41,0-6.2-2.78998-6.2-6.19998v-35.26663
						c0-3.41,2.78999-6.20001,6.2-6.20001h40.05034c3.41,0,6.2,2.79001,6.2,6.20001v35.26663
						C204.83151,353.87878,202.04152,356.66876,198.63152,356.66876z"/>
				</g>
				<g>
					<path fill="#333333" d="M198.63184,362.66895h-40.05078c-6.72754,0-12.2002-5.47266-12.2002-12.2002v-35.2666
						c0-6.72754,5.47266-12.2002,12.2002-12.2002h40.05078c6.72656,0,12.19922,5.47266,12.19922,12.2002v35.2666
						C210.83105,357.19629,205.3584,362.66895,198.63184,362.66895z M158.58105,315.00195c-0.09766,0-0.2002,0.10254-0.2002,0.2002
						v35.2666c0,0.09766,0.10254,0.2002,0.2002,0.2002h40.05078c0.09668,0,0.19922-0.10254,0.19922-0.2002v-35.2666
						c0-0.09766-0.10254-0.2002-0.19922-0.2002H158.58105z"/>
				</g>
			</g>
			<g>
				<g>
					<path fill="#545A5B" d="M276.46289,356.66876h-40.05032c-3.41,0-6.2-2.78998-6.2-6.19998v-35.26663
						c0-3.41,2.78999-6.20001,6.2-6.20001h40.05032c3.41,0,6.20001,2.79001,6.20001,6.20001v35.26663
						C282.6629,353.87878,279.87289,356.66876,276.46289,356.66876z"/>
				</g>
				<g>
					<path fill="#333333" d="M276.46289,362.66895h-40.05078c-6.72656,0-12.19922-5.47266-12.19922-12.2002v-35.2666
						c0-6.72754,5.47266-12.2002,12.19922-12.2002h40.05078c6.72754,0,12.2002,5.47266,12.2002,12.2002v35.2666
						C288.66309,357.19629,283.19043,362.66895,276.46289,362.66895z M236.41211,315.00195
						c-0.09473,0-0.19922,0.10449-0.19922,0.2002v35.2666c0,0.0957,0.10449,0.2002,0.19922,0.2002h40.05078
						c0.09766,0,0.2002-0.10254,0.2002-0.2002v-35.2666c0-0.09766-0.10254-0.2002-0.2002-0.2002H236.41211z"/>
				</g>
			</g>
			<g>
				<g>
					<path fill="#545A5B" d="M354.29428,356.66876h-40.05032c-3.41,0-6.20001-2.78998-6.20001-6.19998v-35.26663
						c0-3.41,2.79001-6.20001,6.20001-6.20001h40.05032c3.41,0,6.20001,2.79001,6.20001,6.20001v35.26663
						C360.49429,353.87878,357.70428,356.66876,354.29428,356.66876z"/>
				</g>
				<g>
					<path fill="#333333" d="M354.29395,362.66895h-40.0498c-6.72754,0-12.2002-5.47266-12.2002-12.2002v-35.2666
						c0-6.72754,5.47266-12.2002,12.2002-12.2002h40.0498c6.72754,0,12.2002,5.47266,12.2002,12.2002v35.2666
						C366.49414,357.19629,361.02148,362.66895,354.29395,362.66895z M314.24414,315.00195c-0.09766,0-0.2002,0.10254-0.2002,0.2002
						v35.2666c0,0.09766,0.10254,0.2002,0.2002,0.2002h40.0498c0.09766,0,0.2002-0.10254,0.2002-0.2002v-35.2666
						c0-0.09766-0.10254-0.2002-0.2002-0.2002H314.24414z"/>
				</g>
			</g>
		</g>
		<g>
			<g>
				<g>
					<path fill="#545A5B" d="M198.63152,424.64838h-40.05034c-3.41,0-6.2-2.79001-6.2-6.20001v-35.26663
						c0-3.41,2.78999-6.20001,6.2-6.20001h40.05034c3.41,0,6.2,2.79001,6.2,6.20001v35.26663
						C204.83151,421.85837,202.04152,424.64838,198.63152,424.64838z"/>
				</g>
				<g>
					<path fill="#333333" d="M198.63184,430.64844h-40.05078c-6.72754,0-12.2002-5.47266-12.2002-12.2002v-35.2666
						c0-6.72754,5.47266-12.2002,12.2002-12.2002h40.05078c6.72656,0,12.19922,5.47266,12.19922,12.2002v35.2666
						C210.83105,425.17578,205.3584,430.64844,198.63184,430.64844z M158.58105,382.98145c-0.09766,0-0.2002,0.10254-0.2002,0.2002
						v35.2666c0,0.09766,0.10254,0.2002,0.2002,0.2002h40.05078c0.09668,0,0.19922-0.10254,0.19922-0.2002v-35.2666
						c0-0.09766-0.10254-0.2002-0.19922-0.2002H158.58105z"/>
				</g>
			</g>
			<g>
				<g>
					<path fill="#545A5B" d="M276.46289,424.64838h-40.05032c-3.41,0-6.2-2.79001-6.2-6.20001v-35.26663
						c0-3.41,2.78999-6.20001,6.2-6.20001h40.05032c3.41,0,6.20001,2.79001,6.20001,6.20001v35.26663
						C282.6629,421.85837,279.87289,424.64838,276.46289,424.64838z"/>
				</g>
				<g>
					<path fill="#333333" d="M276.46289,430.64844h-40.05078c-6.72656,0-12.19922-5.47266-12.19922-12.2002v-35.2666
						c0-6.72754,5.47266-12.2002,12.19922-12.2002h40.05078c6.72754,0,12.2002,5.47266,12.2002,12.2002v35.2666
						C288.66309,425.17578,283.19043,430.64844,276.46289,430.64844z M236.41211,382.98145
						c-0.09473,0-0.19922,0.10449-0.19922,0.2002v35.2666c0,0.0957,0.10449,0.2002,0.19922,0.2002h40.05078
						c0.09766,0,0.2002-0.10254,0.2002-0.2002v-35.2666c0-0.09766-0.10254-0.2002-0.2002-0.2002H236.41211z"/>
				</g>
			</g>
			<g>
				<g>
					<path fill="#545A5B" d="M354.29428,424.64838h-40.05032c-3.41,0-6.20001-2.79001-6.20001-6.20001v-35.26663
						c0-3.41,2.79001-6.20001,6.20001-6.20001h40.05032c3.41,0,6.20001,2.79001,6.20001,6.20001v35.26663
						C360.49429,421.85837,357.70428,424.64838,354.29428,424.64838z"/>
				</g>
				<g>
					<path fill="#333333" d="M354.29395,430.64844h-40.0498c-6.72754,0-12.2002-5.47266-12.2002-12.2002v-35.2666
						c0-6.72754,5.47266-12.2002,12.2002-12.2002h40.0498c6.72754,0,12.2002,5.47266,12.2002,12.2002v35.2666
						C366.49414,425.17578,361.02148,430.64844,354.29395,430.64844z M314.24414,382.98145c-0.09766,0-0.2002,0.10254-0.2002,0.2002
						v35.2666c0,0.09766,0.10254,0.2002,0.2002,0.2002h40.0498c0.09766,0,0.2002-0.10254,0.2002-0.2002v-35.2666
						c0-0.09766-0.10254-0.2002-0.2002-0.2002H314.24414z"/>
				</g>
			</g>
		</g>
		<g>
			<g>
				<path fill="#333333" d="M268.76367,135.21973v11.2334l-3.06348,3.06348l-1.02148-1.02051V133.6875L268.76367,135.21973z
					 M282.04004,147.98535l2.04297,2.04199l-2.04297,2.04297h-13.27637l-2.04199-2.04297l2.04199-2.04199H282.04004z
					 M282.04004,146.45312v-10.72363l1.53223-4.08496c1.36133,0.34082,2.21289,1.19238,2.55371,2.55371v14.29785l-1.02148,1.02051
					L282.04004,146.45312z M285.10449,150.53809l1.02148,1.02148v14.29785c-0.34082,1.36133-1.19238,2.21289-2.55371,2.55273
					l-1.53223-4.08496v-10.72363L285.10449,150.53809z"/>
				<path fill="#333333" d="M283.41602,168.70703l-1.62598-4.38184v-10.82715l3.31445-3.31348l1.27148,1.27148v14.40137
					c-0.37109,1.5127-1.29102,2.43262-2.74316,2.79492L283.41602,168.70703z M282.29004,164.28027l1.43652,3.82812
					c1.14844-0.34961,1.85547-1.1084,2.15723-2.31152l-0.00781-14.13379l-0.77148-0.77148l-2.81445,2.81348V164.28027z
					 M282.14355,152.32031h-13.4834l-2.29199-2.29297l2.29199-2.29199h13.4834l2.29297,2.29199L282.14355,152.32031z
					 M268.86719,151.82031h13.06934l1.79297-1.79297l-1.79297-1.79199h-13.06934l-1.79199,1.79199L268.86719,151.82031z
					 M265.7002,149.87012l-1.27148-1.27051v-15.27246l4.58496,1.71973v11.50977L265.7002,149.87012z M264.92871,148.39258
					l0.77148,0.77051l2.81348-2.81348v-10.95703l-3.58496-1.34473V148.39258z M285.10449,149.87012l-3.31445-3.31348
					l0.01562-10.91504l1.61133-4.29395l0.21582,0.05469c1.45215,0.36328,2.37207,1.2832,2.73535,2.73535l0.00781,14.46191
					L285.10449,149.87012z M282.29004,146.34961l2.81445,2.81348l0.77148-0.77051v-14.19434
					c-0.29395-1.14648-1.00098-1.90137-2.15039-2.25195l-1.43555,3.82812V146.34961z"/>
			</g>
			<g>
				<path fill="#333333" d="M294.03906,164.83594v-13.27637l1.02148-1.02148l3.06348,3.06348v9.70215L294.03906,164.83594z
					 M313.44336,168.41016h-16.85059c-1.3623-0.33984-2.21387-1.19141-2.55371-2.55273l4.08496-1.53223h13.78711
					L313.44336,168.41016z M310.37988,135.72949h-12.2041l-4.08496-1.53125c0.33984-1.36133,1.19141-2.21289,2.55273-2.55371
					h15.26758L310.37988,135.72949z M311.40039,147.98535l2.04297,2.04199l-2.04297,2.04297h-13.27637l-2.04199-2.04297
					l2.04199-2.04199H311.40039z M311.40039,146.45312v-10.72363l1.53223-4.08496c1.36133,0.34082,2.21289,1.19238,2.55371,2.55371
					v14.29785l-1.02148,1.02051L311.40039,146.45312z"/>
				<path fill="#333333" d="M313.80371,168.66016h-17.21094c-1.51367-0.37012-2.43359-1.29004-2.7959-2.74219l-0.05469-0.2168
					l4.38184-1.62598h13.95996L313.80371,168.66016z M294.34082,166.01074c0.34961,1.15039,1.1084,1.85645,2.3125,2.15723
					l16.42969-0.00781l-1.34473-3.58496h-13.56934L294.34082,166.01074z M293.78906,165.19629v-13.74023l1.27148-1.27148
					l3.31348,3.31348v9.97852L293.78906,165.19629z M294.28906,151.66309v12.8125l3.58496-1.34473v-9.42578l-2.81348-2.81348
					L294.28906,151.66309z M311.50391,152.32031h-13.4834l-2.29199-2.29297l2.29199-2.29199h13.4834l2.29297,2.29199
					L311.50391,152.32031z M298.22754,151.82031h13.06934l1.79297-1.79297l-1.79297-1.79199h-13.06934l-1.79199,1.79199
					L298.22754,151.82031z M314.46484,149.87012l-3.31445-3.31348l0.01562-10.91504l1.61133-4.29395l0.21582,0.05469
					c1.45215,0.36328,2.37207,1.2832,2.73535,2.73535l0.00781,14.46191L314.46484,149.87012z M311.65039,146.34961l2.81445,2.81348
					l0.77148-0.77051v-14.19434c-0.29395-1.14648-1.00098-1.90137-2.15039-2.25195l-1.43555,3.82812V146.34961z
					 M310.55273,135.97949l-12.46484-0.01562l-4.29395-1.60938l0.05469-0.2168c0.3623-1.45215,1.28223-2.37207,2.73438-2.73535
					l15.68848-0.00781L310.55273,135.97949z M298.2207,135.47949h11.98633l1.34375-3.58496h-14.90723
					c-1.14648,0.29395-1.90137,1.00098-2.25098,2.14941L298.2207,135.47949z"/>
			</g>
			<g>
				<path fill="#333333" d="M327.48535,136.75098v9.70215l-3.06348,3.06348l-1.02148-1.02051v-13.27637L327.48535,136.75098z
					 M323.40039,164.83594v-13.27637l1.02148-1.02148l3.06348,3.06348v9.70215L323.40039,164.83594z M341.27246,168.41016H325.9541
					c-1.3623-0.33984-2.21387-1.19141-2.55371-2.55273l4.08496-1.53223h12.25586L341.27246,168.41016z M339.74121,135.72949
					h-12.2041l-4.08496-1.53125c0.33984-1.36133,1.19141-2.21289,2.55273-2.55371h15.26758L339.74121,135.72949z
					 M340.76172,146.45312v-10.72363l1.53223-4.08496c1.36133,0.34082,2.21289,1.19238,2.55371,2.55371v14.29785l-1.02148,1.02051
					L340.76172,146.45312z M343.82617,150.53809l1.02148,1.02148v14.29785c-0.34082,1.36133-1.19238,2.21289-2.55371,2.55273
					l-1.53223-4.08496v-10.72363L343.82617,150.53809z"/>
				<path fill="#333333" d="M342.1377,168.70703l-1.62598-4.38184v-10.82715l3.31445-3.31348l1.27148,1.27148v14.40137
					c-0.37109,1.5127-1.29102,2.43262-2.74316,2.79492L342.1377,168.70703z M341.01172,164.28027l1.43652,3.82812
					c1.14844-0.34961,1.85547-1.1084,2.15723-2.31152l-0.00781-14.13379l-0.77148-0.77148l-2.81445,2.81348V164.28027z
					 M341.63281,168.66016H325.9541c-1.51367-0.37012-2.43359-1.29004-2.7959-2.74219l-0.05469-0.2168l4.38184-1.62598h12.42871
					L341.63281,168.66016z M323.70215,166.01074c0.34961,1.15039,1.1084,1.85645,2.3125,2.15723l14.89746-0.00781l-1.34375-3.58496
					h-12.03809L323.70215,166.01074z M323.15039,165.19629v-13.74023l1.27148-1.27148l3.31348,3.31348v9.97852L323.15039,165.19629z
					 M323.65039,151.66309v12.8125l3.58496-1.34473v-9.42578l-2.81348-2.81348L323.65039,151.66309z M324.42188,149.87012
					l-1.27148-1.27051v-13.74023l4.58496,1.71875v9.97852L324.42188,149.87012z M323.65039,148.39258l0.77148,0.77051
					l2.81348-2.81348v-9.42578l-3.58496-1.34375V148.39258z M343.82617,149.87012l-3.31445-3.31348l0.01562-10.91504
					l1.61133-4.29395l0.21582,0.05469c1.45215,0.36328,2.37207,1.2832,2.73535,2.73535l0.00781,14.46191L343.82617,149.87012z
					 M341.01172,146.34961l2.81445,2.81348l0.77148-0.77051v-14.19434c-0.29395-1.14648-1.00098-1.90137-2.15039-2.25195
					l-1.43555,3.82812V146.34961z M339.91406,135.97949l-12.46484-0.01562l-4.29395-1.60938l0.05469-0.2168
					c0.3623-1.45215,1.28223-2.37207,2.73438-2.73535l15.68848-0.00781L339.91406,135.97949z M327.58203,135.47949h11.98633
					l1.34375-3.58496h-14.90723c-1.14648,0.29395-1.90137,1.00098-2.25098,2.14941L327.58203,135.47949z"/>
			</g>
		</g>
	</g>
	<g>
		<g>
			<path fill="#FFFFFF" d="M172,171c-3.31348,0-6-2.68652-6-6v-28c0-3.31348,2.68652-6,6-6h56c3.31348,0,6,2.68652,6,6
				s-2.68652,6-6,6h-50v22C178,168.31348,175.31348,171,172,171z"/>
		</g>
	</g>
	<g>
		<g>
			<circle fill="#FFFFFF" cx="249.83333" cy="136.00006" r="6"/>
		</g>
	</g>
</g>
</svg>