<?xml version="1.0" encoding="utf-8"?>

<!DOCTYPE svg PUBLIC "-//W3C//DTD SVG 1.1//EN" "http://www.w3.org/Graphics/SVG/1.1/DTD/svg11.dtd">
<!-- Uploaded to: SVG Repo, www.svgrepo.com, Generator: SVG Repo Mixer Tools -->
<svg version="1.1" id="Icons" xmlns="http://www.w3.org/2000/svg" xmlns:xlink="http://www.w3.org/1999/xlink" 
	 width="800px" height="800px" viewBox="0 0 512 512" enable-background="new 0 0 512 512" xml:space="preserve">
<g id="Settings">
	<g>
		<g>
			<g>
				<g>
					<path fill="#FC8C12" d="M398.24878,512H113.75122C51.18805,512,0,460.81195,0,398.24878V113.75122
						C0,51.18805,51.18805,0,113.75122,0h284.49756C460.81195,0,512,51.18805,512,113.75122v284.49756
						C512,460.81195,460.81195,512,398.24878,512z"/>
				</g>
			</g>
		</g>
	</g>
	<g>
		<g opacity="0.1">
			<g>
				<path fill="#333333" d="M422.80707,227.43141l-33.32706-4.81145c-0.01321-0.02457-0.11578-0.06049-0.13281-0.10963
					c-2.16046-6.58206-4.61465-12.47563-7.41116-18.01526c-0.00284-0.01418-0.02353-0.09073,0.04358-0.1739l17.51334-24.31461
					c3.76242-4.70418,3.38748-11.45967-0.86542-15.71303l-34.30185-34.3067c-4.25385-4.25573-11.01068-4.63093-15.71249-0.87279
					l-24.31055,17.49675c-0.05295,0.04205-0.11942,0.05292-0.17331,0.02646c-5.74423-2.8967-11.80527-5.39835-18.0145-7.435
					c-0.05386-0.01749-0.09552-0.07373-0.10309-0.14697l-4.81808-33.04914C300.5368,100.11305,295.60437,96,289.466,96h-48.51892
					c-6.13739,0-11.06981,4.11305-11.72664,10.00331l-4.81618,33.30548c0,0-0.02551-0.01074-0.10585,0.01572
					c-6.34532,2.08392-12.4071,4.55611-18.0162,7.38759c-0.0274,0.01559-0.10207,0.00061-0.17296-0.05609l-24.31366-17.5184
					c-4.7037-3.76099-11.45825-3.39213-15.71399,0.86313l-34.30574,34.29974c-4.25762,4.25621-4.63282,11.01057-0.87326,15.71144
					l17.4977,24.31099c0.04158,0.05293,0.05197,0.12035,0.02551,0.17232c-2.89481,5.73952-5.39645,11.80077-7.43501,18.01472
					c-0.01794,0.05434-0.07466,0.09636-0.13231,0.10249l-34.45807,4.81898C100.15528,228.12749,95,233.27914,95,239.159v48.51846
					c0,5.87985,5.15528,11.03152,11.40515,11.72806l33.99129,4.81805c0.13609,0.01559,0.35199,0.11722,0.36806,0.10397
					c1.93555,5.89215,4.50215,11.95395,7.56235,18.0162c0.03685,0.07278,0.05232,0.14554,0.02869,0.17484l-17.47437,24.31226
					c-3.75578,4.69803-3.37175,11.45258,0.88776,15.71304l34.31064,34.3067c4.25668,4.2576,11.01508,4.63187,15.71594,0.87231
					l24.3123-17.49771c0.05386-0.04251,0.12405-0.05292,0.17415-0.02646c5.7433,2.8967,11.80522,5.39835,18.01729,7.43594
					c0.05386,0.01797,0.09552,0.07468,0.10213,0.13705l4.81903,33.64011C229.89615,427.47647,235.04785,432,240.94803,432H289.466
					c5.90021,0,11.05093-4.52258,11.7276-10.59003l4.819-33.58752c0.0123-0.10867,0.08694-0.15106,0.10303-0.16522
					c6.03818-1.98187,12.09995-4.47397,18.0181-7.4614c0.05859-0.03024,0.12665-0.01416,0.17294,0.02176l24.3118,17.50009
					c4.70087,3.75766,11.45541,3.38507,15.71301-0.8735l34.3067-34.3049c4.25668-4.25668,4.63187-11.01129,0.87326-15.7131
					l-17.49673-24.30945c-0.04254-0.05338-0.05389-0.12405-0.0274-0.17508c2.89667-5.74423,5.39832-11.80545,7.435-18.01468
					c0.01794-0.05481,0.07465-0.09683,0.15216-0.10532l33.23166-4.81662C428.60425,298.75858,433,293.93631,433,287.67746V239.159
					C433,232.90063,428.60519,228.07785,422.80707,227.43141z M337.34323,263.418c0,39.7764-32.36075,72.13666-72.13669,72.13666
					s-72.13666-32.36026-72.13666-72.13666s32.36075-72.13667,72.13666-72.13667S337.34323,223.6416,337.34323,263.418z"/>
			</g>
		</g>
		<g>
			<g>
				<path fill="#EAEAEA" d="M412.03403,225.13744l-32.36053-4.81882c-2.32159-0.25883-3.69489-1.84258-4.4238-4.06206
					c-1.95279-5.94649-4.03662-11.69693-6.82037-17.21164c-1.05283-2.08546-0.63623-4.59224,0.82297-6.41673l17.57724-24.3129
					c1.90695-2.38477,1.7532-5.82193-0.40585-7.98116l-34.28491-34.30652c-2.15906-2.15923-5.58688-2.35014-7.9718-0.44336
					l-24.30716,17.49722c-1.82379,1.45808-4.3269,1.72726-6.41177,0.6758c-5.51413-2.7811-11.26288-5.15221-17.20889-7.10257
					c-2.22073-0.72844-3.80505-2.69298-4.06378-5.0157l-4.81778-30.92514C287.01926,97.67948,284.45432,98,281.40097,98h-48.5182
					c-3.0531,0-5.61832-0.32057-5.95665,2.71375l-4.819,32.23415c-0.25873,2.32167-1.84245,3.63177-4.062,4.36073
					c-5.94649,1.95296-11.69688,4.00508-17.21147,6.78889c-2.08557,1.05266-4.59241,0.6203-6.41667-0.83862l-24.31319-17.58504
					c-2.38493-1.90701-5.82199-1.75721-7.98128,0.40185l-34.30622,34.28294c-2.15929,2.15906-2.35043,5.58601-0.44348,7.97093
					l17.49746,24.30638c1.45804,1.82372,1.72714,4.32671,0.67574,6.41151c-2.78116,5.51436-5.15237,11.26276-7.10257,17.20883
					c-0.72842,2.22072-2.69302,3.80499-5.01582,4.06395l-35.81941,4.81757C94.57376,225.4761,90,228.04099,90,231.09421v48.51852
					c0,3.05316,4.57376,5.61835,7.60796,5.9567l34.68153,4.81879c2.32161,0.25882,4.85539,1.84256,5.58429,4.0621
					c1.95279,5.94647,4.61688,11.69693,7.40063,17.21164c1.05283,2.08539,0.92636,4.59222-0.53285,6.41669l-17.43216,24.3129
					c-1.90695,2.38474-1.68068,5.8219,0.47838,7.98114l34.32118,34.30652c2.15906,2.15924,5.60501,2.35019,7.98993,0.44336
					l24.31599-17.49722c1.82355-1.4581,4.33144-1.72726,6.41608-0.67578c5.51459,2.78116,11.26537,5.15225,17.21162,7.10269
					c2.22049,0.72836,3.8062,2.6929,4.06491,5.01562l4.81834,36.07166c0.33833,3.03442,2.90382,7.86047,5.95717,7.86047h48.5182
					c3.0531,0,5.61832-4.82599,5.95667-7.86038l4.819-34.80731c0.25873-2.32172,1.84244-4.91846,4.06198-5.6474
					c5.9465-1.95297,11.69711-4.64841,17.21194-7.43222c2.08533-1.05273,4.59219-0.94202,6.41669,0.51691l24.31271,17.42419
					c2.38492,1.90701,5.82199,1.67679,7.98126-0.48221l34.30621-34.32321c2.1593-2.159,2.35043-5.60605,0.44348-7.99097
					l-17.49744-24.3165c-1.45804-1.8237-1.72714-4.33167-0.67575-6.41653c2.78116-5.51428,5.15237-11.2652,7.10257-17.21127
					c0.72842-2.22073,2.69302-3.80634,5.01584-4.06528l31.1774-4.81821c3.03445-0.3382,2.96622-2.90378,2.96622-5.95694v-48.51859
					C415,228.04092,415.06824,225.47572,412.03403,225.13744z M257.142,333.29672c-43.04688,0-77.9433-34.89642-77.9433-77.94328
					c0-43.04692,34.89642-77.9433,77.9433-77.9433s77.9433,34.89638,77.9433,77.9433
					C335.0853,298.4003,300.18887,333.29672,257.142,333.29672z"/>
			</g>
			<g>
				<path fill="#333333" d="M281.40137,429h-48.51855c-6.78613,0-11.2627-7.5957-11.91211-13.12207l-4.81055-36.01562
					c-0.00586-0.04297-0.01074-0.08594-0.01562-0.12988c-6.19336-2.02051-12.26367-4.52539-18.01562-7.42578
					c-0.0791,0.06348-0.12695,0.12891-0.20898,0.18848l-24.21387,17.42383c-4.77832,3.70703-11.55566,3.29004-15.84082-0.99902
					l-34.31836-34.30371c-4.2959-4.29492-4.72754-11.06641-1.03711-15.82715l17.35547-24.20654
					c0.0293-0.04102,0.05957-0.08203,0.08984-0.12256c-0.00684-0.02588-0.01855-0.05811-0.03711-0.09424
					c-2.38867-4.73145-5.40625-11.00586-7.64551-17.74414c-0.16406-0.11816-0.44727-0.24805-0.64746-0.27051
					c-0.05469-0.00586-0.1084-0.0127-0.16211-0.02002l-34.61426-4.80957C91.42969,290.875,84,286.40869,84,279.61279v-48.51855
					c0-6.80225,7.44434-11.27051,12.86426-11.91064l35.76367-4.80957c0.04492-0.00635,0.08984-0.01172,0.13574-0.0166
					c2.01758-6.18701,4.52246-12.25684,7.4248-18.01172c-0.0625-0.0791-0.12891-0.12256-0.1875-0.20459l-17.42383-24.20361
					c-3.70117-4.76855-3.28613-11.53955,0.99707-15.82178l34.30664-34.28418c4.27344-4.27246,11.05176-4.66699,15.83594-0.94922
					l24.2168,17.51465c0.07812,0.05713,0.15527,0.11572,0.23145,0.17627c0.0498,0.04004,0.09668,0.06641,0.13477,0.08301
					c5.95996-2.9917,12.11035-5.15527,17.87305-7.04785c0.02441-0.0083,0.04883-0.0166,0.07129-0.02441l4.73438-31.66797
					c0.42871-3.45703,2.44727-6.09033,5.55469-7.23682c1.94727-0.71826,3.8877-0.70166,5.60449-0.68408L232.88281,92
					l49.2627-0.00488c1.7168-0.0166,3.6582-0.03418,5.60449,0.68408c3.10156,1.14453,5.11816,3.76855,5.55176,7.21484
					l4.80273,30.82129c0.01367,0.08691,0.02539,0.17432,0.03516,0.26172c6.18555,2.01514,12.25586,4.52051,18.01074,7.42285
					c0.0791-0.06299,0.12109-0.12891,0.2041-0.18799l24.2041-17.42285c4.76855-3.70166,11.54199-3.28662,15.82324,0.99658
					l34.28613,34.30713c4.27344,4.27344,4.6709,11.05273,0.95215,15.83643l-17.50586,24.21436
					c-0.05664,0.0791-0.11621,0.15625-0.17676,0.23242c-0.03516,0.04443-0.05859,0.08643-0.07324,0.12012
					c3.08301,6.14209,5.31152,12.48535,7.08594,17.8877c0.00684,0.02197,0.01465,0.04248,0.02148,0.06201l31.85449,4.74316
					c8.17969,0.99463,8.1748,9.05322,8.17383,11.71094v48.90771c0.00098,1.82324,0.00195,3.89014-0.72461,5.90576
					c-1.17188,3.24805-3.87305,5.35596-7.4248,5.80176l-31.07812,4.80225c-0.08301,0.0127-0.16699,0.02393-0.25098,0.0332
					c-2.02051,6.19434-4.52539,12.26514-7.42578,18.01562c0.06348,0.07959,0.12891,0.12793,0.18848,0.21045l17.42285,24.21338
					c3.70605,4.77441,3.29102,11.55371-0.99707,15.84082l-34.30469,34.32227c-4.29688,4.2959-11.06543,4.72949-15.82715,1.04004
					l-24.20605-17.34668c-0.03613-0.02637-0.07227-0.05273-0.1084-0.08008c-0.03027,0.00879-0.06738,0.02148-0.1084,0.04297
					c-5.10742,2.57715-11.19238,5.49414-17.71777,7.66797c-0.12988,0.18164-0.27246,0.49609-0.29785,0.71973
					c-0.00586,0.05273-0.0127,0.10547-0.01953,0.1582l-4.81055,34.74023C292.65527,421.4209,288.18164,429,281.40137,429z
					 M233.95605,417h46.37207c0.45898-0.6416,0.9834-1.7832,1.06641-2.52441c0.00586-0.05273,0.0127-0.10645,0.01953-0.15918
					l4.80957-34.74023c0.57715-4.85449,3.91406-9.20215,8.14258-10.5918c5.89453-1.93652,11.58887-4.66992,16.38184-7.08789
					c4.18066-2.11035,9.15137-1.68457,12.71875,1.07129l24.20898,17.34863c0.08594,0.06152,0.16992,0.125,0.25195,0.19141
					l34.29688-34.36035c-0.06445-0.08008-0.12402-0.16309-0.18359-0.24512l-17.42383-24.21484
					c-2.82129-3.63916-3.31055-8.61426-1.23535-12.72559c2.62988-5.21533,4.90332-10.72607,6.75781-16.37891
					c1.44043-4.39014,5.31738-7.57129,9.90332-8.14062L409,279.96729c0-0.05225,0-0.104,0-0.15381v-48.91943
					c0-0.04639,0-0.09424,0-0.14258l-30.12012-4.48486c-4.41211-0.54102-7.80859-3.50098-9.33105-8.13916
					c-1.64941-5.02344-3.70996-10.89844-6.47559-16.37939c-2.04395-4.04785-1.49512-9.02783,1.38867-12.73438l17.50488-24.21338
					c0.05664-0.0791,0.11621-0.15625,0.17676-0.23242l-34.24902-34.29883c-0.0791,0.06348-0.13965,0.12598-0.22266,0.18506
					l-24.20508,17.42334c-3.6377,2.82129-8.61035,3.31006-12.71973,1.2373c-5.2207-2.63281-10.73047-4.90674-16.37793-6.75879
					c-4.38965-1.43994-7.56934-5.31592-8.13867-9.90039l-4.43359-28.45801L281.40137,104l-48.89941-0.00244l-4.44727,29.74756
					c-0.32422,2.62793-1.82715,7.19141-8.1377,9.26416c-5.37207,1.76416-11.07422,3.76611-16.37891,6.44434
					c-4.04199,2.03955-9.02344,1.48438-12.73633-1.40479l-24.21484-17.51318c-0.07812-0.05713-0.15527-0.11572-0.23047-0.17578
					l-34.29883,34.24316c0.06348,0.0791,0.12598,0.13916,0.18457,0.22119l17.42383,24.2041
					c2.82129,3.63867,3.31055,8.61182,1.23633,12.72168c-2.63184,5.21924-4.90527,10.729-6.75781,16.37598
					c-1.44727,4.41211-5.35547,7.60254-9.97168,8.14844l-35.76465,4.80957c-0.04492,0.00635-0.08984,0.01172-0.13477,0.0166
					c-0.66797,0.07471-1.69629,0.55957-2.27344,0.9834v46.53906c0.57715,0.42383,1.60547,0.90869,2.27344,0.9834
					c0.05371,0.00586,0.10742,0.0127,0.16113,0.02002l34.61426,4.80957c4.81445,0.57373,9.13477,3.90967,10.52539,8.14062
					c2,6.09277,4.82129,11.95508,7.05664,16.38135c2.10742,4.17578,1.67578,9.14697-1.08887,12.72168l-17.35645,24.20801
					c-0.06055,0.08496-0.125,0.16895-0.19043,0.25098l34.35547,34.29688c0.0791-0.06348,0.16113-0.12402,0.24316-0.18262
					l24.21484-17.4248c3.63672-2.81836,8.61035-3.30859,12.72266-1.2373c5.21777,2.63184,10.72852,4.90625,16.38184,6.75977
					c4.41211,1.44824,7.60254,5.35742,8.14844,9.97363l4.81152,36.02148c0.00586,0.04199,0.01074,0.08496,0.01562,0.12793
					C232.97168,415.21582,233.49707,416.3584,233.95605,417z M411.36914,231.1001h0.00977H411.36914z M216.66309,131.40186
					L216.66309,131.40186L216.66309,131.40186z M257.1416,339.29688c-46.28613,0-83.94336-37.65674-83.94336-83.94336
					s37.65723-83.94336,83.94336-83.94336s83.94336,37.65674,83.94336,83.94336S303.42773,339.29688,257.1416,339.29688z
					 M257.1416,183.41016c-39.66992,0-71.94336,32.27344-71.94336,71.94336s32.27344,71.94336,71.94336,71.94336
					s71.94336-32.27344,71.94336-71.94336S296.81152,183.41016,257.1416,183.41016z"/>
			</g>
		</g>
		<g opacity="0.1">
			<g>
				<path d="M263.2709,213.0943c-26.68173,0-48.38852,21.70679-48.38852,48.38852c0,26.6817,21.70679,48.38849,48.38852,48.38849
					c26.6817,0,48.38849-21.70679,48.38849-48.38849C311.65939,234.80109,289.95261,213.0943,263.2709,213.0943z"/>
			</g>
		</g>
		<g>
			<g>
				<circle fill="#EAEAEA" cx="257.14206" cy="255.35338" r="42.58188"/>
			</g>
			<g>
				<path fill="#333333" d="M257.1416,303.93506c-26.78809,0-48.58105-21.79346-48.58105-48.58154
					s21.79297-48.58203,48.58105-48.58203s48.58203,21.79395,48.58203,48.58203S283.92969,303.93506,257.1416,303.93506z
					 M257.1416,218.77148c-20.1709,0-36.58105,16.41064-36.58105,36.58203c0,20.1709,16.41016,36.58154,36.58105,36.58154
					c20.17188,0,36.58203-16.41064,36.58203-36.58154C293.72363,235.18213,277.31348,218.77148,257.1416,218.77148z"/>
			</g>
		</g>
		<g>
			<g>
				<path fill="#FFFFFF" d="M155.52637,261.35352c-3.31348,0-6-2.68652-6-6c0-58.80615,47.8418-106.64844,106.64746-106.64844
					c3.31348,0,6,2.68652,6,6s-2.68652,6-6,6c-52.18848,0-94.64746,42.45898-94.64746,94.64844
					C161.52637,258.66699,158.83984,261.35352,155.52637,261.35352z"/>
			</g>
		</g>
		<g>
			<g>
				<circle fill="#FFFFFF" cx="279.7291" cy="157.12338" r="6.46646"/>
			</g>
		</g>
	</g>
</g>
</svg>