<?xml version="1.0" ?>
<!DOCTYPE svg  PUBLIC '-//W3C//DTD SVG 1.1//EN'  'http://www.w3.org/Graphics/SVG/1.1/DTD/svg11.dtd'>
<!-- Uploaded to: SVG Repo, www.svgrepo.com, Generator: SVG Repo Mixer Tools -->
<svg width="800px" height="800px" viewBox="0 0 512 512" version="1.1" xml:space="preserve" xmlns="http://www.w3.org/2000/svg" xmlns:xlink="http://www.w3.org/1999/xlink">
<g id="_x35_89_x2C__Heart_x2C__Arrow_x2C__Holidays_x2C__love_x2C__valentine">
<g>
<path d="M368.059,155.471c17.421,15.65,28.391,38.54,28.391,64.03c0,85.39-83.891,134.01-167.68,219.4    c-83.79-85.39-167.59-134.01-167.59-219.4c0-47.14,37.54-85.39,83.8-85.39c41.89,0,62.84,21.35,83.79,64.04    c20.95-42.69,41.89-64.04,83.789-64.04C333.849,134.111,353.279,142.171,368.059,155.471z" style="fill:#EF3E5C;"/>
<g>
<g>
<g>
<path d="M79.305,224.741c0-47.14,37.54-85.39,83.8-85.39c5.744,0,11.083,0.417,16.094,1.219       c-9.745-4.3-20.925-6.458-34.219-6.458c-46.26,0-83.8,38.25-83.8,85.39c0,85.39,83.8,134.01,167.59,219.4       c2.14-2.181,4.28-4.332,6.419-6.467C155.476,354.14,79.305,306.151,79.305,224.741z" style="fill:#E42A53;"/>
</g>
</g>
</g>
<path d="M215.221,300.571c-1.353,0-2.701-0.546-3.687-1.621c-1.866-2.036-1.729-5.199,0.307-7.064    L429.312,92.535c2.035-1.866,5.198-1.729,7.064,0.308c1.865,2.036,1.728,5.199-0.309,7.064l-217.47,199.35    C217.639,300.137,216.428,300.571,215.221,300.571z" style="fill:#D30045;"/>
<path d="M423.633,155.592c-0.401,0-0.81-0.048-1.217-0.15l-36.24-9.06c-1.791-0.448-3.19-1.847-3.638-3.639    l-9.06-36.25c-0.67-2.679,0.959-5.394,3.639-6.063c2.673-0.672,5.393,0.959,6.063,3.638l8.333,33.339l33.329,8.333    c2.679,0.669,4.308,3.384,3.638,6.063C427.912,154.076,425.873,155.592,423.633,155.592z" style="fill:#D30045;"/>
<path d="M450.823,128.402c-0.401,0-0.81-0.048-1.216-0.15l-36.25-9.06c-1.788-0.447-3.185-1.84-3.636-3.626    l-0.311-1.23l-8.753-35.022c-0.67-2.679,0.959-5.394,3.639-6.063c2.671-0.673,5.394,0.958,6.063,3.638l8.33,33.329l33.342,8.333    c2.68,0.669,4.309,3.384,3.639,6.063C455.103,126.886,453.063,128.402,450.823,128.402z" style="fill:#D30045;"/>
<path d="M61.179,436.491c-0.693,0-1.391-0.144-2.048-0.438c-1.796-0.807-2.951-2.593-2.951-4.562v-36.25    c0-2.762,2.238-5,5-5c2.761,0,5,2.238,5,5v25.115l73.228-65.093c2.063-1.835,5.225-1.647,7.059,0.415    c1.835,2.064,1.649,5.225-0.415,7.06l-81.55,72.49C63.567,436.058,62.381,436.491,61.179,436.491z" style="fill:#E42A53;"/>
<path d="M97.43,436.491H61.18c-2.762,0-5-2.238-5-5s2.238-5,5-5h36.25c2.761,0,5,2.238,5,5    S100.19,436.491,97.43,436.491z" style="fill:#E42A53;"/>
<path d="M97.424,246.202c-2.538,0-4.712-1.924-4.97-4.503c-2.976-29.76,3.194-51.665,18.338-65.105    c23.289-20.669,58.716-13.095,60.212-12.763c2.695,0.599,4.396,3.27,3.796,5.965c-0.598,2.694-3.266,4.39-5.959,3.798l0,0    c-0.317-0.069-32.026-6.775-51.451,10.515c-12.579,11.195-17.62,30.237-14.985,56.595c0.275,2.748-1.729,5.198-4.478,5.473    C97.758,246.193,97.59,246.202,97.424,246.202z" style="fill:#E42A53;"/>
</g>
</g>
<g id="Layer_1"/>
</svg>