<?xml version="1.0" encoding="utf-8"?>
<!-- Uploaded to: SVG Repo, www.svgrepo.com, Generator: SVG Repo Mixer Tools -->
<svg width="800px" height="800px" viewBox="0 0 1024 1024" class="icon"  version="1.1" xmlns="http://www.w3.org/2000/svg"><path d="M287.857778 297.927111c46.08-33.379556 120.803556-50.062222 224.142222-50.062222s178.062222 16.682667 224.142222 50.062222a42.666667 42.666667 0 0 1 17.635556 34.56v497.905778a42.666667 42.666667 0 0 1-21.390222 36.977778c-52.209778 30.051556-125.838222 45.084444-220.856889 45.084444-94.961778 0-168.32-15.018667-220.060445-45.027555A42.666667 42.666667 0 0 1 270.222222 830.520889V332.472889a42.666667 42.666667 0 0 1 17.635556-34.56z" fill="#FA1C3D" /><path d="M512 247.864889c103.338667 0 178.062222 16.682667 224.142222 50.062222a42.666667 42.666667 0 0 1 17.635556 34.56v497.905778a42.666667 42.666667 0 0 1-21.390222 36.977778c-52.209778 30.051556-125.838222 45.084444-220.856889 45.084444-94.961778 0-168.32-15.018667-220.060445-45.027555A42.666667 42.666667 0 0 1 270.222222 830.520889V332.472889a42.666667 42.666667 0 0 1 17.635556-34.56c46.08-33.365333 120.803556-50.062222 224.142222-50.062222z m0 14.222222c-100.622222 0-172.600889 16.071111-215.793778 47.36a28.444444 28.444444 0 0 0-11.662222 20.565333l-0.099556 2.460445v498.048a28.444444 28.444444 0 0 0 14.165334 24.604444c49.265778 28.586667 120.248889 43.093333 212.920889 43.093334 92.743111 0 164.010667-14.535111 213.76-43.178667a28.444444 28.444444 0 0 0 14.165333-22.328889l0.099556-2.318222v-497.92a28.444444 28.444444 0 0 0-11.761778-23.04c-43.192889-31.274667-115.171556-47.36-215.793778-47.36z" fill="#B2181A" /><path d="M284.444444 347.605333c53.816889 37.930667 129.664 56.888889 227.555556 56.888889 97.891556 0 173.738667-18.958222 227.555556-56.888889v93.44c-53.816889 37.916444-129.664 56.888889-227.555556 56.888889-97.891556 0-173.738667-18.972444-227.555556-56.888889v-93.44z" fill="#FDD821" /><path d="M746.666667 444.728889v-110.833778l-11.207111 7.907556c-52.48 36.977778-126.919111 55.580444-223.459556 55.580444s-170.993778-18.602667-223.459556-55.580444l-11.207111-7.907556v110.833778l3.015111 2.119111C335.502222 485.717333 412.757333 505.031111 512 505.031111s176.497778-19.313778 231.651556-58.183111l3.015111-2.133333z m-14.222223-83.882667v76.430222l3.015112-2.048c-52.48 36.977778-126.919111 55.580444-223.459556 55.580445l-8.462222-0.042667c-89.642667-1.038222-159.715556-18.545778-210.304-52.337778l-1.678222-1.137777v-76.444445l3.911111 2.417778c53.845333 32.284444 126.051556 48.355556 216.533333 48.355556s162.688-16.071111 216.533333-48.355556l3.911111-2.417778z" fill="#B2181A" /><path d="M284.444444 753.777778c53.816889 37.930667 129.664 56.888889 227.555556 56.888889 97.891556 0 173.738667-18.958222 227.555556-56.888889v93.425778c-53.816889 37.930667-129.664 56.888889-227.555556 56.888888-97.891556 0-173.738667-18.958222-227.555556-56.888888V753.777778z" fill="#FDD821" /><path d="M746.666667 850.887111v-110.819555l-11.207111 7.893333C682.979556 784.938667 608.540444 803.555556 512 803.555556s-170.993778-18.616889-223.459556-55.594667l-11.207111-7.893333v110.819555l3.015111 2.133333c55.153778 38.869333 132.408889 58.183111 231.651556 58.183112s176.497778-19.313778 231.651556-58.183112l3.015111-2.133333z m-14.222223-83.882667v76.444445l3.015112-2.062222c-52.48 36.977778-126.919111 55.594667-223.459556 55.594666l-8.462222-0.042666c-89.642667-1.038222-159.715556-18.545778-210.304-52.337778l-1.678222-1.137778V767.004444l3.911111 2.417778c53.845333 32.298667 126.051556 48.355556 216.533333 48.355556s162.688-16.056889 216.533333-48.355556l3.911111-2.417778z" fill="#B2181A" /><path d="M512 493.312L672.910222 654.222222 512 815.132444 351.089778 654.222222z" fill="#FDD821" /><path d="M672.910222 654.222222L512 815.132444 351.089778 654.222222 512 493.312 672.910222 654.222222z m-20.124444 0L512 513.422222 371.2 654.222222l140.8 140.8 140.8-140.8z" fill="#B2181A" /><path d="M475.747556 684.444444c3.811556-0.056889 6.912 0.056889 9.301333 0.341334 2.389333 0.284444 4.209778 0.654222 5.461333 1.109333a7.495111 7.495111 0 0 1 2.730667 1.536c1.251556 1.137778 1.763556 2.275556 1.536 3.413333-0.227556 1.137778-1.251556 1.820444-3.072 2.048a85.333333 85.333333 0 0 0-11.605333 2.389334 57.315556 57.315556 0 0 0-9.898667 4.096 9.272889 9.272889 0 0 1-3.84 1.024 19.953778 19.953778 0 0 1-4.522667-0.170667 15.573333 15.573333 0 0 1-4.096-1.194667 8.248889 8.248889 0 0 1-2.901333-2.048c-2.275556-2.844444-3.043556-5.404444-2.304-7.68 0.739556-2.275556 3.726222-3.640889 8.96-4.096 5.688889-0.455111 10.439111-0.711111 14.250667-0.768z m27.306666-1.450666c1.649778 0 3.669333 0.512 6.058667 1.536 1.024 0.455111 2.417778 0.824889 4.181333 1.109333 1.763556 0.284444 4.835556 0.512 9.216 0.682667 4.380444 0.170667 10.496 0.256 18.346667 0.256h31.744c2.844444-0.113778 4.778667 0.256 5.802667 1.109333 1.024 0.853333 1.479111 2.133333 1.365333 3.84 0 1.592889-0.341333 2.730667-1.024 3.413333-0.682667 0.682667-2.104889 1.137778-4.266667 1.365334-10.808889 0.568889-20.622222 0.881778-29.44 0.938666-8.817778 0.056889-15.672889-0.028444-20.565333-0.256a17.962667 17.962667 0 0 0-5.205333 0.085334c-2.104889 0.284444-3.555556 0.597333-4.352 0.938666a10.140444 10.140444 0 0 1-7.936 0.170667c-2.56-1.024-5.319111-3.754667-8.277334-8.192a5.319111 5.319111 0 0 1-0.853333-3.328 3.768889 3.768889 0 0 1 1.450667-2.645333c0.853333-0.682667 2.104889-1.024 3.754666-1.024z m14.321778-31.886222l1.464889 0.142222c1.024 0.227556 2.161778 0.568889 3.413333 1.024a8.248889 8.248889 0 0 0 3.584 1.024c2.730667 0.227556 5.575111 0.426667 8.533334 0.597333 2.958222 0.170667 5.717333 0.227556 8.277333 0.170667 2.56-0.056889 4.778667-0.199111 6.656-0.426667a9.671111 9.671111 0 0 0 3.84-1.024 6.101333 6.101333 0 0 1 2.645333-0.768 8.917333 8.917333 0 0 1 7.68 2.901333c1.080889 1.194667 1.678222 2.929778 1.792 5.205334 0.113778 1.365333 0.284444 3.100444 0.512 5.205333 0.227556 2.104889 0.512 4.067556 0.853334 5.888a8.590222 8.590222 0 0 1-0.170667 5.12 8.291556 8.291556 0 0 1-6.314667 5.290667 6.641778 6.641778 0 0 1-3.925333-0.512 15.544889 15.544889 0 0 0-5.973333-1.194667c-3.640889 0.341333-7.651556 0.540444-12.032 0.597333-4.380444 0.056889-9.130667-0.028444-14.250667-0.256a8.277333 8.277333 0 0 0-3.754667 0.853334 10.140444 10.140444 0 0 1-3.754666 0.938666 8.163556 8.163556 0 0 1-3.242667-0.426666c-3.754667-1.251556-5.12-4.551111-4.096-9.898667 0.455111-1.706667 0.910222-3.953778 1.365333-6.741333 0.455111-2.787556 0.796444-5.205333 1.024-7.253334 0.227556-2.844444 0.853333-4.693333 1.877334-5.546666 1.024-0.853333 2.844444-1.109333 5.461333-0.768l-1.464889-0.142222z m-43.292444-53.76l1.422222 0.142222c3.413333 0.568889 5.688889 1.848889 6.826666 3.84 1.137778 1.991111 1.706667 4.920889 1.706667 8.789333s-0.071111 8.248889-0.184889 13.141333c-0.113778 4.892444-0.284444 9.841778-0.512 14.848 0 2.844444 1.137778 3.584 3.413334 2.218667l3.754666-2.133333c1.479111-0.853333 2.673778-1.507556 3.584-1.962667 0.682667-0.341333 1.422222-0.455111 2.218667-0.341333 0.796444 0.113778 1.479111 0.568889 2.048 1.365333 2.161778 2.730667 2.332444 5.006222 0.512 6.826667a82.190222 82.190222 0 0 1-10.752 9.045333c-0.568889 0.341333-0.796444 0.967111-0.682667 1.877333s0.455111 1.706667 1.024 2.389334c1.251556 1.251556 2.389333 2.531556 3.413334 3.84l3.242666 4.181333c1.251556 1.706667 1.934222 3.328 2.048 4.864 0.113778 1.536-0.796444 3.271111-2.730666 5.205333a8.704 8.704 0 0 1-4.778667 2.389334c-1.934222 0.341333-3.356444 0.227556-4.266667-0.341334-1.592889-1.251556-4.209778-1.820444-7.850666-1.706666-1.706667 0.113778-3.441778 0.170667-5.205334 0.170666s-3.953778-0.113778-6.570666-0.341333a20.693333 20.693333 0 0 0-4.778667 0.170667 13.852444 13.852444 0 0 0-4.266667 1.706666c-0.568889 0.341333-1.763556 0.256-3.584-0.256a13.056 13.056 0 0 1-4.949333-2.645333c-3.072-2.844444-4.209778-5.859556-3.413333-9.045333 0.568889-1.934222 1.536-3.043556 2.901333-3.328 1.365333-0.284444 3.185778-0.028444 5.461333 0.768a178.545778 178.545778 0 0 0 15.872 2.816c2.161778 0.284444 4.096 0.426667 5.802667 0.426666 2.616889 0 4.067556-0.312889 4.352-0.938666 0.284444-0.625778-0.312889-1.848889-1.792-3.669334a62.72 62.72 0 0 0-8.789333-8.448 89.429333 89.429333 0 0 0-11.434667-7.765333 99.939556 99.939556 0 0 0-13.141333-6.314667 77.937778 77.937778 0 0 0-14.08-4.096c-3.185778-0.682667-4.039111-2.332444-2.56-4.949333a14.933333 14.933333 0 0 1 5.12-5.461333c1.934222-1.137778 3.925333-1.820444 5.973333-2.048 2.048-0.227556 4.067556-0.085333 6.058667 0.426666s3.726222 1.166222 5.205333 1.962667a162.204444 162.204444 0 0 1 17.92 11.776c1.479111 1.137778 2.104889 1.080889 1.877333-0.170667-0.455111-5.12-0.824889-10.040889-1.109333-14.762666-0.284444-4.721778-0.597333-9.642667-0.938667-14.762667-0.568889-7.281778 2.104889-10.467556 8.021334-9.557333l-1.408-0.142222z m57.898666 64.312888h-6.997333c-0.910222 0-1.479111 0.455111-1.706667 1.365334-0.227556 1.137778-0.341333 2.218667-0.341333 3.242666a14.122667 14.122667 0 0 1-0.341333 3.072c-0.227556 1.251556 0.284444 1.877333 1.536 1.877334 4.551111 0.341333 8.704 0.512 12.458666 0.512s7.964444-0.170667 12.629334-0.512c1.592889-0.113778 2.616889-0.426667 3.072-0.938667 0.455111-0.512 0.739556-1.507556 0.853333-2.986667 0-1.592889-0.284444-2.730667-0.853333-3.413333-0.568889-0.682667-1.536-1.137778-2.901334-1.365333a29.525333 29.525333 0 0 0-4.352-0.512 269.923556 269.923556 0 0 0-13.056-0.341334z m35.925334-62.890666a8.106667 8.106667 0 0 1 5.034666 0.768c1.592889 0.796444 2.929778 2.304 4.010667 4.522666 1.080889 2.218667 1.507556 5.432889 1.28 9.642667-0.227556 4.778667-0.142222 9.159111 0.256 13.141333 0.398222 3.982222 0.995556 7.338667 1.792 10.069334 0.568889 2.389333 0.654222 4.266667 0.256 5.632a11.050667 11.050667 0 0 1-2.986667 4.437333 9.130667 9.130667 0 0 1-5.461333 2.645333 7.850667 7.850667 0 0 1-4.437333-0.597333 13.923556 13.923556 0 0 0-4.778667-1.365333c-1.479111-0.113778-3.697778 0-6.656 0.341333-3.299556 0.455111-6.4 0.768-9.301333 0.938667-2.901333 0.170667-5.831111 0.256-8.789334 0.256-2.958222 0-6.030222-0.142222-9.216-0.426667-3.185778-0.284444-6.599111-0.654222-10.24-1.109333a8.248889 8.248889 0 0 0-2.048-0.085334 4.295111 4.295111 0 0 0-1.877333 0.597334c-2.958222 1.251556-5.461333 1.592889-7.509333 1.024a7.011556 7.011556 0 0 1-2.56-1.450667 16.312889 16.312889 0 0 1-2.218667-2.645333c-1.137778-1.479111-1.251556-3.868444-0.341333-7.168 0.227556-1.024 0.426667-2.673778 0.597333-4.949334a234.88 234.88 0 0 0 0.597333-14.933333 73.244444 73.244444 0 0 0-0.170666-5.717333c-0.227556-3.982222 0.426667-7.168 1.962666-9.557334a8.206222 8.206222 0 0 1 6.570667-3.925333 11.349333 11.349333 0 0 1 4.266667 0.426667 4.352 4.352 0 0 1 2.730666 2.474666c0.227556 0.568889 0.682667 0.853333 1.365334 0.853334 6.826667 0.568889 12.629333 0.938667 17.408 1.109333a103.822222 103.822222 0 0 0 12.202666-0.170667c3.356444-0.284444 6.115556-0.711111 8.277334-1.28a29.297778 29.297778 0 0 0 5.632-2.048 12.231111 12.231111 0 0 1 4.352-1.450666z m-50.090667 31.317333c-1.137778 0-1.706667 0.568889-1.706667 1.706667 0 2.389333 0.170667 4.778667 0.512 7.168 0 0.910222 0.455111 1.365333 1.365334 1.365333 2.275556 0.227556 4.238222 0.398222 5.888 0.512 1.649778 0.113778 3.441778 0.170667 5.376 0.170667 1.251556 0 1.877333-0.455111 1.877333-1.365334 0.227556-1.137778 0.341333-2.304 0.341333-3.498666v-3.669334c0-1.137778-0.568889-1.763556-1.706666-1.877333-2.275556 0-4.266667-0.056889-5.973334-0.170667a365.795556 365.795556 0 0 0-5.973333-0.341333z m44.373333 1.024c-2.275556 0-4.465778 0.028444-6.570666 0.085333a85.447111 85.447111 0 0 1-6.570667-0.085333c-1.137778 0-1.706667 0.568889-1.706667 1.706667 0 1.024 0.028444 2.019556 0.085334 2.986666s0.085333 1.962667 0.085333 2.986667c-0.227556 1.365333 0.341333 1.934222 1.706667 1.706667 1.820444-0.113778 3.527111-0.256 5.12-0.426667l5.461333-0.597333c1.934222-0.227556 3.185778-0.540444 3.754667-0.938667 0.568889-0.398222 0.739556-1.223111 0.512-2.474667a8.277333 8.277333 0 0 1-0.170667-1.621333v-1.621333c0-1.137778-0.568889-1.706667-1.706667-1.706667z m-4.593778-18.631111l-1.208888 0.028444a37.987556 37.987556 0 0 1-3.413334 0.170667c-1.024 0-2.218667 0.056889-3.584 0.170667-1.024 0-1.536 0.512-1.536 1.536a53.688889 53.688889 0 0 0-0.256 3.242666c-0.056889 1.137778-0.142222 2.332444-0.256 3.584 0 1.137778 0.568889 1.706667 1.706667 1.706667 2.275556 0.113778 4.323556 0.113778 6.144 0l5.973333-0.341333c1.365333 0.227556 1.934222-0.341333 1.706667-1.706667a10.951111 10.951111 0 0 0-0.170667-1.962667 104.149333 104.149333 0 0 0-0.341333-1.792c-0.455111-2.275556-1.024-3.640889-1.706667-4.096-0.682667-0.455111-2.104889-0.625778-4.266666-0.512l1.208888-0.042666z m-38.072888-0.483556c-1.024 0-1.592889 0.455111-1.706667 1.365334-0.227556 1.024-0.426667 2.048-0.597333 3.072a102.485333 102.485333 0 0 1-0.597334 3.242666c-0.227556 1.137778 0.284444 1.820444 1.536 2.048a195.626667 195.626667 0 0 0 11.776 0.853334c1.137778 0.113778 1.706667-0.398222 1.706667-1.536 0.113778-1.251556 0.142222-2.417778 0.085333-3.498667a60.103111 60.103111 0 0 1-0.085333-3.157333c0-1.137778-0.568889-1.763556-1.706667-1.877334a75.022222 75.022222 0 0 1-10.410666-0.512z" fill="#B2181A" /><path d="M327.111111 426.666667m-14.222222 0a14.222222 14.222222 0 1 0 28.444444 0 14.222222 14.222222 0 1 0-28.444444 0Z" fill="#B2181A" /><path d="M327.111111 832.839111m-14.222222 0a14.222222 14.222222 0 1 0 28.444444 0 14.222222 14.222222 0 1 0-28.444444 0Z" fill="#B2181A" /><path d="M412.444444 455.111111m-14.222222 0a14.222222 14.222222 0 1 0 28.444445 0 14.222222 14.222222 0 1 0-28.444445 0Z" fill="#B2181A" /><path d="M412.444444 861.283556m-14.222222 0a14.222222 14.222222 0 1 0 28.444445 0 14.222222 14.222222 0 1 0-28.444445 0Z" fill="#B2181A" /><path d="M512 469.333333m-14.222222 0a14.222222 14.222222 0 1 0 28.444444 0 14.222222 14.222222 0 1 0-28.444444 0Z" fill="#B2181A" /><path d="M512 875.505778m-14.222222 0a14.222222 14.222222 0 1 0 28.444444 0 14.222222 14.222222 0 1 0-28.444444 0Z" fill="#B2181A" /><path d="M611.555556 455.111111m-14.222223 0a14.222222 14.222222 0 1 0 28.444445 0 14.222222 14.222222 0 1 0-28.444445 0Z" fill="#B2181A" /><path d="M611.555556 861.283556m-14.222223 0a14.222222 14.222222 0 1 0 28.444445 0 14.222222 14.222222 0 1 0-28.444445 0Z" fill="#B2181A" /><path d="M711.111111 426.666667m-14.222222 0a14.222222 14.222222 0 1 0 28.444444 0 14.222222 14.222222 0 1 0-28.444444 0Z" fill="#B2181A" /><path d="M711.111111 832.839111m-14.222222 0a14.222222 14.222222 0 1 0 28.444444 0 14.222222 14.222222 0 1 0-28.444444 0Z" fill="#B2181A" /><path d="M624.213333 150.755556a21.333333 21.333333 0 0 1 15.260445 39.822222c-70.897778 27.178667-110.72 84.664889-120.490667 175.900444a21.333333 21.333333 0 0 1-42.410667-4.551111c11.377778-106.424889 60.942222-177.962667 147.626667-211.185778z" fill="#FA1C3D" /><path d="M621.653333 144.099556c-89.073778 34.133333-140.458667 107.818667-152.163555 217.073777a28.444444 28.444444 0 0 0 56.576 6.058667c9.457778-88.419556 47.473778-143.758222 115.953778-169.998222a28.444444 28.444444 0 0 0-20.352-53.134222z m23.466667 21.475555a14.222222 14.222222 0 0 1-8.192 18.375111c-73.770667 28.259556-115.000889 88.291556-125.013333 181.76a14.222222 14.222222 0 0 1-28.273778-3.015111c11.150222-104.177778 59.278222-173.184 143.118222-205.312a14.222222 14.222222 0 0 1 17.678222 6.684445l0.682667 1.507555z" fill="#B2181A" /><path d="M611.555556 128.028444h43.136L689.692444 99.555556l3.882667 46.336 26.481778 32.042666-47.644445 4.693334-25.998222 30.805333-3.754666-44.174222z" fill="#FDD821" /><path d="M700.472889 143.075556l-4.821333-57.543112-43.477334 35.370667h-54.897778l38.456889 50.986667 5.048889 59.235555 35.185778-41.699555 58.083556-5.731556-33.578667-40.618666z m-43.235556-7.936l26.481778-21.575112 2.958222 35.128889 19.384889 23.466667-37.233778 3.697778-16.796444 19.868444-2.460444-29.112889-23.751112-31.488h31.402667z" fill="#B2181A" /></svg>