<?xml version="1.0" encoding="utf-8"?>
<!-- Uploaded to: SVG Repo, www.svgrepo.com, Generator: SVG Repo Mixer Tools -->
<svg width="800px" height="800px" viewBox="0 0 1024 1024" class="icon"  version="1.1" xmlns="http://www.w3.org/2000/svg"><path d="M960 160s-160-64-448-64S64 160 64 160c-33.344 13.344-64 44.672-64 80V608a64 64 0 0 1 64-64h896a64 64 0 0 1 64 64V240c0-35.328-30.4-65.984-64-80z" fill="#EAEAEA" /><path d="M96 864h128v64H96zM800 864h128v64h-128z" fill="#434854" /><path d="M96 864h128v32H96zM800 864h128v32h-128z" fill="" /><path d="M832 320m-32 0a32 32 0 1 0 64 0 32 32 0 1 0-64 0Z" fill="" /><path d="M672 256m-32 0a32 32 0 1 0 64 0 32 32 0 1 0-64 0Z" fill="" /><path d="M512 320m-32 0a32 32 0 1 0 64 0 32 32 0 1 0-64 0Z" fill="" /><path d="M352 256m-32 0a32 32 0 1 0 64 0 32 32 0 1 0-64 0Z" fill="" /><path d="M192 320m-32 0a32 32 0 1 0 64 0 32 32 0 1 0-64 0Z" fill="" /><path d="M1024 608a64 64 0 0 0-64-64H64a64 64 0 0 0-64 64v256h1024v-256z" fill="#434854" /><path d="M0 768h1024v32H0z" fill="#DAE2E5" /><path d="M928 544v-64a32 32 0 0 0-32-32H576a32 32 0 0 0-32 32v64h384zM480 544v-64a32 32 0 0 0-32-32H128a32 32 0 0 0-32 32v64h384z" fill="#EF4D4D" /><path d="M96 512h384v32H96zM544 512h384v32H544z" fill="" /></svg>