<?xml version="1.0" ?><!-- Uploaded to: SVG Repo, www.svgrepo.com, Generator: SVG Repo Mixer Tools -->
<svg width="800px" height="800px" viewBox="0 0 2050 2050" data-name="Layer 2" id="Layer_2" xmlns="http://www.w3.org/2000/svg"><defs><style>.cls-1{fill:#4d4c78;}.cls-2{fill:#67baeb;}.cls-3{fill:#46a1f8;}.cls-4{fill:#c8c2e9;}.cls-5{fill:#f4c23f;}.cls-6{fill:#f4a93f;}.cls-7{fill:#b9b1e0;}.cls-8{fill:#dfdafd;}.cls-9{fill:#fad564;}.cls-10{fill:#83d0fb;}</style></defs><title/><rect class="cls-1" height="179.72" width="164.3" x="942.9" y="1406.3"/><path class="cls-2" d="M781.8,453.7h-586a42.5,42.5,0,0,0-42.5,42.5V1543.4a42.5,42.5,0,0,0,42.5,42.6H942.9V1484.5a43.6,43.6,0,0,0-.3-5.1L824,491.2A42.5,42.5,0,0,0,781.8,453.7Z"/><path class="cls-2" d="M1318.9,487.4l-210.8,990.2a43.2,43.2,0,0,0-1,8.8V1586h747.1a42.5,42.5,0,0,0,42.5-42.6V496.2a42.5,42.5,0,0,0-42.5-42.5H1360.5A42.4,42.4,0,0,0,1318.9,487.4Z"/><path class="cls-3" d="M1326,453.7,1107.1,1481.9v-75.6H942.9v75.6L819.5,453.7H225.7V1557.9l42.8-17.6a978.3,978.3,0,0,1,725.5-7.6l31,12.5,31-12.5a978.3,978.3,0,0,1,725.5,7.6l42.8,17.6V453.7Z"/><path class="cls-4" d="M1025,1511.6h0a1010.1,1010.1,0,0,0-768.3,0h0V365.9h0a1009.2,1009.2,0,0,1,768.3,0h0Z"/><path class="cls-5" d="M1614.4,1676.2l-52.3-43.6-52.2,43.6c-17.7,14.8-44.7,2.2-44.7-20.9V1359.2H1659v296.1C1659,1678.4,1632.1,1691,1614.4,1676.2Z"/><path class="cls-6" d="M1465.2,1468.3a966.5,966.5,0,0,1,193.8,30.8V1359.2H1465.2Z"/><path class="cls-4" d="M1025,1511.6h0a1010.1,1010.1,0,0,1,768.3,0h0V365.9h0a1009.2,1009.2,0,0,0-768.3,0h0Z"/><path class="cls-7" d="M320.7,423.2V342.1c-21.5,7.2-42.9,15.1-64,23.8h0V1511.6h0a1094.9,1094.9,0,0,1,768.3,0h0V1390.3l-6.9-2.3C601.4,1251.9,320.7,861.5,320.7,423.2Z"/><path class="cls-7" d="M1089,423.2V342.1q-32.4,10.8-64,23.8h0V1511.6h0a1094.9,1094.9,0,0,1,768.3,0h0V1390.3l-6.9-2.3C1369.6,1251.9,1089,861.5,1089,423.2Z"/><path class="cls-7" d="M383.3,598.9a20,20,0,0,1-6.9-38.8,747.5,747.5,0,0,1,516.9,0,20,20,0,1,1-13.8,37.6,706.7,706.7,0,0,0-489.3,0A20.9,20.9,0,0,1,383.3,598.9Z"/><path class="cls-7" d="M383.3,810.9a20,20,0,0,1-6.9-38.8,746,746,0,0,1,516.9,0,20,20,0,1,1-13.8,37.5,706.7,706.7,0,0,0-489.3,0A18.7,18.7,0,0,1,383.3,810.9Z"/><path class="cls-7" d="M383.3,1022.8a20,20,0,0,1-6.9-38.7,746,746,0,0,1,516.9,0,20,20,0,1,1-13.8,37.5,706.7,706.7,0,0,0-489.3,0A20.9,20.9,0,0,1,383.3,1022.8Z"/><path class="cls-7" d="M383.3,1234.8a20,20,0,0,1-6.9-38.8,747.5,747.5,0,0,1,516.9,0,20,20,0,1,1-13.8,37.6,706.7,706.7,0,0,0-489.3,0A20.9,20.9,0,0,1,383.3,1234.8Z"/><path class="cls-7" d="M1654.7,598.9a20.9,20.9,0,0,1-6.9-1.2,706.7,706.7,0,0,0-489.3,0,20,20,0,0,1-13.8-37.6,747.5,747.5,0,0,1,516.9,0,20,20,0,0,1-6.9,38.8Z"/><path class="cls-7" d="M1654.7,810.9a18.7,18.7,0,0,1-6.9-1.3,706.7,706.7,0,0,0-489.3,0,20,20,0,1,1-13.8-37.5,746,746,0,0,1,516.9,0,20,20,0,0,1-6.9,38.8Z"/><path class="cls-7" d="M1654.7,1022.8a20.9,20.9,0,0,1-6.9-1.2,706.7,706.7,0,0,0-489.3,0,20,20,0,1,1-13.8-37.5,746,746,0,0,1,516.9,0,20,20,0,0,1-6.9,38.7Z"/><path class="cls-7" d="M1654.7,1234.8a20.9,20.9,0,0,1-6.9-1.2,706.7,706.7,0,0,0-489.3,0,20,20,0,1,1-13.8-37.6,747.5,747.5,0,0,1,516.9,0,20,20,0,0,1-6.9,38.8Z"/><path class="cls-8" d="M1665.7,581.9a20.9,20.9,0,0,1-6.9-1.2,706.7,706.7,0,0,0-489.3,0,20,20,0,0,1-13.8-37.6,747.5,747.5,0,0,1,516.9,0,20,20,0,0,1-6.9,38.8Z"/><path class="cls-8" d="M1665.7,793.9a18.7,18.7,0,0,1-6.9-1.3,706.7,706.7,0,0,0-489.3,0,20,20,0,1,1-13.8-37.5,746,746,0,0,1,516.9,0,20,20,0,0,1-6.9,38.8Z"/><path class="cls-8" d="M1665.7,1005.8a20.9,20.9,0,0,1-6.9-1.2,706.7,706.7,0,0,0-489.3,0,20,20,0,1,1-13.8-37.5,746,746,0,0,1,516.9,0,20,20,0,0,1-6.9,38.7Z"/><path class="cls-8" d="M1665.7,1217.8a20.9,20.9,0,0,1-6.9-1.2,706.7,706.7,0,0,0-489.3,0,20,20,0,1,1-13.8-37.6,747.5,747.5,0,0,1,516.9,0,20,20,0,0,1-6.9,38.8Z"/><path class="cls-8" d="M394.3,581.9a20,20,0,0,1-6.9-38.8,747.5,747.5,0,0,1,516.9,0,20,20,0,1,1-13.8,37.6,706.7,706.7,0,0,0-489.3,0A20.9,20.9,0,0,1,394.3,581.9Z"/><path class="cls-8" d="M394.3,793.9a20,20,0,0,1-6.9-38.8,746,746,0,0,1,516.9,0,20,20,0,1,1-13.8,37.5,706.7,706.7,0,0,0-489.3,0A18.7,18.7,0,0,1,394.3,793.9Z"/><path class="cls-8" d="M394.3,1005.8a20,20,0,0,1-6.9-38.7,746,746,0,0,1,516.9,0,20,20,0,1,1-13.8,37.5,706.7,706.7,0,0,0-489.3,0A20.9,20.9,0,0,1,394.3,1005.8Z"/><path class="cls-8" d="M394.3,1217.8a20,20,0,0,1-6.9-38.8,747.5,747.5,0,0,1,516.9,0,20,20,0,1,1-13.8,37.6,706.7,706.7,0,0,0-489.3,0A20.9,20.9,0,0,1,394.3,1217.8Z"/><path class="cls-1" d="M1660.7,588.9a20.9,20.9,0,0,1-6.9-1.2,706.7,706.7,0,0,0-489.3,0,20,20,0,0,1-13.8-37.6,747.5,747.5,0,0,1,516.9,0,20,20,0,0,1-6.9,38.8Z"/><path class="cls-1" d="M1660.7,800.9a18.7,18.7,0,0,1-6.9-1.3,706.7,706.7,0,0,0-489.3,0,20,20,0,1,1-13.8-37.5,746,746,0,0,1,516.9,0,20,20,0,0,1-6.9,38.8Z"/><path class="cls-1" d="M1660.7,1012.8a20.9,20.9,0,0,1-6.9-1.2,706.7,706.7,0,0,0-489.3,0,20,20,0,1,1-13.8-37.5,746,746,0,0,1,516.9,0,20,20,0,0,1-6.9,38.7Z"/><path class="cls-1" d="M1660.7,1224.8a20.9,20.9,0,0,1-6.9-1.2,706.7,706.7,0,0,0-489.3,0,20,20,0,1,1-13.8-37.6,747.5,747.5,0,0,1,516.9,0,20,20,0,0,1-6.9,38.8Z"/><rect class="cls-8" height="545.11" rx="40.8" ry="40.8" width="81.6" x="1711.6" y="425.3"/><rect class="cls-8" height="352.73" rx="29" ry="29" width="58" x="967" y="482.3"/><path class="cls-1" d="M389.3,588.9a20,20,0,0,1-6.9-38.8,747.5,747.5,0,0,1,516.9,0,20,20,0,1,1-13.8,37.6,706.7,706.7,0,0,0-489.3,0A20.9,20.9,0,0,1,389.3,588.9Z"/><path class="cls-1" d="M389.3,800.9a20,20,0,0,1-6.9-38.8,746,746,0,0,1,516.9,0,20,20,0,1,1-13.8,37.5,706.7,706.7,0,0,0-489.3,0A18.7,18.7,0,0,1,389.3,800.9Z"/><path class="cls-1" d="M389.3,1012.8a20,20,0,0,1-6.9-38.7,746,746,0,0,1,516.9,0,20,20,0,1,1-13.8,37.5,706.7,706.7,0,0,0-489.3,0A20.9,20.9,0,0,1,389.3,1012.8Z"/><path class="cls-1" d="M389.3,1224.8a20,20,0,0,1-6.9-38.8,747.5,747.5,0,0,1,516.9,0,20,20,0,1,1-13.8,37.6,706.7,706.7,0,0,0-489.3,0A20.9,20.9,0,0,1,389.3,1224.8Z"/><rect class="cls-9" height="105.38" rx="19.8" ry="19.8" width="39.5" x="1619.5" y="1549.9"/><rect class="cls-10" height="449.76" rx="19.1" ry="19.1" width="38.2" x="1858.5" y="581.9"/></svg>