<?xml version="1.0" ?>
<!DOCTYPE svg  PUBLIC '-//W3C//DTD SVG 1.1//EN'  'http://www.w3.org/Graphics/SVG/1.1/DTD/svg11.dtd'>
<!-- Uploaded to: SVG Repo, www.svgrepo.com, Generator: SVG Repo Mixer Tools -->
<svg width="800px" height="800px" viewBox="0 0 13333.33 13333.33" style="shape-rendering:geometricPrecision; text-rendering:geometricPrecision; image-rendering:optimizeQuality; fill-rule:evenodd; clip-rule:evenodd" version="1.1" xml:space="preserve" xmlns="http://www.w3.org/2000/svg" xmlns:xlink="http://www.w3.org/1999/xlink" xmlns:xodm="http://www.corel.com/coreldraw/odm/2003">
<defs>
<style type="text/css">
   <![CDATA[
    .fil0 {fill:none}
    .fil1 {fill:#03A9F4}
    .fil2 {fill:#4FC3F7}
    .fil3 {fill:#FFFF66}
   ]]>
  </style>
</defs>
<g id="Layer_x0020_1">
<rect class="fil0" height="13333.33" width="13333.33" x="-0" y="-0.01"/>
<g id="_582368209584">
<path class="fil1" d="M7078.94 1946.97l3466.05 2003.18c261.81,151.31 411.63,410.94 411.63,713.33l0 4006.37c0,302.39 -149.81,562.02 -411.63,713.33l-3466.05 2003.18c-262.15,151.51 -562.39,151.51 -824.54,0l-3466.05 -2003.18c-261.81,-151.31 -411.63,-410.94 -411.63,-713.33l0 -4006.37c0,-302.39 149.81,-562.02 411.63,-713.33l3466.05 -2003.18c262.15,-151.51 562.39,-151.51 824.54,0z"/>
<polygon class="fil2" points="6254.72,10426.95 4933.65,9664.24 3200.62,8663.67 3200.62,6662.55 3200.62,5137.11 6254.72,6900.39 "/>
<polygon class="fil3" points="10132.72,5137.11 10132.72,6662.55 10132.72,8663.67 8399.69,9664.24 7078.61,10426.95 7078.61,6900.39 "/>
<polygon class="fil3" points="6666.67,2660.3 8399.69,3660.86 9720.76,4423.59 6666.67,6186.87 3612.57,4423.59 4933.65,3660.86 "/>
</g>
</g>
</svg>