<?xml version="1.0" ?><!DOCTYPE svg  PUBLIC '-//W3C//DTD SVG 1.1//EN'  'http://www.w3.org/Graphics/SVG/1.1/DTD/svg11.dtd'><!-- Uploaded to: SVG Repo, www.svgrepo.com, Generator: SVG Repo Mixer Tools -->
<svg width="800px" height="800px" viewBox="0 0 512 512" enable-background="new 0 0 512 512" id="Brother" version="1.1" xml:space="preserve" xmlns="http://www.w3.org/2000/svg" xmlns:xlink="http://www.w3.org/1999/xlink"><circle cx="256" cy="164.063" fill="#5B412C" r="150.5"/><path d="M368.883,451.68c0,62.344-225.764,62.344-225.764,0c0-62.342,50.539-112.881,112.881-112.881  C318.344,338.799,368.883,389.338,368.883,451.68z" fill="#0A717F"/><path d="M256,338.799c-55.721,0-102.008,40.376-111.212,93.467c19.419,50.416,203.007,50.416,222.425,0  C358.01,379.175,311.723,338.799,256,338.799z" fill="#19929B"/><circle cx="256" cy="354.926" fill="#FFBF94" r="44.717"/><path d="M256,310.209c-19.94,0-36.826,13.057-42.592,31.084c5.766,18.027,22.651,31.083,42.592,31.083  c19.942,0,36.829-13.056,42.594-31.083C292.828,323.266,275.941,310.209,256,310.209z" fill="#ED9572"/><path d="M174.884,150.063c0,38.936-38.536,66.62-45.013,59.904c-12-12.441-19.987-34.618-19.987-59.904  c0-38.937,18.938-70.5,42.3-70.5C175.546,79.563,174.884,111.126,174.884,150.063z" fill="#7C4E2E"/><circle cx="116.731" cy="235.501" fill="#FFBF94" r="36.537"/><path d="M116.731,257.858c-17.752,0-32.542-12.662-35.843-29.447c-0.451,2.294-0.693,4.663-0.693,7.09  c0,20.178,16.358,36.536,36.537,36.536s36.537-16.358,36.537-36.536c0-2.427-0.242-4.796-0.693-7.09  C149.273,245.196,134.483,257.858,116.731,257.858z" fill="#ED9572"/><circle cx="395.27" cy="235.501" fill="#FFBF94" r="36.537"/><path d="M395.27,257.858c-17.752,0-32.541-12.662-35.844-29.447c-0.451,2.294-0.693,4.663-0.693,7.09  c0,20.178,16.359,36.536,36.537,36.536c20.18,0,36.537-16.358,36.537-36.536c0-2.427-0.242-4.796-0.693-7.09  C427.813,245.196,413.021,257.858,395.27,257.858z" fill="#ED9572"/><path d="M383.998,180.969c-2.857-68.226-55.773-122.666-127.967-122.696v-0.001c-0.01,0-0.02,0-0.031,0  c-0.01,0-0.02,0-0.029,0v0.001c-72.194,0.03-125.109,54.471-127.967,122.696h-0.124v78.526h0.124  c2.857,68.224,60.13,100.864,127.967,100.884l0,0c0.01,0,0.02,0,0.029,0c0.012,0,0.021,0,0.031,0l0,0  c67.836-0.02,125.11-32.66,127.967-100.884h0.123v-78.526H383.998z" fill="#FFF2DC"/><path d="M383.998,180.969c-2.857-68.226-55.773-122.666-127.967-122.696v-0.001c-0.01,0-0.02,0-0.031,0  c-0.01,0-0.02,0-0.029,0v0.001c-72.194,0.03-125.109,54.471-127.967,122.696h-0.124v78.526h0.124  c2.857,68.224,60.13,100.864,127.967,100.884l0,0c0.01,0,0.02,0,0.029,0c0.012,0,0.021,0,0.031,0l0,0  c67.836-0.02,125.11-32.66,127.967-100.884h0.123v-78.526H383.998z" fill="#FFBF94"/><path d="M300.711,355.178c-0.137,24.58-20.1,44.465-44.711,44.465c-24.646,0-44.632-19.941-44.712-44.569  c-3.446-0.869-6.823-1.85-10.126-2.936c-0.046,0.924-0.071,1.853-0.071,2.788c0,30.326,24.584,54.91,54.909,54.91  c30.327,0,54.911-24.584,54.911-54.91c0-0.889-0.025-1.771-0.066-2.649C307.537,353.352,304.158,354.318,300.711,355.178z" fill="#FFFFFF"/><path d="M252.135,38.563c61.365,0,80.678,28.38,109.133,52.487c23.367,19.8,57.232,11.227,57.232,11.966  c0,28.162-106.367,50.991-166.365,50.991c-59.998,0-102.635-22.829-102.635-50.991S192.137,38.563,252.135,38.563z" fill="#7C4E2E"/><path d="M142.119,451.68c0,17.054,16.901,29.436,41.444,37.159V364.302  C158.271,385.002,142.119,416.448,142.119,451.68z" fill="#E5E5E5"/><path d="M369.883,451.68c0-31.801-13.158-60.522-34.318-81.038v115.745  C356.195,478.597,369.883,467.029,369.883,451.68z" fill="#E5E5E5"/><path d="M143.788,432.266c4.819,12.511,19.754,21.914,39.775,28.215v-96.183  C163.025,381.108,148.514,405.005,143.788,432.266z" fill="#FFFFFF"/><path d="M368.213,432.266c-4.158-23.99-15.896-45.376-32.648-61.62v87.376  C351.967,451.824,363.984,443.242,368.213,432.266z" fill="#FFFFFF"/><circle cx="174.202" cy="269.855" fill="#F97A7A" r="30.538"/><circle cx="337.8" cy="269.855" fill="#F97A7A" r="30.538"/><circle cx="208.281" cy="216.414" fill="#493E2F" r="17.45"/><circle cx="303.382" cy="216.414" fill="#493E2F" r="17.45"/><path d="M256.545,293.734c-9.077,0-18.154-3.455-25.065-10.365c-2.343-2.344-2.343-6.143,0-8.486  c2.343-2.342,6.143-2.342,8.485,0c9.144,9.145,24.019,9.143,33.16,0c2.344-2.342,6.143-2.342,8.486,0  c2.344,2.344,2.344,6.143,0,8.486C274.701,290.279,265.623,293.734,256.545,293.734z" fill="#F97A7A"/></svg>