<?xml version="1.0" ?>
<!DOCTYPE svg  PUBLIC '-//W3C//DTD SVG 1.1//EN'  'http://www.w3.org/Graphics/SVG/1.1/DTD/svg11.dtd'>
<!-- Uploaded to: SVG Repo, www.svgrepo.com, Generator: SVG Repo Mixer Tools -->
<svg width="800px" height="800px" viewBox="0 0 512 512" version="1.1" xml:space="preserve" xmlns="http://www.w3.org/2000/svg" xmlns:xlink="http://www.w3.org/1999/xlink">
<g id="_x36_48_x2C__briefcase_x2C__love_x2C__heart_x2C__wedding">
<g>
<rect height="36.25" style="fill:#49BAA5;" width="108.74" x="133.67" y="45.56"/>
<polyline points="242.41,54.31 242.41,45.56 133.67,45.56 133.67,81.81 141.67,81.81 141.67,54.31   " style="fill:#3AA38F;"/>
<path d="M242.41,177.42c-2.762,0-5-2.239-5-5V50.56h-98.74v121.86c0,2.761-2.239,5-5,5    c-2.762,0-5-2.239-5-5V45.56c0-2.761,2.238-5,5-5h108.74c2.761,0,5,2.239,5,5v126.86C247.41,175.181,245.171,177.42,242.41,177.42    z" style="fill:#E42A53;"/>
<path d="M242.41,244.91h-36.25h-36.24h-36.25H97.43H61.18V450.9c0,11.34,10.3,20.539,23.01,20.539H270.5    c-15.521,0-28.09-12.58-28.09-28.09v-16.07v-37.389v-28.33v-16.07c0-15.52,12.569-28.09,28.09-28.09h16.07h28.33v-36.25V244.91    H242.41z M110.35,444.529c-7.14,0-12.92-6.309-12.92-14.09c0-7.039,3.23-10.561,9.69-14.08c-6.46-3.52-9.69-7.039-9.69-14.08    c0-7.789,5.78-14.1,12.92-14.1c12.91,0,20.271,14.1,33.18,28.18C130.62,430.439,123.26,444.529,110.35,444.529z M169.359,396.16    c-20.17-18.49-40.33-29.031-40.33-47.52c0-10.211,9.03-18.49,20.16-18.49c10.08,0,15.13,4.619,20.17,13.869    c5.04-9.25,10.08-13.869,20.16-13.869c11.16,0,20.19,8.279,20.19,18.49C209.71,367.129,189.52,377.67,169.359,396.16z" style="fill:#D30045;"/>
<g>
<path d="M258.702,471.439H270.5c-5.746,0-11.085-1.727-15.534-4.686     C256.045,468.447,257.296,470.02,258.702,471.439z" style="fill:#B50444;"/>
<path d="M69.347,459.234V253.243h36.25h36.239h36.25h36.24h36.25H314.9v-8.333h-72.49h-36.25h-36.24     h-36.25H97.43H61.18V450.9c0,7.188,4.141,13.512,10.407,17.182C70.151,465.402,69.347,462.402,69.347,459.234z" style="fill:#B50444;"/>
</g>
<path d="M110.35,388.18c12.91,0,20.271,14.1,33.18,28.18c-12.909,14.08-20.27,28.17-33.18,28.17    c-7.14,0-12.92-6.309-12.92-14.09c0-7.039,3.23-10.561,9.69-14.08c-6.46-3.52-9.69-7.039-9.69-14.08    C97.43,394.49,103.21,388.18,110.35,388.18z" style="fill:#FFC230;"/>
<g>
<path d="M105.35,398.949c12.167,0,19.407,12.525,31.007,25.754c2.229-2.707,4.589-5.525,7.173-8.344     c-12.909-14.08-20.27-28.18-33.18-28.18c-7.025,0-12.721,6.113-12.902,13.73C99.633,400.061,102.368,398.949,105.35,398.949z" style="fill:#EAA824;"/>
</g>
<path d="M189.52,330.15c11.16,0,20.19,8.279,20.19,18.49c0,18.488-20.19,29.029-40.351,47.52    c-20.17-18.49-40.33-29.031-40.33-47.52c0-10.211,9.03-18.49,20.16-18.49c10.08,0,15.13,4.619,20.17,13.869    C174.399,334.77,179.439,330.15,189.52,330.15z" style="fill:#FFC230;"/>
<g>
<path d="M144.401,353.186c0-9.598,7.981-17.488,18.184-18.398c-3.433-3.086-7.572-4.637-13.396-4.637     c-11.13,0-20.16,8.279-20.16,18.49c0,18.488,20.16,29.029,40.33,47.52c1.669-1.531,3.336-3.002,4.993-4.432     C158.182,378.326,144.401,368.471,144.401,353.186z" style="fill:#EAA824;"/>
</g>
<path d="M314.9,195.89v49.02h-72.49h-36.25h-36.24h-36.25H97.43H61.18v-49.02    c0-12.96,10.3-23.47,23.01-23.47h49.48h108.74h49.479C304.6,172.42,314.9,182.93,314.9,195.89z M224.29,217.72V199.6h-18.13v18.12    H224.29z M197.1,217.72V199.6h-18.12v18.12H197.1z M169.92,217.72V199.6H151.8v18.12H169.92z" style="fill:#EF3E5C;"/>
<g>
<g>
<g>
<path d="M69.18,203.64c0-12.96,10.3-23.47,23.01-23.47h49.48h108.74h49.479       c4.142,0,8.023,1.122,11.38,3.074c-4.09-6.507-11.237-10.824-19.38-10.824H242.41H133.67h-49.48       c-12.71,0-23.01,10.51-23.01,23.47v49.02h8V203.64z" style="fill:#E42A53;"/>
</g>
</g>
</g>
<path d="M346.61,136.17c7.51,0,13.59,6.09,13.59,13.59c0,7.51-6.08,13.6-13.59,13.6    c-7.5,0-13.591-6.09-13.591-13.6C333.02,142.26,339.11,136.17,346.61,136.17z" style="fill:#EF3E5C;"/>
<path d="M349.11,145.23c4.551,0,8.566,2.244,11.032,5.676c0.031-0.379,0.058-0.759,0.058-1.146    c0-7.5-6.08-13.59-13.59-13.59c-7.5,0-13.591,6.09-13.591,13.59c0,2.958,0.955,5.686,2.558,7.918    C336.159,150.712,341.996,145.23,349.11,145.23z" style="fill:#E42A53;"/>
<path d="M450.82,345.49v16.07c-2.9,0.75-5.94,1.139-9.07,1.139c-20.01,0-36.24-16.219-36.24-36.24    c0-3.129,0.4-6.17,1.141-9.059h16.08C438.24,317.4,450.82,329.971,450.82,345.49z" style="fill:#415A6B;"/>
<path d="M412.521,333.959c0-3.129,0.4-6.17,1.141-9.059h16.08c6.238,0,12,2.035,16.663,5.477    c-4.991-7.803-13.727-12.977-23.674-12.977h-16.08c-0.74,2.889-1.141,5.93-1.141,9.059c0,11.422,5.287,21.602,13.541,28.242    C414.939,348.824,412.521,341.678,412.521,333.959z" style="fill:#304856;"/>
<path d="M450.82,427.279v16.07c0,15.51-12.58,28.09-28.09,28.09h-16.08c-0.74-2.9-1.141-5.93-1.141-9.061    c0-20.02,16.23-36.25,36.24-36.25C444.88,426.129,447.92,426.529,450.82,427.279z" style="fill:#415A6B;"/>
<path d="M412.521,467.379c0-20.02,16.23-36.25,36.24-36.25c0.691,0,1.377,0.027,2.06,0.066v-3.916    c-2.9-0.75-5.94-1.15-9.07-1.15c-20.01,0-36.24,16.23-36.24,36.25c0,3.131,0.4,6.16,1.141,9.061h6.109    C412.61,470.105,412.521,468.754,412.521,467.379z" style="fill:#304856;"/>
<path d="M287.71,462.379c0,3.131-0.39,6.16-1.14,9.061H270.5c-15.521,0-28.09-12.58-28.09-28.09v-16.07    c2.89-0.75,5.93-1.15,9.06-1.15C271.49,426.129,287.71,442.359,287.71,462.379z" style="fill:#415A6B;"/>
<path d="M251.47,426.129c-3.13,0-6.17,0.4-9.06,1.15v6.555c1.971-0.336,3.993-0.525,6.06-0.525    c20.021,0,36.24,16.23,36.24,36.25c0,0.633-0.027,1.258-0.059,1.881h1.919c0.75-2.9,1.14-5.93,1.14-9.061    C287.71,442.359,271.49,426.129,251.47,426.129z" style="fill:#304856;"/>
<path d="M286.57,317.4c0.75,2.889,1.14,5.93,1.14,9.059c0,20.021-16.22,36.24-36.24,36.24    c-3.13,0-6.17-0.389-9.06-1.139v-16.07c0-15.52,12.569-28.09,28.09-28.09H286.57z" style="fill:#415A6B;"/>
<path d="M248.41,352.229c0-15.52,12.57-28.09,28.09-28.09h11.138c-0.145-2.314-0.504-4.568-1.067-6.738    H270.5c-15.521,0-28.09,12.57-28.09,28.09v16.07c1.937,0.502,3.945,0.828,6,0.998V352.229z" style="fill:#304856;"/>
<rect height="36.24" style="fill:#FFC230;" width="81.55" x="305.84" y="380.83"/>
<polygon points="313.673,388.83 387.39,388.83 387.39,380.83 305.84,380.83 305.84,417.07 313.673,417.07       " style="fill:#EAA824;"/>
<path d="M450.82,361.561v65.719c-2.9-0.75-5.94-1.15-9.07-1.15c-20.01,0-36.24,16.23-36.24,36.25    c0,3.131,0.4,6.16,1.141,9.061H291.89h-5.319c0.75-2.9,1.14-5.93,1.14-9.061c0-20.02-16.22-36.25-36.24-36.25    c-3.13,0-6.17,0.4-9.06,1.15v-37.389v-28.33c2.89,0.75,5.93,1.139,9.06,1.139c20.021,0,36.24-16.219,36.24-36.24    c0-3.129-0.39-6.17-1.14-9.059h28.33h63.43h28.32c-0.74,2.889-1.141,5.93-1.141,9.059c0,20.021,16.23,36.24,36.24,36.24    C444.88,362.699,447.92,362.311,450.82,361.561z M387.39,417.07v-36.24h-81.55v36.24H387.39z" style="fill:#49BAA5;"/>
<g>
<g>
<g>
<path d="M448.417,369.439c0.808,0,1.608-0.029,2.403-0.08v-7.799c-2.9,0.75-5.94,1.139-9.07,1.139       c-8.375,0-16.081-2.848-22.219-7.621C426.149,363.803,436.625,369.439,448.417,369.439z" style="fill:#3AA38F;"/>
</g>
<g>
<path d="M294.377,469.119c0-11.645-5.494-22-14.025-28.633c4.615,6.084,7.358,13.666,7.358,21.893       c0,3.131-0.39,6.16-1.14,9.061h5.319h2.415C294.353,470.672,294.377,469.898,294.377,469.119z" style="fill:#3AA38F;"/>
</g>
<g>
<path d="M249.077,396.629v-28.33c2.89,0.75,5.93,1.141,9.06,1.141c20.021,0,36.24-16.221,36.24-36.24       c0-3.131-0.39-6.17-1.14-9.061h28.33h63.43h20.587c0.146-2.314,0.511-4.568,1.066-6.738h-28.32H314.9h-28.33       c0.75,2.889,1.14,5.93,1.14,9.059c0,20.021-16.22,36.24-36.24,36.24c-3.13,0-6.17-0.389-9.06-1.139v28.33v37.389       c2.147-0.557,4.378-0.92,6.667-1.07V396.629z" style="fill:#3AA38F;"/>
</g>
</g>
</g>
<rect height="18.12" style="fill:#FFC230;" width="18.13" x="206.16" y="199.6"/>
<rect height="18.12" style="fill:#FFC230;" width="18.12" x="178.979" y="199.6"/>
<rect height="18.12" style="fill:#FFC230;" width="18.12" x="151.8" y="199.6"/>
<path d="M206.16,320.34c-2.762,0-5-2.238-5-5v-63.43c0-2.761,2.238-5,5-5c2.761,0,5,2.239,5,5v63.43    C211.16,318.102,208.921,320.34,206.16,320.34z" style="fill:#B50444;"/>
<path d="M169.92,320.34c-2.762,0-5-2.238-5-5v-63.43c0-2.761,2.238-5,5-5c2.761,0,5,2.239,5,5v63.43    C174.92,318.102,172.681,320.34,169.92,320.34z" style="fill:#B50444;"/>
<path d="M133.67,320.34c-2.762,0-5-2.238-5-5v-63.43c0-2.761,2.238-5,5-5c2.761,0,5,2.239,5,5v63.43    C138.67,318.102,136.431,320.34,133.67,320.34z" style="fill:#B50444;"/>
<path d="M97.43,320.34c-2.761,0-5-2.238-5-5v-63.43c0-2.761,2.239-5,5-5c2.762,0,5,2.239,5,5v63.43    C102.43,318.102,100.191,320.34,97.43,320.34z" style="fill:#B50444;"/>
<path d="M378.33,322.4c-2.762,0-5-2.238-5-5v-31.25H319.9v31.25c0,2.762-2.238,5-5,5s-5-2.238-5-5v-36.25    c0-2.762,2.238-5,5-5h63.43c2.762,0,5,2.238,5,5v36.25C383.33,320.162,381.092,322.4,378.33,322.4z" style="fill:#3AA38F;"/>
<path d="M404.105,218.891c7.51,0,13.59,6.09,13.59,13.59c0,7.51-6.08,13.6-13.59,13.6    c-7.5,0-13.591-6.09-13.591-13.6C390.515,224.981,396.605,218.891,404.105,218.891z" style="fill:#EF3E5C;"/>
<path d="M406.605,227.951c4.551,0,8.566,2.244,11.032,5.676c0.031-0.379,0.058-0.759,0.058-1.146    c0-7.5-6.08-13.59-13.59-13.59c-7.5,0-13.591,6.09-13.591,13.59c0,2.958,0.955,5.686,2.558,7.918    C393.654,233.434,399.491,227.951,406.605,227.951z" style="fill:#E42A53;"/>
</g>
</g>
<g id="Layer_1"/>
</svg>