<?xml version="1.0" ?>
<!-- Uploaded to: SVG Repo, www.svgrepo.com, Generator: SVG Repo Mixer Tools -->
<svg width="800px" height="800px" viewBox="0 0 512 512" version="1.1" xml:space="preserve" xmlns="http://www.w3.org/2000/svg" xmlns:xlink="http://www.w3.org/1999/xlink">
<style type="text/css">
	.st0{display:none;}
	.st1{display:inline;}
	.st2{fill:none;stroke:#B3B3B3;stroke-miterlimit:10;}
	.st3{fill:none;stroke:#ED1C24;stroke-miterlimit:10;}
	.st4{fill:#F9C04A;}
	.st5{fill:#FFFFFF;stroke:#000000;stroke-width:10;stroke-linecap:round;stroke-linejoin:round;stroke-miterlimit:10;}
	.st6{fill:#DEF6FC;}
	.st7{fill:#FFDA9F;}
	.st8{fill:#FFFFFF;}
	.st9{fill:#FF5751;}
	.st10{fill:#FF908A;}
	.st11{fill:#133260;}
	.st12{fill:#7782BB;}
	.st13{fill:#96A5D6;}
	.st14{fill:#FF5741;}
	.st15{fill:#43527A;}
	.st16{fill:#5E7296;}
	.st17{fill:none;stroke:#133260;stroke-width:9;stroke-linecap:round;stroke-linejoin:round;stroke-miterlimit:10;}
	.st18{fill:#83D689;}
	.st19{fill:#B5F4B8;}
	.st20{fill:#9BC5FF;}
	.st21{fill:#B8D8FF;}
	.st22{fill:#F24133;}
	.st23{fill:#589FFF;}
	.st24{fill:#7180BC;}
	.st25{fill:#93A3D8;}
	.st26{fill:#FF8103;}
	.st27{fill:#FF9D4D;}
	.st28{fill:#BC8D66;}
	.st29{fill:#CEA282;}
	.st30{fill:#FFDDA1;}
	.st31{fill:#FFF1DC;}
	.st32{fill:#7F6674;}
	.st33{fill:#937A89;}
	.st34{fill:#04398E;}
	.st35{fill:#A6D1FF;}
	.st36{fill:#EAA62D;}
	.st37{fill:#C5DFFF;}
	.st38{fill:#D6A47F;}
	.st39{fill:#99A4D6;}
</style>
<g class="st0" id="Layer_31">
<g class="st1">
<g>
<g>
<ellipse class="st2" cx="256" cy="256" rx="248.1" ry="248.3"/>
<path class="st2" d="M398.8,504.5H113.2c-18.8,0-34.1-15.3-34.1-34.1V41.6c0-18.8,15.3-34.1,34.1-34.1h285.5      c18.8,0,34.1,15.3,34.1,34.1v428.9C432.9,489.3,417.6,504.5,398.8,504.5z"/>
<path class="st2" d="M7.9,399.8V112.2c0-16.4,13.3-29.8,29.8-29.8h436.7c16.4,0,29.8,13.3,29.8,29.8v287.6      c0,16.4-13.3,29.8-29.8,29.8H37.6C21.2,429.6,7.9,416.2,7.9,399.8z"/>
<path class="st2" d="M440.4,469.9H71.6c-16.4,0-29.8-13.3-29.8-29.8V71.9c0-16.4,13.3-29.8,29.8-29.8h368.8      c16.4,0,29.8,13.3,29.8,29.8v368.2C470.2,456.5,456.8,469.9,440.4,469.9z"/>
</g>
<rect class="st3" height="497" transform="matrix(-1.836970e-16 1 -1 -1.836970e-16 512 5.684342e-14)" width="497" x="7.5" y="7.5"/>
</g>
</g>
</g>
<g id="Layer_32">
<g>
<path class="st32" d="M393.7,93.9H30.1C16,93.9,4.6,82.5,4.6,68.4v0c0-14,11.4-25.4,25.4-25.4h332.6c17.2,0,31.2,14,31.2,31.2    V93.9z"/>
<g>
<path class="st28" d="M446.5,93.9h-52.8H54.7H30.1C16,93.9,4.6,82.5,4.6,68.4v360.5c0,22.1,17.9,40.1,40.1,40.1h401.9     c21.9,0,39.6-17.7,39.6-39.6V133.6C486.1,111.7,468.4,93.9,446.5,93.9z"/>
<path class="st38" d="M29.8,428.9v-335c-14-0.2-25.2-11.5-25.2-25.5v360.5c0,22.1,17.9,40.1,40.1,40.1h25.2     C47.7,469,29.8,451.1,29.8,428.9z"/>
<g>
<g>
<path class="st4" d="M486.1,331.8h-99.3c-27.8,0-50.4-22.6-50.4-50.4v0c0-27.8,22.6-50.4,50.4-50.4h99.3       c11.8,0,21.3,9.5,21.3,21.3v58.2C507.4,322.3,497.9,331.8,486.1,331.8z"/>
<path class="st7" d="M361.7,281.5L361.7,281.5c0-27.8,22.6-50.4,50.4-50.4h-25.2c-27.8,0-50.4,22.6-50.4,50.4v0       c0,27.8,22.6,50.4,50.4,50.4H412C384.2,331.8,361.7,309.3,361.7,281.5z"/>
<circle class="st6" cx="388.1" cy="281.4" r="24.9"/>
</g>
</g>
<g>
<path class="st11" d="M429.9,422.3h-46.3c-2.8,0-5.1-2.3-5.1-5.1s2.3-5.1,5.1-5.1h46.3c2.8,0,5.1,2.3,5.1,5.1      S432.7,422.3,429.9,422.3z M349.2,422.3h-46.3c-2.8,0-5.1-2.3-5.1-5.1s2.3-5.1,5.1-5.1h46.3c2.8,0,5.1,2.3,5.1,5.1      S352,422.3,349.2,422.3z M268.5,422.3h-46.3c-2.8,0-5.1-2.3-5.1-5.1s2.3-5.1,5.1-5.1h46.3c2.8,0,5.1,2.3,5.1,5.1      S271.3,422.3,268.5,422.3z M187.8,422.3h-46.3c-2.8,0-5.1-2.3-5.1-5.1s2.3-5.1,5.1-5.1h46.3c2.8,0,5.1,2.3,5.1,5.1      S190.6,422.3,187.8,422.3z M107,422.3H60.7c-2.8,0-5.1-2.3-5.1-5.1s2.3-5.1,5.1-5.1H107c2.8,0,5.1,2.3,5.1,5.1      S109.8,422.3,107,422.3z"/>
</g>
<g>
<g>
<g>
<path class="st11" d="M429.9,150.7h-46.3c-2.8,0-5.1-2.3-5.1-5.1s2.3-5.1,5.1-5.1h46.3c2.8,0,5.1,2.3,5.1,5.1        S432.7,150.7,429.9,150.7z M349.2,150.7h-46.3c-2.8,0-5.1-2.3-5.1-5.1s2.3-5.1,5.1-5.1h46.3c2.8,0,5.1,2.3,5.1,5.1        S352,150.7,349.2,150.7z M268.5,150.7h-46.3c-2.8,0-5.1-2.3-5.1-5.1s2.3-5.1,5.1-5.1h46.3c2.8,0,5.1,2.3,5.1,5.1        S271.3,150.7,268.5,150.7z M187.8,150.7h-46.3c-2.8,0-5.1-2.3-5.1-5.1s2.3-5.1,5.1-5.1h46.3c2.8,0,5.1,2.3,5.1,5.1        S190.6,150.7,187.8,150.7z M107,150.7H60.7c-2.8,0-5.1-2.3-5.1-5.1s2.3-5.1,5.1-5.1H107c2.8,0,5.1,2.3,5.1,5.1        S109.8,150.7,107,150.7z"/>
</g>
<g>
<path class="st11" d="M484.5,150.7h-21.6c-2.8,0-5.1-2.3-5.1-5.1s2.3-5.1,5.1-5.1h21.6c2.8,0,5.1,2.3,5.1,5.1        S487.3,150.7,484.5,150.7z"/>
</g>
</g>
</g>
</g>
<g>
<path class="st11" d="M490.7,226.9v-93.4c0-24.4-19.8-44.2-44.2-44.2h-48.2V74.2c0-19.7-16-35.8-35.8-35.8H29.9     C13.4,38.4,0,51.9,0,68.4v360.5c0,24.6,20,44.6,44.6,44.6h401.9c24.4,0,44.2-19.8,44.2-44.2V336c12.1-2.2,21.3-12.7,21.3-25.5     v-58.2C512,239.7,502.8,229.1,490.7,226.9z M29.9,47.6h332.6c14.7,0,26.6,12,26.6,26.6v15.2H30.1c-11.6,0-21-9.4-21-21     C9.1,56.9,18.4,47.6,29.9,47.6z M446.5,464.4H44.6c-19.6,0-35.5-15.9-35.5-35.5v-6.6h19.1c2.8,0,5.1-2.3,5.1-5.1     s-2.3-5.1-5.1-5.1H9.1V150.7h19.1c2.8,0,5.1-2.3,5.1-5.1s-2.3-5.1-5.1-5.1H9.1c0,0,0-50.7,0-50.7c0.7,0.7,1.5,1.4,2.3,2.1     c1.6,1.3,3.4,2.4,5.3,3.3c1.5,0.8,3.1,1.4,4.8,1.9c1.6,0.5,3.3,0.8,5,1c1.2,0.1,2.4,0.2,3.6,0.2c0,0,416.4,0,416.4,0     c19.3,0,35.1,15.7,35.1,35.1v93h-94.8c-30.3,0-54.9,24.6-54.9,54.9c0,30.3,24.6,54.9,54.9,54.9h94.8v75.8h-18.7     c-2.8,0-5.1,2.3-5.1,5.1s2.3,5.1,5.1,5.1h18.7v7C481.6,448.7,465.8,464.4,446.5,464.4z M502.9,310.5c0,9.2-7.5,16.8-16.8,16.8     h-99.3c-25.3,0-45.8-20.6-45.8-45.8s20.6-45.8,45.8-45.8h99.3c9.2,0,16.8,7.5,16.8,16.8V310.5z"/>
<path class="st11" d="M388.1,252c-16.2,0-29.4,13.2-29.4,29.4c0,16.2,13.2,29.4,29.4,29.4c16.2,0,29.4-13.2,29.4-29.4     C417.5,265.2,404.3,252,388.1,252z M388.1,301.8c-11.2,0-20.3-9.1-20.3-20.3c0-11.2,9.1-20.3,20.3-20.3     c11.2,0,20.3,9.1,20.3,20.3C408.4,292.7,399.3,301.8,388.1,301.8z"/>
</g>
</g>
</g>
</svg>