<?xml version="1.0" encoding="utf-8"?>
<!-- Uploaded to: SVG Repo, www.svgrepo.com, Generator: SVG Repo Mixer Tools -->
<svg width="800px" height="800px" viewBox="0 0 1024 1024" class="icon"  version="1.1" xmlns="http://www.w3.org/2000/svg"><path d="M0 832a128 128 0 0 0 128 128h768a128 128 0 0 0 128-128H0z" fill="#EAEAEA" /><path d="M896 928H128a127.68 127.68 0 0 1-123.456-96H0a128 128 0 0 0 128 128h768a128 128 0 0 0 128-128h-4.544A127.68 127.68 0 0 1 896 928z" fill="" /><path d="M960 800v-288a64 64 0 0 0-64-64H128a64 64 0 0 0-64 64v288h896zM896 448V160a64 64 0 0 0-64-64H192a64 64 0 0 0-64 64v288h768z" fill="#EACA44" /><path d="M64 768h896v32H64z" fill="" /><path d="M64 640h896v64H64zM128 288h768v64H128z" fill="#EAEAEA" /><path d="M352 32a64 64 0 0 0-64 64h128a64 64 0 0 0-64-64zM512 32a64 64 0 0 0-64 64h128a64 64 0 0 0-64-64zM672 32a64 64 0 0 0-64 64h128a64 64 0 0 0-64-64z" fill="#EF4D4D" /><path d="M832 96H192a64 64 0 0 0-64 64v68.096l10.048 6.976s10.944 7.712 21.952 7.712 21.952-7.712 21.952-7.712L240 194.784c6.72-3.68 9.76-3.744 16 0l58.048 40.288s10.944 7.712 21.952 7.712 21.952-7.712 21.952-7.712L416 194.784c6.72-3.68 9.76-3.744 16 0l58.048 40.288s10.944 7.712 21.952 7.712 21.952-7.712 21.952-7.712L592 194.784c6.72-3.68 9.76-3.744 16 0l58.048 40.288s10.944 7.712 21.952 7.712 21.952-7.712 21.952-7.712L768 194.784c6.72-3.68 9.76-3.744 16 0l58.048 40.288s10.944 7.712 21.952 7.712 21.952-7.712 21.952-7.712L896 228.096V160a64 64 0 0 0-64-64zM64 512v62.56a30.208 30.208 0 0 0 8.672 1.44c11.008 0 21.952-7.712 21.952-7.712L152.672 528c6.72-3.68 9.76-3.744 16 0l58.048 40.288s10.944 7.712 21.952 7.712 21.952-7.712 21.952-7.712l58.048-40.288c6.72-3.68 9.76-3.744 16 0l58.048 40.288s10.944 7.712 21.952 7.712 21.952-7.712 21.952-7.712l58.048-40.288c6.72-3.68 9.76-3.744 16 0l58.048 40.288s10.944 7.712 21.952 7.712 21.952-7.712 21.952-7.712l58.048-40.288c6.72-3.68 9.76-3.744 16 0l58.048 40.288s10.944 7.712 21.952 7.712 21.952-7.712 21.952-7.712l58.048-40.288a17.6 17.6 0 0 1 7.904-2.688 14.912 14.912 0 0 1 7.584 2.688l58.048 40.288s10.944 7.712 21.952 7.712a30.368 30.368 0 0 0 7.84-1.184V512a64 64 0 0 0-64-64H128a64 64 0 0 0-64 64z" fill="#4F3923" /></svg>