<?xml version="1.0" ?><!-- Uploaded to: SVG Repo, www.svgrepo.com, Generator: SVG Repo Mixer Tools -->
<svg width="800px" height="800px" viewBox="0 0 2050 2050" data-name="Layer 2" id="Layer_2" xmlns="http://www.w3.org/2000/svg"><defs><style>.cls-1{fill:#c8c2e9;}.cls-2{fill:#8a87b2;}.cls-3{fill:#4d4c78;}.cls-4{fill:#323150;}.cls-5{fill:#67baeb;}.cls-6{fill:#de3226;}.cls-7{fill:#231f20;}.cls-8{fill:#f4c23f;}.cls-9{fill:#46a1f8;}.cls-10{fill:#b11a31;}.cls-11{fill:#f4a93f;}.cls-12{fill:#83d0fb;}.cls-13{fill:#fad564;}.cls-14{fill:#f44533;}.cls-15{fill:#ffffff;}.cls-16{fill:#bed5eb;}.cls-17{fill:#b2abdb;}.cls-18{fill:#807db2;}.cls-19{fill:#dfdafd;}.cls-20{fill:#64639c;}</style></defs><title/><rect class="cls-1" height="1469.32" rx="119.1" ry="119.1" width="1518.2" x="265.9" y="357.7"/><path class="cls-2" d="M1784.1,605.3V476.8A119.1,119.1,0,0,0,1665,357.7H385A119.1,119.1,0,0,0,265.9,476.8V605.3Z"/><rect class="cls-3" height="258.29" rx="56" ry="56" width="111.9" x="474" y="223"/><rect class="cls-3" height="258.29" rx="56" ry="56" width="111.9" x="804" y="223"/><rect class="cls-3" height="258.29" rx="56" ry="56" width="111.9" x="1134" y="223"/><rect class="cls-3" height="258.29" rx="56" ry="56" width="111.9" x="1464" y="223"/><path class="cls-4" d="M557.7,444.2h0a55.9,55.9,0,0,1-55.9-55.9V241.9a54.1,54.1,0,0,1,1.3-12.1A56.1,56.1,0,0,0,474,278.9V425.3a56,56,0,0,0,56,55.9h0a55.9,55.9,0,0,0,54.6-43.8A56.2,56.2,0,0,1,557.7,444.2Z"/><path class="cls-4" d="M887.8,444.2h0a55.9,55.9,0,0,1-56-55.9V241.9a60.6,60.6,0,0,1,1.3-12.1A56.1,56.1,0,0,0,804,278.9V425.3a56,56,0,0,0,56,55.9h0a55.8,55.8,0,0,0,54.6-43.8A56.1,56.1,0,0,1,887.8,444.2Z"/><path class="cls-4" d="M1217.8,444.2h0a56,56,0,0,1-56-55.9V241.9a60.6,60.6,0,0,1,1.3-12.1,56.1,56.1,0,0,0-29.1,49.1V425.3a56,56,0,0,0,56,55.9h0a55.8,55.8,0,0,0,54.6-43.8A56.1,56.1,0,0,1,1217.8,444.2Z"/><path class="cls-4" d="M1547.8,444.2h0a56,56,0,0,1-56-55.9V241.9a60.6,60.6,0,0,1,1.3-12.1,56.1,56.1,0,0,0-29.1,49.1V425.3a56,56,0,0,0,56,55.9h0a56,56,0,0,0,54.7-43.8A56.8,56.8,0,0,1,1547.8,444.2Z"/><polygon class="cls-5" points="1291.8 980.4 718.8 1553.5 608.9 1443.6 1177.3 875.1 1287.2 985 1291.8 980.4"/><path class="cls-6" d="M1251.4,801a77.8,77.8,0,0,1,109.9,0h0a77.6,77.6,0,0,1,0,109.9l-31.7,31.8L1219.7,832.8Z"/><polygon class="cls-7" points="1177.3 875.1 1219.7 832.8 1219.7 832.8 1177.3 875.1 1177.3 875.1"/><polygon class="cls-7" points="1291.8 980.4 1329.6 942.7 1329.6 942.7 1291.8 980.4"/><polygon class="cls-8" points="1287.2 985 1177.3 875.1 1219.7 832.8 1329.6 942.7 1291.8 980.4 1287.2 985"/><path class="cls-3" d="M718.8,1553.5,608.9,1443.6l-56.3,145.1c-5.1,13.2,7.9,26.1,21.1,21Z"/><polygon class="cls-9" points="718.8 1553.5 689.8 1524.5 1258.3 956.1 1287.2 985 1291.8 980.4 718.8 1553.5"/><path class="cls-10" d="M1219.7,832.8h0l80.9,80.9,31.8-31.7a77.8,77.8,0,0,0,12.5-93.5,75,75,0,0,1,16.4,12.5h0a77.6,77.6,0,0,1,0,109.9l-31.7,31.8Z"/><polygon class="cls-11" points="1258.3 956.1 1262.8 951.5 1300.6 913.7 1329.6 942.7 1291.8 980.4 1287.2 985 1258.3 956.1"/><path class="cls-4" d="M552.6,1588.7l5-12.9,132.2-51.3,29,29-145.1,56.2C560.5,1614.8,547.5,1601.9,552.6,1588.7Z"/><path class="cls-3" d="M1103.9,1072.5a14.1,14.1,0,0,0-24.1-9.9L735.1,1407.3a14.1,14.1,0,1,0,19.9,20l344.8-344.8A14.2,14.2,0,0,0,1103.9,1072.5Z"/><path class="cls-3" d="M1182.6,993.9a14.1,14.1,0,0,0-24.1-10l-37.2,37.2a14.1,14.1,0,0,0,20,19.9l37.2-37.2A14,14,0,0,0,1182.6,993.9Z"/><rect class="cls-12" height="196.38" rx="17.3" ry="17.3" transform="translate(1121.5 -230.2) rotate(45)" width="34.7" x="821.3" y="1140.4"/><rect class="cls-12" height="74.88" rx="17.3" ry="17.3" transform="translate(1070.9 -352.3) rotate(45)" width="34.7" x="943.3" y="1079.1"/><rect class="cls-13" height="43.1" rx="17.3" ry="17.3" transform="translate(968 -600.7) rotate(45)" width="34.7" x="1191.8" y="846.5"/><rect class="cls-14" height="75.62" rx="17.3" ry="17.3" transform="translate(949.1 -650.7) rotate(45)" width="34.7" x="1242.6" y="782.5"/><path class="cls-15" d="M1306.2,1393.1l-38.6,45.2c-32.7,57.7,21.1,135.9,126.6,153.8,60.4,8,70.2,43.1,87.7,62.4C1563.1,1396.7,1321,1362.3,1306.2,1393.1Z"/><path class="cls-16" d="M1406.9,1543.9c-80.1-13.7-130.4-62.1-135.6-109.8l-3.7,4.2c-32.7,57.7,21.1,135.9,126.6,153.8,60.4,8,70.2,43.1,87.7,62.4a377.9,377.9,0,0,0,12.1-48.9C1476.9,1586.2,1466.7,1551.8,1406.9,1543.9Z"/><path class="cls-3" d="M587.9,825.2h0a108.9,108.9,0,0,1,158.9-7.3l532.8,520-76,89.1L605.9,983.3A108.9,108.9,0,0,1,587.9,825.2Z"/><path class="cls-4" d="M657.5,956.6a108.9,108.9,0,0,1-18-158.1h0c2.8-3.3,5.8-6.3,8.8-9.2a108.6,108.6,0,0,0-60.4,35.9h0a108.9,108.9,0,0,0,18,158.1L1203.6,1427l34-39.8Z"/><rect class="cls-3" height="56.03" rx="28" ry="28" transform="translate(3148.2 1348.1) rotate(130.4)" width="195.6" x="1165.2" y="1372.6"/><path class="cls-4" d="M1327.6,1327.3l-80.2,94.1a28,28,0,0,1-39.5,3.1h0l-1.2-1.1-10.3,12.2a27.9,27.9,0,0,0,3.1,39.5h0a28,28,0,0,0,39.5-3.2l90.5-106.2A28,28,0,0,0,1327.6,1327.3Z"/><path class="cls-17" d="M1774.1,1714.4H494a119.1,119.1,0,0,1-119.1-119.1V364.2c0-2,.1-4.1.2-6.1A119.2,119.2,0,0,0,265.9,476.8V1707.9A119.1,119.1,0,0,0,385,1827H1665a119.1,119.1,0,0,0,119-113C1780.7,1714.3,1777.4,1714.4,1774.1,1714.4Z"/><path class="cls-18" d="M374.9,364.2c0-2,.1-4.1.2-6.1A119.2,119.2,0,0,0,265.9,476.8V605.3h109Z"/><rect class="cls-19" height="399.13" rx="42.2" ry="42.2" width="84.3" x="1699.6" y="789.3"/><rect class="cls-20" height="107.3" rx="16.6" ry="16.6" width="33.2" x="883.1" y="260.2"/><rect class="cls-20" height="107.3" rx="16.6" ry="16.6" width="33.2" x="1212.7" y="260.2"/><rect class="cls-20" height="107.3" rx="16.6" ry="16.6" width="33.2" x="1542.7" y="260.2"/><rect class="cls-20" height="107.3" rx="16.6" ry="16.6" width="33.2" x="551.4" y="260.2"/><path class="cls-17" d="M1665,357.7h-53a205,205,0,0,0,172.1,178.7V476.8A119.1,119.1,0,0,0,1665,357.7Z"/></svg>