<?xml version="1.0" ?>
<!-- Uploaded to: SVG Repo, www.svgrepo.com, Generator: SVG Repo Mixer Tools -->
<svg width="800px" height="800px" viewBox="0 0 120 120" id="Layer_1" version="1.1" xml:space="preserve" xmlns="http://www.w3.org/2000/svg" xmlns:xlink="http://www.w3.org/1999/xlink">
<style type="text/css">
	.st0{fill:#42C2FF;}
	.st1{fill:#3BB8EA;}
	.st2{fill:#7BEF89;}
	.st3{fill:#FFFFFF;}
</style>
<g>
<path class="st0" d="M71.9,73.3l-2.4,1.9c-3.7,2.8-7.2,4.6-9.5,1.6L46.7,59.6c-2.4-3.1,0.1-6,3.9-8.8L53,49l-9.1-11.7l-3.4,2.6   c-6,4.6-7,13.2-2.4,19.1l20.3,26.1c4.6,6,13.2,7,19.1,2.4l3.4-2.6L71.9,73.3z"/>
<g>
<path class="st1" d="M54.1,47.2L46,36.9c-1.3-1.7-3.8-2-5.5-0.7l0,0c-1.7,1.3-2,3.8-0.7,5.5l8,10.3c1.3,1.7,3.8,2,5.5,0.7l0,0    C55.1,51.4,55.4,48.9,54.1,47.2z"/>
<path class="st1" d="M81.9,82.9l-8.1-10.3c-1.3-1.7-3.8-2-5.5-0.7l0,0c-1.7,1.3-2,3.8-0.7,5.5l8.1,10.3c1.3,1.7,3.8,2,5.5,0.7l0,0    C82.9,87.1,83.2,84.7,81.9,82.9z"/>
</g>
<path class="st2" d="M100.8,50.6c-2.9,7.5-11.1,11.7-18.8,9.7c-2.2-0.6-4.1-1.5-5.9-2.8c-0.9-0.7-5.3-0.1-7.9,0.3   c-0.6,0.1-1.1-0.7-0.6-1.2c1.5-1.9,3.8-4.9,3.4-5.6c-1.6-3.8-1.7-8.3,0-12.5c3.1-7.4,11.4-11.4,19.1-9.2   C99.3,31.9,104.2,41.8,100.8,50.6z"/>
<g>
<path class="st3" d="M79.7,49.1h4.4c0.4,0,0.8,0.1,1,0.3c0.2,0.2,0.3,0.4,0.3,0.7c0,0.3-0.1,0.5-0.3,0.7c-0.2,0.2-0.5,0.3-0.8,0.3    h-6.2c-0.4,0-0.8-0.1-1-0.4c-0.2-0.2-0.4-0.5-0.4-0.8c0-0.2,0.1-0.5,0.2-0.8s0.3-0.6,0.5-0.8c0.8-0.8,1.4-1.4,2-2    c0.6-0.6,1-0.9,1.3-1.1c0.5-0.3,0.8-0.7,1.2-1c0.3-0.3,0.5-0.7,0.7-1c0.2-0.3,0.2-0.7,0.2-1c0-0.4-0.1-0.7-0.3-1    c-0.2-0.3-0.4-0.5-0.7-0.7c-0.3-0.2-0.6-0.2-1-0.2c-0.7,0-1.3,0.3-1.7,1c-0.1,0.1-0.2,0.3-0.3,0.7c-0.1,0.4-0.3,0.7-0.4,0.9    c-0.2,0.2-0.4,0.3-0.7,0.3c-0.3,0-0.5-0.1-0.7-0.3s-0.3-0.4-0.3-0.8c0-0.4,0.1-0.8,0.3-1.2s0.4-0.8,0.8-1.2    c0.3-0.3,0.8-0.6,1.3-0.8c0.5-0.2,1.2-0.3,1.9-0.3c0.9,0,1.6,0.1,2.2,0.4c0.4,0.2,0.7,0.4,1,0.7c0.3,0.3,0.5,0.7,0.7,1.1    c0.2,0.4,0.3,0.8,0.3,1.3c0,0.7-0.2,1.3-0.5,1.9c-0.3,0.6-0.7,1-1.1,1.3c-0.4,0.3-1,0.8-1.8,1.5c-0.9,0.7-1.4,1.2-1.8,1.6    C80,48.7,79.9,48.9,79.7,49.1z"/>
<path class="st3" d="M92.2,50.1v-1.6H88c-0.5,0-0.9-0.1-1.2-0.4s-0.4-0.6-0.4-1c0-0.1,0-0.2,0.1-0.3s0.1-0.2,0.2-0.3    c0.1-0.1,0.2-0.2,0.2-0.4c0.1-0.1,0.2-0.3,0.3-0.4l4.5-6c0.3-0.4,0.5-0.7,0.7-0.9c0.2-0.2,0.4-0.3,0.7-0.3c0.9,0,1.3,0.5,1.3,1.5    v6.6h0.4c0.4,0,0.8,0.1,1,0.2c0.3,0.1,0.4,0.4,0.4,0.8c0,0.3-0.1,0.6-0.3,0.7c-0.2,0.1-0.5,0.2-1,0.2h-0.5v1.6    c0,0.4-0.1,0.8-0.3,1c-0.2,0.2-0.4,0.3-0.8,0.3c-0.3,0-0.6-0.1-0.8-0.3C92.3,50.8,92.2,50.5,92.2,50.1z M88.6,46.6h3.6v-4.9    L88.6,46.6z"/>
</g>
<path class="st0" d="M100.3,59.1c-1.1,0-2.1,0.9-2.1,2.1c0,21.1-17.2,38.3-38.3,38.3S21.7,82.3,21.7,61.2S38.9,22.9,60,22.9   c3.9,0,7.6,0.6,11.3,1.7l-1.5,4.2c-0.3,0.8,0.5,1.6,1.4,1.3l8.4-3.6c0.5-0.2,0.8-0.9,0.5-1.4L75.8,17c-0.4-0.8-1.6-0.7-1.9,0.1   l-1.3,3.6c-4.1-1.3-8.3-1.9-12.7-1.9c-23.4,0-42.4,19-42.4,42.4c0,23.4,19,42.4,42.4,42.4c23.4,0,42.4-19,42.4-42.4   C102.4,60,101.5,59.1,100.3,59.1z"/>
</g>
</svg>