<?xml version="1.0" ?>
<!DOCTYPE svg  PUBLIC '-//W3C//DTD SVG 1.1//EN'  'http://www.w3.org/Graphics/SVG/1.1/DTD/svg11.dtd'>
<!-- Uploaded to: SVG Repo, www.svgrepo.com, Generator: SVG Repo Mixer Tools -->
<svg width="800px" height="800px" viewBox="0 0 32 32" enable-background="new 0 0 32 32" version="1.1" xml:space="preserve" xmlns="http://www.w3.org/2000/svg" xmlns:xlink="http://www.w3.org/1999/xlink">
<g id="Home"/>
<g id="Print"/>
<g id="Mail"/>
<g id="Camera"/>
<g id="Video"/>
<g id="Film"/>
<g id="Message"/>
<g id="Telephone"/>
<g id="User"/>
<g id="File"/>
<g id="Folder"/>
<g id="Map"/>
<g id="Download"/>
<g id="Upload"/>
<g id="Video_Recorder">
<path d="M28,5H12c-1.7,0-3,1.3-3,3v2.4L2.5,7.1C2.1,7,1.8,7,1.5,7.1C1.2,7.3,1,7.6,1,8v8v8c0,0.3,0.2,0.7,0.5,0.8   c0.3,0.2,0.7,0.2,1,0L9,21.6V24c0,1.6,1.3,3,3,3h16c1.7,0,3-1.4,3-3v-8V8C31,6.3,29.7,5,28,5z" fill="#E92662"/>
</g>
<g id="Schedule"/>
<g id="Cart"/>
<g id="Setting"/>
<g id="Search"/>
<g id="Pencils"/>
<g id="Group"/>
<g id="Record"/>
<g id="Headphone"/>
<g id="Music_Player"/>
<g id="Sound_On"/>
<g id="Sound_Off"/>
<g id="Lock"/>
<g id="Lock_open"/>
<g id="Love"/>
<g id="Favorite"/>
<g id="Film_1_"/>
<g id="Music"/>
<g id="Puzzle"/>
<g id="Turn_Off"/>
<g id="Book"/>
<g id="Save"/>
<g id="Reload"/>
<g id="Trash"/>
<g id="Tag"/>
<g id="Link"/>
<g id="Like"/>
<g id="Bad"/>
<g id="Gallery"/>
<g id="Add"/>
<g id="Close"/>
<g id="Forward"/>
<g id="Back"/>
<g id="Buy"/>
<g id="Mac"/>
<g id="Laptop"/>
</svg>