<?xml version="1.0" ?><!-- Uploaded to: SVG Repo, www.svgrepo.com, Generator: SVG Repo Mixer Tools -->
<svg width="800px" height="800px" viewBox="0 0 2050 2050" data-name="Layer 2" id="Layer_2" xmlns="http://www.w3.org/2000/svg"><defs><style>.cls-1{fill:#c8c2e9;}.cls-2{fill:#b9b1e0;}.cls-3{fill:#8a87b2;}.cls-4{fill:#7c79ab;}.cls-5{fill:#4d4c78;}.cls-6{fill:#f4c23f;}.cls-7{fill:#f4a93f;}.cls-8{fill:#de3226;}.cls-9{fill:#b11a31;}.cls-10{fill:#f8881b;}.cls-11{fill:#f08000;}.cls-12{fill:#fad564;}.cls-13{fill:#f44533;}</style></defs><title/><path class="cls-1" d="M455.6,207.1V1298.8L294.8,1599.2H1413c88.8,0,160.7-72,160.7-160.8V207.1Z"/><path class="cls-2" d="M1467.4,207.1v1130a160.8,160.8,0,0,1-160.8,160.8H349l-54.2,101.3H1413c88.8,0,160.7-72,160.7-160.8V207.1Z"/><path class="cls-3" d="M134,1298.8H455.6a0,0,0,0,1,0,0v139.5a160.8,160.8,0,0,1-160.8,160.8h0A160.8,160.8,0,0,1,134,1438.4V1298.8a0,0,0,0,1,0,0Z"/><path class="cls-4" d="M347.1,1590.5a160.9,160.9,0,0,0,108.5-152.1V1298.8H238.5v139.6A160.9,160.9,0,0,0,347.1,1590.5Z"/><path class="cls-5" d="M1367.2,466.9h-716a20,20,0,0,1,0-40h716a20,20,0,0,1,0,40Z"/><path class="cls-5" d="M1239.3,659.2H651.2a20,20,0,0,1,0-40h588.1a20,20,0,0,1,0,40Z"/><path class="cls-5" d="M1152.8,851.4H651.2a20,20,0,0,1,0-40h501.6a20,20,0,0,1,0,40Z"/><path class="cls-5" d="M1239.3,1043.7H651.2a20,20,0,0,1,0-40h588.1a20,20,0,0,1,0,40Z"/><path class="cls-5" d="M1152.8,1235.9H651.2a20,20,0,0,1,0-40h501.6a20,20,0,0,1,0,40Z"/><path class="cls-2" d="M1573.7,1438.4V1070.9a27.8,27.8,0,0,1-8.5,2.1c-6,0-21-7.1-30.9-11.8-19.5-9.2-41.6-19.6-66.3-19.6a81.4,81.4,0,0,0-24.8,3.8c-35.3,11.5-52.3,42.8-66,67.9-4.7,8.6-12.5,23-16.6,26.1s-20.7,6.2-30.5,8.1c-28,5.2-62.8,11.8-84.3,41.4s-17,64.4-13.4,92.5c1.3,10.6,3.4,26.8,1.7,32s-12.7,16.3-19.2,23.2c-19.9,20.9-44.5,46.9-44.5,84.4s24.6,63.5,44.5,84.5c6.5,6.9,17.5,18.4,19.2,23.1s-.4,21.4-1.7,32.1-3.2,25-3,38.5H1413C1501.8,1599.2,1573.7,1527.2,1573.7,1438.4Z"/><path class="cls-6" d="M1916,1421c0,35.3-51.2,62.1-61.6,94s14.6,84.8-5.4,112.3-77.3,19.5-105.1,39.7-37.3,77-70.3,87.8-73.1-29.7-108.4-29.7-76.6,40-108.5,29.7-42.7-67.7-70.2-87.8-84.9-12-105.2-39.7,5.3-79.2-5.4-112.3-61.5-58.7-61.5-94,51.2-62.1,61.5-94-14.6-84.7,5.4-112.2,77.4-19.6,105.2-39.8,37.2-77,70.2-87.7,73.2,29.7,108.5,29.7,76.5-40.1,108.4-29.7,42.8,67.7,70.3,87.7,84.9,12,105.1,39.8-5.3,79.2,5.4,112.2S1916,1385.7,1916,1421Z"/><path class="cls-7" d="M1557,1672.4a229.8,229.8,0,1,1,89.3-18.1A227.3,227.3,0,0,1,1557,1672.4Z"/><path class="cls-7" d="M1702.5,1492.8a19.1,19.1,0,0,0-25.3-9.5l-140.9,63.3a19.1,19.1,0,0,0-5.3,3.6,17.3,17.3,0,0,0-5.2-3.6l-140.9-63.3a19,19,0,0,0-25.3,9.5l-65.4,145.6c25.5,14.7,69.1,11.8,92.3,28.6,26.6,19.4,36.6,73.4,67.1,86.6l77.4-172.2,68.7,152.7c25.8,11.2,52,27.8,73.9,20.7,33-10.8,42.8-67.7,70.3-87.8,8.4-6.1,19.5-9.6,31.4-12.3Z"/><path class="cls-8" d="M1418.6,1833.2l-33.3-59.1a19.1,19.1,0,0,0-20.6-9.2l-66.4,14.2c-15.2,3.3-27.8-12.2-21.4-26.5l116.9-259.8a19,19,0,0,1,25.2-9.5l140.9,63.3a19.1,19.1,0,0,1,9.6,25.2l-116.9,259.8A19.1,19.1,0,0,1,1418.6,1833.2Z"/><path class="cls-9" d="M1434.5,1540.5a39.4,39.4,0,0,0-19.2-52.4l-11.2-5.2a18.8,18.8,0,0,0-10.3,9.9l-116.9,259.8c-6.4,14.3,6.2,29.8,21.4,26.5l28.8-6.2Z"/><path class="cls-8" d="M1711.7,1833.2l33.4-59.1a19,19,0,0,1,20.6-9.2l66.3,14.2a19.1,19.1,0,0,0,21.4-26.5l-116.8-259.8a19,19,0,0,0-25.2-9.5l-140.9,63.3a19.1,19.1,0,0,0-9.6,25.2l116.8,259.8A19.1,19.1,0,0,0,1711.7,1833.2Z"/><path class="cls-9" d="M1607.1,1560.4l-42.8,19,113.4,252.2a19.1,19.1,0,0,0,34,1.6l9.5-16.8Z"/><path class="cls-9" d="M1559.9,1546.6,1419,1483.3a19,19,0,0,0-25.2,9.5l-31.9,70.9a228.4,228.4,0,0,0,105.8,90.6,223.5,223.5,0,0,0,57.5,15.9l44.3-98.4A19.1,19.1,0,0,0,1559.9,1546.6Z"/><path class="cls-9" d="M1761.2,1547.6l-24.6-54.8a19,19,0,0,0-25.2-9.5l-140.9,63.3a19.1,19.1,0,0,0-9.6,25.2l43,95.8a230.8,230.8,0,0,0,115.4-62.4A229.1,229.1,0,0,0,1761.2,1547.6Z"/><circle class="cls-10" cx="1565.2" cy="1415.4" r="214.8"/><circle class="cls-11" cx="1565.2" cy="1415.4" r="189.8"/><circle class="cls-6" cx="1565.2" cy="1415.4" r="168.4"/><path class="cls-12" d="M1715.1,1167.2h0a39.8,39.8,0,0,0,12.1-10.9c-16.5-25.1-28.2-60.8-53.6-69-8.7-2.8-18.2-1.9-28,1a38.6,38.6,0,0,0,.8,37l16.1,27.7A38.5,38.5,0,0,0,1715.1,1167.2Z"/><path class="cls-12" d="M1566,1129.6a38.9,38.9,0,0,0,5.5-13c-2.1.2-4.2.4-6.3.4-31,0-66.6-30.9-96.4-31.4a38.5,38.5,0,0,0,17,37.6l26.9,17.6a38.5,38.5,0,0,0,53.3-11.2Z"/><path class="cls-12" d="M1854.4,1327c-10.7-33,14.6-84.7-5.4-112.2-12.6-17.4-39.7-20.7-64.9-25.6a61.3,61.3,0,0,0-8.5,37.9l4.9,51.7a62.6,62.6,0,0,0,68.2,56.3h0a79.3,79.3,0,0,0,8.5-1.4A55.8,55.8,0,0,1,1854.4,1327Z"/><rect class="cls-13" height="108.76" rx="28.5" ry="28.5" transform="translate(863.8 -453.7) rotate(24.8)" width="57.1" x="1434.4" y="1681.7"/><rect class="cls-13" height="108.76" rx="28.5" ry="28.5" transform="translate(-522.8 869.4) rotate(-24)" width="57.1" x="1754" y="1609.3"/></svg>