<?xml version="1.0" ?><!-- Uploaded to: SVG Repo, www.svgrepo.com, Generator: SVG Repo Mixer Tools -->
<svg width="800px" height="800px" viewBox="0 0 32 32" enable-background="new 0 0 32 32" id="Filled_Line" version="1.1" xml:space="preserve" xmlns="http://www.w3.org/2000/svg" xmlns:xlink="http://www.w3.org/1999/xlink"><path d="M23.995,13.089C23.996,13.059,24,13.03,24,13c0-4.418-3.582-8-8-8  c-3.814,0-6.998,2.671-7.8,6.242C5.208,12.038,3,14.757,3,18c0,3.866,3.134,7,7,7h13c3.314,0,6-2.686,6-6  C29,16.026,26.834,13.564,23.995,13.089z" fill="#FFFFFF" id="XMLID_849_"/><path d="M5,18c0-3.243,2.208-5.962,5.2-6.758c0.731-3.254,3.441-5.753,6.801-6.173  C16.672,5.028,16.34,5,16,5c-3.814,0-6.998,2.671-7.8,6.242C5.208,12.038,3,14.757,3,18c0,3.866,3.134,7,7,7h2  C8.134,25,5,21.866,5,18z" fill="#BBB24F" id="XMLID_461_"/><path d="M23.995,13.089C23.996,13.059,24,13.03,24,13c0-4.418-3.582-8-8-8  c-2.714,0-5.104,1.357-6.549,3.424C10.742,7.527,12.308,7,14,7c4.073,0,7.478,3.054,7.942,7.067c0.069,0.599,0.49,1.081,1.058,1.282  c2.415,0.853,4.121,3.203,3.993,5.939c-0.05,1.06-0.392,2.035-0.939,2.87C27.816,23.112,29,21.197,29,19  C29,16.026,26.834,13.564,23.995,13.089z" fill="#FBF4A5" id="XMLID_462_"/><path d="  M23.995,13.089C23.996,13.059,24,13.03,24,13c0-4.418-3.582-8-8-8c-3.814,0-6.998,2.671-7.8,6.242C5.208,12.038,3,14.757,3,18  c0,3.866,3.134,7,7,7h13c3.314,0,6-2.686,6-6C29,16.026,26.834,13.564,23.995,13.089z" fill="none" id="XMLID_847_" stroke="#200F60" stroke-linecap="round" stroke-linejoin="round" stroke-miterlimit="10" stroke-width="2"/><path d="M20.707,13.293c0.391,0.391,0.391,1.023,0,1.414l-5,5C15.512,19.902,15.256,20,15,20  s-0.512-0.098-0.707-0.293l-3-3c-0.391-0.391-0.391-1.023,0-1.414s1.023-0.391,1.414,0L15,17.586l4.293-4.293  C19.684,12.902,20.316,12.902,20.707,13.293z" fill="#F08A5D" id="XMLID_467_"/><path d="M20.707,13.293c0.391,0.391,0.391,1.023,0,1.414l-5,5C15.512,19.902,15.256,20,15,20  s-0.512-0.098-0.707-0.293l-3-3c-0.391-0.391-0.391-1.023,0-1.414s1.023-0.391,1.414,0L15,17.586l4.293-4.293  C19.684,12.902,20.316,12.902,20.707,13.293z" fill="#F08A5D" id="XMLID_468_"/><path d="M12.145,15.855l2.293,2.293L15,17.586l-2.293-2.293c-0.391-0.391-1.023-0.391-1.414,0  c-0.1,0.1-0.173,0.217-0.222,0.341C11.43,15.492,11.854,15.565,12.145,15.855z" fill="#B46846" id="XMLID_469_"/><path d="M20.707,13.293c-0.391-0.391-1.023-0.391-1.414,0l-0.562,0.562  c0.391-0.391,1.023-0.391,1.414,0s0.391,1.023,0,1.414l0.562-0.562C21.098,14.316,21.098,13.684,20.707,13.293z" fill="#B46846" id="XMLID_470_"/></svg>