<?xml version="1.0" encoding="utf-8"?>
<!-- Uploaded to: SVG Repo, www.svgrepo.com, Generator: SVG Repo Mixer Tools -->
<svg width="800px" height="800px" viewBox="0 0 1024 1024" class="icon"  version="1.1" xmlns="http://www.w3.org/2000/svg"><path d="M0 512v448h992a32 32 0 0 0 32-32V512H0z" fill="#EAEAEA" /><path d="M0 672h1024v96H0z" fill="#EF4D4D" /><path d="M0 864v96h992a32 32 0 0 0 32-32v-64H0z" fill="#EACA44" /><path d="M0 672h1024v32H0z" fill="" /><path d="M96 576.64h64v-1.024h64v1.024h64v-1.024h96c0 0.384 0.192 0.672 0.224 1.024h63.552c0.032-0.384 0.224-0.64 0.224-1.024h64v1.024h64v-1.024h160c0 0.384 0.192 0.672 0.224 1.024h63.552c0.032-0.384 0.224-0.64 0.224-1.024h32c0 0.384 0.192 0.672 0.224 1.024h63.552c0.032-0.384 0.224-0.64 0.224-1.024h64v1.024h64v-65.024L726.24 81.824A37.12 37.12 0 0 0 672 71.616L0 511.616v64h96v1.024z" fill="#4F3923" /><path d="M0 864h1024v32H0z" fill="" /><path d="M672 288m-96 0a96 96 0 1 0 192 0 96 96 0 1 0-192 0Z" fill="#EF4D4D" /><path d="M672 352a95.808 95.808 0 0 1-94.368-80A91.008 91.008 0 0 0 576 288a96.032 96.032 0 0 0 192 0c0-5.472-0.704-10.784-1.632-16A95.808 95.808 0 0 1 672 352z" fill="" /><path d="M751.776 341.312a95.936 95.936 0 0 1-159.552 0c-10.208 7.648-16.224 16.8-16.224 26.688 0 26.496 42.976 48 96 48s96-21.504 96-48c0-9.888-6.016-19.04-16.224-26.688z" fill="" /></svg>