<?xml version="1.0" ?><!-- Uploaded to: SVG Repo, www.svgrepo.com, Generator: SVG Repo Mixer Tools -->
<svg width="800px" height="800px" viewBox="0 0 32 32" enable-background="new 0 0 32 32" id="Filled_Line" version="1.1" xml:space="preserve" xmlns="http://www.w3.org/2000/svg" xmlns:xlink="http://www.w3.org/1999/xlink"><path d="M23.995,13.089C23.996,13.059,24,13.03,24,13c0-4.418-3.582-8-8-8  c-3.814,0-6.998,2.671-7.8,6.242C5.208,12.038,3,14.757,3,18c0,3.866,3.134,7,7,7h13c3.314,0,6-2.686,6-6  C29,16.026,26.834,13.564,23.995,13.089z" fill="#FFFFFF" id="XMLID_867_"/><path d="M5,18c0-3.243,2.208-5.962,5.2-6.758c0.731-3.254,3.441-5.753,6.801-6.173  C16.672,5.028,16.34,5,16,5c-3.814,0-6.998,2.671-7.8,6.242C5.208,12.038,3,14.757,3,18c0,3.866,3.134,7,7,7h2  C8.134,25,5,21.866,5,18z" fill="#BBB24F" id="XMLID_381_"/><path d="M23.995,13.089C23.996,13.059,24,13.03,24,13c0-4.418-3.582-8-8-8  c-2.714,0-5.104,1.357-6.549,3.424C10.742,7.527,12.308,7,14,7c4.073,0,7.478,3.054,7.942,7.067c0.069,0.599,0.49,1.081,1.058,1.282  c2.415,0.853,4.121,3.203,3.993,5.939c-0.05,1.06-0.392,2.035-0.939,2.87C27.816,23.112,29,21.197,29,19  C29,16.026,26.834,13.564,23.995,13.089z" fill="#FBF4A5" id="XMLID_382_"/><path d="  M23.995,13.089C23.996,13.059,24,13.03,24,13c0-4.418-3.582-8-8-8c-3.814,0-6.998,2.671-7.8,6.242C5.208,12.038,3,14.757,3,18  c0,3.866,3.134,7,7,7h13c3.314,0,6-2.686,6-6C29,16.026,26.834,13.564,23.995,13.089z" fill="none" id="XMLID_866_" stroke="#200F60" stroke-linecap="round" stroke-linejoin="round" stroke-miterlimit="10" stroke-width="2"/><path d="M20.707,16.293c-0.391-0.391-1.023-0.391-1.414,0L17,18.586V11c0-0.552-0.448-1-1-1  s-1,0.448-1,1v7.586l-2.293-2.293c-0.391-0.391-1.023-0.391-1.414,0s-0.391,1.023,0,1.414l4,4C15.488,21.902,15.744,22,16,22  s0.512-0.098,0.707-0.293l4-4C21.098,17.316,21.098,16.684,20.707,16.293z" fill="#F08A5D" id="XMLID_434_"/><path d="M20.707,16.293c-0.391-0.391-1.023-0.391-1.414,0l-0.501,0.501  c0.393-0.312,0.958-0.301,1.321,0.062c0.391,0.391,0.443,1.002,0.053,1.393l0.541-0.541C21.098,17.316,21.098,16.684,20.707,16.293z  " fill="#B46846" id="XMLID_435_"/><path d="M15.406,10.562c0.552,0,1,0.448,1,1v7.586L17,18.555V11c0-0.552-0.448-1-1-1  c-0.421,0-0.778,0.261-0.925,0.629C15.18,10.592,15.289,10.562,15.406,10.562z" fill="#B46846" id="XMLID_436_"/><path d="M12.113,16.855l2.293,2.293v-1.156l-1.699-1.699c-0.391-0.391-1.023-0.391-1.414,0  c-0.099,0.099-0.172,0.213-0.22,0.334C11.425,16.502,11.831,16.574,12.113,16.855z" fill="#B46846" id="XMLID_437_"/></svg>