<?xml version="1.0" ?><!-- Uploaded to: SVG Repo, www.svgrepo.com, Generator: SVG Repo Mixer Tools -->
<svg width="800px" height="800px" viewBox="0 0 32 32" enable-background="new 0 0 32 32" id="Filled_Line" version="1.1" xml:space="preserve" xmlns="http://www.w3.org/2000/svg" xmlns:xlink="http://www.w3.org/1999/xlink"><path d="M23.995,13.089C23.996,13.059,24,13.03,24,13c0-4.418-3.582-8-8-8  c-3.814,0-6.998,2.671-7.8,6.242C5.208,12.038,3,14.757,3,18c0,3.866,3.134,7,7,7h13c3.314,0,6-2.686,6-6  C29,16.026,26.834,13.564,23.995,13.089z" fill="#FFFFFF" id="XMLID_1466_"/><path d="M5,18c0-3.243,2.208-5.962,5.2-6.758c0.731-3.254,3.441-5.753,6.801-6.173  C16.672,5.028,16.34,5,16,5c-3.814,0-6.998,2.671-7.8,6.242C5.208,12.038,3,14.757,3,18c0,3.866,3.134,7,7,7h2  C8.134,25,5,21.866,5,18z" fill="#BBB24F" id="XMLID_1465_"/><path d="M23.995,13.089C23.996,13.059,24,13.03,24,13c0-4.418-3.582-8-8-8  c-2.714,0-5.104,1.357-6.549,3.424C10.742,7.527,12.308,7,14,7c4.073,0,7.478,3.054,7.942,7.067c0.069,0.599,0.49,1.081,1.058,1.282  c2.415,0.853,4.121,3.203,3.993,5.939c-0.05,1.06-0.392,2.035-0.939,2.87C27.816,23.112,29,21.197,29,19  C29,16.026,26.834,13.564,23.995,13.089z" fill="#FBF4A5" id="XMLID_1464_"/><path d="  M23.995,13.089C23.996,13.059,24,13.03,24,13c0-4.418-3.582-8-8-8c-3.814,0-6.998,2.671-7.8,6.242C5.208,12.038,3,14.757,3,18  c0,3.866,3.134,7,7,7h13c3.314,0,6-2.686,6-6C29,16.026,26.834,13.564,23.995,13.089z" fill="none" id="XMLID_1463_" stroke="#200F60" stroke-linecap="round" stroke-linejoin="round" stroke-miterlimit="10" stroke-width="2"/><path d="M10.293,14.293c0.391-0.391,1.023-0.391,1.414,0l2,2c0.286,0.286,0.372,0.716,0.217,1.09  C13.77,17.757,13.404,18,13,18h-0.858c0.447,1.721,1.999,3,3.858,3c0.556,0,1.094-0.112,1.599-0.332  c0.505-0.224,1.095,0.011,1.316,0.516c0.222,0.506-0.01,1.096-0.516,1.316C17.641,22.832,16.833,23,16,23  c-2.967,0-5.431-2.167-5.91-5H9c-0.404,0-0.77-0.243-0.924-0.617c-0.155-0.374-0.069-0.804,0.217-1.09L10.293,14.293z" fill="#F08A5D" id="XMLID_1467_"/><path d="M18.076,16.617C18.23,16.244,18.596,16,19,16h0.858c-0.447-1.72-1.999-3-3.858-3  c-0.558,0-1.097,0.112-1.602,0.333c-0.508,0.22-1.096-0.01-1.317-0.515c-0.222-0.506,0.009-1.096,0.515-1.317  C14.355,11.169,15.165,11,16,11c2.967,0,5.431,2.167,5.91,5H23c0.404,0,0.77,0.244,0.924,0.617c0.155,0.374,0.069,0.804-0.217,1.09  l-2,2C21.512,19.902,21.256,20,21,20s-0.512-0.098-0.707-0.293l-2-2C18.007,17.421,17.921,16.991,18.076,16.617z" fill="#F08A5D" id="XMLID_1469_"/><path d="M11.204,14.768l2,2c0.286,0.286,0.372,0.716,0.217,1.09  c-0.008,0.019-0.023,0.034-0.032,0.053c0.235-0.101,0.433-0.281,0.535-0.528c0.155-0.374,0.069-0.804-0.217-1.09l-2-2  c-0.391-0.391-1.023-0.391-1.414,0l-0.419,0.419C10.266,14.392,10.838,14.402,11.204,14.768z" fill="#B46846" id="XMLID_1472_"/><path d="M18.915,21.184c-0.222-0.505-0.812-0.739-1.316-0.516C17.094,20.888,16.556,21,16,21  c-1.682,0-3.103-1.052-3.692-2.525h-0.669c0.447,1.721,1.999,3,3.858,3c0.556,0,1.094-0.112,1.599-0.332  c0.505-0.224,1.095,0.011,1.316,0.516c0.126,0.287,0.093,0.594-0.04,0.852c0.009-0.004,0.018-0.006,0.027-0.01  C18.905,22.279,19.137,21.689,18.915,21.184z" fill="#B46846" id="XMLID_1475_"/><path d="M23.924,16.617C23.77,16.244,23.404,16,23,16h-1.09c-0.478-2.833-2.942-5-5.91-5  c-0.835,0-1.645,0.169-2.404,0.501c-0.321,0.141-0.513,0.434-0.567,0.755c0.025-0.013,0.041-0.036,0.067-0.047  c0.76-0.333,1.569-0.501,2.404-0.501c2.967,0,5.431,2.167,5.91,5h1.09c0.404,0,0.77,0.244,0.924,0.617  c0.084,0.203,0.092,0.42,0.041,0.624l0.243-0.243C23.993,17.421,24.079,16.991,23.924,16.617z" fill="#B46846" id="XMLID_1483_"/></svg>