<?xml version="1.0" ?>
<!-- Uploaded to: SVG Repo, www.svgrepo.com, Generator: SVG Repo Mixer Tools -->
<svg width="800px" height="800px" viewBox="0 0 512 512" version="1.1" xml:space="preserve" xmlns="http://www.w3.org/2000/svg" xmlns:xlink="http://www.w3.org/1999/xlink">
<style type="text/css">
	.st0{display:none;}
	.st1{display:inline;}
	.st2{fill:none;stroke:#B3B3B3;stroke-miterlimit:10;}
	.st3{fill:none;stroke:#ED1C24;stroke-miterlimit:10;}
	.st4{fill:#F9C04A;}
	.st5{fill:#FFFFFF;stroke:#000000;stroke-width:10;stroke-linecap:round;stroke-linejoin:round;stroke-miterlimit:10;}
	.st6{fill:#DEF6FC;}
	.st7{fill:#FFDA9F;}
	.st8{fill:#FFFFFF;}
	.st9{fill:#FF5751;}
	.st10{fill:#FF908A;}
	.st11{fill:#133260;}
	.st12{fill:#7782BB;}
	.st13{fill:#96A5D6;}
	.st14{fill:#FF5741;}
	.st15{fill:#43527A;}
	.st16{fill:#5E7296;}
	.st17{fill:none;stroke:#133260;stroke-width:9;stroke-linecap:round;stroke-linejoin:round;stroke-miterlimit:10;}
	.st18{fill:#83D689;}
	.st19{fill:#B5F4B8;}
	.st20{fill:#9BC5FF;}
	.st21{fill:#B8D8FF;}
	.st22{fill:#F24133;}
	.st23{fill:#589FFF;}
	.st24{fill:#7180BC;}
	.st25{fill:#93A3D8;}
	.st26{fill:#FF8103;}
	.st27{fill:#FF9D4D;}
	.st28{fill:#BC8D66;}
	.st29{fill:#CEA282;}
	.st30{fill:#FFDDA1;}
	.st31{fill:#FFF1DC;}
	.st32{fill:#7F6674;}
	.st33{fill:#937A89;}
	.st34{fill:#04398E;}
	.st35{fill:#A6D1FF;}
	.st36{fill:#EAA62D;}
	.st37{fill:#C5DFFF;}
	.st38{fill:#D6A47F;}
	.st39{fill:#99A4D6;}
</style>
<g class="st0" id="Layer_31">
<g class="st1">
<g>
<g>
<ellipse class="st2" cx="256" cy="256" rx="248.1" ry="248.3"/>
<path class="st2" d="M398.8,504.5H113.2c-18.8,0-34.1-15.3-34.1-34.1V41.6c0-18.8,15.3-34.1,34.1-34.1h285.5      c18.8,0,34.1,15.3,34.1,34.1v428.9C432.9,489.3,417.6,504.5,398.8,504.5z"/>
<path class="st2" d="M7.9,399.8V112.2c0-16.4,13.3-29.8,29.8-29.8h436.7c16.4,0,29.8,13.3,29.8,29.8v287.6      c0,16.4-13.3,29.8-29.8,29.8H37.6C21.2,429.6,7.9,416.2,7.9,399.8z"/>
<path class="st2" d="M440.4,469.9H71.6c-16.4,0-29.8-13.3-29.8-29.8V71.9c0-16.4,13.3-29.8,29.8-29.8h368.8      c16.4,0,29.8,13.3,29.8,29.8v368.2C470.2,456.5,456.8,469.9,440.4,469.9z"/>
</g>
<rect class="st3" height="497" transform="matrix(-1.836970e-16 1 -1 -1.836970e-16 512 5.684342e-14)" width="497" x="7.5" y="7.5"/>
</g>
</g>
</g>
<g id="Layer_32">
<g>
<g>
<path class="st4" d="M267,8.9l30.7,28c4.2,3.9,10.2,5.2,15.7,3.6l39.8-11.9c8.1-2.4,16.7,1.7,19.9,9.6l15.5,38.6     c2.1,5.3,6.9,9.1,12.6,10l41.1,6.6c8.3,1.3,14.3,8.8,13.7,17.2l-2.8,41.5c-0.4,5.7,2.3,11.2,7,14.5l34.2,23.7     c6.9,4.8,9.1,14.1,4.9,21.5l-20.5,36.2c-2.8,5-2.8,11.1,0,16.1l20.5,36.2c4.2,7.4,2,16.7-4.9,21.5l-34.2,23.7     c-4.7,3.3-7.4,8.8-7,14.5l2.8,41.5c0.6,8.4-5.4,15.9-13.7,17.2l-41.1,6.6c-5.7,0.9-10.5,4.7-12.6,10l-15.5,38.6     c-3.2,7.8-11.8,12-19.9,9.6l-39.8-11.9c-5.5-1.6-11.5-0.3-15.7,3.6l-30.7,28c-6.2,5.7-15.8,5.7-22,0l-30.7-28     c-4.2-3.9-10.2-5.2-15.7-3.6l-39.8,11.9c-8.1,2.4-16.7-1.7-19.9-9.6l-15.5-38.6c-2.1-5.3-6.9-9.1-12.6-10l-41.1-6.6     c-8.3-1.3-14.3-8.8-13.7-17.2l2.8-41.5c0.4-5.7-2.3-11.2-7-14.5l-34.2-23.7c-6.9-4.8-9.1-14.1-4.9-21.5l20.5-36.2     c2.8-5,2.8-11.1,0-16.1l-20.5-36.2c-4.2-7.4-2-16.7,4.9-21.5l34.2-23.7c4.7-3.3,7.4-8.8,7-14.5l-2.8-41.5     c-0.6-8.4,5.4-15.9,13.7-17.2l41.1-6.6c5.7-0.9,10.5-4.7,12.6-10l15.5-38.6c3.2-7.8,11.8-12,19.9-9.6l39.8,11.9     c5.5,1.6,11.5,0.3,15.7-3.6l30.7-28C251.2,3.2,260.8,3.2,267,8.9z"/>
<g>
<circle class="st6" cx="256" cy="256" r="184.9"/>
</g>
<g>
<path class="st7" d="M67.3,352c-38.9-93.5-16.8-197.2,48.1-266.8c-1.5,0.7-3,1.2-4.7,1.5l-41.1,6.6c-8.3,1.3-14.3,8.8-13.7,17.2      l2.8,41.5c0.4,5.7-2.3,11.2-7,14.5l-34.2,23.7c-6.9,4.8-9.1,14.1-4.9,21.5l20.5,36.2c2.8,5,2.8,11.1,0,16.1l-20.5,36.2      c-4.2,7.4-2,16.7,4.9,21.5l34.2,23.7c4.7,3.3,7.4,8.8,7,14.5l-2.8,41.5c-0.6,8.4,5.4,15.9,13.7,17.2l41.1,6.6      c1.6,0.3,3.2,0.8,4.7,1.5C95.6,405.5,79.1,380.4,67.3,352z"/>
<path class="st7" d="M180.8,35.2l-22.1-6.6c-8.1-2.4-16.7,1.7-19.9,9.6l-15.5,38.6c-0.1,0.3-0.2,0.5-0.3,0.8      C139.8,61,159.2,46.7,180.8,35.2z"/>
<path class="st7" d="M123,434.5c0.1,0.3,0.2,0.5,0.3,0.8l15.5,38.6c3.2,7.8,11.8,12,19.9,9.6l22.2-6.6      C159.8,465.6,140.3,451.4,123,434.5z"/>
</g>
<path class="st8" d="M110.6,327c-39.2-94.3,5.4-202.5,99.7-241.7c19.1-7.9,38.7-12.4,58.3-13.8c-27.7-1.9-56.2,2.4-83.6,13.8     C90.7,124.5,46.1,232.7,85.3,327c31.3,75.2,106.4,118.8,183.4,113.5C201,435.8,138.4,393.9,110.6,327z"/>
<g>
<path class="st9" d="M185,85.3C116.9,113.6,74.7,178,71.3,247.1l308.6-128.4C328.5,72.4,253.1,57,185,85.3z"/>
<path class="st10" d="M210.3,85.3c19.1-7.9,38.7-12.4,58.3-13.8c-27.7-1.9-56.2,2.4-83.6,13.8C116.9,113.6,74.7,178,71.3,247.1      l26.2-10.9C104.5,171.3,145.8,112.2,210.3,85.3z"/>
<path class="st9" d="M132.1,393.3c51.4,46.3,126.8,61.8,194.9,33.4c68.1-28.3,110.3-92.7,113.7-161.8L132.1,393.3z"/>
<path class="st10" d="M268.7,440.5c-44.8-3.1-87.3-22.5-119-54.6l-17.6,7.3C169.1,426.6,218.5,444,268.7,440.5z"/>
</g>
</g>
<g>
<path class="st11" d="M178.3,314.6c-12.2-29.4-50.2,3.2-63.7-29.1c-8-19.3,5.7-30.6,18-35.8c9.9-4.1,23.6-5.9,25.6-1.2     c0.7,1.7,0.6,5.5-1.8,6.5c-2.5,1-9-2.2-20.6,2.7c-9.8,4.1-17.7,11.6-12.8,23.3c10.2,24.6,48.4-7.6,63.7,29.1     c7.8,18.8-0.3,32.1-16.6,38.9c-16.9,7-31.1,1.8-33.1-3c-0.9-2.1-0.1-5.7,1.9-6.6c3.4-1.4,10.7,8.5,27.2,1.6     C178.5,336,183.3,326.7,178.3,314.6z"/>
<path class="st11" d="M204.5,329.4c-0.1-0.3-0.3-0.7-0.3-1L194.5,227c-0.2-2.4,1.6-4.3,3.9-5.2c2.4-1,5.1-0.9,6.6,0.8l64.9,78.4     c0.1,0.3,0.4,0.5,0.5,0.7c0.9,2.1-1.3,5.1-3.7,6c-1.5,0.6-3.1,0.5-4.2-0.9l-14.6-17.9l-36.7,15.3l2.4,22.9c0.3,1.8-0.9,3-2.5,3.7     C208.8,331.9,205.4,331.6,204.5,329.4z M242.5,282.5l-38.2-46.7l6,60.1L242.5,282.5z"/>
<path class="st11" d="M288.8,298.7c-2,0.8-4.5,0.5-5.4-1.8l-37.5-90.2c-0.9-2.3,0.8-4.1,3-5c2.1-0.9,4.8-0.9,5.7,1.4l35.6,85.5     l37.7-15.7c2-0.8,3.7,0.8,4.6,2.8c0.9,2.1,0.8,4.5-1.2,5.3L288.8,298.7z"/>
<path class="st11" d="M333.1,218.9l20.8-8.6c2.1-0.9,4.1,0.5,5,2.6c0.7,1.7,0.6,4-1.8,5l-20.8,8.6l15.3,36.7l42.4-17.6     c2.1-0.9,4.1,0.6,5,2.7c0.8,1.9,0.7,4.4-1.7,5.3l-47.1,19.6c-2,0.8-4.5,0.5-5.4-1.8l-37.5-90c-0.9-2.3,0.6-4.1,2.6-5l47.1-19.6     c2.4-1,4.1,0.6,4.9,2.5c0.9,2.3,0.6,4.7-1.5,5.6l-42.4,17.6L333.1,218.9z"/>
</g>
<g>
<path class="st11" d="M430.9,183.2c-19.4-46.7-55.9-83.1-102.7-102.4c-46.8-19.3-98.3-19.2-145,0.2     C113.8,110,70.6,175.7,66.8,246.2c-0.1,0.5-0.1,1-0.1,1.4c-1.2,27,3.3,54.6,14.3,81.1c11,26.5,27.4,49.2,47.4,67.4     c0.3,0.4,0.7,0.7,1.1,1c34.7,31,79.9,48.3,126.6,48.3c24.2,0,48.8-4.7,72.5-14.5c69.4-28.9,112.6-94.6,116.4-165.1     c0.1-0.5,0.1-1,0.1-1.5C446.5,237.4,441.9,209.8,430.9,183.2z M186.7,89.5c22.3-9.3,45.8-13.9,69.3-13.9     c23.3,0,46.6,4.6,68.8,13.7c17.1,7.1,32.8,16.5,46.7,28l-295,122.7C82.3,175.5,122.8,116.1,186.7,89.5z M325.3,422.5     c-22.6,9.4-46,13.8-69,13.8c-42.2,0-83.2-14.9-115.5-41.7l294.9-122.7C429.7,336.5,389.2,395.9,325.3,422.5z M436.2,261.8     L133.1,387.9c-18.3-17-33.4-38.1-43.6-62.6c-10.2-24.5-14.6-50.1-13.7-75.1L379,124c18.6,17.3,33.4,38.5,43.5,62.7     C432.7,211.3,437.1,236.8,436.2,261.8z"/>
<path class="st11" d="M482.9,261.8c-2-3.6-2-8,0-11.6l20.5-36.2c5.4-9.5,2.7-21.3-6.3-27.5l-34.2-23.7c-3.4-2.3-5.3-6.4-5-10.5     l2.8-41.5c0.7-10.9-6.8-20.3-17.6-22L402,82.2c-4.1-0.6-7.5-3.4-9.1-7.2l-15.5-38.6c-4.1-10.1-15-15.3-25.4-12.2l-39.8,11.9     c-3.9,1.2-8.3,0.2-11.3-2.6l-30.7-28c-8-7.3-20.2-7.3-28.2,0l-30.7,28c-3,2.8-7.4,3.8-11.3,2.6L160,24.2     c-10.4-3.1-21.3,2.1-25.4,12.2L119.1,75c-1.5,3.8-5,6.6-9.1,7.2l-41.1,6.6c-10.7,1.7-18.3,11.2-17.6,22l2.8,41.5     c0.3,4.1-1.7,8.1-5,10.5l-34.2,23.7c-8.9,6.2-11.6,18-6.3,27.5l20.5,36.2c2,3.6,2,8,0,11.6L8.6,298c-5.4,9.5-2.7,21.3,6.3,27.5     l34.2,23.7c3.4,2.3,5.3,6.4,5,10.5l-2.8,41.5c-0.7,10.9,6.8,20.3,17.6,22l41.1,6.6c4.1,0.6,7.5,3.4,9.1,7.2l15.5,38.6     c4.1,10.1,15,15.4,25.4,12.2l39.8-11.9c3.9-1.2,8.3-0.2,11.3,2.6l30.7,28c4,3.7,9.1,5.5,14.1,5.5c5,0,10.1-1.8,14.1-5.5l30.7-28     c3-2.8,7.4-3.8,11.3-2.6l39.8,11.9c10.4,3.1,21.3-2.1,25.4-12.2l15.5-38.6c1.5-3.8,5-6.6,9.1-7.2l41.1-6.6     c10.7-1.7,18.3-11.2,17.6-22l-2.8-41.5c-0.3-4.1,1.7-8.1,5-10.5l34.2-23.7c8.9-6.2,11.6-18,6.3-27.5L482.9,261.8z M491.9,318     l-34.2,23.7c-6,4.2-9.4,11.3-8.9,18.6l2.8,41.5c0.4,6.1-3.9,11.5-9.9,12.4l-41.1,6.6c-7.2,1.2-13.4,6.1-16.1,12.8l-15.5,38.6     c-2.3,5.7-8.4,8.7-14.3,6.9l-39.8-11.9c-7-2.1-14.7-0.3-20.1,4.6l-30.7,28c-4.5,4.1-11.4,4.1-15.9,0l-30.7-28     c-3.9-3.5-9-5.5-14.1-5.5c-2,0-4,0.3-5.9,0.9l-39.8,11.9c-5.9,1.8-12-1.2-14.3-6.9l-15.5-38.6c-2.7-6.8-8.9-11.7-16.1-12.8     l-41.1-6.6c-6.1-1-10.3-6.3-9.9-12.4l2.8-41.5c0.5-7.3-2.9-14.4-8.9-18.6L20.1,318c-5-3.5-6.6-10.2-3.5-15.5l20.5-36.2     c3.6-6.4,3.6-14.3,0-20.6l-20.5-36.2c-3-5.3-1.5-12,3.5-15.5l34.2-23.7c6-4.2,9.4-11.3,8.9-18.6l-2.8-41.5     c-0.4-6.1,3.9-11.5,9.9-12.4l41.1-6.6c7.2-1.2,13.4-6.1,16.1-12.8l15.5-38.6c2.3-5.7,8.4-8.6,14.3-6.9l39.8,11.9     c7,2.1,14.7,0.3,20.1-4.6l30.7-28c4.5-4.1,11.4-4.1,15.9,0l30.7,28c5.4,4.9,13.1,6.7,20.1,4.6l39.8-11.9c5.9-1.8,12,1.2,14.3,6.9     l15.5,38.6c2.7,6.8,8.9,11.7,16.1,12.8l41.1,6.6c6.1,1,10.3,6.3,9.9,12.4l-2.8,41.5c-0.5,7.3,2.9,14.4,8.9,18.6l34.2,23.7     c5,3.5,6.6,10.2,3.5,15.5l-20.5,36.2c-3.6,6.4-3.6,14.3,0,20.6l20.5,36.2C498.4,307.8,496.9,314.5,491.9,318z"/>
</g>
</g>
</g>
</svg>