<?xml version="1.0" ?>
<!-- Uploaded to: SVG Repo, www.svgrepo.com, Generator: SVG Repo Mixer Tools -->
<svg width="800px" height="800px" viewBox="0 0 512 512" version="1.1" xml:space="preserve" xmlns="http://www.w3.org/2000/svg" xmlns:xlink="http://www.w3.org/1999/xlink">
<style type="text/css">
	.st0{display:none;}
	.st1{display:inline;}
	.st2{fill:none;stroke:#B3B3B3;stroke-miterlimit:10;}
	.st3{fill:none;stroke:#ED1C24;stroke-miterlimit:10;}
	.st4{fill:#F9C04A;}
	.st5{fill:#FFFFFF;stroke:#000000;stroke-width:10;stroke-linecap:round;stroke-linejoin:round;stroke-miterlimit:10;}
	.st6{fill:#DEF6FC;}
	.st7{fill:#FFDA9F;}
	.st8{fill:#FFFFFF;}
	.st9{fill:#FF5751;}
	.st10{fill:#FF908A;}
	.st11{fill:#133260;}
	.st12{fill:#7782BB;}
	.st13{fill:#96A5D6;}
	.st14{fill:#FF5741;}
	.st15{fill:#43527A;}
	.st16{fill:#5E7296;}
	.st17{fill:none;stroke:#133260;stroke-width:9;stroke-linecap:round;stroke-linejoin:round;stroke-miterlimit:10;}
	.st18{fill:#83D689;}
	.st19{fill:#B5F4B8;}
	.st20{fill:#9BC5FF;}
	.st21{fill:#B8D8FF;}
	.st22{fill:#F24133;}
	.st23{fill:#589FFF;}
	.st24{fill:#7180BC;}
	.st25{fill:#93A3D8;}
	.st26{fill:#FF8103;}
	.st27{fill:#FF9D4D;}
	.st28{fill:#BC8D66;}
	.st29{fill:#CEA282;}
	.st30{fill:#FFDDA1;}
	.st31{fill:#FFF1DC;}
	.st32{fill:#7F6674;}
	.st33{fill:#937A89;}
	.st34{fill:#04398E;}
	.st35{fill:#A6D1FF;}
	.st36{fill:#EAA62D;}
	.st37{fill:#C5DFFF;}
	.st38{fill:#D6A47F;}
	.st39{fill:#99A4D6;}
</style>
<g class="st0" id="Layer_31">
<g class="st1">
<g>
<g>
<ellipse class="st2" cx="256" cy="256" rx="248.1" ry="248.3"/>
<path class="st2" d="M398.8,504.5H113.2c-18.8,0-34.1-15.3-34.1-34.1V41.6c0-18.8,15.3-34.1,34.1-34.1h285.5      c18.8,0,34.1,15.3,34.1,34.1v428.9C432.9,489.3,417.6,504.5,398.8,504.5z"/>
<path class="st2" d="M7.9,399.8V112.2c0-16.4,13.3-29.8,29.8-29.8h436.7c16.4,0,29.8,13.3,29.8,29.8v287.6      c0,16.4-13.3,29.8-29.8,29.8H37.6C21.2,429.6,7.9,416.2,7.9,399.8z"/>
<path class="st2" d="M440.4,469.9H71.6c-16.4,0-29.8-13.3-29.8-29.8V71.9c0-16.4,13.3-29.8,29.8-29.8h368.8      c16.4,0,29.8,13.3,29.8,29.8v368.2C470.2,456.5,456.8,469.9,440.4,469.9z"/>
</g>
<rect class="st3" height="497" transform="matrix(-1.836970e-16 1 -1 -1.836970e-16 512 5.684342e-14)" width="497" x="7.5" y="7.5"/>
</g>
</g>
</g>
<g id="Layer_32">
<g>
<g>
<g>
<path class="st14" d="M488.7,399.3H354.5v-207h90.1c13.8,0,26.4,7.9,32.6,20.3l26.6,53.9c2.5,5,3.7,10.5,3.7,16v98.1      C507.4,390.9,499.1,399.3,488.7,399.3z"/>
<path class="st6" d="M383.3,296.1v-66.7c0-4.6,3.7-8.4,8.4-8.4h52.9c2.9,0,5.4,1.6,6.7,4.2l25.5,51.7c1.2,2.5,1.9,5.3,1.9,8      v12.9c0,3.7-3,6.7-6.7,6.7h-80.2C387.1,304.5,383.3,300.7,383.3,296.1z"/>
<path class="st8" d="M391.7,221.1c-4.6,0-8.4,3.7-8.4,8.4v66.7c0,4.6,3.7,8.4,8.4,8.4h16.9v-83.4H391.7z"/>
</g>
<g>
<g>
<g>
<path class="st24" d="M4.6,348.4V385c0,7.9,6.4,14.2,14.2,14.2h335.7v-50.8H4.6z"/>
<path class="st25" d="M4.6,348.4V385c0,7.9,6.4,14.2,14.2,14.2h10.9v-50.8H4.6z"/>
<path class="st26" d="M354.5,348.4H4.6V84.2c0-12.3,10-22.3,22.3-22.3h305.4c12.3,0,22.3,10,22.3,22.3V348.4z"/>
<path class="st27" d="M52.1,61.9H26.8c-12.3,0-22.3,10-22.3,22.3v264.2h25.2V84.2C29.8,71.9,39.8,61.9,52.1,61.9z"/>
</g>
<g>
<circle class="st15" cx="80.5" cy="399.3" r="50.8"/>
<circle class="st12" cx="80.5" cy="399.3" r="20.9"/>
</g>
<g>
<circle class="st15" cx="423.5" cy="399.3" r="50.8"/>
<circle class="st12" cx="423.5" cy="399.3" r="20.9"/>
</g>
</g>
<path class="st4" d="M210.1,186.7l-34.9-18.1c-1.9-1-4.1-1-6,0l-34.9,18.1c-4.3,2.2-9.5-0.9-9.5-5.8v-119h94.8v119      C219.6,185.8,214.4,188.9,210.1,186.7z"/>
<g>
<path class="st7" d="M150,61.9h-25.2v119c0,4.9,5.2,8,9.5,5.8l15.8-8.2V61.9z"/>
</g>
</g>
</g>
<g>
<path class="st11" d="M108.9,276.6H29.7c-2.5,0-4.6,2-4.6,4.6s2,4.6,4.6,4.6h79.2c2.5,0,4.6-2,4.6-4.6S111.5,276.6,108.9,276.6z"/>
<path class="st11" d="M108.9,304.9H29.7c-2.5,0-4.6,2-4.6,4.6c0,2.5,2,4.6,4.6,4.6h79.2c2.5,0,4.6-2,4.6-4.6     C113.5,306.9,111.5,304.9,108.9,304.9z"/>
<path class="st11" d="M80.5,373.8c-14,0-25.4,11.4-25.4,25.4c0,14,11.4,25.4,25.4,25.4c14,0,25.4-11.4,25.4-25.4     C105.9,385.2,94.5,373.8,80.5,373.8z M80.5,415.6c-9,0-16.3-7.3-16.3-16.3s7.3-16.3,16.3-16.3s16.3,7.3,16.3,16.3     S89.5,415.6,80.5,415.6z"/>
<path class="st11" d="M455.4,223.2c-2-4.1-6.2-6.7-10.8-6.7h-52.9c-7.1,0-12.9,5.8-12.9,12.9v66.7c0,7.1,5.8,12.9,12.9,12.9h80.2     c6.2,0,11.2-5,11.2-11.2v-12.9c0-3.5-0.8-6.9-2.3-10.1L455.4,223.2z M474.1,297.8c0,1.2-0.9,2.1-2.1,2.1h-80.2     c-2.1,0-3.8-1.7-3.8-3.8v-66.7c0-2.1,1.7-3.8,3.8-3.8h52.9c1.1,0,2.1,0.6,2.6,1.6l25.5,51.7c0.9,1.9,1.4,4,1.4,6V297.8z"/>
<path class="st11" d="M423.5,373.8c-14,0-25.4,11.4-25.4,25.4c0,14,11.4,25.4,25.4,25.4c14,0,25.4-11.4,25.4-25.4     C449,385.2,437.5,373.8,423.5,373.8z M423.5,415.6c-9,0-16.3-7.3-16.3-16.3s7.3-16.3,16.3-16.3c9,0,16.3,7.3,16.3,16.3     S432.5,415.6,423.5,415.6z"/>
<path class="st11" d="M507.8,264.4l-26.6-53.9c-6.9-14.1-21-22.8-36.6-22.8h-85.5V84.2c0-14.8-12-26.8-26.8-26.8H26.8     C12,57.4,0,69.4,0,84.2V385c0,10.4,8.4,18.8,18.8,18.8h6.5c2.3,28.4,26.2,50.8,55.2,50.8s52.9-22.4,55.2-50.8h232.6     c2.3,28.4,26.2,50.8,55.2,50.8s52.9-22.4,55.2-50.8h10c12.8,0,23.3-10.4,23.3-23.3v-98.1C512,276.2,510.5,270,507.8,264.4z      M129.3,66.5H215v114.4c0,0.9-0.6,1.4-0.9,1.7c-0.3,0.2-1.1,0.5-1.9,0.1l-34.9-18.1c-3.2-1.7-7-1.7-10.2,0l-34.9,18.1     c-0.8,0.4-1.6,0.1-1.9-0.1c-0.3-0.2-0.9-0.7-0.9-1.7V66.5z M18.8,394.7c-5.3,0-9.7-4.3-9.7-9.7v-32h41     c-13.8,9.1-23.4,24.3-24.8,41.7H18.8z M80.5,445.5c-25.5,0-46.3-20.8-46.3-46.3c0-25.5,20.8-46.3,46.3-46.3     c25.5,0,46.3,20.8,46.3,46.3C126.8,424.8,106,445.5,80.5,445.5z M350,394.7H135.7c-1.4-17.4-10.9-32.6-24.8-41.7h239V394.7z      M350,343.9H9.1V84.2c0-9.8,8-17.7,17.7-17.7h93.4v114.4c0,3.9,2,7.4,5.3,9.4c1.8,1.1,3.7,1.6,5.7,1.6c1.7,0,3.5-0.4,5.1-1.3     l34.9-18.1c0.6-0.3,1.2-0.3,1.8,0l34.9,18.1c3.5,1.8,7.5,1.7,10.8-0.4c3.3-2,5.3-5.5,5.3-9.4V66.5h108.1c9.8,0,17.7,8,17.7,17.7     V343.9z M423.5,445.5c-25.5,0-46.3-20.8-46.3-46.3c0-25.5,20.8-46.3,46.3-46.3c25.5,0,46.3,20.8,46.3,46.3     C469.8,424.8,449,445.5,423.5,445.5z M502.9,380.6c0,7.8-6.3,14.1-14.1,14.1h-10c-2.3-28.4-26.2-50.8-55.2-50.8     s-52.9,22.4-55.2,50.8h-9.3V196.8h85.5c12.2,0,23.1,6.8,28.5,17.7l26.6,53.9c2.1,4.3,3.3,9.2,3.3,14V380.6z"/>
</g>
</g>
</g>
</svg>