<?xml version="1.0" ?>
<!-- Uploaded to: SVG Repo, www.svgrepo.com, Generator: SVG Repo Mixer Tools -->
<svg width="800px" height="800px" viewBox="0 0 512 512" version="1.1" xml:space="preserve" xmlns="http://www.w3.org/2000/svg" xmlns:xlink="http://www.w3.org/1999/xlink">
<style type="text/css">
	.st0{display:none;}
	.st1{display:inline;}
	.st2{fill:none;stroke:#B3B3B3;stroke-miterlimit:10;}
	.st3{fill:none;stroke:#ED1C24;stroke-miterlimit:10;}
	.st4{fill:#F9C04A;}
	.st5{fill:#FFFFFF;stroke:#000000;stroke-width:10;stroke-linecap:round;stroke-linejoin:round;stroke-miterlimit:10;}
	.st6{fill:#DEF6FC;}
	.st7{fill:#FFDA9F;}
	.st8{fill:#FFFFFF;}
	.st9{fill:#FF5751;}
	.st10{fill:#FF908A;}
	.st11{fill:#133260;}
	.st12{fill:#7782BB;}
	.st13{fill:#96A5D6;}
	.st14{fill:#FF5741;}
	.st15{fill:#43527A;}
	.st16{fill:#5E7296;}
	.st17{fill:none;stroke:#133260;stroke-width:9;stroke-linecap:round;stroke-linejoin:round;stroke-miterlimit:10;}
	.st18{fill:#83D689;}
	.st19{fill:#B5F4B8;}
	.st20{fill:#9BC5FF;}
	.st21{fill:#B8D8FF;}
	.st22{fill:#F24133;}
	.st23{fill:#589FFF;}
	.st24{fill:#7180BC;}
	.st25{fill:#93A3D8;}
	.st26{fill:#FF8103;}
	.st27{fill:#FF9D4D;}
	.st28{fill:#BC8D66;}
	.st29{fill:#CEA282;}
	.st30{fill:#FFDDA1;}
	.st31{fill:#FFF1DC;}
	.st32{fill:#7F6674;}
	.st33{fill:#937A89;}
	.st34{fill:#04398E;}
	.st35{fill:#A6D1FF;}
	.st36{fill:#EAA62D;}
	.st37{fill:#C5DFFF;}
	.st38{fill:#D6A47F;}
	.st39{fill:#99A4D6;}
</style>
<g class="st0" id="Layer_31">
<g class="st1">
<g>
<g>
<ellipse class="st2" cx="256" cy="256" rx="248.1" ry="248.3"/>
<path class="st2" d="M398.8,504.5H113.2c-18.8,0-34.1-15.3-34.1-34.1V41.6c0-18.8,15.3-34.1,34.1-34.1h285.5      c18.8,0,34.1,15.3,34.1,34.1v428.9C432.9,489.3,417.6,504.5,398.8,504.5z"/>
<path class="st2" d="M7.9,399.8V112.2c0-16.4,13.3-29.8,29.8-29.8h436.7c16.4,0,29.8,13.3,29.8,29.8v287.6      c0,16.4-13.3,29.8-29.8,29.8H37.6C21.2,429.6,7.9,416.2,7.9,399.8z"/>
<path class="st2" d="M440.4,469.9H71.6c-16.4,0-29.8-13.3-29.8-29.8V71.9c0-16.4,13.3-29.8,29.8-29.8h368.8      c16.4,0,29.8,13.3,29.8,29.8v368.2C470.2,456.5,456.8,469.9,440.4,469.9z"/>
</g>
<rect class="st3" height="497" transform="matrix(-1.836970e-16 1 -1 -1.836970e-16 512 5.684342e-14)" width="497" x="7.5" y="7.5"/>
</g>
</g>
</g>
<g id="Layer_32">
<g>
<g>
<g>
<g>
<path class="st18" d="M467.4,498.2H44.6c-22.1,0-40-17.9-40-40V238.1c0-22.1,17.9-40,40-40h422.9c22.1,0,40,17.9,40,40v220.1       C507.4,480.3,489.5,498.2,467.4,498.2z"/>
<path class="st19" d="M29.8,458.2V238.1c0-22.1,17.9-40,40-40H44.6c-22.1,0-40,17.9-40,40v220.1c0,22.1,17.9,40,40,40h25.3       C47.7,498.2,29.8,480.3,29.8,458.2z"/>
<path class="st6" d="M45.1,440.2V256.1c0-9.7,7.8-17.5,17.5-17.5h386.9c9.7,0,17.5,7.8,17.5,17.5v184.1       c0,9.7-7.8,17.5-17.5,17.5H62.6C52.9,457.7,45.1,449.8,45.1,440.2z"/>
<path class="st8" d="M70.3,440.2V256.1c0-9.7,7.8-17.5,17.5-17.5H62.6c-9.7,0-17.5,7.8-17.5,17.5v184.1       c0,9.7,7.8,17.5,17.5,17.5h25.3C78.2,457.7,70.3,449.8,70.3,440.2z"/>
</g>
<circle class="st14" cx="256" cy="44.5" r="30.7"/>
</g>
<g>
<path class="st11" d="M93.1,376.4v-49.2c0-24.6,14.4-33.8,33-33.8c18.6,0,33,9.2,33,33.8v49.2c0,24.8-14.4,34-33,34      C107.5,410.3,93.1,401.1,93.1,376.4z M148.6,327.1c0-16.5-8.4-24.1-22.5-24.1c-14.1,0-22.5,7.6-22.5,24.1v49.2      c0,16.7,8.4,24.3,22.5,24.3c14.1,0,22.5-7.6,22.5-24.3V327.1z"/>
<path class="st11" d="M181.9,297.1c0-2.1,1.7-3.7,4.4-3.8h29.2c18.4,0,32.7,9,32.7,33.7v1.6c0,24.6-14.4,33.8-33,33.8h-22.9      v42.9c0,2.7-2.7,4.1-5.2,4.1c-2.7,0-5.2-1.4-5.2-4.1V297.1z M192.4,303v50.3h22.9c14.1,0,22.5-7.8,22.5-24.3v-1.9      c0-16.5-8.4-24.1-22.5-24.1H192.4z"/>
<path class="st11" d="M276.1,346.7H301c2.5,0,4,2.2,4,4.8c0,2.1-1.1,4.3-4,4.3h-24.9v44h50.8c2.5,0,4,2.4,4,4.9      c0,2.2-1.1,4.8-4,4.8h-56.5c-2.4,0-4.8-1.4-4.8-4.1V297.3c0-2.7,2.4-4,4.8-4h56.5c2.9,0,4,2.4,4,4.6c0,2.7-1.4,5.1-4,5.1h-50.8      V346.7z"/>
<path class="st11" d="M400.9,403.3l-44.1-85.9v87.8c0,2.7-2.7,4.1-5.2,4.1c-2.7,0-5.2-1.4-5.2-4.1V297.3c0-2.9,2.5-4,5.2-4      c3.8,0,6.2,3.3,8.3,7.3l42.9,84.5v-87.9c0-2.7,2.5-3.8,5.2-3.8c2.5,0,5.2,1.1,5.2,3.8v108.1c0,2.7-2.7,4.1-5.2,4.1      C404.8,409.4,402.4,406.5,400.9,403.3z"/>
</g>
</g>
<g>
<path class="st11" d="M467.4,193.5h-24.7L291.1,41.9C289.8,23.7,274.6,9.3,256,9.3s-33.8,14.4-35.1,32.7L69.3,193.5H44.6     C20,193.5,0,213.5,0,238.1v220.1c0,24.6,20,44.6,44.6,44.6h422.9c24.6,0,44.6-20,44.6-44.6V238.1     C512,213.5,492,193.5,467.4,193.5z M229.9,44C229.9,44,229.9,44,229.9,44c0.3-14.2,11.9-25.6,26.1-25.6s25.8,11.4,26.1,25.6     c0,0,0,0,0,0l0,0.5c0,14.4-11.7,26.1-26.1,26.1c-14.4,0-26.1-11.7-26.1-26.1L229.9,44z M222,53.7c4.1,15,17.8,26,34,26     s29.9-11,34-26l139.8,139.8H82.2L222,53.7z M502.9,458.2c0,19.5-15.9,35.4-35.4,35.4H44.6c-19.5,0-35.4-15.9-35.4-35.4V238.1     c0-19.5,15.9-35.4,35.4-35.4h422.9c19.5,0,35.4,15.9,35.4,35.4V458.2z"/>
<path class="st11" d="M449.4,234H62.6c-12.2,0-22.1,9.9-22.1,22.1v184.1c0,12.2,9.9,22.1,22.1,22.1h386.9     c12.2,0,22.1-9.9,22.1-22.1V256.1C471.5,243.9,461.6,234,449.4,234z M462.4,440.2c0,7.1-5.8,13-13,13H62.6c-7.1,0-13-5.8-13-13     V256.1c0-7.1,5.8-13,13-13h386.9c7.1,0,13,5.8,13,13V440.2z"/>
</g>
</g>
</g>
</svg>