<?xml version="1.0" ?>
<!-- Uploaded to: SVG Repo, www.svgrepo.com, Generator: SVG Repo Mixer Tools -->
<svg width="800px" height="800px" viewBox="0 0 512 512" version="1.1" xml:space="preserve" xmlns="http://www.w3.org/2000/svg" xmlns:xlink="http://www.w3.org/1999/xlink">
<style type="text/css">
	.st0{display:none;}
	.st1{display:inline;}
	.st2{fill:none;stroke:#B3B3B3;stroke-miterlimit:10;}
	.st3{fill:none;stroke:#ED1C24;stroke-miterlimit:10;}
	.st4{fill:#F9C04A;}
	.st5{fill:#FFFFFF;stroke:#000000;stroke-width:10;stroke-linecap:round;stroke-linejoin:round;stroke-miterlimit:10;}
	.st6{fill:#DEF6FC;}
	.st7{fill:#FFDA9F;}
	.st8{fill:#FFFFFF;}
	.st9{fill:#FF5751;}
	.st10{fill:#FF908A;}
	.st11{fill:#133260;}
	.st12{fill:#7782BB;}
	.st13{fill:#96A5D6;}
	.st14{fill:#FF5741;}
	.st15{fill:#43527A;}
	.st16{fill:#5E7296;}
	.st17{fill:none;stroke:#133260;stroke-width:9;stroke-linecap:round;stroke-linejoin:round;stroke-miterlimit:10;}
	.st18{fill:#83D689;}
	.st19{fill:#B5F4B8;}
	.st20{fill:#9BC5FF;}
	.st21{fill:#B8D8FF;}
	.st22{fill:#F24133;}
	.st23{fill:#589FFF;}
	.st24{fill:#7180BC;}
	.st25{fill:#93A3D8;}
	.st26{fill:#FF8103;}
	.st27{fill:#FF9D4D;}
	.st28{fill:#BC8D66;}
	.st29{fill:#CEA282;}
	.st30{fill:#FFDDA1;}
	.st31{fill:#FFF1DC;}
	.st32{fill:#7F6674;}
	.st33{fill:#937A89;}
	.st34{fill:#04398E;}
	.st35{fill:#A6D1FF;}
	.st36{fill:#EAA62D;}
	.st37{fill:#C5DFFF;}
	.st38{fill:#D6A47F;}
	.st39{fill:#99A4D6;}
</style>
<g class="st0" id="Layer_31">
<g class="st1">
<g>
<g>
<ellipse class="st2" cx="256" cy="256" rx="248.1" ry="248.3"/>
<path class="st2" d="M398.8,504.5H113.2c-18.8,0-34.1-15.3-34.1-34.1V41.6c0-18.8,15.3-34.1,34.1-34.1h285.5      c18.8,0,34.1,15.3,34.1,34.1v428.9C432.9,489.3,417.6,504.5,398.8,504.5z"/>
<path class="st2" d="M7.9,399.8V112.2c0-16.4,13.3-29.8,29.8-29.8h436.7c16.4,0,29.8,13.3,29.8,29.8v287.6      c0,16.4-13.3,29.8-29.8,29.8H37.6C21.2,429.6,7.9,416.2,7.9,399.8z"/>
<path class="st2" d="M440.4,469.9H71.6c-16.4,0-29.8-13.3-29.8-29.8V71.9c0-16.4,13.3-29.8,29.8-29.8h368.8      c16.4,0,29.8,13.3,29.8,29.8v368.2C470.2,456.5,456.8,469.9,440.4,469.9z"/>
</g>
<rect class="st3" height="497" transform="matrix(-1.836970e-16 1 -1 -1.836970e-16 512 5.684342e-14)" width="497" x="7.5" y="7.5"/>
</g>
</g>
</g>
<g id="Layer_32">
<g>
<g>
<rect class="st24" height="93" transform="matrix(0.7071 0.7071 -0.7071 0.7071 295.3174 -11.1179)" width="30.5" x="145.8" y="304.4"/>
<g>
<circle class="st23" cx="314.5" cy="197.5" r="193"/>
<path class="st20" d="M203.3,334c-75.4-75.4-75.4-197.6,0-273C237.7,26.5,282,7.8,327.1,4.9C273.6,1.4,218.9,20.1,178,61      c-75.4,75.4-75.4,197.6,0,273c40.9,40.9,95.6,59.6,149.1,56.1C282,387.2,237.7,368.5,203.3,334z"/>
<circle class="st6" cx="314.5" cy="197.5" r="155.8"/>
<path class="st8" d="M229.6,307.7c-60.9-60.9-60.9-159.5,0-220.4c27.2-27.2,62-42.3,97.6-45.1c-44-3.6-89.2,11.5-122.8,45.1      c-60.9,60.9-60.9,159.5,0,220.4c33.6,33.6,78.8,48.7,122.8,45.1C291.6,349.9,256.8,334.9,229.6,307.7z"/>
</g>
<path class="st4" d="M28.4,502.7L9.3,483.6c-6.3-6.3-6.3-16.6,0-22.9L110,360.1c6.3-6.3,16.6-6.3,22.9,0l19.1,19.1     c6.3,6.3,6.3,16.6,0,22.9L51.2,502.7C44.9,509,34.7,509,28.4,502.7z"/>
<path class="st7" d="M15.8,490.2l123.6-123.6l-6.5-6.5c-6.3-6.3-16.6-6.3-22.9,0L9.3,460.8c-6.3,6.3-6.3,16.6,0,22.9L15.8,490.2z     "/>
<rect class="st6" height="59.3" transform="matrix(0.7071 -0.7071 0.7071 0.7071 -249.069 196.7548)" width="28.1" x="98.9" y="369.4"/>
<rect class="st8" height="25.4" transform="matrix(0.7071 -0.7071 0.7071 0.7071 -244.1009 184.7607)" width="28.1" x="86.9" y="374.3"/>
</g>
<g>
<path class="st11" d="M314.5,78.4c-11.7,0-23.3,1.7-34.4,5c-2.4,0.7-3.8,3.3-3,5.7c0.6,2,2.4,3.2,4.4,3.2c0.4,0,0.9-0.1,1.3-0.2     c10.3-3.1,21-4.7,31.8-4.7c2.5,0,4.6-2,4.6-4.6C319.1,80.5,317,78.4,314.5,78.4z"/>
<path class="st11" d="M242.2,102.9c-29.7,22.7-46.7,57.2-46.7,94.6c0,2.5,2,4.6,4.6,4.6s4.6-2,4.6-4.6     c0-34.5,15.7-66.3,43.1-87.3c2-1.5,2.4-4.4,0.8-6.4C247,101.8,244.2,101.4,242.2,102.9z"/>
<path class="st11" d="M454.2,57.8c-77-77-202.4-77-279.4,0C102.5,130.1,98,245,161.5,322.5l-30.6,30.6c-2.9-1.5-6.1-2.3-9.5-2.3     c-5.5,0-10.7,2.2-14.7,6.1l-8,8c0,0,0,0,0,0l-19.9,19.9L6.1,457.5c-3.9,3.9-6.1,9.1-6.1,14.7c0,5.5,2.2,10.7,6.1,14.7l19.1,19.1     c3.9,3.9,9.1,6.1,14.7,6.1s10.7-2.2,14.7-6.1l72.8-72.8l19.9-19.9c0,0,0,0,0,0l8-8c3.9-3.9,6.1-9.1,6.1-14.7     c0-3.4-0.8-6.6-2.3-9.5l30.6-30.6c36.2,29.6,80.6,44.5,125,44.5c50.6,0,101.2-19.3,139.7-57.8     C531.3,260.2,531.3,134.8,454.2,57.8z M48,499.5c-4.5,4.5-11.9,4.5-16.4,0l-19.1-19.1c-4.5-4.5-4.5-11.9,0-16.4L82,394.4     l35.5,35.5L48,499.5z M124,423.5L88.5,388l13.5-13.5l35.5,35.5L124,423.5z M148.7,398.8l-4.8,4.8l-35.5-35.5l4.8-4.8     c2.2-2.2,5.1-3.4,8.2-3.4c3.1,0,6,1.2,8.2,3.4l19.1,19.1c0.3,0.3,0.6,0.6,0.9,1c0,0,0,0,0,0c1.6,2.1,2.5,4.6,2.5,7.2     C152.1,393.7,150.9,396.6,148.7,398.8z M153.2,374L138,358.8l29.4-29.4c2.4,2.6,4.8,5.2,7.4,7.8s5.1,5,7.8,7.4L153.2,374z      M447.8,330.8c-73.5,73.5-193.1,73.5-266.5,0c-73.5-73.5-73.5-193.1,0-266.5c36.7-36.7,85-55.1,133.3-55.1S411,27.5,447.8,64.2     C521.3,137.7,521.3,257.3,447.8,330.8z"/>
<path class="st11" d="M427.9,84.1c-62.5-62.5-164.3-62.5-226.8,0c-62.5,62.5-62.5,164.3,0,226.8c31.3,31.3,72.3,46.9,113.4,46.9     s82.1-15.6,113.4-46.9C490.4,248.4,490.4,146.6,427.9,84.1z M421.5,304.5c-59,59-154.9,59-213.9,0s-59-154.9,0-213.9     c29.5-29.5,68.2-44.2,107-44.2S392,61,421.5,90.5C480.4,149.5,480.4,245.5,421.5,304.5z"/>
</g>
</g>
</g>
</svg>