<?xml version="1.0" ?>
<!DOCTYPE svg  PUBLIC '-//W3C//DTD SVG 1.1//EN'  'http://www.w3.org/Graphics/SVG/1.1/DTD/svg11.dtd'>
<!-- Uploaded to: SVG Repo, www.svgrepo.com, Generator: SVG Repo Mixer Tools -->
<svg width="800px" height="800px" viewBox="0 0 32 32" enable-background="new 0 0 32 32" version="1.1" xml:space="preserve" xmlns="http://www.w3.org/2000/svg" xmlns:xlink="http://www.w3.org/1999/xlink">
<g id="Home"/>
<g id="Print"/>
<g id="Mail"/>
<g id="Camera"/>
<g id="Video"/>
<g id="Film"/>
<g id="Message"/>
<g id="Telephone"/>
<g id="User"/>
<g id="File"/>
<g id="Folder"/>
<g id="Map"/>
<g id="Download"/>
<g id="Upload"/>
<g id="Video_Recorder"/>
<g id="Schedule"/>
<g id="Cart"/>
<g id="Setting"/>
<g id="Search"/>
<g id="Pencils"/>
<g id="Group"/>
<g id="Record"/>
<g id="Headphone"/>
<g id="Music_Player"/>
<g id="Sound_On"/>
<g id="Sound_Off"/>
<g id="Lock"/>
<g id="Lock_open"/>
<g id="Love"/>
<g id="Favorite"/>
<g id="Film_1_"/>
<g id="Music"/>
<g id="Puzzle"/>
<g id="Turn_Off"/>
<g id="Book"/>
<g id="Save"/>
<g id="Reload"/>
<g id="Trash"/>
<g id="Tag"/>
<g id="Link"/>
<g id="Like"/>
<g id="Bad"/>
<g id="Gallery"/>
<g id="Add"/>
<g id="Close"/>
<g id="Forward"/>
<g id="Back"/>
<g id="Buy"/>
<g id="Mac">
<path d="M28,3H16H4C2.3,3,1,4.3,1,6v14c0,1.6,1.3,3,3,3h7v4H9c-0.5,0-1,0.5-1,1s0.5,1,1,1h7h7c0.5,0,1-0.5,1-1   s-0.5-1-1-1h-2v-4h7c1.7,0,3-1.4,3-3V6C31,4.3,29.7,3,28,3z" fill="#0E9688"/>
<path d="M28,3H16v2v11v7v6h7c0.5,0,1-0.5,1-1s-0.5-1-1-1h-2v-4h7c1.7,0,3-1.4,3-3V6C31,4.3,29.7,3,28,3z" fill="#0E9688"/>
<path d="M23,27h-2v-4h-5h-5v4H9c-0.5,0-1,0.5-1,1s0.5,1,1,1h7h7c0.5,0,1-0.5,1-1S23.5,27,23,27z" fill="#673AB7"/>
<path d="M28,5H16H4C3.5,5,3,5.5,3,6v10h13h13V6C29,5.5,28.5,5,28,5z" fill="#FFC10A"/>
</g>
<g id="Laptop"/>
</svg>