<?xml version="1.0" ?>
<!DOCTYPE svg  PUBLIC '-//W3C//DTD SVG 1.1//EN'  'http://www.w3.org/Graphics/SVG/1.1/DTD/svg11.dtd'>
<!-- Uploaded to: SVG Repo, www.svgrepo.com, Generator: SVG Repo Mixer Tools -->
<svg width="800px" height="800px" viewBox="0 0 32 32" enable-background="new 0 0 32 32" version="1.1" xml:space="preserve" xmlns="http://www.w3.org/2000/svg" xmlns:xlink="http://www.w3.org/1999/xlink">
<g id="Home"/>
<g id="Print"/>
<g id="Mail"/>
<g id="Camera"/>
<g id="Video"/>
<g id="Film"/>
<g id="Message"/>
<g id="Telephone"/>
<g id="User"/>
<g id="File"/>
<g id="Folder"/>
<g id="Map"/>
<g id="Download"/>
<g id="Upload"/>
<g id="Video_Recorder"/>
<g id="Schedule"/>
<g id="Cart"/>
<g id="Setting">
<path d="M29,12l-1.7,0c-0.1-0.4-0.3-0.8-0.5-1.1L28,9.6c0.4-0.4,0.6-0.9,0.6-1.4c0-0.5-0.2-1-0.6-1.4L25.2,4   c-0.8-0.8-2.1-0.8-2.8,0l-1.2,1.2C20.8,5,20.4,4.8,20,4.7V3c0-1.1-0.9-2-2-2h-2h-2c-1.1,0-2,0.9-2,2l0,1.7   c-0.4,0.1-0.8,0.3-1.1,0.5L9.6,4C8.9,3.2,7.6,3.2,6.8,4L4,6.8C3.6,7.2,3.4,7.7,3.4,8.2c0,0.5,0.2,1,0.6,1.4l1.2,1.2   C5,11.2,4.8,11.6,4.7,12H3c-1.1,0-2,0.9-2,2v4c0,1.1,0.9,2,2,2l1.7,0c0.1,0.4,0.3,0.8,0.5,1.1L4,22.4c-0.8,0.8-0.8,2,0,2.8L6.8,28   c0.8,0.8,2.1,0.8,2.8,0l1.2-1.2c0.4,0.2,0.7,0.3,1.1,0.5V29c0,1.1,0.9,2,2,2h2h2c1.1,0,2-0.9,2-2l0-1.7c0.4-0.1,0.8-0.3,1.1-0.5   l1.2,1.2c0.8,0.8,2.1,0.8,2.8,0l2.8-2.8c0.8-0.8,0.8-2,0-2.8l-1.2-1.2c0.2-0.4,0.3-0.7,0.5-1.1H29c1.1,0,2-0.9,2-2v-4   C31,12.9,30.1,12,29,12z M16,22c-3.3,0-6-2.7-6-6s2.7-6,6-6s6,2.7,6,6S19.3,22,16,22z" fill="#673AB7"/>
</g>
<g id="Search"/>
<g id="Pencils"/>
<g id="Group"/>
<g id="Record"/>
<g id="Headphone"/>
<g id="Music_Player"/>
<g id="Sound_On"/>
<g id="Sound_Off"/>
<g id="Lock"/>
<g id="Lock_open"/>
<g id="Love"/>
<g id="Favorite"/>
<g id="Film_1_"/>
<g id="Music"/>
<g id="Puzzle"/>
<g id="Turn_Off"/>
<g id="Book"/>
<g id="Save"/>
<g id="Reload"/>
<g id="Trash"/>
<g id="Tag"/>
<g id="Link"/>
<g id="Like"/>
<g id="Bad"/>
<g id="Gallery"/>
<g id="Add"/>
<g id="Close"/>
<g id="Forward"/>
<g id="Back"/>
<g id="Buy"/>
<g id="Mac"/>
<g id="Laptop"/>
</svg>