<?xml version="1.0" ?>
<!DOCTYPE svg  PUBLIC '-//W3C//DTD SVG 1.1//EN'  'http://www.w3.org/Graphics/SVG/1.1/DTD/svg11.dtd'>
<!-- Uploaded to: SVG Repo, www.svgrepo.com, Generator: SVG Repo Mixer Tools -->
<svg width="800px" height="800px" viewBox="0 0 512 512" version="1.1" xml:space="preserve" xmlns="http://www.w3.org/2000/svg" xmlns:xlink="http://www.w3.org/1999/xlink">
<g id="_x35_78_x2C__Heart_x2C__Love_x2C__Couple_x2C__Valentine_Greetings">
<g>
<path d="M76.81,312.4c10,0,18.12,8.11,18.12,18.12s-8.12,18.12-18.12,18.12    c-10.01,0-18.13-8.11-18.13-18.12S66.8,312.4,76.81,312.4z" style="fill:#FFD15C;"/>
<path d="M62.74,341.354c0-10.01,8.119-18.12,18.13-18.12c5.653,0,10.704,2.595,14.028,6.657    c-0.334-9.716-8.301-17.491-18.089-17.491c-10.01,0-18.13,8.11-18.13,18.12c0,4.35,1.536,8.339,4.092,11.462    C62.765,341.771,62.74,341.566,62.74,341.354z" style="fill:#EDBD51;"/>
<path d="M366.77,375.83c10,0,18.12,8.11,18.12,18.12s-8.12,18.12-18.12,18.12    c-10.01,0-18.13-8.11-18.13-18.12S356.76,375.83,366.77,375.83z" style="fill:#D30045;"/>
<path d="M352.64,404.283c0-10.01,8.12-18.12,18.13-18.12c5.676,0,10.742,2.617,14.065,6.707    c-0.562-9.504-8.43-17.04-18.065-17.04c-10.01,0-18.13,8.11-18.13,18.12c0,4.327,1.522,8.296,4.055,11.411    C352.673,405.003,352.64,404.647,352.64,404.283z" style="fill:#BF0448;"/>
<path d="M258.03,58.68c10.01,0,18.12,8.12,18.12,18.131c0,10-8.11,18.119-18.12,18.119    c-10.011,0-18.12-8.119-18.12-18.119C239.91,66.8,248.02,58.68,258.03,58.68z" style="fill:#EF3E5C;"/>
<path d="M243.41,86.977c0-10.01,8.11-18.13,18.121-18.13c5.996,0,11.294,2.926,14.592,7.414    c-0.294-9.754-8.269-17.581-18.093-17.581c-10.011,0-18.12,8.12-18.12,18.131c0,4.01,1.319,7.705,3.527,10.708    C243.433,87.337,243.41,87.16,243.41,86.977z" style="fill:#E42A53;"/>
<path d="M190.359,276.181c-9.67-17.67-19.33-26.501-38.659-26.501c-8.11,0-15.641,2.29-21.86,6.2    c-16.05-19.819-25.85-40.7-25.85-65.439c0-37.721,33.47-68.33,74.729-68.33c37.37,0,56.05,17.08,74.74,51.25    c18.68-34.17,37.36-51.25,74.73-51.25c41.35,0,74.819,30.609,74.819,68.33c0,68.33-74.819,107.24-149.55,175.58    c-8.45-7.73-16.891-15.07-25.23-22.12c22.601-18.84,39.471-35.54,39.471-58.88c0-19.51-17.311-35.341-38.69-35.341    C209.68,249.68,200.02,258.511,190.359,276.181z" style="fill:#EF3E5C;"/>
<g>
<g>
<g>
<path d="M120.49,202.32c0-37.721,33.47-68.33,74.729-68.33c14.146,0,25.61,2.452,35.414,7.348       c-13.161-12.812-29.031-19.228-51.914-19.228c-41.26,0-74.729,30.609-74.729,68.33c0,24.739,9.8,45.62,25.85,65.439       c1.833-1.152,3.792-2.145,5.834-2.998C126.06,237.421,120.49,220.967,120.49,202.32z" style="fill:#E42A53;"/>
</g>
</g>
</g>
<path d="M151.7,249.68c19.329,0,28.989,8.831,38.659,26.501c9.66-17.67,19.32-26.501,38.65-26.501    c21.38,0,38.69,15.831,38.69,35.341c0,23.34-16.87,40.04-39.471,58.88c-11.62,9.68-24.75,19.92-37.87,31.93    c-38.659-35.34-77.31-55.47-77.31-90.81c0-12.09,6.65-22.76,16.79-29.141C136.06,251.97,143.59,249.68,151.7,249.68z" style="fill:#D30045;"/>
<g>
<path d="M131.55,289.161c0-12.09,6.65-22.76,16.79-29.141c6.22-3.909,13.75-6.2,21.86-6.2     c0.157,0,0.301,0.013,0.457,0.014c-5.214-2.755-11.324-4.154-18.957-4.154c-8.11,0-15.641,2.29-21.86,6.2     c-10.14,6.381-16.79,17.051-16.79,29.141c0,35.34,38.65,55.47,77.31,90.81c2.287-2.094,4.571-4.115,6.851-6.108     C162.803,340.424,131.55,320.938,131.55,289.161z" style="fill:#BF0448;"/>
</g>
<path d="M339.576,244.91c-1.044,0-2.097-0.325-2.996-1c-2.209-1.657-2.657-4.791-1-7    c24.915-33.218,9.261-65.89,8.582-67.265c-1.22-2.472-0.213-5.471,2.255-6.697c2.474-1.228,5.462-0.229,6.694,2.235    c0.797,1.592,19.183,39.443-9.531,77.727C342.598,244.22,341.096,244.91,339.576,244.91z" style="fill:#E42A53;"/>
<path d="M276.15,417.07H94.93c-2.761,0-5-2.238-5-5s2.239-5,5-5H276.15c2.762,0,5,2.238,5,5    S278.912,417.07,276.15,417.07z" style="fill:#EF3E5C;"/>
<path d="M448.32,453.32H230.85c-2.761,0-5-2.238-5-5s2.239-5,5-5H448.32c2.762,0,5,2.238,5,5    S451.082,453.32,448.32,453.32z" style="fill:#EF3E5C;"/>
</g>
</g>
<g id="Layer_1"/>
</svg>