<?xml version="1.0" ?>
<!-- Uploaded to: SVG Repo, www.svgrepo.com, Generator: SVG Repo Mixer Tools -->
<svg width="800px" height="800px" viewBox="0 0 120 120" id="Layer_1" version="1.1" xml:space="preserve" xmlns="http://www.w3.org/2000/svg" xmlns:xlink="http://www.w3.org/1999/xlink">
<style type="text/css">
	.st0{fill:#3A485E;}
	.st1{fill:#0DA9FF;}
	.st2{fill:#FFD551;}
	.st3{fill:#EDBF9A;}
	.st4{fill:#FFD9B6;}
	.st5{fill:#0E9EDD;}
	.st6{fill:#3F3F3F;}
</style>
<g>
<g>
<path class="st0" d="M80.6,37.9h-3v10h3c1.7,0,3.1-1.1,3.1-2.6v-4.9C83.7,39,82.3,37.9,80.6,37.9z"/>
<path class="st0" d="M36.3,40.4v4.9c0,1.4,1.4,2.6,3.1,2.6h3v-10h-3C37.7,37.9,36.3,39,36.3,40.4z"/>
</g>
<path class="st1" d="M99.9,104.8H20.1V82.6c0-5.1,3.7-9.7,9.2-11.4l23-7c5.1-1.6,10.5-1.6,15.5,0l23,7c5.5,1.7,9.2,6.3,9.2,11.4   V104.8z"/>
<rect class="st2" height="2.9" width="13.3" x="65.3" y="87.1"/>
<rect class="st3" height="23.5" width="16.9" x="51.5" y="50.2"/>
<path class="st4" d="M79.2,38.6c0,13-8.6,26.2-19.2,26.2S40.8,51.5,40.8,38.6S49.4,17.8,60,17.8S79.2,25.6,79.2,38.6z"/>
<g>
<path class="st5" d="M38.4,91.5h-0.6c-0.6,0-1.1,0.5-1.1,1.1v12.1h2.9V92.7C39.5,92,39,91.5,38.4,91.5z"/>
<path class="st5" d="M82.2,91.5h-0.6c-0.6,0-1.1,0.5-1.1,1.1v12.1h2.9V92.7C83.4,92,82.9,91.5,82.2,91.5z"/>
<polygon class="st5" points="68.5,65.9 60,73.5 51.5,65.9 50.3,64.8 41.3,67.5 54.7,79.6 60,73.7 65.3,79.6 78.7,67.5 69.7,64.8       "/>
</g>
<g>
<path class="st0" d="M67.7,56.1c-1.4,0-1.7,0-3.4-0.1l-1.7,0l0-1.3l1.7,0C72,54.9,74.6,55,77,53c2.5-2,2-7.2,2-7.3l1.3-0.1    c0,0.2,0.6,5.9-2.5,8.4C75.6,55.8,72.7,56.1,67.7,56.1z"/>
</g>
<path class="st5" d="M65.8,57.6h-4.6c-0.7,0-1.2-0.6-1.2-1.2v-1.7c0-0.7,0.6-1.2,1.2-1.2h4.6c0.7,0,1.2,0.6,1.2,1.2v1.7   C67.1,57,66.5,57.6,65.8,57.6z"/>
<path class="st6" d="M79.2,26.3c0-5.9-3-6.2-3-6.2l-4.7-0.6c-0.9-0.1-1.6-0.8-1.7-1.7c-0.6-3-2.8-2.7-2.8-2.7S51.4,15.1,46.5,17   c-5.7,2.2-7.1,6.2-7.1,9.4c0,6.6,1.7,18.5,2.7,21.2c0.2,0.6,1.2,0.5,1.2-0.2l0-8.9c0-0.6,0.5-1,1-1H66c0.6,0,1-0.5,1-1v-2.1   c0-0.6,0.5-1,1-1s1,0.5,1,1v2.1c0,0.6,0.5,1,1,1h5.6c0.6,0,1,0.5,1,1V47c0,0.7,1,0.8,1.2,0.2c0.8-2.8,1.2-5.7,1.2-8.6   C79.2,37.6,79.2,29.7,79.2,26.3z"/>
</g>
</svg>