<?xml version="1.0" ?>
<!-- Uploaded to: SVG Repo, www.svgrepo.com, Generator: SVG Repo Mixer Tools -->
<svg width="800px" height="800px" viewBox="-50.83 0 401.31 401.31" xmlns="http://www.w3.org/2000/svg">
<defs>
<style>.cls-1{fill:#fbc907;}.cls-2{fill:#f3a70f;}.cls-3{fill:#426572;}.cls-4{fill:#ffffff;}</style>
</defs>
<title/>
<g data-name="Layer 2" id="Layer_2">
<g data-name="Layer 1" id="Layer_1-2">
<path class="cls-1" d="M227.8,284.13H74.19A37.28,37.28,0,0,1,36.95,246.9V37.42A37.28,37.28,0,0,1,74.19.18H227.8A37.28,37.28,0,0,1,265,37.42V246.9A37.28,37.28,0,0,1,227.8,284.13ZM83.5,237.59h135V46.73H83.5Z"/>
<path class="cls-2" d="M265.29,114.23v142A37.28,37.28,0,0,1,228,293.44H74.43a37.28,37.28,0,0,1-37.24-37.24v-142H83.74V246.9h135V114.23Z"/>
<path class="cls-3" d="M227.8,296H74.19a43.29,43.29,0,0,1-43.24-43.24V43.24A43.29,43.29,0,0,1,74.19,0H227.8A43.29,43.29,0,0,1,271,43.24V252.71A43.29,43.29,0,0,1,227.8,296ZM74.19,12A31.28,31.28,0,0,0,42.95,43.24V252.71A31.27,31.27,0,0,0,74.19,284H227.8A31.27,31.27,0,0,0,259,252.71V43.24A31.28,31.28,0,0,0,227.8,12Zm150.3,237.4H77.5V46.55h147Zm-135-12h123V58.55H89.5Z"/>
<rect class="cls-1" height="257.64" rx="12" ry="12" width="287.65" x="6" y="140.18"/>
<path class="cls-2" d="M296,153.92V384.8a13.42,13.42,0,0,1-13.38,13.38H154.49V140.54H282.61A13.42,13.42,0,0,1,296,153.92Z"/>
<path class="cls-3" d="M281.65,401.31H18a18,18,0,0,1-18-18V149.67a18,18,0,0,1,18-18H281.65a18,18,0,0,1,18,18V383.31A18,18,0,0,1,281.65,401.31ZM18,143.67a6,6,0,0,0-6,6V383.31a6,6,0,0,0,6,6H281.65a6,6,0,0,0,6-6V149.67a6,6,0,0,0-6-6Z"/>
<path class="cls-3" d="M55.7,288.42V265.71q0-10.45,5.7-15.34t14.87-4.88q9.43,0,15.47,4.54a14.79,14.79,0,0,1,6,12.51q0,3.69-1.54,5t-5.14,1.33q-6.6,0-6.68-4a20.08,20.08,0,0,0-.09-2,9.12,9.12,0,0,0-.51-2,4.5,4.5,0,0,0-1.2-1.89,7.26,7.26,0,0,0-2.27-1.24,10.23,10.23,0,0,0-3.56-.56q-7.71,0-7.71,8.57v22.71q0,8.57,7.63,8.57t7.71-8.57V285.5H79.35a3.43,3.43,0,0,1-3-1.5,6.47,6.47,0,0,1,0-7.2,3.41,3.41,0,0,1,2.91-1.58h14.4a3.7,3.7,0,0,1,3,1.24,4.38,4.38,0,0,1,1.07,3v9q0,10.46-5.74,15.34t-15.34,4.89q-9.51,0-15.25-4.89T55.7,288.42Z"/>
<path class="cls-3" d="M105.49,304.1V249.51a3.47,3.47,0,0,1,1.63-2.83,6.91,6.91,0,0,1,4.2-1.2h15.17q9.6,0,15.34,4.88t5.74,15.34v22.2q0,10.46-5.74,15.34t-15.34,4.88H111.32a6.89,6.89,0,0,1-4.2-1.2A3.46,3.46,0,0,1,105.49,304.1Zm13.37-7.63h7.63q7.71,0,7.71-8.57v-22.2q0-8.57-7.71-8.57h-7.63Z"/>
<path class="cls-3" d="M156.05,304v-54.5a3.65,3.65,0,0,1,1.37-2.83,5.27,5.27,0,0,1,3.6-1.2h17.74q9.17,0,14.7,4.76t5.53,15v.43q0,10.2-5.78,15t-15.3,4.84h-8.48V304a3.33,3.33,0,0,1-2,3,10.9,10.9,0,0,1-9.43,0A3.33,3.33,0,0,1,156.05,304Zm13.37-28.79h8.48q7.71,0,7.71-8.57v-.94q0-8.57-7.71-8.57h-8.48Z"/>
<path class="cls-3" d="M204.81,304v-54.5a4,4,0,0,1,4.11-4h17.74q21.08,0,21.08,18.34,0,13.37-10.37,17.4l10.46,18.94a2.6,2.6,0,0,1,.43,1.54q0,2.49-2.7,4.71a8.83,8.83,0,0,1-5.7,2.23,4.45,4.45,0,0,1-4.28-2.49l-11.74-22.8h-5.66V304a3.33,3.33,0,0,1-2,3,10.9,10.9,0,0,1-9.43,0A3.33,3.33,0,0,1,204.81,304Zm13.37-30.94h8.48a8.11,8.11,0,0,0,5.74-1.84q2-1.84,2-6.13t-2-6.13a8.12,8.12,0,0,0-5.74-1.84h-8.48Z"/>
<path class="cls-4" d="M27.93,165.28H64.35c3.86,0,3.87-6,0-6H27.93c-3.86,0-3.87,6,0,6Z"/>
<path class="cls-4" d="M79.43,165.28h90.43c3.86,0,3.87-6,0-6H79.43c-3.86,0-3.87,6,0,6Z"/>
</g>
</g>
</svg>