<?xml version="1.0" ?>
<!DOCTYPE svg  PUBLIC '-//W3C//DTD SVG 1.1//EN'  'http://www.w3.org/Graphics/SVG/1.1/DTD/svg11.dtd'>
<!-- Uploaded to: SVG Repo, www.svgrepo.com, Generator: SVG Repo Mixer Tools -->
<svg width="800px" height="800px" viewBox="0 0 512 512" version="1.1" xml:space="preserve" xmlns="http://www.w3.org/2000/svg" xmlns:xlink="http://www.w3.org/1999/xlink">
<g id="_x36_09_x2C__heart_x2C__love_x2C__valentine_x2C__valentine_x27_s_day">
<g>
<path d="M314.29,331.377c-16.58,16.719-34.83,34.479-53.08,54.91c-17.89-20.031-35.77-37.5-52.09-53.932    c15.04,1.15,30.73,1.76,46.88,1.76C276.28,334.115,295.85,333.156,314.29,331.377z" style="fill:#EF3E5C;"/>
<path d="M227.37,341.605c15.04,1.15,30.729,1.76,46.88,1.76c9.764,0,19.356-0.227,28.744-0.656    c3.834-3.84,7.608-7.613,11.296-11.332c-18.44,1.779-38.01,2.738-58.29,2.738c-16.149,0-31.84-0.609-46.88-1.76    c16.32,16.432,34.2,33.9,52.09,53.932c1.611-1.805,3.223-3.58,4.833-5.344C252.711,366.82,239.603,353.922,227.37,341.605z" style="fill:#D32F53;"/>
<circle cx="174.45" cy="379.167" r="18.12" style="fill:#EF3E5C;"/>
<path d="M161.33,389.287c0-10.012,8.11-18.121,18.12-18.121c5.06,0,9.628,2.076,12.915,5.418    c-1.256-8.783-8.784-15.537-17.915-15.537c-10.01,0-18.12,8.109-18.12,18.119c0,4.951,1.988,9.432,5.205,12.703    C161.414,391.023,161.33,390.166,161.33,389.287z" style="fill:#E42A53;"/>
<path d="M346.37,296.936c40.52-5.699,67.01-15.119,67.01-25.77c0-7.879-14.46-15.08-38.35-20.6    c3.37-8.95,5.6-18.32,6.47-28.31c45.05,11.54,73.85,29.16,73.85,48.91c0,28.359-59.399,52.34-141.06,60.211    c-18.44,1.779-38.01,2.738-58.29,2.738c-16.149,0-31.84-0.609-46.88-1.76c-87.47-6.648-152.47-31.52-152.47-61.189    c0-21.22,33.24-39.98,84.17-51.39c0.64,10.16,2.68,19.67,5.89,28.74c-29.649,5.73-48.09,13.75-48.09,22.65    c0,11.65,31.67,21.83,78.73,27.27c23.14,2.67,50,4.201,78.649,4.201C289.63,302.637,320.79,300.525,346.37,296.936z" style="fill:#FFD55E;"/>
<g>
<path d="M381.5,234.164c40.475,10.368,67.816,25.645,72.956,42.965c0.585-1.963,0.894-3.951,0.894-5.963     c0-19.75-28.8-37.37-73.85-48.91c-0.87,9.99-3.1,19.36-6.47,28.31c1.192,0.275,2.355,0.557,3.501,0.841     C379.97,245.85,380.981,240.119,381.5,234.164z" style="fill:#E5B848;"/>
<path d="M140.82,231.684c0.381,6.047,1.269,11.859,2.593,17.49c1.085-0.222,2.181-0.442,3.297-0.658     c-3.21-9.07-5.25-18.58-5.89-28.74c-50.93,11.41-84.17,30.169-84.17,51.39c0,2.004,0.307,3.986,0.887,5.941     C63.117,258.361,94.72,242.012,140.82,231.684z" style="fill:#E5B848;"/>
</g>
<path d="M381.9,212.576c0,3.29-0.141,6.52-0.4,9.68c-0.87,9.99-3.1,19.36-6.47,28.31    c-6.181,16.401-16.181,31.42-28.66,46.37c-25.58,3.59-56.74,5.701-90.37,5.701c-28.649,0-55.51-1.531-78.649-4.201    c-13.58-16.059-24.351-32.16-30.641-49.919c-3.21-9.07-5.25-18.58-5.89-28.74v-0.05c-0.15-2.35-0.23-4.73-0.23-7.15    c0-38.1,27.011-69,60.311-69c30.16,0,45.229,17.25,60.31,51.75c15.08-34.5,30.16-51.75,60.31-51.75    C354.89,143.576,381.9,174.476,381.9,212.576z" style="fill:#EF3E5C;"/>
<g>
<g>
<g>
<path d="M165.79,257.576c-3.21-9.07-5.25-18.58-5.89-28.74v-0.05c-0.15-2.35-0.23-4.73-0.23-7.15       c0-38.1,27.011-69,60.311-69c5.014,0,9.602,0.488,13.851,1.441c-8.839-6.993-19.353-10.501-32.931-10.501       c-33.3,0-60.311,30.9-60.311,69c0,2.42,0.08,4.8,0.23,7.15v0.05c0.64,10.16,2.68,19.67,5.89,28.74       c6.29,17.759,17.061,33.861,30.641,49.919c4.142,0.479,8.407,0.918,12.776,1.32       C179.519,286.227,171.071,272.486,165.79,257.576z" style="fill:#E42A53;"/>
</g>
</g>
</g>
<path d="M251.731,230.18c-39.836,0-67.85-7.808-69.595-8.306c-2.655-0.758-4.193-3.526-3.435-6.181    c0.759-2.654,3.521-4.189,6.179-3.435l0,0c0.623,0.178,63.088,17.518,133.336-0.042c2.678-0.672,5.395,0.959,6.063,3.638    c0.67,2.679-0.959,5.394-3.638,6.063C295.859,228.112,272.228,230.18,251.731,230.18z" style="fill:#FFD55E;"/>
<path d="M242.488,268.684c-24.429,0-40.27-2.184-41.565-2.367c-2.732-0.391-4.632-2.924-4.242-5.656    c0.39-2.734,2.924-4.637,5.655-4.245c0.625,0.089,63.382,8.694,134.001-8.96c2.68-0.675,5.395,0.959,6.063,3.638    c0.67,2.68-0.959,5.394-3.638,6.063C301.924,266.365,267.65,268.684,242.488,268.684z" style="fill:#FFD55E;"/>
<path d="M364.489,362.4c10.01,0,18.12,8.109,18.12,18.119s-8.11,18.121-18.12,18.121    c-10.011,0-18.12-8.111-18.12-18.121S354.479,362.4,364.489,362.4z" style="fill:#EF3E5C;"/>
<path d="M351.369,390.641c0-10.012,8.109-18.121,18.12-18.121c5.06,0,9.628,2.076,12.915,5.418    c-1.256-8.783-8.784-15.537-17.915-15.537c-10.011,0-18.12,8.109-18.12,18.119c0,4.951,1.988,9.432,5.205,12.703    C351.453,392.377,351.369,391.52,351.369,390.641z" style="fill:#E42A53;"/>
<path d="M418.38,136.48c10.01,0,18.12,8.109,18.12,18.12c0,10.01-8.11,18.12-18.12,18.12    c-10.011,0-18.12-8.11-18.12-18.12C400.26,144.589,408.369,136.48,418.38,136.48z" style="fill:#EF3E5C;"/>
<path d="M405.26,164.72c0-10.011,8.109-18.12,18.12-18.12c5.06,0,9.628,2.076,12.915,5.418    c-1.256-8.783-8.784-15.538-17.915-15.538c-10.011,0-18.12,8.109-18.12,18.12c0,4.95,1.988,9.432,5.205,12.702    C405.344,166.457,405.26,165.599,405.26,164.72z" style="fill:#E42A53;"/>
<path d="M105.598,113.36c10.01,0,18.12,8.109,18.12,18.12c0,10.01-8.11,18.12-18.12,18.12    c-10.011,0-18.12-8.11-18.12-18.12C87.478,121.469,95.587,113.36,105.598,113.36z" style="fill:#EF3E5C;"/>
<path d="M92.478,141.6c0-10.011,8.109-18.12,18.12-18.12c5.06,0,9.628,2.076,12.915,5.418    c-1.256-8.783-8.784-15.538-17.915-15.538c-10.011,0-18.12,8.109-18.12,18.12c0,4.95,1.988,9.432,5.205,12.702    C92.562,143.336,92.478,142.479,92.478,141.6z" style="fill:#E42A53;"/>
</g>
</g>
<g id="Layer_1"/>
</svg>