<?xml version="1.0" ?>
<!DOCTYPE svg  PUBLIC '-//W3C//DTD SVG 1.1//EN'  'http://www.w3.org/Graphics/SVG/1.1/DTD/svg11.dtd'>
<!-- Uploaded to: SVG Repo, www.svgrepo.com, Generator: SVG Repo Mixer Tools -->
<svg width="800px" height="800px" viewBox="0 0 512 512" version="1.1" xml:space="preserve" xmlns="http://www.w3.org/2000/svg" xmlns:xlink="http://www.w3.org/1999/xlink">
<g id="_x35_35_x2C__sms_x2C__love_x2C__weddind_x2C__heart">
<g>
<path d="M360.2,412.54H88.37c-2.761,0-5-2.238-5-5s2.239-5,5-5H360.2c2.762,0,5,2.238,5,5    S362.962,412.54,360.2,412.54z" style="fill:#E37372;"/>
<path d="M414.57,412.54h-18.12c-2.762,0-5-2.238-5-5s2.238-5,5-5h18.12c2.762,0,5,2.238,5,5    S417.332,412.54,414.57,412.54z" style="fill:#E37372;"/>
<path d="M314.9,237.17c0,28.98-29.021,45.49-58,74.471c-28.98-28.98-57.96-45.49-57.96-74.471    c0-4.62,1.09-8.99,3.02-12.87c4.75-9.54,14.59-16.109,25.96-16.109c14.49,0,21.74,7.25,28.98,21.739    c7.25-14.489,14.49-21.739,28.98-21.739c10.95,0,20.47,6.06,25.41,14.989C313.59,227.33,314.9,232.1,314.9,237.17z" style="fill:#EF3E5C;"/>
<path d="M198.94,237.17c0,28.98,28.98,45.49,57.96,74.471c28.98-28.98,58-45.49,58-74.471    c0-5.07-1.311-9.84-3.61-13.99l124.95-110.8c3.47,4.94,5.51,10.94,5.51,17.431v211.13c0,16.77-13.58,30.36-30.35,30.36H100.6    c-16.76,0-30.35-13.591-30.35-30.36v-211.13c0-6.49,2.04-12.49,5.51-17.431l126.2,111.92    C200.03,228.18,198.94,232.55,198.94,237.17z" style="fill:#FFCDD2;"/>
<g>
<path d="M78.25,359.016v-211.13c0-6.49,2.04-12.49,5.51-17.431l115.508,102.438     c0.453-3.042,1.369-5.935,2.692-8.594L75.76,112.38c-3.47,4.94-5.51,10.94-5.51,17.431v211.13c0,7.981,3.083,15.239,8.117,20.658     C78.295,360.746,78.25,359.887,78.25,359.016z" style="fill:#E5A8B1;"/>
</g>
<path d="M311.29,223.18c-4.94-8.93-14.46-14.989-25.41-14.989c-14.49,0-21.729,7.25-28.98,21.739    c-7.24-14.489-14.49-21.739-28.98-21.739c-11.37,0-21.21,6.569-25.96,16.109L75.76,112.38c5.49-7.81,14.56-12.92,24.84-12.92    h310.8c10.279,0,19.35,5.11,24.84,12.92L311.29,223.18z M305.84,153.83V135.7h-18.13v18.13H305.84z M278.65,153.83V135.7h-18.12    v18.13H278.65z M251.47,153.83V135.7h-18.12v18.13H251.47z M224.29,153.83V135.7h-18.13v18.13H224.29z" style="fill:#E37372;"/>
<g>
<path d="M98.41,120.936c5.49-7.811,14.56-12.92,24.84-12.92H432.5c-5.459-5.29-12.891-8.556-21.1-8.556     H100.6c-10.28,0-19.35,5.11-24.84,12.92l126.2,111.92c1.304-2.618,3.002-5.002,5-7.099L98.41,120.936z" style="fill:#CE6161;"/>
</g>
<g>
<g>
<g>
<path d="M215.225,242.17c0-4.62,1.09-8.99,3.02-12.87c4.75-9.54,14.59-16.109,25.96-16.109       c0.118,0,0.226,0.01,0.342,0.011c-4.414-3.327-9.685-5.011-16.627-5.011c-11.37,0-21.21,6.569-25.96,16.109       c-1.93,3.88-3.02,8.25-3.02,12.87c0,28.98,28.98,45.49,57.96,74.471c1.826-1.826,3.652-3.602,5.471-5.335       C237.411,283.336,215.225,267.526,215.225,242.17z" style="fill:#E42A53;"/>
</g>
</g>
</g>
<rect height="18.13" style="fill:#FFCDD2;" width="18.13" x="287.71" y="135.7"/>
<rect height="18.13" style="fill:#FFCDD2;" width="18.12" x="260.53" y="135.7"/>
<rect height="18.13" style="fill:#FFCDD2;" width="18.12" x="233.35" y="135.7"/>
<rect height="18.13" style="fill:#FFCDD2;" width="18.13" x="206.16" y="135.7"/>
<path d="M326.733,285.58c-2.298-1.532-5.401-0.911-6.934,1.387s-0.911,5.401,1.387,6.934l107.734,71.826    c2.771-1.963,5.196-4.378,7.171-7.14c-0.196-0.183-0.397-0.362-0.628-0.517L326.733,285.58z" style="fill:#E5A8B1;"/>
<path d="M192.2,286.967c-1.532-2.299-4.637-2.918-6.934-1.387L78.25,356.928v2.088    c0,0.871,0.045,1.73,0.117,2.583c1.423,1.532,3.004,2.914,4.715,4.126L190.813,293.9    C193.111,292.368,193.732,289.265,192.2,286.967z" style="fill:#E5A8B1;"/>
</g>
</g>
<g id="Layer_1"/>
</svg>