<?xml version="1.0" ?>
<!DOCTYPE svg  PUBLIC '-//W3C//DTD SVG 1.1//EN'  'http://www.w3.org/Graphics/SVG/1.1/DTD/svg11.dtd'>
<!-- Uploaded to: SVG Repo, www.svgrepo.com, Generator: SVG Repo Mixer Tools -->
<svg width="800px" height="800px" viewBox="0 0 512 512" version="1.1" xml:space="preserve" xmlns="http://www.w3.org/2000/svg" xmlns:xlink="http://www.w3.org/1999/xlink">
<g id="_x37_19_x2C__heartbeat_x2C__love_x2C__heart_x2C__wedding">
<g>
<path d="M308.304,157.579c26.28,0,47.564,21.284,47.564,47.502c0,39.215-32.424,64.5-70.456,98.844    c-8.038,7.252-16.323,14.916-24.599,23.203c-8.909-8.91-17.807-17.098-26.405-24.836c-37.234-33.521-68.599-58.619-68.599-97.211    c0-26.218,21.271-47.502,47.502-47.502c23.751,0,35.626,11.876,47.502,35.627C272.689,169.455,284.565,157.579,308.304,157.579z" style="fill:#EF3E5C;"/>
<g>
<g>
<g>
<path d="M258.908,312.178c-37.234-33.521-68.599-58.619-68.599-97.211       c0-26.218,21.271-47.502,47.502-47.502c1.774,0,3.474,0.074,5.12,0.207c-7.703-6.729-16.979-10.093-29.62-10.093       c-26.23,0-47.502,21.284-47.502,47.502c0,38.592,31.364,63.689,68.599,97.211c8.599,7.738,17.496,15.926,26.405,24.836       c2.332-2.335,4.664-4.615,6.991-6.856C264.813,317.516,261.842,314.818,258.908,312.178z" style="fill:#E42A53;"/>
</g>
</g>
</g>
<path d="M360.227,354.421c-0.022,0-0.045,0-0.066,0c-2.319-0.031-4.313-1.651-4.815-3.915l-14.207-63.93    l-12.414,37.242c-0.681,2.042-2.591,3.419-4.743,3.419h-63.429c-2.762,0-5-2.238-5-5s2.238-5,5-5h59.825l16.982-50.948    c0.71-2.132,2.754-3.537,5.001-3.412c2.244,0.115,4.136,1.715,4.623,3.908l13.528,60.876l22.047-88.187    c0.557-2.226,2.557-3.787,4.851-3.787s4.294,1.562,4.851,3.787l17.176,68.701h23.279c2.762,0,5,2.238,5,5s-2.238,5-5,5h-27.184    c-2.294,0-4.294-1.562-4.851-3.787l-13.271-53.086l-22.333,89.331C364.52,352.861,362.518,354.421,360.227,354.421z" style="fill:#EF3E5C;"/>
<path d="M160.836,354.421c-2.291,0-4.293-1.559-4.85-3.787l-22.333-89.331l-13.272,53.086    c-0.556,2.226-2.556,3.787-4.851,3.787H79.285c-2.761,0-5-2.238-5-5s2.239-5,5-5h32.342l17.176-68.701    c0.556-2.226,2.556-3.787,4.851-3.787c2.294,0,4.294,1.562,4.851,3.787l22.047,88.186l13.527-60.875    c0.487-2.193,2.379-3.793,4.624-3.908c2.237-0.128,4.29,1.28,5.001,3.412l16.982,50.948h59.824c2.762,0,5,2.238,5,5s-2.238,5-5,5    h-63.429c-2.152,0-4.063-1.377-4.743-3.419l-12.414-37.242l-14.206,63.93c-0.503,2.264-2.497,3.884-4.815,3.915    C160.881,354.421,160.858,354.421,160.836,354.421z" style="fill:#EF3E5C;"/>
</g>
</g>
<g id="Layer_1"/>
</svg>