<?xml version="1.0" ?>
<!DOCTYPE svg  PUBLIC '-//W3C//DTD SVG 1.1//EN'  'http://www.w3.org/Graphics/SVG/1.1/DTD/svg11.dtd'>
<!-- Uploaded to: SVG Repo, www.svgrepo.com, Generator: SVG Repo Mixer Tools -->
<svg width="800px" height="800px" viewBox="0 0 512 512" version="1.1" xml:space="preserve" xmlns="http://www.w3.org/2000/svg" xmlns:xlink="http://www.w3.org/1999/xlink">
<g id="_x35_41_x2C__loving_x2C__love_x2C__heart_x2C__wedding">
<g>
<path d="M377.35,233.733c-5.819-21.851-23.529-38.851-45.81-43.66l16.37-37.351    c2.72-6.199,8.78-10.199,15.47-10.199h89.66c16.6,0,23.29,21.71,9.64,31.29L377.35,233.733z" style="fill:#FFC592;"/>
<g>
<g>
<g>
<path d="M354.662,161.795c2.72-6.2,8.78-10.2,15.47-10.2h89.66c3.616,0,6.761,1.031,9.329,2.742       c-2.107-6.515-7.882-11.813-16.081-11.813h-89.66c-6.689,0-12.75,4-15.47,10.199l-16.37,37.351       c3.262,0.704,6.423,1.677,9.466,2.88L354.662,161.795z" style="fill:#EFA873;"/>
</g>
<g>
<path d="M370.578,217.898c2.965,4.872,5.268,10.189,6.771,15.835l2.657-1.866       C377.517,226.77,374.335,222.072,370.578,217.898z" style="fill:#EFA873;"/>
</g>
</g>
</g>
<path d="M180.85,190.953c-21.35,5.99-37.94,23.37-42.8,45.16l-88.73-62.3    c-13.65-9.58-6.96-31.29,9.64-31.29h89.66c6.69,0,12.75,4,15.47,10.199L180.85,190.953z" style="fill:#FFC592;"/>
<path d="M67.96,156.047h89.66c3.301,0,6.446,0.978,9.114,2.709l-2.645-6.033    c-2.72-6.199-8.78-10.199-15.47-10.199H58.96c-16.6,0-23.29,21.71-9.64,31.29l1.764,1.238    C50.202,165.754,56.859,156.047,67.96,156.047z" style="fill:#EFA873;"/>
<path d="M331.54,190.073c22.28,4.81,39.99,21.81,45.81,43.66c1.33,4.989,2.051,10.229,2.051,15.64    c0,60.68-60.761,95.24-121.45,155.93c-60.68-60.689-121.37-95.25-121.37-155.93c0-4.56,0.52-8.99,1.47-13.26    c4.86-21.79,21.45-39.17,42.8-45.16c5.22-1.47,10.72-2.271,16.42-2.271c30.34,0,45.51,15.171,60.68,45.521    c15.17-30.35,30.34-45.521,60.689-45.521C323.07,188.683,327.38,189.173,331.54,190.073z" style="fill:#EF3E5C;"/>
<g>
<g>
<g>
<path d="M151.58,265.102c0-4.56,0.52-8.99,1.47-13.26c4.86-21.79,21.45-39.17,42.8-45.16       c5.22-1.47,10.72-2.271,16.42-2.271c14.146,0,24.994,3.302,34.082,9.899c-12.092-17.086-26.316-25.628-49.082-25.628       c-5.7,0-11.2,0.801-16.42,2.271c-21.35,5.99-37.94,23.37-42.8,45.16c-0.95,4.27-1.47,8.7-1.47,13.26       c0,33.696,18.72,59.338,45.755,85.872C163.623,313.968,151.58,292.125,151.58,265.102z" style="fill:#E42A53;"/>
</g>
</g>
</g>
<path d="M297.84,165.653h-81.55c-2.761,0-5-2.239-5-5c0-2.762,2.239-5,5-5h81.55c2.762,0,5,2.238,5,5    C302.84,163.414,300.602,165.653,297.84,165.653z" style="fill:#415A6B;"/>
<path d="M315.97,138.463h-117.8c-2.761,0-5-2.238-5-5c0-2.761,2.239-5,5-5h117.8c2.762,0,5,2.239,5,5    C320.97,136.225,318.731,138.463,315.97,138.463z" style="fill:#415A6B;"/>
<path d="M325.03,111.283H189.11c-2.761,0-5-2.239-5-5c0-2.762,2.239-5,5-5h135.92c2.762,0,5,2.238,5,5    C330.03,109.044,327.792,111.283,325.03,111.283z" style="fill:#415A6B;"/>
<path d="M270.665,337.813c-1.699,0-3.355-0.866-4.293-2.429c-1.42-2.368-0.652-5.439,1.716-6.86    c42.392-25.429,42.882-49.839,42.882-50.082c0-2.762,2.238-5,5-5s5,2.238,5,5c0,1.226-0.543,30.348-47.737,58.658    C272.427,337.583,271.54,337.813,270.665,337.813z" style="fill:#E42A53;"/>
<path d="M80.37,247.203c-7.234,0-13.12,5.886-13.12,13.12c0,7.233,5.886,13.119,13.12,13.119    c7.24,0,13.13-5.886,13.13-13.119C93.5,253.089,87.61,247.203,80.37,247.203z" style="fill:#EF3E5C;"/>
<path d="M70.583,267.656c0-7.234,5.886-13.12,13.12-13.12c3.849,0,7.306,1.674,9.709,4.319    c-0.733-6.545-6.3-11.652-13.042-11.652c-7.234,0-13.12,5.886-13.12,13.12c0,3.39,1.303,6.473,3.421,8.803    C70.617,268.644,70.583,268.153,70.583,267.656z" style="fill:#E42A53;"/>
<path d="M170.04,384.478c-7.234,0-13.12,5.885-13.12,13.119s5.886,13.12,13.12,13.12    c7.24,0,13.13-5.886,13.13-13.12S177.28,384.478,170.04,384.478z" style="fill:#8EAA39;"/>
<path d="M160.17,405.302c0-7.234,5.886-13.119,13.12-13.119c3.914,0,7.423,1.729,9.831,4.452    c-0.496-6.785-6.166-12.157-13.081-12.157c-7.234,0-13.12,5.885-13.12,13.119c0,3.324,1.253,6.355,3.299,8.67    C160.195,405.946,160.17,405.627,160.17,405.302z" style="fill:#679519;"/>
<path d="M407.521,324.693c-7.234,0-13.12,5.885-13.12,13.119s5.886,13.12,13.12,13.12    c7.239,0,13.13-5.886,13.13-13.12S414.76,324.693,407.521,324.693z" style="fill:#FFD15C;"/>
<path d="M397.4,343.563c0-7.234,5.886-13.119,13.12-13.119c3.885,0,7.37,1.704,9.775,4.392    c-1.354-5.802-6.563-10.142-12.775-10.142c-7.234,0-13.12,5.885-13.12,13.119c0,3.354,1.276,6.409,3.354,8.731    C397.531,345.584,397.4,344.589,397.4,343.563z" style="fill:#F7B64C;"/>
</g>
</g>
<g id="Layer_1"/>
</svg>