<?xml version="1.0" ?>
<!DOCTYPE svg  PUBLIC '-//W3C//DTD SVG 1.1//EN'  'http://www.w3.org/Graphics/SVG/1.1/DTD/svg11.dtd'>
<!-- Uploaded to: SVG Repo, www.svgrepo.com, Generator: SVG Repo Mixer Tools -->
<svg width="800px" height="800px" viewBox="0 0 512 512" version="1.1" xml:space="preserve" xmlns="http://www.w3.org/2000/svg" xmlns:xlink="http://www.w3.org/1999/xlink">
<g id="_x36_92_x2C__loveing_x2C__love_x2C__heart_x2C__wedding">
<g>
<path d="M424,62.103c13.15,13.15,7.47,33.81,7.47,60.12c-26.3,0-46.95,5.66-60.1-7.49    c-7.26-7.27-7.26-19.05,0-26.31c6.58-6.58,13.149-6.58,23.02-3.29c-3.29-9.86-3.29-16.44,3.29-23.02    C404.95,54.833,416.74,54.833,424,62.103z" style="fill:#EF3E5C;"/>
<g>
<g>
<g>
<path d="M424,62.103c-7.26-7.27-19.05-7.27-26.32,0.01c-2.353,2.353-3.852,4.708-4.672,7.21       c7.224-4.754,17.024-3.954,23.367,2.398c11.526,11.526,8.586,28.823,7.684,50.637c2.418-0.083,4.888-0.135,7.411-0.135       C431.47,95.913,437.15,75.253,424,62.103z" style="fill:#E42A53;"/>
</g>
</g>
</g>
<path d="M106.49,74.773c10.01,0,18.12,8.12,18.12,18.13c0,10.01-8.11,18.12-18.12,18.12    c-10.01,0-18.12-8.11-18.12-18.12C88.37,82.893,96.48,74.773,106.49,74.773z" style="fill:#F78F4B;"/>
<path d="M92.204,101.737c0-10.01,8.11-18.13,18.12-18.13c5.691,0,10.763,2.63,14.084,6.735    c-1.247-8.794-8.78-15.568-17.918-15.568c-10.01,0-18.12,8.12-18.12,18.13c0,4.318,1.515,8.277,4.034,11.39    C92.286,103.456,92.204,102.607,92.204,101.737z" style="fill:#DD773E;"/>
<path d="M154.02,394.014c13.15,13.159,7.47,33.819,7.47,60.119c-26.3,0-46.95,5.671-60.1-7.489    c-7.26-7.261-7.26-19.04,0-26.301c6.57-6.579,13.15-6.579,23.02-3.289c-3.29-9.87-3.29-16.44,3.28-23.021    C134.97,386.753,146.76,386.753,154.02,394.014z" style="fill:#EF3E5C;"/>
<g>
<g>
<g>
<path d="M154.02,394.014c-7.26-7.261-19.05-7.261-26.33,0.02c-4.04,4.046-5.588,8.092-5.422,12.899       c0.538-0.677,1.125-1.351,1.797-2.024c7.28-7.28,19.07-7.28,26.33-0.02c11.285,11.292,8.704,28.113,7.745,49.276       c1.108-0.019,2.222-0.032,3.351-0.032C161.49,427.833,167.17,407.173,154.02,394.014z" style="fill:#E42A53;"/>
</g>
</g>
</g>
<path d="M448.71,378.373c7.271,7.271,7.271,19.061,0.01,26.32c-13.149,13.149-33.81,7.47-60.12,7.47    c0-26.3-5.659-46.95,7.49-60.1c7.26-7.26,19.05-7.26,26.311,0c6.569,6.569,6.569,13.149,3.29,23.02    C435.55,371.793,442.13,371.793,448.71,378.373z" style="fill:#EF3E5C;"/>
<g>
<g>
<g>
<path d="M403.34,360.81c6.367-6.367,16.219-7.147,23.444-2.345c-0.865-2.206-2.287-4.305-4.384-6.401       c-7.261-7.26-19.051-7.26-26.311,0c-13.149,13.149-7.49,33.8-7.49,60.1c2.404,0,4.761,0.048,7.069,0.124       C394.815,390.079,391.664,372.485,403.34,360.81z" style="fill:#E42A53;"/>
</g>
</g>
</g>
<path d="M453.24,199.203c4.1,4.1,6.64,9.76,6.64,16.02c0,12.51-10.14,22.66-22.66,22.66h-27.18    c6.26,0,11.92,2.54,16.02,6.63c4.101,4.1,6.631,9.77,6.631,16.02c0,12.51-10.141,22.65-22.65,22.65H369.27    c6.25,0,13.051,2.54,18.28,6.64c5.23,4.1,8.9,9.76,8.9,16.02c0,12.511-10.141,22.65-22.65,22.65h-68.97    c17.71-15.83,34.12-30.51,47.77-45.31c13.45-14.58,24.221-29.28,30.891-45.3c4.83-11.6,7.52-23.89,7.52-37.34    c0-2.7-0.18-5.35-0.49-7.97h46.7C443.48,192.573,449.14,195.103,453.24,199.203z" style="fill:#CAE8FB;"/>
<g>
<path d="M359.433,290.017c13.45-14.58,24.221-29.28,30.891-45.3c4.83-11.6,7.52-23.89,7.52-37.34     c0-2.7-0.18-5.35-0.49-7.97h46.7c4.512,0,8.707,1.319,12.235,3.587c-0.882-1.37-1.901-2.643-3.048-3.79     c-4.101-4.1-9.76-6.63-16.021-6.63h-46.7c0.311,2.62,0.49,5.27,0.49,7.97c0,13.45-2.689,25.74-7.52,37.34     c-6.67,16.02-17.44,30.72-30.891,45.3c-13.649,14.8-30.06,29.479-47.77,45.31h14.467     C334.082,315.228,347.768,302.665,359.433,290.017z" style="fill:#B3D7E8;"/>
<path d="M393.152,295.746c-1.436-2.121-3.27-4.052-5.366-5.729h-11.684     C381.874,290.017,388.112,292.186,393.152,295.746z" style="fill:#B3D7E8;"/>
<path d="M429.107,248.308c-0.83-1.293-1.786-2.496-2.854-3.591h-9.38     C421.384,244.716,425.579,246.041,429.107,248.308z" style="fill:#B3D7E8;"/>
</g>
<path d="M128.5,237.883c6.67,16.02,17.42,30.72,30.87,45.3c13.64,14.8,30.03,29.479,47.73,45.31h-68.9    c-6.26,0-11.92-2.53-16.02-6.63c-4.1-4.1-6.63-9.76-6.63-16.021c0-12.51,10.14-22.659,22.65-22.659h-36.24    c-6.26,0-11.92-2.54-16.02-6.63c-4.1-4.101-6.63-9.771-6.63-16.021c0-12.51,10.14-22.65,22.65-22.65H74.78    c-6.26,0-11.92-2.54-16.02-6.64c-4.1-4.1-6.64-9.76-6.64-16.02c0-12.51,10.14-22.65,22.66-22.65h46.7    c-0.31,2.62-0.49,5.27-0.49,7.97C120.99,213.993,123.68,226.283,128.5,237.883z" style="fill:#CAE8FB;"/>
<g>
<g>
<g>
<path d="M55.24,224.223c0-12.51,10.14-22.65,22.66-22.65h43.103c-0.003-0.344-0.013-0.685-0.013-1.03       c0-2.7,0.18-5.35,0.49-7.97h-46.7c-12.52,0-22.66,10.14-22.66,22.65c0,4.312,1.205,8.337,3.294,11.766       C55.304,226.082,55.24,225.16,55.24,224.223z" style="fill:#B3D7E8;"/>
</g>
</g>
</g>
<path d="M390.52,192.573c0.311,2.62,0.49,5.27,0.49,7.97c0,13.45-2.689,25.74-7.52,37.34    c-6.67,16.02-17.44,30.72-30.891,45.3c-13.649,14.8-30.06,29.479-47.77,45.31c-15.62,13.97-32.25,28.82-48.87,45.45    c-16.62-16.63-33.24-31.48-48.86-45.45c-17.7-15.83-34.09-30.51-47.73-45.31c-13.45-14.58-24.2-29.28-30.87-45.3    c-4.82-11.6-7.51-23.89-7.51-37.34c0-2.7,0.18-5.35,0.49-7.97c3.94-33.5,32.44-59.52,67-59.52c33.74,0,50.61,16.87,67.48,50.62    c16.87-33.75,33.74-50.62,67.49-50.62C358.08,133.053,386.58,159.073,390.52,192.573z" style="fill:#EF3E5C;"/>
<g>
<g>
<g>
<path d="M233.81,339.683c-17.7-15.83-34.09-30.51-47.73-45.309c-13.45-14.58-24.2-29.281-30.87-45.301       c-4.82-11.6-7.51-23.89-7.51-37.34c0-2.7,0.18-5.35,0.49-7.97c3.94-33.5,32.44-59.52,67-59.52c4.501,0,8.693,0.31,12.634,0.91       c-10.4-8.06-22.854-12.1-39.343-12.1c-34.56,0-63.06,26.02-67,59.52c-0.31,2.62-0.49,5.27-0.49,7.97       c0,13.45,2.69,25.74,7.51,37.34c6.67,16.02,17.42,30.72,30.87,45.3c13.64,14.8,30.03,29.479,47.73,45.31       c15.62,13.97,32.24,28.82,48.86,45.45c2.494-2.496,4.988-4.939,7.479-7.358C253.341,357.15,243.387,348.248,233.81,339.683z" style="fill:#E42A53;"/>
</g>
</g>
</g>
<path d="M287.714,297.243c-1.519,0-3.018-0.688-4.001-1.995c-1.659-2.208-1.215-5.342,0.992-7.002    c58.132-43.699,52.544-76.209,52.48-76.533c-0.596-2.697,1.114-5.336,3.811-5.931c2.704-0.602,5.37,1.138,5.967,3.833    c0.343,1.553,7.658,38.583-56.248,86.625C289.814,296.917,288.76,297.243,287.714,297.243z" style="fill:#E42A53;"/>
<path d="M327.95,378.943c10.01,0,18.12,8.12,18.12,18.13s-8.11,18.12-18.12,18.12    c-10.011,0-18.12-8.11-18.12-18.12S317.939,378.943,327.95,378.943z" style="fill:#F78F4B;"/>
<path d="M313.664,405.907c0-10.011,8.109-18.131,18.119-18.131c5.691,0,10.764,2.631,14.085,6.735    c-1.247-8.794-8.78-15.568-17.918-15.568c-10.011,0-18.12,8.12-18.12,18.13c0,4.318,1.515,8.277,4.034,11.39    C313.746,407.626,313.664,406.776,313.664,405.907z" style="fill:#DD773E;"/>
<path d="M215.22,97.903c-2.761,0-5-2.239-5-5v-27.19c0-2.761,2.239-5,5-5s5,2.239,5,5v27.19    C220.22,95.665,217.981,97.903,215.22,97.903z" style="fill:#E42A53;"/>
<path d="M228.82,84.313h-27.19c-2.761,0-5-2.239-5-5s2.239-5,5-5h27.19c2.761,0,5,2.239,5,5    S231.581,84.313,228.82,84.313z" style="fill:#EF3E5C;"/>
</g>
</g>
<g id="Layer_1"/>
</svg>