<?xml version="1.0" ?>
<!DOCTYPE svg  PUBLIC '-//W3C//DTD SVG 1.1//EN'  'http://www.w3.org/Graphics/SVG/1.1/DTD/svg11.dtd'>
<!-- Uploaded to: SVG Repo, www.svgrepo.com, Generator: SVG Repo Mixer Tools -->
<svg width="800px" height="800px" viewBox="0 0 512 512" version="1.1" xml:space="preserve" xmlns="http://www.w3.org/2000/svg" xmlns:xlink="http://www.w3.org/1999/xlink">
<g id="_x36_21_x2C__ticket_x2C___love_x2C__heart_x2C__wedding">
<g>
<path d="M205.94,187.13h-59.01l39.86-94.43c16.71,7.06,35.979-0.771,43.029-17.49l189.92,80.17    c-7.05,16.71,0.78,35.98,17.49,43.03l-41.41,98.09c-15.979-6.739-34.29,0.13-42.03,15.351v-55.58v-36.29    c-18.14,0-32.84-14.71-32.84-32.851H205.94z" style="fill:#415A6B;"/>
<g>
<path d="M191.791,104.43c16.71,7.061,35.979-0.77,43.029-17.489l182.599,77.079     c0.37-2.905,1.127-5.809,2.321-8.64L229.82,75.21c-7.05,16.72-26.319,24.55-43.029,17.49l-39.86,94.43h9.951L191.791,104.43z" style="fill:#304956;"/>
</g>
<path d="M205.938,192.132c-0.648,0-1.308-0.127-1.942-0.396c-2.544-1.074-3.735-4.007-2.662-6.551    l29.62-70.16c1.075-2.544,4.008-3.733,6.552-2.662c2.544,1.074,3.735,4.008,2.661,6.552l-29.62,70.16    C209.741,190.983,207.888,192.132,205.938,192.132z" style="fill:#304956;"/>
<path d="M353.788,261.271c-0.648,0-1.308-0.127-1.942-0.395c-2.544-1.074-3.736-4.007-2.662-6.552    l32.03-75.87c1.073-2.543,4.008-3.736,6.551-2.661c2.544,1.074,3.736,4.007,2.662,6.551l-32.03,75.87    C357.591,260.124,355.737,261.271,353.788,261.271z" style="fill:#304956;"/>
<circle cx="91.021" cy="105.58" r="18.12" style="fill:#EF3E5C;"/>
<path d="M77.9,116.58c0-10.01,8.11-18.12,18.12-18.12c5.127,0,9.746,2.137,13.041,5.557    c-0.793-9.275-8.559-16.557-18.041-16.557c-10.01,0-18.12,8.11-18.12,18.12c0,4.883,1.939,9.306,5.079,12.563    C77.936,117.627,77.9,117.107,77.9,116.58z" style="fill:#E42A53;"/>
<path d="M320.95,187.13c0,18.141,14.7,32.851,32.84,32.851v36.29v55.58v14.6    c-18.14,0-32.84,14.71-32.84,32.851H114.801c0-18.141-14.7-32.851-32.84-32.851V219.98c18.14,0,32.84-14.71,32.84-32.851h32.13    h59.01H320.95z M281.301,341.17v-18.119h-18.12v18.119H281.301z M281.301,223.38v-18.12h-18.12v18.12H281.301z M261.131,261.271    c0-10.91-9.681-19.771-21.65-19.771c-10.81,0-16.21,4.94-21.62,14.83c-5.399-9.89-10.81-14.83-21.62-14.83    c-11.939,0-21.619,8.86-21.619,19.771c0,19.77,21.619,31.03,43.239,50.8C239.48,292.301,261.131,281.04,261.131,261.271z     M254.121,341.17v-18.119h-18.12v18.119H254.121z M254.121,223.38v-18.12h-18.12v18.12H254.121z M226.94,341.17v-18.119h-18.13    v18.119H226.94z M226.94,223.38v-18.12h-18.13v18.12H226.94z M199.751,341.17v-18.119h-18.12v18.119H199.751z M199.751,223.38    v-18.12h-18.12v18.12H199.751z M172.57,341.17v-18.119h-18.12v18.119H172.57z M172.57,223.38v-18.12h-18.12v18.12H172.57z" style="fill:#FFC592;"/>
<g>
<path d="M91.025,228.859c18.141,0,32.84-14.71,32.84-32.851h32.13h59.011h107.168     c-0.791-2.825-1.224-5.801-1.224-8.879H205.94h-59.01h-32.13c0,18.141-14.7,32.851-32.84,32.851v106.47     c3.146,0,6.185,0.452,9.064,1.277V228.859z" style="fill:#E8AA7C;"/>
</g>
<path d="M239.48,241.5c11.97,0,21.65,8.86,21.65,19.771c0,19.77-21.65,31.03-43.271,50.8    c-21.62-19.77-43.239-31.03-43.239-50.8c0-10.91,9.68-19.771,21.619-19.771c10.811,0,16.221,4.94,21.62,14.83    C223.271,246.44,228.671,241.5,239.48,241.5z" style="fill:#EF3E5C;"/>
<g>
<g>
<g>
<path d="M187.621,264.771c0-10.774,9.445-19.533,21.18-19.75c-3.323-2.341-7.3-3.521-12.561-3.521       c-11.939,0-21.619,8.86-21.619,19.771c0,19.77,21.619,31.03,43.239,50.8c1.485-1.357,2.97-2.672,4.447-3.955       C203.887,292.667,187.621,281.917,187.621,264.771z" style="fill:#E42A53;"/>
</g>
</g>
</g>
<rect height="18.119" style="fill:#BC8057;" width="18.12" x="263.181" y="323.051"/>
<rect height="18.12" style="fill:#BC8057;" width="18.12" x="263.181" y="205.26"/>
<rect height="18.119" style="fill:#BC8057;" width="18.12" x="236.001" y="323.051"/>
<rect height="18.12" style="fill:#BC8057;" width="18.12" x="236.001" y="205.26"/>
<rect height="18.119" style="fill:#BC8057;" width="18.13" x="208.811" y="323.051"/>
<rect height="18.12" style="fill:#BC8057;" width="18.13" x="208.811" y="205.26"/>
<rect height="18.119" style="fill:#BC8057;" width="18.12" x="181.631" y="323.051"/>
<rect height="18.12" style="fill:#BC8057;" width="18.12" x="181.631" y="205.26"/>
<rect height="18.119" style="fill:#BC8057;" width="18.12" x="154.45" y="323.051"/>
<rect height="18.12" style="fill:#BC8057;" width="18.12" x="154.45" y="205.26"/>
<path d="M136.32,328.051c-2.761,0-5-2.238-5-5V223.38c0-2.761,2.239-5,5-5c2.762,0,5,2.239,5,5v99.671    C141.32,325.813,139.082,328.051,136.32,328.051z" style="fill:#BC8057;"/>
<path d="M299.431,328.051c-2.762,0-5-2.238-5-5V223.38c0-2.761,2.238-5,5-5s5,2.239,5,5v99.671    C304.431,325.813,302.192,328.051,299.431,328.051z" style="fill:#BC8057;"/>
<path d="M430.049,87.754c10.01,0,18.12,8.109,18.12,18.119c0,10.011-8.11,18.12-18.12,18.12    s-18.12-8.109-18.12-18.12C411.929,95.863,420.039,87.754,430.049,87.754z" style="fill:#EF3E5C;"/>
<path d="M416.929,116.873c0-10.01,8.11-18.119,18.12-18.119c5.127,0,9.746,2.136,13.041,5.557    c-0.793-9.276-8.559-16.557-18.041-16.557c-10.01,0-18.12,8.109-18.12,18.119c0,4.884,1.939,9.306,5.079,12.564    C416.963,117.921,416.929,117.401,416.929,116.873z" style="fill:#E42A53;"/>
<path d="M430.049,128.993c-12.748,0-23.12-10.371-23.12-23.12c0-12.748,10.372-23.119,23.12-23.119s23.12,10.371,23.12,23.119    C453.169,118.622,442.797,128.993,430.049,128.993z M430.049,92.754c-7.234,0-13.12,5.885-13.12,13.119s5.886,13.12,13.12,13.12    s13.12-5.886,13.12-13.12S437.283,92.754,430.049,92.754z"/>
<path d="M376.91,351.754c10.01,0,18.12,8.109,18.12,18.119c0,10.011-8.11,18.121-18.12,18.121    s-18.12-8.11-18.12-18.121C358.79,359.863,366.9,351.754,376.91,351.754z" style="fill:#EF3E5C;"/>
<path d="M363.79,380.873c0-10.01,8.11-18.119,18.12-18.119c5.127,0,9.746,2.137,13.041,5.557    c-0.793-9.275-8.559-16.557-18.041-16.557c-10.01,0-18.12,8.109-18.12,18.119c0,4.884,1.939,9.307,5.079,12.564    C363.824,381.921,363.79,381.401,363.79,380.873z" style="fill:#E42A53;"/>
<path d="M245.061,400.54H63.831c-2.762,0-5-2.238-5-5s2.238-5,5-5h181.229c2.762,0,5,2.238,5,5    S247.822,400.54,245.061,400.54z" style="fill:#FFC592;"/>
<path d="M335.67,436.79H226.94c-2.761,0-5-2.238-5-5s2.239-5,5-5H335.67c2.762,0,5,2.238,5,5    S338.432,436.79,335.67,436.79z" style="fill:#415A6B;"/>
</g>
</g>
<g id="Layer_1"/>
</svg>