<?xml version="1.0" ?>
<!DOCTYPE svg  PUBLIC '-//W3C//DTD SVG 1.1//EN'  'http://www.w3.org/Graphics/SVG/1.1/DTD/svg11.dtd'>
<!-- Uploaded to: SVG Repo, www.svgrepo.com, Generator: SVG Repo Mixer Tools -->
<svg width="800px" height="800px" viewBox="0 0 512 512" version="1.1" xml:space="preserve" xmlns="http://www.w3.org/2000/svg" xmlns:xlink="http://www.w3.org/1999/xlink">
<g id="_x35_46_x2C__trolly_x2C__love_x2C__weding_x2C__heart">
<g>
<path d="M388.181,192.987h-62.64h-44.744h-35.789H137.624v26.743v26.752v9.052v17.692v26.742v44.582    h171.812h35.787h37.083l24.115-53.339L450.82,190.51L388.181,192.987z" style="fill:#DADCEC;"/>
<path d="M138.67,198.51c-2.762,0-5-2.238-5-5v-42.362l-67.436-25.449c-2.584-0.975-3.888-3.859-2.912-6.443    c0.975-2.583,3.858-3.891,6.443-2.912l70.67,26.67c1.946,0.734,3.234,2.597,3.234,4.678v45.819    C143.67,196.271,141.431,198.51,138.67,198.51z" style="fill:#B0B7DC;"/>
<path d="M133.67,222.69H61.18c-2.761,0-5-2.239-5-5c0-2.762,2.239-5,5-5h72.49c2.761,0,5,2.238,5,5    C138.67,220.451,136.431,222.69,133.67,222.69z" style="fill:#B0B7DC;"/>
<path d="M133.67,249.88H70.25c-2.762,0-5-2.238-5-5c0-2.761,2.238-5,5-5h63.42c2.761,0,5,2.239,5,5    C138.67,247.642,136.431,249.88,133.67,249.88z" style="fill:#B0B7DC;"/>
<path d="M133.67,277.061H79.31c-2.761,0-5-2.238-5-5s2.239-5,5-5h54.36c2.761,0,5,2.238,5,5    S136.431,277.061,133.67,277.061z" style="fill:#B0B7DC;"/>
<path d="M133.67,304.24h-45.3c-2.762,0-5-2.238-5-5s2.238-5,5-5h45.3c2.761,0,5,2.238,5,5    S136.431,304.24,133.67,304.24z" style="fill:#B0B7DC;"/>
<path d="M432.93,384.33H361.8c-2.762,0-5-2.238-5-5s2.238-5,5-5h71.13c2.762,0,5,2.238,5,5    S435.691,384.33,432.93,384.33z" style="fill:#B0B7DC;"/>
<path d="M325.06,384.33H216.27c-2.761,0-5-2.238-5-5s2.239-5,5-5h108.79c2.762,0,5,2.238,5,5    S327.821,384.33,325.06,384.33z" style="fill:#B0B7DC;"/>
<path d="M179.52,384.33h-64.8c-2.761,0-5-2.238-5-5v-39.779c0-2.762,2.239-5,5-5h20.95c2.761,0,5,2.238,5,5    s-2.239,5-5,5h-15.95v29.779h59.8c2.762,0,5,2.238,5,5S182.281,384.33,179.52,384.33z" style="fill:#B0B7DC;"/>
<polygon points="387.39,72.71 387.39,190.51 323.96,190.51 323.96,108.96 323.96,72.71   " style="fill:#8EAA39;"/>
<polygon points="332.627,119.96 332.627,83.71 387.39,83.71 387.39,72.71 323.96,72.71 323.96,108.96     323.96,190.51 332.627,190.51   " style="fill:#859B32;"/>
<polygon points="278.65,190.51 242.41,190.51 242.41,108.96 323.96,108.96 323.96,190.51   " style="fill:#FFD15C;"/>
<polygon points="254.077,118.794 323.96,118.794 323.96,108.96 242.41,108.96 242.41,190.51     254.077,190.51   " style="fill:#EDBC4F;"/>
<path d="M278.65,195.51c-2.762,0-5-2.238-5-5V145.2c0-2.762,2.238-5,5-5s5,2.238,5,5v45.31    C283.65,193.271,281.412,195.51,278.65,195.51z" style="fill:#EDBC4F;"/>
<polygon points="387.39,190.51 323.96,190.51 278.65,190.51 242.41,190.51 133.67,190.51 133.67,217.69     133.67,244.88 133.67,254.08 133.67,272.061 133.67,299.24 133.67,344.551 144.074,344.551 144.074,308.771 144.074,281.591     144.074,263.61 144.074,254.41 144.074,227.221 144.074,200.04 252.814,200.04 289.055,200.04 334.364,200.04 397.794,200.04     446.528,200.04 450.82,190.51   " style="fill:#B0B7DC;"/>
<path d="M237.859,226.75c12.53,0,22.671,10.24,22.671,22.85c0,22.851-22.671,35.86-45.32,58.711    c-22.641-22.851-45.29-35.86-45.29-58.711c0-12.609,10.14-22.85,22.649-22.85c11.32,0,16.98,5.72,22.641,17.14    C220.87,232.47,226.529,226.75,237.859,226.75z" style="fill:#EF3E5C;"/>
<g>
<g>
<g>
<path d="M182.52,254.13c0-12.609,10.141-22.85,22.65-22.85c0.399,0,0.776,0.023,1.162,0.038       c-3.603-3.036-7.928-4.568-13.763-4.568c-12.51,0-22.649,10.24-22.649,22.85c0,22.851,22.649,35.86,45.29,58.711       c1.303-1.314,2.605-2.593,3.904-3.846C199.714,286.479,182.52,274.039,182.52,254.13z" style="fill:#E42A53;"/>
</g>
</g>
</g>
<path d="M419.326,261.94l4.395-9.966c-0.115-0.008-0.225-0.034-0.341-0.034h-22.854l9.274-20.095    c1.157-2.507,0.063-5.478-2.444-6.635c-2.509-1.16-5.478-0.063-6.636,2.444l-11.209,24.285h-25.226l9.274-20.095    c1.157-2.507,0.063-5.478-2.444-6.635c-2.509-1.16-5.479-0.063-6.636,2.444l-11.209,24.285h-24.12c-2.762,0-5,2.238-5,5    c0,2.761,2.238,5,5,5h19.505l-12.11,26.24H321.9c-2.762,0-5,2.238-5,5s2.238,5,5,5h10.029l-21.401,46.37h11.014l21.401-46.37    h25.226l-21.401,46.37h11.014l21.401-46.37h24.087l3.151-6.969l1.336-3.031h-23.958l12.11-26.24H419.326z M372.784,288.181    h-25.226l12.111-26.24h25.226L372.784,288.181z" style="fill:#B0B7DC;"/>
<path d="M216.27,369.33c10,6.17,16.66,17.221,16.66,29.83c0,19.351-15.689,35.04-35.04,35.04    c-19.35,0-35.03-15.689-35.03-35.04c0-12.609,6.66-23.66,16.66-29.83c5.34-3.3,11.63-5.21,18.37-5.21S210.92,366.03,216.27,369.33    z M205.75,399.16c0-2.83-1.5-5.3-3.74-6.689c-1.2-0.74-2.61-1.16-4.12-1.16s-2.92,0.42-4.11,1.16    c-2.239,1.39-3.739,3.859-3.739,6.689c0,4.34,3.52,7.851,7.85,7.851C202.229,407.011,205.75,403.5,205.75,399.16z" style="fill:#415A6B;"/>
<g>
<path d="M169.359,409.37c0-12.609,6.66-23.66,16.66-29.83c5.34-3.3,11.63-5.21,18.37-5.21     s13.03,1.91,18.38,5.21c2.798,1.727,5.322,3.846,7.524,6.264c-2.831-6.856-7.775-12.618-14.024-16.474     c-5.35-3.3-11.64-5.21-18.38-5.21s-13.03,1.91-18.37,5.21c-10,6.17-16.66,17.221-16.66,29.83c0,9.105,3.474,17.399,9.167,23.63     C170.311,418.656,169.359,414.125,169.359,409.37z" style="fill:#344D5B;"/>
</g>
<path d="M361.8,369.33c10,6.17,16.67,17.221,16.67,29.83c0,19.351-15.689,35.04-35.04,35.04    c-19.35,0-35.04-15.689-35.04-35.04c0-12.609,6.67-23.66,16.67-29.83c5.341-3.3,11.631-5.21,18.37-5.21    C350.17,364.12,356.46,366.03,361.8,369.33z M351.28,399.16c0-2.83-1.49-5.3-3.73-6.689c-1.2-0.74-2.609-1.16-4.12-1.16    c-1.51,0-2.92,0.42-4.12,1.16c-2.239,1.39-3.729,3.859-3.729,6.689c0,4.34,3.51,7.851,7.85,7.851S351.28,403.5,351.28,399.16z" style="fill:#415A6B;"/>
<g>
<path d="M316.24,411.41c0-12.609,6.67-23.66,16.67-29.83c5.341-3.3,11.631-5.21,18.37-5.21     c6.74,0,13.03,1.91,18.37,5.21c2.396,1.478,4.593,3.243,6.561,5.235c-2.754-7.298-7.859-13.443-14.411-17.485     c-5.34-3.3-11.63-5.21-18.37-5.21c-6.739,0-13.029,1.91-18.37,5.21c-10,6.17-16.67,17.221-16.67,29.83     c0,9.588,3.855,18.274,10.097,24.602C317.038,419.919,316.24,415.759,316.24,411.41z" style="fill:#344D5B;"/>
</g>
<path d="M347.55,392.471c2.24,1.39,3.73,3.859,3.73,6.689c0,4.34-3.511,7.851-7.851,7.851    s-7.85-3.511-7.85-7.851c0-2.83,1.49-5.3,3.729-6.689c1.2-0.74,2.61-1.16,4.12-1.16C344.94,391.311,346.35,391.73,347.55,392.471z    " style="fill:#344D5B;"/>
<path d="M202.01,392.471c2.24,1.39,3.74,3.859,3.74,6.689c0,4.34-3.521,7.851-7.86,7.851    c-4.33,0-7.85-3.511-7.85-7.851c0-2.83,1.5-5.3,3.739-6.689c1.19-0.74,2.601-1.16,4.11-1.16S200.81,391.73,202.01,392.471z" style="fill:#344D5B;"/>
<path d="M450.82,439.29H82.88c-2.762,0-5-2.238-5-5s2.238-5,5-5h367.94c2.762,0,5,2.238,5,5    S453.582,439.29,450.82,439.29z" style="fill:#B0B7DC;"/>
</g>
</g>
<g id="Layer_1"/>
</svg>