<?xml version="1.0" ?>
<!DOCTYPE svg  PUBLIC '-//W3C//DTD SVG 1.1//EN'  'http://www.w3.org/Graphics/SVG/1.1/DTD/svg11.dtd'>
<!-- Uploaded to: SVG Repo, www.svgrepo.com, Generator: SVG Repo Mixer Tools -->
<svg width="800px" height="800px" viewBox="0 0 512 512" version="1.1" xml:space="preserve" xmlns="http://www.w3.org/2000/svg" xmlns:xlink="http://www.w3.org/1999/xlink">
<g id="_x35_98_x2C__dinner_x2C__lunch_x2C__romantic_x2C__love_x2C__valentine">
<g>
<path d="M310.37,254.722c-2.762,0-5-2.238-5-5v-45.31c0-2.762,2.238-5,5-5s5,2.238,5,5v45.31    C315.37,252.483,313.132,254.722,310.37,254.722z" style="fill:#E3C6D3;"/>
<path d="M201.63,254.722c-2.761,0-5-2.238-5-5v-45.31c0-2.762,2.239-5,5-5s5,2.238,5,5v45.31    C206.63,252.483,204.391,254.722,201.63,254.722z" style="fill:#55C0EB;"/>
<rect height="90.62" style="fill:#743629;" width="36.24" x="147.27" y="358.452"/>
<polygon points="154.354,366.369 183.51,366.369 183.51,358.452 147.27,358.452 147.27,449.072     154.354,449.072   " style="fill:#632B22;"/>
<polygon points="183.51,317.682 183.51,358.452 147.27,358.452 83.84,358.452 83.84,449.072 47.59,449.072     47.59,358.452 47.59,317.682 47.59,222.542 83.84,222.542 83.84,317.682   " style="fill:#924B35;"/>
<g>
<g>
<g>
<polygon points="55.84,366.702 55.84,325.932 55.84,230.792 83.84,230.792 83.84,222.542 47.59,222.542        47.59,317.682 47.59,358.452 47.59,449.072 55.84,449.072      " style="fill:#743629;"/>
</g>
</g>
</g>
<path d="M111.02,95.682c10.01,0,18.12,8.11,18.12,18.12s-8.11,18.12-18.12,18.12    c-10.01,0-18.12-8.11-18.12-18.12S101.01,95.682,111.02,95.682z" style="fill:#EF3E5C;"/>
<path d="M97.43,123.968c0-10.01,8.11-18.119,18.12-18.119c5.366,0,10.171,2.345,13.489,6.049    c-0.952-9.114-8.652-16.216-18.019-16.216c-10.01,0-18.12,8.11-18.12,18.12c0,4.644,1.76,8.865,4.631,12.071    C97.466,125.246,97.43,124.611,97.43,123.968z" style="fill:#E42A53;"/>
<path d="M283.18,159.111v-27.189h54.37v45.31c0,15.011-12.17,27.181-27.18,27.181    c-15.021,0-27.19-12.17-27.19-27.181V159.111z" style="fill:#E3C6D3;"/>
<path d="M292.93,186.297v-18.12v-27.19h44.62v-9.064h-54.37v27.189v18.12    c0,10.275,5.705,19.218,14.121,23.838C294.539,196.815,292.93,191.745,292.93,186.297z" style="fill:#C9ADBC;"/>
<path d="M174.45,159.111v-27.189h54.37v45.31c0,15.011-12.17,27.181-27.19,27.181    c-15.01,0-27.18-12.17-27.18-27.181V159.111z" style="fill:#55C0EB;"/>
<path d="M183.51,186.297v-18.12v-27.19h45.31v-9.064h-54.37v27.189v18.12    c0,9.824,5.214,18.431,13.025,23.206C184.96,196.317,183.51,191.477,183.51,186.297z" style="fill:#4AB3D3;"/>
<rect height="163.11" style="fill:#EFA873;" width="36.24" x="237.88" y="285.962"/>
<polygon points="246.63,295.462 274.12,295.462 274.12,285.962 237.88,285.962 237.88,449.072     246.63,449.072   " style="fill:#D39266;"/>
<polygon points="364.73,249.722 364.73,285.962 274.12,285.962 237.88,285.962 147.27,285.962     147.27,249.722 201.63,249.722 310.37,249.722   " style="fill:#FFC592;"/>
<polygon points="155.52,258.222 209.88,258.222 318.62,258.222 364.73,258.222 364.73,249.722     310.37,249.722 201.63,249.722 147.27,249.722 147.27,285.962 155.52,285.962   " style="fill:#EFA873;"/>
<rect height="90.62" style="fill:#743629;" width="36.24" x="328.49" y="358.452"/>
<polygon points="336.323,366.785 364.73,366.785 364.73,358.452 328.49,358.452 328.49,449.072     336.323,449.072   " style="fill:#632B22;"/>
<polygon points="464.41,358.452 464.41,449.072 428.16,449.072 428.16,358.452 364.73,358.452     328.49,358.452 328.49,317.682 428.16,317.682 428.16,222.542 464.41,222.542 464.41,317.682   " style="fill:#924B35;"/>
<g>
<g>
<g>
<polygon points="338.823,327.591 438.493,327.591 438.493,232.451 464.41,232.451 464.41,222.542        428.16,222.542 428.16,317.682 328.49,317.682 328.49,358.452 338.823,358.452      " style="fill:#743629;"/>
</g>
</g>
</g>
<path d="M318.965,164.111h-27.189c-2.762,0-5-2.238-5-5c0-2.761,2.238-5,5-5h27.189c2.762,0,5,2.239,5,5    C323.965,161.873,321.727,164.111,318.965,164.111z" style="fill:#C9ADBC;"/>
<path d="M206.63,164.111h-27.18c-2.761,0-5-2.238-5-5c0-2.761,2.239-5,5-5h27.18c2.761,0,5,2.239,5,5    C211.63,161.873,209.391,164.111,206.63,164.111z" style="fill:#4AB3D3;"/>
<circle cx="247.02" cy="81.048" r="18.12" style="fill:#EF3E5C;"/>
<path d="M233.43,91.214c0-10.01,8.11-18.119,18.12-18.119c5.366,0,10.171,2.345,13.489,6.049    c-0.951-9.114-8.652-16.216-18.019-16.216c-10.01,0-18.12,8.11-18.12,18.12c0,4.644,1.76,8.865,4.631,12.071    C233.466,92.492,233.43,91.857,233.43,91.214z" style="fill:#E42A53;"/>
<circle cx="387.85" cy="156.546" r="18.12" style="fill:#EF3E5C;"/>
<path d="M374.26,166.712c0-10.01,8.109-18.119,18.12-18.119c5.366,0,10.171,2.345,13.489,6.049    c-0.951-9.114-8.652-16.216-18.02-16.216c-10.01,0-18.119,8.11-18.119,18.12c0,4.644,1.76,8.865,4.631,12.071    C374.296,167.99,374.26,167.355,374.26,166.712z" style="fill:#E42A53;"/>
</g>
</g>
<g id="Layer_1"/>
</svg>