<?xml version="1.0" ?>
<!-- Uploaded to: SVG Repo, www.svgrepo.com, Generator: SVG Repo Mixer Tools -->
<svg width="800px" height="800px" viewBox="-16.32 0 368.09 368.09" xmlns="http://www.w3.org/2000/svg">
<defs>
<style>.cls-1{fill:#ffffff;}.cls-2{fill:#e5e5e5;}.cls-3{fill:#426572;}.cls-4{fill:#fbc907;}.cls-5{fill:#f3a70f;}.cls-6{fill:#f9f9f9;}.cls-7{opacity:0.5;}.cls-8{fill:#7490a8;}</style>
</defs>
<title/>
<g data-name="Layer 2" id="Layer_2">
<g data-name="Layer 1" id="Layer_1-2">
<rect class="cls-1" height="350" rx="36.38" ry="36.38" width="265" x="7.92" y="12.18"/>
<path class="cls-2" d="M5.18,326.17V304A37.59,37.59,0,0,0,42.77,341.6h195A37.59,37.59,0,0,0,275.33,304v22.15a37.59,37.59,0,0,1-37.59,37.59h-195A37.59,37.59,0,0,1,5.18,326.17Z"/>
<path class="cls-3" d="M238.56,368.09h-195A43.64,43.64,0,0,1,0,324.51V43.59A43.64,43.64,0,0,1,43.59,0h195a43.64,43.64,0,0,1,43.59,43.59V123h-12V43.59A31.62,31.62,0,0,0,238.56,12h-195A31.62,31.62,0,0,0,12,43.59V324.51a31.62,31.62,0,0,0,31.59,31.59h195a31.62,31.62,0,0,0,31.59-31.59V279.93h12v44.58A43.64,43.64,0,0,1,238.56,368.09Z"/>
<path class="cls-3" d="M60.84,112.86V93.34q0-9,4.9-13.18T78.52,76q8.1,0,13.29,3.9A12.71,12.71,0,0,1,97,90.62q0,3.17-1.33,4.31t-4.42,1.14q-5.67,0-5.74-3.46a17.2,17.2,0,0,0-.07-1.73A7.83,7.83,0,0,0,85,89.15a3.86,3.86,0,0,0-1-1.62,6.22,6.22,0,0,0-2-1.07A8.77,8.77,0,0,0,79,86q-6.63,0-6.63,7.36v19.51q0,7.37,6.55,7.36t6.63-7.36v-2.5H81.17a3,3,0,0,1-2.54-1.29,5.56,5.56,0,0,1,0-6.19,2.93,2.93,0,0,1,2.5-1.36H93.54a3.18,3.18,0,0,1,2.54,1.07,3.76,3.76,0,0,1,.92,2.54v7.73q0,9-4.93,13.18t-13.18,4.2q-8.17,0-13.11-4.2T60.84,112.86Z"/>
<path class="cls-3" d="M103.63,126.34V79.43A3,3,0,0,1,105,77a5.92,5.92,0,0,1,3.61-1h13q8.25,0,13.18,4.2t4.93,13.18v19.07q0,9-4.93,13.18t-13.18,4.2h-13a5.92,5.92,0,0,1-3.61-1A3,3,0,0,1,103.63,126.34Zm11.49-6.55h6.55q6.63,0,6.63-7.36V93.34q0-7.36-6.63-7.36h-6.55Z"/>
<path class="cls-3" d="M147.08,126.26V79.43A3.14,3.14,0,0,1,148.25,77a4.52,4.52,0,0,1,3.09-1h15.24q7.88,0,12.63,4.09T184,92.9v.37q0,8.76-5,12.92t-13.15,4.16h-7.29v15.91a2.86,2.86,0,0,1-1.69,2.61,9.37,9.37,0,0,1-8.1,0A2.86,2.86,0,0,1,147.08,126.26Zm11.49-24.74h7.29q6.63,0,6.63-7.36v-.81q0-7.36-6.63-7.36h-7.29Z"/>
<path class="cls-3" d="M189,126.26V79.43A3.46,3.46,0,0,1,192.51,76h15.24q18.12,0,18.12,15.76,0,11.49-8.91,14.95l9,16.27a2.23,2.23,0,0,1,.37,1.33,5.35,5.35,0,0,1-2.32,4.05,7.58,7.58,0,0,1-4.9,1.91,3.82,3.82,0,0,1-3.68-2.13l-10.09-19.59h-4.86v17.75a2.86,2.86,0,0,1-1.69,2.61,9.37,9.37,0,0,1-8.1,0A2.86,2.86,0,0,1,189,126.26Zm11.49-26.58h7.29a7,7,0,0,0,4.93-1.58q1.69-1.58,1.69-5.27t-1.69-5.26A7,7,0,0,0,207.75,86h-7.29Z"/>
<rect class="cls-3" height="12" width="92" x="57.46" y="162.43"/>
<rect class="cls-3" height="12" width="92" x="57.46" y="191.39"/>
<rect class="cls-3" height="12" width="92" x="57.46" y="220.36"/>
<path class="cls-4" d="M276.81,269.38s52.64-26.32,52.64-65.8V150.95l-52.64-13.16-52.64,13.16v52.64C224.18,243.06,276.81,269.38,276.81,269.38Z"/>
<path class="cls-5" d="M329.45,178.58v22c0,39.48-52.64,65.8-52.64,65.8s-52.63-26.32-52.63-65.8v-22c0,39.48,52.63,65.8,52.63,65.8S329.45,218.06,329.45,178.58Z"/>
<path class="cls-3" d="M276.81,272.65l-2.68-1.34c-2.28-1.14-56-28.47-56-71.16V142.83l58.64-14.66,58.64,14.66v57.32c0,42.7-53.67,70-56,71.16ZM230.18,152.2v48c0,30.5,36.33,53.16,46.63,59,10.29-5.82,46.64-28.55,46.64-59v-48l-46.64-11.66Z"/>
<path class="cls-6" d="M250.25,163.07l15.5-3L276.4,158c1.16-.22,2.37-.37,3.51-.68,1.79-.48,1,.38-.17-.23,1.58.86,3.93,1.11,5.65,1.59l10.74,3,15.52,4.37c3.72,1,5.31-4.74,1.6-5.79l-16-4.5c-5.1-1.43-10.73-3.92-16-4.5-5-.55-11.25,1.87-16.13,2.81l-16.47,3.19c-3.79.73-2.18,6.52,1.6,5.79Z"/>
<g class="cls-7">
<path class="cls-8" d="M38,35.95H72.77c3.86,0,3.87-6,0-6H38c-3.86,0-3.87,6,0,6Z"/>
<path class="cls-8" d="M87.17,35.95h86.34c3.86,0,3.87-6,0-6H87.17c-3.86,0-3.87,6,0,6Z"/>
</g>
</g>
</g>
</svg>