<?xml version="1.0" encoding="utf-8"?>
<!-- Uploaded to: SVG Repo, www.svgrepo.com, Generator: SVG Repo Mixer Tools -->
<svg width="800px" height="800px" viewBox="0 0 1024 1024" class="icon"  version="1.1" xmlns="http://www.w3.org/2000/svg"><path d="M512 32C246.912 32 32 246.912 32 512s214.912 480 480 480 480-214.912 480-480S777.088 32 512 32z m0 672a192 192 0 0 1 0-384 192 192 0 0 1 0 384z" fill="#EACA44" /><path d="M1021.856 469.312C1000.096 206.56 780.384 0 512 0 229.216 0 0 229.216 0 512a32 32 0 1 0 64 0h32v64a32 32 0 1 0 64 0v-64h32a32 32 0 1 0 64 0h32v64a32 32 0 1 0 64 0v-64c0-88.384 71.616-160 160-160s160 71.616 160 160a32 32 0 1 0 64 0h32v64a32 32 0 1 0 64 0v-64h32a32 32 0 1 0 64 0h32v64a32 32 0 1 0 64 0v-96a31.328 31.328 0 0 0-2.144-10.688z" fill="#4F3923" /><path d="M512 864c-191.776 0-361.184-94.08-465.888-238.208C97.312 835.84 286.176 992 512 992s414.688-156.16 465.888-366.208C873.184 769.92 703.776 864 512 864z" fill="" /><path d="M512 288a192 192 0 0 0-192 192c0 38.144 11.296 73.664 30.464 103.52 0.64-2.464 1.536-4.832 1.536-7.52v-64c0-88.384 71.616-160 160-160s160 71.616 160 160a31.68 31.68 0 0 0 21.6 29.92A190.752 190.752 0 0 0 704 480a192 192 0 0 0-192-192z" fill="" /><path d="M512 176a16 16 0 0 1-32 0v-64a16 16 0 0 1 32 0v64zM96 432a16 16 0 0 1-32 0v-64a16 16 0 0 1 32 0v64z" fill="#84BF56" /><path d="M896 400a16 16 0 0 1-32 0v-64a16 16 0 0 1 32 0v64z" fill="#EF4D4D" /><path d="M624 256a16 16 0 0 1 0-32h64a16 16 0 0 1 0 32h-64zM144 256a16 16 0 0 1 0-32h64a16 16 0 0 1 0 32h-64z" fill="#469FCC" /><path d="M772.672 305.952a16 16 0 0 1-22.624-22.624l45.248-45.248a16 16 0 0 1 22.624 22.624l-45.248 45.248z" fill="#84BF56" /><path d="M366.048 283.328a16 16 0 0 1-22.624-22.624l45.248-45.248a16 16 0 0 1 22.624 22.624l-45.248 45.248zM680.576 113.952a16 16 0 0 1-22.624 22.624l-45.248-45.248a16 16 0 0 1 22.624-22.624l45.248 45.248z" fill="#EF4D4D" /><path d="M347.328 132.672a16 16 0 0 1-22.624 22.624L279.424 110.048a16 16 0 0 1 22.624-22.624l45.28 45.248zM283.328 388.672a16 16 0 0 1-22.624 22.624l-45.248-45.248a16 16 0 0 1 22.624-22.624l45.248 45.248z" fill="#EACF60" /><path d="M528 752m-16 0a16 16 0 1 0 32 0 16 16 0 1 0-32 0Z" fill="#FFFFFF" /><path d="M688 784m-16 0a16 16 0 1 0 32 0 16 16 0 1 0-32 0Z" fill="#FFFFFF" /><path d="M848 688m-16 0a16 16 0 1 0 32 0 16 16 0 1 0-32 0Z" fill="#FFFFFF" /><path d="M752 656m-16 0a16 16 0 1 0 32 0 16 16 0 1 0-32 0Z" fill="#FFFFFF" /><path d="M464 880m-16 0a16 16 0 1 0 32 0 16 16 0 1 0-32 0Z" fill="#FFFFFF" /><path d="M656 912m-16 0a16 16 0 1 0 32 0 16 16 0 1 0-32 0Z" fill="#FFFFFF" /><path d="M208 688m-16 0a16 16 0 1 0 32 0 16 16 0 1 0-32 0Z" fill="#FFFFFF" /><path d="M336 816m-16 0a16 16 0 1 0 32 0 16 16 0 1 0-32 0Z" fill="#FFFFFF" /><path d="M304 688m-16 0a16 16 0 1 0 32 0 16 16 0 1 0-32 0Z" fill="#FFFFFF" /></svg>