<?xml version="1.0" encoding="utf-8"?>
<!-- Uploaded to: SVG Repo, www.svgrepo.com, Generator: SVG Repo Mixer Tools -->
<svg width="800px" height="800px" viewBox="0 0 1024 1024" class="icon"  version="1.1" xmlns="http://www.w3.org/2000/svg"><path d="M1023.392041 511.600397c0-47.651692-17.493608-91.209816-46.244528-124.725905a190.830635 190.830635 0 0 0-22.322739-131.122105 190.830635 190.830635 0 0 0-102.435147-84.909558 190.67073 190.67073 0 0 0-84.877577-102.339204 190.926578 190.926578 0 0 0-131.154086-22.35472 190.894597 190.894597 0 0 0-124.693924-46.148585 190.862616 190.862616 0 0 0-124.757886 46.212547 190.798654 190.798654 0 0 0-131.090125 22.35472 190.510825 190.510825 0 0 0-84.941539 102.371185 190.734692 190.734692 0 0 0-102.339204 84.909558 190.606768 190.606768 0 0 0-22.322739 131.122105A190.606768 190.606768 0 0 0 0 511.69634c0 47.651692 17.461627 91.177835 46.212547 124.725905a190.734692 190.734692 0 0 0 22.35472 131.122106 190.862616 190.862616 0 0 0 102.371185 84.877577 190.734692 190.734692 0 0 0 84.941539 102.371185 190.99054 190.99054 0 0 0 131.122106 22.322739 190.766673 190.766673 0 0 0 124.725905 46.180566c47.651692 0 91.177835-17.461627 124.693924-46.212547a190.798654 190.798654 0 0 0 131.154086-22.35472 190.798654 190.798654 0 0 0 84.877577-102.403166 190.542806 190.542806 0 0 0 102.371185-84.909558 190.830635 190.830635 0 0 0 22.322739-131.186068A190.574787 190.574787 0 0 0 1023.392041 511.600397z m-511.69602 191.886008a191.886008 191.886008 0 0 1 0-383.772015 191.886008 191.886008 0 0 1 0 383.772015z" fill="#EF4D4D" /><path d="M978.810525 691.909283C862.143833 816.923017 696.226398 895.404394 511.696021 895.404394S161.280189 816.954998 44.613497 691.973245c2.462537 23.506036 9.210528 46.788205 20.851613 68.887076 2.142727 3.805739 4.221492 7.707421 6.460162 11.48118a191.118464 191.118464 0 0 0 99.045161 80.144389 190.606768 190.606768 0 0 0 89.546803 104.481931 190.798654 190.798654 0 0 0 126.516842 20.211993 190.414882 190.414882 0 0 0 123.542608 46.052642l1.119335 0.063962 1.343202-0.063962a190.958559 190.958559 0 0 0 123.414684-46.084623c41.863131 7.835345 86.348703 1.567069 126.452879-20.211993 2.846309-1.59905 5.724599-3.1981 8.538927-4.861112a190.606768 190.606768 0 0 0 81.039857-99.684781 190.574787 190.574787 0 0 0 99.077142-80.208351c2.206689-3.741777 4.285454-7.579497 6.396201-11.385237 11.641084-22.066891 18.389076-45.317079 20.851612-68.887076zM511.696021 319.746371a191.790065 191.790065 0 0 1 189.007717 159.905006c1.758955-10.425806 2.87829-21.043499 2.87829-31.981001a191.886008 191.886008 0 0 0-383.772015 0c0 10.937502 1.119335 21.555195 2.87829 31.981001a191.822046 191.822046 0 0 1 189.007718-159.905006z" fill="" /><path d="M879.477535 287.765369a15.990501 15.990501 0 0 0-15.9905 15.990501v63.962003a15.990501 15.990501 0 0 0 31.981001 0v-63.962003a15.990501 15.990501 0 0 0-15.990501-15.990501zM671.601027 271.774869a15.990501 15.990501 0 0 0-15.990501-15.990501h-63.962002a15.990501 15.990501 0 0 0 0 31.981001h63.962002a15.990501 15.990501 0 0 0 15.990501-15.9905zM719.572529 863.423393h-63.962003a15.990501 15.990501 0 0 0 0 31.981001h63.962003a15.990501 15.990501 0 0 0 0-31.981001zM751.55353 575.594381a15.990501 15.990501 0 0 0-15.9905 15.990501v63.962002a15.990501 15.990501 0 0 0 31.981001 0v-63.962002a15.990501 15.990501 0 0 0-15.990501-15.990501zM143.914506 639.524403a15.990501 15.990501 0 0 0-15.990501 15.9905v63.962003a15.990501 15.990501 0 0 0 31.981001 0v-63.962003a15.990501 15.990501 0 0 0-15.9905-15.9905zM431.743517 735.499387h-63.962002a15.990501 15.990501 0 0 0 0 31.981002h63.962002a15.990501 15.990501 0 0 0 0-31.981002zM383.772015 143.850864a15.990501 15.990501 0 0 0-15.9905-15.990501h-63.962003a15.990501 15.990501 0 0 0 0 31.981001h63.962003a15.990501 15.990501 0 0 0 15.9905-15.9905zM271.838511 351.727372a15.990501 15.990501 0 0 0-15.990501 15.990501v63.962002a15.990501 15.990501 0 0 0 31.981002 0v-63.962002a15.990501 15.990501 0 0 0-15.990501-15.990501z" fill="#4F3923" /><path d="M511.696021 143.850864a15.990501 15.990501 0 0 0-31.981002 0v63.962002a15.990501 15.990501 0 0 0 31.981002 0v-63.962002zM762.299147 302.412668l-45.221136 45.221136a15.990501 15.990501 0 0 0 22.610568 22.610568l45.221136-45.221136a15.990501 15.990501 0 0 0-22.610568-22.610568zM698.017334 176.919219a15.990501 15.990501 0 0 0 22.610568-22.610568l-45.221136-45.221136a15.990501 15.990501 0 0 0-22.610568 22.610568l45.221136 45.221136zM895.468036 495.641878a15.990501 15.990501 0 0 0-15.990501-15.990501h-63.962002a15.990501 15.990501 0 0 0 0 31.981001h63.962002a15.990501 15.990501 0 0 0 15.990501-15.9905zM675.726576 717.014369a15.990501 15.990501 0 0 0-22.610568 22.610568l45.221136 45.221135a15.990501 15.990501 0 0 0 22.610568-22.610568l-45.221136-45.221135zM914.272865 652.764537a15.990501 15.990501 0 0 0-22.610568 0l-45.221136 45.221136a15.990501 15.990501 0 0 0 22.610568 22.610568l45.221136-45.221136a15.990501 15.990501 0 0 0 0-22.610568zM527.686521 799.46139a15.990501 15.990501 0 0 0-15.9905 15.990501v63.962002a15.990501 15.990501 0 0 0 31.981001 0v-63.962002a15.990501 15.990501 0 0 0-15.990501-15.990501zM306.31403 653.052366a15.990501 15.990501 0 0 0-22.610568 0l-45.221135 45.221136a15.990501 15.990501 0 0 0 22.610568 22.610568l45.221135-45.221136a15.990501 15.990501 0 0 0 0-22.610568zM325.374707 846.377519a15.990501 15.990501 0 0 0-22.610568 22.610568l45.221136 45.221136a15.990501 15.990501 0 0 0 22.610568-22.610568l-45.221136-45.221136zM207.876508 511.632378h-63.962002a15.990501 15.990501 0 0 0 0 31.981002h63.962002a15.990501 15.990501 0 0 0 0-31.981002zM347.665465 306.282369a15.990501 15.990501 0 0 0 22.610568-22.610568l-45.221136-45.221136a15.990501 15.990501 0 0 0-22.610568 22.610568l45.221136 45.221136zM176.95088 325.311065a15.990501 15.990501 0 0 0-22.610568-22.610568L109.119176 347.921633a15.990501 15.990501 0 0 0 22.610568 22.610568l45.221136-45.221136z" fill="#EACA44" /></svg>