<?xml version="1.0" ?><!-- Uploaded to: SVG Repo, www.svgrepo.com, Generator: SVG Repo Mixer Tools -->
<svg width="800px" height="800px" viewBox="0 0 2050 2050" data-name="Layer 2" id="Layer_2" xmlns="http://www.w3.org/2000/svg"><defs><style>.cls-1{fill:#c8c2e9;}.cls-2{fill:#b9b1e0;}.cls-3{fill:#84b320;}.cls-4{fill:#de3226;}.cls-5{fill:#67baeb;}.cls-6{fill:#f4c23f;}.cls-7{fill:#4b7d27;}.cls-8{fill:#b11a31;}.cls-9{fill:#46a1f8;}.cls-10{fill:#f4a93f;}.cls-11{fill:#ffffff;}.cls-12{fill:#bed5eb;}.cls-13{fill:#4d4c78;}.cls-14{fill:#323150;}.cls-15{fill:#64639c;}.cls-16{fill:#fad564;}.cls-17{fill:#bddd2a;}.cls-18{fill:#f44533;}.cls-19{fill:#dfdafd;}</style></defs><title/><path class="cls-1" d="M1704,510.5h0a873.5,873.5,0,0,0-116.4-119.1,531.2,531.2,0,0,0-314.8-105.4c-296.1-1.8-536.1,236.5-536.1,532.7v5.9c1.2,114.6-45.3,224.9-130.6,301.4a450.4,450.4,0,0,0-150.3,336.5c0,141.3,64.9,267.5,166.5,350.4,180.7,129.5,382.5,102.6,408.7,102.6,477,0,863.6-386.7,863.6-863.7A860,860,0,0,0,1704,510.5Z"/><path class="cls-2" d="M1064.1,1301.7l38.5-45.1h.8c-43.6,81.4,32.7,190.3,180.8,215.5,85.6,11.3,99.4,61.1,124.3,88.5,109.5-347.8-196-408.8-243.9-376.3v-.4l27.9-32.7a39.7,39.7,0,0,0-60.5-51.5l-10.3,12.1L742.2,741.4a544.8,544.8,0,0,0-5.5,77.2v5.9a406.3,406.3,0,0,1-39.1,178.8L1014,1238.1l-10.3,12.1a39.7,39.7,0,1,0,60.4,51.5Z"/><path class="cls-1" d="M733,884.2a405.7,405.7,0,0,0,40.4-181.5v-6a541.2,541.2,0,0,1,8-92.5,531.2,531.2,0,0,0-44.7,214.4v5.9A409.1,409.1,0,0,1,733,884.2Z"/><path class="cls-2" d="M1067.7,1793.5c-26.2,0-227.9,26.9-408.6-102.6-101.7-82.9-166.6-209-166.6-350.4a452.8,452.8,0,0,1,5.2-68.3,449.4,449.4,0,0,0-41.9,190.2c0,141.3,64.9,267.5,166.5,350.4,180.7,129.5,382.5,102.6,408.7,102.6,412.4,0,757.2-289.1,843.1-675.6C1749.5,1563.7,1435.5,1793.5,1067.7,1793.5Z"/><circle class="cls-3" cx="1301.8" cy="624.5" r="172.2"/><circle class="cls-4" cx="1588.6" cy="1025" r="172.2"/><circle class="cls-5" cx="1338.9" cy="1525.9" r="172.2"/><circle class="cls-6" cx="822.9" cy="1525.9" r="172.2"/><path class="cls-7" d="M1360.4,761.2a172.2,172.2,0,0,1-116.6-298.9,172.2,172.2,0,1,0,174.6,288.9A171.1,171.1,0,0,1,1360.4,761.2Z"/><path class="cls-8" d="M1647.2,1161.7a172.2,172.2,0,0,1-116.6-298.9,172.2,172.2,0,1,0,174.6,288.9A171.1,171.1,0,0,1,1647.2,1161.7Z"/><path class="cls-9" d="M1397.6,1662.6A172.2,172.2,0,0,1,1281,1363.7a172.2,172.2,0,1,0,174.5,288.9A171,171,0,0,1,1397.6,1662.6Z"/><path class="cls-10" d="M881.5,1662.6a172.2,172.2,0,0,1-116.6-298.9,172.2,172.2,0,1,0,174.6,288.9A172,172,0,0,1,881.5,1662.6Z"/><path class="cls-11" d="M1190.9,1155.4l-54.7,64.1c-46.4,81.7,30,192.5,179.5,218,85.6,11.3,99.4,61.1,124.3,88.4C1555.1,1160.5,1211.9,1111.6,1190.9,1155.4Z"/><path class="cls-12" d="M1333.7,1369.1c-113.6-19.3-185-88-192.3-155.7l-5.2,6.1c-46.4,81.7,30,192.5,179.5,218,85.6,11.3,99.4,61.1,124.3,88.4a563.7,563.7,0,0,0,17.2-69.3C1432.8,1429.1,1418.4,1380.3,1333.7,1369.1Z"/><path class="cls-13" d="M172.7,350.4h0c57.9-68,161.4-72.8,225.3-10.4l755.2,737.1-107.7,126.4-847.3-629C126.4,521.2,114.7,418.4,172.7,350.4Z"/><path class="cls-14" d="M271.3,536.6c-71.7-53.2-83.4-156.1-25.5-224.1h0a155.1,155.1,0,0,1,12.6-13,152.8,152.8,0,0,0-85.7,50.9h0c-58,68-46.3,170.8,25.5,224.1l847.3,629,48.1-56.5Z"/><rect class="cls-13" height="79.43" rx="39.7" ry="39.7" transform="matrix(-0.65, 0.76, -0.76, -0.65, 2749.78, 1062.84)" width="277.3" x="991" y="1126.3"/><path class="cls-14" d="M1221.2,1062.1l-113.6,133.3a39.8,39.8,0,0,1-56,4.5h0a12.9,12.9,0,0,1-1.7-1.6l-14.7,17.3a39.8,39.8,0,0,0,4.5,56h0a39.6,39.6,0,0,0,55.9-4.5L1224,1116.5A39.7,39.7,0,0,0,1221.2,1062.1Z"/><rect class="cls-15" height="465.85" rx="57.5" ry="57.5" transform="translate(-254.3 597.4) rotate(-46)" width="115.1" x="519" y="365.3"/><rect class="cls-15" height="110.98" rx="14.5" ry="14.5" transform="translate(997.4 -471.2) rotate(40.4)" width="29" x="1123.8" y="1062.7"/><circle class="cls-16" cx="889.3" cy="1484.7" r="83.5"/><circle class="cls-17" cx="1371" cy="547.6" r="69.2"/><circle class="cls-18" cx="1675.1" cy="958.8" r="62.8"/><path class="cls-5" d="M1315.7,1437.5c85.6,11.3,99.4,61.1,124.3,88.4,21.8-69.2,27.1-127.1,21.4-175.1-50,1.9-107.3-67.3-126.7,1.3-13.8,49-81.2,49.5-133.2,42C1231.9,1414.3,1270.5,1429.8,1315.7,1437.5Z"/><path class="cls-9" d="M1333.7,1369.1l-6.3-1.1c-22.8,33.1-80.3,32.7-125.9,26.1,30.4,20.2,69,35.7,114.2,43.4,85.6,11.3,99.4,61.1,124.3,88.4a563.7,563.7,0,0,0,17.2-69.3C1432.8,1429.1,1418.4,1380.3,1333.7,1369.1Z"/><ellipse class="cls-5" cx="1382.4" cy="1286.2" rx="11.3" ry="17.6"/><ellipse class="cls-5" cx="1546.1" cy="1414.9" rx="14.7" ry="32"/><path class="cls-19" d="M1704,510.5h0a867.1,867.1,0,0,0-116.4-119c-12.2-9.2-24.8-17.7-37.8-25.8a328.9,328.9,0,0,0-18.3,108.7c0,181.5,146.2,328.7,327.3,330.4A861.2,861.2,0,0,0,1704,510.5Z"/></svg>