<?xml version="1.0" ?><!-- Uploaded to: SVG Repo, www.svgrepo.com, Generator: SVG Repo Mixer Tools -->
<svg width="800px" height="800px" viewBox="0 0 2050 2050" data-name="Layer 2" id="Layer_2" xmlns="http://www.w3.org/2000/svg"><defs><style>.cls-1{fill:#67baeb;}.cls-2{fill:#f4c23f;}.cls-3{fill:#46a1f8;}.cls-4{fill:#f4a93f;}.cls-5{fill:#4d4c78;}.cls-6{fill:#83d0fb;}.cls-7{fill:#fad564;}</style></defs><title/><rect class="cls-1" height="604.94" rx="91" ry="91" transform="translate(670.5 -573.6) rotate(45)" width="604.9" x="725.2" y="220.1"/><rect class="cls-2" height="604.94" rx="91" ry="91" transform="translate(1170.3 -780.6) rotate(45)" width="604.9" x="1225" y="719.9"/><rect class="cls-2" height="604.94" rx="91" ry="91" transform="translate(879.7 -68.5) rotate(45)" width="604.9" x="220.1" y="725.2"/><rect class="cls-1" height="604.94" rx="91" ry="91" transform="translate(1379.5 -275.5) rotate(45)" width="604.9" x="719.9" y="1225"/><rect class="cls-1" height="604.94" rx="91" ry="91" transform="translate(670.5 -573.6) rotate(45)" width="604.9" x="725.2" y="220.1"/><rect class="cls-2" height="604.94" rx="91" ry="91" transform="translate(1170.3 -780.6) rotate(45)" width="604.9" x="1225" y="719.9"/><rect class="cls-1" height="604.94" rx="91" ry="91" transform="translate(1379.5 -275.5) rotate(45)" width="604.9" x="719.9" y="1225"/><path class="cls-3" d="M1068.5,886,769.4,586.9a90.9,90.9,0,0,1,0-128.7l299.1-299.1a90.2,90.2,0,0,1,11.7-9.9,91,91,0,0,0-116.9,9.9L664.2,458.2a91.1,91.1,0,0,0,0,128.7L963.3,886a91,91,0,0,0,116.9,9.9A90.2,90.2,0,0,1,1068.5,886Z"/><path class="cls-4" d="M1568.3,1385.8l-299.1-299.1a90.9,90.9,0,0,1,0-128.7l299.1-299.1A90.2,90.2,0,0,1,1580,649a91,91,0,0,0-116.9,9.9L1164,958a91.1,91.1,0,0,0,0,128.7l299.1,299.1a91,91,0,0,0,116.9,9.9A90.2,90.2,0,0,1,1568.3,1385.8Z"/><path class="cls-4" d="M563.4,1391.1,264.3,1092a90.9,90.9,0,0,1,0-128.7L563.4,664.2a90.2,90.2,0,0,1,11.7-9.9,91,91,0,0,0-116.9,9.9L159.1,963.3a91.1,91.1,0,0,0,0,128.7l299.1,299.1a91,91,0,0,0,116.9,9.9A90.2,90.2,0,0,1,563.4,1391.1Z"/><path class="cls-3" d="M1063.2,1890.9,764.1,1591.8a90.9,90.9,0,0,1,0-128.7L1063.2,1164a90.2,90.2,0,0,1,11.7-9.9A91,91,0,0,0,958,1164L658.9,1463.1a91.1,91.1,0,0,0,0,128.7L958,1890.9a91,91,0,0,0,116.9,9.9A90.2,90.2,0,0,1,1063.2,1890.9Z"/><path class="cls-4" d="M390.4,1173.4a20.1,20.1,0,0,1-14.1-34.2L599.6,915.9a20,20,0,1,1,28.3,28.3L404.6,1167.5A20,20,0,0,1,390.4,1173.4Z"/><path class="cls-4" d="M613.7,1173.4a19.9,19.9,0,0,1-14.1-5.9L376.3,944.2a20,20,0,1,1,28.3-28.3l223.3,223.3a20.1,20.1,0,0,1-14.2,34.2Z"/><path class="cls-5" d="M410.9,1159.3a19.5,19.5,0,0,1-14.1-5.9,19.9,19.9,0,0,1,0-28.2L620.1,901.9a19.9,19.9,0,1,1,28.2,28.2L425,1153.4A19.9,19.9,0,0,1,410.9,1159.3Z"/><path class="cls-5" d="M634.2,1159.3a19.5,19.5,0,0,1-14.1-5.9L396.8,930.1A19.9,19.9,0,1,1,425,901.9l223.3,223.3a19.7,19.7,0,0,1,0,28.2A19.5,19.5,0,0,1,634.2,1159.3Z"/><path class="cls-3" d="M1159.8,1561.5H844a20,20,0,0,1,0-40h315.8a20,20,0,1,1,0,40Z"/><path class="cls-5" d="M1180.2,1547.4H864.5a20,20,0,0,1,0-40h315.7a20,20,0,1,1,0,40Z"/><path class="cls-3" d="M1007.2,714.5a20,20,0,0,1-20-20V378.7a20,20,0,0,1,40,0V694.5A20.1,20.1,0,0,1,1007.2,714.5Z"/><path class="cls-3" d="M1165.1,556.6H849.3a20,20,0,0,1,0-40h315.8a20,20,0,0,1,0,40Z"/><path class="cls-4" d="M1664.9,1056.4H1349.1a20,20,0,1,1,0-40h315.8a20,20,0,0,1,0,40Z"/><path class="cls-4" d="M1507,952.3a71,71,0,1,1,71-71A71.1,71.1,0,0,1,1507,952.3Zm0-102a31,31,0,1,0,31,31A31,31,0,0,0,1507,850.3Z"/><path class="cls-4" d="M1507,1262.5a71,71,0,1,1,71-71A71,71,0,0,1,1507,1262.5Zm0-102a31,31,0,1,0,31,31A31,31,0,0,0,1507,1160.5Z"/><path class="cls-5" d="M1685.3,1042.3H1369.6a20,20,0,0,1,0-40h315.7a20,20,0,0,1,0,40Z"/><path class="cls-5" d="M1527.4,938.2a71,71,0,1,1,71-71A71,71,0,0,1,1527.4,938.2Zm0-102a31,31,0,1,0,31,31A31,31,0,0,0,1527.4,836.2Z"/><path class="cls-5" d="M1527.4,1248.4a71,71,0,1,1,71-70.9A71,71,0,0,1,1527.4,1248.4Zm0-101.9a31,31,0,1,0,31,31A31,31,0,0,0,1527.4,1146.5Z"/><path class="cls-5" d="M1027.7,700.4a19.9,19.9,0,0,1-20-20V364.7a20,20,0,0,1,40,0V680.4A20,20,0,0,1,1027.7,700.4Z"/><path class="cls-5" d="M1185.5,542.6H869.8a20,20,0,0,1,0-40h315.7a20,20,0,0,1,0,40Z"/><rect class="cls-6" height="321.39" rx="48.4" ry="48.4" transform="translate(109.4 953.4) rotate(-45)" width="96.8" x="1157.2" y="184"/><rect class="cls-6" height="187.12" rx="48.4" ry="48.4" transform="translate(798.5 -767.9) rotate(45)" width="96.8" x="1277.8" y="486.4"/><rect class="cls-7" height="187.12" rx="48.4" ry="48.4" transform="translate(1029.4 -210.4) rotate(45)" width="96.8" x="720.3" y="1043.8"/><rect class="cls-6" height="142.48" rx="48.4" ry="48.4" transform="translate(-632.7 1319.6) rotate(-45)" width="96.8" x="1228.1" y="1352.3"/><rect class="cls-6" height="266.18" rx="48.4" ry="48.4" transform="translate(1526.1 -412.8) rotate(45)" width="96.8" x="1212.9" y="1502.6"/><rect class="cls-7" height="142.48" rx="48.4" ry="48.4" transform="translate(-126.1 1529.7) rotate(-45)" width="96.8" x="1735" y="845.9"/><rect class="cls-7" height="142.48" rx="48.4" ry="48.4" transform="translate(-415.5 795) rotate(-45)" width="96.8" x="703.5" y="827.7"/><rect class="cls-7" height="266.18" rx="48.4" ry="48.4" transform="translate(1316.4 -919.6) rotate(45)" width="96.8" x="1719.8" y="996.2"/></svg>