<?xml version="1.0" encoding="utf-8"?>
<!-- Uploaded to: SVG Repo, www.svgrepo.com, Generator: SVG Repo Mixer Tools -->
<svg width="800px" height="800px" viewBox="0 0 1024 1024" class="icon" style="vertical-align: middle;fill: #000000;overflow: hidden;" version="1.1" xmlns="http://www.w3.org/2000/svg"><path d="M316.5184 267.9808l-33.9456-53.248c-24.6784-38.7072-13.2608-90.0608 25.4464-114.7392s90.0608-13.2608 114.7392 25.4464L505.344 255.0784M699.2896 267.9808l33.9456-53.248c24.6784-38.7072 13.2608-90.0608-25.4464-114.7392s-90.0608-13.2608-114.7392 25.4464L510.5152 255.0784M882.5856 525.1072H201.5232c-30.6176 0-55.4496-24.832-55.4496-55.4496V369.152c0-30.6176 24.832-55.4496 55.4496-55.4496h681.0624c30.6176 0 55.4496 24.832 55.4496 55.4496v100.4544c0 30.6688-24.832 55.5008-55.4496 55.5008z" fill="#FF6339" /><path d="M640.9728 86.9888s79.8208 40.9088 48.896 94.7712c-30.9248 53.8624-61.4912 91.1872-61.4912 91.1872h68.608s31.7952-38.5536 40.1408-65.024 18.9952-83.456-20.7872-101.632-75.3664-19.3024-75.3664-19.3024zM881.6128 313.7024h-25.088v149.9136c0 23.296-1.3312 58.5216-26.624 58.5216 54.4768 0 108.1856 5.3248 108.1856-59.1872V370.176c-0.0512-31.1808-25.2928-56.4736-56.4736-56.4736zM287.0784 125.5424s53.8624-33.28 88.4736 17.9712 85.8112 129.4336 85.8112 129.4336h57.1904S448.3584 150.9888 422.7072 125.44c-25.6-25.5488-60.5184-47.7696-103.424-31.488s-32.2048 31.5904-32.2048 31.5904z" fill="#F94A21" /><path d="M800.0512 931.8912H277.8624c-33.792 0-61.184-27.392-61.184-61.184v-345.6h644.5568v345.6c0 33.792-27.392 61.184-61.184 61.184z" fill="#FFAC48" /><path d="M216.6784 577.6896h572.9792v290.3552c0 25.9584-5.9904 63.8464-56.8832 63.8464 70.8608 0 128.512-2.9696 128.512-74.8544v-324.3008H216.6784v44.9536z" fill="#FC992D" /><path d="M881.6128 252.3648h-154.112l18.7392-29.3888c29.184-45.7728 15.6672-106.752-30.1568-135.936-45.7728-29.184-106.752-15.6672-135.936 30.1568L507.904 230.5536 435.712 117.1968C406.528 71.3728 345.5488 57.856 299.776 87.04c-45.7728 29.184-59.2896 90.1632-30.1568 135.936l18.7392 29.3888H139.4176c-39.5776 0-71.8336 32.2048-71.8336 71.8336v18.8928c0 8.4992 6.8608 15.36 15.36 15.36s15.36-6.8608 15.36-15.36v-18.8928c0-22.6304 18.432-41.1136 41.1136-41.1136H492.544v226.6624H139.4176c-22.6304 0-41.1136-18.432-41.1136-41.1136V407.3472c0-8.4992-6.8608-15.36-15.36-15.36s-15.36 6.8608-15.36 15.36v61.2864c0 39.5776 32.2048 71.8336 71.8336 71.8336h4.9664v59.3408c0 8.4992 6.8608 15.36 15.36 15.36s15.36-6.8608 15.36-15.36v-59.3408h317.44v59.3408c0 8.4992 6.8608 15.36 15.36 15.36s15.36-6.8608 15.36-15.36v-59.3408h322.6624v329.1648c0 25.856-21.0432 46.9504-46.9504 46.9504H523.264v-227.9936c0-8.4992-6.8608-15.36-15.36-15.36s-15.36 6.8608-15.36 15.36v227.9936H222.0544c-25.856 0-46.9504-21.0432-46.9504-46.9504V740.352c0-8.4992-6.8608-15.36-15.36-15.36s-15.36 6.8608-15.36 15.36v129.28c0 42.8032 34.816 77.6704 77.6704 77.6704h576.9216c42.8032 0 77.6704-34.816 77.6704-77.6704v-329.1648h4.9664c39.5776 0 71.8336-32.2048 71.8336-71.8336V324.1984c-0.0512-39.5776-32.256-71.8336-71.8336-71.8336z m-275.5584-118.6816c20.0704-31.488 62.0032-40.8064 93.5424-20.736 31.488 20.0704 40.8064 62.0032 20.736 93.5424l-29.2352 45.9264H530.432l75.6224-118.7328zM295.5264 206.4896c-20.0704-31.488-10.752-73.472 20.736-93.5424s73.472-10.752 93.5424 20.736l75.6224 118.6816H324.7616l-29.2352-45.8752z m627.1488 262.1952c0 22.6304-18.432 41.1136-41.1136 41.1136H523.264V283.0848h358.3488c22.6304 0 41.1136 18.432 41.1136 41.1136v144.4864z" fill="#333333" /><path d="M159.744 703.8976c8.4992 0 15.36-6.8608 15.36-15.36v-15.5136c0-8.4992-6.8608-15.36-15.36-15.36s-15.36 6.8608-15.36 15.36v15.5136c0 8.4992 6.8608 15.36 15.36 15.36z" fill="#333333" /><path d="M193.792 431.5648a12.8 12.8 0 0 1-12.8-12.8v-28.8256c0-24.1152 19.6096-43.7248 43.7248-43.7248h99.4304a12.8 12.8 0 0 1 0 25.6H224.7168c-9.984 0-18.1248 8.1408-18.1248 18.1248v28.8256a12.8 12.8 0 0 1-12.8 12.8zM394.2912 371.8144H372.736a12.8 12.8 0 0 1 0-25.6h21.5552a12.8 12.8 0 0 1 0 25.6zM320.7168 199.424c-5.12 0-9.9328-3.072-11.9296-8.0896-11.6224-29.3376 6.0416-51.2 16.9472-58.6752 5.8368-3.9936 13.824-2.4576 17.7664 3.3792 3.9424 5.7856 2.5088 13.7216-3.2768 17.7152-2.5088 1.792-14.336 11.4176-7.68 28.16 2.6112 6.5536-0.6144 14.0288-7.168 16.5888-1.536 0.6144-3.1232 0.9216-4.6592 0.9216zM610.9696 199.424a12.83072 12.83072 0 0 1-10.8032-19.6608l22.528-35.6352a12.83072 12.83072 0 0 1 17.664-3.9936c5.9904 3.7888 7.7312 11.6736 3.9936 17.664l-22.528 35.6352c-2.4576 3.8912-6.6048 5.9904-10.8544 5.9904zM269.568 831.6416a12.8 12.8 0 0 1-12.8-12.8v-13.312a12.8 12.8 0 0 1 25.6 0v13.312a12.8 12.8 0 0 1-12.8 12.8z" fill="#FFFFFF" /><path d="M269.568 772.4032a12.8 12.8 0 0 1-12.8-12.8v-108.4416a12.8 12.8 0 0 1 25.6 0v108.4416a12.8 12.8 0 0 1-12.8 12.8z" fill="#FFFFFF" /></svg>