<?xml version="1.0" ?>
<!-- Uploaded to: SVG Repo, www.svgrepo.com, Generator: SVG Repo Mixer Tools -->
<svg width="800px" height="800px" viewBox="0 0 120 120" id="Layer_1" version="1.1" xml:space="preserve" xmlns="http://www.w3.org/2000/svg" xmlns:xlink="http://www.w3.org/1999/xlink">
<style type="text/css">
	.st0{fill:#3AB0FF;}
	.st1{fill:#FFFFFF;}
	.st2{fill:#FFB225;}
	.st3{fill:#FFD63E;}
</style>
<g>
<path class="st0" d="M99,28H21c-2.5,0-4.5,2-4.5,4.5v43.3c0,2.5,2,4.5,4.5,4.5h30.2l7.5,11.1c0.6,0.9,2,0.9,2.6,0l7.5-11.1H99   c2.5,0,4.5-2,4.5-4.5V32.5C103.5,30,101.5,28,99,28z"/>
<g>
<path class="st1" d="M25.4,56.6h6.3c0.7,0,1.3-0.6,1.3-1.3S32.4,54,31.7,54h-6.3c-0.7,0-1.3,0.6-1.3,1.3S24.7,56.6,25.4,56.6z"/>
<path class="st1" d="M36.6,56.6h58c0.7,0,1.3-0.6,1.3-1.3S95.3,54,94.6,54h-58c-0.7,0-1.3,0.6-1.3,1.3S35.9,56.6,36.6,56.6z"/>
<path class="st1" d="M94.6,59.2H25.4c-0.7,0-1.3,0.6-1.3,1.3s0.6,1.3,1.3,1.3h69.2c0.7,0,1.3-0.6,1.3-1.3S95.3,59.2,94.6,59.2z"/>
<path class="st1" d="M94.6,64.4H25.4c-0.7,0-1.3,0.6-1.3,1.3c0,0.7,0.6,1.3,1.3,1.3h69.2c0.7,0,1.3-0.6,1.3-1.3    C95.9,65,95.3,64.4,94.6,64.4z"/>
<path class="st1" d="M94.6,69.6H25.4c-0.7,0-1.3,0.6-1.3,1.3c0,0.7,0.6,1.3,1.3,1.3h69.2c0.7,0,1.3-0.6,1.3-1.3    C95.9,70.2,95.3,69.6,94.6,69.6z"/>
</g>
<circle class="st2" cx="30.2" cy="42.1" r="6.1"/>
<g>
<path class="st3" d="M48.4,41L46,40.7l-1.1-2.2c-0.1-0.2-0.3-0.2-0.4,0l-1.1,2.2L40.9,41c-0.2,0-0.3,0.3-0.1,0.4l1.8,1.7l-0.4,2.5    c0,0.2,0.2,0.3,0.3,0.3l2.2-1.2l2.2,1.2c0.2,0.1,0.4-0.1,0.3-0.3l-0.4-2.5l1.8-1.7C48.7,41.3,48.6,41.1,48.4,41z"/>
<path class="st3" d="M58.9,41l-2.5-0.4l-1.1-2.2c-0.1-0.2-0.3-0.2-0.4,0l-1.1,2.2L51.3,41c-0.2,0-0.3,0.3-0.1,0.4l1.8,1.7    l-0.4,2.5c0,0.2,0.2,0.3,0.3,0.3l2.2-1.2l2.2,1.2c0.2,0.1,0.4-0.1,0.3-0.3l-0.4-2.5l1.8-1.7C59.1,41.3,59.1,41.1,58.9,41z"/>
<path class="st3" d="M69.3,41l-2.5-0.4l-1.1-2.2c-0.1-0.2-0.3-0.2-0.4,0l-1.1,2.2L61.7,41c-0.2,0-0.3,0.3-0.1,0.4l1.8,1.7L63,45.6    c0,0.2,0.2,0.3,0.3,0.3l2.2-1.2l2.2,1.2c0.2,0.1,0.4-0.1,0.3-0.3l-0.4-2.5l1.8-1.7C69.6,41.3,69.5,41.1,69.3,41z"/>
<path class="st3" d="M79.7,41l-2.5-0.4l-1.1-2.2c-0.1-0.2-0.3-0.2-0.4,0l-1.1,2.2L72.1,41c-0.2,0-0.3,0.3-0.1,0.4l1.8,1.7    l-0.4,2.5c0,0.2,0.2,0.3,0.3,0.3l2.2-1.2l2.2,1.2c0.2,0.1,0.4-0.1,0.3-0.3l-0.4-2.5l1.8-1.7C80,41.3,79.9,41.1,79.7,41z"/>
<path class="st3" d="M90.2,41l-2.5-0.4l-1.1-2.2c-0.1-0.2-0.3-0.2-0.4,0L85,40.7L82.6,41c-0.2,0-0.3,0.3-0.1,0.4l1.8,1.7l-0.4,2.5    c0,0.2,0.2,0.3,0.3,0.3l2.2-1.2l2.2,1.2c0.2,0.1,0.4-0.1,0.3-0.3l-0.4-2.5l1.8-1.7C90.4,41.3,90.4,41.1,90.2,41z"/>
</g>
</g>
</svg>