<?xml version="1.0" ?>
<!-- Uploaded to: SVG Repo, www.svgrepo.com, Generator: SVG Repo Mixer Tools -->
<svg width="800px" height="800px" viewBox="0 0 72 72" xmlns="http://www.w3.org/2000/svg">
<g fill="none" fill-rule="evenodd">
<path d="M36,72 L36,72 C55.882251,72 72,55.882251 72,36 L72,36 C72,16.117749 55.882251,-3.65231026e-15 36,0 L36,0 C16.117749,3.65231026e-15 -2.4348735e-15,16.117749 0,36 L0,36 C2.4348735e-15,55.882251 16.117749,72 36,72 Z" fill="#4A4A4A"/>
<path d="M21.855,43.51 C23.681,43.51 25.363,42.885 26.697,41.838 L41.603,49.197 C41.603,49.227 41.601,49.254 41.601,49.283 C41.601,53.621 45.119,57.139 49.457,57.139 C53.794,57.139 57.312,53.621 57.312,49.283 C57.312,44.946 53.794,41.428 49.457,41.428 C47.148,41.428 45.074,42.422 43.638,44.006 L29.582,37.067 C29.664,36.61 29.71,36.139 29.71,35.656 C29.71,35.559 29.707,35.463 29.703,35.367 L44.244,27.731 C45.632,28.961 47.457,29.711 49.457,29.711 C53.796,29.711 57.312,26.194 57.312,21.856 C57.312,17.516 53.794,14 49.457,14 C45.119,14 41.601,17.516 41.601,21.856 C41.601,22.18 41.625,22.498 41.662,22.811 L27.533,30.231 C26.103,28.735 24.089,27.801 21.855,27.801 C17.517,27.801 14,31.319 14,35.656 C14,39.994 17.517,43.51 21.855,43.51" fill="#FFF"/>
</g>
</svg>