<?xml version="1.0" encoding="utf-8"?>
<!-- Uploaded to: SVG Repo, www.svgrepo.com, Generator: SVG Repo Mixer Tools -->
<svg width="800px" height="800px" viewBox="0 0 1024 1024" class="icon"  version="1.1" xmlns="http://www.w3.org/2000/svg"><path d="M704.851166 384.256723m7.111111-12.316806l14.222222-24.633612q7.111111-12.316806 19.427917-5.205694l123.168057 71.111111q12.316806 7.111111 5.205695 19.427917l-14.222222 24.633611q-7.111111 12.316806-19.427917 5.205695l-123.168058-71.111111q-12.316806-7.111111-5.205694-19.427917Z" fill="#FDD821" /><path d="M726.186667 347.306667a14.222222 14.222222 0 0 1 19.427555-5.205334l123.164445 71.111111a14.222222 14.222222 0 0 1 5.205333 19.427556l-14.222222 24.632889a14.222222 14.222222 0 0 1-19.427556 5.205333l-123.164444-71.111111a14.222222 14.222222 0 0 1-5.205334-19.427555l14.222223-24.632889z m12.316444 7.111111l-14.222222 24.632889 123.164444 71.111111 14.222223-24.632889-123.164445-71.111111z" fill="#B2181A" /><path d="M704.851166 499.158056m7.111111-12.316806l14.222222-24.633611q7.111111-12.316806 19.427917-5.205695l123.168057 71.111111q12.316806 7.111111 5.205695 19.427917l-14.222222 24.633612q-7.111111 12.316806-19.427917 5.205694l-123.168058-71.111111q-12.316806-7.111111-5.205694-19.427917Z" fill="#FDD821" /><path d="M726.186667 462.208a14.222222 14.222222 0 0 1 19.427555-5.205333l123.164445 71.111111a14.222222 14.222222 0 0 1 5.205333 19.427555l-14.222222 24.632889a14.222222 14.222222 0 0 1-19.427556 5.205334l-123.164444-71.111112a14.222222 14.222222 0 0 1-5.205334-19.427555l14.222223-24.632889z m12.316444 7.111111l-14.222222 24.632889 123.164444 71.111111 14.222223-24.632889-123.164445-71.111111z" fill="#B2181A" /><path d="M704.851166 612.935834m7.111111-12.316806l14.222222-24.633612q7.111111-12.316806 19.427917-5.205694l123.168057 71.111111q12.316806 7.111111 5.205695 19.427917l-14.222222 24.633611q-7.111111 12.316806-19.427917 5.205695l-123.168058-71.111111q-12.316806-7.111111-5.205694-19.427917Z" fill="#FDD821" /><path d="M726.186667 575.985778a14.222222 14.222222 0 0 1 19.427555-5.205334l123.164445 71.111112a14.222222 14.222222 0 0 1 5.205333 19.427555l-14.222222 24.632889a14.222222 14.222222 0 0 1-19.427556 5.205333l-123.164444-71.111111a14.222222 14.222222 0 0 1-5.205334-19.427555l14.222223-24.632889z m12.316444 7.111111l-14.222222 24.632889 123.164444 71.111111 14.222223-24.632889-123.164445-71.111111z" fill="#B2181A" /><path d="M708.166581 389.190276m-7.111111-12.316806l-14.222223-24.633611q-7.111111-12.316806-19.427916-5.205695l-123.168058 71.111111q-12.316806 7.111111-5.205694 19.427917l14.222222 24.633612q7.111111 12.316806 19.427917 5.205694l123.168057-71.111111q12.316806-7.111111 5.205695-19.427917Z" fill="#FDD821" /><path d="M686.833778 352.241778a14.222222 14.222222 0 0 0-19.427556-5.205334l-123.164444 71.111112a14.222222 14.222222 0 0 0-5.205334 19.427555l14.222223 24.632889a14.222222 14.222222 0 0 0 19.427555 5.205333l123.164445-71.111111a14.222222 14.222222 0 0 0 5.205333-19.427555l-14.222222-24.632889z m-12.316445 7.111111l14.222223 24.632889-123.164445 71.111111-14.222222-24.632889 123.164444-71.111111z" fill="#B2181A" /><path d="M708.166581 504.091609m-7.111111-12.316805l-14.222223-24.633612q-7.111111-12.316806-19.427916-5.205695l-123.168058 71.111112q-12.316806 7.111111-5.205694 19.427916l14.222222 24.633612q7.111111 12.316806 19.427917 5.205695l123.168057-71.111112q12.316806-7.111111 5.205695-19.427916Z" fill="#FDD821" /><path d="M686.833778 467.143111a14.222222 14.222222 0 0 0-19.427556-5.205333l-123.164444 71.111111a14.222222 14.222222 0 0 0-5.205334 19.427555l14.222223 24.632889a14.222222 14.222222 0 0 0 19.427555 5.205334l123.164445-71.111111a14.222222 14.222222 0 0 0 5.205333-19.427556l-14.222222-24.632889z m-12.316445 7.111111l14.222223 24.632889-123.164445 71.111111-14.222222-24.632889 123.164444-71.111111z" fill="#B2181A" /><path d="M708.166581 617.869387m-7.111111-12.316806l-14.222223-24.633611q-7.111111-12.316806-19.427916-5.205695l-123.168058 71.111111q-12.316806 7.111111-5.205694 19.427917l14.222222 24.633612q7.111111 12.316806 19.427917 5.205694l123.168057-71.111111q12.316806-7.111111 5.205695-19.427917Z" fill="#FDD821" /><path d="M686.833778 580.920889a14.222222 14.222222 0 0 0-19.427556-5.205333l-123.164444 71.111111a14.222222 14.222222 0 0 0-5.205334 19.427555l14.222223 24.632889a14.222222 14.222222 0 0 0 19.427555 5.205333l123.164445-71.111111a14.222222 14.222222 0 0 0 5.205333-19.427555l-14.222222-24.632889z m-12.316445 7.111111l14.222223 24.632889-123.164445 71.111111-14.222222-24.632889 123.164444-71.111111z" fill="#B2181A" /><path d="M584.99753 460.299666m-7.111111-12.316806l-14.222223-24.633611q-7.111111-12.316806-19.427916-5.205695l-12.316806 7.111111q-12.316806 7.111111-5.205695 19.427917l14.222222 24.633612q7.111111 12.316806 19.427917 5.205694l12.316806-7.111111q12.316806-7.111111 5.205695-19.427917Z" fill="#FB3635" /><path d="M563.669333 423.352889a14.222222 14.222222 0 0 0-19.427555-5.205333l-12.316445 7.111111a14.222222 14.222222 0 0 0-5.205333 19.427555l14.222222 24.632889a14.222222 14.222222 0 0 0 19.427556 5.205333l12.316444-7.111111a14.222222 14.222222 0 0 0 5.205334-19.427555l-14.222223-24.632889z m-12.316444 7.111111l14.222222 24.632889-12.316444 7.111111-14.222223-24.632889 12.316445-7.111111z" fill="#B2181A" /><path d="M584.99753 575.200999m-7.111111-12.316805l-14.222223-24.633612q-7.111111-12.316806-19.427916-5.205694l-12.316806 7.111111q-12.316806 7.111111-5.205695 19.427917l14.222222 24.633611q7.111111 12.316806 19.427917 5.205695l12.316806-7.111111q12.316806-7.111111 5.205695-19.427917Z" fill="#FB3635" /><path d="M563.669333 538.254222a14.222222 14.222222 0 0 0-19.427555-5.205333l-12.316445 7.111111a14.222222 14.222222 0 0 0-5.205333 19.427556l14.222222 24.632888a14.222222 14.222222 0 0 0 19.427556 5.205334l12.316444-7.111111a14.222222 14.222222 0 0 0 5.205334-19.427556l-14.222223-24.632889z m-12.316444 7.111111l14.222222 24.632889-12.316444 7.111111-14.222223-24.632889 12.316445-7.111111z" fill="#B2181A" /><path d="M584.99753 688.978777m-7.111111-12.316805l-14.222223-24.633612q-7.111111-12.316806-19.427916-5.205695l-12.316806 7.111112q-12.316806 7.111111-5.205695 19.427916l14.222222 24.633612q7.111111 12.316806 19.427917 5.205694l12.316806-7.111111q12.316806-7.111111 5.205695-19.427916Z" fill="#FB3635" /><path d="M563.669333 652.032a14.222222 14.222222 0 0 0-19.427555-5.205333l-12.316445 7.111111a14.222222 14.222222 0 0 0-5.205333 19.427555l14.222222 24.632889a14.222222 14.222222 0 0 0 19.427556 5.205334l12.316444-7.111112a14.222222 14.222222 0 0 0 5.205334-19.427555l-14.222223-24.632889z m-12.316444 7.111111l14.222222 24.632889-12.316444 7.111111-14.222223-24.632889 12.316445-7.111111z" fill="#B2181A" /><path d="M828.024347 455.380151m7.111111-12.316806l14.222222-24.633612q7.111111-12.316806 19.427917-5.205694l12.316806 7.111111q12.316806 7.111111 5.205695 19.427917l-14.222223 24.633611q-7.111111 12.316806-19.427917 5.205695l-12.316805-7.111111q-12.316806-7.111111-5.205695-19.427917Z" fill="#FB3635" /><path d="M849.351111 418.417778a14.222222 14.222222 0 0 1 19.427556-5.205334l12.316444 7.111112a14.222222 14.222222 0 0 1 5.205333 19.427555l-14.222222 24.632889a14.222222 14.222222 0 0 1-19.427555 5.205333l-12.316445-7.111111a14.222222 14.222222 0 0 1-5.205333-19.427555l14.222222-24.632889z m12.316445 7.111111l-14.222223 24.632889 12.316445 7.111111 14.222222-24.632889-12.316444-7.111111z" fill="#B2181A" /><path d="M828.024347 570.281484m7.111111-12.316806l14.222222-24.633611q7.111111-12.316806 19.427917-5.205695l12.316806 7.111111q12.316806 7.111111 5.205695 19.427917l-14.222223 24.633611q-7.111111 12.316806-19.427917 5.205695l-12.316805-7.111111q-12.316806-7.111111-5.205695-19.427917Z" fill="#FB3635" /><path d="M849.351111 533.319111a14.222222 14.222222 0 0 1 19.427556-5.205333l12.316444 7.111111a14.222222 14.222222 0 0 1 5.205333 19.427555l-14.222222 24.632889a14.222222 14.222222 0 0 1-19.427555 5.205334l-12.316445-7.111111a14.222222 14.222222 0 0 1-5.205333-19.427556l14.222222-24.632889z m12.316445 7.111111l-14.222223 24.632889 12.316445 7.111111 14.222222-24.632889-12.316444-7.111111z" fill="#B2181A" /><path d="M828.024347 684.059262m7.111111-12.316806l14.222222-24.633612q7.111111-12.316806 19.427917-5.205694l12.316806 7.111111q12.316806 7.111111 5.205695 19.427917l-14.222223 24.633611q-7.111111 12.316806-19.427917 5.205695l-12.316805-7.111111q-12.316806-7.111111-5.205695-19.427917Z" fill="#FB3635" /><path d="M849.351111 647.096889a14.222222 14.222222 0 0 1 19.427556-5.205333l12.316444 7.111111a14.222222 14.222222 0 0 1 5.205333 19.427555l-14.222222 24.632889a14.222222 14.222222 0 0 1-19.427555 5.205333l-12.316445-7.111111a14.222222 14.222222 0 0 1-5.205333-19.427555l14.222222-24.632889z m12.316445 7.111111l-14.222223 24.632889 12.316445 7.111111 14.222222-24.632889-12.316444-7.111111z" fill="#B2181A" /><path d="M684.046222 286.336m21.333334 0l0 0q21.333333 0 21.333333 21.333333l0 355.555556q0 21.333333-21.333333 21.333333l0 0q-21.333333 0-21.333334-21.333333l0-355.555556q0-21.333333 21.333334-21.333333Z" fill="#FB3635" /><path d="M662.670222 678.727111l38.485334 3.228445 35.925333-16.853334-3.271111 38.115556 20.053333 30.677333-40.604444-4.437333-29.852445 23.822222v-40.96z" fill="#FDD821" /><path d="M741.12 701.368889l4.096-47.943111-45.354667 21.276444-50.645333-4.238222 27.079111 43.861333v53.731556l39.096889-31.232 52.650667 5.774222-26.922667-41.230222z m-38.656-12.174222l26.467556-12.430223-2.403556 28.273778 13.155556 20.138667-28.586667-3.114667-20.579556 16.440889v-28.202667l-14.407111-23.324444 26.353778 2.218667z" fill="#B2181A" /><path d="M773.276444 681.628444a7.111111 7.111111 0 0 1 7.452445 12.046223l-1.095111 0.668444-30.435556 15.217778a7.111111 7.111111 0 0 1-7.452444-12.046222l1.080889-0.668445 30.449777-15.217778zM676.935111 710.115556a7.111111 7.111111 0 0 1 1.28 14.094222l-1.28 0.113778h-43.207111a7.111111 7.111111 0 0 1-1.28-14.094223l1.28-0.128h43.207111zM713.187556 733.824a7.111111 7.111111 0 0 1 8.96 1.720889l0.711111 1.066667 19.313777 34.901333a7.111111 7.111111 0 0 1-11.733333 7.950222l-0.711111-1.066667-19.313778-34.901333a7.111111 7.111111 0 0 1 2.773334-9.671111z" fill="#B2181A" /><path d="M648.490667 762.780444m-14.222223 0a14.222222 14.222222 0 1 0 28.444445 0 14.222222 14.222222 0 1 0-28.444445 0Z" fill="#B2181A" /><path d="M748.046222 805.447111m-14.222222 0a14.222222 14.222222 0 1 0 28.444444 0 14.222222 14.222222 0 1 0-28.444444 0Z" fill="#B2181A" /><path d="M779.861333 749.127111c7.822222-15.274667 2.616889-29.013333 25.998223-29.013333 23.395556 0 35.043556 7.267556 35.043555 15.786666 0 8.504889-11.036444 28.202667-18.844444 28.202667h-38.755556c-3.441778 0-11.278222 0.298667-3.441778-14.976z" fill="#FDD821" /><path d="M805.859556 713.002667c-16.426667 0-23.153778 5.404444-27.363556 18.403555l-2.645333 8.917334c-0.512 1.564444-0.924444 2.645333-1.450667 3.768888l-0.867556 1.792c-4.195556 8.177778-5.376 14.264889-2.844444 19.171556 2.432 4.736 6.371556 6.058667 11.448889 6.158222H822.044444c12.003556 0 25.955556-22.385778 25.955556-35.313778 0-14.563556-16.867556-22.897778-42.154667-22.897777z m0 14.222222c18.417778 0 27.932444 4.693333 27.932444 8.675555l-0.099556 1.237334c-1.038222 6.656-9.415111 19.854222-11.633777 19.854222l-37.987556-0.014222 0.725333-1.706667 2.56-5.304889c0.881778-1.863111 1.493333-3.541333 2.332445-6.229333l1.806222-6.186667c2.56-8.974222 4.024889-10.325333 14.364445-10.325333z" fill="#B2181A" /><path d="M696.035556 237.141333c3.555556 8.106667 0.199111 17.578667-7.68 21.617778L216.903111 500.750222a34.232889 34.232889 0 0 1-46.648889-15.985778 34.503111 34.503111 0 0 1 17.635556-46.264888l487.352889-209.564445a15.872 15.872 0 0 1 20.792889 8.206222z" fill="#FB3635" /><path d="M696.135111 237.354667c3.555556 8.106667 0.184889 17.578667-7.694222 21.617777L216.988444 500.977778a34.232889 34.232889 0 0 1-44.942222-12.771556l-1.422222-2.631111-0.284444-0.583111a34.503111 34.503111 0 0 1 14.648888-44.828444l2.503112-1.237334 487.822222-209.777778a15.872 15.872 0 0 1 20.821333 8.206223z m-13.027555 5.717333a1.649778 1.649778 0 0 0-1.649778-0.981333l-0.512 0.128-487.921778 209.820444a20.280889 20.280889 0 0 0-10.538667 25.130667l0.896 2.147555 0.170667 0.341334c4.750222 9.244444 15.715556 13.226667 25.187556 9.457777l1.763555-0.796444L681.941333 246.328889a2.517333 2.517333 0 0 0 1.166223-3.271111z" fill="#B2181A" /></svg>