<?xml version="1.0" encoding="utf-8"?>
<!-- Uploaded to: SVG Repo, www.svgrepo.com, Generator: SVG Repo Mixer Tools -->
<svg width="800px" height="800px" viewBox="0 0 1024 1024" class="icon"  version="1.1" xmlns="http://www.w3.org/2000/svg"><path d="M513.6 830.112c-0.384-3.712-0.416-7.52-0.672-11.296-0.288-5.568-0.928-11.072-0.928-16.768l0.064-1.024L512 800a288 288 0 0 1 288-288c36.192 0 70.688 6.976 102.592 19.168L496 124.608 96 524.576V1024h520.48a287.136 287.136 0 0 1-102.88-193.888z" fill="#EAEAEA" /><path d="M256 672h224v352H256z" fill="#434854" /><path d="M768 513.888V512h-96v30.272a285.536 285.536 0 0 1 96-28.384zM560.576 640H544v28.448a279.36 279.36 0 0 1 16.576-28.448zM640 560.576V512h-96v96h41.76A289.12 289.12 0 0 1 640 560.576z" fill="#469FCC" /><path d="M544 512h96v32h-96zM768 513.888V512h-96v30.272a285.536 285.536 0 0 1 96-28.384zM560.576 640H544v28.448a279.36 279.36 0 0 1 16.576-28.448z" fill="" /><path d="M238.24 1024A126.656 126.656 0 0 0 256 960a128 128 0 0 0-256 0c0 23.424 6.752 45.088 17.76 64h220.48z" fill="#3AAD73" /><path d="M928 542.272V512L496 64 96 480v96L496 176l338.208 338.208a285.888 285.888 0 0 1 93.792 28.064z" fill="" /><path d="M983.168 577.76c2.336-1.376 4.768-2.496 6.784-4.512l22.624-22.624a31.968 31.968 0 0 0 0-45.248L541.248 34.048l-22.624-22.624a31.968 31.968 0 0 0-45.248 0l-22.624 22.624L11.424 473.376a31.968 31.968 0 0 0 0 45.248l22.624 22.624a31.968 31.968 0 0 0 45.248 0L496 124.608l406.592 406.56c29.44 11.2 56.704 26.848 80.576 46.592z" fill="#EF4D4D" /><path d="M800 800m-224 0a224 224 0 1 0 448 0 224 224 0 1 0-448 0Z" fill="#3AAD73" /><path d="M896 767.968h-64v-64a32 32 0 1 0-64 0v64h-64a32 32 0 1 0 0 64h64v64a32 32 0 1 0 64 0v-64h64a32 32 0 1 0 0-64z" fill="#FFFFFF" /></svg>