<?xml version="1.0" ?>
<!DOCTYPE svg  PUBLIC '-//W3C//DTD SVG 1.1//EN'  'http://www.w3.org/Graphics/SVG/1.1/DTD/svg11.dtd'>
<!-- Uploaded to: SVG Repo, www.svgrepo.com, Generator: SVG Repo Mixer Tools -->
<svg width="800px" height="800px" viewBox="0 0 32 32" enable-background="new 0 0 32 32" version="1.1" xml:space="preserve" xmlns="http://www.w3.org/2000/svg" xmlns:xlink="http://www.w3.org/1999/xlink">
<g id="Home"/>
<g id="Print"/>
<g id="Mail"/>
<g id="Camera"/>
<g id="Video"/>
<g id="Film"/>
<g id="Message"/>
<g id="Telephone"/>
<g id="User"/>
<g id="File"/>
<g id="Folder"/>
<g id="Map"/>
<g id="Download"/>
<g id="Upload"/>
<g id="Video_Recorder"/>
<g id="Schedule"/>
<g id="Cart"/>
<g id="Setting"/>
<g id="Search"/>
<g id="Pencils"/>
<g id="Group"/>
<g id="Record"/>
<g id="Headphone"/>
<g id="Music_Player"/>
<g id="Sound_On"/>
<g id="Sound_Off"/>
<g id="Lock"/>
<g id="Lock_open"/>
<g id="Love"/>
<g id="Favorite"/>
<g id="Film_1_"/>
<g id="Music"/>
<g id="Puzzle"/>
<g id="Turn_Off"/>
<g id="Book"/>
<g id="Save"/>
<g id="Reload"/>
<g id="Trash"/>
<g id="Tag"/>
<g id="Link"/>
<g id="Like"/>
<g id="Bad"/>
<g id="Gallery">
<path d="M26,1H16H6C3.2,1,1,3.2,1,6v15v5c0,2.8,2.2,5,5,5h10h10c2.8,0,5-2.2,5-5V6C31,3.2,28.8,1,26,1z" fill="#FFC10A"/>
<g>
<circle cx="23" cy="9" fill="#0E9688" r="4"/>
<path d="M31,25.9c0-0.3-0.1-0.5-0.3-0.7L29,23.7L16,12v0.1l-5.3-4.8C10.5,7.1,10.2,7,9.9,7C9.6,7,9.3,7.2,9.2,7.5    L3,17.5l-1.8,3C1,20.6,1,20.8,1,21v5c0,2.8,2.2,5,5,5h10h10C28.8,31,31,28.8,31,25.9C31,26,31,26,31,25.9C31,26,31,26,31,25.9z" fill="#0E9688"/>
</g>
</g>
<g id="Add"/>
<g id="Close"/>
<g id="Forward"/>
<g id="Back"/>
<g id="Buy"/>
<g id="Mac"/>
<g id="Laptop"/>
</svg>