<?xml version="1.0" encoding="utf-8"?>
<!-- Uploaded to: SVG Repo, www.svgrepo.com, Generator: SVG Repo Mixer Tools -->
<svg width="800px" height="800px" viewBox="0 -0.58 79.905 79.905" xmlns="http://www.w3.org/2000/svg">
  <g id="gamepad_controller" data-name="gamepad controller" transform="translate(-463.59 -1569.995)">
    <path id="Path_333" data-name="Path 333" d="M543.495,1637.573c0,6.174-4.7,11.174-10.5,11.174H474.088c-5.8,0-10.5-5-10.5-11.174V1617.64c0-6.166,4.7-11.166,10.5-11.166h58.906c5.8,0,10.5,5,10.5,11.166Z" fill="#f4f4f4"/>
    <g id="Group_130" data-name="Group 130">
      <path id="Path_334" data-name="Path 334" d="M522.584,1634.075a4.966,4.966,0,1,1-4.97-4.965A4.971,4.971,0,0,1,522.584,1634.075Z" fill="#f44b41"/>
      <path id="Path_335" data-name="Path 335" d="M535.524,1621.14a4.97,4.97,0,1,1-4.967-4.965A4.97,4.97,0,0,1,535.524,1621.14Z" fill="#27b7ff"/>
    </g>
    <path id="Path_336" data-name="Path 336" d="M490.872,1623.921H487.26v-3.606a3.687,3.687,0,1,0-7.374,0v3.606h-3.6a3.688,3.688,0,1,0,0,7.375h3.6v3.609a3.687,3.687,0,1,0,7.374,0V1631.3h3.612a3.688,3.688,0,0,0,0-7.375Z" fill="#163844"/>
    <g id="Group_131" data-name="Group 131">
      <path id="Path_337" data-name="Path 337" d="M523.759,1569.995c-.069,5.93-1.226,9.787-3.148,12.432-1.965,2.721-4.9,4.474-9.211,5.8-13.365,4.25-17.609,14.043-18.82,18.226h5.245c1.426-3.758,5.107-10.306,15.054-13.478,4.831-1.469,8.956-3.75,11.758-7.629,2.734-3.779,4.026-8.789,4.092-15.346Z" fill="#163844"/>
    </g>
  </g>
</svg>