<?xml version="1.0" encoding="utf-8"?>
<!-- Uploaded to: SVG Repo, www.svgrepo.com, Generator: SVG Repo Mixer Tools -->
<svg width="800px" height="800px" viewBox="0 0 1024 1024" class="icon"  version="1.1" xmlns="http://www.w3.org/2000/svg"><path d="M284.444444 170.666667m71.111112 0l369.777777 0q71.111111 0 71.111111 71.111111l0 540.444444q0 71.111111-71.111111 71.111111l-369.777777 0q-71.111111 0-71.111112-71.111111l0-540.444444q0-71.111111 71.111112-71.111111Z" fill="#CE2927" /><path d="M725.333333 170.666667a71.111111 71.111111 0 0 1 71.111111 71.111111v540.444444a71.111111 71.111111 0 0 1-71.111111 71.111111H355.555556a71.111111 71.111111 0 0 1-71.111112-71.111111V241.777778a71.111111 71.111111 0 0 1 71.111112-71.111111h369.777777z m0 14.222222H355.555556a56.888889 56.888889 0 0 0-56.817778 54.044444L298.666667 241.777778v540.444444a56.888889 56.888889 0 0 0 54.044444 56.817778L355.555556 839.111111h369.777777a56.888889 56.888889 0 0 0 56.817778-54.044444L782.222222 782.222222V241.777778a56.888889 56.888889 0 0 0-54.044444-56.817778L725.333333 184.888889z" fill="#B2181A" /><path d="M227.555556 170.666667m71.111111 0l369.777777 0q71.111111 0 71.111112 71.111111l0 540.444444q0 71.111111-71.111112 71.111111l-369.777777 0q-71.111111 0-71.111111-71.111111l0-540.444444q0-71.111111 71.111111-71.111111Z" fill="#FB3635" /><path d="M668.444444 170.666667a71.111111 71.111111 0 0 1 71.111112 71.111111v540.444444a71.111111 71.111111 0 0 1-71.111112 71.111111H298.666667a71.111111 71.111111 0 0 1-71.111111-71.111111V241.777778a71.111111 71.111111 0 0 1 71.111111-71.111111h369.777777z m0 14.222222H298.666667a56.888889 56.888889 0 0 0-56.817778 54.044444L241.777778 241.777778v540.444444a56.888889 56.888889 0 0 0 54.044444 56.817778L298.666667 839.111111h369.777777a56.888889 56.888889 0 0 0 56.817778-54.044444L725.333333 782.222222V241.777778a56.888889 56.888889 0 0 0-54.044444-56.817778L668.444444 184.888889z" fill="#B2181A" /><path d="M540.444444 199.111111h113.777778a56.888889 56.888889 0 0 1 56.888889 56.888889v113.777778L540.444444 199.111111z" fill="#FDD821" /><path d="M654.222222 199.111111a56.888889 56.888889 0 0 1 56.888889 56.888889v113.777778L540.444444 199.111111h113.777778z m42.666667 136.32V256a42.666667 42.666667 0 0 0-40.163556-42.595556L654.222222 213.333333h-79.431111L696.888889 335.431111z" fill="#B2181A" /><path d="M426.666667 824.888889h-113.777778a56.888889 56.888889 0 0 1-56.888889-56.888889v-113.777778l170.666667 170.666667z" fill="#FDD821" /><path d="M312.888889 824.888889a56.888889 56.888889 0 0 1-56.888889-56.888889v-113.777778l170.666667 170.666667h-113.777778z m-42.666667-136.32V768a42.666667 42.666667 0 0 0 40.163556 42.595556L312.888889 810.666667h79.431111L270.222222 688.568889z" fill="#B2181A" /><path d="M489.429333 530.702222c4.906667 0.654222 11.207111-1.28 18.915556-5.774222a42.737778 42.737778 0 0 0 16.327111-19.114667 47.075556 47.075556 0 0 0 3.982222-25.486222c-0.540444-3.456 2.119111-5.319111 7.964445-5.575111a95.288889 95.288889 0 0 1 10.154666-0.796444c2.247111 0 4.181333 0.128 5.774223 0.398222 5.304889 0.526222 7.424 4.380444 6.371555 11.548444a85.319111 85.319111 0 0 0-1.194667 17.322667c0.256 4.636444 1.521778 8.419556 3.783112 11.349333 2.247111 2.915556 5.575111 5.034667 9.955555 6.371556 4.380444 1.322667 10.154667 2.119111 17.322667 2.389333 10.353778 0.526222 18.645333-0.071111 24.888889-1.792 6.229333-1.735111 12.003556-4.849778 17.322666-9.358222 4.508444-3.726222 4.778667-8.362667 0.796445-13.937778-1.066667-1.592889-3.584-1.863111-7.566222-0.796444-14.336 3.982222-24.291556 5.304889-29.866667 3.982222-5.575111-1.336889-8.903111-4.124444-9.955556-8.362667a52.209778 52.209778 0 0 1-0.597333-10.752c0.128-4.266667 0.725333-7.566222 1.792-9.955555 1.322667-3.185778 2.446222-5.12 3.384889-5.774223 0.924444-0.668444 1.649778-0.739556 2.190222-0.199111l11.150222 7.765334c3.982222 2.787556 7.822222 5.632 11.548445 8.561777 5.304889 4.238222 10.012444 7.495111 14.136889 9.756445 4.110222 2.247111 7.822222 3.697778 11.150222 4.380444 3.313778 0.654222 6.428444 0.597333 9.358222-0.199111 2.915556-0.796444 5.831111-2.275556 8.760889-4.380444 5.304889-3.456 9.486222-7.04 12.544-10.752 3.043556-3.726222 6.030222-8.760889 8.96-15.132445 0.796444-1.863111 0.725333-3.527111-0.199111-4.977777-0.938667-1.464889-2.858667-2.460444-5.774222-2.986667a440.32 440.32 0 0 1-20.110223-4.181333 325.205333 325.205333 0 0 1-19.313777-5.176889c-6.641778-1.991111-13.937778-4.380444-21.902223-7.168a974.023111 974.023111 0 0 1-27.477333-10.154667c-2.659556-1.066667-3.982222-2.062222-3.982222-2.986667 0-0.938667 1.592889-2.190222 4.778667-3.783111a137.400889 137.400889 0 0 0 8.760888-3.982222c7.168-3.456 11.278222-7.367111 12.344889-11.747556 1.052444-4.380444-0.938667-8.433778-5.973333-12.145777-11.420444-8.760889-19.911111-5.845333-25.486222 8.760889-1.336889 3.697778-3.456 7.822222-6.371556 12.344888-1.863111 2.915556-3.527111 4.579556-4.977778 4.977778-1.464889 0.398222-3.128889 0.056889-4.977777-0.995555a35.2 35.2 0 0 0-4.977778-2.389334 81.607111 81.607111 0 0 1-6.172445-2.787555c-2.929778-1.336889-4.252444-2.588444-3.982222-3.783111 0.256-1.194667 1.720889-2.062222 4.380445-2.588445 4.238222-0.796444 7.623111-2.275556 10.154666-4.380444a12.615111 12.615111 0 0 0 4.579556-7.168 10.325333 10.325333 0 0 0-1.592889-7.765334c-1.592889-2.531556-4.252444-4.451556-7.964444-5.774222-6.371556-2.133333-11.349333-2.062222-14.933334 0.199111-3.584 2.247111-5.518222 6.030222-5.774222 11.349334l-0.796444 3.783111a42.979556 42.979556 0 0 1-1.194667 4.181333c-0.796444 2.119111-1.863111 3.384889-3.185778 3.783111-1.336889 0.398222-3.456-0.071111-6.371555-1.393778a42.951111 42.951111 0 0 0-10.353778-2.190222c-3.982222-0.398222-7.310222-0.071111-9.955556 0.995556a13.866667 13.866667 0 0 0-6.968889 5.774222 8.704 8.704 0 0 0-0.995555 7.367111c0.796444 2.389333 2.588444 4.579556 5.376 6.570667s6.826667 3.114667 12.145778 3.384889c5.034667 0.256 10.154667 1.052444 15.331555 2.389333 5.176889 1.322667 9.614222 2.915556 13.340445 4.778667l15.331555 8.362666c4.380444 2.389333 8.817778 4.636444 13.340445 6.769778 2.389333 1.052444 2.389333 1.991111 0 2.787556-2.133333 0.796444-4.124444 1.848889-5.973334 3.185777-1.863111 1.322667-4.778667 2.119111-8.760889 2.389334-3.982222 0.256-11.150222 0.128-21.504-0.398222-2.659556 0-5.845333-0.938667-9.557333-2.787556a15.729778 15.729778 0 0 0-5.774222-2.389333 16.967111 16.967111 0 0 0-6.172445 0.398222c-3.982222 1.052444-6.641778 2.645333-7.964444 4.778667-1.336889 2.119111-1.592889 4.636444-0.796445 7.566222 3.712 11.946667 3.84 21.034667 0.398223 27.278222-3.456 6.229333-11.548444 10.808889-24.291556 13.738667a6.684444 6.684444 0 0 0-4.977778 3.982222c-0.938667 2.119111-0.469333 4.238222 1.393778 6.371555 6.101333 7.424 11.605333 11.477333 16.526222 12.145778z m-121.656889 91.989334c14.065778 4.906667 31.459556 5.504 52.167112 1.792 12.472889-2.133333 21.703111-6.513778 27.676444-13.141334 5.973333-6.641778 10.282667-17.123556 12.942222-31.459555 1.052444-5.319111 1.92-9.429333 2.588445-12.344889 0.654222-2.929778 2.048-6.257778 4.181333-9.955556 1.592889-2.929778 2.318222-6.044444 2.190222-9.358222-0.142222-3.328-0.995556-5.916444-2.588444-7.765333a18.972444 18.972444 0 0 0-11.946667-6.968889c-5.048889-0.938667-10.624 0.056889-16.725333 2.986666-1.592889 0.796444-4.650667 1.450667-9.159111 1.991112a393.528889 393.528889 0 0 1-23.495111 1.592888 5.888 5.888 0 0 1-5.176889-1.592888c-1.336889-1.336889-1.863111-3.456-1.592889-6.371556 0.256-3.982222 1.251556-6.712889 2.986666-8.163556 1.720889-1.464889 4.977778-2.332444 9.756445-2.588444 6.897778-0.284444 12.600889-0.284444 17.123555 0 4.508444 0.256 9.016889 0.796444 13.539556 1.592889 8.220444 1.322667 14.663111 0.398222 19.313778-2.787556 4.636444-3.185778 6.698667-7.04 6.172444-11.548444-0.540444-6.912-0.469333-12.344889 0.199111-16.327111a24.035556 24.035556 0 0 1 4.181334-10.353778c1.322667-1.592889 1.649778-3.925333 0.995555-6.968889-0.668444-3.057778-2.730667-5.646222-6.172444-7.765333a28.942222 28.942222 0 0 0-12.942222-5.176889c-4.380444-0.540444-7.907556-0.284444-10.552889 0.796444-3.456 1.592889-6.968889 2.645333-10.552889 3.185778-3.584 0.526222-9.230222 0.526222-16.924445 0-5.048889-0.284444-5.319111-1.592889-0.796444-3.982222 14.065778-7.168 25.685333-13.681778 34.844444-19.512889a218.595556 218.595556 0 0 0 25.685334-19.114667 12.544 12.544 0 0 0 4.778666-9.159111 19.399111 19.399111 0 0 0-2.787555-11.150222c-1.066667-1.592889-3.185778-2.787556-6.371556-3.584-3.185778-0.796444-9.301333-1.194667-18.318222-1.194667-3.185778 0-6.641778-0.341333-10.353778-0.995555a103.537778 103.537778 0 0 1-20.707555-5.973334 39.68 39.68 0 0 1-6.769778-3.384888c-1.592889-1.336889-3.982222-2.062222-7.168-2.190223-3.185778-0.142222-5.447111 0.199111-6.769778 0.995556a20.622222 20.622222 0 0 1-9.955555 3.584c-4.522667 0.796444-7.566222 3.697778-9.159112 8.760889a10.865778 10.865778 0 0 0 0.597334 7.964444c1.194667 2.389333 3.384889 3.441778 6.570666 3.185778 3.712-0.284444 7.296-0.398222 10.752-0.398222 3.441778 0 7.025778 0.256 10.752 0.796444 9.557333 1.052444 15.729778 3.043556 18.517334 5.973334 2.787556 2.915556 3.114667 5.688889 0.995555 8.362666a49.109333 49.109333 0 0 1-7.964444 8.362667c-2.389333 1.848889-5.845333 3.982222-10.353778 6.371555-1.336889 0.526222-1.991111 0.128-1.991111-1.194666 0-1.336889-1.464889-2.787556-4.380444-4.380445a69.831111 69.831111 0 0 1-11.946667-7.566222c-3.726222-2.929778-6.243556-5.176889-7.566222-6.769778-3.185778-4.522667-7.239111-6.641778-12.145778-6.371555-4.920889 0.256-8.305778 2.389333-10.154667 6.371555-2.929778 5.304889-3.925333 9.813333-2.986666 13.539556 0.924444 3.697778 4.437333 6.627556 10.552888 8.760889 4.778667 1.592889 9.016889 2.645333 12.743112 3.185778 3.712 0.526222 8.220444 0.256 13.539555-0.796445 0.796444-0.284444 1.251556-0.199111 1.393778 0.199111 0.128 0.398222-0.199111 0.853333-0.995556 1.393778-3.982222 2.119111-8.504889 4.039111-13.539555 5.774222-5.048889 1.706667-11.093333 3.384889-18.119111 4.977778-7.04 1.592889-15.331556 2.986667-24.888889 4.181333a546.844444 546.844444 0 0 1-33.848889 2.986667c-3.185778 0.256-5.646222 1.450667-7.367111 3.584a6.115556 6.115556 0 0 0-0.995556 6.769778c1.052444 2.389333 2.119111 4.579556 3.185778 6.570666 1.052444 1.991111 2.517333 4.039111 4.380444 6.172445 4.778667 5.831111 11.747556 8.561778 20.906667 8.163555 9.159111-0.398222 23.153778-4.579556 42.012445-12.544 1.848889-0.796444 3.043556-0.540444 3.584 0.796445 2.119111 5.034667 8.888889 6.229333 20.309333 3.584 6.371556-1.592889 12.344889-2.730667 17.92-3.384889a85.432889 85.432889 0 0 1 17.521778-0.199111c7.168 0.256 10.481778 3.441778 9.955555 9.557333-0.796444 7.424-3.584 11.278222-8.362666 11.548445a125.141333 125.141333 0 0 1-10.353778 0.398222c-3.726222 0-7.438222-0.071111-11.150222-0.199111a80.625778 80.625778 0 0 1-17.92-2.588445c-7.708444-2.389333-14.08-1.464889-19.114667 2.787556-3.185778 2.645333-4.252444 6.627556-3.185778 11.946667 0.796444 4.238222 0.597333 9.486222-0.597333 15.729777a53.632 53.632 0 0 1-6.172445 16.924445c-1.336889 2.119111-1.664 4.181333-0.995555 6.172444 0.654222 1.991111 1.991111 3.640889 3.982222 4.977778 1.991111 1.322667 4.508444 2.119111 7.566222 2.389333 3.043556 0.256 6.300444-0.284444 9.756445-1.592889a90.908444 90.908444 0 0 1 20.707555-4.977777c7.424-0.938667 13.667556-0.995556 18.716445-0.199111 8.490667 1.592889 12.074667 5.034667 10.752 10.353777-2.133333 7.964444-5.717333 14.264889-10.752 18.915556-5.048889 4.636444-12.615111 8.021333-22.698667 10.154667-17.792 3.982222-36.110222 2.915556-54.954667-3.185778-3.185778-1.066667-5.518222-0.796444-6.968889 0.796444-1.464889 1.592889-1.265778 3.84 0.597334 6.769778 5.831111 10.083556 15.786667 17.578667 29.866666 22.499556z m270.222223 12.871111l1.763555-0.142223c2.915556-0.384 5.831111-2.176 8.760889-5.361777 4.238222-4.778667 4.110222-8.248889-0.398222-10.353778a1127.111111 1127.111111 0 0 0-28.672-14.734222c-12.216889-6.115556-25.088-12.487111-38.627556-19.114667a3.968 3.968 0 0 1-2.389333-3.783111c0-1.735111 1.194667-4.053333 3.584-6.968889 4.508444-5.575111 7.964444-10.154667 10.353778-13.738667 2.389333-3.584 4.380444-6.840889 5.973333-9.756444 2.389333-4.522667 3.313778-8.561778 2.787556-12.145778a15.132444 15.132444 0 0 0-4.181334-8.760889 16.213333 16.213333 0 0 0-8.760889-4.380444 24.32 24.32 0 0 0-11.747555 0.995555 35.754667 35.754667 0 0 1-7.566222 1.991111c-2.133333 0.256-4.778667 0.128-7.964445-0.398222a514.659556 514.659556 0 0 0-23.096889-2.787555 111.786667 111.786667 0 0 0-13.738666-0.597334c-3.328 0.128-5.845333 0.597333-7.566223 1.393778-1.735111 0.796444-3.128889 1.706667-4.181333 2.787556-2.929778 2.915556-4.522667 5.632-4.778667 8.163555a12.416 12.416 0 0 0 1.991112 7.765334c0.526222 0.796444 1.720889 1.251556 3.584 1.393777 1.848889 0.128 4.636444-0.341333 8.362666-1.393777a82.076444 82.076444 0 0 1 31.260445-2.389334c4.110222 0.526222 7.495111 1.450667 10.154666 2.787556 2.645333 1.322667 4.110222 2.787556 4.380445 4.380444 0.256 2.915556-3.854222 9.016889-12.344889 18.318222-1.592889 1.592889-3.584 1.848889-5.973333 0.796445-5.048889-2.133333-9.301333-3.982222-12.743112-5.575111a382.549333 382.549333 0 0 1-10.752-5.176889c-9.301333-4.778667-16.327111-6.968889-21.105777-6.570667-4.778667 0.398222-8.234667 2.190222-10.353778 5.376-3.456 5.034667-4.053333 9.955556-1.792 14.734222 2.247111 4.778667 7.495111 8.220444 15.729778 10.353778 4.238222 0.796444 8.760889 2.517333 13.539555 5.176889 2.389333 1.322667 2.645333 2.517333 0.796445 3.584-9.301333 4.508444-17.792 7.495111-25.486223 8.96a130.190222 130.190222 0 0 1-24.291555 2.190222c-6.115556 0-8.106667 2.915556-5.973333 8.760889 3.982222 10.609778 10.88 16.725333 20.707555 18.318222 9.813333 1.592889 24.149333-2.133333 43.008-11.150222a93.368889 93.368889 0 0 0 22.300445-13.937778c1.052444-1.066667 2.787556-1.194667 5.176888-0.398222 14.336 5.575111 27.136 10.752 38.428445 15.530667 11.278222 4.778667 22.755556 9.557333 34.446222 14.336 3.185778 1.322667 6.229333 1.792 9.159111 1.393778l-1.777778 0.142222z" fill="#FADB9A" /></svg>