<?xml version="1.0" encoding="utf-8"?>
<!-- Uploaded to: SVG Repo, www.svgrepo.com, Generator: SVG Repo Mixer Tools -->
<svg width="800px" height="800px" viewBox="0 0 1024 1024" class="icon"  version="1.1" xmlns="http://www.w3.org/2000/svg"><path d="M192 0C160 96 160 256 160 256c0 194.4 157.6 352 352 352s352-157.6 352-352c0 0 0-160-32-256H192z" fill="#EAEAEA" /><path d="M512 576c176.704 0 320-143.296 320-320H192c0 176.704 143.296 320 320 320z" fill="#EF4D4D" /><path d="M608 960h-64V606.464c-10.56 0.928-21.184 1.536-32 1.536s-21.44-0.608-32-1.536V960h-64a64 64 0 0 0-64 64h320a64 64 0 0 0-64-64z" fill="#EAEAEA" /><path d="M848.64 358.976C766.496 452.608 646.304 512 512 512s-254.496-59.392-336.64-153.024c41.056 134.336 160.256 234.464 304.64 247.488V640h64v-33.536c144.384-13.024 263.552-113.152 304.64-247.488z" fill="" /><path d="M256 0h32v256H256z" fill="#FFFFFF" /><path d="M256 368a16 16 0 0 0 32 0V256H256v112z" fill="#FFFFFF" /></svg>