<?xml version="1.0" ?>
<!DOCTYPE svg  PUBLIC '-//W3C//DTD SVG 1.1//EN'  'http://www.w3.org/Graphics/SVG/1.1/DTD/svg11.dtd'>
<!-- Uploaded to: SVG Repo, www.svgrepo.com, Generator: SVG Repo Mixer Tools -->
<svg width="800px" height="800px" viewBox="0 0 32 32" enable-background="new 0 0 32 32" version="1.1" xml:space="preserve" xmlns="http://www.w3.org/2000/svg" xmlns:xlink="http://www.w3.org/1999/xlink">
<g id="Home"/>
<g id="Print"/>
<g id="Mail"/>
<g id="Camera"/>
<g id="Video"/>
<g id="Film"/>
<g id="Message"/>
<g id="Telephone"/>
<g id="User"/>
<g id="File"/>
<g id="Folder"/>
<g id="Map">
<path d="M22.4,21.4c3.1-3.9,4.6-7.1,4.6-9.4c0-6.1-4.9-11-11-11S5,5.9,5,12c0,2.4,1.5,5.5,4.6,9.4   C6.3,21.9,1,23.1,1,26c0,3.4,7.8,5,15,5c7.2,0,15-1.6,15-5C31,23.1,25.7,21.9,22.4,21.4z" fill="#FFC10A"/>
<path d="M22.4,21.4c-0.3,0.5-0.7,0.9-1.1,1.4c-0.1,0.1-0.2,0.3-0.3,0.4c-0.8,0.9-1.5,1.7-2.1,2.3   c-0.1,0.1-0.2,0.3-0.3,0.4c-0.1,0-0.1,0.1-0.2,0.1c-0.4,0.4-0.7,0.8-1,1c-0.1,0.1-0.1,0.2-0.2,0.2C17,27.4,17,27.4,17,27.5   c-0.1,0.1-0.2,0.2-0.2,0.2c0,0,0,0,0,0C16.5,27.9,16.3,28,16,28s-0.5-0.1-0.7-0.3c0,0,0,0,0,0c0,0-0.1-0.1-0.2-0.2   c0,0-0.1-0.1-0.2-0.2c-0.1-0.1-0.1-0.1-0.2-0.2c-0.3-0.3-0.6-0.6-1-1c0,0-0.1-0.1-0.2-0.1c-0.1-0.1-0.2-0.2-0.3-0.4   c-0.6-0.7-1.3-1.4-2.1-2.3c-0.1-0.1-0.2-0.3-0.3-0.4c-0.4-0.5-0.8-1-1.2-1.4C6.3,21.9,1,23.1,1,26c0,3.4,7.8,5,15,5   c7.2,0,15-1.6,15-5C31,23.1,25.7,21.9,22.4,21.4z" fill="#9C27B0"/>
<path d="M16,5c-3.3,0-6,2.7-6,6s2.7,6,6,6s6-2.7,6-6S19.3,5,16,5z" fill="#9C27B0"/>
</g>
<g id="Download"/>
<g id="Upload"/>
<g id="Video_Recorder"/>
<g id="Schedule"/>
<g id="Cart"/>
<g id="Setting"/>
<g id="Search"/>
<g id="Pencils"/>
<g id="Group"/>
<g id="Record"/>
<g id="Headphone"/>
<g id="Music_Player"/>
<g id="Sound_On"/>
<g id="Sound_Off"/>
<g id="Lock"/>
<g id="Lock_open"/>
<g id="Love"/>
<g id="Favorite"/>
<g id="Film_1_"/>
<g id="Music"/>
<g id="Puzzle"/>
<g id="Turn_Off"/>
<g id="Book"/>
<g id="Save"/>
<g id="Reload"/>
<g id="Trash"/>
<g id="Tag"/>
<g id="Link"/>
<g id="Like"/>
<g id="Bad"/>
<g id="Gallery"/>
<g id="Add"/>
<g id="Close"/>
<g id="Forward"/>
<g id="Back"/>
<g id="Buy"/>
<g id="Mac"/>
<g id="Laptop"/>
</svg>