<?xml version="1.0" ?>
<!DOCTYPE svg  PUBLIC '-//W3C//DTD SVG 1.1//EN'  'http://www.w3.org/Graphics/SVG/1.1/DTD/svg11.dtd'>
<!-- Uploaded to: SVG Repo, www.svgrepo.com, Generator: SVG Repo Mixer Tools -->
<svg width="800px" height="800px" viewBox="0 0 32 32" enable-background="new 0 0 32 32" version="1.1" xml:space="preserve" xmlns="http://www.w3.org/2000/svg" xmlns:xlink="http://www.w3.org/1999/xlink">
<g id="Home"/>
<g id="Print"/>
<g id="Mail"/>
<g id="Camera"/>
<g id="Video"/>
<g id="Film"/>
<g id="Message"/>
<g id="Telephone"/>
<g id="User"/>
<g id="File"/>
<g id="Folder"/>
<g id="Map"/>
<g id="Download">
<line fill="none" x1="16" x2="16" y1="29" y2="28"/>
<path d="M25.9,17.6C25.8,17.2,25.4,17,25,17h0h-4V2c0-0.5-0.5-1-1-1h0h-4h0h-4c-0.5,0-1,0.5-1,1v15H7   c-0.4,0-0.8,0.2-0.9,0.6C5.9,18,6,18.4,6.3,18.7l9,9c0.2,0.2,0.5,0.3,0.7,0.3c0,0,0,0,0,0v0c0.3,0,0.5-0.1,0.7-0.3l9-9   C26,18.4,26.1,18,25.9,17.6z" fill="#0E9688"/>
<path d="M30,17c-0.5,0-1,0.5-1,1v8c0,1.6-1.3,3-3,3H16H6c-1.7,0-3-1.4-3-3v-8c0-0.5-0.5-1-1-1s-1,0.5-1,1v8   c0,2.8,2.2,5,5,5h10h10c2.8,0,5-2.2,5-5v-8C31,17.5,30.5,17,30,17z" fill="#F44236"/>
</g>
<g id="Upload"/>
<g id="Video_Recorder"/>
<g id="Schedule"/>
<g id="Cart"/>
<g id="Setting"/>
<g id="Search"/>
<g id="Pencils"/>
<g id="Group"/>
<g id="Record"/>
<g id="Headphone"/>
<g id="Music_Player"/>
<g id="Sound_On"/>
<g id="Sound_Off"/>
<g id="Lock"/>
<g id="Lock_open"/>
<g id="Love"/>
<g id="Favorite"/>
<g id="Film_1_"/>
<g id="Music"/>
<g id="Puzzle"/>
<g id="Turn_Off"/>
<g id="Book"/>
<g id="Save"/>
<g id="Reload"/>
<g id="Trash"/>
<g id="Tag"/>
<g id="Link"/>
<g id="Like"/>
<g id="Bad"/>
<g id="Gallery"/>
<g id="Add"/>
<g id="Close"/>
<g id="Forward"/>
<g id="Back"/>
<g id="Buy"/>
<g id="Mac"/>
<g id="Laptop"/>
</svg>