<?xml version="1.0" ?>
<!-- Uploaded to: SVG Repo, www.svgrepo.com, Generator: SVG Repo Mixer Tools -->
<svg width="800px" height="800px" viewBox="0 0 120 120" id="Layer_1" version="1.1" xml:space="preserve" xmlns="http://www.w3.org/2000/svg" xmlns:xlink="http://www.w3.org/1999/xlink">
<style type="text/css">
	.st0{fill:#FFB562;}
	.st1{fill:#3AB0FF;}
	.st2{fill:#FFFFFF;}
</style>
<g>
<path class="st0" d="M98.5,47.1h-3.7l1.6,7.9c0.1,0.7-0.6,1.1-1.1,0.8L82,47.1H71.5c-1.5,0-2.7-1.2-2.7-2.7v-26   c0-1.5,1.2-2.7,2.7-2.7h27c1.5,0,2.7,1.2,2.7,2.7v26C101.2,45.8,100,47.1,98.5,47.1z"/>
<path class="st1" d="M22.3,93h4.8L25,103.3c-0.2,0.8,0.8,1.5,1.5,1L43.7,93h31.5c2,0,3.5-1.6,3.5-3.5V55.6c0-2-1.6-3.5-3.5-3.5   H22.3c-2,0-3.5,1.6-3.5,3.5v33.8C18.8,91.4,20.3,93,22.3,93z"/>
<g>
<path class="st2" d="M85.6,37.3h-1.9c-0.6,0-1.1-0.5-1.1-1.1l0,0c0-1.3,0.2-2.3,0.6-3.2c0.4-0.8,1.3-1.8,2.5-2.7    c1.3-1.1,2-1.7,2.2-2c0.4-0.5,0.6-1.1,0.6-1.7c0-0.8-0.4-1.5-1-2.2c-0.7-0.6-1.5-0.9-2.7-0.9c-1.1,0-2,0.3-2.7,0.9    c-0.4,0.4-0.8,0.8-1.1,1.4c-0.4,0.8-1.2,1.3-2.1,1.3l0,0c-1.4-0.2-2.2-1.8-1.5-3c0.4-0.7,0.9-1.3,1.5-2c1.5-1.3,3.4-1.9,5.7-1.9    c2.5,0,4.4,0.6,5.9,2c1.5,1.3,2.2,2.8,2.2,4.5c0,1-0.3,1.8-0.8,2.7s-1.7,2-3.4,3.4c-0.9,0.8-1.5,1.3-1.7,1.8    c-0.1,0.4-0.3,0.8-0.3,1.5S86.2,37.3,85.6,37.3z M82.7,41v-0.2c0-1.1,0.9-2,2-2H85c1.1,0,2,0.9,2,2V41c0,1.1-0.9,2-2,2h-0.2    C83.7,43.1,82.7,42.1,82.7,41z"/>
</g>
<g>
<path class="st2" d="M31,64.5h8c0.9,0,1.6-0.7,1.6-1.6s-0.7-1.6-1.6-1.6h-8c-0.9,0-1.6,0.7-1.6,1.6S30.1,64.5,31,64.5z"/>
<path class="st2" d="M45.1,64.5h21.3c0.9,0,1.6-0.7,1.6-1.6s-0.7-1.6-1.6-1.6H45.1c-0.9,0-1.6,0.7-1.6,1.6S44.2,64.5,45.1,64.5z"/>
<path class="st2" d="M66.5,67.8H31c-0.9,0-1.6,0.7-1.6,1.6s0.7,1.6,1.6,1.6h35.5c0.9,0,1.6-0.7,1.6-1.6S67.4,67.8,66.5,67.8z"/>
<path class="st2" d="M66.5,74.4H31c-0.9,0-1.6,0.7-1.6,1.6c0,0.9,0.7,1.6,1.6,1.6h35.5c0.9,0,1.6-0.7,1.6-1.6    C68.1,75.1,67.4,74.4,66.5,74.4z"/>
<path class="st2" d="M66.5,81H31c-0.9,0-1.6,0.7-1.6,1.6c0,0.9,0.7,1.6,1.6,1.6h35.5c0.9,0,1.6-0.7,1.6-1.6    C68.1,81.7,67.4,81,66.5,81z"/>
</g>
</g>
</svg>