<?xml version="1.0" ?>
<!DOCTYPE svg  PUBLIC '-//W3C//DTD SVG 1.1//EN'  'http://www.w3.org/Graphics/SVG/1.1/DTD/svg11.dtd'>
<!-- Uploaded to: SVG Repo, www.svgrepo.com, Generator: SVG Repo Mixer Tools -->
<svg width="800px" height="800px" viewBox="0 0 32 32" enable-background="new 0 0 32 32" version="1.1" xml:space="preserve" xmlns="http://www.w3.org/2000/svg" xmlns:xlink="http://www.w3.org/1999/xlink">
<g id="Home"/>
<g id="Print"/>
<g id="Mail"/>
<g id="Camera"/>
<g id="Video"/>
<g id="Film"/>
<g id="Message"/>
<g id="Telephone"/>
<g id="User"/>
<g id="File"/>
<g id="Folder"/>
<g id="Map"/>
<g id="Download"/>
<g id="Upload"/>
<g id="Video_Recorder"/>
<g id="Schedule"/>
<g id="Cart"/>
<g id="Setting"/>
<g id="Search"/>
<g id="Pencils"/>
<g id="Group"/>
<g id="Record"/>
<g id="Headphone"/>
<g id="Music_Player"/>
<g id="Sound_On"/>
<g id="Sound_Off"/>
<g id="Lock"/>
<g id="Lock_open"/>
<g id="Love"/>
<g id="Favorite"/>
<g id="Film_1_"/>
<g id="Music"/>
<g id="Puzzle"/>
<g id="Turn_Off">
<g>
<path d="M29,18c0,7.2-5.8,13-13,13S3,25.2,3,18c0-5.5,3.5-10.4,8.7-12.3c0.5-0.2,1.1,0.1,1.3,0.6    c0.2,0.5-0.1,1.1-0.6,1.3C8,9.2,5,13.3,5,18c0,6.1,4.9,11,11,11s11-4.9,11-11c0-4.7-3-8.8-7.3-10.4c-0.5-0.2-0.8-0.8-0.6-1.3    c0.2-0.5,0.8-0.8,1.3-0.6C25.5,7.6,29,12.5,29,18z" fill="#FE9803"/>
</g>
<g>
<path d="M17,2v10c0,0.5-0.5,1-1,1s-1-0.5-1-1V2c0-0.5,0.5-1,1-1S17,1.5,17,2z" fill="#2197F3"/>
</g>
</g>
<g id="Book"/>
<g id="Save"/>
<g id="Reload"/>
<g id="Trash"/>
<g id="Tag"/>
<g id="Link"/>
<g id="Like"/>
<g id="Bad"/>
<g id="Gallery"/>
<g id="Add"/>
<g id="Close"/>
<g id="Forward"/>
<g id="Back"/>
<g id="Buy"/>
<g id="Mac"/>
<g id="Laptop"/>
</svg>