<?xml version="1.0" encoding="utf-8"?>
<!-- Uploaded to: SVG Repo, www.svgrepo.com, Generator: SVG Repo Mixer Tools -->
<svg width="800px" height="800px" viewBox="0 0 1024 1024" class="icon" style="vertical-align: middle;fill: #000000;overflow: hidden;" version="1.1" xmlns="http://www.w3.org/2000/svg"><path d="M873.8816 913.2032H214.4256c-36.4032 0-65.9456-29.5424-65.9456-65.9456v-385.024c0-21.0944 10.0864-40.9088 27.136-53.2992l324.5568-236.2368a65.9712 65.9712 0 0 1 76.9024-0.512l334.8992 236.8c17.4592 12.3392 27.8528 32.4096 27.8528 53.8624v384.4608c0 36.352-29.5424 65.8944-65.9456 65.8944z" fill="#787CF5" /><path d="M86.1184 460.2368c-8.4992 0-15.36-6.8608-15.36-15.36v-18.2272c0-27.5456 13.312-53.7088 35.584-69.9392l68.096-49.5616c6.8608-5.0176 16.4864-3.4816 21.4528 3.3792 4.9664 6.8608 3.4816 16.4864-3.3792 21.4528l-68.096 49.5616a55.90528 55.90528 0 0 0-22.9376 45.1072v18.2272c0 8.4992-6.8608 15.36-15.36 15.36zM86.1184 629.0944c-8.4992 0-15.36-6.8608-15.36-15.36v-99.1232c0-8.4992 6.8608-15.36 15.36-15.36s15.36 6.8608 15.36 15.36v99.1232c0 8.4992-6.8608 15.36-15.36 15.36zM403.8656 174.5408c-4.7616 0-9.4208-2.2016-12.4416-6.2976-4.9664-6.8608-3.4816-16.4864 3.3792-21.4528l61.6448-44.9024a86.49728 86.49728 0 0 1 100.864-0.7168l64 45.2608c6.912 4.9152 8.5504 14.4896 3.6864 21.4016a15.40096 15.40096 0 0 1-21.4016 3.6864l-64-45.2608c-19.5584-13.824-45.6704-13.6192-65.024 0.4608l-61.6448 44.9024c-2.7648 1.9456-5.9392 2.9184-9.0624 2.9184z" fill="#333333" /><path d="M799.6928 787.4048H280.1664a40.1408 40.1408 0 0 1-40.1408-40.1408v-502.784a40.1408 40.1408 0 0 1 40.1408-40.1408h519.4752a40.1408 40.1408 0 0 1 40.1408 40.1408v502.784c0.0512 22.1696-17.92 40.1408-40.0896 40.1408z" fill="#ECD300" /><path d="M838.4 757.7088c0.9216-3.328 1.4336-6.8096 1.4336-10.4448v-502.784a40.1408 40.1408 0 0 0-40.1408-40.1408h-24.9344v366.0288l-449.28 194.5088 31.744 22.528h393.1136l88.064-29.696z" fill="#E8A200" /><path d="M799.6928 802.7648H224.2048c-30.6176 0-55.5008-24.8832-55.5008-55.5008V226.9696c0-44.544 36.2496-80.7424 80.7424-80.7424h524.9536c44.544 0 80.7424 36.1984 80.7424 80.7424v520.2944c0.0512 30.6176-24.8832 55.5008-55.4496 55.5008zM249.4976 176.9472c-27.5968 0-50.0224 22.4256-50.0224 50.0224v520.2944c0 13.6704 11.1104 24.7808 24.7808 24.7808h575.4368c13.6704 0 24.7808-11.1104 24.7808-24.7808V226.9696c0-27.5968-22.4256-50.0224-50.0224-50.0224H249.4976z" fill="#333333" /><path d="M195.8912 899.4816h674.56c7.5776 0 14.7968-1.3312 21.5552-3.6864L147.7632 568.4224v282.9312c0 26.5728 21.5552 48.128 48.128 48.128z" fill="#8F93FB" /><path d="M147.7632 845.824v5.5296c0 26.5728 21.5552 48.128 48.128 48.128l338.5344-154.0096-82.5344-32.2048-304.128 132.5568z" fill="#787CF5" /><path d="M939.8272 842.0352v-277.248l-197.9904 85.9648-39.936 17.3568-32.768 14.2336L141.5168 911.36c5.0688 1.1776 10.3424 1.792 15.7696 1.792h711.424c39.2704 0.0512 71.1168-31.7952 71.1168-71.1168z" fill="#8F93FB" /><path d="M875.008 828.2112c0 33.1776-0.768 84.4288-82.176 84.4288 0.2048 0.2048 0.4096 0.3584 0.5632 0.5632h75.264c39.2704 0 71.1168-31.8464 71.1168-71.1168v-277.248l-61.9008 26.88-2.9184 2.8672c0.0512-0.0512 0.0512 200.448 0.0512 233.6256z" fill="#787CF5" /><path d="M86.1184 699.9552c8.4992 0 15.36-6.8608 15.36-15.36v-20.736c0-8.4992-6.8608-15.36-15.36-15.36s-15.36 6.8608-15.36 15.36v20.736c0 8.4992 6.912 15.36 15.36 15.36z" fill="#333333" /><path d="M918.6304 356.6592l-65.3824-46.2336a15.34976 15.34976 0 0 0-21.4016 3.6864 15.3088 15.3088 0 0 0 3.6864 21.4016l65.3824 46.2336c14.7456 10.4448 23.552 27.4432 23.552 45.568v127.4368L755.2 628.224a15.3856 15.3856 0 0 0-7.9872 20.224 15.3856 15.3856 0 0 0 20.224 7.9872l157.0816-68.1984v253.8496c0 30.7712-25.0368 55.7568-55.7568 55.7568H211.2512l493.056-214.016a15.3856 15.3856 0 0 0 7.9872-20.224 15.3856 15.3856 0 0 0-20.224-7.9872l-170.2912 73.9328-429.4656-188.8768c-7.7824-3.4304-16.8448 0.1024-20.224 7.8848-3.4304 7.7824 0.1024 16.8448 7.8848 20.224l403.456 177.4592-343.1424 148.9408c-22.4768-7.2192-38.7584-28.2624-38.7584-53.0944v-97.536c0-8.4992-6.8608-15.36-15.36-15.36s-15.36 6.8608-15.36 15.36v97.536c0 40.96 28.672 75.3152 66.9696 84.1728 0.1536 0.0512 0.256 0.1024 0.3584 0.1024 0.1024 0 0.1536 0 0.256 0.0512 3.0208 0.6656 6.0928 1.2288 9.2672 1.5872 0.0512 0 0.1024 0 0.2048 0.0512 3.1232 0.3584 6.2976 0.5632 9.5232 0.5632h711.424c47.7184 0 86.4768-38.8096 86.4768-86.4768V427.264a86.99392 86.99392 0 0 0-36.6592-70.6048z" fill="#333333" /><path d="M643.8912 367.6672c-27.8016-29.7472-72.9088-29.7472-100.7104 0l-20.1216 21.5552-0.256-0.256v-0.1536l-0.1024 0.1024-0.1024-0.1024v0.1536l-0.256 0.256-20.1216-21.5552c-27.8016-29.7472-72.9088-29.7472-100.7104 0-27.8016 29.7472-27.8016 77.9776 0 107.7248l106.6496 114.0736c3.7888 4.0448 8.8576 6.2976 14.1824 6.2976 0.1024 0 0.2048 0 0.3584-0.0512 0.1024 0 0.2048 0.0512 0.3584 0.0512 5.3248 0 10.4448-2.2528 14.1824-6.2976l106.6496-114.0736c27.8016-29.7472 27.8016-77.9776 0-107.7248z" fill="#FF6339" /><path d="M643.8912 367.6672a69.77024 69.77024 0 0 0-26.7776-17.92c18.176 18.6368 30.6176 54.4256 3.7888 83.3536-33.536 36.1472-116.0192 119.04-137.6768 139.9296l24.9344 16.4352c3.7888 4.0448 8.8576 6.2976 14.1824 6.2976 0.1024 0 0.2048 0 0.3584-0.0512 0.1024 0 0.2048 0.0512 0.3584 0.0512 5.3248 0 10.4448-2.2528 14.1824-6.2976l106.6496-114.0736c27.8016-29.7472 27.8016-77.9776 0-107.7248z" fill="#F94A21" /><path d="M510.3616 612.0448h-0.768c-10.24 0-19.8656-3.9936-27.0848-11.2128l-75.0592-75.0592a15.36 15.36 0 0 1 0-21.7088 15.36 15.36 0 0 1 21.7088 0l75.0592 75.0592c1.3312 1.3312 3.072 2.0992 4.9152 2.2016 0.5632-0.0512 1.1264 0 1.6384 0 1.8432-0.1024 3.584-0.8704 4.9152-2.2016l121.8048-121.8048c12.4416-12.4416 19.3024-29.0304 19.3024-46.6432 0-17.6128-6.8608-34.2016-19.3024-46.6432a65.56672 65.56672 0 0 0-46.6432-19.3024c-17.6128 0-34.2016 6.8608-46.6432 19.3024l-22.9888 22.9888c-3.7376 3.7376-8.8576 5.1712-13.6704 4.2496-3.2256-0.4096-6.4-1.792-8.8576-4.2496l-22.9888-22.9888a65.56672 65.56672 0 0 0-46.6432-19.3024c-17.6128 0-34.2016 6.8608-46.6432 19.3024s-19.3024 29.0304-19.3024 46.6432c0 17.6128 6.8608 34.2016 19.3024 46.6432l11.6224 11.6224a15.36 15.36 0 0 1 0 21.7088 15.36 15.36 0 0 1-21.7088 0l-11.6224-11.6224c-18.2784-18.2784-28.3136-42.5472-28.3136-68.352s10.0352-50.1248 28.3136-68.352c18.2784-18.2784 42.5472-28.3136 68.352-28.3136 25.8048 0 50.1248 10.0352 68.352 28.3136l12.544 12.544 12.544-12.544c18.2784-18.2784 42.5472-28.3136 68.352-28.3136 25.8048 0 50.1248 10.0352 68.352 28.3136 18.2784 18.2784 28.3136 42.5472 28.3136 68.352s-10.0352 50.1248-28.3136 68.352l-121.8048 121.8048a37.8624 37.8624 0 0 1-27.0336 11.2128z" fill="#333333" /><path d="M191.7952 757.0944a12.8 12.8 0 0 1-12.8-12.8v-51.8656a12.8 12.8 0 0 1 25.6 0v51.8656a12.8 12.8 0 0 1-12.8 12.8zM438.3232 473.0368c-2.816 0-5.632-0.9216-8.0384-2.816-14.7456-11.8784-22.9376-25.6-24.3712-40.8576-2.0992-22.0672 11.008-38.0928 12.4928-39.8848 4.608-5.376 12.6464-6.0416 18.0224-1.4336a12.8 12.8 0 0 1 1.536 17.9712c-0.256 0.3584-7.7312 9.728-6.5536 21.1968 0.8192 8.0384 5.8368 15.8208 14.9504 23.0912 5.5296 4.4544 6.4 12.4928 1.9456 17.9712-2.56 3.1232-6.2464 4.7616-9.984 4.7616zM286.7712 340.4288a12.8 12.8 0 0 1-12.8-12.8v-4.7616a12.8 12.8 0 0 1 25.6 0v4.7616a12.8 12.8 0 0 1-12.8 12.8z" fill="#FFFFFF" /><path d="M286.7712 297.8304a12.8 12.8 0 0 1-12.8-12.8v-2.6624c0-21.4016 17.408-38.8096 38.8096-38.8096h77.4656a12.8 12.8 0 0 1 0 25.6H312.7808c-7.2704 0-13.2096 5.9392-13.2096 13.2096v2.6624c0 7.1168-5.7344 12.8-12.8 12.8z" fill="#FFFFFF" /></svg>