<?xml version="1.0" encoding="utf-8"?>
<!-- Uploaded to: SVG Repo, www.svgrepo.com, Generator: SVG Repo Mixer Tools -->
<svg width="800px" height="800px" viewBox="0 0 1024 1024" class="icon"  version="1.1" xmlns="http://www.w3.org/2000/svg"><path d="M149.333333 497.777778a362.666667 291.555556 0 1 0 725.333334 0 362.666667 291.555556 0 1 0-725.333334 0Z" fill="#FA1C3D" /><path d="M512 199.111111c204.231111 0 369.777778 133.717333 369.777778 298.666667S716.231111 796.444444 512 796.444444s-369.777778-133.717333-369.777778-298.666666 165.546667-298.666667 369.777778-298.666667z m0 14.222222c-196.963556 0-355.555556 128.099556-355.555556 284.444445s158.592 284.444444 355.555556 284.444444 355.555556-128.099556 355.555556-284.444444-158.592-284.444444-355.555556-284.444445z" fill="#B2181A" /><path d="M412.444444 839.111111h28.444445v99.555556h-28.444445zM469.333333 839.111111h28.444445v99.555556h-28.444445zM526.222222 839.111111h28.444445v99.555556h-28.444445zM583.111111 839.111111h28.444445v99.555556h-28.444445z" fill="#FA1C3D" /><path d="M455.111111 85.333333m56.888889 0l0 0q56.888889 0 56.888889 56.888889l0 14.222222q0 56.888889-56.888889 56.888889l0 0q-56.888889 0-56.888889-56.888889l0-14.222222q0-56.888889 56.888889-56.888889Z" fill="#FA1C3D" /><path d="M512 85.333333a56.888889 56.888889 0 0 1 56.888889 56.888889v14.222222a56.888889 56.888889 0 1 1-113.777778 0v-14.222222a56.888889 56.888889 0 0 1 56.888889-56.888889z m0 14.222223a42.666667 42.666667 0 0 0-42.595556 40.163555L469.333333 142.222222v14.222222a42.666667 42.666667 0 0 0 85.262223 2.503112L554.666667 156.444444v-14.222222a42.666667 42.666667 0 0 0-42.666667-42.666666zM398.136889 225.578667a7.111111 7.111111 0 1 1 7.566222 12.046222c-95.146667 59.747556-142.535111 146.872889-142.535111 262.172444 0 115.384889 47.445333 204.856889 142.72 269.184a7.111111 7.111111 0 1 1-7.964444 11.804445c-99.185778-66.986667-148.977778-160.881778-148.977778-280.988445 0-120.163556 49.863111-211.84 149.191111-274.204444zM629.560889 225.578667a7.111111 7.111111 0 1 0-7.566222 12.046222c95.146667 59.747556 142.520889 146.872889 142.520889 262.172444 0 115.384889-47.445333 204.856889-142.72 269.184a7.111111 7.111111 0 1 0 7.964444 11.804445c99.185778-66.986667 148.977778-160.881778 148.977778-280.988445 0-120.163556-49.848889-211.84-149.176889-274.204444zM519.111111 231.594667V782.08h-14.222222V231.594667z" fill="#B2181A" /><path d="M464.384 226.488889l9.898667 10.225778c-52.451556 50.816-78.961778 139.562667-78.961778 266.524444 0 124.344889 25.429333 214.385778 75.861333 270.336l3.313778 3.598222-10.325333 9.784889c-55.537778-58.723556-83.072-153.372444-83.072-283.719111 0-127.772444 26.453333-218.993778 79.914666-273.393778l3.370667-3.356444zM571.889778 226.488889l-9.898667 10.225778c52.465778 50.816 78.961778 139.562667 78.961778 266.524444 0 124.344889-25.429333 214.385778-75.847111 270.336l-3.328 3.598222 10.339555 9.784889c55.523556-58.723556 83.057778-153.372444 83.057778-283.719111 0-127.772444-26.453333-218.993778-79.900444-273.393778l-3.384889-3.356444z" fill="#B2181A" /><path d="M405.333333 170.666667h213.333334a35.555556 35.555556 0 0 1 35.555555 35.555555V241.777778H369.777778v-35.555556a35.555556 35.555556 0 0 1 35.555555-35.555555z" fill="#FDD821" /><path d="M618.666667 170.666667a35.555556 35.555556 0 0 1 35.555555 35.555555V241.777778H369.777778v-35.555556a35.555556 35.555556 0 0 1 35.555555-35.555555h213.333334z m0 14.222222h-213.333334a21.333333 21.333333 0 0 0-21.233777 19.285333L384 206.222222V227.555556h256v-21.333334a21.333333 21.333333 0 0 0-19.285333-21.233778L618.666667 184.888889z" fill="#B2181A" /><path d="M618.666667 170.666667a35.555556 35.555556 0 0 1 35.555555 35.555555V241.777778H369.777778v-35.555556a35.555556 35.555556 0 0 1 35.555555-35.555555h213.333334z m0 14.222222h-213.333334a21.333333 21.333333 0 0 0-21.233777 19.285333L384 206.222222V227.555556h256v-21.333334a21.333333 21.333333 0 0 0-19.285333-21.233778L618.666667 184.888889z" fill="#B2181A" /><path d="M405.333333 839.111111h213.333334a35.555556 35.555556 0 0 0 35.555555-35.555555V768H369.777778v35.555556a35.555556 35.555556 0 0 0 35.555555 35.555555z" fill="#FDD821" /><path d="M618.666667 839.111111a35.555556 35.555556 0 0 0 35.555555-35.555555V768H369.777778v35.555556a35.555556 35.555556 0 0 0 35.555555 35.555555h213.333334z m0-14.222222h-213.333334a21.333333 21.333333 0 0 1-21.233777-19.285333L384 803.555556V782.222222h256v21.333334a21.333333 21.333333 0 0 1-19.285333 21.233777L618.666667 824.888889z" fill="#B2181A" /></svg>