<?xml version="1.0" encoding="utf-8"?>
<!-- Uploaded to: SVG Repo, www.svgrepo.com, Generator: SVG Repo Mixer Tools -->
<svg width="800px" height="800px" viewBox="0 -7 1038 1038" class="icon"  version="1.1" xmlns="http://www.w3.org/2000/svg"><path d="M113.777778 554.552889a412.444444 355.555556 0 1 0 824.888889 0 412.444444 355.555556 0 1 0-824.888889 0Z" fill="#FB3635" /><path d="M526.222222 198.997333c227.783111 0 412.444444 159.189333 412.444445 355.555556s-184.661333 355.555556-412.444445 355.555555-412.444444-159.189333-412.444444-355.555555 184.661333-355.555556 412.444444-355.555556z m0 14.222223c-220.359111 0-398.222222 153.315556-398.222222 341.333333 0 188.003556 177.863111 341.333333 398.222222 341.333333s398.222222-153.329778 398.222222-341.333333c0-188.017778-177.863111-341.333333-398.222222-341.333333z" fill="#B2181A" /><path d="M369.777778 298.552889a142.222222 71.111111 0 1 0 284.444444 0 142.222222 71.111111 0 1 0-284.444444 0Z" fill="#CE2927" /><path d="M486.456889 298.552889c-72.021333 7.736889-123.192889 2.631111-153.500445-15.345778-30.321778-17.962667-60.202667-60.899556-89.656888-128.810667 22.243556 10.951111 52.124444 21.233778 89.656888 30.833778 26.382222 6.741333 76.017778-1.095111 120.561778 7.68 12.515556 2.488889 28.202667 11.576889 47.032889 27.292445l-14.08 78.350222z" fill="#13D72B" /><path d="M310.243556 207.331556a7.111111 7.111111 0 0 1 9.671111-2.759112c33.848889 18.773333 60.302222 31.189333 79.189333 37.191112 18.944 6.001778 49.749333 11.747556 92.245333 17.152a7.111111 7.111111 0 1 1-1.792 14.108444l-12.629333-1.664c-36.835556-5.020444-64.170667-10.353778-82.119111-16.042667-19.982222-6.343111-47.203556-19.100444-81.792-38.314666a7.111111 7.111111 0 0 1-2.773333-9.671111z" fill="#79FA89" /><path d="M586.524444 116.536889a14.222222 14.222222 0 0 1 16.824889 22.926222c-41.856 30.691556-68.110222 56.888889-78.648889 77.752889-10.666667 21.020444-17.550222 60.586667-20.053333 117.831111a14.222222 14.222222 0 1 1-28.401778-1.237333c2.645333-60.999111 10.126222-103.879111 23.068445-129.450667 13.027556-25.742222 42.069333-54.727111 87.210666-87.822222z" fill="#5B221C" /><path d="M259.797333 774.456889c133.233778 56.775111 250.922667 72.533333 353.052445 47.331555 102.144-25.216 197.404444-93.568 285.781333-205.041777-77.283556 141.824-168.632889 225.763556-274.062222 251.790222-105.415111 26.026667-227.000889-5.333333-364.771556-94.08z" fill="#CE2927" /></svg>