<?xml version="1.0" encoding="utf-8"?>
<!-- Uploaded to: SVG Repo, www.svgrepo.com, Generator: SVG Repo Mixer Tools -->
<svg width="800px" height="800px" viewBox="0 0 1024 1024" class="icon"  version="1.1" xmlns="http://www.w3.org/2000/svg"><path d="M577.792 335.928889c-208.711111 2.759111-328.433778 68.750222-359.139556 197.973333-46.065778 193.848889 201.002667 324.465778 264.917334 340.124445 63.900444 15.658667 271.786667 27.207111 351.032889-103.921778 79.246222-131.128889-62.279111-236.942222-85.688889-267.406222-23.395556-30.464-61.198222-70.584889-8.604445-87.296 52.579556-16.725333 87.125333 1.137778 110.321778-10.88 23.182222-12.032 0.910222-90.311111-40.277333-102.798223-41.173333-12.501333-52.821333-18.915556-61.44-34.247111-8.604444-15.331556-46.464-122.268444-108.8-134.528-62.321778-12.259556-105.6-6.684444-88.803556 74.382223 11.192889 54.016 20.024889 96.896 26.481778 128.597333z" fill="#FA1C3D" /><path d="M756.707556 266.624l-1.592889-2.631111c2.716444 4.835556-19.342222-42.922667-32.327111-65.194667l-1.137778-1.905778c-23.651556-39.438222-49.820444-64.952889-80.156445-70.912-37.290667-7.338667-62.122667-7.210667-79.132444 3.086223-20.622222 12.487111-26.552889 38.499556-18.019556 79.701333l24.775111 120.192-6.030222 0.156444c-202.666667 5.688889-320.483556 73.244444-351.345778 203.150223-21.248 89.429333 15.616 172.316444 93.312 243.768889 55.694222 51.2 132.949333 94.151111 176.824889 104.903111 42.638222 10.453333 111.402667 13.312 172.615111 3.185777 83.626667-13.824 149.347556-49.379556 186.197334-110.350222 45.653333-75.562667 27.022222-146.801778-33.152-218.453333l-3.171556-3.697778c-14.990222-17.109333-45.269333-48.014222-49.450666-52.821333l-10.581334-13.496889a301.795556 301.795556 0 0 1-11.136-14.976c-8.604444-12.515556-12.743111-22.158222-12.302222-29.44 0.455111-7.779556 6.613333-13.966222 21.560889-18.716445 20.849778-6.613333 36.664889-7.992889 61.980444-6.940444l12.942223 0.625778c19.441778 0.796444 27.022222-0.099556 36.522666-5.020445 32-16.611556 2.289778-102.641778-41.486222-115.911111l-7.793778-2.417778c-30.791111-9.671111-41.088-15.345778-47.928889-25.884444z m-13.838223 4.565333l-0.142222-0.227555c9.756444 17.379556 22.613333 24.533333 65.564445 37.560889 33.28 10.097778 57.457778 80.128 39.054222 89.685333-6.186667 3.214222-12.032 4.024889-26.680889 3.527111l-9.912889-0.426667c-30.222222-1.578667-48.270222-0.426667-72.604444 7.310223-20.039111 6.371556-30.592 16.967111-31.459556 31.431111-0.668444 11.306667 4.522667 23.395556 14.791111 38.328889l3.356445 4.764444c1.777778 2.432 3.726222 5.020444 5.959111 7.907556l12.487111 15.985777 1.095111 1.28c6.912 7.722667 39.921778 41.443556 52.266667 56.149334 56.689778 67.512889 73.742222 132.664889 31.857777 201.955555-34.360889 56.888889-96.426667 90.467556-176.327111 103.68-59.306667 9.799111-126.122667 7.011556-166.912-2.986666-41.472-10.154667-116.608-51.939556-170.581333-101.546667-74.268444-68.295111-108.984889-146.346667-89.102222-230.016 29.809778-125.468444 146.488889-189.795556 352.312889-192.512l8.590222-0.113778-28.216889-137.045333c-7.452444-35.968-2.887111-55.964444 11.463111-64.654222 12.999111-7.864889 35.029333-7.978667 69.020444-1.294223 25.358222 4.977778 48.938667 27.989333 70.712889 64.284445 11.946667 19.911111 34.318222 68.124444 33.408 66.986667z" fill="#B2181A" /><path d="M612.892444 191.004444a14.222222 14.222222 0 0 1 20.110223 0.540445c26.808889 28.288 44.430222 57.614222 52.622222 87.978667l1.351111 5.361777c8.248889 35.427556 50.161778 67.271111 83.882667 67.271111a14.222222 14.222222 0 1 1 0 28.444445c-45.639111 0-97.848889-38.869333-110.748445-85.973333l-0.839111-3.299556c-6.257778-26.993778-21.816889-53.731556-46.919111-80.213333a14.222222 14.222222 0 0 1 0.540444-20.110223z" fill="#B2181A" /><path d="M441.6 169.059556c27.875556-30.691556 89.543111-10.808889 118.556444 32.298666 9.216 13.696 13.383111 28.615111 17.934223 58.908445l4.920889 33.991111c2.019556 13.155556 3.527111 20.693333 5.959111 30.336l0.526222 2.104889c5.12 19.868444 12.131556 36.835556 22.044444 51.911111 24.888889 37.930667 61.909333 54.656 112.611556 50.517333a10.666667 10.666667 0 1 1 1.735111 21.262222c-46.264889 3.768889-83.911111-8.149333-112.142222-35.598222l-1.336889-1.336889-0.312889 0.142222a10.666667 10.666667 0 0 1-9.984-1.621333l-1.166222-1.052444-15.786667-16.213334C532.195556 340.565333 493.511111 304 469.333333 285.240889l-4.494222-3.413333c-42.581333-31.459556-51.968-81.123556-23.224889-112.782223z m100.864 44.216888c-22.328889-33.152-68.551111-48.071111-85.048889-29.880888-19.015111 20.935111-13.340444 54.727111 17.166222 79.018666l7.765334 5.930667c18.417778 14.293333 44.344889 37.944889 77.880889 71.04l15.843555 15.758222-1.493333-4.081778c-1.422222-4.067556-2.744889-8.248889-3.968-12.529777l-1.763556-6.513778-2.133333-8.618667a328.576 328.576 0 0 1-4.721778-25.457778l-4.337778-30.037333c-4.352-30.051556-7.950222-43.861333-15.189333-54.627556z" fill="#06CAF8" /><path d="M471.182222 327.054222c-39.480889 37.390222 3.783111 98.375111 56.448 98.375111 28.017778 0 55.964444-3.882667 83.84-11.648l17.237334-4.792889-12.430223-12.885333c-68.551111-71.082667-116.323556-96.298667-145.109333-69.048889z m116.593778 70.570667l-5.461333 1.137778c-18.204444 3.555556-36.437333 5.333333-54.684445 5.333333-36.053333 0-64.469333-40.064-41.784889-61.553778 14.037333-13.297778 46.748444 1.806222 96.810667 50.076445l5.12 5.006222z" fill="#06CAF8" /><path d="M537.500444 424.860444c10.140444 0 15.445333 1.635556 37.233778 11.747556l9.884445 4.622222c9.827556 4.622222 16.440889 7.466667 23.025777 9.770667 8.675556 3.029333 16.085333 4.565333 22.570667 4.565333 19.498667 0 43.690667-8.049778 72.348445-24.419555a10.666667 10.666667 0 0 1 10.581333 18.517333c-31.601778 18.062222-59.164444 27.235556-82.915556 27.235556-9.201778 0-18.872889-1.991111-29.624889-5.76-6.513778-2.275556-12.814222-4.935111-21.290666-8.846223l-17.92-8.334222c-14.094222-6.4-18.631111-7.765333-23.893334-7.765333-11.093333 0-34.986667 15.971556-68.721777 47.914666a10.666667 10.666667 0 0 1-14.663111-15.502222l7.936-7.395555c33.706667-30.904889 58.055111-46.350222 75.448888-46.350223z" fill="#06CAF8" /><path d="M237.994667 745.287111c-24.945778-28.273778-45.368889-42.410667-61.297778-42.410667-23.893333 0-29.937778 67.825778 0 95.274667 29.909333 27.448889 50.318222 29.568 66.190222 29.568 15.857778 0 70.499556 7.196444 92.842667-58.965333 22.328889-66.161778-3.114667-75.278222-18.488889-65.877334-15.36 9.415111-16.611556 30.691556-31.573333 36.551112-9.955556 3.911111-25.856 5.859556-47.672889 5.859555z" fill="#FDD821" /><path d="M313.528889 696.817778c-6.200889 3.797333-10.296889 8.504889-14.990222 16.241778l-3.598223 6.229333c-4.864 8.561778-7.623111 11.861333-11.861333 13.511111l-2.005333 0.739556c-7.736889 2.56-19.256889 4.110222-34.446222 4.522666l-5.489778 0.085334 2.190222 2.432c-26.197333-29.681778-48.071111-44.8-66.645333-44.8-34.062222 0-36.949333 78.122667-4.807111 107.605333 25.287111 23.182222 44.373333 30.791111 67.783111 31.402667l8.149333 0.142222c18.816 0.568889 32.042667-0.853333 46.961778-7.338667 21.461333-9.358222 37.916444-27.605333 47.701333-56.561778 20.380444-60.373333 1.393778-92.785778-28.942222-74.211555z m15.459555 69.660444c-8.504889 25.201778-22.158222 40.334222-39.907555 48.071111-11.463111 4.977778-22.044444 6.428444-36.750222 6.257778l-9.443556-0.199111c-21.447111 0-37.674667-5.930667-61.397333-27.704889-24.291556-22.272-22.044444-82.915556-4.807111-82.915555 12.714667 0 30.648889 12.032 52.906666 36.579555l5.191111 5.831111h3.214223c22.613333 0 39.296-2.048 50.275555-6.357333 7.566222-2.958222 11.875556-7.594667 17.464889-17.024l3.356445-5.831111c4.394667-7.68 7.452444-11.534222 11.861333-14.236445 15.217778-9.315556 24.974222 7.352889 8.035555 57.528889z" fill="#B2181A" /><path d="M199.580444 736.142222a49.777778 28.444444 0 1 0 99.555556 0 49.777778 28.444444 0 1 0-99.555556 0Z" fill="#FDD821" /><path d="M249.358222 707.697778c27.491556 0 49.777778 12.728889 49.777778 28.444444 0 15.701333-22.286222 28.444444-49.777778 28.444445s-49.777778-12.743111-49.777778-28.444445c0-15.715556 22.286222-28.444444 49.777778-28.444444z m0 14.222222c-20.679111 0-35.555556 8.504889-35.555555 14.222222s14.876444 14.222222 35.555555 14.222222 35.555556-8.504889 35.555556-14.222222-14.876444-14.222222-35.555556-14.222222z" fill="#B2181A" /><path d="M540.913778 650.808889m-156.444445 0a156.444444 156.444444 0 1 0 312.888889 0 156.444444 156.444444 0 1 0-312.888889 0Z" fill="#FDD821" /><path d="M540.913778 494.364444c86.4 0 156.444444 70.044444 156.444444 156.444445s-70.044444 156.444444-156.444444 156.444444-156.444444-70.044444-156.444445-156.444444 70.044444-156.444444 156.444445-156.444445z m0 14.222223c-78.549333 0-142.222222 63.672889-142.222222 142.222222s63.672889 142.222222 142.222222 142.222222 142.222222-63.672889 142.222222-142.222222-63.672889-142.222222-142.222222-142.222222z" fill="#B2181A" /><path d="M501.191111 693.504c5.091556-0.113778 9.244444 0.099556 12.430222 0.597333 3.2 0.512 5.632 1.166222 7.296 1.976889a9.813333 9.813333 0 0 1 3.655111 2.716445c1.678222 2.019556 2.360889 4.039111 2.048 6.058666-0.298667 2.019556-1.664 3.228444-4.096 3.640889a90.069333 90.069333 0 0 0-15.502222 4.238222 67.569778 67.569778 0 0 0-13.240889 7.253334 10.140444 10.140444 0 0 1-5.134222 1.834666 20.167111 20.167111 0 0 1-6.044444-0.312888 17.152 17.152 0 0 1-5.475556-2.119112 11.690667 11.690667 0 0 1-3.882667-3.626666c-3.029333-5.048889-4.067556-9.6-3.072-13.639111 0.995556-4.024889 4.977778-6.456889 11.975112-7.253334 7.608889-0.810667 13.937778-1.28 19.057777-1.365333z m32.768-0.028444c2.275556 0 5.091556 0.910222 8.405333 2.744888 1.422222 0.810667 3.356444 1.464889 5.802667 1.991112 2.446222 0.497778 6.712889 0.896 12.8 1.208888 6.072889 0.298667 14.563556 0.455111 25.457778 0.455112h44.074667c3.953778-0.199111 6.627556 0.455111 8.049777 1.991111 1.422222 1.521778 2.062222 3.811556 1.905778 6.855111 0 2.844444-0.483556 4.878222-1.422222 6.101333-0.952889 1.223111-2.929778 2.033778-5.930667 2.432-15.004444 1.024-28.629333 1.578667-40.860444 1.678222-12.245333 0.113778-21.76-0.042667-28.558222-0.455111a19.441778 19.441778 0 0 0-7.224889 0.142222c-2.915556 0.526222-4.935111 1.080889-6.030223 1.692445-3.797333 2.033778-7.466667 2.133333-11.022222 0.298667-3.555556-1.820444-7.395556-6.698667-11.491555-14.634667a11.704889 11.704889 0 0 1-1.180445-5.944889 7.409778 7.409778 0 0 1 2.005334-4.736c1.194667-1.208889 2.929778-1.820444 5.219555-1.820444z m19.555556-42.652445l2.161777 0.184889c1.507556 0.312889 3.171556 0.782222 5.006223 1.422222 2.005333 0.938667 3.754667 1.422222 5.262222 1.422222 4.010667 0.312889 8.177778 0.583111 12.515555 0.824889 4.352 0.227556 8.391111 0.312889 12.16 0.227556 3.754667-0.071111 7.011556-0.270222 9.770667-0.583111 2.744889-0.312889 4.622222-0.796444 5.632-1.422222 0.668444-0.469333 1.962667-0.824889 3.882667-1.066667a13.795556 13.795556 0 0 1 5.888 0.597333c1.991111 0.625778 3.797333 1.763556 5.376 3.413334 1.592889 1.664 2.460444 4.067556 2.631111 7.224888 0.170667 1.891556 0.426667 4.295111 0.753778 7.210667 0.327111 2.915556 0.753778 5.632 1.251555 8.163556a11.264 11.264 0 0 1-0.256 7.096889 11.534222 11.534222 0 0 1-3.754666 4.963555 12.16 12.16 0 0 1-5.504 2.360889 10.268444 10.268444 0 0 1-5.76-0.711111 23.992889 23.992889 0 0 0-8.775112-1.649778c-5.333333 0.469333-11.235556 0.739556-17.649777 0.824889-6.428444 0.071111-13.397333-0.042667-20.906667-0.355556-2.005333 0-3.84 0.398222-5.518222 1.180445-1.848889 0.796444-3.669333 1.223111-5.504 1.308444a12.643556 12.643556 0 0 1-4.764445-0.597333c-5.504-1.735111-7.509333-6.300444-6.016-13.710222 0.668444-2.375111 1.336889-5.489778 2.005334-9.344 0.668444-3.868444 1.166222-7.210667 1.507555-10.055111 0.327111-3.939556 1.251556-6.499556 2.759111-7.68 1.493333-1.180444 4.167111-1.536 8.007111-1.066667l-2.161777-0.184889z m-62.108445-71.111111l1.905778 0.199111c4.636444 0.796444 7.708444 2.602667 9.244444 5.404445 1.564444 2.816 2.332444 6.940444 2.332445 12.387555a982.144 982.144 0 0 1-0.924445 39.452445c0 4.010667 1.536 5.048889 4.622223 3.128888 1.379556-0.796444 3.086222-1.806222 5.091555-3.015111 1.991111-1.194667 3.612444-2.119111 4.849778-2.759111 0.924444-0.483556 1.934222-0.64 3.000889-0.483555 1.080889 0.156444 2.005333 0.810667 2.787555 1.92 2.929778 3.854222 3.157333 7.068444 0.682667 9.628444a113.137778 113.137778 0 0 1-14.563555 12.743111c-0.768 0.483556-1.080889 1.365333-0.924445 2.645334 0.142222 1.28 0.611556 2.417778 1.379556 3.370666 1.706667 1.763556 3.242667 3.569778 4.636444 5.404445l4.394667 5.902222c1.692444 2.417778 2.616889 4.693333 2.773333 6.855111 0.142222 2.161778-1.080889 4.608-3.697778 7.338667a11.633778 11.633778 0 0 1-6.485333 3.370666c-2.616889 0.483556-4.551111 0.312889-5.774222-0.483555-2.161778-1.763556-5.717333-2.56-10.638222-2.417778a101.973333 101.973333 0 0 1-7.054223 0.256c-2.389333 0-5.361778-0.170667-8.917333-0.483556a26.979556 26.979556 0 0 0-6.471111 0.241778c-1.706667 0.312889-3.626667 1.123556-5.774222 2.403556-0.782222 0.483556-2.403556 0.355556-4.864-0.355556a17.493333 17.493333 0 0 1-6.712889-3.740444c-4.152889-3.996444-5.688889-8.248889-4.622222-12.743111 0.768-2.730667 2.090667-4.295111 3.939555-4.693334 1.848889-0.398222 4.309333-0.042667 7.395556 1.080889 1.237333 0.327111 3.000889 0.725333 5.319111 1.208889a233.585778 233.585778 0 0 0 16.184889 2.759111c2.929778 0.412444 5.546667 0.611556 7.864889 0.611556 3.555556 0 5.518222-0.440889 5.902222-1.322667 0.384-0.881778-0.426667-2.616889-2.417778-5.176889a86.613333 86.613333 0 0 0-11.918222-11.904 121.073778 121.073778 0 0 0-15.502222-10.951111 133.248 133.248 0 0 0-17.806223-8.888889 102.542222 102.542222 0 0 0-19.086222-5.774222c-4.309333-0.967111-5.475556-3.299556-3.470222-6.968889 2.005333-3.541333 4.323556-6.115556 6.940444-7.708444a19.768889 19.768889 0 0 1 8.106667-2.887111c2.773333-0.327111 5.504-0.113778 8.206222 0.597333 2.702222 0.725333 5.048889 1.649778 7.054222 2.773333a218.339556 218.339556 0 0 1 24.277334 16.597334c2.005333 1.592889 2.844444 1.521778 2.56-0.241778a762.197333 762.197333 0 0 1-1.507556-20.807111c-0.398222-6.656-0.810667-13.596444-1.28-20.807111-0.768-10.268444 2.844444-14.748444 10.865778-13.468445l-1.905778-0.199111z m91.121778 87.395556h-9.756444c-1.28 0-2.062222 0.455111-2.389334 1.365333a12.088889 12.088889 0 0 0-0.469333 3.242667 10.325333 10.325333 0 0 1-0.483556 3.072c-0.312889 1.251556 0.398222 1.877333 2.147556 1.877333 6.343111 0.341333 12.131556 0.512 17.365333 0.512 5.248 0 11.107556-0.170667 17.621334-0.512 2.218667-0.113778 3.640889-0.426667 4.266666-0.938667 0.64-0.512 1.038222-1.507556 1.194667-2.986666 0-1.592889-0.398222-2.730667-1.180445-3.413334-0.796444-0.682667-2.133333-1.137778-4.053333-1.365333a56.746667 56.746667 0 0 0-6.058667-0.512 524.643556 524.643556 0 0 0-18.204444-0.341333z m39.466667-87.253334a11.946667 11.946667 0 0 1 7.224889 1.066667c2.275556 1.109333 4.209778 3.214222 5.76 6.300444 1.550222 3.100444 2.161778 7.566222 1.834666 13.44a121.457778 121.457778 0 0 0 0.369778 18.318223c0.568889 5.546667 1.422222 10.225778 2.56 14.023111 0.824889 3.328 0.952889 5.944889 0.384 7.850666-0.568889 1.905778-2.005333 3.968-4.295111 6.186667a13.283556 13.283556 0 0 1-7.836445 3.683556c-2.773333 0.241778-4.892444-0.042667-6.371555-0.839112a20.437333 20.437333 0 0 0-6.855111-1.891555c-2.133333-0.156444-5.304889 0-9.557334 0.469333-4.736 0.64-9.187556 1.066667-13.340444 1.308445-4.167111 0.241778-8.376889 0.355556-12.615111 0.355555-4.252444 0-8.661333-0.199111-13.226667-0.597333a432.341333 432.341333 0 0 1-14.705778-1.536 12.188444 12.188444 0 0 0-2.929777-0.128 6.286222 6.286222 0 0 0-2.702223 0.839111c-4.238222 1.735111-7.836444 2.218667-10.780444 1.422222a10.140444 10.140444 0 0 1-3.669333-2.019555 22.897778 22.897778 0 0 1-3.185778-3.697778c-1.635556-2.048-1.792-5.376-0.483556-9.984 0.327111-1.422222 0.611556-3.712 0.853334-6.883556 0.241778-3.171556 0.440889-6.584889 0.611555-10.24 0.156444-3.640889 0.241778-7.168 0.241778-10.581333s-0.085333-6.058667-0.241778-7.964444c-0.327111-5.546667 0.611556-9.984 2.816-13.312a11.832889 11.832889 0 0 1 9.429334-5.475556c2.275556-0.156444 4.323556 0.042667 6.115555 0.597333 1.806222 0.554667 3.114667 1.706667 3.925333 3.441778 0.327111 0.796444 0.995556 1.194667 1.962667 1.194667 9.799111 0.796444 18.119111 1.308444 24.988445 1.550222 6.855111 0.227556 12.686222 0.142222 17.507555-0.241778 4.821333-0.398222 8.775111-0.995556 11.875556-1.777778 3.114667-0.796444 5.802667-1.749333 8.092444-2.858666 1.635556-0.952889 3.712-1.621333 6.243556-2.019556z m-65.28 44.16c-1.052444 0-1.564444 0.568889-1.564445 1.706667 0 2.389333 0.142222 4.778667 0.469334 7.168 0 0.910222 0.426667 1.365333 1.265777 1.365333 2.104889 0.227556 3.911111 0.398222 5.447111 0.512 1.521778 0.113778 3.185778 0.170667 4.977778 0.170667 1.152 0 1.735111-0.455111 1.735111-1.365333 0.213333-1.137778 0.312889-2.304 0.312889-3.498667v-3.669333c0-1.137778-0.526222-1.763556-1.564444-1.877334-2.119111 0-3.968-0.056889-5.546667-0.170666a313.884444 313.884444 0 0 0-5.532444-0.341334z m66.204444 0.739556c-3.854222 0-7.552 0.028444-11.121778 0.085333-3.555556 0.056889-7.253333 0.028444-11.093333-0.085333-1.934222 0-2.901333 0.568889-2.901333 1.706666 0 1.024 0.056889 2.019556 0.142222 2.986667 0.099556 0.967111 0.142222 1.962667 0.142222 2.986667-0.369778 1.365333 0.583111 1.934222 2.901333 1.706666 3.072-0.113778 5.959111-0.256 8.647112-0.426666l9.244444-0.597334c3.271111-0.227556 5.376-0.540444 6.343111-0.938666 0.952889-0.398222 1.251556-1.223111 0.853333-2.474667a5.063111 5.063111 0 0 1-0.284444-1.621333v-1.621334c0-1.137778-0.952889-1.706667-2.872889-1.706666z m-6.4-28.984889l-2.190222 0.028444c-2.289778 0.113778-4.366222 0.170667-6.243556 0.170667-1.863111 0-4.039111 0.056889-6.542222 0.170667-1.863111 0-2.801778 0.512-2.801778 1.536a30.065778 30.065778 0 0 0-0.469333 3.242666c-0.099556 1.137778-0.256 2.332444-0.469333 3.584 0 1.137778 1.038222 1.706667 3.128889 1.706667 4.152889 0.113778 7.879111 0.113778 11.207111 0l10.908444-0.341333c2.488889 0.227556 3.527111-0.341333 3.128889-1.706667a6.186667 6.186667 0 0 0-0.327111-1.962667 64.184889 64.184889 0 0 0-0.625778-1.792c-0.824889-2.275556-1.863111-3.640889-3.114667-4.096-1.237333-0.455111-3.84-0.625778-7.779555-0.512l2.204444-0.028444z m-58.609778-0.042667c-0.967111 0-1.493333 0.455111-1.607111 1.365334a62.008889 62.008889 0 0 0-0.554666 3.072 108.757333 108.757333 0 0 1-0.568889 3.242666c-0.199111 1.137778 0.284444 1.820444 1.450666 2.048a171.875556 171.875556 0 0 0 11.022223 0.853334c1.066667 0.113778 1.607111-0.398222 1.607111-1.536 0.099556-1.251556 0.142222-2.417778 0.071111-3.498667a64.156444 64.156444 0 0 1-0.071111-3.157333c0-1.137778-0.540444-1.763556-1.607111-1.877334a65.891556 65.891556 0 0 1-9.756445-0.512z" fill="#B2181A" /></svg>