<?xml version="1.0" encoding="utf-8"?>
<!-- Uploaded to: SVG Repo, www.svgrepo.com, Generator: SVG Repo Mixer Tools -->
<svg width="800px" height="800px" viewBox="0 0 1024 1024" class="icon" style="vertical-align: middle;fill: #000000;overflow: hidden;" version="1.1" xmlns="http://www.w3.org/2000/svg"><path d="M837.376 293.5296L709.7856 162.816c-10.4448-11.8272-25.088-18.5344-40.3456-18.5344H292.3008c-50.2784 0-91.0848 43.1616-91.0848 96.4608v586.8032c0 53.248 40.7552 96.4608 91.0848 96.4608h468.9408c50.2784 0 91.0848-43.1616 91.0848-96.4608V333.568c0-14.8992-5.376-29.184-14.9504-40.0384z" fill="#76BFFF" /><path d="M300.8 924.0064h461.824c49.5616 0 89.7024-43.1616 89.7024-96.4608V333.568c0-14.8992-5.2736-29.184-14.7456-40.0384l-29.5424-30.72v610.5088H221.8496c15.1552 30.1568 44.8 50.688 78.9504 50.688z" fill="#659CF8" /><path d="M678.144 121.1392v147.8656c0 33.3824 27.0336 60.416 60.416 60.416h129.536l-189.952-208.2816z" fill="#76BFFF" /><path d="M515.3792 289.536m-68.2496 0a68.2496 68.2496 0 1 0 136.4992 0 68.2496 68.2496 0 1 0-136.4992 0Z" fill="#ECD300" /><path d="M583.6288 289.536c0-27.8016-16.6912-51.712-40.5504-62.3616 5.5808 19.1488 12.288 54.8352-4.608 81.2544-16.4864 25.8048-53.4016 25.7536-80.64 17.8176 12.1344 18.944 33.3312 31.5904 57.4976 31.5904 37.7344 0 68.3008-30.5664 68.3008-68.3008z" fill="#E8A200" /><path d="M721.1008 756.8384m-133.9392 0a133.9392 133.9392 0 1 0 267.8784 0 133.9392 133.9392 0 1 0-267.8784 0Z" fill="#ECD300" /><path d="M793.1904 643.9936c9.3184 34.5088 14.0288 82.3296-8.192 129.6384-13.3632 28.4672-37.376 50.944-66.8672 61.9008-27.8016 10.3936-62.208 15.6672-95.6416 11.8784 26.2144 28.5184 64.6144 45.6704 106.9568 43.1104 69.12-4.1984 124.416-62.1568 125.5936-131.3792 0.768-48.384-24.064-90.9824-61.8496-115.1488z" fill="#E8A200" /><path d="M582.2464 906.8032H254.3616c-53.9648 0-97.8432-43.8784-97.8432-97.8432V509.3376c0-8.4992-6.8608-15.36-15.36-15.36s-15.36 6.8608-15.36 15.36V808.96c0 70.912 57.6512 128.5632 128.5632 128.5632h327.8848c8.4992 0 15.36-6.8608 15.36-15.36s-6.8608-15.36-15.36-15.36zM141.1584 410.0096c8.4992 0 15.36-6.8608 15.36-15.36v-25.5488c0-8.4992-6.8608-15.36-15.36-15.36s-15.36 6.8608-15.36 15.36v25.5488c0 8.448 6.8608 15.36 15.36 15.36zM702.6688 570.624c-92.4672 0-167.7312 75.264-167.7312 167.7312s75.264 167.7312 167.7312 167.7312S870.4 830.8224 870.4 738.3552s-75.264-167.7312-167.7312-167.7312z m0 304.7424c-75.5712 0-137.0112-61.44-137.0112-137.0112s61.44-137.0112 137.0112-137.0112 137.0112 61.44 137.0112 137.0112-61.4912 137.0112-137.0112 137.0112zM527.6672 584.2944c0-8.4992-6.8608-15.36-15.36-15.36H344.4224c-8.4992 0-15.36 6.8608-15.36 15.36s6.8608 15.36 15.36 15.36h167.8848c8.4992 0 15.36-6.8608 15.36-15.36z" fill="#333333" /><path d="M435.7632 669.6448H344.4224c-8.4992 0-15.36 6.8608-15.36 15.36s6.8608 15.36 15.36 15.36h91.3408c8.4992 0 15.36-6.8608 15.36-15.36s-6.8608-15.36-15.36-15.36zM435.7632 770.304H344.4224c-8.4992 0-15.36 6.8608-15.36 15.36s6.8608 15.36 15.36 15.36h91.3408c8.4992 0 15.36-6.8608 15.36-15.36s-6.8608-15.36-15.36-15.36zM649.8304 497.9712a15.37536 15.37536 0 0 0 18.2784 11.7248 15.34976 15.34976 0 0 0 11.7248-18.2784c-13.4144-61.4912-58.4704-110.2336-115.6096-130.6112 23.2448-17.92 38.3488-45.9776 38.3488-77.5168 0-54.016-43.9296-97.9456-97.9456-97.9456s-97.9456 43.9296-97.9456 97.9456c0 31.5904 15.104 59.5968 38.3488 77.5168-57.1392 20.3776-102.1952 69.1712-115.6096 130.6112a15.34976 15.34976 0 0 0 15.0016 18.6368c7.0656 0 13.4144-4.9152 15.0016-12.0832 14.7968-67.6864 75.8272-116.7872 145.2032-116.7872 69.3248 0 130.4064 49.1008 145.2032 116.7872zM504.6272 350.464c-37.0688 0-67.2256-30.1568-67.2256-67.2256S467.5584 216.064 504.6272 216.064s67.2256 30.1568 67.2256 67.2256-30.1568 67.1744-67.2256 67.1744z" fill="#333333" /><path d="M141.1584 314.9312c8.4992 0 15.36-6.8608 15.36-15.36V213.1968c0-53.9648 43.8784-97.8432 97.8432-97.8432h391.68c5.888 0 11.6224 1.1776 16.9984 3.328-0.1536 0.8192-0.256 1.6384-0.256 2.4576v147.8656c0 41.7792 33.9968 75.776 75.776 75.776h114.176v248.0128c0 8.4992 6.8608 15.36 15.36 15.36s15.36-6.8608 15.36-15.36V332.8512c0-0.768-0.1024-1.536-0.1024-2.304 0.0512-0.3584 0.1024-0.7168 0.1024-1.0752 0-1.024-0.1024-1.9968-0.3072-2.9696-1.4336-17.3056-8.5504-33.5872-20.5312-46.3872L702.2592 109.056a77.32736 77.32736 0 0 0-56.2688-24.3712h-391.68c-70.912 0-128.5632 57.6512-128.5632 128.5632v86.3744a15.40608 15.40608 0 0 0 15.4112 15.3088z m552.3456-170.3424l146.688 156.5184c3.6352 3.84 6.4512 8.2432 8.5504 13.0048h-110.1824c-24.832 0-45.056-20.224-45.056-45.056V144.5888zM888.4736 913.6128l-38.144-41.728a15.37536 15.37536 0 0 0-21.7088-0.9728 15.37536 15.37536 0 0 0-0.9728 21.7088l38.144 41.728c3.0208 3.328 7.168 5.0176 11.3664 5.0176 3.6864 0 7.424-1.3312 10.3424-4.0448a15.32416 15.32416 0 0 0 0.9728-21.7088z" fill="#333333" /><path d="M647.2704 723.968a12.8512 12.8512 0 0 1-12.0832-17.152c16.128-44.8 66.5088-50.4832 68.6592-50.688 7.0656-0.7168 13.312 4.4032 14.0288 11.4176 0.7168 7.0144-4.352 13.312-11.3664 14.0288-1.5872 0.2048-36.608 4.4544-47.2064 33.8944a12.77952 12.77952 0 0 1-12.032 8.4992z" fill="#FFFFFF" /><path d="M477.8496 293.5296a12.75904 12.75904 0 0 1-12.5952-15.104c4.5568-24.7808 23.7568-35.584 34.3552-38.0928 6.912-1.6384 13.7728 2.6624 15.36 9.5232 1.5872 6.8096-2.6112 13.6704-9.3696 15.36-1.4336 0.4096-12.5952 3.84-15.1552 17.8176a12.81536 12.81536 0 0 1-12.5952 10.496z" fill="#FFFFFF" /><path d="M260.5056 419.4304a12.8 12.8 0 0 1-12.8-12.8v-16.8448a12.8 12.8 0 0 1 25.6 0v16.8448a12.8 12.8 0 0 1-12.8 12.8z" fill="#FFFFFF" /><path d="M260.5056 350.3104a12.8 12.8 0 0 1-12.8-12.8V243.3536c0-31.3856 25.5488-56.9344 56.9344-56.9344h31.2832a12.8 12.8 0 0 1 0 25.6H304.64c-17.3056 0-31.3344 14.08-31.3344 31.3344v94.1568a12.8 12.8 0 0 1-12.8 12.8z" fill="#FFFFFF" /></svg>