<?xml version="1.0" encoding="utf-8"?>
<!-- Uploaded to: SVG Repo, www.svgrepo.com, Generator: SVG Repo Mixer Tools -->
<svg width="800px" height="800px" viewBox="0 0 1024 1024" class="icon"  version="1.1" xmlns="http://www.w3.org/2000/svg"><path d="M462.714938 213.579516m41.212835 11.042946l302.227459 80.981604q41.212835 11.042946 30.169889 52.255781l-125.153387 467.078799q-11.042946 41.212835-52.255781 30.16989l-302.227459-80.981604q-41.212835-11.042946-30.169889-52.255781l125.153387-467.078799q11.042946-41.212835 52.255781-30.16989Z" fill="#FB3635" /><path d="M814.862222 300.572444a42.666667 42.666667 0 0 1 30.151111 52.252445l-128.824889 480.824889a42.666667 42.666667 0 0 1-52.252444 30.165333l-315.960889-84.664889a42.666667 42.666667 0 0 1-30.179555-52.252444l128.839111-480.810667a42.666667 42.666667 0 0 1 52.252444-30.179555l315.975111 84.664888z m-3.697778 13.738667L495.217778 229.646222a28.444444 28.444444 0 0 0-34.204445 18.090667l-0.625777 2.019555-128.839112 480.824889a28.444444 28.444444 0 0 0 18.090667 34.204445l2.033778 0.625778 315.960889 84.664888a28.444444 28.444444 0 0 0 34.204444-18.076444l0.625778-2.033778 128.839111-480.824889a28.444444 28.444444 0 0 0-18.076444-34.204444l-2.033778-0.625778z" fill="#B2181A" /><path d="M410.595556 380.544c18.247111 34.019556 37.688889 53.802667 58.311111 59.335111 20.622222 5.518222 42.609778 27.335111 65.991111 65.422222l125.994666 33.763556c20.920889-23.523556 39.864889-33.706667 56.789334-30.506667 16.938667 3.185778 42.311111 6.101333 76.103111 8.718222l45.511111-172.856888a28.444444 28.444444 0 0 0-19.569778-34.56L485.546667 212.949333a28.444444 28.444444 0 0 0-35.399111 19.968l-39.552 147.626667z" fill="#F85F48" /><path d="M821.774222 303.032889l-334.151111-96.896a35.555556 35.555556 0 0 0-43.335111 22.016l-0.910222 2.929778-40.291556 150.328889 1.336889 2.488888c18.247111 34.048 38.016 54.855111 59.733333 61.966223l2.986667 0.881777c17.649778 4.736 37.532444 23.907556 58.951111 57.784889l4.295111 6.926223 132.977778 35.626666 2.915556-3.271111c19.441778-21.873778 36.224-30.890667 50.161777-28.259555l6.855112 1.194666c15.715556 2.574222 36.935111 4.949333 63.729777 7.125334l12.202667 0.967111 47.032889-178.602667a35.555556 35.555556 0 0 0-24.490667-43.207111z m-3.953778 13.653333l1.905778 0.668445a21.333333 21.333333 0 0 1 12.785778 25.258666L788.48 509.724444l-12.074667-1.024c-24.689778-2.204444-43.818667-4.579556-57.344-7.125333l-2.602666-0.412444c-17.422222-2.133333-35.712 7.111111-55.011556 26.936889l-2.844444 2.986666-119.111111-31.928889 1.521777 2.446223c-23.267556-37.930667-45.539556-60.615111-67.470222-67.783112l-5.12-1.521777c-16.739556-5.560889-33.28-22.428444-49.208889-50.958223l-0.952889-1.720888 38.954667-145.28a21.333333 21.333333 0 0 1 26.424889-14.549334l334.165333 96.910222z" fill="#B2181A" /><path d="M170.666667 156.444444m42.666666 0l412.444445 0q42.666667 0 42.666666 42.666667l0 625.777778q0 42.666667-42.666666 42.666667l-412.444445 0q-42.666667 0-42.666666-42.666667l0-625.777778q0-42.666667 42.666666-42.666667Z" fill="#FB3635" /><path d="M625.777778 156.444444a42.666667 42.666667 0 0 1 42.666666 42.666667v625.777778a42.666667 42.666667 0 0 1-42.666666 42.666667H213.333333a42.666667 42.666667 0 0 1-42.666666-42.666667V199.111111a42.666667 42.666667 0 0 1 42.666666-42.666667h412.444445z m0 14.222223H213.333333a28.444444 28.444444 0 0 0-28.373333 26.311111L184.888889 199.111111v625.777778a28.444444 28.444444 0 0 0 26.311111 28.373333L213.333333 853.333333h412.444445a28.444444 28.444444 0 0 0 28.373333-26.311111L654.222222 824.888889V199.111111a28.444444 28.444444 0 0 0-26.311111-28.373333L625.777778 170.666667z" fill="#B2181A" /><path d="M178.090667 384c26.936889 34.702222 53.304889 52.039111 79.075555 52.039111 25.756444 0 58.211556 19.185778 97.365334 57.557333h157.425777c17.052444-35.128889 35.939556-53.504 56.689778-55.125333 20.736-1.621333 51.626667-12.544 92.686222-32.753778V185.827556a28.501333 28.501333 0 0 0-28.444444-28.458667l-426.353778-0.256a28.416 28.416 0 0 0-28.444444 28.430222V384z" fill="#F85F48" /><path d="M632.888889 150.257778l-426.353778-0.256a35.527111 35.527111 0 0 0-35.470222 32.867555l-0.099556 2.389334 0.056889 0.270222-0.042666 200.903111 1.493333 1.934222c27.121778 34.915556 54.229333 53.390222 81.536 54.712889l3.157333 0.071111c22.584889 0 52.238222 17.052444 88.348445 51.612445l6.115555 5.944889H516.408889l1.948444-4.010667c16.071111-33.095111 33.194667-49.763556 50.844445-51.143111 20.864-1.621333 50.616889-11.875556 89.628444-30.705778l9.614222-4.693333V185.827556a35.612444 35.612444 0 0 0-35.555555-35.569778z m-426.368 13.966222l426.368 0.256 2.048 0.099556c10.808889 1.052444 19.271111 10.168889 19.285333 21.248l-0.014222 215.452444-6.300444 3.029333c-33.521778 15.872-59.349333 24.789333-77.198223 26.823111l-5.361777 0.540445c-20.864 2.887111-39.253333 19.996444-55.580445 50.545778l-2.218667 4.252444H357.390222l2.119111 2.033778c-38.968889-38.186667-71.893333-58.168889-99.413333-59.505778l-5.717333-0.142222c-21.418667-1.194667-44.003556-16.099556-67.598223-45.326222l-1.592888-2.005334V185.144889l0.071111-1.479111a21.262222 21.262222 0 0 1 21.262222-19.441778z" fill="#B2181A" /><path d="M419.555556 490.666667m-106.666667 0a106.666667 106.666667 0 1 0 213.333333 0 106.666667 106.666667 0 1 0-213.333333 0Z" fill="#FDD821" /><path d="M419.555556 384a106.666667 106.666667 0 1 1 0 213.333333 106.666667 106.666667 0 0 1 0-213.333333z m0 14.222222a92.444444 92.444444 0 1 0 0 184.888889 92.444444 92.444444 0 0 0 0-184.888889z" fill="#B2181A" /><path d="M460.515556 531.029333c0.924444 0 1.607111-0.199111 2.076444-0.625777a2.190222 2.190222 0 0 0 0.753778-1.507556 3.740444 3.740444 0 0 0-0.312889-1.763556 1.891556 1.891556 0 0 0-1.137778-1.137777 170.865778 170.865778 0 0 1-14.464-7.68c-0.426667-0.142222-0.583111-0.384-0.512-0.682667 0.085333-0.284444 0.341333-0.483556 0.768-0.568889 3.342222-0.497778 5.489778-1.208889 6.4-2.133333 0.938667-0.924444 1.28-2.346667 1.009778-4.266667a143.36 143.36 0 0 1-0.184889-11.761778 22.755556 22.755556 0 0 1 0.184889-2.588444 12.600889 12.600889 0 0 0 0.568889-5.148445 6.542222 6.542222 0 0 0-5.788445-5.404444 7.125333 7.125333 0 0 0-4.209777 0.739556 8.078222 8.078222 0 0 1-2.332445 1.194666 5.048889 5.048889 0 0 1-2.076444-0.056889 108.017778 108.017778 0 0 0-12.942223-0.512c-4.536889 0.085333-8.988444 0.213333-13.340444 0.384-0.924444 0.085333-1.464889-0.056889-1.635556-0.426666-0.170667-0.384 0.213333-0.867556 1.137778-1.464889 0.995556-0.568889 1.962667-1.208889 2.887111-1.877334a9.671111 9.671111 0 0 0 2.275556-2.275555c2.417778-3.512889 3.84-6.741333 4.266667-9.671111 0.426667-2.944 0.256-4.963556-0.512-6.044445-1.166222-1.507556-2.389333-2.389333-3.640889-2.645333-1.265778-0.256-3.015111 0.042667-5.290667 0.881778a4.721778 4.721778 0 0 1-2.631111 0c-1.180444-0.256-1.564444-0.753778-1.137778-1.507556a3.143111 3.143111 0 0 0 0.312889-1.066666 8.391111 8.391111 0 0 0 0.071111-0.824889c0-2.602667-1.393778-4.266667-4.152889-5.034667a12.188444 12.188444 0 0 0-2.460444-0.426667 2.958222 2.958222 0 0 0-1.948445 0.568889 6.485333 6.485333 0 0 0-1.706666 1.991111 41.528889 41.528889 0 0 0-1.934223 3.911111c-0.256 0.668444-0.753778 0.995556-1.507555 0.995556a45.354667 45.354667 0 0 0-3.214222-0.113778h-2.844445a7.068444 7.068444 0 0 1-1.621333-0.256 14.407111 14.407111 0 0 1-2.389333-0.881778c-1.592889-0.753778-3.669333-0.625778-6.229334 0.384-2.56 0.995556-4.764444 2.716444-6.599111 5.148445-1.095111 1.351111-1.180444 2.773333-0.256 4.280889 0.583111 0.995556 1.336889 1.536 2.275556 1.564444a5.944889 5.944889 0 0 0 3.128889-0.938666c1.763556-0.839111 3.512889-1.479111 5.219555-1.948445 1.720889-0.455111 3.256889-0.682667 4.593778-0.682667h1.891555c0.583111 0 1.208889-0.042667 1.891556-0.142222 0.910222 0 1.137778 0.298667 0.625778 0.896-1.422222 1.678222-3.100444 3.228444-5.034667 4.650667-1.934222 1.422222-4.110222 2.816-6.542222 4.152889-1.763556 0.924444-3.697778 1.763556-5.845333 2.517333-2.133333 0.753778-4.295111 1.436444-6.485334 2.076445a74.040889 74.040889 0 0 1-6.542222 1.564444c-2.176 0.426667-4.181333 0.668444-6.030222 0.753778-0.924444 0.085333-1.493333 0.426667-1.706667 1.009778-0.199111 0.583111-0.099556 1.294222 0.312889 2.133333 0.924444 1.934222 1.991111 3.356444 3.214222 4.280889a11.889778 11.889778 0 0 0 4.721778 2.019555c1.678222 0.327111 3.726222 0.241778 6.158222-0.256 2.432-0.497778 5.034667-1.365333 7.808-2.574222a60.615111 60.615111 0 0 0 17.351111-11.761778c1.422222-1.351111 2.816-2.688 4.152889-4.024889l4.906667-4.906666a6.869333 6.869333 0 0 0 0.497778-0.568889 6.869333 6.869333 0 0 1 0.512-0.568889c0.327111-0.426667 0.995556-0.625778 2.005333-0.625778 1.095111-0.085333 2.346667 0 3.783111 0.256a2.147556 2.147556 0 0 1 1.564445 0.938667c0.384 0.540444 0.440889 1.408 0.184888 2.574222a7.850667 7.850667 0 0 1-3.384888 4.906667 7.367111 7.367111 0 0 1-4.465778 1.322666c-1.635556-0.042667-2.744889-0.312889-3.342222-0.810666-0.583111-0.426667-1.080889-0.483556-1.507556-0.199111a2.389333 2.389333 0 0 0-0.881778 1.450666c-0.583111 2.432 0.796444 4.408889 4.152889 5.916445 0.668444 0.327111 0.995556 0.682667 0.938667 1.066666-0.042667 0.369778-0.312889 0.611556-0.810667 0.696889a18.915556 18.915556 0 0 1-2.076444 0.113778 6.613333 6.613333 0 0 0-1.820445 0.256 4.608 4.608 0 0 1-2.517333-0.625778 10.368 10.368 0 0 0-4.266667-0.625777c-1.351111-0.085333-2.488889 0.568889-3.413333 2.005333-0.924444 1.422222-1.137778 3.228444-0.625778 5.404444 0.170667 0.924444 0.312889 1.848889 0.440889 2.773334 0.128 0.924444 0.184889 1.976889 0.184889 3.143111a76.856889 76.856889 0 0 1-0.625778 9.557333 11.576889 11.576889 0 0 0 0.440889 4.849778c0.455111 1.294222 1.109333 2.033778 1.948444 2.204444a7.182222 7.182222 0 0 0 5.660445-0.881777 9.984 9.984 0 0 0 2.574222-1.948445c0.554667-0.625778 0.853333-1.792 0.952889-3.456 0.170667-1.351111 0.227556-3.072 0.184889-5.162667-0.042667-2.104889-0.142222-4.906667-0.312889-8.433777 0-0.924444 0.426667-1.464889 1.251556-1.635556 3.029333-0.241778 6.186667-0.526222 9.500444-0.810667 3.313778-0.284444 6.613333-0.512 9.884444-0.625777 3.271111-0.142222 6.471111-0.213333 9.614223-0.256 3.143111-0.042667 6.058667 0.056889 8.746666 0.312889 1.422222 0.170667 2.389333 0.483556 2.887111 0.938666 0.512 0.469333 0.796444 1.422222 0.881778 2.844445 0 0.568889-0.014222 1.479111-0.056889 2.702222l-0.128 3.953778-0.128 4.266666c-0.042667 1.436444-0.099556 2.659556-0.184889 3.655111-0.085333 1.763556-0.497778 2.474667-1.265777 2.133334a51.456 51.456 0 0 1-3.768889-2.261334 7.992889 7.992889 0 0 0-3.584-0.938666 7.68 7.68 0 0 0-4.209778 1.322666c-2.104889 1.251556-2.688 3.313778-1.763556 6.158223 0.327111 0.768 1.251556 1.621333 2.759112 2.588444 1.521778 0.967111 4.195556 2.204444 8.064 3.697778 3.271111 1.28 5.987556 2.275556 8.163555 3.029333 2.190222 0.753778 4.053333 1.365333 5.603556 1.820445 1.564444 0.469333 2.915556 0.753778 4.096 0.881777 1.166222 0.128 2.460444 0.184889 3.896889 0.184889z m-0.568889-45.596444a8.021333 8.021333 0 0 0 4.081777-0.312889 6.528 6.528 0 0 0 3.271112-2.958222c0.597333-1.208889 0.967111-2.986667 1.137777-5.347556 0-0.668444 0.085333-1.806222 0.256-3.399111 0.156444-1.592889 0.327111-3.100444 0.497778-4.522667a11.292444 11.292444 0 0 0-0.256-4.977777c-0.426667-1.123556-1.464889-1.905778-3.128889-2.318223a21.475556 21.475556 0 0 0-3.271111-0.256 9.059556 9.059556 0 0 0-3.271111 0.625778 6.940444 6.940444 0 0 1-2.090667 0.568889 27.889778 27.889778 0 0 1-3.697777 0.199111c-1.607111 0-3.683556-0.071111-6.229334-0.199111-2.56-0.128-5.731556-0.312889-9.500444-0.568889-0.512 0-1.137778-0.284444-1.891556-0.867555-0.583111-0.768-1.763556-1.052444-3.527111-0.881778-2.261333 0.156444-3.84 1.080889-4.707555 2.759111-0.881778 1.678222-0.853333 4.280889 0.056888 7.808 0.256 1.166222 0.512 2.631111 0.753778 4.408889 0.256 1.749333 0.384 3.271111 0.384 4.522667a5.077333 5.077333 0 0 0 1.194667 3.768888c0.881778 0.995556 1.863111 1.464889 2.958222 1.379556 2.176-0.085333 3.640889-0.369778 4.408889-0.881778a5.518222 5.518222 0 0 1 0.995556-0.497778l0.753777-0.256c3.612444-0.583111 6.883556-0.810667 9.813334-0.682666 2.929778 0.113778 4.977778 0.512 6.158222 1.194666 1.422222 0.924444 3.043556 1.479111 4.835555 1.706667z m-20.437334-8.746667c-0.853333 0-1.351111-0.426667-1.521777-1.251555v-2.958223c0-0.796444 0.042667-1.607111 0.142222-2.446222 0-0.768 0.327111-1.137778 0.995555-1.137778 2.844444-0.085333 5.745778-0.099556 8.675556-0.056888 2.944 0.028444 5.617778 0.184889 8.049778 0.426666 1.095111 0.170667 1.848889 0.483556 2.275555 0.952889 0.426667 0.455111 0.540444 1.365333 0.369778 2.702222-0.170667 1.422222-0.540444 2.389333-1.137778 2.887111-0.568889 0.512-1.507556 0.711111-2.759111 0.64h-6.158222a165.504 165.504 0 0 0-8.931556 0.241778z m-56.220444 55.338667l1.749333-0.113778c2.346667-0.156444 4.864-0.597333 7.537778-1.322667 2.702222-0.711111 5.333333-1.564444 7.936-2.56 2.588444-1.024 5.12-2.104889 7.537778-3.271111 2.432-1.180444 4.579556-2.403556 6.414222-3.655111a30.008889 30.008889 0 0 0 5.603556-4.593778c1.635556-1.720889 3.015111-3.456 4.152888-5.219555 1.137778-1.763556 2.005333-3.470222 2.645334-5.091556a12.558222 12.558222 0 0 0 0.938666-4.465777 5.504 5.504 0 0 0-1.194666-3.911112 6.897778 6.897778 0 0 0-3.84-2.261333c-2.346667-0.426667-3.953778-0.284444-4.835556 0.440889-0.881778 0.711111-1.493333 2.332444-1.834666 4.835556a18.488889 18.488889 0 0 1-4.024889 8.746666c-2.261333 2.901333-6.072889 5.731556-11.448889 8.490667a45.44 45.44 0 0 1-11.121778 3.342222 86.968889 86.968889 0 0 1-16.042667 1.322667c-2.019556 0.085333-2.432 1.038222-1.265777 2.887111 0.768 1.265778 1.521778 2.332444 2.275555 3.214222a8.675556 8.675556 0 0 0 5.902222 3.072c1.265778 0.170667 2.816 0.170667 4.664889 0l-1.749333 0.113778z" fill="#B2181A" /></svg>