<?xml version="1.0" ?>
<!-- Uploaded to: SVG Repo, www.svgrepo.com, Generator: SVG Repo Mixer Tools -->
<svg width="800px" height="800px" viewBox="0 0 120 120" id="Layer_1" version="1.1" xml:space="preserve" xmlns="http://www.w3.org/2000/svg" xmlns:xlink="http://www.w3.org/1999/xlink">
<style type="text/css">
	.st0{fill:#448FFC;}
	.st1{fill:#F99653;}
	.st2{fill:#FFD551;}
	.st3{fill:#EDBF9A;}
	.st4{fill:#FFD9B6;}
	.st5{fill:#E08344;}
	.st6{fill:#3F3F3F;}
	.st7{fill:#EFEEED;}
	.st8{fill:#80B2F9;}
</style>
<g>
<g>
<g>
<path class="st0" d="M78.3,34.1h-2.7V43h2.7c1.5,0,2.8-1,2.8-2.3v-4.4C81.1,35.1,79.9,34.1,78.3,34.1z"/>
<path class="st0" d="M38.8,36.3v4.4c0,1.2,1.2,2.3,2.8,2.3h2.7v-8.9h-2.7C40,34.1,38.8,35.1,38.8,36.3z"/>
</g>
<path class="st1" d="M95.6,102.7H24.3V74c0-4.6,3.3-8.7,8.2-10.2l20.5-6.2c4.6-1.4,9.4-1.4,13.8,0l20.5,6.2    c4.9,1.5,8.2,5.6,8.2,10.2L95.6,102.7L95.6,102.7z"/>
<rect class="st2" height="2.6" width="11.9" x="64.7" y="78"/>
<rect class="st3" height="21" width="15.1" x="52.4" y="45.1"/>
<path class="st4" d="M77.1,34.7c0,11.6-7.7,23.4-17.1,23.4S42.8,46.2,42.8,34.7S50.5,16.1,60,16.1S77.1,23.1,77.1,34.7z"/>
<g>
<path class="st5" d="M40.7,81.9h-0.5c-0.5,0-1,0.4-1,1v19.7h2.6V83C41.7,82.4,41.2,81.9,40.7,81.9z"/>
<path class="st5" d="M79.8,81.9h-0.5c-0.5,0-1,0.4-1,1v19.7h2.6V83C80.8,82.4,80.4,81.9,79.8,81.9z"/>
<polygon class="st5" points="67.5,59.1 60,65.9 52.4,59.1 51.3,58.1 43.3,60.5 55.2,71.3 60,66.1 64.7,71.3 76.7,60.5 68.6,58.1         "/>
</g>
<g>
<path class="st0" d="M66.8,50.3c-1.2,0-1.5,0-3-0.1h-1.5v-1.2h1.5c6.9,0.2,9.2,0.3,11.3-1.5c2.2-1.8,1.8-6.4,1.8-6.5l1.2-0.1     c0,0.2,0.5,5.3-2.2,7.5C73.9,50.1,71.3,50.3,66.8,50.3z"/>
</g>
<path class="st1" d="M65.1,51.7H61c-0.6,0-1.1-0.5-1.1-1.1v-1.5c0-0.6,0.5-1.1,1.1-1.1h4.1c0.6,0,1.1,0.5,1.1,1.1v1.5    C66.3,51.1,65.8,51.7,65.1,51.7z"/>
<path class="st6" d="M77.1,23.7c0-5.3-2.7-5.5-2.7-5.5l-4.2-0.5c-0.8-0.1-1.4-0.7-1.5-1.5c-0.5-2.7-2.5-2.4-2.5-2.4    s-13.9,0-18.3,1.7c-5.1,2-6.3,5.5-6.3,8.4c0,5.9,1.5,16.5,2.4,18.9c0.2,0.5,1.1,0.4,1.1-0.2v-7.9c0-0.5,0.4-0.9,0.9-0.9h19.4    c0.5,0,0.9-0.4,0.9-0.9V31c0-0.5,0.4-0.9,0.9-0.9S68,30.5,68,31v1.9c0,0.5,0.4,0.9,0.9,0.9h5c0.5,0,0.9,0.4,0.9,0.9v7.6    c0,0.6,1.1,0.6,1.3,0.1c0.7-2.5,1.1-5,1.1-7.6C77.2,33.7,77.1,26.8,77.1,23.7z"/>
</g>
<path class="st7" d="M32.5,69.3h54.9c1.9,0,3.4,1.6,3.2,3.5l-2,31H31.4l-2-31C29.2,70.9,30.6,69.3,32.5,69.3z"/>
<g>
<path class="st8" d="M63.6,96c0-1.6-1-2.9-2.4-3.4v2.8c0,0.6-0.4,1.2-1.1,1.2c-0.7,0.1-1.4-0.5-1.4-1.2v-2.8    c-1.5,0.5-2.5,2-2.4,3.7c0.1,1.4,1.1,2.6,2.4,3.1v3.7h2.4v-3.7C62.6,99,63.6,97.6,63.6,96z"/>
<path class="st8" d="M70.5,98.9h2.4v-5.4h-2.4c-0.3-1-0.6-2-1.2-2.8L71,89l-3.8-3.9l-1.7,1.7c-0.9-0.5-1.8-0.9-2.8-1.2v-2.4h-5.4    v2.4c-1,0.3-1.9,0.6-2.8,1.2l-1.7-1.7L49,88.9l1.7,1.7c-0.5,0.9-0.9,1.8-1.2,2.8h-2.4v5.4h2.4c0.2,0.9,0.6,1.7,1,2.5    c0,0.1,0.1,0.2,0.2,0.3l-1.7,1.7l2.9,2.9h1.8l0.8-0.8c0.5,0.3,1.1,0.6,1.6,0.8h7.8c0.6-0.2,1.1-0.5,1.6-0.8l0.8,0.8h1.8l3-2.9    l-1.7-1.7c0.1-0.1,0.1-0.2,0.2-0.4C70,100.5,70.3,99.7,70.5,98.9z M61.2,102c-0.4,0.1-0.8,0.1-1.2,0.1c-0.4,0-0.8,0-1.2-0.1    c-0.6-0.1-1.2-0.4-1.8-0.7c-1.8-1-3-3-3-5.2c0-3.3,2.7-6,6-6s6,2.7,6,6c0,2.2-1.2,4.1-3,5.2C62.5,101.6,61.8,101.9,61.2,102z"/>
</g>
<path class="st0" d="M101.3,103.8c0,0.7-0.3,1.3-0.7,1.8c-0.4,0.5-1.1,0.7-1.8,0.7H21.2c-1.4,0-2.5-1.1-2.5-2.5   c0-0.7,0.3-1.3,0.7-1.8c0.4-0.5,1.1-0.7,1.8-0.7h77.6C100.2,101.3,101.3,102.4,101.3,103.8z"/>
</g>
</svg>