<?xml version="1.0" ?>
<!-- Uploaded to: SVG Repo, www.svgrepo.com, Generator: SVG Repo Mixer Tools -->
<svg width="800px" height="800px" viewBox="0 0 120 120" id="Layer_1" version="1.1" xml:space="preserve" xmlns="http://www.w3.org/2000/svg" xmlns:xlink="http://www.w3.org/1999/xlink">
<style type="text/css">
	.st0{fill:#4D96FF;}
	.st1{fill:#FFD07A;}
</style>
<g>
<path class="st0" d="M94.7,63.5V50c0-1.7-1.3-3-3-3h-4.3c-0.8-3-2-6-3.6-8.5l3-3c1.2-1.2,1.2-3.1,0-4.2l-7.5-7.6   c-1.2-1.2-3.1-1.2-4.3,0l-3,3c-2.7-1.6-5.5-2.8-8.5-3.6v-4.3c0-1.7-1.3-3-3-3H50c-1.7,0-3,1.3-3,3v4.3c-3,0.8-6,2-8.5,3.6l-3.1-3.1   c-1.2-1.2-3.1-1.1-4.2,0l-7.5,7.5c-1.2,1.2-1.2,3.1,0,4.2l3,3c-1.6,2.7-2.8,5.5-3.6,8.5h-4.3c-1.7,0-3,1.3-3,3v10.6   c0,1.7,1.3,3,3,3h4.3c0.8,3,2,6,3.6,8.5l-3.1,3.1c-1.2,1.2-1.1,3.1,0,4.2l7.5,7.5c1.2,1.2,3.1,1.2,4.2,0l3-3   c2.7,1.6,5.5,2.8,8.5,3.6v4.3c0,1.7,1.3,3,3,3h10.6c1.7,0,3-1.3,3-3v-4.3c3-0.8,6-2,8.5-3.6l3,3c1.2,1.2,3.1,1.2,4.2,0l7.6-7.5   c1.2-1.2,1.2-3.1,0-4.3l-3-3c1.6-2.7,2.8-5.5,3.6-8.5L94.7,63.5L94.7,63.5z M55.3,76.6c-11.8,0-21.3-9.5-21.3-21.3   s9.5-21.3,21.3-21.3s21.3,9.5,21.3,21.3S67,76.6,55.3,76.6z"/>
<path class="st1" d="M66.1,43.9c-4.8-4.8-11.9-5.9-17.8-3l8.5,8.5c1.9,1.9,2.2,4.9,0.5,7.1c-2,2.5-5.7,2.7-7.8,0.5l-8.7-8.7   c-3,6.2-1.5,14,4.2,18.8c4.6,3.9,11.2,4.6,16.6,2l25.9,31.6c3.5,4.3,9.9,4.6,13.8,0.7l0,0c3.9-3.9,3.6-10.3-0.7-13.8L69.1,61.7   C72,55.8,70.9,48.7,66.1,43.9z M98.3,98.3c-1.9,1.9-5.1,1.9-7,0c-1.9-1.9-1.9-5.1,0-7s5.1-1.9,7,0C100.2,93.2,100.2,96.3,98.3,98.3   z"/>
</g>
</svg>