<?xml version="1.0" ?>
<!-- Uploaded to: SVG Repo, www.svgrepo.com, Generator: SVG Repo Mixer Tools -->
<svg width="800px" height="800px" viewBox="0 0 120 120" id="Layer_1" version="1.1" xml:space="preserve" xmlns="http://www.w3.org/2000/svg" xmlns:xlink="http://www.w3.org/1999/xlink">
<style type="text/css">
	.st0{fill:#FFAC5A;}
	.st1{fill:#448FFC;}
	.st2{fill:#F99653;}
	.st3{fill:#FFD551;}
	.st4{fill:#EDBF9A;}
	.st5{fill:#FFD9B6;}
	.st6{fill:#E08344;}
	.st7{fill:#FFFFFF;}
	.st8{fill:#EFEEED;}
	.st9{fill:#80B2F9;}
</style>
<g>
<path class="st0" d="M80.7,60.6H39.1c-1.7,0-3-1.4-2.8-3.1l2-20.8c-0.1-13.2,9.6-24,21.6-24l0,0c12,0,21.7,10.8,21.7,24l2,20.8   C83.7,59.2,82.3,60.6,80.7,60.6z"/>
<g>
<path class="st1" d="M78.3,35.1h-2.7v8.9h2.7c1.5,0,2.8-1,2.8-2.3v-4.4C81.1,36.1,79.9,35.1,78.3,35.1z"/>
<path class="st1" d="M38.8,37.4v4.4c0,1.2,1.2,2.3,2.8,2.3h2.7v-8.9h-2.7C40,35.1,38.8,36.1,38.8,37.4z"/>
</g>
<path class="st2" d="M95.6,103.8H24.3V75.1c0-4.6,3.3-8.7,8.2-10.2l20.5-6.2c4.6-1.4,9.4-1.4,13.8,0l20.5,6.2   c4.9,1.5,8.2,5.6,8.2,10.2L95.6,103.8L95.6,103.8z"/>
<rect class="st3" height="2.6" width="11.9" x="64.7" y="79.1"/>
<rect class="st4" height="21" width="15.1" x="52.4" y="46.1"/>
<path class="st5" d="M77.1,35.8c0,11.6-7.7,23.4-17.1,23.4S42.8,47.3,42.8,35.8S50.5,17.2,60,17.2S77.1,24.2,77.1,35.8z"/>
<g>
<path class="st6" d="M40.7,83h-0.5c-0.5,0-1,0.4-1,1v19.7h2.6V84.1C41.7,83.5,41.2,83,40.7,83z"/>
<path class="st6" d="M79.8,83h-0.5c-0.5,0-1,0.4-1,1v19.7h2.6V84.1C80.8,83.5,80.4,83,79.8,83z"/>
<polygon class="st6" points="67.5,60.1 60,66.9 52.4,60.1 51.3,59.2 43.3,61.6 55.2,72.4 60,67.1 64.7,72.4 76.7,61.6 68.6,59.2       "/>
</g>
<g>
<path class="st7" d="M66.8,51.4c-1.2,0-1.5,0-3-0.1h-1.5v-1.2h1.5c6.9,0.2,9.2,0.3,11.3-1.5c2.2-1.8,1.8-6.4,1.8-6.5l1.2-0.1    c0,0.2,0.5,5.3-2.2,7.5C73.9,51.1,71.3,51.4,66.8,51.4z"/>
</g>
<path class="st1" d="M65.1,52.7H61c-0.6,0-1.1-0.5-1.1-1.1v-1.5c0-0.6,0.5-1.1,1.1-1.1h4.1c0.6,0,1.1,0.5,1.1,1.1v1.5   C66.3,52.2,65.8,52.7,65.1,52.7z"/>
<path class="st8" d="M32.5,70.3h54.9c1.9,0,3.4,1.6,3.2,3.5l-2,31H31.4l-2-31C29.2,71.9,30.6,70.3,32.5,70.3z"/>
<g>
<path class="st9" d="M63.6,97.1c0-1.6-1-2.9-2.4-3.4v2.8c0,0.6-0.4,1.2-1.1,1.2c-0.7,0.1-1.4-0.5-1.4-1.2v-2.8    c-1.5,0.5-2.5,2-2.4,3.7c0.1,1.4,1.1,2.6,2.4,3.1v3.7h2.4v-3.7C62.6,100,63.6,98.7,63.6,97.1z"/>
<path class="st9" d="M70.5,99.9h2.4v-5.4h-2.4c-0.3-1-0.6-2-1.2-2.8L71,90l-3.8-3.9l-1.7,1.7c-0.9-0.5-1.8-0.9-2.8-1.2v-2.4h-5.4    v2.4c-1,0.3-1.9,0.6-2.8,1.2l-1.7-1.7L49,90l1.7,1.7c-0.5,0.9-0.9,1.8-1.2,2.8h-2.4v5.4h2.4c0.2,0.9,0.6,1.7,1,2.5    c0,0.1,0.1,0.2,0.2,0.3l-1.7,1.7l2.9,2.9h1.8l0.8-0.8c0.5,0.3,1.1,0.6,1.6,0.8h7.8c0.6-0.2,1.1-0.5,1.6-0.8l0.8,0.8h1.8l3-2.9    l-1.7-1.7c0.1-0.1,0.1-0.2,0.2-0.4C70,101.6,70.3,100.8,70.5,99.9z M61.2,103.1c-0.4,0.1-0.8,0.1-1.2,0.1c-0.4,0-0.8,0-1.2-0.1    c-0.6-0.1-1.2-0.4-1.8-0.7c-1.8-1-3-3-3-5.2c0-3.3,2.7-6,6-6s6,2.7,6,6c0,2.2-1.2,4.1-3,5.2C62.5,102.7,61.8,102.9,61.2,103.1z"/>
</g>
<path class="st1" d="M101.3,104.8c0,0.7-0.3,1.3-0.7,1.8c-0.4,0.5-1.1,0.7-1.8,0.7H21.2c-1.4,0-2.5-1.1-2.5-2.5   c0-0.7,0.3-1.3,0.7-1.8c0.4-0.5,1.1-0.7,1.8-0.7h77.6C100.2,102.4,101.3,103.5,101.3,104.8z"/>
<path class="st0" d="M74.9,20.9C73.7,23.6,72,26,70,28.1c-5,5.3-12.1,8.6-20,8.6c-2.7,0-5.3-0.4-7.8-1.1c0.4-12.2,8.5-19.7,18.7-20   c0.2,0,0.4,0,0.6,0C66.8,15.6,71.4,17.5,74.9,20.9z"/>
<path class="st0" d="M77.1,33.1c-3.9-0.9-7.5-2.6-10.5-5c2-2.1,3.7-4.5,4.9-7.2C74.4,23.9,76.5,28,77.1,33.1z"/>
</g>
</svg>