<?xml version="1.0" ?>
<!-- Uploaded to: SVG Repo, www.svgrepo.com, Generator: SVG Repo Mixer Tools -->
<svg width="800px" height="800px" viewBox="0 0 120 120" id="Layer_1" version="1.1" xml:space="preserve" xmlns="http://www.w3.org/2000/svg" xmlns:xlink="http://www.w3.org/1999/xlink">
<style type="text/css">
	.st0{fill:#6BCB77;}
	.st1{fill:#4D96FF;}
</style>
<g>
<path class="st0" d="M72.4,59.7c0-5.4-3.4-10-8.3-11.7v9.6c0,2.1-1.5,4-3.7,4.3c-2.5,0.3-4.7-1.7-4.7-4.1V48   c-5.2,1.8-8.7,7-8.2,12.9c0.4,4.8,3.7,8.9,8.2,10.5V84h8.4V71.4C69,69.7,72.4,65.1,72.4,59.7z"/>
<path class="st1" d="M104.4,69.3V50.7h-8.2c-0.9-3.4-2.2-6.7-4-9.6l5.8-5.8L84.8,22L79,27.8c-3-1.8-6.2-3.1-9.6-4v-8.2H50.7v8.2   c-3.4,0.9-6.7,2.2-9.6,4L35.2,22L22,35.2l5.8,5.8c-1.8,3-3.1,6.2-4,9.6h-8.2v18.7h8.2c0.9,3.4,2.2,6.7,4,9.6L22,84.8L35.2,98   l5.8-5.8c3,1.8,6.2,3.1,9.6,4v8.2h18.7v-8.2c3.4-0.9,6.7-2.2,9.6-4l5.8,5.8L98,84.8L92.2,79c1.8-3,3.1-6.2,4-9.6H104.4z M60,80.6   c-11.4,0-20.6-9.2-20.6-20.6S48.6,39.4,60,39.4S80.6,48.6,80.6,60S71.4,80.6,60,80.6z"/>
</g>
</svg>