<?xml version="1.0" encoding="utf-8"?>
<!-- Uploaded to: SVG Repo, www.svgrepo.com, Generator: SVG Repo Mixer Tools -->
<svg width="800px" height="800px" viewBox="0 0 1024 1024" class="icon"  version="1.1" xmlns="http://www.w3.org/2000/svg"><path d="M241.777778 426.666667h540.444444v355.555555H241.777778z" fill="#FA1C3D" /><path d="M782.222222 426.666667v355.555555H241.777778V426.666667h540.444444z m-14.222222 14.222222H256v327.111111h512V440.888889z" fill="#B2181A" /><path d="M312.888889 426.666667h199.111111v341.333333H312.888889zM512 426.666667h199.111111v341.333333H512z" fill="#FDD821" /><path d="M426.666667 597.333333a28.444444 21.333333 90 1 0 42.666666 0 28.444444 21.333333 90 1 0-42.666666 0Z" fill="#FFFFFF" /><path d="M554.666667 597.333333a28.444444 21.333333 90 1 0 42.666666 0 28.444444 21.333333 90 1 0-42.666666 0Z" fill="#FFFFFF" /><path d="M448 568.888889c11.776 0 21.333333 12.728889 21.333333 28.444444s-9.557333 28.444444-21.333333 28.444445-21.333333-12.728889-21.333333-28.444445 9.557333-28.444444 21.333333-28.444444z m0 14.222222c-2.887111 0-7.111111 5.617778-7.111111 14.222222s4.224 14.222222 7.111111 14.222223 7.111111-5.617778 7.111111-14.222223-4.224-14.222222-7.111111-14.222222zM576 568.888889c11.776 0 21.333333 12.728889 21.333333 28.444444s-9.557333 28.444444-21.333333 28.444445-21.333333-12.728889-21.333333-28.444445 9.557333-28.444444 21.333333-28.444444z m0 14.222222c-2.887111 0-7.111111 5.617778-7.111111 14.222222s4.224 14.222222 7.111111 14.222223 7.111111-5.617778 7.111111-14.222223-4.224-14.222222-7.111111-14.222222z" fill="#B2181A" /><path d="M97.891556 384h828.216888a7.111111 7.111111 0 0 1 3.527112 13.283556L853.333333 440.888889H170.666667l-76.302223-43.605333A7.111111 7.111111 0 0 1 97.891556 384z" fill="#FDD821" /><path d="M926.108444 384a7.111111 7.111111 0 0 1 3.527112 13.283556L853.333333 440.888889H170.666667l-76.302223-43.605333A7.111111 7.111111 0 0 1 97.891556 384h828.216888z m-26.794666 14.222222H124.672l49.792 28.444445h675.057778l49.792-28.444445z" fill="#B2181A" /><path d="M241.777778 227.555556h540.444444l56.888889 170.666666H184.888889z" fill="#FA1C3D" /><path d="M782.222222 227.555556l56.888889 170.666666H184.888889l56.888889-170.666666h540.444444z m-10.254222 14.222222H252.017778l-47.402667 142.222222h614.755556l-47.402667-142.222222z" fill="#B2181A" /><path d="M206.222222 775.111111m14.222222 0l583.111112 0q14.222222 0 14.222222 14.222222l0 0q0 14.222222-14.222222 14.222223l-583.111112 0q-14.222222 0-14.222222-14.222223l0 0q0-14.222222 14.222222-14.222222Z" fill="#FDD821" /><path d="M803.555556 768a21.333333 21.333333 0 0 1 0 42.666667h-583.111112a21.333333 21.333333 0 0 1 0-42.666667h583.111112z m0 14.222222h-583.111112a7.111111 7.111111 0 0 0-1.28 14.108445l1.28 0.113777h583.111112a7.111111 7.111111 0 0 0 1.28-14.108444L803.555556 782.222222zM284.643556 263.779556a7.111111 7.111111 0 0 1 13.937777 2.531555l-0.241777 1.265778-32.782223 118.328889a7.111111 7.111111 0 0 1-13.937777-2.545778l0.241777-1.251556 32.782223-118.328888zM746.410667 263.779556a7.111111 7.111111 0 0 0-13.937778 2.531555l0.227555 1.265778 32.782223 118.328889a7.111111 7.111111 0 0 0 13.937777-2.545778l-0.227555-1.251556-32.782222-118.328888zM349.582222 251.505778a7.111111 7.111111 0 0 1 5.176889 7.495111l-0.227555 1.251555-34.787556 125.639112a7.111111 7.111111 0 0 1-13.937778-2.531556l0.227556-1.251556 34.787555-125.639111a7.111111 7.111111 0 0 1 7.495111-5.191111l1.265778 0.227556zM680.775111 251.505778a7.111111 7.111111 0 0 0-5.191111 7.495111l0.227556 1.251555 34.787555 125.639112a7.111111 7.111111 0 0 0 13.937778-2.531556l-0.227556-1.251556-34.787555-125.639111a7.111111 7.111111 0 0 0-7.495111-5.191111l-1.251556 0.227556zM398.151111 256.426667a7.111111 7.111111 0 0 1 13.937778 2.602666l-0.241778 1.265778-35.427555 125.639111a7.111111 7.111111 0 0 1-13.937778-2.602666l0.241778-1.265778 35.427555-125.639111zM632.618667 256.426667a7.111111 7.111111 0 0 0-13.923556 2.602666l0.241778 1.265778 35.427555 125.639111a7.111111 7.111111 0 0 0 13.937778-2.602666l-0.241778-1.265778-35.441777-125.639111zM458.908444 256.256a7.111111 7.111111 0 0 1 13.852445 2.958222l-0.270222 1.251556-39.04 125.639111a7.111111 7.111111 0 0 1-13.838223-2.958222l0.270223-1.251556 39.025777-125.639111zM575.672889 256.256a7.111111 7.111111 0 0 0-13.838222 2.958222l0.270222 1.251556 39.025778 125.639111a7.111111 7.111111 0 0 0 13.852444-2.958222l-0.270222-1.251556-39.04-125.639111zM512 251.249778a7.111111 7.111111 0 0 1 6.997333 5.831111l0.113778 1.28V384a7.111111 7.111111 0 0 1-14.108444 1.28L504.888889 384v-125.639111a7.111111 7.111111 0 0 1 7.111111-7.111111zM519.111111 440.888889v327.111111h-14.222222V440.888889z" fill="#B2181A" /></svg>