<?xml version="1.0" encoding="utf-8"?>
<!-- Uploaded to: SVG Repo, www.svgrepo.com, Generator: SVG Repo Mixer Tools -->
<svg width="800px" height="800px" viewBox="0 0 1024 1024" class="icon"  version="1.1" xmlns="http://www.w3.org/2000/svg"><path d="M605.196375 899.480363H360.024169v-93.583082h245.172206v93.583082z" fill="#824522" /><path d="M481.450151 64.193353L154.296073 809.76435h653.534743L481.450151 64.193353z" fill="#148d13" /><path d="M568.072508 52.592145h-66.513596l-20.108761-35.577039-20.882175 35.577039H394.054381l54.138972 22.429003-20.882175 36.350453 54.138973-22.429003 53.365559 22.429003-20.882175-36.350453z" fill="#f4ea2a" /><path d="M584.314199 295.444109l-184.072507-47.178248L548.73716 213.462236l-4.640483-10.054381-138.441088 32.483384-5.413897 12.374622h-1.546828l-3.867069 9.280967 194.900302 50.271903z" fill="#f5818e" /><path d="M538.682779 191.806647l-104.410876-26.296073-3.867069 9.280967 113.691843 28.616314z" fill="#f5818e" /><path d="M654.694864 455.540785L343.009063 375.879154l-4.640483 10.054381 321.740181 81.981873z" fill="#f5818e" /><path d="M766.066465 709.220544l-5.413897-13.148036-498.851964-125.293052 402.175227-92.809667-3.86707-10.054381L262.574018 559.178248l-5.413897 12.374622-3.093656 7.734139z" fill="#f5818e" /><path d="M589.728097 308.592145L347.649547 363.504532l-5.413897 12.374622 252.13293-58.006042z" fill="#f5818e" /><path d="M765.293051 709.220544l-405.268882 97.450151h28.616314l381.293052-88.169184z" fill="#f5818e" /><path d="M361.570997 471.782477c-16.241692 0-28.616314 13.148036-28.616314 28.616315s13.148036 28.616314 28.616314 28.616314c16.241692 0 28.616314-13.148036 28.616314-28.616314 0-16.241692-12.374622-28.616314-28.616314-28.616315z" fill="#f4ea2a" /><path d="M510.066465 141.534743m-28.616314 0a28.616314 28.616314 0 1 0 57.232628 0 28.616314 28.616314 0 1 0-57.232628 0Z" fill="#f4ea2a" /><path d="M498.465257 391.347432c-16.241692 0-28.616314 13.148036-28.616314 28.616314 0 16.241692 13.148036 28.616314 28.616314 28.616314 16.241692 0 28.616314-13.148036 28.616314-28.616314s-13.148036-28.616314-28.616314-28.616314z" fill="#f4ea2a" /><path d="M668.616314 529.015106c0-15.468278-13.148036-28.616314-28.616314-28.616314-16.241692 0-28.616314 13.148036-28.616314 28.616314 0 16.241692 13.148036 28.616314 28.616314 28.616314 15.468278 0.773414 28.616314-12.374622 28.616314-28.616314z" fill="#f4ea2a" /><path d="M558.018127 754.851964c-16.241692 0-28.616314 13.148036-28.616314 28.616314 0 16.241692 13.148036 28.616314 28.616314 28.616314 16.241692 0 28.616314-13.148036 28.616314-28.616314s-13.148036-28.616314-28.616314-28.616314z" fill="#f4ea2a" /><path d="M224.676737 722.36858c-16.241692 0-28.616314 13.148036-28.616314 28.616314 0 16.241692 13.148036 28.616314 28.616314 28.616314 16.241692 0 28.616314-13.148036 28.616314-28.616314 0.773414-15.468278-12.374622-28.616314-28.616314-28.616314z" fill="#f4ea2a" /><path d="M500.012085 532.108761c-11.601208 0-20.882175 9.280967-20.882176 20.882176 0 11.601208 9.280967 20.882175 20.882176 20.882175 11.601208 0 20.882175-9.280967 20.882175-20.882175-0.773414-11.601208-9.280967-20.882175-20.882175-20.882176z" fill="#f4ea2a" /><path d="M446.646526 694.52568m-20.882176 0a20.882175 20.882175 0 1 0 41.764351 0 20.882175 20.882175 0 1 0-41.764351 0Z" fill="#f4ea2a" /><path d="M552.60423 305.498489m-30.163142 0a30.163142 30.163142 0 1 0 60.326284 0 30.163142 30.163142 0 1 0-60.326284 0Z" fill="#f4ea2a" /><path d="M689.498489 682.924471m-30.163142 0a30.163142 30.163142 0 1 0 60.326284 0 30.163142 30.163142 0 1 0-60.326284 0Z" fill="#f4ea2a" /><path d="M397.148036 266.827795c-17.015106 0-30.163142 13.92145-30.163142 30.163142 0 17.015106 13.148036 30.163142 30.163142 30.163142s30.163142-13.148036 30.163142-30.163142c0.773414-17.015106-13.148036-30.163142-30.163142-30.163142z" fill="#f4ea2a" /></svg>