<?xml version="1.0" encoding="utf-8"?>
<!-- Uploaded to: SVG Repo, www.svgrepo.com, Generator: SVG Repo Mixer Tools -->
<svg width="800px" height="800px" viewBox="0 0 1024 1024" class="icon"  version="1.1" xmlns="http://www.w3.org/2000/svg"><path d="M497.691843 395.987915l52.592145-17.015105c-25.522659-44.084592-92.809668-75.021148-133.800604-105.957704 0 13.148036 10.054381 37.123867 10.05438 37.123867s-92.809668-9.280967-123.746223-29.389728c0 13.148036 48.725076 43.311178 48.725075 43.311178s-89.716012 3.093656-118.332326 10.827795c2.320242 2.320242 29.389728 23.975831 29.389728 23.97583s-68.060423 43.311178-75.794562 76.567976c28.616314-7.734139 56.459215-20.882175 85.075529-23.202417 5.413897 20.882175 2.320242 44.084592 5.413897 61.873112 20.882175-20.882175 38.670695-48.725076 56.459215-71.927492 13.148036 15.468278 13.148036 36.350453 23.202417 51.818731C385.546828 436.205438 448.193353 366.598187 448.193353 366.598187l-23.202416 60.326284 72.700906-30.936556z m68.833837-174.018126c-10.054381 5.413897-23.202417 10.827795-33.256798 19.335347-3.867069-30.936556 3.093656-61.873112 0-90.489426-17.78852 5.413897-35.577039 16.241692-47.951661 27.069486-16.241692-27.8429-20.108761-58.779456-33.256798-84.302114-4.640483 10.827795-21.655589 56.459215-21.655589 56.459214s-94.356495-65.740181-135.347432-59.55287c34.803625 30.163142 68.833837 64.966767 108.277945 92.036254-5.413897 3.093656-14.694864 16.241692-17.788519 18.561933C424.990937 218.876133 463.661631 225.063444 502.332326 239.758308c-10.054381 7.734139-25.522659 18.561934-35.577039 27.069487 31.70997 24.749245 100.543807 81.981873 100.543807 81.981873-16.241692-46.404834 8.507553-85.848943-0.773414-126.839879zM789.268882 270.694864s-42.537764-9.280967-47.951661-24.749245c36.350453-13.148036 92.809668-23.202417 126.066465-10.05438-17.78852-10.054381-63.41994-38.670695-63.41994-38.670695s73.47432-36.350453 83.528701-77.34139c-54.138973 20.882175-170.924471 73.47432-170.924471 73.47432s0.773414-24.749245-1.546828-32.483383c-36.350453 15.468278-59.55287 61.873112-85.075529 90.489426-2.320242-7.734139-15.468278-15.468278-17.788519-23.202417-23.202417 28.616314-30.936556 87.39577-36.350453 123.746223 0 0 23.202417-15.468278 73.47432-44.858006C700.326284 278.429003 789.268882 270.694864 789.268882 270.694864z m158.549849 116.785499c-28.616314-33.256798-71.927492-44.084592-108.277946-61.873112 7.734139-13.148036 20.882175-23.202417 30.936556-36.350453-33.256798 7.734139-71.927492 17.78852-105.957704 23.202417 2.320242-7.734139 0-20.882175 2.320242-25.522659-17.78852 2.320242-33.256798 15.468278-48.725075 23.202417-2.320242-5.413897-7.734139-10.054381-7.734139-17.78852-28.616314 23.202417-67.287009 54.138973-102.864049 64.193354l27.069487 6.187311s50.271903 21.655589 81.208459 44.858006c15.468278-26.296073 5.413897-35.577039 10.827794-37.123867 4.640483-1.546828 57.232628 34.803625 85.075529 58.006042 0-17.78852-5.413897-33.256798-10.05438-48.725075 45.63142-2.320242 102.864048-10.054381 146.175226 7.734139z m-247.492447 123.746223c15.468278 0 28.616314 0 44.084592-2.320242-17.78852-23.202417-46.404834-30.936556-69.607251-46.404833 15.468278 5.413897 33.256798 2.320242 48.725076-2.320242-17.78852-23.202417-44.084592-28.616314-69.607251-40.990937 13.148036 2.320242 23.202417-2.320242 36.350453-5.413897-23.202417-28.616314-77.34139-25.522659-108.277945-48.725075 0 0-7.734139 77.34139-13.148037 110.598187 7.734139-10.054381 17.78852-20.882175 25.522659-28.616314 2.320242 23.202417 5.413897 46.404834 5.413897 69.60725 13.148036-7.734139 23.202417-20.882175 33.256798-30.936556 2.320242 30.936556-13.148036 71.927492-2.320242 102.864049 15.468278-7.734139 28.616314-13.148036 40.990937-20.882175 17.78852 28.616314 30.936556 75.021148 44.084592 108.277945-7.734139-38.670695 0-85.075529 5.413897-121.425982 10.054381 0 25.522659-2.320242 36.350453 0-13.148036-20.108761-36.350453-30.936556-57.232628-43.311178zM525.534743 802.803625c-23.202417 25.522659-71.154079 88.169184-71.154078 88.169185l-3.86707 75.794562s77.34139-71.154079 102.864049-102.090635c-25.522659 10.054381-70.380665 28.616314-70.380665 28.616314s34.803625-54.138973 42.537764-90.489426z m-229.703927 128.386707c-28.616314-10.054381-56.459215-25.522659-82.755287-40.990936 38.670695 25.522659 77.34139 48.725076 98.223565 90.489426l15.468278-33.256798c-23.202417-54.138973-95.129909-157.003021-95.12991-157.003021s56.459215 94.356495 64.193354 140.761329z" fill="#1ca538" /><path d="M310.52568 955.166163c15.468278-105.957704 30.936556-198.767372 77.341389-299.311178 23.202417-48.725076 38.670695-95.129909 69.607251-141.534743 36.350453-54.138973 118.332326-154.682779 118.332327-154.68278S470.622356 604.809668 465.208459 744.024169c-2.320242 56.459215 20.882175 126.066465 13.148036 183.299094-7.734139 54.138973-102.864048 38.670695-154.682779 51.818731l-13.148036-23.975831z" fill="#65320b" /></svg>